<svg width="512" height="512" version="1.1" viewBox="0 0 512 512" xmlns="http://www.w3.org/2000/svg">
  <defs>
    <marker id="marker" overflow="visible" orient="auto">
      <circle r="1.5" cx="0" cy="0"/>
    </marker>
    <linearGradient id="gradient1" x1="166" x2="376" y1="352" y2="198" gradientUnits="userSpaceOnUse">
      <stop stop-color="#ff784c" offset="0"/>
      <stop stop-color="#fffd4c" offset="1"/>
    </linearGradient>
    <linearGradient id="gradient2" x1="323.39" x2="337.25" y1="260.34" y2="252.34" gradientUnits="userSpaceOnUse">
      <stop stop-color="#8ccb7b" offset="0"/>
      <stop stop-color="#adff5d" offset="1"/>
    </linearGradient>
    <linearGradient id="gradient3" x1="215" x2="215" y1="364.44" y2="177" gradientUnits="userSpaceOnUse">
      <stop stop-color="#5aacff" offset="0"/>
      <stop stop-color="#fb7edc" offset="0.85"/>
      <stop stop-color="#8ccb7b" offset="1"/>
    </linearGradient>
  </defs>

  <circle stroke="#000" fill-opacity="0.4" cx="212" cy="127" r="4"/>
  <path fill="#ccc" stroke="#000" d="m163 352-21-72v-58l41.154-57.516c9.4189-13.302 25.563-20.304 41.819-18.077 16.255 2.2271 29.921 13.314 35.452 28.761 4.3031 12.018 13.958 21.346 26.118 25.233 12.159 3.8864 25.435 1.8876 35.907-5.4037l56.551 3e-3v92c0 12.571-10 14-19.432 21.316s-11.568 23.684-11.568 39.684v41h-185v-37"/>
  <path fill="url(#gradient1)" stroke="#000" d="m285.19 203.12c12.852 4.256 26.947 2.3589 38.196-5.1299l52.612 0.0137v88c0 10-7.6996 13.148-17 18l-92 48h-101l-21-72v-57l40.631-56.823c8.8509-12.411 23.883-18.886 39.002-16.788 15.119 2.0973 27.821 12.42 32.967 26.79 4.5636 12.746 14.741 22.681 27.592 26.937z"/>
  <path fill="#8ccb7b" stroke="#000" d="m209 152.3v-13.301l-4-7v-5h14v5l-4 7v12.203"/>
  <path fill="url(#gradient2)" stroke="#000" d="m223.51 151c0-3.1308 3.5162-8.8651 9.9277-9.5156 3.4037-0.34533 5.7613 0.31763 7.8535 1.6699s3.9362 3.5343 5.6445 6.3867l45.316 75.661-3.1148 1.7983 46 79.674 11.258-6.5-1.75-3.0312 13.857-8 1.75 3.0312 11.258-6.5-46-79.674-3.0312 1.75-4.3516-7.5371c-3.5486-6.1464 0.41682-20.133 16.473-20.133h44.785v-6h-44.785c-19.668 0-27.939 18.272-21.668 29.133l4.3516 7.5371-3.0312 1.75 1.75 3.0312-13.857 8-1.75-3.0312-2.9472 1.7018-45.363-75.743c-1.9844-3.3132-4.3511-6.2858-7.5352-8.3438-2.3881-1.5435-5.2276-2.4936-8.416-2.6777-1.0628-0.0614-2.1637-0.0372-3.3008 0.0781-9.4922 0.96307-15.322 8.6152-15.322 15.484m100.1 67.322 3.5 6.0625-13.857 8-3.5-6.0625zm5.1094 8.8516 3.5 6.0625-13.855 8-3.5-6.0625zm5.1133 8.8535 3.5 6.0625-13.857 8-3.5-6.0625zm5.1094 8.8516 3.5 6.0625-13.855 8-3.5-6.0625zm5.1113 8.8535 3.5 6.0625-13.855 8-3.5-6.0625zm5.1113 8.8516 3.5 6.0625-13.857 8-3.5-6.0625zm5.1113 8.8555 3.5 6.0606-13.855 8-3.5-6.0606zm5.1113 8.8516 3.5 6.0605-13.857 8-3.5-6.0605z" color="#000000" color-rendering="auto" image-rendering="auto" shape-rendering="auto" style="font-feature-settings:normal;font-variant-alternates:normal;font-variant-caps:normal;font-variant-east-asian:normal;font-variant-ligatures:normal;font-variant-numeric:normal;font-variant-position:normal;font-variation-settings:normal;inline-size:0;isolation:auto;mix-blend-mode:normal;shape-margin:0;shape-padding:0;text-decoration-color:#000000;text-decoration-line:none;text-decoration-style:solid;text-indent:0;text-orientation:mixed;text-transform:none;white-space:normal"/>
  <path fill="url(#gradient3)" stroke="#000" stroke-linejoin="round" stroke-linecap="square" d="m209 151.81v0.49219c-16.693 4.4167-29 19.618-29 37.699 9.8e-4 19.396 14.255 35.843 33.453 38.602 12.165 49.511 40.418 97.282 78.553 130.94 0.0904 4.2054 1.2405 8.3201 3.3438 11.963 6.9036 11.957 22.193 16.054 34.15 9.1504s16.054-22.193 9.1504-34.15c-0.1497-0.25861-0.30402-0.51451-0.46289-0.76758l3.0293-2.4512c1.4069-1.1375 1.7754-1.0312 4.5332-1.0312h31.25v-6h-31.25c-2.8953 0-5.7533 0.30075-8.3066 2.3652l-3.0293 2.4492c-1.3496-1.3103-2.8428-2.4641-4.4512-3.4394-10.11-50.017-37.5-98.523-74.479-133.84 1.6635-4.4043 2.5158-9.0733 2.5156-13.781 0-19.993-15.046-36.462-34.432-38.725-0.1096-0.23949-0.0454-0.70977-0.01-0.96484m30.725 56.303c35.5 34.451 61.957 81.083 72.428 129.35-1.3253-0.55844-2.6962-1.0015-4.0977-1.3242-10.37-34.783-45.313-95.786-70.416-124.17 0.76704-1.245 1.4634-2.5322 2.0859-3.8555zm-3.7832 6.3789c24.545 28.247 57.952 86.464 68.906 121.12-1.6612-0.16021-3.3342-0.15356-4.9941 0.0195-12.99-28.592-48.654-90.5-67.26-117.15 1.2038-1.2559 2.3222-2.5909 3.3477-3.9961zm-5.5234 6.0957c18.504 26.664 53.136 86.766 66.387 115.56-1.9198 0.44395-3.7804 1.1133-5.543 1.9941l-65.722-113.84c1.7212-1.1077 3.3526-2.3492 4.8789-3.7129zm-7.4629 5.2383 65.709 113.81c-1.6438 1.0853-3.1537 2.3611-4.498 3.8008-18.281-25.831-52.936-85.731-66.818-115.14 1.9312-0.67712 3.8062-1.5052 5.6074-2.4766zm-8.4883 3.3633c13.838 29.511 49.507 91.145 67.734 116.64-0.97989 1.3513-1.822 2.7973-2.5137 4.3164-24.472-26.743-58.074-84.546-70.346-119.95 1.7288-0.21847 3.4409-0.55255 5.125-1zm-12.531 1.2305c0.83421 0.0535 1.6699 0.0803 2.5059 0.0801 0.62787 1.9e-4 1.2557-0.0148 1.8828-0.0449 12.138 35.974 47.354 96.437 72.213 122.73-0.42057 1.3745-0.72182 2.7827-0.90039 4.209-36.456-33.103-63.562-79.154-75.701-126.97z" style="font-variation-settings:normal"/>
  <path fill="url(#gradient3)" stroke="#000" stroke-linejoin="round" stroke-linecap="square" d="m203.46 221.47-10.088 17.029c-2.8701 4.8444-2.6164 10.078-1.3613 14.299 1.2551 4.2207 3.4592 7.676 4.7832 9.7207l60.979 94.174c3.1905 4.9272 7.2994 7.939 11.818 9.5039s9.3454 1.8027 14.451 1.8027h12.299c1.6568 0 3-1.3432 3-3s-1.3432-3-3-3h-12.299c-4.8942 0-9.0697-0.28881-12.488-1.4727-3.4186-1.1838-6.1846-3.141-8.7441-7.0938l-60.98-94.174c-1.2736-1.9669-3.1107-4.9559-4.0664-8.1699-0.95573-3.214-1.0817-6.4033 0.77149-9.5312l10.088-17.029" style="font-variation-settings:normal"/>
  <path fill="none" stroke="#000" d="m293.32 356.11"/>
  <path opacity="0.5" d="m208.85 212.55-2.0639-1e-5 2 4.1989 2-4.1989zm9.1882-9.3134c-0.75925-0.0676-1.5326-3e-3 -2.3027 0.12891-1.6277 0.27896-3.4411 1.2967-4.8828 2.8789s-2.502 3.7488-2.502 6.3047h1c0-2.2802 0.93936-4.2032 2.2402-5.6309 1.3009-1.4276 2.9709-2.3384 4.3125-2.5684 1.429-0.24491 2.7047-0.21936 3.8691 0.42383s2.2777 1.9438 3.2656 4.4238l0.92968-0.3711c-1.0394-2.6091-2.2827-4.1388-3.7109-4.9277-0.71411-0.39445-1.4595-0.59446-2.2188-0.66211zm-3.7832-20.75c-0.75924-0.0676-1.5326-5e-3 -2.3027 0.12695-1.6277 0.27897-3.4411 1.2986-4.8828 2.8809-1.4417 1.5822-2.502 3.7488-2.502 6.3047h1c0-2.2802 0.93937-4.2032 2.2402-5.6309 1.3009-1.4276 2.9709-2.3384 4.3125-2.5684 1.429-0.24491 2.7047-0.21936 3.8691 0.42383s2.2777 1.9438 3.2656 4.4238l0.92969-0.3711c-1.0394-2.6091-2.2827-4.1408-3.7109-4.9297-0.7141-0.39445-1.4595-0.59251-2.2188-0.66016zm4.748-25.488-5 10h10zm-1.5 10c0 32.105 3.4643 41.424 10.127 56.604l2.7461-1.207c-6.6389-15.125-9.873-23.501-9.873-55.396zm-12.436 24.801-2.0639-1e-5 2 4.1989 2-4.1989z"/>
  <path opacity="0.5" d="m233.94 173.18-2.5977 1.5c5.037 8.7244 5.8446 16.021 17.27 30.512l2.3555-1.8574c-11.165-14.161-11.707-20.939-17.027-30.154zm-6.2986-7.9104 0.66987 11.16 8.6603-5z"/>
  <path opacity="0.5" d="m301.01 346.56 0.16511 6.7062 5.2989-2.8146zm0.55783 2.1162c1.8048 3.3939 3.0701 6.2048 3.4238 8.7897 0.35363 2.5849-0.16179 4.9555-2.0042 7.642l0.8231 0.56659c1.9516-2.8458 2.5546-5.5412 2.1711-8.3441-0.38346-2.8028-1.7108-5.7014-3.5315-9.1252z"/>
  <path opacity="0.5" d="m308.04 342.83 0.16511 6.7062 5.2989-2.8146zm1.4004 1.4972-0.875 0.48438 10.18 18.367 0.875-0.48437z"/>
  <path opacity="0.5" d="m315.08 339.09 0.16511 6.7062 5.2989-2.8146zm1.3555 1.3508-0.86712 0.49836c1.9378 3.3589 3.6919 6.021 5.8651 7.832 2.1733 1.811 4.7784 2.7288 8.226 2.5826l-0.0441-0.99829c-3.2546 0.13798-5.5379-0.68175-7.5422-2.352-2.0043-1.6702-3.7168-4.2332-5.6378-7.5628z"/>
  <path fill="#8a3200" d="m187.68 326.55c2.9446-5.895 3.6161-6.1751 4.1219-12.762 0.5921 2.2368 1.0427 4.6808 0.50695 8.5696 1.1364-5.5299 1.9631-6.947 6.3047-9.8911-3.4346 4.3952-2.8022 6.6046-3.5439 11.515 1.0888-3.6677 4.6737-11.793 9.1414-11.492-1.5964 3.0205-7.9396 10.687-4.8994 11.329 2.8978-3.5267 2.9615-6.5592 4.9286-8.3317 0.36765 2.2385-2.5488 7.1869-1.178 7.2884 0.51311 0.038 5.7876-2.5017 5.9354 0.23535-5.6783 0.43964-9.6423 3.8094-10.506 8.7463z"/>
  <path fill="#f86262" stroke="#000" stroke-linejoin="round" d="m133.55 360.75h37.658c1.9788 0 3.5707-1.2682 5.502-4.1641 1.9313-2.8958 5.2143-11.15 7.2406-15.202l1.6927-3.56s-2.2796-2.1917-1.4205-3.9978l5.5842-11.74-0.34167 5.3743 3.9538-3.6561-0.34167 5.3743 3.9538-3.6561-0.34167 5.3743 3.9538-3.6561-5.5842 11.74c-0.85911 1.8061-3.9978 1.4205-3.9978 1.4205l-1.7182 3.6122c-1.9481 3.8962-5.2375 12.298-7.6412 15.902-2.4037 3.6042-5.8127 6.834-10.494 6.834h-37.658"/>
  <path fill="#ff5a5a" d="m114 359.75v8l9-4zm0 2.5h-15v3h15"/>
  <path fill="#5aacff" d="m398 335.25v8l-9-4zm0 2.5h15v3h-15"/>
  <path fill="#adff5d" d="m406.38 173.08v8l9-4zm0 2.5h-15v3h15"/>
  <path fill="none" stroke="#000" d="m98 134h114" marker-end="url(#marker)"/>
  <path fill="none" stroke="#000" d="m98 192.6h80" marker-end="url(#marker)"/>
  <path fill="none" stroke="#000" d="m98 163.29h102.44" marker-end="url(#marker)"/>
  <path fill="none" stroke="#000" d="m98 217.41h102" marker-end="url(#marker)"/>
  <path fill="none" stroke="#000" d="m98 272h102" marker-end="url(#marker)"/>
  <path fill="none" stroke="#000" d="m98 332h93" marker-end="url(#marker)"/>
  <path fill="none" stroke="#000" d="m414 370h-72" marker-end="url(#marker)"/>
  <path fill="none" stroke="#000" d="m414 314h-88" marker-end="url(#marker)"/>
  <path fill="none" stroke="#000" d="m414 261h-54" marker-end="url(#marker)"/>
  <path fill="none" stroke="#000" d="m414 217h-47" marker-end="url(#marker)"/>
  <path fill="none" stroke="#000" d="m414 150h-163.45" marker-end="url(#marker)"/>
  <path stroke="#000" stroke-linejoin="round" stroke-linecap="square" fill-opacity="0" d="m209.04 223c0 1.6568-1.3432 3-3 3s-3-1.3432-3-3 1.3432-3 3-3 3 1.3432 3 3zm90.3 142c0 1.6568-1.3432 3-3 3s-3-1.3432-3-3 1.3432-3 3-3 3 1.3432 3 3z"/>
  <path fill="#331300" fill-opacity=".5" d="m363.96 220.07c-13.23 49.374-38.549 73.854-65.873 86.277-27.324 12.424-56.789 12.648-78.09 12.648h-4v4h4c21.324 0 51.454-0.14444 79.744-13.008s54.606-38.588 68.082-88.883zm5.2394-11.829-9.4811 10.692 12.346 3.3081z" color="#000000" color-rendering="auto" image-rendering="auto" shape-rendering="auto" style="font-feature-settings:normal;font-variant-alternates:normal;font-variant-caps:normal;font-variant-east-asian:normal;font-variant-ligatures:normal;font-variant-numeric:normal;font-variant-position:normal;font-variation-settings:normal;inline-size:0;isolation:auto;mix-blend-mode:normal;shape-margin:0;shape-padding:0;text-decoration-color:#000000;text-decoration-line:none;text-decoration-style:solid;text-indent:0;text-orientation:mixed;text-transform:none;white-space:normal"/>
  <path fill="#331300" fill-opacity=".5" d="m354.71 204.36-9.4811 10.692 12.346 3.3081zm-5.2407 11.829c-10.984 40.992-34.587 54.871-60.637 62.881-26.049 8.0096-54.595 9.5192-73.982 25.787l-3.0645 2.5703 2.5703 3.0644 3.0644-2.5723c17.971-15.079 45.915-16.824 72.588-25.025s52.024-23.489 63.326-65.67z"/>
  <path fill="#331300" fill-opacity=".5" d="m334.98 212.31c-3.9392 14.701-13.245 23.99-25.482 30.695-12.237 6.7051-27.38 10.664-42.42 14.297s-29.965 6.931-41.902 12.631c-11.937 5.6999-21.011 14.085-23.359 27.402l-0.69531 3.9395 3.9394 0.69531 0.69532-3.9394c2.0975-11.896 9.8419-19.09 21.143-24.486 11.301-5.3959 26.034-8.7095 41.119-12.354 15.085-3.644 30.533-7.6264 43.402-14.678s23.181-17.335 27.424-33.168zm5.2401-11.828-9.4811 10.692 12.346 3.3081z"/>
  <path fill="url(#gradient3)" stroke="#000" stroke-linejoin="round" stroke-linecap="square" d="m215 150.73v0.46845c0.84429-0.086 1.6991-0.13461 2.5586-0.16601 0 0-0.0552-0.0998-0.0443-0.43531" style="font-variation-settings:normal"/>
  <rect fill="#73a5fa" x="375.03" y="336.75" width="2.4688" height="5" style="font-variation-settings:normal"/>
  <rect fill="#adff5d" x="377.41" y="174.58" width="2.4688" height="5" style="font-variation-settings:normal"/>
  <text x="91.105469" y="132.58083" font-family="Arial" font-size="12px" letter-spacing="0px" text-anchor="end" word-spacing="0px" style="line-height:1" xml:space="preserve">       <tspan x="91.105469" y="132.58083">Safety</tspan>
    <tspan x="91.105469" y="146.01488">valve</tspan>    </text>
  <text x="91.773438" y="165.13107" font-family="Arial" font-size="12px" letter-spacing="0px" text-anchor="end" word-spacing="0px" style="line-height:1" xml:space="preserve">       <tspan x="91.773438" y="165.13107">Saturated</tspan>
    <tspan x="91.773438" y="178.56512">steam</tspan>    </text>
  <text x="91.773438" y="190.82956" font-family="Arial" font-size="12px" letter-spacing="0px" text-anchor="end" word-spacing="0px" style="line-height:1" xml:space="preserve">       <tspan x="91.773438" y="190.82956">Steam</tspan>
    <tspan x="91.773438" y="204.26361">drum</tspan>    </text>
  <text x="91.805664" y="214.99408" font-family="Arial" font-size="12px" letter-spacing="0px" text-anchor="end" word-spacing="0px" style="line-height:1" xml:space="preserve">       <tspan x="91.805664" y="214.99408">Boiling</tspan>
    <tspan x="91.805664" y="228.42813">water</tspan>    </text>
  <text x="91.805664" y="268.99408" font-family="Arial" font-size="12px" letter-spacing="0px" text-anchor="end" word-spacing="0px" style="line-height:1" xml:space="preserve">       <tspan x="91.805664" y="268.99408">Downcomer</tspan>
    <tspan x="91.805664" y="282.42813">tube</tspan>    </text>
  <text x="91.805664" y="327.49408" font-family="Arial" font-size="12px" letter-spacing="0px" text-anchor="end" word-spacing="0px" style="line-height:1" xml:space="preserve">       <tspan x="91.805664" y="327.49408">Fuel</tspan>
    <tspan x="91.805664" y="340.92813">burner</tspan>    </text>
  <text x="91.805664" y="364.99408" font-family="'Vazir FD'" font-size="12px" font-weight="300" letter-spacing="0px" word-spacing="0px" style="line-height:1" xml:space="preserve">       <tspan x="91.805664" y="364.99408" font-family="Arial" font-size="12px" font-weight="normal" text-anchor="end">Fuel</tspan>    </text>
  <text x="422" y="147.58083" font-family="Arial" font-size="12px" letter-spacing="0px" word-spacing="0px" style="line-height:1" xml:space="preserve">       <tspan x="422" y="147.58083">Saturated</tspan>
    <tspan x="422" y="161.01488">steam outlet</tspan>    </text>
  <text x="422" y="174.66083" font-family="Arial" font-size="12px" letter-spacing="0px" word-spacing="0px" style="line-height:1" xml:space="preserve">       <tspan x="422" y="174.66083">Superheated</tspan>
    <tspan x="422" y="188.09488">steam</tspan>    </text>
  <text x="422" y="213.3152" font-family="Arial" font-size="12px" letter-spacing="0px" word-spacing="0px" style="line-height:1" xml:space="preserve">       <tspan x="422" y="213.3152">Exhaust</tspan>
    <tspan x="422" y="226.74925">gasses</tspan>    </text>
  <text x="422" y="264.17578" font-family="'Vazir FD'" font-size="12px" font-weight="300" letter-spacing="0px" word-spacing="0px" style="line-height:1" xml:space="preserve">       <tspan x="422" y="264.17578" font-family="Arial" font-size="12px" font-weight="normal">Superheater</tspan>    </text>
  <text x="422" y="318.22461" font-family="'Vazir FD'" font-size="12px" font-weight="300" letter-spacing="0px" word-spacing="0px" style="line-height:1" xml:space="preserve">       <tspan x="422" y="318.22461" font-family="Arial" font-size="12px" font-weight="normal">Water tubes</tspan>    </text>
  <text x="422" y="341.36792" font-family="'Vazir FD'" font-size="12px" font-weight="300" letter-spacing="0px" word-spacing="0px" style="line-height:1" xml:space="preserve">       <tspan x="422" y="341.36792" font-family="Arial" font-size="12px" font-weight="normal">Water</tspan>    </text>
  <text x="422" y="374.22461" font-family="'Vazir FD'" font-size="12px" font-weight="300" letter-spacing="0px" word-spacing="0px" style="line-height:1" xml:space="preserve">       <tspan x="422" y="374.22461" font-family="Arial" font-size="12px" font-weight="normal">Feedwaterdrum</tspan>    </text>
</svg>
