<svg viewBox="0 0 512 512" xmlns="http://www.w3.org/2000/svg">
  <defs>
    <marker id="marker" overflow="visible" orient="auto">
      <circle r="1.3"/>
    </marker>
    <linearGradient id="gradient1" x1="166" x2="376" y1="352" y2="198" gradientTransform="matrix(1.0809 0 0 1.0812 -21.272 -20.253)" gradientUnits="userSpaceOnUse">
      <stop stop-color="#ff784c" offset="0"/>
      <stop stop-color="#fffd4c" offset="1"/>
    </linearGradient>
    <linearGradient id="gradient2" x1="323.39" x2="337.25" y1="260.34" y2="252.34" gradientTransform="matrix(1.0809 0 0 1.0812 -21.272 -20.253)" gradientUnits="userSpaceOnUse">
      <stop stop-color="#8ccb7b" offset="0"/>
      <stop stop-color="#93ff5d" offset="1"/>
    </linearGradient>
    <linearGradient id="gradient3" x1="215" x2="215" y1="364.44" y2="177" gradientTransform="matrix(1.0809 0 0 1.0812 -21.272 -20.253)" gradientUnits="userSpaceOnUse">
      <stop stop-color="#5aacff" offset="0"/>
      <stop stop-color="#fb7edc" offset=".85"/>
      <stop stop-color="#8ccb7b" offset="1"/>
    </linearGradient>
  </defs>
  <path fill="#ccc" stroke="#000" stroke-width=".925" d="m154.92 360.34-22.699-77.848v-62.711l44.484-62.188c10.181-14.382 27.632-21.953 45.203-19.545 17.57 2.408 32.342 14.395 38.321 31.097 4.6513 12.994 15.087 23.08 28.231 27.282 13.143 4.2021 27.493 2.0409 38.813-5.8426l61.127 3e-3v99.472c0 13.592-10.809 15.137-21.004 23.047s-12.504 25.608-12.504 42.907v44.33h-199.97v-40.005"/>
  <path fill="url(#gradient1)" stroke="#000" stroke-width=".925" d="m287 199.37c13.892 4.6017 29.128 2.5505 41.287-5.5466l56.869 0.0148v95.148c0 10.812-8.3226 14.216-18.376 19.462l-99.445 51.899h-109.17l-22.699-77.848v-61.63l43.919-61.438c9.5671-13.419 25.816-20.42 42.158-18.152 16.342 2.2676 30.072 13.429 35.635 28.966 4.9329 13.781 15.934 24.523 29.825 29.125z"/>
  <path fill="#8ccb7b" stroke="#000" stroke-width=".925" d="m204.64 144.42v-14.381l-3.7832-7.5686v-5.4061h14.052v5.4061l-3.7832 7.5686v13.194"/>
  <path fill="url(#gradient2)" stroke="#000" stroke-width=".925" d="m220.32 143.01c0-3.3851 3.8007-9.5852 10.731-10.288 3.6791-0.37338 6.2275 0.34342 8.489 1.8055 2.2615 1.4621 4.2547 3.8214 6.1012 6.9054l48.983 81.806-3.3668 1.9444 49.722 86.145 12.169-7.0279-1.8916-3.2774 14.978-8.6498 1.8916 3.2774 12.169-7.028-49.722-86.145-3.2765 1.8921-4.7037-8.1493c-3.8358-6.6456 0.45055-21.768 17.806-21.768h48.409v-6.4873h-48.409c-21.26 0-30.2 19.756-23.421 31.499l4.7037 8.1493-3.2765 1.8921 1.8916 3.2774-14.978 8.6498-1.8916-3.2774-3.1857 1.84-49.034-81.895c-2.145-3.5823-4.7032-6.7964-8.1449-9.0215-2.5814-1.6689-5.6506-2.6961-9.097-2.8952-1.1488-0.0664-2.3388-0.0402-3.5679 0.0844-10.26 1.0413-16.562 9.315-16.562 16.742m108.2 72.79 3.7832 6.5549-14.978 8.6498-3.7832-6.5549zm5.5228 9.5706 3.7832 6.5549-14.976 8.6498-3.7832-6.5549zm5.5271 9.5726 3.7832 6.5549-14.978 8.6498-3.7832-6.5549zm5.5228 9.5705 3.7832 6.5549-14.976 8.6498-3.7832-6.5549zm5.5249 9.5726 3.7832 6.5549-14.976 8.6498-3.7832-6.5549zm5.5249 9.5706 3.7832 6.5549-14.978 8.6498-3.7832-6.5549zm5.5249 9.5748 3.7832 6.5529-14.976 8.6498-3.7832-6.5529zm5.5249 9.5706 3.7832 6.5528-14.978 8.6498-3.7832-6.5528z"/>
  <path fill="url(#gradient3)" stroke="#000" stroke-width=".925" stroke-linejoin="round" stroke-linecap="square" d="m204.64 143.89v0.53216c-18.044 4.7754-31.347 21.211-31.347 40.761 1e-3 20.971 15.409 38.754 36.16 41.737 13.149 53.532 43.689 105.18 84.909 141.58 0.0977 4.547 1.3409 8.9959 3.6144 12.935 7.4622 12.928 23.989 17.358 36.913 9.8936 12.925-7.4643 17.353-23.996 9.8908-36.924-0.16181-0.27961-0.32862-0.5563-0.50035-0.82992l3.2744-2.6503c1.5208-1.2299 1.9191-1.115 4.9-1.115h33.779v-6.4873h-33.779c-3.1296 0-6.2189 0.32518-8.9788 2.5573l-3.2744 2.6481c-1.4588-1.4167-3.0728-2.6642-4.8114-3.7188-10.928-54.08-40.534-106.53-80.506-144.71 1.7981-4.762 2.7194-9.8102 2.7192-14.9 0-21.617-16.264-39.424-37.218-41.87-0.11847-0.25894-0.0491-0.76741-0.0108-1.0432m33.211 60.876c38.373 37.249 66.971 87.669 78.289 139.86-1.4325-0.6038-2.9144-1.0828-4.4293-1.4318-11.209-37.608-48.98-103.57-76.114-134.26 0.82911-1.3461 1.5818-2.7379 2.2547-4.1687zm-4.0893 6.897c26.531 30.541 62.641 93.487 74.482 130.96-1.7956-0.17323-3.604-0.16603-5.3982 0.0211-14.041-30.914-52.591-97.851-72.703-126.67 1.3012-1.3579 2.5101-2.8013 3.6186-4.3207zm-5.9704 6.5908c20.001 28.83 57.436 93.813 71.759 124.95-2.0752 0.48001-4.0863 1.2037-5.9915 2.1561l-71.04-123.09c1.8605-1.1977 3.6239-2.54 5.2737-4.0145zm-8.0668 5.6638 71.026 123.05c-1.7768 1.1734-3.4089 2.5529-4.862 4.1095-19.76-27.929-57.22-92.694-72.225-124.49 2.0875-0.73212 4.1142-1.6275 6.0612-2.6778zm-9.1752 3.6365c14.958 31.908 53.513 98.548 73.215 126.11-1.0592 1.4611-1.9694 3.0245-2.7171 4.667-26.452-28.915-62.773-91.413-76.038-129.69 1.8687-0.23621 3.7193-0.59743 5.5397-1.0812zm-13.545 1.3304c0.90172 0.0579 1.805 0.0868 2.7087 0.0866 0.67868 2.1e-4 1.3573-0.016 2.0352-0.0486 13.12 38.896 51.186 104.27 78.056 132.7-0.4546 1.4861-0.78023 3.0087-0.97325 4.5509-39.406-35.792-68.705-85.583-81.827-137.28z"/>
  <path fill="url(#gradient3)" stroke="#000" stroke-width=".925" stroke-linejoin="round" stroke-linecap="square" d="m198.65 219.21-10.904 18.412c-3.1024 5.2379-2.8281 10.897-1.4715 15.46 1.3567 4.5635 3.7391 8.2995 5.1702 10.51l65.913 101.82c3.4487 5.3274 7.8901 8.5838 12.774 10.276 4.8842 1.692 10.102 1.9491 15.62 1.9491h13.294c1.7909 0 3.2428-1.4523 3.2428-3.2437 0-1.7914-1.4519-3.2437-3.2428-3.2437h-13.294c-5.2902 0-9.8036-0.31227-13.499-1.5923-3.6952-1.28-6.6851-3.3961-9.4517-7.67l-65.914-101.82c-1.3767-2.1267-3.3624-5.3584-4.3954-8.8335-1.0331-3.475-1.1692-6.9234 0.83391-10.305l10.904-18.412"/>
  <path fill="#8a3200" stroke-width=".925" d="m181.6 332.82c3.1829-6.3738 3.9087-6.6767 4.4554-13.799 0.64002 2.4185 1.1271 5.061 0.54798 9.2656 1.2284-5.979 2.122-7.5112 6.8149-10.694-3.7125 4.7522-3.029 7.141-3.8307 12.45 1.1769-3.9656 5.0519-12.751 9.8811-12.425-1.7256 3.2658-8.5821 11.555-5.2959 12.249 3.1323-3.8132 3.2011-7.092 5.3274-9.0084 0.3974 2.4203-2.755 7.7706-1.2733 7.8804 0.55463 0.0411 6.2559-2.7049 6.4157 0.25446-6.1378 0.47535-10.423 4.1188-11.356 9.4567z"/>
  <path fill="#f86262" stroke="#404040" stroke-width=".925" stroke-linejoin="round" d="m123.09 369.8h40.705c2.1389 0 3.8596-1.3712 5.9472-4.5023 2.0876-3.131 5.6362-12.056 7.8265-16.437l1.8297-3.8492s-2.4641-2.3697-1.5354-4.3225l6.0361-12.694-0.36932 5.8108 4.2737-3.9531-0.36932 5.8108 4.2737-3.9531-0.36932 5.8108 4.2737-3.953-6.0361 12.694c-0.92863 1.9528-4.3213 1.5359-4.3213 1.5359l-1.8572 3.9056c-2.1057 4.2127-5.6613 13.297-8.2595 17.194-2.5982 3.8969-6.2831 7.3891-11.343 7.3891h-40.705"/>
  <path fill="none" stroke="#000" stroke-width=".925" d="m204.68 220.86c0 1.7914-1.4519 3.2437-3.2428 3.2437-1.7909 0-3.2428-1.4523-3.2428-3.2437s1.4519-3.2437 3.2428-3.2437c1.7909 0 3.2428 1.4523 3.2428 3.2437zm97.607 153.53c0 1.7914-1.4519 3.2437-3.2428 3.2437-1.7909 0-3.2428-1.4523-3.2428-3.2437s1.4519-3.2437 3.2428-3.2437c1.7909 0 3.2428 1.4523 3.2428 3.2437z"/>
  <path fill="none" stroke="#000" stroke-width=".925" stroke-linejoin="round" d="m211.13 142.72v0.5065c0.91261-0.093 1.8366-0.14555 2.7656-0.1795 0 0-0.0597-0.1079-0.0479-0.47067"/>
  <path stroke-width=".925" opacity=".5" d="m204.48 209.56-2.2309-1e-5 2.1618 4.54 2.1618-4.54zm9.9317-10.07c-0.82069-0.0731-1.6566-3e-3 -2.489 0.13938-1.7594 0.30162-3.7196 1.402-5.2779 3.1127-1.5584 1.7107-2.7045 4.0533-2.7045 6.8168h1.0809c0-2.4654 1.0154-4.5446 2.4215-6.0883 1.4062-1.5436 3.2113-2.5283 4.6615-2.777 1.5446-0.2648 2.9236-0.23718 4.1822 0.45826 1.2586 0.69543 2.462 2.1017 3.5298 4.7831l1.0049-0.40124c-1.1235-2.821-2.4674-4.475-4.0112-5.3279-0.77189-0.42649-1.5776-0.64275-2.3983-0.71589zm-4.0893-22.435c-0.82068-0.0731-1.6566-5e-3 -2.489 0.13726-1.7594 0.30163-3.7196 1.4041-5.2779 3.1149-1.5584 1.7107-2.7045 4.0533-2.7045 6.8168h1.0809c0-2.4654 1.0154-4.5446 2.4215-6.0883 1.4062-1.5436 3.2113-2.5283 4.6615-2.777 1.5446-0.2648 2.9236-0.23718 4.1822 0.45825 1.2586 0.69543 2.462 2.1017 3.5298 4.7831l1.0049-0.40124c-1.1235-2.821-2.4674-4.4771-4.0112-5.3301-0.77188-0.42649-1.5776-0.64063-2.3983-0.71378zm5.1322-27.558-5.4046 10.812h10.809zm-1.6214 10.812c0 34.713 3.7446 44.789 10.946 61.202l2.9683-1.305c-7.1761-16.353-10.672-25.41-10.672-59.895zm-13.442 26.815-2.2309-1e-5 2.1618 4.54 2.1618-4.54z"/>
  <path stroke-width=".925" opacity=".5" d="m231.6 166.99-2.8079 1.6218c5.4446 9.433 6.3175 17.322 18.667 32.99l2.5461-2.0083c-12.068-15.311-12.654-22.64-18.405-32.603zm-6.8083-8.5529 0.72407 12.066 9.3611-5.4061z"/>
  <path stroke-width=".925" opacity=".5" d="m304.1 354.46 0.17847 7.2509 5.7277-3.0432zm0.60297 2.2881c1.9508 3.6696 3.3185 6.7088 3.7008 9.5036 0.38225 2.7949-0.17488 5.358-2.1664 8.2627l0.88971 0.61261c2.1095-3.077 2.7613-5.9913 2.3468-9.0218-0.41449-3.0304-1.8492-6.1645-3.8173-9.8664z"/>
  <path stroke-width=".925" opacity=".5" d="m311.69 350.42 0.17847 7.2509 5.7277-3.0432zm1.5137 1.6188-0.9458 0.52372 11.004 19.859 0.9458-0.52371z"/>
  <path stroke-width=".925" opacity=".5" d="m319.3 346.38 0.17848 7.2509 5.7277-3.0432zm1.4652 1.4605-0.93729 0.53884c2.0946 3.6317 3.9906 6.51 6.3397 8.4681 2.3492 1.9581 5.1651 2.9504 8.8916 2.7924l-0.0477-1.0794c-3.518 0.14918-5.986-0.73713-8.1525-2.543-2.1665-1.8059-4.0176-4.577-6.094-8.1771z"/>
  <path fill="#331300" stroke-width=".925" opacity=".5" d="m372.14 217.69c-14.301 53.384-41.668 79.853-71.203 93.285-29.535 13.433-61.384 13.675-84.409 13.675h-4.3237v4.3249h4.3237c23.05 0 55.618-0.15617 86.197-14.065s59.025-41.722 73.591-96.102zm5.6634-12.79-10.248 11.56 13.345 3.5768z"/>
  <path fill="#331300" stroke-width=".925" opacity=".5" d="m362.14 200.71-10.248 11.56 13.345 3.5768zm-5.6648 12.79c-11.873 44.321-37.386 59.328-65.544 67.988-28.157 8.6602-59.013 10.292-79.969 27.881l-3.3125 2.7791 2.7783 3.3133 3.3124-2.7812c19.425-16.304 49.63-18.19 78.462-27.058 28.831-8.8671 56.234-25.397 68.45-71.004z"/>
  <path fill="#331300" stroke-width=".925" opacity=".5" d="m340.81 209.3c-4.258 15.895-14.317 25.939-27.544 33.188-13.227 7.2497-29.596 11.53-45.853 15.458s-32.39 7.494-45.293 13.657c-12.903 6.1629-22.711 15.229-25.249 29.628l-0.75157 4.2595 4.2582 0.75178 0.75159-4.2594c2.2672-12.862 10.638-20.641 22.854-26.475 12.215-5.8342 28.141-9.4169 44.446-13.357 16.306-3.94 33.004-8.2458 46.914-15.87s25.057-18.743 29.643-35.862zm5.6641-12.789-10.248 11.56 13.345 3.5768z"/>
  <ellipse stroke="#000" stroke-width=".925" fill-opacity=".3" cx="207.88" cy="117.06" rx="5.4046" ry="5.4061"/>
  <path fill="none" stroke="#000" stroke-width=".925" marker-end="url(#marker)" d="m84.658 125.71h123.22"/>
  <path fill="none" stroke="#000" stroke-width=".925" marker-end="url(#marker)" d="m84.658 187.99h86.121"/>
  <path fill="none" stroke="#000" stroke-width=".925" marker-end="url(#marker)" d="m84.658 157.11h110.73"/>
  <path fill="none" stroke="#000" stroke-width=".925" marker-end="url(#marker)" d="m84.658 214.82h110.25"/>
  <path fill="none" stroke="#000" stroke-width=".925" marker-end="url(#marker)" d="m84.658 273.84h110.05"/>
  <path fill="none" stroke="#000" stroke-width=".925" marker-end="url(#marker)" d="m84.658 338.71h100.53"/>
  <path fill="none" stroke="#000" stroke-width=".925" marker-end="url(#marker)" d="m426.23 379.8h-77.826"/>
  <path fill="none" stroke="#000" stroke-width=".925" marker-end="url(#marker)" d="m426.23 317.9h-95.021"/>
  <path fill="none" stroke="#000" stroke-width=".925" marker-end="url(#marker)" d="m426.23 261.95h-58.37"/>
  <path fill="none" stroke="#000" stroke-width=".925" marker-end="url(#marker)" d="m426.23 214.37h-50.803"/>
  <path fill="none" stroke="#000" stroke-width=".925" marker-end="url(#marker)" d="m426.23 135.76h-180.62"/>
  <path fill="#ff5a5a" stroke-width=".925" d="m101.95 368.72v8.6498l9.7283-4.3249zm0 2.7031h-16.214v3.2437h16.214"/>
  <path fill="#5aacff" stroke-width=".925" d="m408.93 342.23v8.6498l-9.7283-4.3249zm0 2.7031h16.214v3.2437h-16.214"/>
  <path fill="#93ff5d" stroke-width=".925" d="m417.99 166.89v8.6498l9.7283-4.3249zm0 2.7031h-16.214v3.2437h16.214"/>
  <rect fill="#73a5fa" stroke-width=".925" x="384.11" y="343.85" width="2.6686" height="5.4061"/>
  <rect fill="#93ff5d" stroke-width=".925" x="386.68" y="168.51" width="2.6686" height="5.4061"/>
  <g transform="matrix(1.0809 0 0 1.0812 -21.272 -20.253)" font-family="Arial" font-size="10px">
    <text text-anchor="end" x="91" y="137.58789">Safety valve</text>
    <text text-anchor="end" x="91" y="160.90451">Saturated</text>
    <text text-anchor="end" x="91" y="174.33856">steam</text>
    <text text-anchor="end" x="91" y="196.17911">Steam drum</text>
    <text text-anchor="end" x="91" y="219.93686">Boiling water</text>
    <text text-anchor="end" x="91" y="268.80347">Downcomer</text>
    <text text-anchor="end" x="91" y="282.23755">tube</text>
    <text text-anchor="end" x="91" y="335.52051">Fuel burner</text>
    <text text-anchor="end" x="91" y="367.27051">Fuel</text>
    <text x="422" y="141.15245">Saturated</text>
    <text x="422" y="154.5865">steam outlet</text>
    <text x="422" y="173.94452">Superheated</text>
    <text x="422" y="187.37857">steam</text>
    <text x="422" y="212.80983">Exhaust</text>
    <text x="422" y="226.24388">gasses</text>
    <text x="422" y="263.64648">Superheater</text>
    <text x="422" y="316.27051">Water tubes</text>
    <text x="422" y="342.77051">Water</text>
    <text x="422" y="367.27051">Feedwater</text>
    <text x="422" y="379.77051">drum</text>
  </g>
</svg>
