<svg viewBox="0 0 512 512" xmlns="http://www.w3.org/2000/svg">
  <linearGradient id="gradient1" gradientTransform="matrix(1.4539 0 0 1.4555 -117.94 -115.89)" gradientUnits="userSpaceOnUse" x1="166" x2="376" y1="352" y2="198">
    <stop offset="0" stop-color="#ff784c"/>
    <stop offset="1" stop-color="#fffd4c"/>
  </linearGradient>
  <linearGradient id="gradient2" gradientTransform="matrix(1.4539 0 0 1.4555 -117.94 -115.89)" gradientUnits="userSpaceOnUse" x1="323.39" x2="337.25" y1="260.34" y2="252.34">
    <stop offset="0" stop-color="#8ccb7b"/>
    <stop offset="1" stop-color="#93ff5d"/>
  </linearGradient>
  <linearGradient id="gradient3" gradientTransform="matrix(1.4539 0 0 1.4555 -117.94 -115.89)" gradientUnits="userSpaceOnUse" x1="215" x2="215" y1="364.44" y2="177">
    <stop offset="0" stop-color="#5aacff"/>
    <stop offset=".85" stop-color="#fb7edc"/>
    <stop offset="1" stop-color="#8ccb7b"/>
  </linearGradient>
  <g stroke-width=".925">
    <g stroke="#000">
      <path fill="#ccc" d="m119.06 396.46-30.532-104.8v-84.422l59.835-83.718c13.694-19.361 37.168-29.553 60.803-26.312 23.633 3.2417 43.503 19.379 51.546 41.863 6.2565 17.493 20.294 31.07 37.973 36.727 17.679 5.6569 36.981 2.7475 52.207-7.8653l82.222.004v133.91c0 18.298-14.539 20.378-28.252 31.026s-16.819 34.474-16.819 57.762v59.677h-268.98v-53.855"/>
      <path fill="url(#gradient1)" d="m296.72 179.77c18.686 6.1948 39.18 3.4335 55.535-7.4669l76.494.0199v128.09c0 14.555-11.195 19.138-24.718 26.2l-133.76 69.867h-146.84l-30.532-104.8v-82.967l59.075-82.708c12.869-18.065 34.725-27.49 56.707-24.436 21.982 3.0526 40.45 18.078 47.933 38.994 6.6352 18.552 21.433 33.013 40.118 39.208z"/>
      <path fill="#8ccb7b" d="m185.94 105.79v-19.36l-5.0888-10.189v-7.2777h18.901v7.2777l-5.0888 10.189v17.762"/>
      <path fill="url(#gradient2)" d="m207.03 103.89c0-4.557 5.1123-12.904 14.434-13.85 4.9488-.50265 8.3766.46231 11.419 2.4306 3.0419 1.9683 5.723 5.1444 8.2067 9.2961l65.887 110.13-4.5287 2.6176 66.881 115.97 16.369-9.461-2.5444-4.412 20.147-11.644 2.5444 4.412 16.369-9.4611-66.881-115.97-4.4072 2.5472-6.3269-10.971c-5.1595-8.9463.60604-29.304 23.951-29.304h65.115v-8.7332h-65.115c-28.597 0-40.622 26.596-31.504 42.404l6.3269 10.971-4.4072 2.5472 2.5444 4.412-20.147 11.644-2.5444-4.412-4.2851 2.477-65.956-110.25c-2.8852-4.8225-6.3263-9.1493-10.956-12.145-3.4722-2.2467-7.6006-3.6295-12.236-3.8975-1.5452-.08939-3.1459-.05412-4.7992.11362-13.801 1.4018-22.278 12.54-22.278 22.538m145.54 97.99 5.0888 8.8242-20.147 11.644-5.0888-8.8242zm7.4287 12.884 5.0888 8.8242-20.144 11.644-5.0888-8.8242zm7.4345 12.887 5.0888 8.8242-20.147 11.644-5.0888-8.8242zm7.4287 12.884 5.0888 8.8242-20.144 11.644-5.0888-8.8242zm7.4315 12.887 5.0888 8.8242-20.144 11.644-5.0888-8.8242zm7.4315 12.884 5.0888 8.8242-20.147 11.644-5.0888-8.8242zm7.4315 12.89 5.0888 8.8216-20.144 11.644-5.0888-8.8216zm7.4315 12.884 5.0888 8.8214-20.147 11.644-5.0888-8.8214z"/>
      <path fill="url(#gradient3)" stroke-linejoin="round" stroke-linecap="square" d="m185.94 105.08v.7164c-24.271 6.4287-42.165 28.554-42.165 54.873.001 28.231 20.727 52.171 48.639 56.187 17.687 72.065 58.766 141.59 114.21 190.6.13141 6.1212 1.8036 12.11 4.8617 17.413 10.037 17.404 32.268 23.367 49.652 13.319 17.385-10.048 23.342-32.304 13.304-49.707-.21765-.37641-.44203-.74889-.67302-1.1172l4.4044-3.5678c2.0456-1.6557 2.5814-1.501 6.591-1.501h45.436v-8.7332h-45.436c-4.2096 0-8.365.43776-12.077 3.4426l-4.4044 3.5649c-1.9622-1.9072-4.1332-3.5866-6.4718-5.0063-14.699-72.803-54.522-143.41-108.29-194.81 2.4186-6.4106 3.6579-13.207 3.6576-20.058 0-29.101-21.877-53.073-50.062-56.366-.15935-.34858-.066-1.0331-.0145-1.4044m44.672 81.952c51.615 50.145 90.083 118.02 105.31 188.28-1.9268-.81284-3.9202-1.4577-5.9578-1.9275-15.077-50.628-65.883-139.43-102.38-180.74 1.1152-1.8121 2.1277-3.6858 3.0328-5.6119zm-5.5005 9.2848c35.687 41.114 84.258 125.85 100.19 176.3-2.4153-.2332-4.8477-.22351-7.2611.0284-18.887-41.617-70.74-131.73-97.793-170.52 1.7502-1.828 3.3763-3.7711 4.8674-5.8166zm-8.0308 8.8726c26.903 38.811 77.257 126.29 96.523 168.21-2.7914.64619-5.4965 1.6204-8.0592 2.9026l-95.556-165.7c2.5026-1.6124 4.8745-3.4194 7.0936-5.4043zm-10.851 7.6246 95.537 165.65c-2.39 1.5796-4.5853 3.4367-6.5399 5.5322-26.579-37.598-76.967-124.79-97.15-167.59 2.8079-.98558 5.534-2.191 8.1529-3.6049zm-12.342 4.8955c20.12 42.955 71.98 132.67 98.481 169.77-1.4247 1.9669-2.649 4.0716-3.6548 6.2827-35.581-38.926-84.436-123.06-102.28-174.59 2.5136-.31798 5.0028-.80426 7.4514-1.4555zm-18.219 1.791c1.2129.0779 2.4279.11685 3.6435.11658.91289.00028 1.8257-.0215 2.7376-.0654 17.648 52.362 68.85 140.37 104.99 178.64-.61148 2.0006-1.0495 4.0503-1.3091 6.1264-53.005-48.183-92.415-115.21-110.07-184.81z"/>
      <path fill="url(#gradient3)" stroke-linejoin="round" stroke-linecap="square" d="m177.88 206.47-14.667 24.786c-4.173 7.0513-3.8041 14.67-1.9793 20.812 1.8249 6.1434 5.0295 11.173 6.9544 14.149l88.66 137.07c4.6388 7.1718 10.613 11.556 17.182 13.834 6.5697 2.2778 13.588 2.6239 21.01 2.6239h17.882c2.4089 0 4.3619-1.9551 4.3619-4.3667s-1.953-4.3667-4.3619-4.3667h-17.882c-7.1158 0-13.187-.42037-18.157-2.1436-4.9704-1.7231-8.9921-4.5718-12.713-10.325l-88.661-137.07c-1.8518-2.863-4.5228-7.2135-5.9122-11.892-1.3896-4.6781-1.5727-9.3203 1.1217-13.873l14.667-24.786"/>
    </g>
    <path fill="#8a3200" d="m154.95 359.42c4.2813-8.5804 5.2576-8.9882 5.993-18.576.86089 3.2558 1.5161 6.8131.73708 12.473 1.6523-8.049 2.8543-10.112 9.1667-14.396-4.9937 6.3974-4.0743 9.6132-5.1527 16.76 1.583-5.3385 6.7953-17.165 13.291-16.727-2.3211 4.3964-11.544 15.555-7.1235 16.49 4.2132-5.1334 4.3058-9.5473 7.1659-12.127.53454 3.2582-3.7058 10.461-1.7127 10.609.74603.0553 8.4148-3.6414 8.6298.34255-8.256.63992-14.02 5.5448-15.275 12.731z"/>
    <path fill="#f86262" stroke="#404040" stroke-linejoin="round" d="m76.245 409.2h54.752c2.877 0 5.1915-1.8459 7.9996-6.061 2.808-4.215 7.5812-16.23 10.527-22.128l2.4611-5.1818s-3.3144-3.1901-2.0653-5.819l8.1192-17.089-.49677 7.8225 5.7486-5.3217-.49677 7.8225 5.7485-5.3217-.49677 7.8225 5.7486-5.3215-8.1192 17.089c-1.2491 2.6289-5.8126 2.0676-5.8126 2.0676l-2.4981 5.2577c-2.8324 5.6712-7.615 17.9-11.11 23.147-3.4948 5.246-8.4514 9.9472-15.257 9.9472h-54.752"/>
    <path fill="none" stroke="#000" d="m185.99 208.7c0 2.4116-1.953 4.3667-4.3619 4.3667s-4.3619-1.9551-4.3619-4.3667 1.953-4.3667 4.3619-4.3667 4.3619 1.9551 4.3619 4.3667zm131.29 206.68c0 2.4116-1.9529 4.3667-4.3619 4.3667s-4.3619-1.9551-4.3619-4.3667 1.953-4.3667 4.3619-4.3667 4.3619 1.9551 4.3619 4.3667z"/>
    <path fill="none" stroke="#000" stroke-linejoin="round" d="m194.67 103.5v.68185c1.2276-.12519 2.4704-.19594 3.72-.24164 0 0-.0803-.14526-.0644-.63362"/>
    <path opacity=".5" d="m185.72 193.48-3.0008-.00002 2.9078 6.1118 2.9078-6.1118zm13.359-13.556c-1.1039-.0984-2.2283-.004-3.348.18763-2.3666.40604-5.0032 1.8874-7.0993 4.1903-2.0962 2.303-3.6378 5.4566-3.6378 9.1768h1.4539c0-3.3189 1.3658-6.118 3.2572-8.1961 1.8915-2.078 4.3195-3.4036 6.2702-3.7384 2.0776-.35647 3.9325-.31929 5.6255.61691 1.6929.93619 3.3116 2.8293 4.7479 6.439l1.3517-.54015c-1.5112-3.7976-3.3189-6.0243-5.3955-7.1724-1.0383-.57414-2.122-.86527-3.226-.96373zm-5.5005-30.202c-1.1039-.0984-2.2283-.007-3.348.18478-2.3666.40605-5.0032 1.8902-7.0993 4.1933-2.0962 2.303-3.6378 5.4566-3.6378 9.1768h1.4539c0-3.3189 1.3658-6.118 3.2572-8.1961 1.8915-2.078 4.3195-3.4036 6.2702-3.7384 2.0776-.35648 3.9325-.31929 5.6255.6169s3.3116 2.8293 4.7479 6.439l1.3517-.54015c-1.5112-3.7976-3.3189-6.0271-5.3955-7.1754-1.0383-.57414-2.122-.86242-3.226-.96089zm6.9033-37.099-7.2697 14.555h14.539zm-2.1809 14.555c0 46.731 5.0368 60.295 14.723 82.39l3.9926-1.7568c-9.6526-22.014-14.355-34.207-14.355-80.631zm-18.081 36.098-3.0008-.00001 2.9078 6.1118 2.9078-6.1118z"/>
    <path opacity=".5" d="m222.2 136.18-3.7769 2.1833c7.3235 12.699 8.4977 23.319 25.109 44.411l3.4248-2.7036c-16.233-20.612-17.021-30.478-24.757-43.89zm-9.1578-11.514.97395 16.243 12.592-7.2777z"/>
    <path opacity=".5" d="m319.72 388.55.24006 9.7612 7.7043-4.0968zm.81105 3.0802c2.624 4.94 4.4637 9.0314 4.9779 12.794.51417 3.7625-.23523 7.213-2.914 11.123l1.1968.8247c2.8375-4.1423 3.7142-8.0655 3.1567-12.145-.55753-4.0795-2.4874-8.2987-5.1346-13.282z"/>
    <path opacity=".5" d="m329.93 383.11.24006 9.7612 7.7043-4.0968zm2.0361 2.1792-1.2722.70504 14.801 26.734 1.2722-.70502z"/>
    <path opacity=".5" d="m340.17 377.67.24008 9.7612 7.7043-4.0968zm1.9708 1.9661-1.2608.72539c2.8174 4.889 5.3678 8.7638 8.5275 11.4 3.1599 2.636 6.9476 3.9718 11.96 3.7591l-.0642-1.4531c-4.7321.20083-8.0518-.99232-10.966-3.4234-2.9142-2.4311-5.4041-6.1616-8.197-11.008z"/>
    <path fill="#331300" opacity=".5" d="m411.24 204.43c-19.236 71.866-56.048 107.5-95.775 125.58-39.728 18.084-82.568 18.409-113.54 18.409h-5.8158v5.8222h5.8158c31.005 0 74.812-.21023 115.94-18.934s79.394-56.166 98.987-129.37zm7.6178-17.218-13.785 15.562 17.95 4.8151z"/>
    <path fill="#331300" opacity=".5" d="m397.79 181.57-13.785 15.562 17.95 4.8151zm-7.6197 17.218c-15.97 59.665-50.288 79.868-88.163 91.526-37.874 11.658-79.378 13.855-107.57 37.534l-4.4556 3.7412 3.7371 4.4604 4.4555-3.7441c26.129-21.949 66.757-24.487 105.54-36.426 38.781-11.937 75.64-34.19 92.072-95.586z"/>
    <path fill="#331300" opacity=".5" d="m369.1 193.13c-5.7274 21.398-19.258 34.919-37.049 44.678-17.792 9.7596-39.81 15.522-61.677 20.81-21.867 5.2879-43.568 10.088-60.924 18.385-17.356 8.2965-30.549 20.501-33.962 39.885l-1.0109 5.7342 5.7277 1.012 1.011-5.734c3.0496-17.315 14.309-27.787 30.741-35.641 16.43-7.854 37.852-12.677 59.784-17.981 21.933-5.304 44.394-11.101 63.104-21.364 18.71-10.264 33.704-25.232 39.873-48.278zm7.6188-17.217-13.785 15.562 17.95 4.8151z"/>
    <ellipse stroke="#000" fill-opacity=".3" cx="190.3" cy="68.96" rx="7.2697" ry="7.2777"/>
    <path fill="#ff5a5a" d="m47.809 407.75v11.644l13.086-5.8222zm0 3.6389h-21.809v4.3667h21.809"/>
    <path fill="#5aacff" d="m460.73 372.09v11.644l-13.086-5.8222zm0 3.6389h21.809v4.3667h-21.809"/>
    <path fill="#93ff5d" d="m472.91 136.04v11.644l13.086-5.8222zm0 3.6389h-21.809v4.3667h21.809"/>
    <path fill="#73a5fa" d="m427.34 374.27h3.5895v7.2777h-3.5895z"/>
    <path fill="#93ff5d" d="m430.8 138.22h3.5895v7.2777h-3.5895z"/>
  </g>
</svg>
