<svg viewBox="0 0 512 512" xmlns="http://www.w3.org/2000/svg">
  <marker id="marker" orient="auto" overflow="visible">
    <circle r="1.3"/>
  </marker>
  <linearGradient id="gradient1" gradientTransform="matrix(1.3253 0 0 1.3264 -87.396 -82.902)" gradientUnits="userSpaceOnUse" x1="166" x2="376" y1="352" y2="198">
    <stop offset="0" stop-color="#ff784c"/>
    <stop offset="1" stop-color="#fffd4c"/>
  </linearGradient>
  <linearGradient id="gradient2" gradientTransform="matrix(1.3253 0 0 1.3264 -87.396 -82.902)" gradientUnits="userSpaceOnUse" x1="323.39" x2="337.25" y1="260.34" y2="252.34">
    <stop offset="0" stop-color="#8ccb7b"/>
    <stop offset="1" stop-color="#93ff5d"/>
  </linearGradient>
  <linearGradient id="gradient3" gradientTransform="matrix(1.3253 0 0 1.3264 -87.396 -82.902)" gradientUnits="userSpaceOnUse" x1="215" x2="215" y1="364.44" y2="177">
    <stop offset="0" stop-color="#5aacff"/>
    <stop offset=".85" stop-color="#fb7edc"/>
    <stop offset="1" stop-color="#8ccb7b"/>
  </linearGradient>
  <path fill="#ccc" stroke="#000" stroke-width=".925" d="m128.63 384-27.83-95.503v-76.933l54.54-76.292c12.483-17.644 33.879-26.932 55.422-23.978 21.542 2.9541 39.653 17.66 46.984 38.149 5.7028 15.941 18.498 28.314 34.613 33.469 16.114 5.1551 33.708 2.5038 47.587-7.1676l74.946.004v122.03c0 16.675-13.253 18.57-25.752 28.274-12.5 9.7039-15.331 31.416-15.331 52.638v54.384h-245.18v-49.078"/>
  <path fill="url(#gradient1)" stroke="#000" stroke-width=".925" d="m290.57 186.53c17.032 5.6453 35.713 3.1289 50.621-6.8045l69.725.0182v116.73c0 13.264-10.204 17.44-22.53 23.876l-121.93 63.669h-133.85l-27.83-95.503v-75.607l53.848-75.371c11.73-16.462 31.652-25.051 51.688-22.269 20.036 2.7819 36.87 16.475 43.691 35.535 6.048 16.906 19.536 30.085 36.567 35.73z"/>
  <path fill="#8ccb7b" stroke="#000" stroke-width=".925" d="m189.59 119.12v-17.642l-4.6384-9.2851v-6.6321h17.229v6.6321l-4.6384 9.2851v16.186"/>
  <path fill="url(#gradient2)" stroke="#000" stroke-width=".925" d="m208.81 117.39c0-4.1528 4.6599-11.759 13.157-12.621 4.5108-.45806 7.6353.4213 10.408 2.215 2.7728 1.7937 5.2165 4.688 7.4805 8.4715l60.056 100.36-4.1279 2.3854 60.962 105.68 14.92-8.6218-2.3192-4.0207 18.364-10.611 2.3192 4.0207 14.92-8.6219-60.962-105.68-4.0172 2.3212-5.767-9.9975c-4.7029-8.1527.55241-26.705 21.831-26.705h59.353v-7.9586h-59.353c-26.066 0-37.027 24.236-28.716 38.643l5.767 9.9975-4.0172 2.3212 2.3192 4.0207-18.364 10.611-2.3192-4.0207-3.9059 2.2573-60.119-100.47c-2.6299-4.3947-5.7664-8.3378-9.9862-11.067-3.165-2.0474-6.928-3.3075-11.154-3.5518-1.4085-.08146-2.8675-.04932-4.3745.10354-12.579 1.2775-20.306 11.428-20.306 20.539m132.66 89.298 4.6384 8.0415-18.364 10.611-4.6384-8.0415zm6.7713 11.741 4.6384 8.0415-18.362 10.611-4.6384-8.0415zm6.7766 11.744 4.6384 8.0415-18.364 10.611-4.6384-8.0415zm6.7713 11.741 4.6384 8.0415-18.362 10.611-4.6384-8.0415zm6.7739 11.744 4.6384 8.0415-18.362 10.611-4.6384-8.0415zm6.7739 11.741 4.6384 8.0415-18.364 10.611-4.6384-8.0415zm6.7739 11.746 4.6384 8.039-18.362 10.611-4.6384-8.039zm6.7739 11.741 4.6384 8.0389-18.364 10.611-4.6384-8.0389z"/>
  <path fill="url(#gradient3)" stroke="#000" stroke-width=".925" stroke-linejoin="round" stroke-linecap="square" d="m189.59 118.47v.65284c-22.123 5.8584-38.433 26.021-38.433 50.005.001 25.727 18.892 47.543 44.334 51.202 16.122 65.672 53.566 129.03 104.1 173.69.11979 5.5782 1.644 11.036 4.4315 15.869 9.1491 15.86 29.412 21.295 45.258 12.137 15.847-9.1571 21.276-29.438 12.127-45.298-.19839-.34303-.40291-.68247-.61346-1.0181l4.0146-3.2514c1.8646-1.5088 2.3529-1.3679 6.0077-1.3679h41.415v-7.9586h-41.415c-3.8371 0-7.6248.39893-11.009 3.1373l-4.0146 3.2487c-1.7886-1.738-3.7674-3.2684-5.8991-4.5622-13.398-66.345-49.697-130.69-98.706-177.53 2.2046-5.842 3.3342-12.035 3.3339-18.279 0-26.52-19.941-48.365-45.632-51.366-.14525-.31766-.0602-.94145-.0132-1.2798m40.719 74.682c47.048 45.697 82.111 107.55 95.987 171.58-1.7563-.74073-3.5732-1.3284-5.4306-1.7565-13.743-46.137-60.053-127.06-93.321-164.71 1.0166-1.6514 1.9394-3.3588 2.7644-5.1141zm-5.0138 8.4612c32.529 37.467 76.802 114.69 91.32 160.66-2.2015-.21251-4.4187-.20368-6.6185.0259-17.215-37.925-64.48-120.04-89.139-155.4 1.5954-1.6659 3.0776-3.4366 4.4366-5.3006zm-7.3201 8.0855c24.523 35.368 70.42 115.09 87.981 153.29-2.5443.58887-5.0101 1.4767-7.346 2.6451l-87.1-151.01c2.2811-1.4693 4.4431-3.116 6.4659-4.925zm-9.8904 6.9483 87.082 150.96c-2.1785 1.4395-4.1795 3.1319-5.9611 5.0415-24.227-34.263-70.155-113.72-88.552-152.72 2.5594-.89816 5.0443-1.9966 7.4314-3.2851zm-11.249 4.4612c18.339 39.144 65.61 120.9 89.766 154.71-1.2986 1.7925-2.4146 3.7104-3.3313 5.7254-32.432-35.473-76.964-112.14-93.227-159.1 2.2911-.28977 4.5601-.73292 6.792-1.3264zm-16.607 1.6321c1.1056.071 2.213.10648 3.321.10624.83211.00025 1.6641-.0196 2.4953-.0596 16.086 47.717 62.757 127.92 95.702 162.79-.55737 1.8231-.95661 3.691-1.1933 5.583-48.314-43.909-84.237-104.99-100.33-168.41z"/>
  <path fill="url(#gradient3)" stroke="#000" stroke-width=".925" stroke-linejoin="round" stroke-linecap="square" d="m182.24 210.87-13.369 22.588c-3.8037 6.4258-3.4674 13.368-1.8042 18.966 1.6634 5.5984 4.5844 10.182 6.339 12.894l80.814 124.91c4.2283 6.5356 9.6738 10.531 15.662 12.606 5.9883 2.0757 12.386 2.3911 19.151 2.3911h16.299c2.1958 0 3.9759-1.7817 3.9759-3.9793 0-2.1977-1.7801-3.9793-3.9759-3.9793h-16.299c-6.4861 0-12.02-.38309-16.551-1.9534-4.5306-1.5703-8.1964-4.1663-11.588-9.4095l-80.815-124.91c-1.6879-2.609-4.1225-6.5736-5.389-10.837-1.2666-4.2631-1.4335-8.4936 1.0224-12.642l13.369-22.588"/>
  <path fill="#8a3200" stroke-width=".925" d="m161.34 350.24c3.9024-7.8193 4.7923-8.1909 5.4626-16.928.78471 2.967 1.3819 6.2088.67186 11.367 1.5061-7.335 2.6017-9.2147 8.3555-13.119-4.5518 5.83-3.7138 8.7605-4.6967 15.274 1.443-4.865 6.194-15.643 12.115-15.243-2.1157 4.0064-10.522 14.176-6.4931 15.027 3.8404-4.678 3.9248-8.7004 6.5317-11.051.48724 2.9692-3.3778 9.5329-1.5612 9.6676.68002.0504 7.6701-3.3183 7.8661.31217-7.5253.58315-12.779 5.0529-13.923 11.601z"/>
  <path fill="#f86262" stroke="#404040" stroke-width=".925" stroke-linejoin="round" d="m89.601 395.61h49.907c2.6224 0 4.7321-1.6822 7.2916-5.5234 2.5595-3.8411 6.9103-14.79 9.5958-20.165l2.2433-4.7222s-3.0211-2.9071-1.8825-5.3028l7.4006-15.573-.45281 7.1286 5.2398-4.8496-.45281 7.1286 5.2398-4.8496-.45281 7.1286 5.2398-4.8495-7.4006 15.573c-1.1386 2.3957-5.2982 1.8842-5.2982 1.8842l-2.277 4.7914c-2.5817 5.1681-6.9411 16.313-10.127 21.093-3.1856 4.7807-7.7035 9.0649-13.907 9.0649h-49.907"/>
  <path fill="none" stroke="#000" stroke-width=".925" d="m189.64 212.89c0 2.1977-1.7801 3.9793-3.9759 3.9793s-3.9759-1.7817-3.9759-3.9793 1.7801-3.9793 3.9759-3.9793 3.9759 1.7817 3.9759 3.9793zm119.67 188.35c0 2.1977-1.7801 3.9793-3.9759 3.9793s-3.9759-1.7817-3.9759-3.9793 1.7801-3.9793 3.9759-3.9793 3.9759 1.7817 3.9759 3.9793z"/>
  <path fill="none" stroke="#000" stroke-width=".925" stroke-linejoin="round" d="m197.54 117.03v.62137c1.1189-.11409 2.2518-.17856 3.3908-.22021 0 0-.0732-.13237-.0587-.57741"/>
  <path stroke-width=".925" opacity=".5" d="m189.39 199.03-2.7352-.00002 2.6505 5.5696 2.6505-5.5696zm12.177-12.354c-1.0062-.0897-2.0311-.004-3.0517.17099-2.1571.37003-4.5605 1.72-6.471 3.8186-1.9107 2.0987-3.3159 4.9725-3.3159 8.3628h1.3253c0-3.0245 1.2449-5.5753 2.9689-7.4691 1.7241-1.8937 3.9373-3.1017 5.7153-3.4068 1.8938-.32485 3.5845-.29097 5.1276.56219 1.5431.85315 3.0186 2.5783 4.3278 5.8678l1.2321-.49223c-1.3775-3.4608-3.0252-5.4899-4.918-6.5362-.94638-.52322-1.9342-.78852-2.9405-.87825zm-5.0138-27.523c-1.0062-.0897-2.0311-.006-3.0517.16839-2.1571.37003-4.5605 1.7225-6.471 3.8213-1.9107 2.0987-3.3159 4.9725-3.3159 8.3628h1.3252c0-3.0245 1.245-5.5753 2.9689-7.469 1.7241-1.8937 3.9373-3.1017 5.7153-3.4068 1.8938-.32485 3.5845-.29097 5.1276.56218 1.5431.85314 3.0186 2.5783 4.3278 5.8678l1.2321-.49223c-1.3775-3.4608-3.0252-5.4925-4.918-6.5389-.94638-.52321-1.9342-.78592-2.9405-.87566zm6.2924-33.808-6.6264 13.264h13.253zm-1.9879 13.264c0 42.586 4.5911 54.947 13.42 75.082l3.6393-1.601c-8.7984-20.062-13.085-31.173-13.085-73.479zm-16.481 32.896-2.7352-.00001 2.6505 5.5696 2.6505-5.5696z"/>
  <path stroke-width=".925" opacity=".5" d="m222.64 146.81-3.4427 1.9896c6.6754 11.572 7.7457 21.25 22.887 40.472l3.1217-2.4638c-14.796-18.783-15.515-27.774-22.566-39.997zm-8.3474-10.493.88775 14.802 11.477-6.6321z"/>
  <path stroke-width=".925" opacity=".5" d="m311.53 376.79.21881 8.8953 7.0225-3.7334zm.73928 2.807c2.3918 4.5018 4.0687 8.2303 4.5374 11.659.46866 3.4288-.21442 6.5731-2.6562 10.137l1.0908.75154c2.5864-3.7748 3.3855-7.3501 2.8773-11.068-.50819-3.7177-2.2672-7.5625-4.6803-12.104z"/>
  <path stroke-width=".925" opacity=".5" d="m320.84 371.84.21881 8.8953 7.0225-3.7334zm1.8559 1.9859-1.1596.6425 13.492 24.363 1.1596-.64248z"/>
  <path stroke-width=".925" opacity=".5" d="m330.17 366.88.21883 8.8953 7.0225-3.7334zm1.7964 1.7917-1.1492.66105c2.5681 4.4553 4.8927 7.9864 7.7729 10.389 2.8803 2.4022 6.3328 3.6195 10.902 3.4257l-.0585-1.3242c-4.3133.18301-7.3392-.90431-9.9955-3.1197-2.6563-2.2154-4.9258-5.615-7.4716-10.032z"/>
  <path fill="#331300" stroke-width=".925" opacity=".5" d="m394.95 209c-17.534 65.491-51.088 97.963-87.299 114.44-36.212 16.479-75.261 16.776-103.49 16.776h-5.3011v5.3057h5.3011c28.261 0 68.191-.19159 105.68-17.255 37.492-17.063 72.368-51.184 90.227-117.9zm6.9437-15.691-12.565 14.182 16.362 4.388z"/>
  <path fill="#331300" stroke-width=".925" opacity=".5" d="m382.69 188.17-12.565 14.182 16.362 4.388zm-6.9454 15.691c-14.557 54.373-45.838 72.783-80.361 83.407-34.522 10.624-72.354 12.626-98.047 34.204l-4.0613 3.4094 3.4064 4.0647 4.0612-3.412c23.816-20.002 60.85-22.315 96.199-33.194 35.349-10.878 68.947-31.157 83.924-87.107z"/>
  <path fill="#331300" stroke-width=".925" opacity=".5" d="m356.54 198.71c-5.2206 19.5-17.554 31.822-33.771 40.715-16.217 8.8938-36.287 14.145-56.219 18.964s-39.712 9.1936-55.532 16.754c-15.82 7.5606-27.845 18.683-30.957 36.347l-.92148 5.2255 5.2208.92227.9215-5.2254c2.7797-15.779 13.043-25.322 28.02-32.479 14.976-7.1573 34.503-11.553 54.494-16.386 19.992-4.8336 40.465-10.116 57.52-19.469s30.722-22.994 36.344-43.995zm6.9446-15.689-12.565 14.182 16.362 4.388z"/>
  <ellipse stroke="#000" stroke-width=".925" fill-opacity=".3" cx="193.56" cy="85.552" rx="6.6264" ry="6.6321"/>
  <path fill="none" stroke="#000" stroke-width=".925" marker-end="url(#marker)" d="m42.481 96.163h151.08"/>
  <path fill="none" stroke="#000" stroke-width=".925" marker-end="url(#marker)" d="m42.481 172.57h105.59"/>
  <path fill="none" stroke="#000" stroke-width=".925" marker-end="url(#marker)" d="m42.481 134.68h135.76"/>
  <path fill="none" stroke="#000" stroke-width=".925" marker-end="url(#marker)" d="m42.481 205.48h135.17"/>
  <path fill="none" stroke="#000" stroke-width=".925" marker-end="url(#marker)" d="m42.481 277.89h134.93"/>
  <path fill="none" stroke="#000" stroke-width=".925" marker-end="url(#marker)" d="m42.481 357.47h123.26"/>
  <path fill="none" stroke="#000" stroke-width=".925" marker-end="url(#marker)" d="m461.27 407.88h-95.42"/>
  <path fill="none" stroke="#000" stroke-width=".925" marker-end="url(#marker)" d="m461.27 331.94h-116.5"/>
  <path fill="none" stroke="#000" stroke-width=".925" marker-end="url(#marker)" d="m461.27 263.3h-71.565"/>
  <path fill="none" stroke="#000" stroke-width=".925" marker-end="url(#marker)" d="m461.27 204.93h-62.288"/>
  <path fill="none" stroke="#000" stroke-width=".925" marker-end="url(#marker)" d="m461.27 108.49h-221.45"/>
  <path fill="#ff5a5a" stroke-width=".925" d="m63.682 394.29v10.611l11.928-5.3057zm0 3.3161h-19.879v3.9793h19.879"/>
  <path fill="#5aacff" stroke-width=".925" d="m440.06 361.79v10.611l-11.928-5.3057zm0 3.3161h19.879v3.9793h-19.879"/>
  <path fill="#93ff5d" stroke-width=".925" d="m451.17 146.68v10.611l11.928-5.3057zm0 3.3161h-19.879v3.9793h19.879"/>
  <path fill="#73a5fa" stroke-width=".925" d="m409.63 363.78h3.2719v6.6321h-3.2719z"/>
  <path fill="#93ff5d" stroke-width=".925" d="m412.78 148.67h3.2719v6.6321h-3.2719z"/>
  <g font-family="Arial" font-size="11" transform="matrix(1.3253 0 0 1.3264 -87.396 -82.902)">
    <text text-anchor="end" x="91" y="138.59468">۱</text>
    <text text-anchor="end" x="91" y="167.63647">۲</text>
    <text text-anchor="end" x="91" y="196.13387">۳</text>
    <text text-anchor="end" x="91" y="220.99771">۴</text>
    <text text-anchor="end" x="91" y="275.47534">۵</text>
    <text text-anchor="end" x="91" y="335.53696">۶</text>
    <text text-anchor="end" x="91" y="367.29327">۷</text>
    <text x="422" y="147.82887">۸</text>
    <text x="422" y="180.62105">۹</text>
    <text x="422" y="220.53513">۱۰</text>
    <text x="422" y="264.60281">۱۱</text>
    <text x="422" y="316.35086">۱۲</text>
    <text x="422" y="342.79025">۱۳</text>
    <text x="422" y="373.60208">۱۴</text>
  </g>
</svg>
