<?xml version="1.0" encoding="UTF-8" standalone="no"?>
<svg
   xmlns:dc="http://purl.org/dc/elements/1.1/"
   xmlns:cc="http://creativecommons.org/ns#"
   xmlns:rdf="http://www.w3.org/1999/02/22-rdf-syntax-ns#"
   xmlns:svg="http://www.w3.org/2000/svg"
   xmlns="http://www.w3.org/2000/svg"
   xmlns:sodipodi="http://sodipodi.sourceforge.net/DTD/sodipodi-0.dtd"
   xmlns:inkscape="http://www.inkscape.org/namespaces/inkscape"
   width="512"
   height="512"
   viewBox="0 0 511.99998 512"
   version="1.1"
   id="svg8"
   inkscape:version="1.0.1 (3bc2e813f5, 2020-09-07)"
   sodipodi:docname="2-drawing.svg">
  <defs
     id="defs2" />
  <sodipodi:namedview
     id="base"
     pagecolor="#ffffff"
     bordercolor="#666666"
     borderopacity="1.0"
     inkscape:pageopacity="0.0"
     inkscape:pageshadow="2"
     inkscape:zoom="15.839192"
     inkscape:cx="221.69773"
     inkscape:cy="409.11751"
     inkscape:document-units="px"
     inkscape:current-layer="layer3"
     inkscape:document-rotation="0"
     showgrid="true"
     inkscape:snap-page="false"
     inkscape:object-paths="false"
     units="px"
     inkscape:showpageshadow="false"
     objecttolerance="20"
     width="24mm"
     inkscape:window-width="1920"
     inkscape:window-height="1017"
     inkscape:window-x="-8"
     inkscape:window-y="-8"
     inkscape:window-maximized="1"
     inkscape:snap-grids="false"
     inkscape:snap-bbox="true"
     inkscape:bbox-nodes="false"
     inkscape:bbox-paths="false"
     inkscape:snap-bbox-edge-midpoints="false"
     inkscape:snap-bbox-midpoints="false"
     inkscape:snap-intersection-paths="false"
     inkscape:snap-smooth-nodes="true"
     inkscape:snap-midpoints="false"
     inkscape:object-nodes="false">
    <inkscape:grid
       type="xygrid"
       id="grid10"
       empspacing="4"
       originx="0"
       originy="0"
       dotted="false"
       spacingx="3.9999999"
       spacingy="3.9999999" />
  </sodipodi:namedview>
  <metadata
     id="metadata5">
    <rdf:RDF>
      <cc:Work
         rdf:about="">
        <dc:format>image/svg+xml</dc:format>
        <dc:type
           rdf:resource="http://purl.org/dc/dcmitype/StillImage" />
        <dc:title />
      </cc:Work>
    </rdf:RDF>
  </metadata>
  <g
     inkscape:groupmode="layer"
     id="layer3"
     inkscape:label="human"
     style="display:inline;opacity:1">
    <path
       id="path840"
       style="fill:#000000;fill-opacity:1;stroke:#000000;stroke-width:1px;stroke-linecap:butt;stroke-linejoin:miter;stroke-opacity:1"
       d="m 236.32031,88.087891 c -3.57843,0.0044 -7.00872,1.151082 -10.3789,2.335937 0,0 -8.4938,2.044775 -12.16797,4.277344 -4.04608,2.458559 -7.44127,6.107488 -10.10156,10.039058 -2.9594,4.3736 -4.46364,9.46883 -5.49219,14.64844 -0.89362,4.50011 -0.43201,8.8661 0.0625,13.25781 0.60563,5.37813 2.32368,10.57091 3.53515,15.84571 0.74407,3.23973 -1.79529,2.62845 -1.66406,3.07812 0,0 2.51496,10.10857 3.62695,15.01563 0.43322,1.91175 -0.25443,5.03858 0.94141,6.59179 1.03507,1.34439 2.80877,0.12164 4.14453,1.03516 1.7715,1.21152 2.70564,2.36291 4.69531,5.46875 6.58836,10.28432 7.82741,17.89112 5.30274,22.34961 -4.19736,7.4124 -14.28641,12.19533 -26.64258,17.92969 -7.61824,3.53553 -15.05012,7.50678 -22.85547,10.60742 -4.45308,1.76897 -9.34122,2.0192 -13.23437,4.8125 -1.5868,1.13851 -3.35597,2.52296 -3.9375,4.4043 -9.41896,30.47189 -24.02711,93.94896 -25.12696,93.5664 0,0 -1.6806,5.83317 -2.2207,8.83789 -0.49348,2.74538 -0.5136,5.34321 -1.29297,8.02149 -0.87311,3.0004 -3.9375,8.64648 -3.9375,8.64648 l -0.5625,11.57227 12.30664,33.3789 c 0,0 14.38083,8.39223 21.84961,12.05469 5.10237,2.50205 16.45508,7.02735 16.45508,7.02734 0,0 -0.61875,5.03904 -1.14453,7.51954 -0.57288,2.70277 -2.18359,7.99609 -2.18359,7.99609 l 0.3789,24.875 177.1543,0.50586 -0.39844,-26.375 c -1.58669,-12.17338 -1.47398,-19.0958 -1.24219,-25.64844 17.23169,-8.8091 32.44699,-15.46723 44.44727,-25.2539 4.28748,-3.4966 5.8499,-8.1264 8.39648,-11.86915 0.59888,-0.8802 1.72669,-3.21814 0.82032,-5.42968 0,0 -2.59336,-4.9861 -3.15625,-7.70313 -0.87109,-4.20469 0.27546,-8.81838 -0.88477,-13.00586 -9.29676,-33.55375 -18.24027,-67.09886 -27.68359,-98.77343 -1.69024,-5.66938 -6.68016,-10.90372 -7.92383,-16.88868 -0.68614,-3.30197 -0.25196,-9.62695 -0.25196,-9.62695 0,0 -1.8677,-2.56049 -3.2832,-3 -9.88975,-3.07078 -26.43742,-7.3276 -26.26367,-7.44922 l -38.51367,-12.5 c 0,0 -5.24476,-6.11791 -8.33985,-8.72656 -2.02864,-1.7098 -4.9489,-2.78156 -6.82617,-4.8457 -1.1282,-1.24051 -1.90226,-3.4145 -2.15429,-5.07227 -0.84237,-5.5408 -0.38795,-11.17936 -0.48243,-17.34375 -0.0161,-1.05212 1.4881,-1.71579 2.52539,-1.89258 0.82671,-0.1409 1.57738,-0.0902 2.33789,-0.44336 1.98479,-0.92245 1.35134,-3.42697 1.05665,-5.5957 -0.28173,-2.07347 -1.0586,-2.65723 -1.2793,-4.5293 -0.42975,-3.64525 -0.24845,-7.77063 -0.2207,-11.65625 0.009,-1.26336 0.17553,-2.6453 -0.36524,-3.78711 -0.38555,-0.81407 -1.5991,-0.2345 -2.16015,-2.84179 -2.93125,-6.85712 -4.22977,-21.72142 -4.41993,-22.16016 0,0 -3.03894,-6.83398 -4.29297,-10.35352 -0.5377,-1.509102 -0.9107,-3.946182 -2.52539,-4.67187 -3.86997,-1.739276 -8.75733,0.330586 -12.62695,-1.388672 -2.77902,-1.234709 -2.30055,-4.530192 -6.81836,-6.060547 -1.69541,-0.574302 -3.35391,-0.808659 -4.98047,-0.80664 z m 7.42969,278.339839 18.19141,5.06641 c 9.22247,2.56851 17.92944,0.36062 27.03125,4.19922 6.40887,2.70288 11.51879,5.12516 14.93359,19.6875 1.06724,4.55121 0.14837,9.24065 -2.17187,13.86133 l -12.62696,6.83008 -13.75,7.67773 c -5.87054,2.60937 -13.44198,5.04961 -22.67969,7.32227 l -13.39257,0.53515 c -16.9087,-0.78376 -30.06615,-6.25696 -41.60743,-13.75 -12.25128,-7.954 -5.2239,-1.77211 -6.60546,-3.92969 -2.45276,-3.83048 -1.89442,-9.04564 -1.42969,-13.57031 0.4789,-4.66261 1.76569,-9.44016 4.28515,-13.39258 1.69839,-2.66436 4.33245,-4.68217 6.96485,-6.42968 4.1945,-2.78449 8.90997,-4.86387 13.75,-6.25 3.00881,-0.86169 9.30859,-1.22852 9.30859,-1.22852 l 7.47656,-1.0918 z m 0,7.67969 -6.07227,5 -10.53515,3.03516 c -3.67666,2.87652 -3.72264,5.54413 -1.25,8.74944 3.98979,1.52756 9.41268,4.09012 15.17969,5.18025 9.3213,-6.08579 16.38551,-5.26727 22.85546,-8.92969 2.51897,-1.94121 0.91802,-3.86649 0,-4.82031 -8.26228,-0.81798 -14.59707,-4.04485 -20.17773,-8.21485 z m 22.15986,22.14688 c -10.51251,2.69414 -22.40037,7.41673 -25.37372,7.00029 -4.2963,0.44966 -15.57403,-3.22279 -20.30606,-4.86513 3.42914,4.34658 7.28386,6.97423 19.99126,10.54464 9.90546,-3.01322 18.74477,-7.57436 25.68852,-12.6798 z m -3.77569,11.16231 c -9.42978,3.20007 -15.01042,7.98989 -22.89384,8.77626 -7.20272,-0.36931 -6.56982,-1.77693 -13.69029,-4.67852 2.20811,1.52194 3.0048,2.89347 14.60289,9.95026 9.83648,-6.78594 20.17191,-7.0978 21.98124,-14.048 z"
       sodipodi:nodetypes="scssscscssssssssscsscccscscccccsscsssscsccssssscssssccssssscssscccccssssssccccccccccccccccccccc" />
  </g>
  <g
     inkscape:groupmode="layer"
     id="layer2"
     inkscape:label="circle"
     style="display:inline">
    <circle
       style="fill:none;fill-opacity:1;stroke:#ff0000;stroke-width:37;stroke-linejoin:round;stroke-miterlimit:4;stroke-dasharray:none;stroke-opacity:1;stop-color:#000000"
       id="path835"
       cx="256"
       cy="256"
       r="220" />
    <path
       style="fill:none;stroke:#ff0000;stroke-width:37;stroke-linecap:butt;stroke-linejoin:miter;stroke-miterlimit:4;stroke-dasharray:none;stroke-opacity:1"
       d="M 112,399.99999 399.99999,112"
       id="path837" />
  </g>
</svg>
