<?xml version="1.0" encoding="UTF-8"?>
<svg width="512" height="512" version="1.1" viewBox="0 0 512 512" xmlns="http://www.w3.org/2000/svg">
  <g>
    <path d="m236.32 88.088c-3.5784 0.0044-7.0087 1.1511-10.379 2.3359 0 0-8.4938 2.0448-12.168 4.2773-4.0461 2.4586-7.4413 6.1075-10.102 10.039-2.9594 4.3736-4.4636 9.4688-5.4922 14.648-0.89362 4.5001-0.43201 8.8661 0.0625 13.258 0.60563 5.3781 2.3237 10.571 3.5352 15.846 0.74407 3.2397-1.7953 2.6284-1.6641 3.0781 0 0 2.515 10.109 3.627 15.016 0.43322 1.9118 0.44005 4.0916 1.6359 5.6448 1.0351 1.3444 2.1143 1.0687 3.45 1.9822 1.7715 1.2115 2.7056 2.3629 4.6953 5.4688 6.5884 10.284 7.8274 17.891 5.3027 22.35-4.1974 7.4124-14.286 12.195-26.643 17.93-7.6182 3.5355-15.05 7.5068-22.855 10.607-4.4531 1.769-9.3412 2.0192-13.234 4.8125-1.5868 1.1385-3.356 2.523-3.9375 4.4043-9.419 30.472-24.027 93.949-25.127 93.566 0 0-1.6806 5.8332-2.2207 8.8379-0.49348 2.7454-0.5136 5.3432-1.293 8.0215-0.87311 3.0004-3.9375 8.6465-3.9375 8.6465l-0.5625 11.572 12.307 33.379s14.381 8.3922 21.85 12.055c5.1024 2.502 16.455 7.0274 16.455 7.0273 0 0-0.61875 5.039-1.1445 7.5195-0.57288 2.7028-2.1836 7.9961-2.1836 7.9961l0.3789 24.875 177.15 0.50586-0.39844-26.375c-1.5867-12.173-1.474-19.096-1.2422-25.648 17.232-8.8091 32.447-15.467 44.447-25.254 4.2875-3.4966 5.8499-8.1264 8.3965-11.869 0.59888-0.8802 1.7267-3.2181 0.82032-5.4297 0 0-2.5934-4.9861-3.1562-7.7031-0.87109-4.2047 0.27546-8.8184-0.88477-13.006-9.2968-33.554-18.24-67.099-27.684-98.773-1.6902-5.6694-6.6802-10.904-7.9238-16.889-0.68614-3.302-0.25196-9.627-0.25196-9.627s-1.8677-2.5605-3.2832-3c-9.8898-3.0708-26.437-7.3276-26.264-7.4492l-38.514-12.5s-5.2448-6.1179-8.3398-8.7266c-2.0286-1.7098-4.9489-2.7816-6.8262-4.8457-1.1282-1.2405-1.9023-3.4145-2.1543-5.0723-0.84237-5.5408-0.38795-11.179-0.48243-17.344-0.0161-1.0521 1.4881-1.7158 2.5254-1.8926 0.82671-0.1409 1.5774-0.0902 2.3379-0.44336 1.9848-0.92245 1.3513-3.427 1.0566-5.5957-0.28173-2.0735-1.0586-2.6572-1.2793-4.5293-0.42975-3.6452-0.24845-7.7706-0.2207-11.656 9e-3 -1.2634 0.17553-2.6453-0.36524-3.7871-0.38555-0.81407-1.5991-0.2345-2.1602-2.8418-2.9312-6.8571-4.2298-21.721-4.4199-22.16 0 0-3.0389-6.834-4.293-10.354-0.5377-1.5091-0.9107-3.9462-2.5254-4.6719-3.87-1.7393-8.7573 0.33059-12.627-1.3887-2.779-1.2347-2.3006-4.5302-6.8184-6.0605-1.6954-0.5743-3.3539-0.80866-4.9805-0.80664zm7.4297 278.34 18.191 5.0664c9.2225 2.5685 17.929 0.36062 27.031 4.1992 6.4089 2.7029 11.519 5.1252 14.934 19.688 1.0672 4.5512 0.14837 9.2406-2.1719 13.861l-12.627 6.8301-13.75 7.6777c-5.8705 2.6094-9.1601 5.0293-22.948 7.4116-2.3754 0.41043-9.9913 0.71716-13.125 0.44587-17.34-1.5013-30.066-6.257-41.607-13.75-12.251-7.954-5.2239-1.7721-6.6055-3.9297-2.4528-3.8305-1.8944-9.0456-1.4297-13.57 0.4789-4.6626 1.7657-9.4402 4.2852-13.393 1.6984-2.6644 4.3324-4.6822 6.9648-6.4297 4.1945-2.7845 8.91-4.8639 13.75-6.25 3.0088-0.86169 9.3086-1.2285 9.3086-1.2285l7.4766-1.0918zm0 7.6797-6.0723 5-10.535 3.0352c-3.6767 2.8765-3.7226 5.5441-1.25 8.7494 3.9898 1.5276 9.4127 4.0901 15.18 5.1802 9.3213-6.0858 16.386-5.2673 22.855-8.9297 2.519-1.9412 0.91802-3.8665 0-4.8203-8.2623-0.81798-14.597-4.0448-20.178-8.2148zm22.16 22.147c-10.513 2.6941-22.4 7.4167-25.374 7.0003-4.2963 0.44966-15.574-3.2228-20.306-4.8651 3.4291 4.3466 7.2839 6.9742 19.991 10.545 9.9055-3.0132 18.745-7.5744 25.689-12.68zm-3.7757 11.162c-9.4298 3.2001-15.01 7.9899-22.894 8.7763-7.2027-0.36931-6.5698-1.7769-13.69-4.6785 2.2081 1.5219 3.0048 2.8935 14.603 9.9503 9.8365-6.7859 20.172-7.0978 21.981-14.048z" stroke="#000" stroke-width="1px"/>
  </g>
  <g>
    <g fill="none" stroke="#ed3237" stroke-width="37">
      <circle cx="256" cy="256" r="220" stop-color="#000000" stroke-linejoin="round"/>
      <path d="m112 400 288-288"/>
    </g>
  </g>
</svg>
