<?xml version="1.0" encoding="UTF-8"?>
<svg width="512" height="512" version="1.1" viewBox="0 0 512 512" xmlns="http://www.w3.org/2000/svg" xmlns:xlink="http://www.w3.org/1999/xlink">
  <defs>
    <linearGradient id="reference-gradient">
      <stop offset="0" stop-color="#2f2f33"/>
      <stop offset="1" stop-color="#232326"/>
    </linearGradient>
    <linearGradient id="gradient2" x1="612" x2="612" y1="168" y2="170" gradientTransform="translate(-352 8)" gradientUnits="userSpaceOnUse" spreadMethod="reflect" xlink:href="#reference-gradient"/>
    <linearGradient id="gradient3" x1="612" x2="612" y1="168" y2="170" gradientTransform="translate(-352 164)" gradientUnits="userSpaceOnUse" spreadMethod="reflect" xlink:href="#reference-gradient"/>
  </defs>

  <g>
    <g fill="#333338">
      <rect x="180" y="172" width="152" height="12" fill="url(#gradient2)"/>
      <rect x="180" y="328" width="152" height="12" fill="url(#gradient3)"/>
      <rect x="180" y="336" width="152" height="152"/>
      <rect x="180" y="180" width="152" height="152"/>
      <rect x="180" y="024" width="152" height="152"/>
    </g>
    <g stroke="#262626" stroke-width="8">
      <circle cx="256" cy="100" r="65"/>
      <circle cx="256" cy="412" r="65"/>
      <circle cx="256" cy="256" r="65"/>
    </g>
    <g fill="#00cc5f">
      <g transform="rotate(120 134.82 441.79)">
        <circle cx="48" cy="346" r="4"/>
        <circle transform="rotate(240)" cx="-328.84" cy="-140.43" r="4"/>
        <circle transform="rotate(120)" cx="280.84" cy="-223.57" r="4"/>
      </g>
      <g transform="translate(180 60)">
        <circle transform="rotate(036)" cx="268.39" cy="224.1" r="4"/>
        <circle transform="rotate(108)" cx="301.88" cy="-194" r="4"/>
        <circle transform="rotate(-36)" cx="-160.63" cy="334.39" r="4"/>
        <circle transform="rotate(-72)" cx="-326.5" cy="186" r="4"/>
        <circle transform="rotate(252)" cx="-373.47" cy="-31.549" r="4"/>
        <circle transform="rotate(216)" cx="-283.6" cy="-235.16" r="4"/>
        <circle cx="66.595" cy="339.06" r="4"/>
        <circle transform="rotate(-36)" cx="-154.82" cy="316.5" r="4"/>
        <circle transform="rotate(-72)" cx="-320.69" cy="168.11" r="4"/>
        <circle cx="76" cy="336" r="4"/>
      </g>
      <g transform="translate(176 72)">
        <circle cx="80" cy="314" r="4"/>
        <circle transform="rotate(22.5)" cx="204.02" cy="257.5" r="4"/>
        <circle transform="rotate(-22.5)" cx="-56.202" cy="318.73" r="4"/>
        <circle transform="rotate(-45)" cx="-183.85" cy="270.98" r="4"/>
        <circle transform="rotate(45)" cx="296.98" cy="157.85" r="4"/>
        <circle cx="80" cy="314" r="4"/>
        <circle transform="rotate(90)" cx="340" cy="-106" r="4"/>
        <circle transform="rotate(-90)" cx="-340" cy="54" r="4"/>
        <circle transform="rotate(-67.5)" cx="-283.5" cy="178.02" r="4"/>
        <circle transform="rotate(67.5)" cx="344.73" cy="30.202" r="4"/>
        <circle transform="scale(1,-1)" cx="80" cy="-366" r="4"/>
        <circle transform="matrix(.92388 -.38268 -.38268 -.92388 0 0)" cx="-56.202" cy="-370.73" r="4"/>
        <circle transform="matrix(.92388 .38268 .38268 -.92388 0 0)" cx="204.02" cy="-309.5" r="4"/>
        <circle transform="matrix(.70711 .70711 .70711 -.70711 0 0)" cx="296.98" cy="-209.85" r="4"/>
        <circle transform="matrix(.70711 -.70711 -.70711 -.70711 0 0)" cx="-183.85" cy="-322.98" r="4"/>
        <circle transform="scale(1,-1)" cx="80" cy="-366" r="4"/>
        <circle transform="matrix(.38268 .92388 .92388 -.38268 0 0)" cx="344.73" cy="-82.202" r="4"/>
        <circle transform="matrix(.38268 -.92388 -.92388 -.38268 0 0)" cx="-283.5" cy="-230.02" r="4"/>
      </g>
      <g transform="translate(176,72)">
        <circle transform="rotate(-16.36)" cx="-19.007" cy="312.77" r="4"/>
        <circle transform="rotate(16.360)" cx="172.53" cy="267.7" r="4"/>
        <circle transform="rotate(-98.16)" cx="-347.91" cy="-5.0688" r="4"/>
        <circle transform="rotate(-32.72)" cx="-116.48" cy="293.29" r="4"/>
        <circle transform="rotate(32.720)" cx="251.09" cy="206.81" r="4"/>
        <circle transform="rotate(-65.44)" cx="-275.99" cy="178.08" r="4"/>
        <circle transform="rotate(65.440)" cx="342.49" cy="32.558" r="4"/>
        <circle transform="rotate(49.080)" cx="309.31" cy="126.25" r="4"/>
        <circle transform="rotate(81.800)" cx="347.93" cy="-66.688" r="4"/>
        <circle transform="rotate(-81.80)" cx="-325.11" cy="91.676" r="4"/>
        <circle transform="rotate(-49.08)" cx="-204.51" cy="247.15" r="4"/>
        <circle transform="rotate(229.12)" cx="-309.43" cy="-198.04" r="4"/>
        <circle transform="rotate(130.88)" cx="204.71" cy="-319.01" r="4"/>
        <circle transform="rotate(114.52)" cx="276.14" cy="-249.89" r="4"/>
        <circle transform="rotate(212.76)" cx="-251.26" cy="-278.63" r="4"/>
        <circle transform="rotate(147.24)" cx="116.71" cy="-365.21" r="4"/>
        <circle cx="80" cy="304" r="4"/>
        <circle transform="rotate(245.48)" cx="-342.54" cy="-104.32" r="4"/>
        <circle transform="rotate(98.16)" cx="325.2" cy="-163.45" r="4"/>
        <circle transform="rotate(196.4)" cx="-172.74" cy="-339.58" r="4"/>
        <circle cx="80" cy="376" r="4"/>
        <circle transform="rotate(163.6)" cx="19.251" cy="-384.75" r="4"/>
        <circle cx="80" cy="294" r="4"/>
        <circle transform="rotate(-12.86)" cx="2.3197" cy="303.28" r="4"/>
        <circle transform="rotate(-25.72)" cx="-75.477" cy="295.03" r="4"/>
        <circle transform="rotate(12.86)" cx="153.67" cy="267.67" r="4"/>
        <circle transform="rotate(38.58)" cx="274.57" cy="169.9" r="4"/>
        <circle transform="rotate(-51.44)" cx="-216" cy="228.49" r="4"/>
        <circle transform="rotate(51.44)" cx="315.73" cy="103.38" r="4"/>
        <circle transform="rotate(-38.58)" cx="-149.49" cy="269.68" r="4"/>
        <circle transform="rotate(25.72)" cx="219.63" cy="225.6" r="4"/>
        <circle transform="rotate(-64.3)" cx="-271.67" cy="173.53" r="4"/>
        <circle transform="rotate(64.3)" cx="341.06" cy="29.358" r="4"/>
        <circle transform="rotate(77.16)" cx="349.28" cy="-48.442" r="4"/>
        <circle cx="34" cy="340" r="4"/>
        <circle cx="126" cy="340" r="4"/>
        <circle transform="rotate(-77.16)" cx="-313.72" cy="107.56" r="4"/>
        <circle transform="scale(1,-1)" cx="80" cy="-386" r="4"/>
        <circle transform="matrix(.97492 .22257 .22257 -.97492 0 0)" cx="153.67" cy="-359.67" r="4"/>
        <circle transform="matrix(.90093 .43397 .43397 -.90093 0 0)" cx="219.63" cy="-317.6" r="4"/>
        <circle transform="matrix(.97492 -.22257 -.22257 -.97492 0 0)" cx="2.3197" cy="-395.28" r="4"/>
        <circle transform="matrix(.78174 -.62361 -.62361 -.78174 0 0)" cx="-149.49" cy="-361.68" r="4"/>
        <circle transform="matrix(.62333 .78196 .78196 -.62333 0 0)" cx="315.73" cy="-195.38" r="4"/>
        <circle transform="matrix(.62333 -.78196 -.78196 -.62333 0 0)" cx="-216" cy="-320.49" r="4"/>
        <circle transform="matrix(.78174 .62361 .62361 -.78174 0 0)" cx="274.57" cy="-261.9" r="4"/>
        <circle transform="matrix(.90093 -.43397 -.43397 -.90093 0 0)" cx="-75.477" cy="-387.03" r="4"/>
        <circle transform="matrix(.43366 .90108 .90108 -.43366 0 0)" cx="341.06" cy="-121.36" r="4"/>
        <circle transform="matrix(.43366 -.90108 -.90108 -.43366 0 0)" cx="-271.67" cy="-265.53" r="4"/>
        <circle transform="matrix(.22223 -.97499 -.97499 -.22223 0 0)" cx="-313.72" cy="-199.56" r="4"/>
        <circle transform="matrix(.22223 .97499 .97499 -.22223 0 0)" cx="349.28" cy="-43.558" r="4"/>
        <circle cx="80" cy="284" r="4"/>
        <circle transform="rotate(10)" cx="137.82" cy="264.94" r="4"/>
        <circle transform="rotate(-10)" cx="19.744" cy="292.73" r="4"/>
        <circle transform="rotate(20)" cx="191.46" cy="236.13" r="4"/>
        <circle transform="rotate(-20)" cx="-41.111" cy="290.86" r="4"/>
        <circle transform="rotate(-30)" cx="-100.72" cy="278.45" r="4"/>
        <circle transform="rotate(30)" cx="239.28" cy="198.45" r="4"/>
        <circle transform="rotate(40)" cx="279.83" cy="153.03" r="4"/>
        <circle transform="rotate(-50)" cx="-209.03" cy="223.83" r="4"/>
        <circle transform="rotate(50)" cx="311.88" cy="101.26" r="4"/>
        <circle transform="rotate(-60)" cx="-254.45" cy="183.28" r="4"/>
        <circle transform="rotate(70)" cx="346.86" cy="-14.889" r="4"/>
        <circle transform="rotate(-70)" cx="-292.13" cy="135.46" r="4"/>
        <circle transform="rotate(60)" cx="334.45" cy="44.718" r="4"/>
        <circle transform="rotate(-40)" cx="-157.26" cy="255.88" r="4"/>
        <circle transform="rotate(-80)" cx="-320.94" cy="81.825" r="4"/>
        <circle transform="rotate(-90)" cx="-340" cy="24" r="4"/>
        <circle transform="rotate(80)" cx="348.73" cy="-75.744" r="4"/>
        <circle transform="rotate(90)" cx="340" cy="-136" r="4"/>
        <circle transform="scale(1,-1)" cx="80" cy="-396" r="4"/>
        <circle transform="matrix(.98481 -.17365 -.17365 -.98481 0 0)" cx="19.744" cy="-404.73" r="4"/>
        <circle transform="matrix(.98481 .17365 .17365 -.98481 0 0)" cx="137.82" cy="-376.94" r="4"/>
        <circle transform="matrix(.93969 -.34202 -.34202 -.93969 0 0)" cx="-41.111" cy="-402.86" r="4"/>
        <circle transform="matrix(.93969 .34202 .34202 -.93969 0 0)" cx="191.46" cy="-348.13" r="4"/>
        <circle transform="matrix(.86603 .5 .5 -.86603 0 0)" cx="239.28" cy="-310.45" r="4"/>
        <circle transform="matrix(.86603 -.5 -.5 -.86603 0 0)" cx="-100.72" cy="-390.45" r="4"/>
        <circle transform="matrix(.76604 -.64279 -.64279 -.76604 0 0)" cx="-157.26" cy="-367.88" r="4"/>
        <circle transform="matrix(.64279 .76604 .76604 -.64279 0 0)" cx="311.88" cy="-213.26" r="4"/>
        <circle transform="matrix(.64279 -.76604 -.76604 -.64279 0 0)" cx="-209.03" cy="-335.83" r="4"/>
        <circle transform="matrix(.5 .86603 .86603 -.5 0 0)" cx="334.45" cy="-156.72" r="4"/>
        <circle transform="matrix(.34202 -.93969 -.93969 -.34202 0 0)" cx="-292.13" cy="-247.46" r="4"/>
        <circle transform="matrix(.34202 .93969 .93969 -.34202 0 0)" cx="346.86" cy="-97.111" r="4"/>
        <circle transform="matrix(.5 -.86603 -.86603 -.5 0 0)" cx="-254.45" cy="-295.28" r="4"/>
        <circle transform="matrix(.76604 .64279 .64279 -.76604 0 0)" cx="279.83" cy="-265.03" r="4"/>
        <circle transform="matrix(.17365 .98481 .98481 -.17365 0 0)" cx="348.73" cy="-36.256" r="4"/>
        <circle transform="matrix(.17365 -.98481 -.98481 -.17365 0 0)" cx="-320.94" cy="-193.82" r="4"/>
      </g>
    </g>
    <g transform="translate(0 -156)" fill="#ffc51a">
      <g transform="rotate(120 134.82 441.79)">
        <circle transform="rotate(240)" cx="-328.84" cy="-140.43" r="4"/>
        <circle transform="rotate(120)" cx="280.84" cy="-223.57" r="4"/>
        <circle cx="48" cy="346" r="4"/>
      </g>
      <g transform="translate(180 60)">
        <circle transform="rotate(36)" cx="268.39" cy="224.1" r="4"/>
        <circle transform="rotate(108)" cx="301.88" cy="-194" r="4"/>
        <circle transform="rotate(-36)" cx="-160.63" cy="334.39" r="4"/>
        <circle transform="rotate(-72)" cx="-326.5" cy="186" r="4"/>
        <circle transform="rotate(252)" cx="-373.47" cy="-31.549" r="4"/>
        <circle transform="rotate(216)" cx="-283.6" cy="-235.16" r="4"/>
        <circle cx="66.595" cy="339.06" r="4"/>
        <circle transform="rotate(-36)" cx="-154.82" cy="316.5" r="4"/>
        <circle transform="rotate(-72)" cx="-320.69" cy="168.11" r="4"/>
        <circle cx="76" cy="336" r="4"/>
      </g>
      <g transform="translate(176 72)">
        <circle cx="80" cy="314" r="4"/>
        <circle transform="rotate(22.5)" cx="204.02" cy="257.5" r="4"/>
        <circle transform="rotate(-22.5)" cx="-56.202" cy="318.73" r="4"/>
        <circle transform="rotate(-45)" cx="-183.85" cy="270.98" r="4"/>
        <circle transform="rotate(45)" cx="296.98" cy="157.85" r="4"/>
        <circle cx="80" cy="314" r="4"/>
        <circle transform="rotate(90)" cx="340" cy="-106" r="4"/>
        <circle transform="rotate(-90)" cx="-340" cy="54" r="4"/>
        <circle transform="rotate(-67.5)" cx="-283.5" cy="178.02" r="4"/>
        <circle transform="rotate(67.5)" cx="344.73" cy="30.202" r="4"/>
        <circle transform="scale(1,-1)" cx="80" cy="-366" r="4"/>
        <circle transform="matrix(.92388 -.38268 -.38268 -.92388 0 0)" cx="-56.202" cy="-370.73" r="4"/>
        <circle transform="matrix(.92388 .38268 .38268 -.92388 0 0)" cx="204.02" cy="-309.5" r="4"/>
        <circle transform="matrix(.70711 .70711 .70711 -.70711 0 0)" cx="296.98" cy="-209.85" r="4"/>
        <circle transform="matrix(.70711 -.70711 -.70711 -.70711 0 0)" cx="-183.85" cy="-322.98" r="4"/>
        <circle transform="scale(1,-1)" cx="80" cy="-366" r="4"/>
        <circle transform="matrix(.38268 .92388 .92388 -.38268 0 0)" cx="344.73" cy="-82.202" r="4"/>
        <circle transform="matrix(.38268 -.92388 -.92388 -.38268 0 0)" cx="-283.5" cy="-230.02" r="4"/>
      </g>
      <g transform="translate(176,72)">
        <circle transform="rotate(-16.36)" cx="-19.007" cy="312.77" r="4"/>
        <circle transform="rotate(16.36)" cx="172.53" cy="267.7" r="4"/>
        <circle transform="rotate(-98.16)" cx="-347.91" cy="-5.0688" r="4"/>
        <circle transform="rotate(-32.72)" cx="-116.48" cy="293.29" r="4"/>
        <circle transform="rotate(32.72)" cx="251.09" cy="206.81" r="4"/>
        <circle transform="rotate(-65.44)" cx="-275.99" cy="178.08" r="4"/>
        <circle transform="rotate(65.44)" cx="342.49" cy="32.558" r="4"/>
        <circle transform="rotate(49.08)" cx="309.31" cy="126.25" r="4"/>
        <circle transform="rotate(81.8)" cx="347.93" cy="-66.688" r="4"/>
        <circle transform="rotate(-81.8)" cx="-325.11" cy="91.676" r="4"/>
        <circle transform="rotate(-49.08)" cx="-204.51" cy="247.15" r="4"/>
        <circle transform="rotate(229.12)" cx="-309.43" cy="-198.04" r="4"/>
        <circle transform="rotate(130.88)" cx="204.71" cy="-319.01" r="4"/>
        <circle transform="rotate(114.52)" cx="276.14" cy="-249.89" r="4"/>
        <circle transform="rotate(212.76)" cx="-251.26" cy="-278.63" r="4"/>
        <circle transform="rotate(147.24)" cx="116.71" cy="-365.21" r="4"/>
        <circle cx="80" cy="304" r="4"/>
        <circle transform="rotate(245.48)" cx="-342.54" cy="-104.32" r="4"/>
        <circle transform="rotate(98.16)" cx="325.2" cy="-163.45" r="4"/>
        <circle transform="rotate(196.4)" cx="-172.74" cy="-339.58" r="4"/>
        <circle cx="80" cy="376" r="4"/>
        <circle transform="rotate(163.6)" cx="19.251" cy="-384.75" r="4"/>
        <circle cx="80" cy="294" r="4"/>
        <circle transform="rotate(-12.86)" cx="2.3197" cy="303.28" r="4"/>
        <circle transform="rotate(-25.72)" cx="-75.477" cy="295.03" r="4"/>
        <circle transform="rotate(12.86)" cx="153.67" cy="267.67" r="4"/>
        <circle transform="rotate(38.58)" cx="274.57" cy="169.9" r="4"/>
        <circle transform="rotate(-51.44)" cx="-216" cy="228.49" r="4"/>
        <circle transform="rotate(51.44)" cx="315.73" cy="103.38" r="4"/>
        <circle transform="rotate(-38.58)" cx="-149.49" cy="269.68" r="4"/>
        <circle transform="rotate(25.72)" cx="219.63" cy="225.6" r="4"/>
        <circle transform="rotate(-64.3)" cx="-271.67" cy="173.53" r="4"/>
        <circle transform="rotate(64.3)" cx="341.06" cy="29.358" r="4"/>
        <circle transform="rotate(77.16)" cx="349.28" cy="-48.442" r="4"/>
        <circle cx="34" cy="340" r="4"/>
        <circle cx="126" cy="340" r="4"/>
        <circle transform="rotate(-77.16)" cx="-313.72" cy="107.56" r="4"/>
        <circle transform="scale(1,-1)" cx="80" cy="-386" r="4"/>
        <circle transform="matrix(.97492 .22257 .22257 -.97492 0 0)" cx="153.67" cy="-359.67" r="4"/>
        <circle transform="matrix(.90093 .43397 .43397 -.90093 0 0)" cx="219.63" cy="-317.6" r="4"/>
        <circle transform="matrix(.97492 -.22257 -.22257 -.97492 0 0)" cx="2.3197" cy="-395.28" r="4"/>
        <circle transform="matrix(.78174 -.62361 -.62361 -.78174 0 0)" cx="-149.49" cy="-361.68" r="4"/>
        <circle transform="matrix(.62333 .78196 .78196 -.62333 0 0)" cx="315.73" cy="-195.38" r="4"/>
        <circle transform="matrix(.62333 -.78196 -.78196 -.62333 0 0)" cx="-216" cy="-320.49" r="4"/>
        <circle transform="matrix(.78174 .62361 .62361 -.78174 0 0)" cx="274.57" cy="-261.9" r="4"/>
        <circle transform="matrix(.90093 -.43397 -.43397 -.90093 0 0)" cx="-75.477" cy="-387.03" r="4"/>
        <circle transform="matrix(.43366 .90108 .90108 -.43366 0 0)" cx="341.06" cy="-121.36" r="4"/>
        <circle transform="matrix(.43366 -.90108 -.90108 -.43366 0 0)" cx="-271.67" cy="-265.53" r="4"/>
        <circle transform="matrix(.22223 -.97499 -.97499 -.22223 0 0)" cx="-313.72" cy="-199.56" r="4"/>
        <circle transform="matrix(.22223 .97499 .97499 -.22223 0 0)" cx="349.28" cy="-43.558" r="4"/>
        <circle cx="80" cy="284" r="4"/>
        <circle transform="rotate(10)" cx="137.82" cy="264.94" r="4"/>
        <circle transform="rotate(-10)" cx="19.744" cy="292.73" r="4"/>
        <circle transform="rotate(20)" cx="191.46" cy="236.13" r="4"/>
        <circle transform="rotate(-20)" cx="-41.111" cy="290.86" r="4"/>
        <circle transform="rotate(-30)" cx="-100.72" cy="278.45" r="4"/>
        <circle transform="rotate(30)" cx="239.28" cy="198.45" r="4"/>
        <circle transform="rotate(40)" cx="279.83" cy="153.03" r="4"/>
        <circle transform="rotate(-50)" cx="-209.03" cy="223.83" r="4"/>
        <circle transform="rotate(50)" cx="311.88" cy="101.26" r="4"/>
        <circle transform="rotate(-60)" cx="-254.45" cy="183.28" r="4"/>
        <circle transform="rotate(70)" cx="346.86" cy="-14.889" r="4"/>
        <circle transform="rotate(-70)" cx="-292.13" cy="135.46" r="4"/>
        <circle transform="rotate(60)" cx="334.45" cy="44.718" r="4"/>
        <circle transform="rotate(-40)" cx="-157.26" cy="255.88" r="4"/>
        <circle transform="rotate(-80)" cx="-320.94" cy="81.825" r="4"/>
        <circle transform="rotate(-90)" cx="-340" cy="24" r="4"/>
        <circle transform="rotate(80)" cx="348.73" cy="-75.744" r="4"/>
        <circle transform="rotate(90)" cx="340" cy="-136" r="4"/>
        <circle transform="scale(1,-1)" cx="80" cy="-396" r="4"/>
        <circle transform="matrix(.98481 -.17365 -.17365 -.98481 0 0)" cx="19.744" cy="-404.73" r="4"/>
        <circle transform="matrix(.98481 .17365 .17365 -.98481 0 0)" cx="137.82" cy="-376.94" r="4"/>
        <circle transform="matrix(.93969 -.34202 -.34202 -.93969 0 0)" cx="-41.111" cy="-402.86" r="4"/>
        <circle transform="matrix(.93969 .34202 .34202 -.93969 0 0)" cx="191.46" cy="-348.13" r="4"/>
        <circle transform="matrix(.86603 .5 .5 -.86603 0 0)" cx="239.28" cy="-310.45" r="4"/>
        <circle transform="matrix(.86603 -.5 -.5 -.86603 0 0)" cx="-100.72" cy="-390.45" r="4"/>
        <circle transform="matrix(.76604 -.64279 -.64279 -.76604 0 0)" cx="-157.26" cy="-367.88" r="4"/>
        <circle transform="matrix(.64279 .76604 .76604 -.64279 0 0)" cx="311.88" cy="-213.26" r="4"/>
        <circle transform="matrix(.64279 -.76604 -.76604 -.64279 0 0)" cx="-209.03" cy="-335.83" r="4"/>
        <circle transform="matrix(.5 .86603 .86603 -.5 0 0)" cx="334.45" cy="-156.72" r="4"/>
        <circle transform="matrix(.34202 -.93969 -.93969 -.34202 0 0)" cx="-292.13" cy="-247.46" r="4"/>
        <circle transform="matrix(.34202 .93969 .93969 -.34202 0 0)" cx="346.86" cy="-97.111" r="4"/>
        <circle transform="matrix(.5 -.86603 -.86603 -.5 0 0)" cx="-254.45" cy="-295.28" r="4"/>
        <circle transform="matrix(.76604 .64279 .64279 -.76604 0 0)" cx="279.83" cy="-265.03" r="4"/>
        <circle transform="matrix(.17365 .98481 .98481 -.17365 0 0)" cx="348.73" cy="-36.256" r="4"/>
        <circle transform="matrix(.17365 -.98481 -.98481 -.17365 0 0)" cx="-320.94" cy="-193.82" r="4"/>
      </g>
    </g>
    <g transform="translate(0 -312)" fill="#ff2740">
      <g transform="rotate(120 134.82 441.79)">
        <circle transform="rotate(240)" cx="-328.84" cy="-140.43" r="4"/>
        <circle transform="rotate(120)" cx="280.84" cy="-223.57" r="4"/>
        <circle cx="48" cy="346" r="4"/>
      </g>
      <g transform="translate(180 60)">
        <circle transform="rotate(36)" cx="268.39" cy="224.1" r="4"/>
        <circle transform="rotate(108)" cx="301.88" cy="-194" r="4"/>
        <circle transform="rotate(-36)" cx="-160.63" cy="334.39" r="4"/>
        <circle transform="rotate(-72)" cx="-326.5" cy="186" r="4"/>
        <circle transform="rotate(252)" cx="-373.47" cy="-31.549" r="4"/>
        <circle transform="rotate(216)" cx="-283.6" cy="-235.16" r="4"/>
        <circle cx="66.595" cy="339.06" r="4"/>
        <circle transform="rotate(-36)" cx="-154.82" cy="316.5" r="4"/>
        <circle transform="rotate(-72)" cx="-320.69" cy="168.11" r="4"/>
        <circle cx="76" cy="336" r="4"/>
      </g>
      <g transform="translate(176 72)">
        <circle cx="80" cy="314" r="4"/>
        <circle transform="rotate(22.5)" cx="204.02" cy="257.5" r="4"/>
        <circle transform="rotate(-22.5)" cx="-56.202" cy="318.73" r="4"/>
        <circle transform="rotate(-45)" cx="-183.85" cy="270.98" r="4"/>
        <circle transform="rotate(45)" cx="296.98" cy="157.85" r="4"/>
        <circle cx="80" cy="314" r="4"/>
        <circle transform="rotate(90)" cx="340" cy="-106" r="4"/>
        <circle transform="rotate(-90)" cx="-340" cy="54" r="4"/>
        <circle transform="rotate(-67.5)" cx="-283.5" cy="178.02" r="4"/>
        <circle transform="rotate(67.5)" cx="344.73" cy="30.202" r="4"/>
        <circle transform="scale(1,-1)" cx="80" cy="-366" r="4"/>
        <circle transform="matrix(.92388 -.38268 -.38268 -.92388 0 0)" cx="-56.202" cy="-370.73" r="4"/>
        <circle transform="matrix(.92388 .38268 .38268 -.92388 0 0)" cx="204.02" cy="-309.5" r="4"/>
        <circle transform="matrix(.70711 .70711 .70711 -.70711 0 0)" cx="296.98" cy="-209.85" r="4"/>
        <circle transform="matrix(.70711 -.70711 -.70711 -.70711 0 0)" cx="-183.85" cy="-322.98" r="4"/>
        <circle transform="scale(1,-1)" cx="80" cy="-366" r="4"/>
        <circle transform="matrix(.38268 .92388 .92388 -.38268 0 0)" cx="344.73" cy="-82.202" r="4"/>
        <circle transform="matrix(.38268 -.92388 -.92388 -.38268 0 0)" cx="-283.5" cy="-230.02" r="4"/>
      </g>
      <g transform="translate(176,72)">
        <circle transform="rotate(-16.36)" cx="-19.007" cy="312.77" r="4"/>
        <circle transform="rotate(16.36)" cx="172.53" cy="267.7" r="4"/>
        <circle transform="rotate(-98.16)" cx="-347.91" cy="-5.0688" r="4"/>
        <circle transform="rotate(-32.72)" cx="-116.48" cy="293.29" r="4"/>
        <circle transform="rotate(32.72)" cx="251.09" cy="206.81" r="4"/>
        <circle transform="rotate(-65.44)" cx="-275.99" cy="178.08" r="4"/>
        <circle transform="rotate(65.44)" cx="342.49" cy="32.558" r="4"/>
        <circle transform="rotate(49.08)" cx="309.31" cy="126.25" r="4"/>
        <circle transform="rotate(81.8)" cx="347.93" cy="-66.688" r="4"/>
        <circle transform="rotate(-81.8)" cx="-325.11" cy="91.676" r="4"/>
        <circle transform="rotate(-49.08)" cx="-204.51" cy="247.15" r="4"/>
        <circle transform="rotate(229.12)" cx="-309.43" cy="-198.04" r="4"/>
        <circle transform="rotate(130.88)" cx="204.71" cy="-319.01" r="4"/>
        <circle transform="rotate(114.52)" cx="276.14" cy="-249.89" r="4"/>
        <circle transform="rotate(212.76)" cx="-251.26" cy="-278.63" r="4"/>
        <circle transform="rotate(147.24)" cx="116.71" cy="-365.21" r="4"/>
        <circle cx="80" cy="304" r="4"/>
        <circle transform="rotate(245.48)" cx="-342.54" cy="-104.32" r="4"/>
        <circle transform="rotate(98.16)" cx="325.2" cy="-163.45" r="4"/>
        <circle transform="rotate(196.4)" cx="-172.74" cy="-339.58" r="4"/>
        <circle cx="80" cy="376" r="4"/>
        <circle transform="rotate(163.6)" cx="19.251" cy="-384.75" r="4"/>
        <circle cx="80" cy="294" r="4"/>
        <circle transform="rotate(-12.86)" cx="2.3197" cy="303.28" r="4"/>
        <circle transform="rotate(-25.72)" cx="-75.477" cy="295.03" r="4"/>
        <circle transform="rotate(12.86)" cx="153.67" cy="267.67" r="4"/>
        <circle transform="rotate(38.58)" cx="274.57" cy="169.9" r="4"/>
        <circle transform="rotate(-51.44)" cx="-216" cy="228.49" r="4"/>
        <circle transform="rotate(51.44)" cx="315.73" cy="103.38" r="4"/>
        <circle transform="rotate(-38.58)" cx="-149.49" cy="269.68" r="4"/>
        <circle transform="rotate(25.72)" cx="219.63" cy="225.6" r="4"/>
        <circle transform="rotate(-64.3)" cx="-271.67" cy="173.53" r="4"/>
        <circle transform="rotate(64.3)" cx="341.06" cy="29.358" r="4"/>
        <circle transform="rotate(77.16)" cx="349.28" cy="-48.442" r="4"/>
        <circle cx="34" cy="340" r="4"/>
        <circle cx="126" cy="340" r="4"/>
        <circle transform="rotate(-77.16)" cx="-313.72" cy="107.56" r="4"/>
        <circle transform="scale(1,-1)" cx="80" cy="-386" r="4"/>
        <circle transform="matrix(.97492 .22257 .22257 -.97492 0 0)" cx="153.67" cy="-359.67" r="4"/>
        <circle transform="matrix(.90093 .43397 .43397 -.90093 0 0)" cx="219.63" cy="-317.6" r="4"/>
        <circle transform="matrix(.97492 -.22257 -.22257 -.97492 0 0)" cx="2.3197" cy="-395.28" r="4"/>
        <circle transform="matrix(.78174 -.62361 -.62361 -.78174 0 0)" cx="-149.49" cy="-361.68" r="4"/>
        <circle transform="matrix(.62333 .78196 .78196 -.62333 0 0)" cx="315.73" cy="-195.38" r="4"/>
        <circle transform="matrix(.62333 -.78196 -.78196 -.62333 0 0)" cx="-216" cy="-320.49" r="4"/>
        <circle transform="matrix(.78174 .62361 .62361 -.78174 0 0)" cx="274.57" cy="-261.9" r="4"/>
        <circle transform="matrix(.90093 -.43397 -.43397 -.90093 0 0)" cx="-75.477" cy="-387.03" r="4"/>
        <circle transform="matrix(.43366 .90108 .90108 -.43366 0 0)" cx="341.06" cy="-121.36" r="4"/>
        <circle transform="matrix(.43366 -.90108 -.90108 -.43366 0 0)" cx="-271.67" cy="-265.53" r="4"/>
        <circle transform="matrix(.22223 -.97499 -.97499 -.22223 0 0)" cx="-313.72" cy="-199.56" r="4"/>
        <circle transform="matrix(.22223 .97499 .97499 -.22223 0 0)" cx="349.28" cy="-43.558" r="4"/>
        <circle cx="80" cy="284" r="4"/>
        <circle transform="rotate(10)" cx="137.82" cy="264.94" r="4"/>
        <circle transform="rotate(-10)" cx="19.744" cy="292.73" r="4"/>
        <circle transform="rotate(20)" cx="191.46" cy="236.13" r="4"/>
        <circle transform="rotate(-20)" cx="-41.111" cy="290.86" r="4"/>
        <circle transform="rotate(-30)" cx="-100.72" cy="278.45" r="4"/>
        <circle transform="rotate(30)" cx="239.28" cy="198.45" r="4"/>
        <circle transform="rotate(40)" cx="279.83" cy="153.03" r="4"/>
        <circle transform="rotate(-50)" cx="-209.03" cy="223.83" r="4"/>
        <circle transform="rotate(50)" cx="311.88" cy="101.26" r="4"/>
        <circle transform="rotate(-60)" cx="-254.45" cy="183.28" r="4"/>
        <circle transform="rotate(70)" cx="346.86" cy="-14.889" r="4"/>
        <circle transform="rotate(-70)" cx="-292.13" cy="135.46" r="4"/>
        <circle transform="rotate(60)" cx="334.45" cy="44.718" r="4"/>
        <circle transform="rotate(-40)" cx="-157.26" cy="255.88" r="4"/>
        <circle transform="rotate(-80)" cx="-320.94" cy="81.825" r="4"/>
        <circle transform="rotate(-90)" cx="-340" cy="24" r="4"/>
        <circle transform="rotate(80)" cx="348.73" cy="-75.744" r="4"/>
        <circle transform="rotate(90)" cx="340" cy="-136" r="4"/>
        <circle transform="scale(1,-1)" cx="80" cy="-396" r="4"/>
        <circle transform="matrix(.98481 -.17365 -.17365 -.98481 0 0)" cx="19.744" cy="-404.73" r="4"/>
        <circle transform="matrix(.98481 .17365 .17365 -.98481 0 0)" cx="137.82" cy="-376.94" r="4"/>
        <circle transform="matrix(.93969 -.34202 -.34202 -.93969 0 0)" cx="-41.111" cy="-402.86" r="4"/>
        <circle transform="matrix(.93969 .34202 .34202 -.93969 0 0)" cx="191.46" cy="-348.13" r="4"/>
        <circle transform="matrix(.86603 .5 .5 -.86603 0 0)" cx="239.28" cy="-310.45" r="4"/>
        <circle transform="matrix(.86603 -.5 -.5 -.86603 0 0)" cx="-100.72" cy="-390.45" r="4"/>
        <circle transform="matrix(.76604 -.64279 -.64279 -.76604 0 0)" cx="-157.26" cy="-367.88" r="4"/>
        <circle transform="matrix(.64279 .76604 .76604 -.64279 0 0)" cx="311.88" cy="-213.26" r="4"/>
        <circle transform="matrix(.64279 -.76604 -.76604 -.64279 0 0)" cx="-209.03" cy="-335.83" r="4"/>
        <circle transform="matrix(.5 .86603 .86603 -.5 0 0)" cx="334.45" cy="-156.72" r="4"/>
        <circle transform="matrix(.34202 -.93969 -.93969 -.34202 0 0)" cx="-292.13" cy="-247.46" r="4"/>
        <circle transform="matrix(.34202 .93969 .93969 -.34202 0 0)" cx="346.86" cy="-97.111" r="4"/>
        <circle transform="matrix(.5 -.86603 -.86603 -.5 0 0)" cx="-254.45" cy="-295.28" r="4"/>
        <circle transform="matrix(.76604 .64279 .64279 -.76604 0 0)" cx="279.83" cy="-265.03" r="4"/>
        <circle transform="matrix(.17365 .98481 .98481 -.17365 0 0)" cx="348.73" cy="-36.256" r="4"/>
        <circle transform="matrix(.17365 -.98481 -.98481 -.17365 0 0)" cx="-320.94" cy="-193.82" r="4"/>
      </g>
    </g>
  </g>
</svg>
