<?xml version="1.0" encoding="UTF-8"?>
<svg width="512" height="512" version="1.1" viewBox="0 0 512 512" xmlns="http://www.w3.org/2000/svg">
  <circle cx="-244.75" cy="180.75" r="12.5" fill="none" stroke="#ff9217" stroke-linejoin="round" stroke-width=".1"/>
  <g stroke-width=".37287">
    <circle cx="294.74" cy="23.927" r="2.6819"/>
    <circle cx="313.11" cy="18.842" r="2.6819"/>
    <circle cx="332.19" cy="18.682" r="2.6819"/>
    <circle cx="350.66" cy="23.461" r="2.6819"/>
    <circle cx="367.25" cy="32.829" r="2.6819"/>
    <circle cx="256.01" cy="63.995" r="2.6819"/>
    <circle cx="256.01" cy="119.75" r="2.6819"/>
    <circle cx="278.31" cy="33.626" r="2.6819"/>
    <circle cx="390.53" cy="62.654" r="2.6819"/>
    <circle cx="264.92" cy="47.226" r="2.6819"/>
    <circle cx="380.85" cy="46.213" r="2.6819"/>
    <circle cx="395.81" cy="100.09" r="2.6819"/>
    <circle cx="395.62" cy="81.015" r="2.6819"/>
  </g>
  <g fill="none" stroke="#000" stroke-width="1px">
    <path d="m256.01 119.75 134.53-57.106"/>
    <path d="m256.01 100.66 139.63-19.624"/>
    <path d="m256.01 82.929 139.8 17.165"/>
    <path d="m256.01 63.995 135.77 56.245"/>
    <path d="m264.94 47.233 113.45 86.395"/>
    <path d="m278.3 33.609 87.555 112.55"/>
    <path d="m294.74 23.927 57.613 135.74"/>
    <path d="m313.11 18.831 25.467 154.58"/>
    <path d="m332.18 18.67-7.3685 168.51"/>
    <path d="m350.66 23.444-39.596 177.5"/>
    <path d="m367.26 32.831-69.96 181.87"/>
    <path d="m380.85 46.214-97.326 182.26"/>
    <path d="m390.53 62.654-120.77 179.59"/>
    <path d="m395.63 81.025-139.63 174.98"/>
  </g>
  <g stroke-width=".37287">
    <circle cx="256.01" cy="82.929" r="2.6819"/>
    <circle cx="256.01" cy="100.66" r="2.6819"/>
    <circle cx="338.57" cy="173.41" r="2.6819"/>
    <circle cx="324.81" cy="187.18" r="2.6819"/>
    <circle cx="311.06" cy="200.94" r="2.6819"/>
    <circle cx="269.77" cy="242.24" r="2.6819"/>
    <circle cx="283.53" cy="228.48" r="2.6819"/>
    <circle cx="297.3" cy="214.7" r="2.6819"/>
    <circle cx="447.49" cy="119.29" r="2.6819"/>
    <circle cx="464.08" cy="128.68" r="2.6819"/>
    <circle cx="477.69" cy="142.07" r="2.6819"/>
    <circle cx="487.36" cy="158.5" r="2.6819"/>
    <circle cx="492.47" cy="176.86" r="2.6819"/>
    <circle cx="391.78" cy="120.24" r="2.6819"/>
    <circle cx="352.35" cy="159.67" r="2.6819"/>
    <circle cx="429.01" cy="114.53" r="2.6819"/>
    <circle cx="487.85" cy="214.41" r="2.6819"/>
    <circle cx="409.93" cy="114.68" r="2.6819"/>
    <circle cx="492.63" cy="195.94" r="2.6819"/>
    <circle cx="465.1" cy="244.62" r="2.6819"/>
    <circle cx="478.46" cy="231" r="2.6819"/>
  </g>
  <g fill="none" stroke="#000" stroke-width="1px">
    <path d="m352.35 159.67 135.51 54.749"/>
    <path d="m365.85 146.16 112.61 84.858"/>
    <path d="m378.39 133.63 86.714 110.99"/>
    <path d="m391.78 120.24 56.23 135.77"/>
    <path d="m409.94 114.7 19.128 141.31"/>
    <path d="m429.02 114.51-17.677 141.5"/>
    <path d="m447.49 119.29-55.243 136.72"/>
    <path d="m464.09 128.68-91.295 127.31"/>
    <path d="m477.68 142.05-124.36 113.94"/>
    <path d="m487.37 158.49-153.51 97.511"/>
    <path d="m492.47 176.87-178.07 79.131"/>
    <path d="m492.63 195.94-197.7 60.059"/>
    <path d="m487.85 214.41-212.39 41.594"/>
    <path d="m478.46 231.01-222.46 24.993"/>
  </g>
  <g stroke-width=".37287">
    <circle cx="378.39" cy="133.63" r="2.6819"/>
    <circle cx="365.85" cy="146.16" r="2.6819"/>
    <circle cx="372.79" cy="255.99" r="2.6819"/>
    <circle cx="353.32" cy="255.99" r="2.6819"/>
    <circle cx="333.87" cy="256" r="2.6819"/>
    <circle cx="275.46" cy="256.01" r="2.6819"/>
    <circle cx="294.93" cy="256" r="2.6819"/>
    <circle cx="314.41" cy="256" r="2.6819"/>
    <circle cx="119.29" cy="64.508" r="2.6819"/>
    <circle cx="128.68" cy="47.923" r="2.6819"/>
    <circle cx="142.07" cy="34.314" r="2.6819"/>
    <circle cx="158.5" cy="24.639" r="2.6819"/>
    <circle cx="176.86" cy="19.526" r="2.6819"/>
    <circle cx="120.24" cy="120.22" r="2.6819"/>
    <circle cx="159.67" cy="159.65" r="2.6819"/>
    <circle cx="114.53" cy="82.986" r="2.6819"/>
    <circle cx="214.41" cy="24.153" r="2.6819"/>
    <circle cx="114.68" cy="102.07" r="2.6819"/>
    <circle cx="195.94" cy="19.372" r="2.6819"/>
    <circle cx="244.62" cy="46.899" r="2.6819"/>
    <circle cx="231" cy="33.537" r="2.6819"/>
  </g>
  <g fill="none" stroke="#000" stroke-width="1px">
    <path d="m159.67 159.65 54.749-135.51"/>
    <path d="m146.16 146.15 84.858-112.61"/>
    <path d="m133.63 133.61 110.99-86.714"/>
    <path d="m120.24 120.22 135.77-56.23"/>
    <path d="m114.7 102.06 141.31-19.128"/>
    <path d="m114.51 82.979 141.5 17.677"/>
    <path d="m119.29 64.508 136.72 55.243"/>
    <path d="m128.68 47.915 127.31 91.295"/>
    <path d="m142.05 34.318 113.94 124.36"/>
    <path d="m158.49 24.627 97.511 153.51"/>
    <path d="m176.87 19.526 79.131 178.07"/>
    <path d="m195.94 19.374 60.059 197.7"/>
    <path d="m214.41 24.153 41.594 212.39"/>
    <path d="m231.01 33.54 24.993 222.46"/>
  </g>
  <g stroke-width=".37287">
    <circle cx="133.63" cy="133.61" r="2.6819"/>
    <circle cx="146.16" cy="146.15" r="2.6819"/>
    <circle cx="255.99" cy="139.21" r="2.6819"/>
    <circle cx="255.99" cy="158.68" r="2.6819"/>
    <circle cx="256" cy="178.13" r="2.6819"/>
    <circle cx="256.01" cy="236.54" r="2.6819"/>
    <circle cx="256" cy="217.07" r="2.6819"/>
    <circle cx="256" cy="197.59" r="2.6819"/>
    <circle cx="64.508" cy="392.71" r="2.6819"/>
    <circle cx="47.923" cy="383.32" r="2.6819"/>
    <circle cx="34.314" cy="369.93" r="2.6819"/>
    <circle cx="24.639" cy="353.5" r="2.6819"/>
    <circle cx="19.526" cy="335.14" r="2.6819"/>
    <circle cx="120.22" cy="391.76" r="2.6819"/>
    <circle cx="159.65" cy="352.33" r="2.6819"/>
    <circle cx="82.986" cy="397.47" r="2.6819"/>
    <circle cx="24.153" cy="297.59" r="2.6819"/>
    <circle cx="102.07" cy="397.32" r="2.6819"/>
    <circle cx="19.372" cy="316.06" r="2.6819"/>
    <circle cx="46.899" cy="267.38" r="2.6819"/>
    <circle cx="33.537" cy="281" r="2.6819"/>
  </g>
  <g fill="none" stroke="#000" stroke-width="1px">
    <path d="m159.65 352.33-135.51-54.749"/>
    <path d="m146.15 365.84-112.61-84.858"/>
    <path d="m133.61 378.37-86.714-110.99"/>
    <path d="m120.22 391.76-56.23-135.77"/>
    <path d="m102.06 397.3-19.128-141.31"/>
    <path d="m82.979 397.49 17.677-141.5"/>
    <path d="m64.508 392.71 55.243-136.72"/>
    <path d="m47.915 383.32 91.295-127.31"/>
    <path d="m34.318 369.95 124.36-113.94"/>
    <path d="m24.627 353.51 153.51-97.511"/>
    <path d="m19.526 335.13 178.07-79.131"/>
    <path d="m19.374 316.06 197.7-60.059"/>
    <path d="m24.153 297.59 212.39-41.594"/>
    <path d="m33.54 280.99 222.46-24.993"/>
  </g>
  <g stroke-width=".37287">
    <circle cx="133.61" cy="378.37" r="2.6819"/>
    <circle cx="146.15" cy="365.84" r="2.6819"/>
    <circle cx="139.21" cy="256.01" r="2.6819"/>
    <circle cx="158.68" cy="256.01" r="2.6819"/>
    <circle cx="178.13" cy="256" r="2.6819"/>
    <circle cx="236.54" cy="255.99" r="2.6819"/>
    <circle cx="217.07" cy="256" r="2.6819"/>
    <circle cx="197.59" cy="256" r="2.6819"/>
    <circle cx="23.927" cy="217.26" r="2.6819"/>
    <circle cx="18.842" cy="198.89" r="2.6819"/>
    <circle cx="18.682" cy="179.81" r="2.6819"/>
    <circle cx="23.461" cy="161.34" r="2.6819"/>
    <circle cx="32.829" cy="144.75" r="2.6819"/>
    <circle cx="63.995" cy="255.99" r="2.6819"/>
    <circle cx="119.75" cy="255.99" r="2.6819"/>
    <circle cx="33.626" cy="233.7" r="2.6819"/>
    <circle cx="62.654" cy="121.47" r="2.6819"/>
    <circle cx="47.226" cy="247.08" r="2.6819"/>
    <circle cx="46.213" cy="131.15" r="2.6819"/>
    <circle cx="100.09" cy="116.19" r="2.6819"/>
    <circle cx="81.015" cy="116.38" r="2.6819"/>
  </g>
  <g fill="none" stroke="#000" stroke-width="1px">
    <path d="m119.75 255.99-57.106-134.53"/>
    <path d="m100.66 255.99-19.624-139.63"/>
    <path d="m82.929 255.99 17.165-139.8"/>
    <path d="m63.995 255.99 56.245-135.77"/>
    <path d="m47.233 247.06 86.395-113.45"/>
    <path d="m33.609 233.7 112.55-87.555"/>
    <path d="m23.927 217.26 135.74-57.613"/>
    <path d="m18.831 198.89 154.58-25.467"/>
    <path d="m18.671 179.82 168.51 7.3685"/>
    <path d="m23.444 161.34 177.5 39.596"/>
    <path d="m32.831 144.74 181.87 69.96"/>
    <path d="m46.214 131.15 182.26 97.326"/>
    <path d="m62.654 121.47 179.59 120.77"/>
    <path d="m81.025 116.37 174.98 139.63"/>
  </g>
  <g stroke-width=".37287">
    <circle cx="82.929" cy="255.99" r="2.6819"/>
    <circle cx="100.66" cy="255.99" r="2.6819"/>
    <circle cx="173.41" cy="173.43" r="2.6819"/>
    <circle cx="187.18" cy="187.19" r="2.6819"/>
    <circle cx="200.94" cy="200.94" r="2.6819"/>
    <circle cx="242.24" cy="242.23" r="2.6819"/>
    <circle cx="228.48" cy="228.47" r="2.6819"/>
    <circle cx="214.7" cy="214.7" r="2.6819"/>
    <circle cx="217.26" cy="488.07" r="2.6819"/>
    <circle cx="198.89" cy="493.16" r="2.6819"/>
    <circle cx="179.81" cy="493.32" r="2.6819"/>
    <circle cx="161.34" cy="488.54" r="2.6819"/>
    <circle cx="144.75" cy="479.17" r="2.6819"/>
    <circle cx="255.99" cy="448.01" r="2.6819"/>
    <circle cx="255.99" cy="392.25" r="2.6819"/>
    <circle cx="233.69" cy="478.37" r="2.6819"/>
    <circle cx="121.47" cy="449.35" r="2.6819"/>
    <circle cx="247.08" cy="464.77" r="2.6819"/>
    <circle cx="131.15" cy="465.79" r="2.6819"/>
    <circle cx="116.19" cy="411.91" r="2.6819"/>
    <circle cx="116.38" cy="430.99" r="2.6819"/>
  </g>
  <g fill="none" stroke="#000" stroke-width="1px">
    <path d="m255.99 392.25-134.53 57.106"/>
    <path d="m255.99 411.34-139.63 19.624"/>
    <path d="m255.99 429.07-139.8-17.165"/>
    <path d="m255.99 448.01-135.77-56.245"/>
    <path d="m247.06 464.77-113.45-86.395"/>
    <path d="m233.7 478.39-87.555-112.55"/>
    <path d="m217.26 488.07-57.613-135.74"/>
    <path d="m198.89 493.17-25.467-154.58"/>
    <path d="m179.82 493.33 7.3685-168.51"/>
    <path d="m161.34 488.56 39.596-177.5"/>
    <path d="m144.74 479.17 69.96-181.87"/>
    <path d="m131.15 465.79 97.326-182.26"/>
    <path d="m121.47 449.35 120.77-179.59"/>
    <path d="m116.37 430.98 139.63-174.98"/>
  </g>
  <g stroke-width=".37287">
    <circle cx="255.99" cy="429.07" r="2.6819"/>
    <circle cx="255.99" cy="411.34" r="2.6819"/>
    <circle cx="173.43" cy="338.59" r="2.6819"/>
    <circle cx="187.19" cy="324.82" r="2.6819"/>
    <circle cx="200.94" cy="311.06" r="2.6819"/>
    <circle cx="242.23" cy="269.76" r="2.6819"/>
    <circle cx="228.47" cy="283.52" r="2.6819"/>
    <circle cx="214.7" cy="297.3" r="2.6819"/>
    <circle cx="392.71" cy="447.49" r="2.6819"/>
    <circle cx="383.32" cy="464.08" r="2.6819"/>
    <circle cx="369.93" cy="477.69" r="2.6819"/>
    <circle cx="353.5" cy="487.36" r="2.6819"/>
    <circle cx="335.14" cy="492.47" r="2.6819"/>
    <circle cx="391.76" cy="391.78" r="2.6819"/>
    <circle cx="352.33" cy="352.35" r="2.6819"/>
    <circle cx="397.47" cy="429.01" r="2.6819"/>
    <circle cx="297.59" cy="487.85" r="2.6819"/>
    <circle cx="397.32" cy="409.93" r="2.6819"/>
    <circle cx="316.06" cy="492.63" r="2.6819"/>
    <circle cx="267.38" cy="465.1" r="2.6819"/>
    <circle cx="281" cy="478.46" r="2.6819"/>
  </g>
  <g fill="none" stroke="#000" stroke-width="1px">
    <path d="m352.33 352.35-54.749 135.51"/>
    <path d="m365.84 365.85-84.858 112.61"/>
    <path d="m378.37 378.39-110.99 86.714"/>
    <path d="m391.76 391.78-135.77 56.23"/>
    <path d="m397.3 409.94-141.31 19.128"/>
    <path d="m397.49 429.02-141.5-17.677"/>
    <path d="m392.71 447.49-136.72-55.243"/>
    <path d="m383.32 464.09-127.31-91.295"/>
    <path d="m369.95 477.68-113.94-124.36"/>
    <path d="m353.51 487.37-97.511-153.51"/>
    <path d="m335.13 492.47-79.131-178.07"/>
    <path d="m316.06 492.63-60.059-197.7"/>
    <path d="m297.59 487.85-41.594-212.39"/>
    <path d="m280.99 478.46-24.993-222.46"/>
  </g>
  <g stroke-width=".37287">
    <circle cx="378.37" cy="378.39" r="2.6819"/>
    <circle cx="365.84" cy="365.85" r="2.6819"/>
    <circle cx="256.01" cy="372.79" r="2.6819"/>
    <circle cx="256.01" cy="353.32" r="2.6819"/>
    <circle cx="256" cy="333.87" r="2.6819"/>
    <circle cx="255.99" cy="275.46" r="2.6819"/>
    <circle cx="256" cy="294.93" r="2.6819"/>
    <circle cx="256" cy="314.4" r="2.6819"/>
    <circle cx="488.07" cy="294.74" r="2.6819"/>
    <circle cx="493.16" cy="313.11" r="2.6819"/>
    <circle cx="493.32" cy="332.19" r="2.6819"/>
    <circle cx="488.54" cy="350.66" r="2.6819"/>
    <circle cx="479.17" cy="367.25" r="2.6819"/>
    <circle cx="448.01" cy="256.01" r="2.6819"/>
    <circle cx="392.25" cy="256.01" r="2.6819"/>
    <circle cx="478.37" cy="278.31" r="2.6819"/>
    <circle cx="449.35" cy="390.53" r="2.6819"/>
    <circle cx="464.77" cy="264.92" r="2.6819"/>
    <circle cx="465.79" cy="380.85" r="2.6819"/>
    <circle cx="411.91" cy="395.81" r="2.6819"/>
    <circle cx="430.99" cy="395.62" r="2.6819"/>
  </g>
  <g fill="none" stroke="#000" stroke-width="1px">
    <path d="m392.25 256.01 57.106 134.53"/>
    <path d="m411.34 256.01 19.624 139.63"/>
    <path d="m429.07 256.01-17.165 139.8"/>
    <path d="m448.01 256.01-56.245 135.77"/>
    <path d="m464.77 264.94-86.395 113.45"/>
    <path d="m478.39 278.3-112.55 87.555"/>
    <path d="m488.07 294.74-135.74 57.613"/>
    <path d="m493.17 313.11-154.58 25.467"/>
    <path d="m493.33 332.18-168.51-7.3685"/>
    <path d="m488.56 350.66-177.5-39.596"/>
    <path d="m479.17 367.26-181.87-69.96"/>
    <path d="m465.79 380.85-182.26-97.326"/>
    <path d="m449.35 390.53-179.59-120.77"/>
    <path d="m430.98 395.63-174.98-139.63"/>
  </g>
    <circle cx="429.07" cy="256.01" r="2.6819"/>
    <circle cx="411.34" cy="256.01" r="2.6819"/>
    <circle cx="338.59" cy="338.57" r="2.6819"/>
    <circle cx="324.82" cy="324.81" r="2.6819"/>
    <circle cx="311.06" cy="311.06" r="2.6819"/>
    <circle cx="269.76" cy="269.77" r="2.6819"/>
    <circle cx="283.52" cy="283.53" r="2.6819"/>
    <circle cx="297.3" cy="297.3" r="2.6819"/>
</svg>
