<?xml version="1.0" encoding="UTF-8"?>
<svg version="1.1" viewBox="0 0 512 512" xmlns="http://www.w3.org/2000/svg" xmlns:xlink="http://www.w3.org/1999/xlink">
  <circle cx="256" cy="256" r="2"/>
  <g id="petal">
    <circle cx="338.12" cy="173.88" r="2"/>
    <circle cx="324.44" cy="187.56" r="2"/>
    <circle cx="310.76" cy="201.24" r="2"/>
    <circle cx="297.07" cy="214.93" r="2"/>
    <circle cx="283.39" cy="228.61" r="2"/>
    <circle cx="269.71" cy="242.29" r="2"/>
    <circle cx="397.72" cy="81.172" r="2"/>
    <circle cx="397.76" cy="100.47" r="2"/>
    <circle cx="392.80" cy="119.11" r="2"/>
    <circle cx="379.17" cy="132.83" r="2"/>
    <circle cx="365.48" cy="146.51" r="2"/>
    <circle cx="351.80" cy="160.20" r="2"/>
    <circle cx="265.72" cy="45.813" r="2"/>
    <circle cx="279.38" cy="32.187" r="2"/>
    <circle cx="296.10" cy="22.553" r="2"/>
    <circle cx="314.74" cy="17.571" r="2"/>
    <circle cx="334.03" cy="17.574" r="2"/>
    <circle cx="352.67" cy="22.568" r="2"/>
    <circle cx="369.39" cy="32.207" r="2"/>
    <circle cx="383.04" cy="45.842" r="2"/>
    <circle cx="392.70" cy="62.541" r="2"/>
  </g>
  <use xlink:href="#petal" transform="rotate(45 256 256)"/>
  <use xlink:href="#petal" transform="rotate(90 256 256)"/>
  <use xlink:href="#petal" transform="rotate(135 256 256)"/>
  <use xlink:href="#petal" transform="rotate(180 256 256)"/>
  <use xlink:href="#petal" transform="rotate(225 256 256)"/>
  <use xlink:href="#petal" transform="rotate(270 256 256)"/>
  <use xlink:href="#petal" transform="rotate(315 256 256)"/>
</svg>
