<?xml version="1.0" encoding="UTF-8"?>
<svg version="1.1" viewBox="0 0 512 512" xmlns="http://www.w3.org/2000/svg" xmlns:xlink="http://www.w3.org/1999/xlink">
  <circle cx="256" cy="256" r="2"/>
  <g id="petal">
    <circle cx="338.12" cy="173.88" r="2"/>
    <circle cx="324.44" cy="187.56" r="2"/>
    <circle cx="310.76" cy="201.24" r="2"/>
    <circle cx="297.07" cy="214.93" r="2"/>
    <circle cx="283.39" cy="228.61" r="2"/>
    <circle cx="269.71" cy="242.29" r="2"/>
    <circle cx="397.72" cy="81.172" r="2"/>
    <circle cx="397.76" cy="100.47" r="2"/>
    <circle cx="392.80" cy="119.11" r="2"/>
    <circle cx="379.17" cy="132.83" r="2"/>
    <circle cx="365.48" cy="146.51" r="2"/>
    <circle cx="351.80" cy="160.20" r="2"/>
    <circle cx="265.72" cy="45.813" r="2"/>
    <circle cx="279.38" cy="32.187" r="2"/>
    <circle cx="296.10" cy="22.553" r="2"/>
    <circle cx="314.74" cy="17.571" r="2"/>
    <circle cx="334.03" cy="17.574" r="2"/>
    <circle cx="352.67" cy="22.568" r="2"/>
    <circle cx="369.39" cy="32.207" r="2"/>
    <circle cx="383.04" cy="45.842" r="2"/>
    <circle cx="392.70" cy="62.541" r="2"/>
    <g fill="none" stroke="#000" stroke-width="1px">
      <path d="m255.94 62.472 136.86 56.638"/>
      <path d="m256 81.811 141.76 18.659"/>
      <path d="m255.99 101.16 141.73-19.993"/>
      <path d="m256 120.52 136.7-57.977"/>
      <path d="m265.72 45.813 113.45 87.017"/>
      <path d="m279.38 32.187 86.1 114.32"/>
      <path d="m296.1 22.553 55.7 137.65"/>
      <path d="m314.74 17.571 23.38 156.31"/>
      <path d="m334.03 17.574-9.59 169.99"/>
      <path d="m352.67 22.568-41.91 178.67"/>
      <path d="m369.39 32.207-72.32 182.72"/>
      <path d="m383.04 45.842-99.65 182.77"/>
      <path d="m392.7 62.541-122.99 179.75"/>
      <path d="M 397.72,81.171997 256,256"/>
    </g>
  </g>
  <use xlink:href="#petal" transform="rotate(45 256 256)"/>
  <use xlink:href="#petal" transform="rotate(90 256 256)"/>
  <use xlink:href="#petal" transform="rotate(135 256 256)"/>
  <use xlink:href="#petal" transform="rotate(180 256 256)"/>
  <use xlink:href="#petal" transform="rotate(225 256 256)"/>
  <use xlink:href="#petal" transform="rotate(270 256 256)"/>
  <use xlink:href="#petal" transform="rotate(315 256 256)"/>
</svg>
