<svg version="1.1" viewBox="0 0 512 512" xmlns="http://www.w3.org/2000/svg" xmlns:xlink="http://www.w3.org/1999/xlink">
  <defs>
    <g id="petal">
      <circle cx="256" cy="256" r="2"/>
      <circle cx="256" cy="63.995" r="2"/>
      <circle cx="256" cy="119.75" r="2"/>
      <circle cx="256" cy="82.929" r="2"/>
      <circle cx="256" cy="100.66" r="2"/>
      <circle cx="294.74" cy="23.927" r="2"/>
      <circle cx="313.11" cy="18.842" r="2"/>
      <circle cx="332.19" cy="18.682" r="2"/>
      <circle cx="350.66" cy="23.461" r="2"/>
      <circle cx="367.25" cy="32.829" r="2"/>
      <circle cx="278.31" cy="33.626" r="2"/>
      <circle cx="390.53" cy="62.654" r="2"/>
      <circle cx="264.92" cy="47.226" r="2"/>
      <circle cx="380.85" cy="46.213" r="2"/>
      <circle cx="395.81" cy="100.09" r="2"/>
      <circle cx="395.62" cy="81.015" r="2"/>
      <circle cx="338.57" cy="173.41" r="2"/>
      <circle cx="324.81" cy="187.18" r="2"/>
      <circle cx="311.06" cy="200.94" r="2"/>
      <circle cx="269.77" cy="242.24" r="2"/>
      <circle cx="283.53" cy="228.48" r="2"/>
      <circle cx="297.30" cy="214.70" r="2"/>
      <circle cx="391.78" cy="120.24" r="2"/>
      <circle cx="352.35" cy="159.67" r="2"/>
      <circle cx="378.39" cy="133.63" r="2"/>
      <circle cx="365.85" cy="146.16" r="2"/>
    </g>
  </defs>
  <use xlink:href="#petal"/>
  <use xlink:href="#petal" transform="rotate(45 256 256)"/>
  <use xlink:href="#petal" transform="rotate(90 256 256)"/>
  <use xlink:href="#petal" transform="rotate(135 256 256)"/>
  <use xlink:href="#petal" transform="rotate(180 256 256)"/>
  <use xlink:href="#petal" transform="rotate(225 256 256)"/>
  <use xlink:href="#petal" transform="rotate(270 256 256)"/>
  <use xlink:href="#petal" transform="rotate(315 256 256)"/>
</svg>
