<svg version="1.1" viewBox="0 0 512 512" xmlns="http://www.w3.org/2000/svg" xmlns:xlink="http://www.w3.org/1999/xlink">
  <g id="petal">
    <circle cx="256" cy="256" r="2"/>
    <circle cx="294.74" cy="23.927" r="2"/>
    <circle cx="313.11" cy="18.842" r="2"/>
    <circle cx="332.19" cy="18.682" r="2"/>
    <circle cx="350.66" cy="23.461" r="2"/>
    <circle cx="367.25" cy="32.829" r="2"/>
    <circle cx="278.31" cy="33.626" r="2"/>
    <circle cx="390.53" cy="62.654" r="2"/>
    <circle cx="264.92" cy="47.226" r="2"/>
    <circle cx="380.85" cy="46.213" r="2"/>
    <circle cx="395.81" cy="100.09" r="2"/>
    <circle cx="395.62" cy="81.015" r="2"/>
    <circle cx="338.57" cy="173.41" r="2"/>
    <circle cx="324.81" cy="187.18" r="2"/>
    <circle cx="311.06" cy="200.94" r="2"/>
    <circle cx="269.77" cy="242.24" r="2"/>
    <circle cx="283.53" cy="228.48" r="2"/>
    <circle cx="297.30" cy="214.70" r="2"/>
    <circle cx="391.78" cy="120.24" r="2"/>
    <circle cx="352.35" cy="159.67" r="2"/>
    <circle cx="378.39" cy="133.63" r="2"/>
    <circle cx="365.85" cy="146.16" r="2"/>
    <g fill="none" stroke="#000" stroke-width="1px">
      <path d="m256.01 63.992 135.77 56.248"/>
      <path d="m256.01 82.929 139.8 17.161"/>
      <path d="m256.01 100.66 139.61-19.641"/>
      <path d="m256.01 119.75 134.52-57.101"/>
      <path d="m255.99 139.21 124.86-93.001"/>
      <path d="m255.99 158.68 111.26-125.85"/>
      <path d="m256 178.13 94.66-154.67"/>
      <path d="m256 197.59 76.19-178.91"/>
      <path d="m256.01 217.07 57.103-198.23"/>
      <path d="m256.01 236.53 38.733-212.61"/>
      <path d="m256 256 22.31-222.37"/>
      <path d="m378.39 133.63-113.47-86.404"/>
      <path d="m365.85 146.16-87.54-112.53"/>
      <path d="m352.35 159.67-57.61-135.74"/>
      <path d="m338.57 173.41-25.46-154.57"/>
      <path d="m324.81 187.18 7.38-168.5"/>
      <path d="m311.06 200.94 39.6-177.48"/>
      <path d="m297.3 214.7 69.95-181.87"/>
      <path d="m283.53 228.48 97.32-182.27"/>
      <path d="m269.77 242.24 120.76-179.59"/>
      <path d="m256 256 139.62-174.99"/>
    </g>
  </g>
  <use xlink:href="#petal" transform="rotate(45 256 256)"/>
  <use xlink:href="#petal" transform="rotate(90 256 256)"/>
  <use xlink:href="#petal" transform="rotate(135 256 256)"/>
  <use xlink:href="#petal" transform="rotate(180 256 256)"/>
  <use xlink:href="#petal" transform="rotate(225 256 256)"/>
  <use xlink:href="#petal" transform="rotate(270 256 256)"/>
  <use xlink:href="#petal" transform="rotate(315 256 256)"/>
</svg>
