<?xml version="1.0" encoding="UTF-8" standalone="no"?>
<svg
   xmlns:dc="http://purl.org/dc/elements/1.1/"
   xmlns:cc="http://creativecommons.org/ns#"
   xmlns:rdf="http://www.w3.org/1999/02/22-rdf-syntax-ns#"
   xmlns:svg="http://www.w3.org/2000/svg"
   xmlns="http://www.w3.org/2000/svg"
   xmlns:sodipodi="http://sodipodi.sourceforge.net/DTD/sodipodi-0.dtd"
   xmlns:inkscape="http://www.inkscape.org/namespaces/inkscape"
   width="512"
   height="512"
   viewBox="0 0 511.99998 512"
   version="1.1"
   id="svg8"
   inkscape:version="1.0.1 (3bc2e813f5, 2020-09-07)"
   sodipodi:docname="2-vectorized.svg">
  <defs
     id="defs2" />
  <sodipodi:namedview
     id="base"
     pagecolor="#ffffff"
     bordercolor="#666666"
     borderopacity="1.0"
     inkscape:pageopacity="0.0"
     inkscape:pageshadow="2"
     inkscape:zoom="1.979899"
     inkscape:cx="194.32213"
     inkscape:cy="236.48998"
     inkscape:document-units="px"
     inkscape:current-layer="layer1"
     inkscape:document-rotation="0"
     showgrid="false"
     inkscape:snap-page="false"
     inkscape:object-paths="false"
     units="px"
     inkscape:showpageshadow="false"
     objecttolerance="20"
     width="24mm"
     inkscape:window-width="1920"
     inkscape:window-height="1017"
     inkscape:window-x="-8"
     inkscape:window-y="-8"
     inkscape:window-maximized="1">
    <inkscape:grid
       type="xygrid"
       id="grid10"
       empspacing="4"
       originx="0"
       originy="0"
       dotted="false" />
  </sodipodi:namedview>
  <metadata
     id="metadata5">
    <rdf:RDF>
      <cc:Work
         rdf:about="">
        <dc:format>image/svg+xml</dc:format>
        <dc:type
           rdf:resource="http://purl.org/dc/dcmitype/StillImage" />
        <dc:title />
      </cc:Work>
    </rdf:RDF>
  </metadata>
  <g
     inkscape:label="Layer 1"
     inkscape:groupmode="layer"
     id="layer1"
     style="display:inline">
    <g
       clip-path="none"
       id="g5800"
       transform="matrix(0.08683827,0,0,-0.08683827,-356.88377,547.7768)">
      <g
         transform="matrix(3471.2,0,0,2986.2,-5.1,-6.09995)"
         id="g5806" />
    </g>
    <path
       d="m 241.11661,384.7487 c -33.04456,0 -67.87418,-18.40566 -95.55014,-50.50256 -6.38635,-7.40565 -12.14173,-15.22961 -17.19024,-23.29098 -1.71402,-2.7598 -3.35517,-5.55765 -4.91722,-8.38328 -4.59088,-8.30616 -8.50164,-16.86408 -11.5946,-25.44456 -5.11701,-14.36392 -7.86259,-28.71482 -7.86259,-42.16259 0,-41.55906 24.08167,-71.83175 71.57952,-89.97921 41.55402,-15.88011 90.72619,-18.24906 116.34,-18.24906 39.04423,0 68.21233,6.50766 86.69845,19.35277 16.84229,11.70059 25.38196,29.08735 25.38196,51.67225 0,18.40537 -5.86245,49.25206 -33.80093,91.69861 -18.83868,28.62363 -43.96881,56.0323 -67.22844,73.32866 -20.11435,14.77578 -40.35027,21.95995 -61.85577,21.95995"
       id="path5802"
       inkscape:connector-curvature="0"
       style="stroke-width:1" />
    <path
       d="m 185.15489,313.57108 c -24.38433,2.6269 -43.39444,-13.5355 -20.86025,-25.9611 5.17204,0.3972 9.18998,0.9531 17.54818,1.2744 16.35315,0.6506 21.51581,4.3757 22.80091,8.8931 1.94605,6.795 -3.78518,14.1199 -19.48884,15.7932 M 153.70314,229.5199 c 0,-10.88428 6.69941,-18.28985 17.84556,-18.28985 12.73408,0 19.58509,9.48798 19.58509,21.42047 0,10.89374 -5.90372,18.64676 -17.3215,18.64676 -13.00639,0 -20.10915,-9.56266 -20.10915,-21.77738 m 52.64961,50.61808 c -7.62181,-3.4935 -18.97467,-3.7505 -37.52622,-5.2077 -8.63057,-0.6799 -10.34971,-3.2009 -10.34971,-6.6388 0,-2.0771 1.04861,-4.4113 3.30697,-6.24099 1.50239,-1.23443 3.45321,-2.18839 5.62617,-2.60085 2.23816,0.26117 4.16394,0.3481 5.93362,0.3481 20.69382,0 32.38395,-12.46655 32.38395,-27.3281 0,-6.37735 -2.39929,-13.00135 -6.63879,-17.79046 4.51211,0 12.99097,0.5292 15.64741,1.07444 v -10.63245 c -4.76392,1.33175 -10.60646,1.59344 -15.64741,1.59344 -4.24469,0 -8.21716,-0.80651 -11.95288,-1.85487 -4.50131,-1.32643 -9.78968,-2.38462 -14.29166,-2.38462 -20.80488,0 -33.64478,12.74876 -33.64478,29.24371 0,11.36795 7.33514,21.44039 17.95684,25.42284 -7.97009,3.73051 -12.22005,9.02331 -12.22005,15.13321 0,5.9736 4.21947,12.1748 12.4619,14.3978 -11.9579,5.2129 -23.10368,14.6298 -14.79603,25.5887 12.20486,16.1068 55.28129,14.3924 68.69097,-2.3636 10.50129,-13.1327 3.36752,-25.9422 -4.9403,-29.7588 m 49.94849,-39.17969 c -10.59688,-5.30835 -20.69434,-10.10801 -20.69434,-18.57725 0,-7.17282 7.68778,-10.36947 15.66818,-10.36947 8.22705,0 15.90965,2.92388 22.2966,7.97537 v -11.94747 c -6.63878,-3.71584 -14.33699,-5.56535 -22.03956,-5.56535 -14.32221,0 -30.24756,7.15801 -30.24756,23.61728 0,13.55112 11.93768,19.37885 23.08434,24.68644 10.08707,4.7639 19.38312,9.01901 19.38312,17.78104 0,8.7306 -9.29605,10.596 -16.73201,10.596 -6.89155,0 -17.77064,-2.9135 -26.5265,-7.6774 v 12.199 c 8.49458,3.464 16.7164,5.3137 26.00727,5.3137 14.8718,0 32.64162,-6.1152 32.64162,-23.8996 0,-12.19995 -11.67545,-18.54691 -22.84116,-24.13244 m 108.63206,42.97114 c -4.51212,0 -10.71753,-1.1691 -20.53282,-11.7919 -12.74872,-14.06422 -27.51469,-31.98587 -27.51469,-31.98587 l 22.5744,-21.23293 c 13.2585,-12.46734 16.97866,-13.25412 18.04244,-13.53113 h -20.96629 c -4.24977,5.5759 -9.02849,9.82061 -9.02849,9.82061 l -24.14722,22.56919 v -71.13619 l -18.32462,4.76923 c 2.3994,3.19556 3.19567,8.50405 3.19567,20.44177 v 73.52492 c 0,14.8468 -0.79586,16.4447 -2.38969,20.6945 h 19.64013 c -1.32506,-3.4535 -2.12149,-5.8477 -2.12149,-20.6945 v -21.24835 c 0,0 10.88871,13.01189 24.41904,29.20895 8.48406,10.0515 15.40063,14.5845 23.61823,14.5845 6.36696,0 12.21456,-1.5883 16.18144,-4.533 -0.79052,0.288 -1.84966,0.5399 -2.64604,0.5399"
       style="fill:#ffffff;fill-opacity:1;fill-rule:nonzero;stroke:none;stroke-width:0.0868384"
       id="path5810"
       inkscape:connector-curvature="0" />
  </g>
</svg>
