<?xml version="1.0" encoding="UTF-8" standalone="no"?>
<svg
   xmlns:dc="http://purl.org/dc/elements/1.1/"
   xmlns:cc="http://creativecommons.org/ns#"
   xmlns:rdf="http://www.w3.org/1999/02/22-rdf-syntax-ns#"
   xmlns:svg="http://www.w3.org/2000/svg"
   xmlns="http://www.w3.org/2000/svg"
   xmlns:xlink="http://www.w3.org/1999/xlink"
   xmlns:sodipodi="http://sodipodi.sourceforge.net/DTD/sodipodi-0.dtd"
   xmlns:inkscape="http://www.inkscape.org/namespaces/inkscape"
   version="1.2"
   viewBox="0 0 512 512"
   id="svg6"
   sodipodi:docname="3-optimized.svg"
   inkscape:version="1.0.1 (3bc2e813f5, 2020-09-07)">
  <metadata
     id="metadata12">
    <rdf:RDF>
      <cc:Work
         rdf:about="">
        <dc:format>image/svg+xml</dc:format>
        <dc:type
           rdf:resource="http://purl.org/dc/dcmitype/StillImage" />
      </cc:Work>
    </rdf:RDF>
  </metadata>
  <defs
     id="defs10">
    <linearGradient
       inkscape:collect="always"
       id="linearGradient26">
      <stop
         style="stop-color:#ff0202;stop-opacity:1"
         offset="0"
         id="stop22" />
      <stop
         style="stop-color:#f76d00;stop-opacity:1;"
         offset="0.47543946"
         id="stop853" />
      <stop
         style="stop-color:#f2a800;stop-opacity:1;"
         offset="0.85298258"
         id="stop855" />
      <stop
         style="stop-color:#f1d800;stop-opacity:1"
         offset="1"
         id="stop24" />
    </linearGradient>
    <linearGradient
       inkscape:collect="always"
       xlink:href="#linearGradient26"
       id="linearGradient28"
       x1="169.153"
       y1="346.82037"
       x2="342.84702"
       y2="134.52773"
       gradientUnits="userSpaceOnUse" />
  </defs>
  <sodipodi:namedview
     pagecolor="#ffffff"
     bordercolor="#666666"
     borderopacity="1"
     objecttolerance="10"
     gridtolerance="10"
     guidetolerance="10"
     inkscape:pageopacity="0"
     inkscape:pageshadow="2"
     inkscape:window-width="1920"
     inkscape:window-height="1017"
     id="namedview8"
     showgrid="false"
     inkscape:zoom="1.7617188"
     inkscape:cx="146.73171"
     inkscape:cy="256"
     inkscape:window-x="-8"
     inkscape:window-y="-8"
     inkscape:window-maximized="1"
     inkscape:current-layer="svg6" />
  <path
     d="m241.12 384.75c-33.045 0-67.874-18.406-95.55-50.503-6.3864-7.4056-12.142-15.23-17.19-23.291-1.714-2.7598-3.3552-5.5576-4.9172-8.3833-4.5909-8.3062-8.5016-16.864-11.595-25.445-5.117-14.364-7.8626-28.715-7.8626-42.163 0-41.559 24.082-71.832 71.58-89.979 41.554-15.88 90.726-18.249 116.34-18.249 39.044 0 68.212 6.5077 86.698 19.353 16.842 11.701 25.382 29.087 25.382 51.672 0 18.405-5.8624 49.252-33.801 91.699-18.839 28.624-43.969 56.032-67.228 73.329-20.114 14.776-40.35 21.96-61.856 21.96"
     fill="#000"
     id="path2"
     style="fill-opacity:1;fill:url(#linearGradient28)" />
  <path
     d="m185.15 313.57c-24.384 2.6269-43.394-13.536-20.86-25.961 5.172 0.3972 9.19 0.9531 17.548 1.2744 16.353 0.6506 21.516 4.3757 22.801 8.8931 1.946 6.795-3.7852 14.12-19.489 15.793m-31.452-84.051c0-10.884 6.6994-18.29 17.846-18.29 12.734 0 19.585 9.488 19.585 21.42 0 10.894-5.9037 18.647-17.322 18.647-13.006 0-20.109-9.5627-20.109-21.777m52.65 50.618c-7.6218-3.4935-18.975-3.7505-37.526-5.2077-8.6306-0.6799-10.35-3.2009-10.35-6.6388 0-2.0771 1.0486-4.4113 3.307-6.241 1.5024-1.2344 3.4532-2.1884 5.6262-2.6008 2.2382 0.26117 4.1639 0.3481 5.9336 0.3481 20.694 0 32.384-12.467 32.384-27.328 0-6.3774-2.3993-13.001-6.6388-17.79 4.5121 0 12.991 0.5292 15.647 1.0744v-10.632c-4.7639 1.3318-10.606 1.5934-15.647 1.5934-4.2447 0-8.2172-0.80651-11.953-1.8549-4.5013-1.3264-9.7897-2.3846-14.292-2.3846-20.805 0-33.645 12.749-33.645 29.244 0 11.368 7.3351 21.44 17.957 25.423-7.9701 3.7305-12.22 9.0233-12.22 15.133 0 5.9736 4.2195 12.175 12.462 14.398-11.958 5.2129-23.104 14.63-14.796 25.589 12.205 16.107 55.281 14.392 68.691-2.3636 10.501-13.133 3.3675-25.942-4.9403-29.759m49.948-39.18c-10.597-5.3084-20.694-10.108-20.694-18.577 0-7.1728 7.6878-10.369 15.668-10.369 8.227 0 15.91 2.9239 22.297 7.9754v-11.947c-6.6388-3.7158-14.337-5.5654-22.04-5.5654-14.322 0-30.248 7.158-30.248 23.617 0 13.551 11.938 19.379 23.084 24.686 10.087 4.7639 19.383 9.019 19.383 17.781 0 8.7306-9.296 10.596-16.732 10.596-6.8916 0-17.771-2.9135-26.526-7.6774v12.199c8.4946 3.464 16.716 5.3137 26.007 5.3137 14.872 0 32.642-6.1152 32.642-23.9 0-12.2-11.675-18.547-22.841-24.132m108.63 42.971c-4.5121 0-10.718-1.1691-20.533-11.792-12.749-14.064-27.515-31.986-27.515-31.986l22.574-21.233c13.258-12.467 16.979-13.254 18.042-13.531h-20.966c-4.2498 5.5759-9.0285 9.8206-9.0285 9.8206l-24.147 22.569v-71.136l-18.325 4.7692c2.3994 3.1956 3.1957 8.504 3.1957 20.442v73.525c0 14.847-0.79586 16.445-2.3897 20.694h19.64c-1.3251-3.4535-2.1215-5.8477-2.1215-20.694v-21.248s10.889 13.012 24.419 29.209c8.4841 10.052 15.401 14.584 23.618 14.584 6.367 0 12.215-1.5883 16.181-4.533-0.79052 0.288-1.8497 0.5399-2.646 0.5399"
     fill="#fff"
     id="path4" />
</svg>
