<?xml version="1.0" encoding="UTF-8" standalone="no"?>
<svg
   xmlns:dc="http://purl.org/dc/elements/1.1/"
   xmlns:cc="http://creativecommons.org/ns#"
   xmlns:rdf="http://www.w3.org/1999/02/22-rdf-syntax-ns#"
   xmlns:svg="http://www.w3.org/2000/svg"
   xmlns="http://www.w3.org/2000/svg"
   xmlns:xlink="http://www.w3.org/1999/xlink"
   xmlns:sodipodi="http://sodipodi.sourceforge.net/DTD/sodipodi-0.dtd"
   xmlns:inkscape="http://www.inkscape.org/namespaces/inkscape"
   width="512"
   height="512"
   version="1.1"
   viewBox="0 0 512 512"
   id="svg73"
   sodipodi:docname="3-optimized.svg"
   inkscape:version="1.0.1 (3bc2e813f5, 2020-09-07)">
  <metadata
     id="metadata79">
    <rdf:RDF>
      <cc:Work
         rdf:about="">
        <dc:format>image/svg+xml</dc:format>
        <dc:type
           rdf:resource="http://purl.org/dc/dcmitype/StillImage" />
        <dc:title></dc:title>
      </cc:Work>
    </rdf:RDF>
  </metadata>
  <defs
     id="defs77" />
  <sodipodi:namedview
     pagecolor="#ffffff"
     bordercolor="#666666"
     borderopacity="1"
     objecttolerance="10"
     gridtolerance="10"
     guidetolerance="10"
     inkscape:pageopacity="0"
     inkscape:pageshadow="2"
     inkscape:window-width="1920"
     inkscape:window-height="1017"
     id="namedview75"
     showgrid="false"
     inkscape:zoom="1.2457233"
     inkscape:cx="194.60877"
     inkscape:cy="266.47181"
     inkscape:window-x="-8"
     inkscape:window-y="-8"
     inkscape:window-maximized="1"
     inkscape:current-layer="svg73" />
  <g
     id="g5"
     transform="translate(-0.08,-5.4483)">
    <path
       id="B"
       d="M 375.5,57.572 V 31 H 331.683 L 311.766,50.186 H 132.516 L 136.5,36.908 111.272,50.85 H 87.371 c -1.9093,0 -6.2869,0.5671 -6.2869,3.0889 0,1.6134 -0.0393,2.3184 0,3.6331" />
    <use
       xlink:href="#B"
       transform="matrix(1,0,0,-1,0,115.144)"
       id="use3"
       x="0"
       y="0"
       width="100%"
       height="100%" />
  </g>
  <g
     id="g10"
     transform="translate(-0.08,-4.9161167)">
    <path
       id="D"
       d="M 375.5,125.417 V 99.434 H 331.019 L 312.43,119.949 H 128.8 l 6.3734,-14.606 -25.651,14.39 c -9.285,0 -15.869,0.0922 -24.906,0.53353 -7.0881,0.34619 -13.033,0.0773 -13.033,5.15047"
       sodipodi:nodetypes="ccccccccc" />
    <use
       xlink:href="#D"
       transform="matrix(1,0,0,-1,0,250.834)"
       id="use8"
       x="0"
       y="0"
       width="100%"
       height="100%" />
  </g>
  <g
     id="g15"
     transform="translate(-0.08,-5.537924)">
    <path
       id="E"
       d="M 375.5,193 V 167.844 H 333.011 L 312.43,186.035 H 141.47 l 1.6651,-14.606 -31.867,15.934 h -47.569 c -13.568,0 -16.165,0 -20.813,4.3679 V 193"
       sodipodi:nodetypes="cccccccscc" />
    <use
       xlink:href="#E"
       transform="matrix(1,0,0,-1,0,386)"
       id="use13"
       x="0"
       y="0"
       width="100%"
       height="100%" />
  </g>
  <g
     id="g20"
     transform="translate(-0.08,-7.8237382)">
    <path
       id="H"
       d="m 374.83,262.164 v -25.9 h -43.153 l -19.253,19.917 h -182.14 l 1.1452,-15.501 -33.444,15.766 c -13.123,0.0876 -15.947,1.7049 -29.97,1.7049 -0.32775,0 -1.1989,0.34616 -1.58,0.79155 -0.75952,0.88774 -0.6701,0.99427 -0.6701,3.22155"
       sodipodi:nodetypes="cccccccscc" />
    <use
       xlink:href="#H"
       transform="matrix(1,0,0,-1,0,524.328)"
       id="use18"
       x="0"
       y="0"
       width="100%"
       height="100%" />
  </g>
  <g
     id="g25"
     transform="translate(-0.08,-8.611561)">
    <path
       id="PN"
       d="m 375.5,330.491 v -25.817 h -43.734 l -18.34,20.183 -156.52,8.2e-4 4.4037,-19.909 -12.983,-5.8e-4 -1.4545,8.2008 -30.624,12.372 -51.552,8.2e-4 c -2.2807,0 -4.9206,1.24764 -4.9206,4.96914"
       sodipodi:nodetypes="ccccccccccc" />
    <use
       xlink:href="#PN"
       transform="matrix(1,0,0,-1,0,660.982)"
       id="use23"
       x="0"
       y="0"
       width="100%"
       height="100%" />
  </g>
  <g
     id="g30"
     transform="translate(-0.08,-9.5662143)">
    <path
       id="LM"
       d="m 375.99,403.511 v -26.287 h -42.821 l -19.751,20.183 -186.22,8.3e-4 v -24.323 l -7.9257,11.983 -18.178,12.074 c 0,0 -10.438,-0.43071 -16.717,0.92904 -10.289,2.2282 -19.979,1.4679 -19.979,1.4679 -1.4005,0 -3.7096,1.48303 -3.7096,3.97223"
       sodipodi:nodetypes="ccccccccscc" />
    <use
       xlink:href="#LM"
       transform="matrix(1,0,0,-1,0,807.022)"
       id="use28"
       x="0"
       y="0"
       width="100%"
       height="100%" />
  </g>
  <g
     id="g35"
     transform="translate(0,-5.4482848)">
    <path
       id="X"
       d="m 375.91,468.769 v -7.6306 h -7.7178 v -14.515 h -8.6307 l -15.402,15.909 h -244.11 v -16.891 l -21.423,15.297 -17.088,8.8e-4 c 0.008,0.0739 -5.2112,2.084 -9.2163,3.575 -0.78892,0.29372 -4.0617,2.49702 -4.5898,4.25472"
       sodipodi:nodetypes="ccccccccccsc" />
    <use
       xlink:href="#X"
       transform="matrix(1,0,0,-1,0,937.538)"
       id="use33"
       x="0"
       y="0"
       width="100%"
       height="100%" />
  </g>
  <text
     font-size="37.178px"
     x="410.53397"
     y="65.430084"
     style="line-height:1.25;font-family:sans-serif;letter-spacing:0px;word-spacing:0px;fill:#000000"
     xml:space="preserve"
     id="text39"><tspan
       font-family="Arial"
       font-size="37.178px"
       x="410.53397"
       y="65.430084"
       id="tspan37">B</tspan></text>
  <text
     font-size="37.178px"
     x="411.58691"
     y="133.80727"
     style="line-height:1.25;font-family:sans-serif;letter-spacing:0px;word-spacing:0px;fill:#000000"
     xml:space="preserve"
     id="text43"><tspan
       font-family="Arial"
       font-size="37.178px"
       x="411.58691"
       y="133.80727"
       id="tspan41">D</tspan></text>
  <text
     font-size="14px"
     x="341.53256"
     y="199.05055"
     style="line-height:1.25;font-family:sans-serif;letter-spacing:0px;word-spacing:0px;fill:#000000"
     xml:space="preserve"
     id="text47"><tspan
       font-family="Arial"
       font-size="14px"
       x="341.53256"
       y="199.05055"
       id="tspan45" /></text>
  <text
     x="412.58533"
     y="200.76846"
     style="font-size:37.178px;line-height:1.25;font-family:sans-serif;letter-spacing:0px;word-spacing:0px;fill:#000000"
     xml:space="preserve"
     id="text51"><tspan
       font-family="Arial"
       font-size="37.178px"
       x="412.58533"
       y="200.76846"
       id="tspan49">E</tspan></text>
  <text
     x="412.04071"
     y="267.64664"
     style="font-size:37.178px;line-height:1.25;font-family:sans-serif;letter-spacing:0px;word-spacing:0px;fill:#000000"
     xml:space="preserve"
     id="text55"><tspan
       font-family="Arial"
       font-size="37.178px"
       x="412.04071"
       y="267.64664"
       id="tspan53">H</tspan></text>
  <text
     x="412.14963"
     y="335.18582"
     style="font-size:37.178px;line-height:1.25;font-family:sans-serif;letter-spacing:0px;word-spacing:0px;fill:#000000"
     xml:space="preserve"
     id="text59"><tspan
       font-family="Arial"
       font-size="37.178px"
       x="412.14963"
       y="335.18582"
       id="tspan57">P/N</tspan></text>
  <text
     x="412.10428"
     y="407.25116"
     style="font-size:37.178px;line-height:1.25;font-family:sans-serif;letter-spacing:0px;word-spacing:0px;fill:#000000"
     xml:space="preserve"
     id="text63"><tspan
       font-family="Arial"
       font-size="37.178px"
       x="412.10428"
       y="407.25116"
       id="tspan61">L/M</tspan></text>
  <text
     x="413.0936"
     y="476.62711"
     style="font-size:37.178px;line-height:1.25;font-family:sans-serif;letter-spacing:0px;word-spacing:0px;fill:#000000"
     xml:space="preserve"
     id="text67"><tspan
       font-family="Arial"
       font-size="37.178px"
       x="413.0936"
       y="476.62711"
       id="tspan65">X</tspan></text>
</svg>
