<svg width="512" height="512" version="1.1" viewBox="0 0 512 512" xmlns="http://www.w3.org/2000/svg" xmlns:xlink="http://www.w3.org/1999/xlink">
  <g>
    <path id="B" d="m375.5 57.572v-26.572h-43.817l-19.917 19.186h-179.25l3.984-13.278-25.228 13.942h-23.901c-1.9093 0-6.2869 0.5671-6.2869 3.0889 0 1.6134-0.0393 2.3184 0 3.6331"/>
    <use xlink:href="#B" transform="scale(1 -1) translate(0 -120)"/>
  </g>
  <g>
    <path id="D" d="m375.5 125.99v-26.556h-44.481l-18.589 20.515h-183.63l6.3734-14.606-25.651 14.39c-9.285 0-15.869 0.0922-24.906 0.53353-7.0881 0.34619-13.033 0.0773-13.033 5.1505"/>
    <use xlink:href="#D" transform="scale(1 -1) translate(0 -260)"/>
  </g>
  <g>
    <path id="E" d="m375.5 194.4v-26.556h-42.489l-20.581 18.191h-170.96l1.6651-14.606-31.867 15.934h-47.569c-13.568 0-16.165 0-20.813 4.3679v1.3493"/>
    <use xlink:href="#E" transform="scale(1 -1) translate(0 -390)"/>
  </g>
  <g>
    <path id="H" d="m374.83 262.82v-26.556h-43.153l-19.253 19.917h-182.14l1.1452-15.501-33.444 15.766c-13.123 0.0876-15.947 1.7049-29.97 1.7049-0.32775 0-1.1989 0.34616-1.58 0.79155-0.75952 0.88774-0.6701 0.99422-0.6701 3.2215"/>
    <use xlink:href="#H" transform="scale(1 -1) translate(0 -530)"/>
  </g>
  <g>
    <path id="PN" d="m375.5 331.23v-26.556h-43.734l-18.34 20.183-156.52 8.2e-4 4.4037-19.909-12.983-5.8e-4 -1.4545 8.2008-30.624 12.372-51.552 8.2e-4c-2.2807 0-4.9206 1.2479-4.9206 4.9694"/>
    <use xlink:href="#PN" transform="scale(1 -1) translate(0 -670)"/>
  </g>
  <g>
    <path id="LM" d="m375.99 403.78v-26.556h-42.821l-19.751 20.183-186.22 8.3e-4v-24.323l-7.9257 11.983-18.178 12.074s-10.438-0.43071-16.717 0.92904c-10.289 2.2282-19.979 1.4679-19.979 1.4679-1.4005 0-3.7096 1.4826-3.7096 3.9718"/>
    <use xlink:href="#LM" transform="scale(1 -1) translate(0 -810)"/>
  </g>
  <g>
    <path id="X" d="m375.91 468.72v-7.5816h-7.7178v-14.515h-8.6307l-15.402 15.909h-244.11v-16.891l-21.423 15.297-17.088 8.8e-4c8e-3 0.0739-5.2112 2.084-9.2163 3.575-0.78892 0.29372-4.0617 2.4967-4.5898 4.2544"/>
    <use xlink:href="#X" transform="scale(1 -1) translate(0 -940)"/>
  </g>
  <g fill="#000000" font-family="sans-serif" letter-spacing="0px" word-spacing="0px">
    <text font-size="37.178px" x="410.53397" y="68.826981" style="line-height:1.25" xml:space="preserve"><tspan font-family="Arial" font-size="37.178px" x="410.53397" y="68.826981">B</tspan></text>
    <text font-size="37.178px" x="409.4357" y="138.30495" style="line-height:1.25" xml:space="preserve"><tspan font-family="Arial" font-size="37.178px" x="409.4357" y="138.30495">D</tspan></text>
    <text font-size="14px" x="341.53256" y="199.05055" style="line-height:1.25" xml:space="preserve"><tspan font-family="Arial" font-size="14px" x="341.53256" y="199.05055"/></text>
    <g font-size="37.178px">
      <text x="410.43411" y="205.90512" style="line-height:1.25" xml:space="preserve"><tspan font-family="Arial" font-size="37.178px" x="410.43411" y="205.90512">E</tspan></text>
      <text x="409.8895" y="273.5051" style="line-height:1.25" xml:space="preserve"><tspan font-family="Arial" font-size="37.178px" x="409.8895" y="273.5051">H</tspan></text>
      <text x="409.99841" y="341.10535" style="line-height:1.25" xml:space="preserve"><tspan font-family="Arial" font-size="37.178px" x="409.99841" y="341.10535">P/N</tspan></text>
      <text x="409.95306" y="407.7666" style="line-height:1.25" xml:space="preserve"><tspan font-family="Arial" font-size="37.178px" x="409.95306" y="407.7666">L/M</tspan></text>
      <text x="410.94238" y="481" style="line-height:1.25" xml:space="preserve"><tspan font-family="Arial" font-size="37.178px" x="410.94238" y="481">X</tspan></text>
    </g>
  </g>
</svg>
