<svg version="1.1" viewBox="0 0 512 512" xmlns="http://www.w3.org/2000/svg">
  <path d="m378.37 78.694h-43.817l-19.917-19.186h-179.25l3.984 13.278-25.228-13.942h-23.901c-1.9093 0-6.2869-0.5671-6.2869-3.0889 0-1.6134-0.0393-2.3184 0-3.6331-0.0393-1.3147 0-2.0197 0-3.6331 0-2.5218 4.3776-3.0889 6.2869-3.0889h23.901l25.228-13.942-3.984 13.278h179.25l19.917-19.186h43.817v26.572z"/>
  <path d="m87.489 125.65c9.037 0.442 15.621 0.534 24.906 0.534l25.651 14.39-6.373-14.606h183.63l18.589 20.515h44.481v-51.966h-44.481l-18.589 20.515h-183.63l6.373-14.606-25.651 14.39c-9.285 0-15.869 0.092-24.906 0.533-7.0881 0.347-13.033 0.078-13.033 5.151s5.9449 4.804 13.033 5.15z"/>
  <path d="m45.759 188.73c4.648 4.368 7.245 4.368 20.813 4.368h47.569l31.867 15.934-1.665-14.606h170.96l20.581 18.191h42.489v-50.312h-42.489l-20.581 18.191h-170.96l1.665-14.606-31.867 15.934h-47.569c-13.568 0-16.165 0-20.813 4.368v1.269z"/>
  <path d="m69.308 251.12c0.3811-0.446 1.2523-0.792 1.58-0.792 14.023 0 16.847-1.617 29.97-1.705l33.444-15.766-1.145 15.501h182.14l19.253-19.917h43.153v51.8h-43.153l-19.253-19.917h-182.14l1.145 15.501-33.444-15.766c-13.123-0.087-15.947-1.705-29.97-1.705-0.3278 0-1.1989-0.346-1.58-0.791-0.7595-0.888-0.6701-0.994-0.6701-3.222 0-2.227-0.0894-2.334 0.6701-3.221z"/>
  <path d="m67.569 316.91 51.552-1e-3 30.624-12.372 1.455-8.2h12.983l-4.404 19.909 156.52-1e-3 18.34-20.183h43.734v51.634h-43.734l-18.34-20.183h-156.52l4.404 19.909h-12.983l-1.455-8.201-30.624-12.372h-51.552c-2.2807 0-4.9206-1.248-4.9206-4.97 0-3.721 2.6399-4.969 4.9206-4.969z"/>
  <path d="m67.271 397.92s9.69-0.76 19.979 1.468c6.279 1.36 16.717 0.929 16.717 0.929l18.178 12.074 7.926 11.983v-24.323l186.22 1e-3 19.751 20.183h42.821v-52.574h-42.821l-19.751 20.183-186.22 1e-3v-24.323l-7.926 11.983-18.178 12.074s-10.438-0.431-16.717 0.929c-10.289 2.228-19.979 1.468-19.979 1.468-1.4005 0-3.7096 1.483-3.7096 3.972s2.3091 3.972 3.7096 3.972z"/>
  <path d="m55.275 459.07c4.0051-1.491 9.2243-3.501 9.2163-3.575l17.088-1e-3 21.422-15.297v16.891h244.11l15.402-15.909h8.631v14.515h7.718v15.261h-7.718v14.515h-8.631l-15.402-15.909h-244.11v16.891l-21.422-15.297-17.088-1e-3c8e-3 -0.073-5.2112-2.084-9.2163-3.575-0.7889-0.293-4.0617-2.497-4.5898-4.254 0.5281-1.758 3.8009-3.961 4.5898-4.255z"/>
  <g font-family="Arial" font-size="36px">
    <text x="409" y="65.430084">B</text>
    <text x="409" y="133.80727">D</text>
    <text x="409" y="200.76846">E</text>
    <text x="409" y="267.64664">H</text>
    <text x="409" y="335.18582">P/N</text>
    <text x="409" y="407.25116">L/M</text>
    <text x="409" y="476.62711">X</text>
  </g>
</svg>
