<?xml version="1.0" encoding="UTF-8"?>
<svg version="1.1" viewBox="0 0 512 512" xmlns="http://www.w3.org/2000/svg">
  <g>
    <g fill="none" stroke="#000">
      <g stroke-width="7">
        <path d="m196.82 299.11-47.477 11.11"/>
        <path d="m255.82 342.36-0.41946 42.771"/>
        <path d="m315.18 299.62 46.84 11.359"/>
        <path d="m292.87 229.95 28.989-39.715"/>
        <path d="m219.72 229.64-29.302-39.869"/>
        <path d="m256.43 115.54 0.2496-66.238"/>
        <path d="m96.566 226.72-57.593-20.671"/>
        <path d="m156.77 407.75-35.998 53.787"/>
        <path d="m353.84 408.46 35.191 54.238"/>
      </g>
      <path transform="matrix(.87502 -.12078 .1252 .84415 -3.2526 71.826)" d="m344 448-106.38-42.851-114.21 10.459 7.8812-114.41-45.239-105.38 111.25-27.86 86.247-75.59 60.874 97.195 98.542 58.667-73.626 87.93z" stroke-linejoin="round" stroke-width="8.0627"/>
      <g stroke-width="7">
        <path d="m415.43 227.86 57.593-19.942"/>
        <path d="m389.03 462.69-268.26-1.1523-81.801-255.49 217.71-156.75 216.35 158.61z" stroke-linejoin="round"/>
        <path transform="scale(-1)" d="m-219.72-229.64-73.149-0.31421-22.305-69.666 59.363-42.741 58.994 43.25z" stroke-linejoin="round"/>
      </g>
    </g>
    <g fill="#f04e1c">
      <circle cx="315.18" cy="299.62" r="10"/>
      <circle cx="256.68" cy="49.306" r="10"/>
      <circle cx="473.03" cy="207.92" r="10"/>
      <circle cx="96.566" cy="226.72" r="10"/>
      <circle cx="156.77" cy="407.75" r="10"/>
      <circle cx="149.34" cy="310.22" r="10"/>
      <circle cx="255.40" cy="385.13" r="10"/>
      <circle cx="120.77" cy="461.54" r="10"/>
      <circle cx="256.43" cy="115.54" r="10"/>
      <circle cx="196.82" cy="299.11" r="10"/>
      <circle cx="415.43" cy="227.86" r="10"/>
      <circle cx="190.42" cy="189.77" r="10"/>
      <circle cx="38.972" cy="206.05" r="10"/>
      <circle cx="219.72" cy="229.64" r="10"/>
      <circle cx="292.87" cy="229.95" r="10"/>
      <circle cx="255.82" cy="342.36" r="10"/>
      <circle cx="362.02" cy="310.98" r="10"/>
      <circle cx="389.03" cy="462.69" r="10"/>
      <circle cx="353.84" cy="408.46" r="10"/>
      <circle cx="321.86" cy="190.24" r="10"/>
    </g>
  </g>
</svg>
