<?xml version="1.0" encoding="UTF-8" standalone="no"?>
<svg
   xmlns:dc="http://purl.org/dc/elements/1.1/"
   xmlns:cc="http://creativecommons.org/ns#"
   xmlns:rdf="http://www.w3.org/1999/02/22-rdf-syntax-ns#"
   xmlns:svg="http://www.w3.org/2000/svg"
   xmlns="http://www.w3.org/2000/svg"
   xmlns:xlink="http://www.w3.org/1999/xlink"
   xmlns:sodipodi="http://sodipodi.sourceforge.net/DTD/sodipodi-0.dtd"
   xmlns:inkscape="http://www.inkscape.org/namespaces/inkscape"
   width="512"
   height="512"
   viewBox="0 0 511.99998 512"
   version="1.1"
   id="svg8"
   inkscape:version="1.0.1 (3bc2e813f5, 2020-09-07)"
   sodipodi:docname="2-vectorized.svg">
  <defs
     id="defs2">
    <marker
       style="overflow:visible;"
       id="marker1271"
       refX="0.0"
       refY="0.0"
       orient="auto"
       inkscape:stockid="Arrow2Lend"
       inkscape:isstock="true">
      <path
         transform="scale(1.1) rotate(180) translate(1,0)"
         d="M 8.7185878,4.0337352 L -2.2072895,0.016013256 L 8.7185884,-4.0017078 C 6.9730900,-1.6296469 6.9831476,1.6157441 8.7185878,4.0337352 z "
         style="fill-rule:evenodd;stroke-width:0.625;stroke-linejoin:round;stroke:#000000;stroke-opacity:1;fill:#000000;fill-opacity:1"
         id="path1269" />
    </marker>
    <marker
       style="overflow:visible;"
       id="marker1247"
       refX="0.0"
       refY="0.0"
       orient="auto"
       inkscape:stockid="Arrow2Lend"
       inkscape:isstock="true"
       inkscape:collect="always">
      <path
         transform="scale(1.1) rotate(180) translate(1,0)"
         d="M 8.7185878,4.0337352 L -2.2072895,0.016013256 L 8.7185884,-4.0017078 C 6.9730900,-1.6296469 6.9831476,1.6157441 8.7185878,4.0337352 z "
         style="fill-rule:evenodd;stroke-width:0.625;stroke-linejoin:round;stroke:#000000;stroke-opacity:1;fill:#000000;fill-opacity:1"
         id="path1245" />
    </marker>
    <marker
       style="overflow:visible;"
       id="marker1183"
       refX="0.0"
       refY="0.0"
       orient="auto"
       inkscape:stockid="Arrow2Lend"
       inkscape:isstock="true"
       inkscape:collect="always">
      <path
         transform="scale(1.1) rotate(180) translate(1,0)"
         d="M 8.7185878,4.0337352 L -2.2072895,0.016013256 L 8.7185884,-4.0017078 C 6.9730900,-1.6296469 6.9831476,1.6157441 8.7185878,4.0337352 z "
         style="fill-rule:evenodd;stroke-width:0.625;stroke-linejoin:round;stroke:#000000;stroke-opacity:1;fill:#000000;fill-opacity:1"
         id="path1181" />
    </marker>
    <marker
       style="overflow:visible;"
       id="Arrow2Lend"
       refX="0.0"
       refY="0.0"
       orient="auto"
       inkscape:stockid="Arrow2Lend"
       inkscape:isstock="true"
       inkscape:collect="always">
      <path
         transform="scale(1.1) rotate(180) translate(1,0)"
         d="M 8.7185878,4.0337352 L -2.2072895,0.016013256 L 8.7185884,-4.0017078 C 6.9730900,-1.6296469 6.9831476,1.6157441 8.7185878,4.0337352 z "
         style="fill-rule:evenodd;stroke-width:0.625;stroke-linejoin:round;stroke:#000000;stroke-opacity:1;fill:#000000;fill-opacity:1"
         id="path916" />
    </marker>
  </defs>
  <sodipodi:namedview
     id="base"
     pagecolor="#ffffff"
     bordercolor="#666666"
     borderopacity="1.0"
     inkscape:pageopacity="0.0"
     inkscape:pageshadow="2"
     inkscape:zoom="0.98994949"
     inkscape:cx="197.85835"
     inkscape:cy="229.65232"
     inkscape:document-units="px"
     inkscape:current-layer="layer2"
     inkscape:document-rotation="0"
     showgrid="false"
     inkscape:snap-page="false"
     inkscape:object-paths="true"
     units="px"
     inkscape:showpageshadow="false"
     objecttolerance="20"
     width="24mm"
     inkscape:window-width="1920"
     inkscape:window-height="1017"
     inkscape:window-x="-8"
     inkscape:window-y="-8"
     inkscape:window-maximized="1"
     inkscape:snap-tangential="true"
     showguides="true"
     inkscape:guide-bbox="true">
    <inkscape:grid
       type="xygrid"
       id="grid10"
       empspacing="4"
       originx="0"
       originy="0"
       dotted="false" />
    <sodipodi:guide
       position="175.13519,286.48344"
       orientation="0.82115626,-0.57070342"
       id="guide887" />
  </sodipodi:namedview>
  <metadata
     id="metadata5">
    <rdf:RDF>
      <cc:Work
         rdf:about="">
        <dc:format>image/svg+xml</dc:format>
        <dc:type
           rdf:resource="http://purl.org/dc/dcmitype/StillImage" />
        <dc:title></dc:title>
      </cc:Work>
    </rdf:RDF>
  </metadata>
  <g
     inkscape:label="bg"
     inkscape:groupmode="layer"
     id="layer1"
     style="display:inline"
     sodipodi:insensitive="true">
    <image
       width="651"
       height="304"
       preserveAspectRatio="none"
       xlink:href="1-original.png"
       id="image841"
       x="-91"
       y="128"
       style="display:inline" />
  </g>
  <g
     inkscape:groupmode="layer"
     id="layer2"
     inkscape:label="vector"
     style="display:none">
    <path
       style="fill:none;stroke:#000000;stroke-width:1px;stroke-linecap:butt;stroke-linejoin:miter;stroke-opacity:1;marker-end:url(#Arrow2Lend)"
       d="M 548.29908,377.77235 216.40791,344.36548"
       id="path893"
       sodipodi:nodetypes="cc" />
    <path
       style="fill:none;stroke:#000000;stroke-width:1px;stroke-linecap:butt;stroke-linejoin:miter;stroke-opacity:1"
       d="m 196.97975,342.18918 -17.93021,0.25253"
       id="path1177" />
    <path
       style="fill:none;stroke:#000000;stroke-width:1px;stroke-linecap:butt;stroke-linejoin:miter;stroke-opacity:1;marker-end:url(#marker1183)"
       d="M 148.75,179.28571 331.51909,284.72718 555.14196,264.02862"
       id="path1179" />
    <path
       style="fill:none;stroke:#000000;stroke-width:1px;stroke-linecap:butt;stroke-linejoin:miter;stroke-opacity:1;marker-end:url(#marker1247)"
       d="m 148.75,179.28571 -21.68295,8.3275 428.02224,140.51179"
       id="path1209" />
    <path
       style="fill:none;stroke:#000000;stroke-width:1px;stroke-linecap:butt;stroke-linejoin:miter;stroke-opacity:1;marker-end:url(#marker1271)"
       d="m 148.75,179.28571 -16.05851,19.23789 47.21106,41.63958 374.20459,-48.73461"
       id="path1267" />
  </g>
  <g
     inkscape:groupmode="layer"
     id="layer7"
     inkscape:label="5"
     style="display:none"
     sodipodi:insensitive="true">
    <path
       style="fill:none;stroke:#000000;stroke-width:1px;stroke-linecap:butt;stroke-linejoin:miter;stroke-opacity:1"
       d="m 169.17749,234.45794 c 19.01892,9.29446 20.4239,16.01262 22.32089,20.10466 0.34721,0.74898 0.89277,1.31933 1.65564,1.98019 1.00864,0.87375 2.1409,1.78337 2.1409,1.78337 2.21414,-0.73397 0.22824,-6.23314 0.22824,-6.23314 -2.19015,-4.16343 -2.99513,-5.17558 -12.90745,-13.80928 -10.68212,-9.30421 -19.74895,-12.59269 -25.66326,-0.89789 -7.57876,-4.79561 -10.47122,-15.00171 -12.40501,-25.44229 2.01762,-5.6397 9.24789,-10.65774 10.77752,-16.41273 4.02813,-3.28472 9.32589,-0.48045 11.22394,-2.9705 0.77124,-1.01179 0.62168,-2.00987 -0.26523,-2.71796 -1.09615,-0.87513 -6.25664,-0.97979 -9.20495,-0.69131 l -0.1556,1.8494 -1.55986,-0.33417 0.20023,-1.51523 -7.36058,-6.87586 3.44624,-3.85701 2.10062,0.34183 7.87464,-6.02393 c 1.90853,-4.63042 4.19873,-8.67099 9.97525,-7.32361 l -17.17259,-4.04061 c 3.59564,1.66113 10.82598,2.22688 6.4244,6.29813 l -10.32473,7.78404 -4.18089,-3.60184 -1.61217,1.57519 3.78041,2.95518 -1.00884,1.29333 -3.95264,-2.82257 -1.73078,1.68483 4.22816,2.54836 -5.94997,-0.17726 -0.0676,2.53939 4.29315,0.50508 c 1.98904,7.25187 6.68268,6.88356 6.78023,9.25593 l 0.16456,3.43411 -7.82868,11.08011 -4.04061,-14.93132 c -1.23021,-4.54603 -8.52125,-1.76848 -7.07107,1.76777 5.42566,13.23039 8.48776,22.59604 16.18367,39.30721 8.46535,18.38193 19.57755,32.17194 8.10464,54.05847 -2.42817,4.63216 5.41251,12.56981 9.97953,12.5231 12.08132,-0.12356 23.06308,-45.39031 -1.51761,-58.47647 -6.85777,-3.65091 0.13006,-7.45345 4.09726,-5.5147 z"
       id="path885"
       sodipodi:nodetypes="sssssscccssccccccccccccccccccccccsccsssssss" />
    <ellipse
       style="fill:none;fill-rule:evenodd;stroke:#27ede4;stroke-width:1.00023;stroke-miterlimit:4;stroke-dasharray:none;stroke-opacity:1;stop-color:#000000"
       id="path889"
       cx="251.81224"
       cy="70.556847"
       rx="5.0605903"
       ry="6.9772701"
       transform="matrix(0.8024322,0.5967433,-0.62082339,0.78395046,0,0)" />
    <ellipse
       style="fill:none;fill-rule:evenodd;stroke:#27ede4;stroke-width:1;stroke-miterlimit:4;stroke-dasharray:none;stroke-opacity:1;stop-color:#000000"
       id="path891"
       cx="203.51512"
       cy="132.64951"
       rx="2.6785715"
       ry="4.0178571"
       transform="rotate(20.046753)" />
  </g>
  <g
     inkscape:groupmode="layer"
     id="layer6"
     inkscape:label="4"
     style="display:none"
     sodipodi:insensitive="true">
    <ellipse
       style="fill:none;fill-rule:evenodd;stroke:#2fd7cf;stroke-width:1;stroke-miterlimit:4;stroke-dasharray:none;stroke-opacity:1;stop-color:#000000"
       id="path880"
       cx="103.16965"
       cy="354.50891"
       rx="12.276784"
       ry="15.580357" />
    <path
       style="fill:none;stroke:#27ede4;stroke-width:1px;stroke-linecap:butt;stroke-linejoin:miter;stroke-opacity:1"
       d="m 195.71429,199.46428 c 30.11531,-30.76448 121.99275,11.24788 145,63.03572 1.82778,4.11422 -1.59521,11.53609 -6.02735,11.73941 -70.50586,3.23434 -119.62294,-0.42195 -142.05411,-39.4967 -3.11355,-4.13543 -4.96054,-7.34577 -9.59712,-9.38557 -10.65246,-4.68641 -11.47486,-6.78964 -10.47443,-15.25593 0.95772,-8.10495 11.00506,-12.18862 23.15301,-10.63693 z"
       id="path882"
       sodipodi:nodetypes="csscssc" />
  </g>
  <g
     inkscape:groupmode="layer"
     id="layer5"
     inkscape:label="3"
     style="display:none"
     sodipodi:insensitive="true">
    <path
       style="display:inline;fill:none;stroke:#00faee;stroke-width:1px;stroke-linecap:butt;stroke-linejoin:miter;stroke-opacity:1"
       d="m 146.5405,311.58641 -0.0478,10.34359 1.12916,1.62797 -0.16236,5.91405 -1.3213,1.04296 -5.95459,0.11416 c -1.16647,1.92585 -2.52278,0.22102 -3.46822,1.92595 l -0.26785,5.29865 0.96325,0.18198 0.0879,4.58737 h 1e-5 c -7.50859,6.38755 -10.96934,-0.25526 -10.94614,15.51453 -2.1451,1.66725 -5.88128,3.02969 -10.76015,3.38949 l -2.22098,1.37467 c -4.78563,2.96206 -10.39583,0.30801 -12.23214,-5.66964 l 0.26785,-22.5 C 101.80977,317.7106 70.01023,271.77929 50.949569,271.44693 46.097776,271.36233 37.394826,269.26557 37.410714,259.01786 L 37.5,201.42857 c 0.01332,-8.58897 21.34459,-31.72412 42.175782,-33.1119 7.207533,-0.48017 10.755941,-1.92174 21.465738,-1.76777 29.97514,0.43093 22.44795,41.29561 59.63299,61.95973 8.48608,4.71581 17.75289,9.64074 25.66177,17.08471 5.31732,5.00476 5.6151,18.97632 16.94929,23.85324 52.22074,22.46979 176.84265,12.99847 248.65769,14.91136 9.38871,0.25008 22.29968,4.16046 22.60217,8.90197 0.35812,5.61367 -11.8847,6.20161 -20.26619,6.12405 -62.98384,-0.58276 -124.41035,0.55767 -173.30429,3.15673 -15.21245,0.80865 -29.25628,0.62543 -52.28031,-5.26391 -12.67432,8.94892 -42.53708,5.49045 -47.46389,-3.51304 -3.20779,-5.86208 -10.96067,-8.74961 -15.97361,-8.4066 -14.21427,0.9726 -18.75065,11.94935 -18.81664,26.22927 z"
       id="path858"
       sodipodi:nodetypes="sccccccccccccscssssssssssssscsss" />
    <path
       style="fill:none;stroke:#00faee;stroke-width:1px;stroke-linecap:butt;stroke-linejoin:miter;stroke-opacity:1"
       d="m 101.20701,330.82188 c 2.69144,10.07672 18.27972,13.64069 11.8287,25.24955"
       id="path863"
       sodipodi:nodetypes="cc" />
    <path
       style="fill:none;stroke:#22e2d9;stroke-width:1px;stroke-linecap:butt;stroke-linejoin:miter;stroke-opacity:1"
       d="m 94.453445,313.79756 c 5.46376,10.13854 11.916405,17.26315 25.278695,16.64887"
       id="path865"
       sodipodi:nodetypes="cc" />
    <path
       style="fill:none;stroke:#00faee;stroke-width:1px;stroke-linecap:butt;stroke-linejoin:miter;stroke-opacity:1"
       d="m 48.613591,241.42646 c 30.582406,6.6383 41.506605,-19.66102 43.526095,-33.04569 2.019489,-13.38466 -12.472387,-41.76283 7.061622,-41.84262"
       id="path867"
       sodipodi:nodetypes="czc" />
    <path
       style="fill:none;stroke:#00faee;stroke-width:1px;stroke-linecap:butt;stroke-linejoin:miter;stroke-opacity:1"
       d="m 47.5,248.57143 c 73.64311,-15.81656 98.9339,39.04413 80.71429,82.67857"
       id="path869"
       sodipodi:nodetypes="cc" />
    <path
       style="fill:none;stroke:#00faee;stroke-width:1px;stroke-linecap:butt;stroke-linejoin:miter;stroke-opacity:1"
       d="m 99.642857,210 c 9.917473,52.65708 41.387893,67.28144 78.214283,71.78571"
       id="path871"
       sodipodi:nodetypes="cc" />
    <path
       style="fill:none;stroke:#09f8ed;stroke-width:1px;stroke-linecap:butt;stroke-linejoin:miter;stroke-opacity:1"
       d="m 136.48027,343.43112 c 27.04075,-1.47708 54.02101,-3.17882 71.2954,-40.93096"
       id="path875"
       sodipodi:nodetypes="cc" />
    <path
       style="fill:none;stroke:#2fd7cf;stroke-width:1px;stroke-linecap:butt;stroke-linejoin:miter;stroke-opacity:1"
       d="m 218.98285,301.32385 c -7.09414,30.83431 -43.97983,47.56868 -92.41594,55.00641"
       id="path877"
       sodipodi:nodetypes="cc" />
  </g>
  <g
     inkscape:groupmode="layer"
     id="layer4"
     inkscape:label="2"
     style="display:none"
     sodipodi:insensitive="true">
    <path
       style="display:inline;fill:none;stroke:#00faee;stroke-width:1px;stroke-linecap:butt;stroke-linejoin:miter;stroke-opacity:1"
       d="m 137.49869,342.62309 -0.0879,-4.58737 -0.96325,-0.18198 0.26785,-5.29865 c 0.94544,-1.70493 2.30175,-1e-4 3.46822,-1.92595 l 5.95459,-0.11416 1.3213,-1.04296 0.16236,-5.91405 -1.12916,-1.62797 0.0478,-10.34359 5.29577,-0.24761 2.49937,-0.8027 c 50.68951,-2.69843 87.46262,-1.83932 143.02841,1.42035 109.04234,6.39679 156.18204,-3.20667 168.12035,-9.92083 4.2605,-2.39613 7.67382,-0.9965 9.51916,0.98536 2.5359,2.72353 1.5422,7.25123 -1.67921,9.86232 -13.687,11.09389 -71.33327,17.8639 -119.64597,30.62636 -20.74714,5.48064 -31.46654,9.77472 -44.83562,13.09564 -67.78405,16.8378 -120.60294,19.69011 -178.39628,22.01077 0,-8.99498 10.12866,-20.51121 -3.89392,-20.47845 -0.0232,-15.76979 3.43755,-9.12698 10.94614,-15.51453 z"
       id="path854"
       sodipodi:nodetypes="ccccccccccccsssssscccc" />
  </g>
  <g
     inkscape:groupmode="layer"
     id="layer3"
     inkscape:label="1"
     style="display:none"
     sodipodi:insensitive="true">
    <path
       style="fill:none;stroke:#00faee;stroke-width:1px;stroke-linecap:butt;stroke-linejoin:miter;stroke-opacity:1"
       d="m 55.714286,141.96428 c 58.957804,-0.7102 79.278464,14.37899 93.571424,17.67858 80.43203,18.56809 178.95609,46.00377 198.21429,105 1.04726,3.20822 2.49061,5.45959 7.5,6.42857 45.0721,8.71846 118.26512,2.80362 123.57143,21.65179 5.84791,20.77192 -102.88394,13.6784 -156.07143,18.34821 -37.04686,3.25268 -73.38066,2.82844 -112.5,12.85714"
       id="path847"
       sodipodi:nodetypes="csssssc" />
    <path
       style="fill:none;stroke:#00faee;stroke-width:1px;stroke-linecap:butt;stroke-linejoin:miter;stroke-opacity:1"
       d="m 37.857143,384.28571 c 98.212247,-3.24647 194.580877,2.92924 300.420277,-31.34563 51.94198,-16.8208 167.87481,-25.10697 139.98555,-56.42084"
       id="path849"
       sodipodi:nodetypes="csc" />
    <path
       style="fill:none;stroke:#00faee;stroke-width:1px;stroke-linecap:butt;stroke-linejoin:miter;stroke-opacity:1"
       d="m 339.86607,276.69643 c 4.23725,-1.39212 11.61242,-3.09189 4.90735,-19.07474"
       id="path873"
       sodipodi:nodetypes="cc" />
  </g>
</svg>
