<svg viewBox="0 125 512 260" xmlns="http://www.w3.org/2000/svg">
  <defs>
    <marker id="dot1" overflow="visible" orient="auto">
      <circle r="2" fill="#000" stroke="none"/>
    </marker>
    <marker id="dot2" overflow="visible" orient="auto">
      <circle r="1" fill="#000" stroke="none"/>
    </marker>
    <marker id="arrow1" overflow="visible" orient="auto">
      <path fill="#18B7CF" stroke="none" d="m-5-4 10 4-10 4z"/>
    </marker>
    <marker id="arrow2" overflow="visible" orient="auto">
      <path fill="#8db241" stroke="none" d="m-5-4 10 4-10 4z"/>
    </marker>
  </defs>

  <ellipse fill="#8db241" stroke="#000" cx="164.5" cy="318.92" rx="9.3627" ry="11.892"/>
  <ellipse fill="#fe56d4" stroke="#000" cx="206.52" cy="205.24" rx="3.8605" ry="5.3238"/>
  <ellipse fill="#fe56d4" stroke="#000" cx="196.95" cy="196.7" rx="2.043" ry="3.0664"/>
  <path fill="#4ca6ff" stroke="#000" d="m214.84 227.29c14.504 7.0941 15.576 12.222 17.023 15.345 0.26479 0.57166 0.68086 1.007 1.2626 1.5114 0.76922 0.6669 1.6327 1.3612 1.6327 1.3612 1.6886-0.56021 0.17407-4.7575 0.17407-4.7575-1.6703-3.1778-2.2842-3.9503-9.8437-10.54-8.1466-7.1016-15.061-9.6115-19.572-0.68533-5.7798-3.6603-7.9857-11.45-9.4605-19.419 1.5387-4.3046 7.0528-8.1346 8.2193-12.527 3.072-2.5071 7.1122-0.36671 8.5598-2.2673 0.58818-0.77226 0.47412-1.5341-0.20227-2.0745-0.83596-0.66795-4.7715-0.74783-7.02-0.52765l-0.11866 1.4116-1.1896-0.25506 0.15271-1.1565-5.6134-5.2481 2.6282-2.9439 1.602 0.26091 6.0055-4.5978c1.4555-3.5342 3.2937-7.011 7.6236-5.9564l-13.049-3.1244c2.1115 0.56577 7.3903 2.8593 4.8363 5.2141l-7.874 5.9413-3.1885-2.7492-1.2295 1.2023 2.8831 2.2556-0.76938 0.98715-3.0144-2.1544-1.32 1.286 3.2245 1.9451-4.5376-0.13529-0.0516 1.9382 3.2741 0.38551c1.5169 5.5351 5.0964 5.254 5.1708 7.0647l0.1255 2.6211-5.9704 8.457-3.0815-11.397c-0.9382-3.4698-6.4986-1.3498-5.3926 1.3493 4.1378 10.098 6.4731 17.247 12.342 30.002 6.456 14.03 14.931 24.556 6.1809 41.261-1.8518 3.5356 4.1278 9.5941 7.6107 9.5584 9.2136-0.0943 17.589-34.645-1.1574-44.633-5.23-2.7866 0.0992-5.6889 3.1247-4.2092z"/>
  <path fill="#e5e5e5" stroke="#000" d="m190.68 309.84c-0.26196-1.3135-0.80164-3.6403-0.80164-3.6403l0.20427-4.0443c1.5621-1.5845 4.3242-1.5022 7.1862-1.5571l1.0077-0.79605 0.12382-4.514-0.86113-1.2426 0.0365-7.8949 4.0387-0.18899 1.9061-0.61267c38.658-2.0596 66.702-1.4039 109.08 1.0841 83.159 4.8824 119.11-2.4475 128.21-7.5722 3.2492-1.8289 5.8523-0.76059 7.2596 0.75209 1.934 2.0788 1.1761 5.5346-1.2806 7.5275-10.438 8.4676-54.401 13.635-91.246 23.376-15.822 4.1832-23.997 7.4607-34.193 9.9954-51.694 12.852-91.976 15.029-136.05 16.8 0-6.8655 7.7245-15.655-2.9696-15.63-0.0177-12.036 2.6216-6.9663 8.3479-11.842z"/>
  <path fill="#e5e5e5" stroke="#000" d="m252.83 278.32c-5.4102 23.535-33.541 36.317-70.48 41.994 0.17916-9.7599 2.581-6.205 7.5315-9.8339 20.622-1.1274 41.227-2.4475 54.401-31.262m-46.7 6.9352-0.0365 7.8949 0.86114 1.2426-0.12382 4.514-1.0077 0.79605c-2.4788-0.0847-6.4947 0.41597-7.1862 1.5571l-0.20428 4.0443s0.77965 2.4914 0.80165 3.6403h1e-5c-5.7263 4.8754-8.3656-0.19483-8.3479 11.842-1.6359 1.2726-4.4853 2.3124-8.2061 2.5871l-1.6938 1.0492c-3.6497 2.2608-7.9282 0.23509-9.3286-4.3274l0.20427-17.173c0.15453-12.992-24.097-48.05-38.633-48.303-3.7002-0.0646-10.337-1.665-10.325-9.4866l0.0681-43.956c0.0102-6.5556 16.278-24.214 32.165-25.273 5.4967-0.3665 8.2029-1.4668 16.371-1.3493 22.86 0.32892 17.12 31.519 45.478 47.292 6.4718 3.5994 13.539 7.3584 19.571 13.04 4.0552 3.82 4.2823 14.484 12.926 18.206 39.825 17.15 134.87 9.9212 189.63 11.381 7.1602 0.19088 17.007 3.1755 17.237 6.7946 0.27311 4.2847-9.0637 4.7335-15.456 4.6743-48.034-0.4448-94.88 0.42565-132.17 2.4094-11.602 0.61721-22.312 0.47737-39.871-4.0178-9.6659 6.8304-32.44 4.1907-36.198-2.6814-2.4464-4.4743-8.359-6.6782-12.182-6.4164-10.84 0.74234-14.3 9.1205-14.35 20.02z"/>
  <path fill="#ffde7b" stroke="#000" d="m235.08 200.58c22.967-23.481 93.036 8.5851 110.58 48.113 1.3939 3.1402-1.2166 8.8051-4.5967 8.9602-53.77 2.4687-91.229-0.32205-108.34-30.146-2.3745-3.1564-3.7831-5.6068-7.3191-7.1637-8.1239-3.577-8.7511-5.1823-7.9882-11.644 0.73039-6.1862 8.3928-9.3031 17.657-8.1188z"/>
  <path fill="#b3d9ff" stroke="#bfbfbf" d="m191.39 207.06c2.0736 5.3115 4.2809 10.82 7.6964 18.242 6.456 14.03 14.931 24.556 6.1815 41.261-0.2561 0.48895-0.35129 1.0294-0.33514 1.5921 1.8858-1.1266 4.1934-1.8338 6.9993-2.0259 2.3815-0.16309 5.5739 0.63119 8.2341 2.3345 4.5011-10.793 4.7369-29.951-8.4456-36.975-5.23-2.7866 0.0995-5.6882 3.125-4.2084 10.522 5.1463 13.965 9.2514 15.621 12.314-0.71057-1.5437-1.4713-2.8842-2.4592-3.8148-5.2799-4.9736-11.334-8.4555-17.107-11.665-2.0385 0.66265-3.8466 2.3719-5.3772 5.401-4.8812-3.0912-7.2033-9.1356-8.6988-15.738-2.0687-2.1672-3.8574-4.4245-5.4338-6.7173z"/>
  <path fill="none" stroke="#000" d="m114.69 341.64c74.9-2.4779 148.39 2.2358 229.11-23.925 39.613-12.839 128.03-19.163 106.76-43.064m-322.25-117.97c44.963-0.54207 60.461 10.975 71.361 13.493 61.34 14.172 136.48 35.113 151.17 80.143 0.79867 2.4487 1.8994 4.1671 5.7198 4.9067 34.374 6.6545 90.193 2.1399 94.24 16.526 4.4598 15.854-78.463 10.44-119.03 14.005-28.253 2.4826-55.963 2.1588-85.796 9.8134"/>
  <path fill="none" stroke="#000" d="m345.62 260c1.8159-1.4673 8.0808-3.9116 3.1358-15.031"/>
  <path fill="none" stroke="#000" d="m230.46 239.59c-0.71057-1.5437-1.4713-2.8842-2.4592-3.8148-5.2799-4.9736-11.334-8.4555-17.107-11.665m-14.076-10.337c-2.0687-2.1672-3.8574-4.4245-5.4338-6.7173m13.543 61.095c1.8858-1.1266 4.1934-1.8338 6.9993-2.0259 2.3815-0.16309 5.5739 0.63119 8.2341 2.3345"/>
  <path fill="none" stroke="#18b7cf" marker-end="url(#arrow1)" d="m488.45 291.98 9.0051 2.9586"/>
  <path fill="none" stroke="#18b7cf" marker-end="url(#arrow1)" d="m487.25 251.89 10.201-0.94497"/>
  <path fill="none" stroke="#18b7cf" marker-end="url(#arrow1)" d="m483.69 197.66 13.768-1.7945"/>
  <path fill="#000" d="m173.14 237.25c-4.3583-6.5892-7.0714-13.479-8.8587-19.225-1.7349-5.5778-2.47-9.4085-2.47-9.4085s0.4854 3.8697 1.9884 9.5471c1.5414 5.8224 4.0828 12.936 8.506 19.638 11.545 17.474 29.351 23.686 49.094 26.103l0.1215-0.99259c-19.576-2.3963-37.087-8.5673-48.381-25.661zm-35.36-1.76c-8.0592 0.31566-15.727 2.5654-15.727 2.5654s7.8729-1.2584 15.766-1.5662c29.058-1.1357 44.988 14.737 48.745 34.167 1.5209 7.8506 0.99455 15.193-0.22582 21.153-1.1748 5.738-2.7297 9.3514-2.7297 9.3514s1.7865-3.5048 3.218-9.2405c1.4802-5.9309 2.2665-13.44 0.71935-21.454-3.8587-19.953-20.235-36.13-49.766-34.976zm2.08-4.62c-3.9894 1.8284-8.1235 2.2744-11.505 2.2266-3.2879-0.0464-5.4525-0.48888-5.4525-0.48888s2.0984 0.6908 5.4262 0.99033c3.4016 0.30617 7.7449 0.0866 11.946-1.8182 10.754-4.902 15.224-17.066 16.317-24.32 0.7871-5.2209-1.609-13.242-2.3134-19.904-0.69392-6.5634 0.19818-11.579 7.2065-11.608l-4e-3 -1c-7.8883 0.0323-8.9195 5.8772-8.1968 12.713 0.7123 6.7372 3.0721 14.654 2.319 19.65-1.0626 7.0487-5.4046 18.847-15.743 23.559zm17.56 57.21c2.9403 5.4604 6.2973 9.8746 11.675 11.864 4.0074 1.4759 8.0441 0.60656 8.0441 0.60656s-4.062-0.19321-7.6972-1.5444c-5.0321-1.8616-8.2477-6.0268-11.141-11.4zm5.1 12.89c1.4776 5.5365 7.7846 8.552 9.6568 12.731 0.67895 1.4604 0.66014 3.0489 0.4323 4.3407-0.2227 1.2627-0.58503 2.0715-0.58503 2.0715s0.58509-0.66773 1.0689-1.9364c0.48836-1.2806 0.77298-3.0954-4e-3 -4.8846-2.0017-4.4681-8.2072-7.3488-9.6032-12.58z"/>

  <g fill="none" stroke="#f00" stroke-width="0.6" marker-end="url(#dot1)">
    <path d="m88.111 149.26h12.583c61.983-2.4364 110.85-1.1331 110.85 20.288"/>
    <path d="m88.111 340.85h12.583c33.487-6.1405 78.822-6.08 119.27-9.0401"/>
    <path d="m88.111 173.21h12.583c37.439-2.1622 72.655-7.9543 90.598 7.8848"/>
    <path d="m88.111 197.16h85.005c12.894 7.286 25.3 13.281 33.502 8.1629"/>
    <path d="m88.111 292.95h12.583c100.92 0 140.59-10.662 183.13-21.559"/>
    <path d="m88.111 221.11h12.583l77.979-0.56329"/>
    <path d="m88.111 245.06h12.583l162.35-5.9077"/>
    <path d="m88.111 269.01h12.583l111.92 1.7227"/>
    <path d="m88.111 316.9h12.583l58.858 3.4844"/>
    <path marker-end="url(#dot2)" d="m173.12 197.16c5.0429-1.8829 10.617-4.2168 23.818 0.22183"/>
  </g>

  <g font-family="Arial" font-size="10" text-anchor="end">
    <text x="83.089455" y="152.41907">Blowhole</text>
    <text x="83.06263" y="175.46133">Phonic Lips</text>
    <text x="83.089455" y="200.21579">Dorsal Bursae</text>
    <text x="83.299561" y="223.36981">Cranium</text>
    <text x="83.339798" y="246.41653">Melon</text>
    <text x="83.06263" y="269.45883">Bony Nares</text>
    <text x="83.089455" y="294.32056">Upper Mandible</text>
    <text x="83.089455" y="319.07498">Auditory Bullae</text>
    <text x="83.089455" y="343.93671">Lower Mandible</text>
    <text fill="#18b7cf" font-size="16" x="335.78592" y="176.32819" text-anchor="start">Outgoing Sounds</text>
    <text fill="#90b445" font-size="16" x="335.10046" y="363.37195" text-anchor="start">Incoming Sounds</text>
  </g>

  <path fill="none" stroke="#18b7cf" d="m465.26 284.36c-0.32419-0.64211-0.81336-3.4808-1.9452-3.8527-1.6006-0.52588-6.1016 4.4225-7.7022 3.8967-1.1318-0.37186-1.621-3.2106-1.9452-3.8527m23.185 7.6175c-0.32419-0.64211-0.81336-3.4808-1.9452-3.8527-1.6006-0.52587-6.1016 4.4225-7.7022 3.8967-1.1318-0.37185-1.621-3.2106-1.9452-3.8527m23.185 7.6175c-0.32419-0.64211-0.81336-3.4808-1.9452-3.8527-1.6006-0.52588-6.1016 4.4225-7.7022 3.8966-1.1318-0.37185-1.621-3.2106-1.9452-3.8527"/>
  <path fill="none" stroke="#18b7cf" d="m338.49 216.59c-0.56992-0.43886-2.2382-2.7871-3.4196-2.6332-1.6706 0.21775-3.59 6.6257-5.2607 6.8434-1.1813 0.15398-2.8496-2.1943-3.4196-2.6332m24.2-3.1542c-0.56992-0.43886-2.2382-2.7871-3.4196-2.6332-1.6706 0.21776-3.59 6.6257-5.2607 6.8434-1.1813 0.15398-2.8496-2.1943-3.4196-2.6332m24.2-3.1542c-0.56992-0.43885-2.2382-2.7871-3.4196-2.6332-1.6706 0.21776-3.59 6.6257-5.2607 6.8434-1.1813 0.15398-2.8496-2.1943-3.4196-2.6332m24.2-3.1542c-0.56992-0.43886-2.2382-2.7871-3.4196-2.6332-1.6706 0.21776-3.59 6.6257-5.2607 6.8434-1.1813 0.15397-2.8496-2.1943-3.4196-2.6332m24.2-3.1542c-0.56992-0.43886-2.2382-2.7871-3.4196-2.6332-1.6706 0.21775-3.59 6.6257-5.2607 6.8434-1.1813 0.15398-2.8496-2.1943-3.4196-2.6332m24.2-3.1542c-0.56992-0.43886-2.2382-2.7871-3.4196-2.6332-1.6706 0.21775-3.59 6.6257-5.2607 6.8434-1.1813 0.15398-2.8496-2.1943-3.4196-2.6332m24.2-3.1542c-0.56992-0.43886-2.2382-2.7871-3.4196-2.6332-1.6706 0.21775-3.59 6.6257-5.2607 6.8434-1.1813 0.15398-2.8496-2.1943-3.4196-2.6332m24.2-3.1542c-0.56992-0.43886-2.2382-2.7871-3.4196-2.6332-1.6706 0.21776-3.59 6.6257-5.2607 6.8434-1.1813 0.15398-2.8496-2.1943-3.4196-2.6332m24.2-3.1542c-0.56992-0.43885-2.2382-2.7871-3.4196-2.6332-1.6706 0.21776-3.59 6.6257-5.2607 6.8434-1.1813 0.15398-2.8496-2.1943-3.4196-2.6332m24.2-3.1542c-0.56992-0.43886-2.2382-2.7871-3.4196-2.6332-1.6706 0.21776-3.59 6.6257-5.2607 6.8434-1.1813 0.15397-2.8496-2.1943-3.4196-2.6332m24.2-3.1542c-0.56992-0.43886-2.2382-2.7871-3.4196-2.6332-1.6706 0.21775-3.59 6.6257-5.2607 6.8434-1.1813 0.15397-2.8496-2.1943-3.4196-2.6332m24.2-3.1542c-0.56992-0.43886-2.2382-2.7871-3.4196-2.6332-1.6706 0.21775-3.59 6.6257-5.2607 6.8434-1.1813 0.15398-2.8496-2.1943-3.4196-2.6332m24.2-3.1542c-0.56992-0.43886-2.2382-2.7871-3.4196-2.6332-1.6706 0.21775-3.59 6.6257-5.2607 6.8434-1.1813 0.15398-2.8496-2.1943-3.4196-2.6332"/>
  <path fill="none" stroke="#18b7cf" d="m402.2 259.77c0.45932-0.55357 1.5697-3.2115 2.7559-3.3214 1.6776-0.1554 4.9607 5.6727 6.6383 5.5173 1.1862-0.10989 2.2966-2.7678 2.7559-3.3214 0.45931-0.55357 1.5697-3.2115 2.7559-3.3214 1.6776-0.15541 4.9607 5.6727 6.6383 5.5173 1.1862-0.10988 2.2966-2.7678 2.7559-3.3214 0.45931-0.55356 1.5697-3.2115 2.7559-3.3214 1.6776-0.1554 4.9607 5.6727 6.6383 5.5173 1.1862-0.10989 2.2966-2.7678 2.7559-3.3214 0.45932-0.55357 1.5697-3.2115 2.7559-3.3214 1.6776-0.1554 4.9607 5.6727 6.6383 5.5173 1.1862-0.10989 2.2966-2.7678 2.7559-3.3214 0.45932-0.55357 1.5697-3.2115 2.7559-3.3214 1.6776-0.1554 4.9607 5.6727 6.6383 5.5173 1.1862-0.10989 2.2966-2.7678 2.7559-3.3214 0.45932-0.55357 1.5697-3.2115 2.7559-3.3214 1.6776-0.15541 4.9607 5.6727 6.6383 5.5173 1.1862-0.10989 2.2966-2.7678 2.7559-3.3214 0.45932-0.55356 1.5697-3.2115 2.7559-3.3214 1.6776-0.1554 4.9607 5.6727 6.6383 5.5173 1.1862-0.10989 2.2966-2.7678 2.7559-3.3214"/>
  <path fill="none" stroke="#8db241" d="m485.31 334.75c0.45508 0.55705 1.5451 3.2234 2.7305 3.3424 1.6763 0.1682 5.0039-5.6347 6.6802-5.4665 1.1854 0.11894 2.2754 2.7853 2.7305 3.3424m-24.282-2.4365c0.45507 0.55706 1.5451 3.2234 2.7305 3.3424 1.6763 0.16821 5.0039-5.6347 6.6802-5.4665 1.1854 0.11895 2.2754 2.7853 2.7305 3.3424m-24.282-2.4365c0.45508 0.55705 1.5451 3.2234 2.7305 3.3424 1.6763 0.1682 5.0039-5.6347 6.6802-5.4665 1.1854 0.11894 2.2754 2.7853 2.7305 3.3424m-24.282-2.4365c0.45508 0.55706 1.5451 3.2234 2.7305 3.3424 1.6764 0.16821 5.0039-5.6347 6.6802-5.4665 1.1854 0.11895 2.2754 2.7853 2.7305 3.3424m-24.282-2.4365c0.45508 0.55706 1.5451 3.2234 2.7305 3.3424 1.6763 0.16821 5.0039-5.6347 6.6802-5.4665 1.1854 0.11894 2.2754 2.7853 2.7305 3.3424m-24.282-2.4365c0.45508 0.55706 1.5451 3.2234 2.7305 3.3424 1.6763 0.16821 5.0039-5.6347 6.6802-5.4664 1.1854 0.11894 2.2754 2.7853 2.7305 3.3424m-24.282-2.4365c0.45507 0.55706 1.5451 3.2234 2.7305 3.3424 1.6763 0.16821 5.0039-5.6347 6.6802-5.4665 1.1854 0.11894 2.2754 2.7853 2.7305 3.3424m-24.282-2.4365c0.45507 0.55706 1.5451 3.2234 2.7305 3.3424 1.6763 0.16821 5.0039-5.6347 6.6802-5.4664 1.1854 0.11894 2.2754 2.7853 2.7305 3.3424m-24.282-2.4365c0.45508 0.55706 1.5451 3.2234 2.7305 3.3424 1.6764 0.16821 5.0039-5.6347 6.6802-5.4665 1.1854 0.11894 2.2754 2.7853 2.7305 3.3424m-24.282-2.4365c0.45508 0.55706 1.5451 3.2234 2.7305 3.3424 1.6763 0.1682 5.0039-5.6347 6.6802-5.4665 1.1854 0.11894 2.2754 2.7853 2.7305 3.3424m-24.282-2.4365c0.45508 0.55706 1.5451 3.2234 2.7305 3.3424 1.6763 0.16821 5.0039-5.6347 6.6802-5.4665 1.1854 0.11894 2.2754 2.7853 2.7305 3.3424m-24.282-2.4365c0.45508 0.55706 1.5451 3.2234 2.7305 3.3424 1.6763 0.1682 5.0039-5.6347 6.6802-5.4665 1.1854 0.11894 2.2754 2.7853 2.7305 3.3424m-24.282-2.4365c0.45507 0.55706 1.5451 3.2234 2.7305 3.3424 1.6763 0.16821 5.0039-5.6347 6.6802-5.4665 1.1854 0.11894 2.2754 2.7853 2.7305 3.3424"/>
  <path fill="none" stroke="#8db241" stroke-dasharray="2,2" marker-end="url(#arrow2)" d="m336.88 319.89-88.459-8.9168"/>
  <path fill="none" stroke="#8db241" stroke-dasharray="2,2" d="m239.53 310.01-17.151-0.30392"/>
  <path fill="none" stroke="#18b7cf" stroke-dasharray="2,2" d="m199.27 185.17-16.536 6.3561 270.94 89.018"/>
  <path fill="none" stroke="#18b7cf" stroke-dasharray="2,2" d="m199.27 185.17 139.39 80.48 63.552-5.8872"/>
  <path fill="none" stroke="#18b7cf" stroke-dasharray="2,2" d="m199.27 185.17-12.247 14.684 36.005 31.782 103.36-13.473"/>
</svg>
