<?xml version="1.0" encoding="UTF-8" standalone="no"?>
<svg
   xmlns:dc="http://purl.org/dc/elements/1.1/"
   xmlns:cc="http://creativecommons.org/ns#"
   xmlns:rdf="http://www.w3.org/1999/02/22-rdf-syntax-ns#"
   xmlns:svg="http://www.w3.org/2000/svg"
   xmlns="http://www.w3.org/2000/svg"
   xmlns:sodipodi="http://sodipodi.sourceforge.net/DTD/sodipodi-0.dtd"
   xmlns:inkscape="http://www.inkscape.org/namespaces/inkscape"
   width="512"
   height="512"
   viewBox="0 0 511.99998 512"
   version="1.1"
   id="svg8"
   inkscape:version="1.0.1 (3bc2e813f5, 2020-09-07)"
   sodipodi:docname="creating-wavy-path.svg">
  <defs
     id="defs2">
    <inkscape:path-effect
       effect="skeletal"
       id="path-effect855"
       is_visible="true"
       lpeversion="1"
       pattern="#path3832"
       copytype="repeated"
       prop_scale="1"
       scale_y_rel="false"
       spacing="0"
       normal_offset="0"
       tang_offset="0"
       prop_units="false"
       vertical_pattern="false"
       hide_knot="false"
       fuse_tolerance="0" />
    <inkscape:path-effect
       effect="interpolate_points"
       id="path-effect841"
       is_visible="true"
       lpeversion="1"
       interpolator_type="CentripetalCatmullRom" />
    <inkscape:path-effect
       effect="interpolate_points"
       id="path-effect3852"
       is_visible="true"
       lpeversion="1"
       interpolator_type="CentripetalCatmullRom" />
  </defs>
  <sodipodi:namedview
     id="base"
     pagecolor="#ffffff"
     bordercolor="#666666"
     borderopacity="1.0"
     inkscape:pageopacity="0.0"
     inkscape:pageshadow="2"
     inkscape:zoom="2.8"
     inkscape:cx="222.80245"
     inkscape:cy="146.73851"
     inkscape:document-units="px"
     inkscape:current-layer="layer1"
     inkscape:document-rotation="0"
     showgrid="true"
     inkscape:snap-page="false"
     inkscape:object-paths="false"
     units="px"
     inkscape:showpageshadow="false"
     objecttolerance="20"
     width="24mm"
     inkscape:window-width="1920"
     inkscape:window-height="1017"
     inkscape:window-x="-8"
     inkscape:window-y="-8"
     inkscape:window-maximized="1">
    <inkscape:grid
       type="xygrid"
       id="grid10"
       empspacing="4"
       originx="0"
       originy="0"
       dotted="false" />
  </sodipodi:namedview>
  <metadata
     id="metadata5">
    <rdf:RDF>
      <cc:Work
         rdf:about="">
        <dc:format>image/svg+xml</dc:format>
        <dc:type
           rdf:resource="http://purl.org/dc/dcmitype/StillImage" />
        <dc:title></dc:title>
      </cc:Work>
    </rdf:RDF>
  </metadata>
  <g
     inkscape:label="Layer 1"
     inkscape:groupmode="layer"
     id="layer1"
     style="display:inline">
    <path
       style="display:inline;fill:none;stroke:#000000;stroke-width:1px;stroke-linecap:butt;stroke-linejoin:miter;stroke-opacity:1"
       d="m 256,132 c -0.66667,-0.66667 -2.4379,-4 -4,-4 -2.20914,0 -5.79086,8 -8,8 -1.5621,0 -3.33333,-3.33333 -4,-4"
       id="path3832"
       inkscape:path-effect="#path-effect3852"
       inkscape:original-d="m 256,132 -4,-4 -8,8 -4,-4"
       sodipodi:nodetypes="cccc" />
    <path
       style="display:inline;fill:none;stroke:#000000;stroke-width:1px;stroke-linecap:butt;stroke-linejoin:miter;stroke-opacity:1"
       d="m 256,112 -4,-4 -8,8 -4,-4"
       id="path839"
       sodipodi:nodetypes="cccc" />
    <path
       style="fill:none;stroke:#000000;stroke-width:1px;stroke-linecap:butt;stroke-linejoin:miter;stroke-opacity:1"
       d="m 208,152 c -0.66667,-0.66667 -2.4379,-4 -4,-4 -2.20914,0 -5.79086,8 -8,8 -1.5621,0 -3.33333,-3.33333 -4,-4 m 32,0 c -0.66667,-0.66667 -2.4379,-4 -4,-4 -2.20914,0 -5.79086,8 -8,8 -1.5621,0 -3.33333,-3.33333 -4,-4 m 32,0 c -0.66667,-0.66667 -2.4379,-4 -4,-4 -2.20914,0 -5.79086,8 -8,8 -1.5621,0 -3.33333,-3.33333 -4,-4 m 32,0 c -0.66667,-0.66667 -2.4379,-4 -4,-4 -2.20914,0 -5.79086,8 -8,8 -1.5621,0 -3.33333,-3.33333 -4,-4 m 32,0 c -0.66667,-0.66667 -2.4379,-4 -4,-4 -2.20914,0 -5.79086,8 -8,8 -1.5621,0 -3.33333,-3.33333 -4,-4 m 32,0 c -0.66667,-0.66667 -2.4379,-4 -4,-4 -2.20914,0 -5.79086,8 -8,8 -1.5621,0 -3.33333,-3.33333 -4,-4"
       id="path843"
       inkscape:path-effect="#path-effect855"
       inkscape:original-d="m 192,152 h 96" />
  </g>
</svg>
