<?xml version="1.0" encoding="UTF-8"?>
<svg width="360" height="185" version="1.1" xmlns="http://www.w3.org/2000/svg">
  <text id="count" x="178" y="170" font-family="B-Nazanin, sans-serif" font-size="36px" text-anchor="middle">۲۸۵</text>
  <g id="آذربایجانشرقی" fill="#7ec8a6">
    <circle cx="349.39" cy="175.56" r="4.44"/>
    <circle cx="338.27" cy="175.56" r="4.44"/>
    <circle cx="327.16" cy="175.56" r="4.44"/>
    <circle cx="316.04" cy="175.56" r="4.44"/>
    <circle cx="304.92" cy="175.56" r="4.44"/>
    <circle cx="293.8" cy="175.56" r="4.44"/>
    <circle cx="282.68" cy="175.56" r="4.44"/>
    <circle cx="271.56" cy="175.56" r="4.44"/>
    <circle cx="260.43" cy="175.56" r="4.44"/>
    <circle cx="348.6" cy="163.12" r="4.44"/>
    <circle cx="337.42" cy="163.06" r="4.44"/>
    <circle cx="326.24" cy="162.99" r="4.44"/>
    <circle cx="315.08" cy="163.28" r="4.44"/>
    <circle cx="303.87" cy="163.23" r="4.44"/>
    <circle cx="292.64" cy="163.16" r="4.44"/>
    <circle cx="281.37" cy="163.07" r="4.44"/>
    <circle cx="346.91" cy="150.78" r="4.44"/>
    <circle cx="335.59" cy="150.67" r="4.44"/>
    <circle cx="270.07" cy="162.97" r="4.44"/>
  </g>
  <g id="آذربایجانغربی" fill="#7561ba">
    <circle cx="324.25" cy="150.55" r="4.44"/>
    <circle cx="313.02" cy="151.15" r="4.44"/>
    <circle cx="258.71" cy="162.84" r="4.44"/>
    <circle cx="301.6" cy="151.06" r="4.44"/>
    <circle cx="344.31" cy="138.59" r="4.44"/>
    <circle cx="290.12" cy="150.96" r="4.44"/>
    <circle cx="332.79" cy="138.47" r="4.44"/>
    <circle cx="321.2" cy="138.33" r="4.44"/>
    <circle cx="278.56" cy="150.84" r="4.44"/>
    <circle cx="309.87" cy="139.25" r="4.44"/>
    <circle cx="340.82" cy="126.63" r="4.44"/>
    <circle cx="266.86" cy="150.71" r="4.44"/>
  </g>
  <g id="اردبیل" fill="#cbeb86">
    <circle cx="298.15" cy="139.18" r="4.44"/>
    <circle cx="329.03" cy="126.52" r="4.44"/>
    <circle cx="286.29" cy="139.11" r="4.44"/>
    <circle cx="317.12" cy="126.41" r="4.44"/>
    <circle cx="336.46" cy="114.96" r="4.44"/>
    <circle cx="305.65" cy="127.68" r="4.44"/>
    <circle cx="274.27" cy="139.05" r="4.44"/>
  </g>
  <g id="اصفهان" fill="#225c94">
    <circle cx="254.98" cy="150.55" r="4.44"/>
    <circle cx="324.34" cy="114.91" r="4.44"/>
    <circle cx="293.53" cy="127.69" r="4.44"/>
    <circle cx="312.04" cy="114.89" r="4.44"/>
    <circle cx="261.99" cy="139.01" r="4.44"/>
    <circle cx="331.26" cy="103.63" r="4.44"/>
    <circle cx="281.19" cy="127.75" r="4.44"/>
    <circle cx="300.41" cy="116.54" r="4.44"/>
    <circle cx="318.74" cy="103.71" r="4.44"/>
    <circle cx="287.8" cy="116.72" r="4.44"/>
    <circle cx="268.57" cy="127.86" r="4.44"/>
    <circle cx="249.35" cy="139.01" r="4.44"/>
    <circle cx="325.24" cy="92.73" r="4.44"/>
    <circle cx="305.99" cy="103.84" r="4.44"/>
    <circle cx="294.18" cy="105.92" r="4.44"/>
    <circle cx="312.28" cy="92.98" r="4.44"/>
    <circle cx="274.88" cy="117.01" r="4.44"/>
    <circle cx="255.55" cy="128.09" r="4.44"/>
    <circle cx="318.43" cy="82.29" r="4.44"/>
  </g>
  <g id="البرز" fill="#e96e5d">
    <circle cx="299.02" cy="93.35" r="4.44"/>
    <circle cx="281.02" cy="106.37" r="4.44"/>
    <circle cx="261.55" cy="117.45" r="4.44"/>
  </g>
  <g id="ایلام" fill="#471f5e">
    <circle cx="304.99" cy="82.8" r="4.44"/>
    <circle cx="287.02" cy="95.9" r="4.44"/>
    <circle cx="310.88" cy="72.38" r="4.44"/>
  </g>
  <g id="بوشهر" fill="#ab1461">
    <circle cx="241.96" cy="128.52" r="4.44"/>
    <circle cx="267.44" cy="107.02" r="4.44"/>
    <circle cx="291.18" cy="83.49" r="4.44"/>
    <circle cx="273.24" cy="96.75" r="4.44"/>
  </g>
  <g id="تهران" fill="#d772d4">
    <circle cx="296.91" cy="73.23" r="4.44"/>
    <circle cx="247.67" cy="118.16" r="4.44"/>
    <circle cx="278.99" cy="86.58" r="4.44"/>
    <circle cx="302.62" cy="63.05" r="4.44"/>
    <circle cx="253.32" cy="107.98" r="4.44"/>
    <circle cx="282.52" cy="74.34" r="4.44"/>
    <circle cx="258.95" cy="97.91" r="4.44"/>
    <circle cx="288.11" cy="64.32" r="4.44"/>
    <circle cx="264.55" cy="87.93" r="4.44"/>
    <circle cx="293.69" cy="54.36" r="4.44"/>
    <circle cx="270.14" cy="78.02" r="4.44"/>
    <circle cx="232.99" cy="119.33" r="4.44"/>
    <circle cx="238.49" cy="109.42" r="4.44"/>
    <circle cx="273.11" cy="65.96" r="4.44"/>
    <circle cx="278.63" cy="56.14" r="4.44"/>
    <circle cx="243.99" cy="99.58" r="4.44"/>
    <circle cx="284.15" cy="46.34" r="4.44"/>
    <circle cx="249.51" cy="89.78" r="4.44"/>
    <circle cx="255.03" cy="80.02" r="4.44"/>
    <circle cx="260.56" cy="70.29" r="4.44"/>
    <circle cx="263.02" cy="58.42" r="4.44"/>
    <circle cx="268.53" cy="48.73" r="4.44"/>
    <circle cx="274.05" cy="39.05" r="4.44"/>
    <circle cx="222.68" cy="111.68" r="4.44"/>
    <circle cx="228.19" cy="102.02" r="4.44"/>
    <circle cx="233.71" cy="92.38" r="4.44"/>
    <circle cx="239.24" cy="82.73" r="4.44"/>
    <circle cx="244.78" cy="73.09" r="4.44"/>
    <circle cx="250.32" cy="63.46" r="4.44"/>
    <circle cx="263.44" cy="32.52" r="4.44"/>
    <circle cx="257.88" cy="42.14" r="4.44"/>
    <circle cx="252.32" cy="51.77" r="4.44"/>
    <circle cx="239.5" cy="57.58" r="4.44"/>
    <circle cx="233.89" cy="67.21" r="4.44"/>
    <circle cx="252.37" cy="26.79" r="4.44"/>
  </g>
  <g id="چهارمحالوبختیاری" fill="#893b0e">
    <circle cx="228.27" cy="76.85" r="4.44"/>
    <circle cx="246.74" cy="36.42" r="4.44"/>
    <circle cx="241.1" cy="46.05" r="4.44"/>
    <circle cx="222.63" cy="86.48" r="4.44"/>
  </g>
  <g id="خراسانجنوبی" fill="#2a9d82">
    <circle cx="216.97" cy="96.12" r="4.44"/>
    <circle cx="211.28" cy="105.77" r="4.44"/>
    <circle cx="240.92" cy="21.89" r="4.44"/>
    <circle cx="228.19" cy="52.71" r="4.44"/>
  </g>
  <g id="خراسانرضوی" fill="#ae6f94">
    <circle cx="235.19" cy="31.6" r="4.44"/>
    <circle cx="222.47" cy="62.44" r="4.44"/>
    <circle cx="229.42" cy="41.32" r="4.44"/>
    <circle cx="216.72" cy="72.19" r="4.44"/>
    <circle cx="210.91" cy="81.98" r="4.44"/>
    <circle cx="229.14" cy="17.84" r="4.44"/>
    <circle cx="223.28" cy="27.7" r="4.44"/>
    <circle cx="205.05" cy="91.82" r="4.44"/>
    <circle cx="216.49" cy="48.87" r="4.44"/>
    <circle cx="217.39" cy="37.6" r="4.44"/>
    <circle cx="210.64" cy="58.81" r="4.44"/>
    <circle cx="199.09" cy="101.74" r="4.44"/>
    <circle cx="217.09" cy="14.66" r="4.44"/>
    <circle cx="204.72" cy="68.83" r="4.44"/>
    <circle cx="211.11" cy="24.75" r="4.44"/>
    <circle cx="198.73" cy="78.94" r="4.44"/>
    <circle cx="204.5" cy="46.11" r="4.44"/>
    <circle cx="205.08" cy="34.93" r="4.44"/>
  </g>
  <g id="خراسانشمالی" fill="#89131e">
    <circle cx="198.5" cy="56.38" r="4.44"/>
    <circle cx="204.84" cy="12.39" r="4.44"/>
    <circle cx="192.65" cy="89.21" r="4.44"/>
    <circle cx="198.75" cy="22.78" r="4.44"/>
  </g>
  <g id="خوزستان" fill="#c6b581">
    <circle cx="192.44" cy="66.79" r="4.44"/>
    <circle cx="192.3" cy="44.45" r="4.44"/>
    <circle cx="192.59" cy="33.32" r="4.44"/>
    <circle cx="186.42" cy="99.7" r="4.44"/>
    <circle cx="192.45" cy="11.01" r="4.44"/>
    <circle cx="186.28" cy="77.41" r="4.44"/>
    <circle cx="186.19" cy="55.15" r="4.44"/>
    <circle cx="186.26" cy="21.79" r="4.44"/>
    <circle cx="180" cy="10.56" r="4.44"/>
    <circle cx="180" cy="32.78" r="4.44"/>
    <circle cx="180" cy="43.89" r="4.44"/>
    <circle cx="180" cy="66.11" r="4.44"/>
    <circle cx="180" cy="88.33" r="4.44"/>
    <circle cx="173.74" cy="21.79" r="4.44"/>
    <circle cx="173.81" cy="55.15" r="4.44"/>
    <circle cx="173.72" cy="77.41" r="4.44"/>
    <circle cx="167.55" cy="11.01" r="4.44"/>
    <circle cx="173.58" cy="99.7" r="4.44"/>
  </g>
  <g id="زنجان" fill="#7ab7a0">
    <circle cx="167.41" cy="33.32" r="4.44"/>
    <circle cx="167.7" cy="44.45" r="4.44"/>
    <circle cx="167.56" cy="66.79" r="4.44"/>
    <circle cx="161.25" cy="22.78" r="4.44"/>
    <circle cx="167.35" cy="89.21" r="4.44"/>
  </g>
  <g id="سمنان" fill="#066ba0">
    <circle cx="155.16" cy="12.39" r="4.44"/>
    <circle cx="161.5" cy="56.38" r="4.44"/>
    <circle cx="154.92" cy="34.93" r="4.44"/>
    <circle cx="155.5" cy="46.11" r="4.44"/>
  </g>
  <g id="سیستانوبلوچستان" fill="#916a93">
    <circle cx="161.27" cy="78.94" r="4.44"/>
    <circle cx="148.89" cy="24.75" r="4.44"/>
    <circle cx="155.28" cy="68.83" r="4.44"/>
    <circle cx="142.91" cy="14.66" r="4.44"/>
    <circle cx="160.91" cy="101.74" r="4.44"/>
    <circle cx="149.36" cy="58.81" r="4.44"/>
    <circle cx="142.61" cy="37.6" r="4.44"/>
    <circle cx="143.51" cy="48.87" r="4.44"/>
  </g>
  <g id="فارس" fill="#965957">
    <circle cx="154.95" cy="91.82" r="4.44"/>
    <circle cx="136.72" cy="27.7" r="4.44"/>
    <circle cx="130.86" cy="17.84" r="4.44"/>
    <circle cx="149.09" cy="81.98" r="4.44"/>
    <circle cx="143.28" cy="72.19" r="4.44"/>
    <circle cx="130.58" cy="41.32" r="4.44"/>
    <circle cx="137.53" cy="62.44" r="4.44"/>
    <circle cx="124.81" cy="31.6" r="4.44"/>
    <circle cx="131.81" cy="52.71" r="4.44"/>
    <circle cx="119.08" cy="21.89" r="4.44"/>
    <circle cx="148.72" cy="105.77" r="4.44"/>
    <circle cx="143.03" cy="96.12" r="4.44"/>
    <circle cx="137.37" cy="86.48" r="4.44"/>
    <circle cx="118.9" cy="46.05" r="4.44"/>
    <circle cx="113.26" cy="36.42" r="4.44"/>
    <circle cx="131.73" cy="76.85" r="4.44"/>
    <circle cx="107.63" cy="26.79" r="4.44"/>
    <circle cx="126.11" cy="67.21" r="4.44"/>
  </g>
  <g id="قزوین" fill="#f5bf1d">
    <circle cx="120.5" cy="57.58" r="4.44"/>
    <circle cx="107.68" cy="51.77" r="4.44"/>
    <circle cx="102.12" cy="42.14" r="4.44"/>
    <circle cx="96.56" cy="32.52" r="4.44"/>
  </g>
  <g id="قم" fill="#8c6bb8">
    <circle cx="109.68" cy="63.46" r="4.44"/>
    <circle cx="115.22" cy="73.09" r="4.44"/>
    <circle cx="120.76" cy="82.73" r="4.44"/>
  </g>
  <g id="کردستان" fill="#1a972b">
    <circle cx="126.29" cy="92.38" r="4.44"/>
    <circle cx="131.81" cy="102.02" r="4.44"/>
    <circle cx="137.32" cy="111.68" r="4.44"/>
    <circle cx="85.95" cy="39.05" r="4.44"/>
    <circle cx="91.47" cy="48.73" r="4.44"/>
    <circle cx="96.98" cy="58.42" r="4.44"/>
  </g>
  <g id="کرمان" fill="#8b87f3">
    <circle cx="99.44" cy="70.29" r="4.44"/>
    <circle cx="104.97" cy="80.02" r="4.44"/>
    <circle cx="110.49" cy="89.78" r="4.44"/>
    <circle cx="75.85" cy="46.34" r="4.44"/>
    <circle cx="116.01" cy="99.58" r="4.44"/>
    <circle cx="81.37" cy="56.14" r="4.44"/>
    <circle cx="86.89" cy="65.96" r="4.44"/>
    <circle cx="121.51" cy="109.42" r="4.44"/>
    <circle cx="127.01" cy="119.33" r="4.44"/>
    <circle cx="89.86" cy="78.02" r="4.44"/>
  </g>
  <g id="کرمانشاه" fill="#067aeb">
    <circle cx="66.31" cy="54.36" r="4.44"/>
    <circle cx="95.45" cy="87.93" r="4.44"/>
    <circle cx="71.89" cy="64.32" r="4.44"/>
    <circle cx="101.05" cy="97.91" r="4.44"/>
    <circle cx="77.48" cy="74.34" r="4.44"/>
    <circle cx="106.68" cy="107.98" r="4.44"/>
    <circle cx="57.38" cy="63.05" r="4.44"/>
    <circle cx="81.01" cy="86.58" r="4.44"/>
  </g>
  <g id="کهگیلویهوبویراحمد" fill="#722d84">
    <circle cx="112.33" cy="118.16" r="4.44"/>
    <circle cx="63.09" cy="73.23" r="4.44"/>
    <circle cx="86.76" cy="96.75" r="4.44"/>
  </g>
  <g id="گلستان" fill="#fa86a0">
    <circle cx="68.82" cy="83.49" r="4.44"/>
    <circle cx="92.56" cy="107.02" r="4.44"/>
    <circle cx="118.04" cy="128.52" r="4.44"/>
    <circle cx="49.12" cy="72.38" r="4.44"/>
    <circle cx="72.98" cy="95.9" r="4.44"/>
    <circle cx="55.01" cy="82.8" r="4.44"/>
    <circle cx="98.45" cy="117.45" r="4.44"/>
  </g>
  <g id="گیلان" fill="#4880eb">
    <circle cx="78.98" cy="106.37" r="4.44"/>
    <circle cx="60.98" cy="93.35" r="4.44"/>
    <circle cx="41.57" cy="82.29" r="4.44"/>
    <circle cx="104.45" cy="128.09" r="4.44"/>
    <circle cx="85.12" cy="117.01" r="4.44"/>
    <circle cx="47.72" cy="92.98" r="4.44"/>
    <circle cx="65.82" cy="105.92" r="4.44"/>
    <circle cx="54.01" cy="103.84" r="4.44"/>
    <circle cx="34.76" cy="92.73" r="4.44"/>
    <circle cx="110.65" cy="139.01" r="4.44"/>
    <circle cx="91.43" cy="127.86" r="4.44"/>
    <circle cx="72.2" cy="116.72" r="4.44"/>
    <circle cx="41.26" cy="103.71" r="4.44"/>
  </g>
  <g id="لرستان" fill="#182717">
    <circle cx="59.59" cy="116.54" r="4.44"/>
    <circle cx="78.81" cy="127.75" r="4.44"/>
    <circle cx="28.74" cy="103.63" r="4.44"/>
    <circle cx="98.01" cy="139.01" r="4.44"/>
    <circle cx="47.96" cy="114.89" r="4.44"/>
    <circle cx="66.47" cy="127.69" r="4.44"/>
    <circle cx="35.66" cy="114.91" r="4.44"/>
    <circle cx="85.73" cy="139.05" r="4.44"/>
    <circle cx="54.35" cy="127.68" r="4.44"/>
  </g>
  <g id="مازندران" fill="#46d4a2">
    <circle cx="23.54" cy="114.96" r="4.44"/>
    <circle cx="105.02" cy="150.55" r="4.44"/>
    <circle cx="42.88" cy="126.41" r="4.44"/>
    <circle cx="73.71" cy="139.11" r="4.44"/>
    <circle cx="30.97" cy="126.52" r="4.44"/>
    <circle cx="61.85" cy="139.18" r="4.44"/>
    <circle cx="93.14" cy="150.71" r="4.44"/>
    <circle cx="19.18" cy="126.63" r="4.44"/>
    <circle cx="50.13" cy="139.25" r="4.44"/>
    <circle cx="81.44" cy="150.84" r="4.44"/>
    <circle cx="38.8" cy="138.33" r="4.44"/>
    <circle cx="27.21" cy="138.47" r="4.44"/>
  </g>
  <g id="مرکزی" fill="#6f14e1">
    <circle cx="69.88" cy="150.96" r="4.44"/>
    <circle cx="15.69" cy="138.59" r="4.44"/>
    <circle cx="58.4" cy="151.06" r="4.44"/>
    <circle cx="101.29" cy="162.84" r="4.44"/>
    <circle cx="46.98" cy="151.15" r="4.44"/>
    <circle cx="35.75" cy="150.55" r="4.44"/>
    <circle cx="89.93" cy="162.97" r="4.44"/>
  </g>
  <g id="هرمزگان" fill="#476cff">
    <circle cx="24.41" cy="150.67" r="4.44"/>
    <circle cx="13.09" cy="150.78" r="4.44"/>
    <circle cx="78.63" cy="163.07" r="4.44"/>
    <circle cx="67.36" cy="163.16" r="4.44"/>
    <circle cx="56.13" cy="163.23" r="4.44"/>
  </g>
  <g id="همدان" fill="#930995">
    <circle cx="44.92" cy="163.28" r="4.44"/>
    <circle cx="33.76" cy="162.99" r="4.44"/>
    <circle cx="22.58" cy="163.06" r="4.44"/>
    <circle cx="11.4" cy="163.12" r="4.44"/>
    <circle cx="99.57" cy="175.56" r="4.44"/>
    <circle cx="88.44" cy="175.56" r="4.44"/>
    <circle cx="77.32" cy="175.56" r="4.44"/>
    <circle cx="66.2" cy="175.56" r="4.44"/>
    <circle cx="55.08" cy="175.56" r="4.44"/>
  </g>
  <g id="یزد" fill="#f39091">
    <circle cx="43.96" cy="175.56" r="4.44"/>
    <circle cx="32.84" cy="175.56" r="4.44"/>
    <circle cx="21.73" cy="175.56" r="4.44"/>
    <circle cx="10.61" cy="175.56" r="4.44"/>
  </g>
</svg>
