<?xml version="1.0" encoding="UTF-8" standalone="no"?>
<svg
   xmlns:dc="http://purl.org/dc/elements/1.1/"
   xmlns:cc="http://creativecommons.org/ns#"
   xmlns:rdf="http://www.w3.org/1999/02/22-rdf-syntax-ns#"
   xmlns:svg="http://www.w3.org/2000/svg"
   xmlns="http://www.w3.org/2000/svg"
   xmlns:xlink="http://www.w3.org/1999/xlink"
   xmlns:sodipodi="http://sodipodi.sourceforge.net/DTD/sodipodi-0.dtd"
   xmlns:inkscape="http://www.inkscape.org/namespaces/inkscape"
   width="512"
   height="512"
   viewBox="0 0 511.99998 512"
   version="1.1"
   id="svg8"
   inkscape:version="1.0.1 (3bc2e813f5, 2020-09-07)"
   sodipodi:docname="3-optimized.svg">
  <defs
     id="defs2">
    <linearGradient
       inkscape:collect="always"
       id="linearGradient984">
      <stop
         style="stop-color:#b2b2b2;stop-opacity:1;"
         offset="0"
         id="stop980" />
      <stop
         style="stop-color:#b2b2b2;stop-opacity:0;"
         offset="1"
         id="stop982" />
    </linearGradient>
    <inkscape:path-effect
       effect="clone_original"
       id="path-effect929"
       is_visible="true"
       lpeversion="1"
       linkeditem=""
       method="d"
       attributes=""
       css_properties=""
       allow_transforms="true" />
    <inkscape:path-effect
       effect="mirror_symmetry"
       start_point="251,165"
       end_point="212,219"
       center_point="231.5,192"
       id="path-effect924"
       is_visible="true"
       lpeversion="1"
       mode="free"
       discard_orig_path="false"
       fuse_paths="false"
       oposite_fuse="false"
       split_items="false" />
    <linearGradient
       inkscape:collect="always"
       xlink:href="#linearGradient984"
       id="linearGradient986"
       x1="259.5"
       y1="216.746"
       x2="259.5"
       y2="288"
       gradientUnits="userSpaceOnUse" />
  </defs>
  <sodipodi:namedview
     id="base"
     pagecolor="#ffffff"
     bordercolor="#666666"
     borderopacity="1.0"
     inkscape:pageopacity="0.0"
     inkscape:pageshadow="2"
     inkscape:zoom="2.8284271"
     inkscape:cx="292.7882"
     inkscape:cy="232.93991"
     inkscape:document-units="px"
     inkscape:current-layer="layer1"
     inkscape:document-rotation="0"
     showgrid="false"
     inkscape:snap-page="false"
     inkscape:object-paths="false"
     units="px"
     inkscape:showpageshadow="false"
     objecttolerance="20"
     width="24mm"
     inkscape:window-width="1920"
     inkscape:window-height="1017"
     inkscape:window-x="-8"
     inkscape:window-y="-8"
     inkscape:window-maximized="1"
     showguides="true"
     inkscape:guide-bbox="true"
     inkscape:snap-grids="false"
     inkscape:snap-smooth-nodes="true">
    <inkscape:grid
       type="xygrid"
       id="grid10"
       empspacing="4"
       originx="0"
       originy="0"
       dotted="false" />
    <sodipodi:guide
       position="259.49999,340"
       orientation="-1,0"
       id="guide897"
       inkscape:label=""
       inkscape:locked="true"
       inkscape:color="rgb(0,0,255)" />
    <sodipodi:guide
       position="354.75802,464.85707"
       orientation="1,0"
       id="guide988" />
  </sodipodi:namedview>
  <metadata
     id="metadata5">
    <rdf:RDF>
      <cc:Work
         rdf:about="">
        <dc:format>image/svg+xml</dc:format>
        <dc:type
           rdf:resource="http://purl.org/dc/dcmitype/StillImage" />
        <dc:title />
      </cc:Work>
    </rdf:RDF>
  </metadata>
  <g
     inkscape:label="vector"
     inkscape:groupmode="layer"
     id="layer1"
     style="display:inline">
    <path
       style="fill:url(#linearGradient986);fill-opacity:1;stroke:#141414;stroke-width:1px;stroke-linecap:butt;stroke-linejoin:miter;stroke-opacity:1"
       d="M 354.75803,61.143379 C 296.0534,61.143376 246.90505,105.59311 241,164 l -8,1 -4,7 h -9 -22 v 167 h -32 v 26 h 35 v 67 h 117 v -67 h 35 V 339 H 321 V 172 h -22 -9 l -4,-7 -8,-1 c 5.76028,-41.14969 35.1807,-71.812073 76.7316,-71.812073"
       id="path969"
       sodipodi:nodetypes="cccccccccccccccccccccc" />
    <path
       style="fill:#b2b2b2;stroke:#000000;stroke-width:1px;stroke-linecap:butt;stroke-linejoin:miter;stroke-opacity:1;fill-opacity:1"
       d="M 204,484 V 358 h 111 v 126 z"
       id="path847"
       sodipodi:nodetypes="ccccc" />
    <path
       id="path849"
       style="fill:#6f6f6f;fill-rule:evenodd;stroke:#000000;stroke-width:1;stroke-linecap:square;stroke-linejoin:round;stroke-miterlimit:4;stroke-dasharray:none;stop-color:#000000;fill-opacity:1"
       d="m 259.50097,414.94043 a 18.059378,18.059378 0 0 0 -18.06054,18.06055 18.059378,18.059378 0 0 0 18.06054,18.05859 18.059378,18.059378 0 0 0 18.0586,-18.05859 18.059378,18.059378 0 0 0 -18.0586,-18.06055 z m 0,5.64844 a 12.411896,12.411896 0 0 1 12.41016,12.41211 12.411896,12.411896 0 0 1 -12.41016,12.41211 12.411896,12.411896 0 0 1 -12.41211,-12.41211 12.411896,12.411896 0 0 1 12.41211,-12.41211 z" />
    <path
       style="fill:#6f6f6f;stroke:#000000;stroke-width:1px;stroke-linecap:butt;stroke-linejoin:miter;stroke-opacity:1;fill-opacity:1"
       d="m 207,358 v -19 h 18 v 19 z"
       id="path864" />
    <path
       style="fill:#6f6f6f;stroke:#000000;stroke-width:1px;stroke-linecap:butt;stroke-linejoin:miter;stroke-opacity:1;fill-opacity:1"
       d="m 294,358 v -19 h 18 v 19 z"
       id="path866" />
    <path
       style="fill:#6f6f6f;stroke:#000000;stroke-width:1px;stroke-linecap:butt;stroke-linejoin:miter;stroke-opacity:1;fill-opacity:1"
       d="m 232,358 v -19 h 24 v 19 z"
       id="path868" />
    <path
       style="fill:#6f6f6f;stroke:#000000;stroke-width:1px;stroke-linecap:butt;stroke-linejoin:miter;stroke-opacity:1;fill-opacity:1"
       d="m 263,358 v -19 h 24 v 19 z"
       id="path870" />
    <path
       style="fill:#6f6f6f;stroke:#000000;stroke-width:1px;stroke-linecap:butt;stroke-linejoin:miter;stroke-opacity:1;fill-opacity:1"
       d="m 199,363 h -31 v -22 h 31 z"
       id="path872"
       sodipodi:nodetypes="ccccc" />
    <path
       style="color:#000000;font-style:normal;font-variant:normal;font-weight:normal;font-stretch:normal;font-size:medium;line-height:normal;font-family:sans-serif;font-variant-ligatures:normal;font-variant-position:normal;font-variant-caps:normal;font-variant-numeric:normal;font-variant-alternates:normal;font-variant-east-asian:normal;font-feature-settings:normal;font-variation-settings:normal;text-indent:0;text-align:start;text-decoration:none;text-decoration-line:none;text-decoration-style:solid;text-decoration-color:#000000;letter-spacing:normal;word-spacing:normal;text-transform:none;writing-mode:lr-tb;direction:ltr;text-orientation:mixed;dominant-baseline:auto;baseline-shift:baseline;text-anchor:start;white-space:normal;shape-padding:0;shape-margin:0;inline-size:0;clip-rule:nonzero;display:inline;overflow:visible;visibility:visible;opacity:1;isolation:auto;mix-blend-mode:normal;color-interpolation:sRGB;color-interpolation-filters:linearRGB;solid-color:#000000;solid-opacity:1;vector-effect:none;fill:#424242;fill-opacity:1;fill-rule:nonzero;stroke:#141414;stroke-width:1;stroke-linecap:butt;stroke-linejoin:miter;stroke-miterlimit:4;stroke-dasharray:none;stroke-dashoffset:0;stroke-opacity:1;color-rendering:auto;image-rendering:auto;shape-rendering:auto;text-rendering:auto;enable-background:accumulate;stop-color:#000000;stop-opacity:1"
       d="m 184,158 v 167 h -32 v 54 h 35 v 54 h 14 v -68 h -35 v -26 h 32 V 172 h 22 v -14 z"
       id="path912" />
    <path
       style="fill:#424242;stroke:#141414;stroke-width:1px;stroke-linecap:butt;stroke-linejoin:miter;stroke-opacity:1;fill-opacity:1"
       d="M 354.75803,61.143379 C 296.0534,61.143376 246.90505,105.59311 241,164 l -8,1 -4,7 h -9 v -14 l 4,-7 4.89038,-0.6113 C 240.88048,90.378846 293.56207,47.142925 354.75803,47.142929"
       id="path906"
       sodipodi:nodetypes="ccccccccc" />
    <path
       style="color:#000000;font-style:normal;font-variant:normal;font-weight:normal;font-stretch:normal;font-size:medium;line-height:normal;font-family:sans-serif;font-variant-ligatures:normal;font-variant-position:normal;font-variant-caps:normal;font-variant-numeric:normal;font-variant-alternates:normal;font-variant-east-asian:normal;font-feature-settings:normal;font-variation-settings:normal;text-indent:0;text-align:start;text-decoration:none;text-decoration-line:none;text-decoration-style:solid;text-decoration-color:#000000;letter-spacing:normal;word-spacing:normal;text-transform:none;writing-mode:lr-tb;direction:ltr;text-orientation:mixed;dominant-baseline:auto;baseline-shift:baseline;text-anchor:start;white-space:normal;shape-padding:0;shape-margin:0;inline-size:0;clip-rule:nonzero;display:inline;overflow:visible;visibility:visible;opacity:1;isolation:auto;mix-blend-mode:normal;color-interpolation:sRGB;color-interpolation-filters:linearRGB;solid-color:#000000;solid-opacity:1;vector-effect:none;fill:#424242;fill-opacity:1;fill-rule:nonzero;stroke:#141414;stroke-width:1;stroke-linecap:butt;stroke-linejoin:miter;stroke-miterlimit:4;stroke-dasharray:none;stroke-dashoffset:0;stroke-opacity:1;color-rendering:auto;image-rendering:auto;shape-rendering:auto;text-rendering:auto;enable-background:accumulate;stop-color:#000000;stop-opacity:1"
       d="m 335,158 v 167 h 32 v 54 h -35 v 54 h -14 v -68 h 35 V 339 H 321 V 172 h -22 v -14 z"
       id="path49" />
    <path
       style="fill:#424242;fill-opacity:1;stroke:#141414;stroke-width:1px;stroke-linecap:butt;stroke-linejoin:miter;stroke-opacity:1"
       d="M 354.7316,92.187927 C 313.1807,92.187927 283.76028,122.85031 278,164 l 8,1 4,7 h 9 v -14 l -3,-6 h -1 c 9.92884,-27.45012 30.541,-45.81164 59.7316,-45.81164"
       id="path867"
       sodipodi:nodetypes="ccccccccc" />
    <path
       id="path917"
       style="fill:#6f6f6f;stroke:#000000;stroke-width:1px;stroke-linecap:butt;stroke-linejoin:miter;stroke-opacity:1;fill-opacity:1"
       d="m 256.625,24 v 164 c 0,0 -3.10685,9.51336 -15,11 l -8,1 -4,7 h 29.875 29.875 l -4,-7 -8,-1 c -11.89315,-1.48664 -15,-11 -15,-11 V 24 H 259.5 Z"
       sodipodi:nodetypes="ccscccccscccc" />
    <path
       style="fill:#00ffce;stroke:#000000;stroke-width:1px;stroke-linecap:butt;stroke-linejoin:miter;stroke-opacity:1;fill-opacity:1"
       d="m 246,182 7.21736,3.45105 -3.51226,-21.63133 -19.04199,10.84679 7.21735,3.45105 C 230,191.76692 211,192 211,228 h 9 c 0,-36 17.9171,-32 26,-46 z"
       id="path925"
       sodipodi:nodetypes="cccccccc" />
    <path
       style="fill:#00ffce;stroke:#000000;stroke-width:1px;stroke-linecap:butt;stroke-linejoin:miter;stroke-opacity:1;fill-opacity:1"
       d="m 273,182 -7.21736,3.45105 3.51226,-21.63133 19.04199,10.84679 -7.21735,3.45105 C 289,191.76692 308,192 308,228 h -9 c 0,-36 -17.9171,-32 -26,-46 z"
       id="path939"
       sodipodi:nodetypes="cccccccc" />
    <path
       style="fill:#6f6f6f;stroke:#000000;stroke-width:1px;stroke-linecap:butt;stroke-linejoin:miter;stroke-opacity:1;fill-opacity:1"
       d="m 351,363 h -31 v -22 h 31 z"
       id="path953"
       sodipodi:nodetypes="ccccc" />
    <path
       style="fill:#00ffce;stroke:#000000;stroke-width:1px;stroke-linecap:butt;stroke-linejoin:miter;stroke-opacity:1;fill-opacity:1"
       d="m 184,353 c 31,0 51,-19 51,-47 h 8 L 230.5,288 218,306 h 8 c 0,24 -17,38 -42,38 z"
       id="path884"
       sodipodi:nodetypes="cccccccc" />
    <path
       style="fill:#00ffce;stroke:#000000;stroke-width:1px;stroke-linecap:butt;stroke-linejoin:miter;stroke-opacity:1;fill-opacity:1"
       d="m 335,353 c -31,0 -51,-19 -51,-47 h -8 l 12.5,-18 12.5,18 h -8 c 0,24 17,38 42,38 z"
       id="path875"
       sodipodi:nodetypes="cccccccc" />
    <path
       style="fill:#00ffce;stroke:#000000;stroke-width:1px;stroke-linecap:butt;stroke-linejoin:miter;stroke-opacity:1;fill-opacity:1"
       d="M 272,306 259.5,288 247,306 h 8 c 0,25 -9,38 -16,38 v 9 c 7.10671,0 15.47323,-5.01606 20.5,-18 5.02549,13.00639 13.38777,18 20.5,18 v -9 c -7,0 -16,-13 -16,-38 z"
       id="path900"
       sodipodi:nodetypes="ccccccccccc" />
    <path
       style="fill:#b2b2b2;stroke:#000000;stroke-width:1px;stroke-linecap:butt;stroke-linejoin:miter;stroke-opacity:1;fill-opacity:1"
       d="m 201,392 h 117 v -8 H 201 Z"
       id="path856"
       sodipodi:nodetypes="cccc" />
    <path
       style="fill:#b2b2b2;stroke:#000000;stroke-width:1px;stroke-linecap:butt;stroke-linejoin:miter;stroke-opacity:1;fill-opacity:1"
       d="m 201,380 h 117 v -8 H 201 Z"
       id="path967"
       sodipodi:nodetypes="cccc" />
    <path
       style="fill:none;stroke:#000000;stroke-width:1px;stroke-linecap:butt;stroke-linejoin:miter;stroke-opacity:1"
       d="M 233.625,200 H 259.5 285.375"
       id="path928"
       sodipodi:nodetypes="ccc" />
    <path
       style="fill:none;stroke:#000000;stroke-width:1px;stroke-linecap:butt;stroke-linejoin:miter;stroke-opacity:1"
       d="M 262.375,188 H 259.5 256.625"
       id="path913"
       sodipodi:nodetypes="ccc" />
  </g>
</svg>
