<svg viewBox="0 0 512 512" xmlns="http://www.w3.org/2000/svg">
  <defs>
    <linearGradient id="gradient" x1="256" x2="256" y1="135" y2="365" gradientUnits="userSpaceOnUse">
      <stop stop-color="#f9f" offset="0"/>
      <stop stop-color="#fb3" offset="1"/>
    </linearGradient>
  </defs>

  <g fill="#444" stroke="#444">
    <path fill="url(#gradient)" d="m351.26 63.143c-58.705-3e-6 -107.85 44.45-113.76 102.86l-8 1-4 7h-31v167h-32v26h35v67h117v-67h35v-26h-32v-167h-31l-4-7-8-1c5.7603-41.15 35.181-71.812 76.732-71.812"/>
    <path d="m351.26 63.143c-58.705-3e-6 -107.85 44.45-113.76 102.86l-8 1-4 7-9-1e-3 -22-1e-3v167h-32v26h35v68h-14v-54h-35v-54h32v-167l38 1e-3 6.8904-7.6098c11.99-60.01 64.672-103.25 125.87-103.25"/>
    <path d="m351.23 94.188c-41.551 0-70.971 30.662-76.732 71.812l8 1 4 7h31.002v167h32v26h-35v68h14v-54h35v-54h-32v-167h-36.001l-4.001-6c9.9288-27.45 30.541-45.812 59.732-45.812"/>
  </g>

  <g stroke="#000">
    <g fill="#b2b2b2">
      <path d="m200.5 486v-126h111v126z"/>
      <path d="m197.5 382h117v-8h-117z"/>
      <path d="m197.5 394h117v-8h-117z"/>
      <path d="m253.12 26v164s-3.1068 9.5134-15 11l-8 1-4 7h59.75l-4-7-8-1c-11.893-1.4866-15-11-15-11v-164h-2.875z"/>
      <path d="m230.12 202h51.75"/>
      <path d="m258.88 190h-5.75"/>
    </g>
    <g fill="#6f6f6f">
      <path d="m256 416.94a18.059 18.059 0 0 0-18.061 18.061 18.059 18.059 0 0 0 18.061 18.059 18.059 18.059 0 0 0 18.059-18.059 18.059 18.059 0 0 0-18.059-18.061zm0 5.6484a12.412 12.412 0 0 1 12.41 12.412 12.412 12.412 0 0 1-12.41 12.412 12.412 12.412 0 0 1-12.412-12.412 12.412 12.412 0 0 1 12.412-12.412z"/>
      <path d="m347.5 365h-31v-22h31z"/>
      <path d="m203.5 360v-19h18v19z"/>
      <path d="m290.5 360v-19h18v19z"/>
      <path d="m228.5 360v-19h24v19z"/>
      <path d="m259.5 360v-19h24v19z"/>
      <path d="m195.5 365h-31v-22h31z"/>
    </g>
    <g fill="#0ff">
      <path d="m269.5 184-7.2174 3.451 3.5123-21.631 19.042 10.847-7.2174 3.451c7.8805 13.649 26.88 13.882 26.88 49.882h-9c3.4517-26.802-18.048-33.362-26-46z"/>
      <path d="m180.5 355c31 0 51-19 51-47h8l-12.5-18-12.5 18h8c0 24-17 38-42 38z"/>
      <path d="m331.5 355c-31 0-51-19-51-47h-8l12.5-18 12.5 18h-8c0 24 17 38 42 38z"/>
      <path d="m268.5 308-12.5-18-12.5 18h8c0 25-9 38-16 38v9c7.1067 0 15.473-5.0161 20.5-18 5.0255 13.006 13.388 18 20.5 18v-9c-7 0-16-13-16-38z"/>
      <path d="m242.5 184 7.2174 3.451-3.5123-21.631-19.042 10.847 7.2174 3.451c-7.8805 13.649-26.88 13.882-26.88 49.882h9c-3.4517-26.802 18.048-33.362 26-46z"/>
    </g>
  </g>
</svg>
