<?xml version="1.0" encoding="UTF-8" standalone="no"?>
<svg
   xmlns:dc="http://purl.org/dc/elements/1.1/"
   xmlns:cc="http://creativecommons.org/ns#"
   xmlns:rdf="http://www.w3.org/1999/02/22-rdf-syntax-ns#"
   xmlns:svg="http://www.w3.org/2000/svg"
   xmlns="http://www.w3.org/2000/svg"
   xmlns:xlink="http://www.w3.org/1999/xlink"
   xmlns:sodipodi="http://sodipodi.sourceforge.net/DTD/sodipodi-0.dtd"
   xmlns:inkscape="http://www.inkscape.org/namespaces/inkscape"
   width="383"
   height="377"
   viewBox="0 0 383 377"
   version="1.1"
   id="svg8"
   inkscape:version="1.0.1 (3bc2e813f5, 2020-09-07)"
   sodipodi:docname="map.svg">
  <defs
     id="defs2" />
  <sodipodi:namedview
     id="base"
     pagecolor="#ffffff"
     bordercolor="#666666"
     borderopacity="1.0"
     inkscape:pageopacity="0.0"
     inkscape:pageshadow="2"
     inkscape:zoom="1"
     inkscape:cx="106.67215"
     inkscape:cy="171.15522"
     inkscape:document-units="px"
     inkscape:current-layer="layer2"
     inkscape:document-rotation="0"
     showgrid="false"
     inkscape:snap-page="false"
     inkscape:object-paths="false"
     units="px"
     inkscape:showpageshadow="false"
     objecttolerance="20"
     width="24mm"
     inkscape:window-width="1920"
     inkscape:window-height="1017"
     inkscape:window-x="-8"
     inkscape:window-y="-8"
     inkscape:window-maximized="1"
     lock-margins="true"
     fit-margin-top="16"
     fit-margin-left="16"
     fit-margin-right="16"
     fit-margin-bottom="16">
    <inkscape:grid
       type="xygrid"
       id="grid10"
       empspacing="4"
       originx="-67.629029"
       originy="-65.342704"
       dotted="false"
       spacingx="3.9999999"
       spacingy="3.9999999" />
  </sodipodi:namedview>
  <metadata
     id="metadata5">
    <rdf:RDF>
      <cc:Work
         rdf:about="">
        <dc:format>image/svg+xml</dc:format>
        <dc:type
           rdf:resource="http://purl.org/dc/dcmitype/StillImage" />
        <dc:title></dc:title>
      </cc:Work>
    </rdf:RDF>
  </metadata>
  <g
     inkscape:groupmode="layer"
     id="layer2"
     inkscape:label="bg"
     style="display:none;opacity:1"
     transform="translate(-67.629032,-65.342704)">
    <image
       width="375.84"
       height="357.60001"
       preserveAspectRatio="none"
       xlink:href="3-enhanced.png"
       id="image888"
       x="68.080002"
       y="77.199997"
       style="display:inline" />
  </g>
  <g
     inkscape:groupmode="layer"
     id="layer9"
     inkscape:label="بافق"
     style="display:inline"
     transform="translate(-67.629032,-65.342704)">
    <path
       style="display:inline;fill:#ffedaf;fill-opacity:1;stroke:#000000;stroke-width:0.2;stroke-miterlimit:4;stroke-dasharray:none;stroke-opacity:1"
       d="m 390.50014,247.42208 c -2.07313,-0.12074 -3.48828,-0.14214 -5.61282,-0.85333 -0.27429,-0.0918 -0.28716,0.47726 -0.58068,0.41226 0.552,1.10535 -4.71923,2.86399 -8.07345,6.05981 -1.399,1.33294 -1.94338,3.65425 -3.58993,4.68207 -0.83571,1.18371 -1.0878,3.38873 -2.44859,3.96156 -0.6013,1.13982 -1.01159,3.22564 -1.76708,4.16925 -1.21774,1.11163 -2.01903,1.69456 -4.32674,1.92372 -1.93442,2.20252 -4.73382,4.55914 -6.92505,5.77162 -6.65127,2.29873 -12.39735,3.41683 -19.33615,5.17843 -10.0037,2.5392 -19.01718,4.9853 -29.24021,8.42063 -2.85278,-12.2376 -8.2377,-7.85317 -10.75576,-15.23013 -3.44607,-6.89608 -4.26791,-13.78053 -6.41767,-20.30726 -0.86775,-1.23734 -1.95413,-2.40636 -3.14041,-3.40228 -7.66734,-6.43698 -18.18952,-11.96901 -26.65049,-16.37391 0,0 0.21137,-1.91374 0.23047,-2.00094 0.54643,-2.49049 3.76089,-6.43715 6.39395,-10.58324 -0.84152,-1.90242 -3.22384,-5.27379 -4.70293,-7.60564 1.59005,-1.50635 4.90269,-3.67106 6.24761,-5.34405 4.41101,-5.16275 14.38936,-6.04402 28.33046,-8.8844 12.874,-2.44984 17.8606,-3.93159 31.02599,-7.01619 2.84978,12.1508 -0.74051,11.35763 3.50253,17.2834 0.86444,1.18919 4.25942,2.69153 9.36149,4.08546 4.71729,2.08295 9.2962,3.17239 12.35311,3.81084 -2.355,4.1961 -3.16584,7.05342 0.51464,12.43479 0.32799,0.47958 1.07549,1.13269 2.17782,1.21299 1.36243,-0.19793 1.96951,-1.2351 5.27024,-3.42364 l 2.03971,-0.16372 1.69808,-1.31457 c 0.32364,0.49512 0.14167,1.09256 0.48072,1.58714 1.36396,1.98959 2.09741,2.98865 4.79125,5.70229 0.83772,1.29535 0.31232,2.5173 3.27105,4.09658 1.53063,2.09385 0.24775,3.74239 0.71322,5.37161 2.34746,-0.51651 3.9397,-0.60554 7.09797,-2.06923 0.96484,-0.31832 0.94603,0.96711 2.17721,1.76241 0.97112,0.25029 1.73901,-0.24424 2.68991,0.63171 1.1446,0.10362 4.8889,3.04883 6.11546,6.91337 -1.44946,0.10096 -2.17842,-0.85651 -2.91493,-0.89941 z"
       id="path1192-5"
       sodipodi:nodetypes="sscscccccccccsccccccccccsccccscccccccs" />
  </g>
  <g
     inkscape:groupmode="layer"
     id="layer10"
     inkscape:label="بهاباد"
     style="display:inline"
     transform="translate(-67.629032,-65.342704)">
    <path
       style="display:inline;fill:#ffedaf;fill-opacity:1;stroke:#000000;stroke-width:0.2;stroke-miterlimit:4;stroke-dasharray:none;stroke-opacity:1"
       d="m 418.93506,180.65207 c 3.17372,4.09324 6.00183,7.39411 8.98349,10.96162 0.51865,0.62056 0.51597,1.55029 1.15634,1.95362 2.07248,1.76373 3.53951,3.02648 5.55694,5.18588 -3.91806,4.21338 -5.36787,4.10889 -5.608,14.88334 -0.85396,3.0111 -1.86574,6.55381 -2.31855,9.81541 -0.89492,7.01386 0.82559,8.94161 -0.57365,10.69688 -1.78891,1.30214 -4.74558,2.78417 -10.31355,3.99292 -7.7628,3.35492 -8.9895,4.35668 -13.44,6.50516 -2.94125,1.40946 -3.78247,1.95475 -6.18507,3.10267 -0.80001,0.92285 -2.04277,0.94841 -2.77794,0.57192 -1.22656,-3.86454 -4.97086,-6.80975 -6.11546,-6.91337 -0.9509,-0.87595 -1.71879,-0.38142 -2.68991,-0.63171 -1.23118,-0.7953 -1.21237,-2.08073 -2.17721,-1.76241 -3.15827,1.46369 -4.75051,1.55272 -7.09797,2.06923 -0.46547,-1.62922 0.81741,-3.27776 -0.71322,-5.37161 -2.95873,-1.57928 -2.43333,-2.80123 -3.27105,-4.09658 -2.69384,-2.71364 -3.42729,-3.7127 -4.79125,-5.70229 -0.33905,-0.49458 -0.15708,-1.09202 -0.48072,-1.58714 l -1.69808,1.31457 -2.03971,0.16372 c -3.30073,2.18854 -3.90781,3.22571 -5.27024,3.42364 -1.10233,-0.0803 -1.84983,-0.73341 -2.17782,-1.21299 -3.68048,-5.38137 -2.86964,-8.23869 -0.51464,-12.43479 -3.05691,-0.63845 -7.63582,-1.72789 -12.35311,-3.81084 -5.10206,-1.39393 -8.49704,-2.89627 -9.36148,-4.08546 -4.24304,-5.92577 -0.65275,-5.1326 -3.50253,-17.2834 7.52619,-1.99359 14.03853,-3.21185 22.02046,-5.18331 9.50239,-3.94119 18.51443,-7.70276 27.67695,-11.56364 8.43551,-3.84956 15.4669,-5.62472 24.59399,-9.63357 5.59477,6.14331 10.72047,11.32892 15.48299,16.63253 z"
       id="path898"
       sodipodi:nodetypes="cscccccccccccccccsccccccccccccc" />
  </g>
  <g
     inkscape:groupmode="layer"
     id="layer8"
     inkscape:label="اشکذر"
     style="display:inline"
     transform="translate(-67.629032,-65.342704)">
    <path
       style="display:inline;fill:#ffedaf;fill-opacity:1;stroke:#000000;stroke-width:0.2;stroke-miterlimit:4;stroke-dasharray:none;stroke-opacity:1"
       d="m 222.97764,187.19446 c -4.4976,0.6984 -10.09713,1.75232 -15.50164,2.84928 -2.77306,4.55956 -0.31285,6.16575 -17.4427,8.1469 -0.89883,-0.41648 -1.18817,-1.82216 -2.10605,-2.65157 -4.0772,2.31936 -10.45156,4.983 -13.53457,4.73401 -1.37478,0.95679 -1.8824,3.32592 -2.87063,4.91281 -2.15986,2.58475 -4.56679,5.82148 -6.02221,8.86947 -0.72776,2.17076 0.0949,4.79835 -0.72176,6.03652 3.88462,0.40689 6.50946,2.23343 10.41444,1.95167 1.12416,0.19888 1.70652,1.15088 2.85757,1.49764 6.45,1.59072 17.23284,3.67175 23.59083,5.72738 3.43664,-0.50997 6.29003,-2.18536 9.98966,-5.2317 -4.15759,-2.14187 -3.92512,-2.70683 -3.84042,-4.84275 0.0101,-2.41991 2.31124,-5.9255 1.28935,-7.09618 0.86367,-1.70795 1.7264,-1.9917 3.01378,-3.39018 0.41039,-0.44581 -0.63934,-1.13228 -0.14858,-1.55079 0.16247,-0.13851 0.81957,-0.45422 0.96199,-0.61189 2.26552,-2.50814 7.93175,-5.76176 10.83365,-6.89757 2.8848,-1.12944 5.96776,-1.42587 9.10386,-2.5184 z"
       id="path1290"
       sodipodi:nodetypes="ccccccccccccccsssccc" />
  </g>
  <g
     inkscape:groupmode="layer"
     id="layer4"
     inkscape:label="ابرکوه"
     style="display:inline"
     transform="translate(-67.629032,-65.342704)">
    <path
       style="display:inline;fill:#ffedaf;fill-opacity:1;stroke:#000000;stroke-width:0.2;stroke-miterlimit:4;stroke-dasharray:none;stroke-opacity:1"
       d="m 121.56771,247.92532 c 1.57719,3.9e-4 2.47912,0.96853 3.75429,1.30363 -0.20673,0.74827 1.74798,1.12527 0.28583,1.94805 -0.12096,0.0681 1.10197,0.3803 0.95755,0.53222 -0.16557,0.17417 -1.14905,0.25885 -1.10488,0.41942 0.0715,0.25984 1.50362,0.63938 1.47423,0.87901 -0.89724,0.0582 -2.03518,0.10985 -2.14168,0.72622 2.35673,4.69436 6.67273,8.34336 10.72911,16.32192 1.29042,0.5439 3.40733,0.47842 5.26699,0.43238 1.50191,0.8112 2.02364,0.92391 3.45619,0.61767 1.76536,-0.37739 3.80656,-1.58563 4.91333,-1.02731 0.45178,0.17024 1.11817,0.69145 0.7932,0.93486 -0.6531,0.48917 -0.42472,1.28411 0.21239,1.93884 1.04972,1.07874 0.65222,3.47668 1.31712,4.75784 l 1.25071,-1.63551 2.30034,1.69248 2.34884,-1.29811 c 0.3779,0.15021 0.75737,0.31163 1.13737,0.48333 0.14215,0.0642 -1.57941,1.23999 -1.43002,1.28912 1.01361,0.33335 2.40141,-0.049 4.15275,-0.11735 0.48903,0.44474 1.21282,1.95094 2.72384,1.38445 0.30902,1.7662 3.1271,2.36022 2.68378,3.72513 2.38766,0.13979 3.80543,1.4508 2.71054,2.37356 0.66878,-0.25281 2.28645,0.033 2.51762,0.48048 0.62678,1.21318 -1.54628,2.73783 -1.71736,3.31405 -0.21923,0.7384 1.80156,1.64983 3.20767,0.90842 -0.3182,2.30363 -1.17618,2.82592 -2.84675,2.56982 0.78823,0.8355 0.92404,2.16284 1.61139,2.81107 0.58997,0.55639 3.12865,0.27345 3.89364,0.69926 0.50456,0.28086 -1.03672,1.60313 -0.97656,1.7528 0.35623,0.88627 0.9766,-0.28521 2.07133,0.0821 0.50419,0.16909 0.62346,2.41909 1.25049,2.35405 3.08276,-0.31974 8.9122,-0.7514 11.53323,-0.39186 -3.81137,5.42923 -9.39896,18.26762 -11.64778,22.9724 l -5e-5,4e-5 c -0.52931,1.84337 -1.02366,3.46748 -1.06582,6.493 -9.33926,-6.58768 -26.96645,-2.42489 -30.59002,-6.00335 -0.81105,-0.70649 -1.3093,-1.22715 -4.63365,-1.56746 -2.24651,-2.29565 -3.35524,-6.78474 -6.59893,-9.27792 -1.09889,-0.1572 -2.15638,-0.39049 -3.51645,-0.6711 -4.11448,-1.72217 -14.1659,-7.37763 -20.32771,-10.01306 -3.78712,-1.73427 -7.16257,-3.06886 -10.71229,-3.93603 -0.465,-0.1136 0.002,-0.86573 -0.40679,-1.18955 -0.659601,-0.52208 -3.172781,-0.27911 -4.549824,0.12013 l 1.030396,-0.93355 c 0.178067,-0.16133 -0.883049,-0.58585 -0.779204,-0.80979 0.105026,-0.22648 0.831625,0.33455 0.941922,0.0891 0.105169,-0.23402 -0.48594,-0.86666 -0.384774,-1.12315 0.09847,-0.24967 1.678032,1.18209 1.63622,0.90551 -0.467518,-3.0926 -0.248117,-3.46009 -0.243477,-5.91325 0.259739,-1.60581 1.034928,-3.95057 0.848199,-4.83847 -2.049555,0.38916 -5.502557,-0.65747 -7.362556,0.69925 -1.817673,-2.46442 -5.631646,-3.4367 -5.924998,-5.80443 0.123102,-1.82254 3.293751,-1.46533 5.89632,-2.31687 3.218978,-0.44622 3.880973,-3.11443 4.850542,-5.41836 1.887236,-4.53594 -0.722171,-8.51691 -3.508109,-12.18149 -4.943134,-1.00056 -7.129839,-3.10731 -9.035322,-5.15175 5.142636,-1.19394 12.434234,-0.56386 17.520775,-1.66978 2.53081,-0.85878 5.03309,-1.77461 7.35862,-3.04396 2.83068,-1.41874 5.03966,-2.9125 8.36958,-4.47282 0.53982,0.76488 1.70472,0.7484 2.80621,0.8112 0.33766,0.73533 0.78531,1.38731 1.69245,1.98347 z"
       id="path1006"
       sodipodi:nodetypes="ccsssccccscssccccssccccssccssscscssccccccsccsssssccccccccccccc" />
  </g>
  <g
     inkscape:groupmode="layer"
     id="layer12"
     inkscape:label="میبد"
     style="display:inline"
     transform="translate(-67.629032,-65.342704)">
    <path
       style="display:inline;fill:#ffedaf;fill-opacity:1;stroke:#000000;stroke-width:0.2;stroke-miterlimit:4;stroke-dasharray:none;stroke-opacity:1"
       d="m 134.64612,244.32417 c 3.75818,-1.1485 7.48014,0.10301 8.91729,0.49257 1.36146,-0.89926 2.96521,-1.40944 4.10675,-2.86836 2.7189,-7.26546 3.89467,-8.41829 8.65467,-9.59712 -1.44705,-4.64729 -1.8283,-6.08665 -3.7655,-7.89688 3.05408,-2.0554 5.69983,-3.19563 10.30442,-5.77011 0.78193,-0.0907 1.08546,1.35362 1.91433,1.40761 0.81666,-1.23817 -0.006,-3.86576 0.72176,-6.03652 1.45542,-3.04799 3.86235,-6.28472 6.02221,-8.86947 0.98823,-1.58689 1.49585,-3.95602 2.87063,-4.91281 3.08301,0.24899 9.45737,-2.41465 13.53457,-4.73401 0.91788,0.82941 1.20722,2.23509 2.10605,2.65157 17.12985,-1.98115 14.66964,-3.58734 17.4427,-8.1469 5.40451,-1.09696 11.00404,-2.15088 15.50164,-2.84928 0.96516,-0.67842 8.08057,-5.09393 8.08057,-5.09393 l -3.27048,-4.53946 c -3.3086,0.78403 -4.32295,1.07138 -6.37065,1.45682 -4.56945,1.16311 -8.16325,1.85608 -13.05275,1.60451 -2.05995,-0.17672 -5.33935,-0.96359 -8.52053,-0.99621 -0.83802,0.0342 -1.6565,1.19863 -2.42944,1.24091 -0.67538,0.0369 -1.49674,-0.16492 -2.06917,-0.10365 -0.33703,0.0361 -0.55983,1.1918 -0.85201,1.2157 -0.36173,0.0296 -0.6243,-0.90908 -0.90543,-0.879 l -1.12592,0.56907 -0.82449,-1.06833 c -0.90498,0.22233 -0.77656,-0.34868 -1.12339,-0.41126 -0.50612,-0.0913 -0.95109,0.74242 -1.58198,0.46963 -1.93377,-0.83612 -4.35744,-1.94738 -6.49014,-2.26311 -6.10235,1.62996 -7.4643,1.88132 -12.8625,3.80442 -4.60098,0.0271 -10.13053,0.47962 -12.60642,-0.2154 -1.43455,-0.63131 -1.79345,-1.52582 -2.99911,-1.73329 -2.13048,-0.11023 -3.06171,0.12871 -4.99991,0.36318 -1.62061,-1.37877 -3.91831,-2.62705 -3.91831,-2.62705 -4.99892,1.7944 -5.30589,5.81745 -11.02875,8.20593 -3.59643,2.09043 -7.50037,4.88274 -10.89364,6.36316 -1.57519,0.99136 -3.34376,2.54124 -4.85261,3.70411 -4.6929,3.6168 -9.33485,8.81121 -14.3375,11.4713 -0.71822,3.77274 -2.26654,8.37591 -3.05304,11.48481 1.07363,4.91582 2.26213,7.24114 3.89474,11.16354 2.63885,1.87093 7.25099,5.43462 10.59978,9.22478 0.94459,1.6144 1.9777,2.56444 3.19727,4.38374 l -1.51278,1.14127 c 0.53982,0.7649 1.70472,0.7484 2.80622,0.8112 9.15219,-0.26447 6.11471,-0.72723 14.77085,-1.61768 z"
       id="path1136"
       sodipodi:nodetypes="cccccccccccccccccccssscccssccccccccscccccccc" />
  </g>
  <g
     inkscape:groupmode="layer"
     id="layer3"
     inkscape:label="خاتم"
     style="display:inline"
     transform="translate(-67.629032,-65.342704)">
    <path
       style="display:inline;fill:#ffedaf;fill-opacity:1;stroke:#000000;stroke-width:0.2;stroke-miterlimit:4;stroke-dasharray:none;stroke-opacity:1"
       d="m 226.11349,297.51643 c -7.67,0.5952 -13.79909,1.52798 -22.0618,1.94698 -3.10293,-0.35852 -14.14751,0.72399 -14.14751,0.72399 -3.81137,5.42923 -9.39896,18.26762 -11.64778,22.9724 -0.52931,1.84337 -1.02366,3.46748 -1.06582,6.493 -0.11232,1.2725 -0.36714,2.52751 -0.1157,3.53785 1.04604,2.50765 3.78781,6.34829 5.95121,10.63208 0.29032,0.57489 0.94192,1.26002 0.78236,1.84494 -1.17813,2.68103 -1.15954,4.42409 -0.56765,6.50151 1.46782,1.64557 1.79336,2.64695 1.8842,5.40714 0,0 0.81763,0.0799 0.86236,0.31545 0.76341,4.02058 -0.51616,7.63772 -1.4738,10.7334 -0.11205,0.36221 -1.04082,-1.56288 -1.2481,-1.22514 -0.21837,0.35581 -0.0612,0.85211 -0.32794,1.20624 -0.25036,0.33236 -1.31708,-0.34801 -1.60493,-0.006 -0.39115,0.46417 0.0669,1.31794 9.1e-4,1.97666 0.91051,0.20624 2.11145,-0.0958 2.73152,0.61873 -0.67817,0.74595 -3.52142,1.78798 -3.74104,2.57463 -0.14872,0.53267 1.71874,1.15926 1.73002,1.74691 0.0299,1.5568 -0.28119,2.9335 0.27047,4.49383 0.2953,0.83523 1.28717,1.52518 1.90745,2.27841 1.59392,2.04973 4.14621,3.37373 6.17294,4.24803 1.6947,1.12227 3.41906,2.46301 5.2707,3.06682 1.47146,0.54226 1.80492,1.69293 2.71329,2.0331 0.86976,0.35303 1.75484,0.25494 2.42278,0.17855 -0.938,1.13709 -0.48295,1.92713 -0.40902,2.57975 0.51219,1.10736 0.76132,2.03932 0.65376,3.73442 -0.0343,0.54128 0.27349,1.08593 0.3669,1.81967 0.22706,0.47299 -0.5625,7.75322 -0.50052,8.47259 0.0613,0.71159 1.97792,0.72714 2.2669,1.45673 3.70215,6.40306 5.70496,10.54387 7.83767,14.41236 1.00536,1.03078 2.21139,1.54974 3.69298,2.06836 3.53144,-1.70231 6.8567,-0.83931 11.01775,-1.82536 1.00107,-0.54026 2.72365,-1.06738 4.06266,-1.00512 2.76035,0.12835 4.9875,0.5932 6.35652,-0.94956 3.15902,0.0623 6.13863,0.55046 9.33573,1.89219 -0.3073,-6.44734 -0.99233,-12.92195 -2.05697,-19.36456 0.4921,-3.33694 -1.51669,-5.24743 -1.95777,-8.0963 1.31583,-5.97423 0.1696,-10.14759 -1.00796,-16.16399 -0.13256,-3.13262 0.10243,-9.00819 -0.27838,-11.96183 0.83427,-0.73834 -0.046,-0.7826 -0.083,-1.16785 -0.0325,-1.40123 0.48322,-1.83175 -0.27514,-2.71093 -2.35438,-1.54848 -2.71901,-0.39588 -4.11129,-1.04298 -2.72984,-1.53911 -5.38102,-3.81864 -7.38107,-5.92498 -1.48924,-1.56838 -1.74417,-3.10147 -2.57377,-4.55086 1.64232,-1.51403 4.22149,-3.41757 6.11409,-5.04237 4.72647,-4.13166 8.60715,-6.81383 10.9755,-12.28968 0,0 1.88294,-4.39125 -0.48425,-10.28001 -0.0687,-2.68094 -0.12796,-6.79538 -0.75357,-9.00641 0.084,-2.38005 -0.2792,-5.2943 -1.29525,-5.84423 -0.0188,-1.23385 0.92914,-1.0901 0.92859,-3.17998 -0.0336,-1.90937 -1.28534,-1.81086 -1.40062,-11.07477 -3.12561,-0.37996 -9.99325,0.82425 -13.73861,0.74619 z"
       id="path896"
       sodipodi:nodetypes="ccccccscccsssscccsssccccccscsccccscccccccccsccccccccc" />
  </g>
  <g
     inkscape:groupmode="layer"
     id="layer11"
     inkscape:label="اردکان"
     style="display:inline"
     transform="translate(-67.629032,-65.342704)">
    <path
       style="display:inline;fill:#ffedaf;fill-opacity:1;stroke:#000000;stroke-width:0.2;stroke-miterlimit:4;stroke-dasharray:none;stroke-opacity:1"
       d="m 104.70313,202.12319 c -0.49792,-4.34966 -1.11331,-9.01527 -1.22117,-17.17476 -0.0616,-0.99424 -0.4317,-1.86172 -0.49141,-2.96149 1.14129,-5.64534 -0.059,-11.42336 -6.5e-4,-18.6241 0.0404,-1.34874 -1.59633,-3.86896 -2.89557,-5.55465 2.39547,0.008 5.15245,0.4375 8.27607,1.22005 1.04139,0.1672 0.49681,-0.70509 3.55009,-0.55247 1.31381,-0.0209 2.70986,0.6383 4.11362,0.7091 0.48593,-0.0485 3.70914,-2.8952 4.12517,-3.11755 0.14052,-2.30633 0.25476,-2.09859 0.40702,-3.46431 0.64288,-1.35188 1.36508,-1.72166 3.05223,-3.97167 5.00241,-2.98662 10.61822,0.80402 18.36017,3.63855 8.00642,-3.1125 14.25948,-6.56635 20.80394,-9.18818 0.17955,-0.0719 0.17196,-0.86145 0.35228,-0.93099 0.27797,-0.11269 1.3963,0.23353 1.67973,0.13411 9.24575,-3.24324 17.93378,-5.49101 26.94633,-9.60764 2.7205,-1.06518 5.56352,-2.04001 8.04914,-3.21415 1.08757,-0.26341 1.98507,-0.0451 3.04356,-0.7032 0.37402,-0.19055 -0.35808,-1.08593 0.0131,-1.27301 5.35709,-1.62718 11.58804,-5.19693 14.92223,-8.98213 1.69573,-2.32216 1.9201,-5.61193 2.85032,-7.10497 2.93462,-2.52496 12.44055,-5.16376 12.69546,-4.98887 11.25686,-0.76708 15.33609,1.25962 28.10426,2.23958 1.21886,-0.99784 0.3003,-2.01094 1.62777,-3.10572 0.78138,-0.88062 0.31571,-2.33518 0.6978,-3.36756 1.28532,-1.80855 2.87132,-3.387729 6.97431,-3.500292 6.49244,-0.240206 7.2529,2.577452 12.66352,4.869942 6.53103,-7.197626 14.10844,-14.981841 25.72168,-19.887709 1.59349,0.136813 2.7464,-0.369994 3.85959,-0.356362 5.98751,1.43942 5.6045,-1.393128 7.28157,-1.857343 1.60434,0.316717 3.32188,4.614027 5.61913,6.796268 7.2685,13.112476 16.13533,26.606466 17.96576,29.677696 9.12938,12.58708 7.22042,10.04665 16.58497,19.2568 4.09464,1.69478 11.00683,2.45979 15.68163,4.23291 4.7356,1.79616 8.2597,5.17546 12.42247,7.98083 5.54156,4.70656 9.99308,9.55723 14.91282,14.62964 -9.12709,4.00885 -16.15848,5.78401 -24.59399,9.63357 -9.16252,3.86088 -18.17456,7.62245 -27.67695,11.56364 -7.98193,1.97146 -14.49427,3.18972 -22.02046,5.18331 -13.16539,3.0846 -18.15199,4.56635 -31.02599,7.01619 -13.9411,2.84038 -23.91945,3.72165 -28.33047,8.8844 -1.5966,-3.41962 -2.84613,-7.43318 -4.86408,-8.76693 -3.2179,-0.0832 -4.54488,-1.32416 -6.40836,-3.09401 -3.047,-2.89392 -3.74351,-7.01102 -6.98691,-7.26995 -2.85717,0.24475 -7.97476,0.96612 -9.17052,1.24533 -0.93914,3.06472 -5.87488,6.65436 -9.53013,8.71402 l -9.86657,-9.93465 c 0.96516,-0.67842 8.08057,-5.09393 8.08057,-5.09393 l -3.27048,-4.53946 c -3.3086,0.78403 -4.32295,1.07138 -6.37065,1.45682 -4.56945,1.16311 -8.16325,1.85608 -13.05275,1.60451 -2.05995,-0.17672 -5.33935,-0.96359 -8.52053,-0.99621 -0.83802,0.0342 -1.6565,1.19863 -2.42944,1.24091 -0.67538,0.0369 -1.49674,-0.16492 -2.06917,-0.10365 -0.33703,0.0361 -0.55983,1.1918 -0.85201,1.2157 -0.36173,0.0296 -0.6243,-0.90908 -0.90543,-0.879 l -1.12592,0.56907 -0.82449,-1.06833 c -0.90498,0.22233 -0.77656,-0.34868 -1.12339,-0.41126 -0.50612,-0.0913 -0.95109,0.74242 -1.58198,0.46963 -1.93377,-0.83612 -4.35744,-1.94738 -6.49014,-2.26311 -6.10235,1.62996 -7.4643,1.88132 -12.8625,3.80442 -4.60098,0.0271 -10.13053,0.47962 -12.60642,-0.2154 -1.43455,-0.63131 -1.79345,-1.52582 -2.99911,-1.73329 -2.13048,-0.11023 -3.06171,0.12871 -4.99991,0.36318 -1.62061,-1.37877 -3.91831,-2.62705 -3.91831,-2.62705 -4.99892,1.7944 -5.30589,5.81745 -11.02875,8.20593 -3.59643,2.09043 -7.50037,4.88274 -10.89364,6.36316 -1.57519,0.99136 -3.34376,2.54124 -4.85261,3.70411 -4.6929,3.6168 -9.33485,8.81121 -14.3375,11.4713 0.20201,-1.86982 0.7347,-3.64451 0.76005,-5.60932 z"
       id="path1389-6"
       sodipodi:nodetypes="ccccccccccccscsccccccccccccccccccsccccccccscccccccccssscccssccccccccscc" />
  </g>
  <g
     inkscape:groupmode="layer"
     id="layer5"
     inkscape:label="تفت"
     style="display:inline"
     transform="translate(-67.629032,-65.342704)">
    <path
       style="display:inline;fill:#ffedaf;fill-opacity:1;stroke:#000000;stroke-width:0.2;stroke-miterlimit:4;stroke-dasharray:none;stroke-opacity:1"
       d="m 134.64612,244.32417 c 3.75818,-1.1485 7.48014,0.10301 8.91729,0.49257 1.36146,-0.89926 2.96521,-1.40944 4.10675,-2.86836 2.7189,-7.26546 3.89467,-8.41829 8.65467,-9.59712 -1.44705,-4.64729 -1.8283,-6.08665 -3.7655,-7.89688 3.05408,-2.0554 5.69983,-3.19563 10.30442,-5.77011 0.78193,-0.0907 1.08546,1.35362 1.91433,1.40761 3.88462,0.40689 6.50946,2.23343 10.41444,1.95167 1.12416,0.19888 1.70652,1.15088 2.85757,1.49764 6.45,1.59072 17.23284,3.67175 23.59083,5.72738 3.43664,-0.50997 6.29003,-2.18536 9.98966,-5.23169 2.7032,-0.1991 5.35959,-0.20165 7.7714,0.82308 -1.03868,2.86166 -2.25804,5.40713 -3.53077,7.8592 -1.74196,0.94725 -5.65217,7.19995 -5.35417,9.119 -0.16408,1.38254 -2.27839,1.6399 -2.77985,2.73048 -0.61355,1.33435 -1.50496,3.39737 -1.16607,4.62806 0.18522,0.67263 1.87493,2.00635 3.59811,2.90301 2.52696,1.28074 5.04195,1.08268 8.54563,1.49771 -1.96182,3.82684 -2.73159,4.48959 -2.22462,11.35629 -0.43254,1.00152 -8.02797,1.11401 -12.23997,2.76611 0.20892,0.58758 0.56041,11.90416 -0.27895,18.52521 0.47725,1.49897 0.5971,5.92252 -0.0601,6.58471 0,2.44752 0.14047,6.63367 0.14047,6.63367 -3.10293,-0.35852 -14.14749,0.72397 -14.14749,0.72397 -2.621,-0.35956 -8.45044,0.0721 -11.5332,0.39184 -0.62703,0.065 -0.7463,-2.18496 -1.25049,-2.35405 -1.09473,-0.36731 -1.7151,0.80417 -2.07133,-0.0821 -0.0602,-0.14967 1.48112,-1.47194 0.97656,-1.7528 -0.76499,-0.42581 -3.30367,-0.14287 -3.89364,-0.69926 -0.68735,-0.64823 -0.82316,-1.97557 -1.61139,-2.81107 1.67057,0.2561 2.52855,-0.26619 2.84675,-2.56982 -1.40611,0.74141 -3.4269,-0.17002 -3.20767,-0.90842 0.17108,-0.57622 2.34414,-2.10087 1.71736,-3.31405 -0.23117,-0.44748 -1.84884,-0.73329 -2.51762,-0.48048 1.09489,-0.92276 -0.32288,-2.23377 -2.71054,-2.37356 0.44332,-1.36491 -2.37476,-1.95893 -2.68378,-3.72513 -1.51102,0.56649 -2.23481,-0.93971 -2.72384,-1.38445 -1.75134,0.0684 -3.13914,0.4507 -4.15275,0.11735 -0.14939,-0.0491 1.57217,-1.22492 1.43002,-1.28912 -0.38,-0.1717 -0.75947,-0.33312 -1.13737,-0.48333 l -2.34884,1.29811 -2.30034,-1.69248 -1.25071,1.63551 c -0.6649,-1.28116 -0.2674,-3.6791 -1.31712,-4.75784 -0.63711,-0.65473 -0.86549,-1.44967 -0.21239,-1.93884 0.32497,-0.24341 -0.34142,-0.76462 -0.7932,-0.93486 -1.10677,-0.55832 -3.14797,0.64992 -4.91333,1.02731 -1.43255,0.30624 -1.95428,0.19353 -3.45619,-0.61767 -1.85966,0.046 -3.97657,0.11152 -5.26699,-0.43238 -4.05638,-7.97856 -8.37238,-11.62756 -10.72911,-16.32192 0.1065,-0.61637 1.24444,-0.66802 2.14168,-0.72622 0.0294,-0.23963 -1.40273,-0.61917 -1.47423,-0.87901 -0.0442,-0.16057 0.93931,-0.24525 1.10488,-0.41942 0.14442,-0.15192 -1.07851,-0.46412 -0.95755,-0.53222 1.46215,-0.82278 -0.49256,-1.19978 -0.28583,-1.94805 -1.27517,-0.3351 -2.1771,-1.30324 -3.75429,-1.30363 -0.90714,-0.59616 -1.35479,-1.24814 -1.69245,-1.98347 9.15219,-0.26447 6.11471,-0.72723 14.77086,-1.61768 z"
       id="path900"
       sodipodi:nodetypes="ccccccccccccccssccccccccscsssccssccccscccccsscsccccssccccc" />
  </g>
  <g
     inkscape:groupmode="layer"
     id="layer6"
     inkscape:label="مهریز"
     style="display:inline"
     transform="translate(-67.629032,-65.342704)">
    <path
       style="display:inline;fill:#ffedaf;fill-opacity:1;stroke:#000000;stroke-width:0.2;stroke-miterlimit:4;stroke-dasharray:none;stroke-opacity:1"
       d="m 251.91238,229.319 c -3.05356,-0.40857 -4.94932,1.10459 -7.92833,1.60471 -0.83388,0.13999 -1.77875,-0.53116 -2.64969,-0.59564 -0.89272,-0.0661 -1.72119,0.4007 -2.63628,0.44451 -2.60611,0.12476 -7.78028,0.0741 -9.36021,1.15558 -1.36203,0.93234 0.79504,2.9524 1.52751,5.69288 -4.9934,-2.19209 -7.52334,-2.04987 -9.1203,-1.8511 -2.77547,-0.96341 -2.38393,-1.44837 -5.87387,-3.05078 -1.74196,0.94725 -5.65217,7.19995 -5.35417,9.119 -0.16408,1.38254 -2.27839,1.6399 -2.77985,2.73048 -0.61355,1.33435 -1.50496,3.39737 -1.16607,4.62806 0.18522,0.67263 1.87493,2.00635 3.59811,2.90301 2.52696,1.28074 5.04195,1.08268 8.54563,1.49771 -1.96182,3.82684 -2.73159,4.48959 -2.22462,11.35629 -0.43254,1.00152 -8.02797,1.11401 -12.23997,2.76611 0.20892,0.58758 0.56041,11.90416 -0.27895,18.52521 0.47725,1.49897 0.5971,5.92252 -0.0601,6.58471 0,2.44752 0.14047,6.63367 0.14047,6.63367 8.26271,-0.419 14.3918,-1.35178 22.0618,-1.94698 3.74536,0.0781 10.613,-1.12615 13.73861,-0.74619 4.58346,-1.30775 7.86684,-1.79243 17.75371,-4.70293 6.24513,0.79157 11.7083,3.07466 17.57227,3.34999 1.96586,-0.16099 5.06521,-1.04156 7.81226,-1.57299 3.66526,-1.73391 10.45985,-1.78983 17.01745,-3.64506 3.09144,-1.29746 6.26904,-2.29131 8.59165,-3.05115 -2.85278,-12.2376 -8.2377,-7.85317 -10.75576,-15.23013 -3.44607,-6.89608 -4.26791,-13.78053 -6.41767,-20.30726 -0.86775,-1.23734 -1.95413,-2.40636 -3.14041,-3.40228 -7.66734,-6.43698 -18.18952,-11.96901 -26.65049,-16.37391 -3.31017,-2.21357 -6.54166,-2.49153 -9.72273,-2.51552 z"
       id="path1217"
       sodipodi:nodetypes="cssssccccssccccccccccccccccscc" />
  </g>
  <g
     inkscape:groupmode="layer"
     id="layer7"
     inkscape:label="یزد"
     style="display:inline"
     transform="translate(-67.629032,-65.342704)">
    <path
       style="display:inline;fill:#ffedaf;fill-opacity:1;stroke:#000000;stroke-width:0.2;stroke-miterlimit:4;stroke-dasharray:none;stroke-opacity:1"
       d="m 264.94013,197.53372 c -3.2179,-0.0832 -4.54488,-1.32416 -6.40836,-3.09401 -3.047,-2.89392 -3.74351,-7.01102 -6.98691,-7.26995 -2.85717,0.24475 -7.97476,0.96612 -9.17052,1.24533 -0.93914,3.06472 -5.87488,6.65436 -9.53013,8.71402 -3.1361,1.09253 -6.21906,1.38896 -9.10386,2.5184 -2.9019,1.13581 -8.56813,4.38943 -10.83365,6.89757 -0.14242,0.15767 -0.79952,0.47338 -0.96199,0.61189 -0.49076,0.41851 0.55897,1.10498 0.14858,1.55079 -1.28738,1.39848 -2.15011,1.68223 -3.01378,3.39018 1.02189,1.17068 -1.27921,4.67627 -1.28935,7.09618 -0.0847,2.13592 -0.31717,2.70088 3.84042,4.84274 2.7032,-0.19908 5.35959,-0.20163 7.7714,0.8231 -1.03868,2.86166 -2.25804,5.40713 -3.53077,7.8592 3.48994,1.60241 3.0984,2.08737 5.87387,3.05078 1.59696,-0.19877 4.1269,-0.34099 9.1203,1.8511 -0.73247,-2.74048 -2.88954,-4.76054 -1.52751,-5.69288 1.57993,-1.08148 6.7541,-1.03082 9.36021,-1.15558 0.91509,-0.0438 1.74356,-0.51061 2.63628,-0.44451 0.87094,0.0645 1.81581,0.73563 2.64969,0.59564 2.97901,-0.50012 4.87477,-2.01328 7.92833,-1.60471 3.18107,0.024 6.41256,0.30195 9.72273,2.51552 0,0 0.21137,-1.91374 0.23047,-2.00094 0.54643,-2.49049 3.76089,-6.43715 6.39395,-10.58324 -0.84152,-1.90242 -3.22384,-5.27379 -4.70293,-7.60564 1.59005,-1.50635 4.90269,-3.67106 6.24761,-5.34405 -1.5966,-3.41962 -2.84613,-7.43318 -4.86408,-8.76693 z"
       id="path1236"
       sodipodi:nodetypes="csccccscscccccccssssccccccc" />
  </g>
  <g
     inkscape:groupmode="layer"
     id="layer13"
     inkscape:label="نام‌ها"
     style="display:inline"
     transform="translate(-67.629032,-65.342704)">
    <text
       xml:space="preserve"
       style="font-style:normal;font-weight:normal;font-size:14px;line-height:1;font-family:sans-serif;letter-spacing:0px;word-spacing:0px;direction:ltr;display:inline;fill:#000000;fill-opacity:1;stroke:none"
       x="248.84431"
       y="155.06859"
       id="text1521"><tspan
         sodipodi:role="line"
         id="tspan1519"
         x="248.84431"
         y="155.06859"
         style="font-style:normal;font-variant:normal;font-weight:normal;font-stretch:normal;font-size:14px;font-family:Vazir;-inkscape-font-specification:Vazir;direction:ltr">اردکان</tspan></text>
    <text
       xml:space="preserve"
       style="font-style:normal;font-weight:normal;font-size:14px;line-height:1;font-family:sans-serif;letter-spacing:0px;word-spacing:0px;direction:ltr;display:inline;fill:#000000;fill-opacity:1;stroke:none"
       x="125.78944"
       y="210.56058"
       id="text1525"><tspan
         sodipodi:role="line"
         id="tspan1523"
         x="125.78944"
         y="210.56058"
         style="font-style:normal;font-variant:normal;font-weight:normal;font-stretch:normal;font-size:14px;font-family:Vazir;-inkscape-font-specification:Vazir;direction:ltr">میبد</tspan></text>
    <text
       xml:space="preserve"
       style="font-style:normal;font-weight:normal;font-size:14px;line-height:1;font-family:sans-serif;letter-spacing:0px;word-spacing:0px;direction:ltr;display:inline;fill:#000000;fill-opacity:1;stroke:none"
       x="230.38606"
       y="215.34604"
       id="text1529"><tspan
         sodipodi:role="line"
         id="tspan1527"
         x="230.38606"
         y="215.34604"
         style="font-style:normal;font-variant:normal;font-weight:normal;font-stretch:normal;font-size:14px;font-family:Vazir;-inkscape-font-specification:Vazir;direction:ltr">یزد</tspan></text>
    <text
       xml:space="preserve"
       style="font-style:normal;font-weight:normal;font-size:14px;line-height:1;font-family:sans-serif;letter-spacing:0px;word-spacing:0px;direction:ltr;display:inline;fill:#000000;fill-opacity:1;stroke:none"
       x="172.45816"
       y="215.18726"
       id="text1533"><tspan
         sodipodi:role="line"
         id="tspan1531"
         x="172.45816"
         y="215.18726"
         style="font-style:normal;font-variant:normal;font-weight:normal;font-stretch:normal;font-size:14px;font-family:Vazir;-inkscape-font-specification:Vazir;direction:ltr">اشکذر</tspan></text>
    <text
       xml:space="preserve"
       style="font-style:normal;font-weight:normal;font-size:14px;line-height:1;font-family:sans-serif;letter-spacing:0px;word-spacing:0px;direction:ltr;display:inline;fill:#000000;fill-opacity:1;stroke:none"
       x="233.12064"
       y="267.30255"
       id="text1537"><tspan
         sodipodi:role="line"
         id="tspan1535"
         x="233.12064"
         y="267.30255"
         style="font-style:normal;font-variant:normal;font-weight:normal;font-stretch:normal;font-size:14px;font-family:Vazir;-inkscape-font-specification:Vazir;direction:ltr">مهریز</tspan></text>
    <text
       xml:space="preserve"
       style="font-style:normal;font-weight:normal;font-size:14px;line-height:1;font-family:sans-serif;letter-spacing:0px;word-spacing:0px;direction:ltr;display:inline;fill:#000000;fill-opacity:1;stroke:none"
       x="306.95355"
       y="240.64066"
       id="text1541"><tspan
         sodipodi:role="line"
         id="tspan1539"
         x="306.95355"
         y="240.64066"
         style="font-style:normal;font-variant:normal;font-weight:normal;font-stretch:normal;font-size:14px;font-family:Vazir;-inkscape-font-specification:Vazir;direction:ltr">بافق</tspan></text>
    <text
       xml:space="preserve"
       style="font-style:normal;font-weight:normal;font-size:14px;line-height:1;font-family:sans-serif;letter-spacing:0px;word-spacing:0px;direction:ltr;display:inline;fill:#000000;fill-opacity:1;stroke:none"
       x="377.1337"
       y="208.59259"
       id="text1545"><tspan
         sodipodi:role="line"
         id="tspan1543"
         x="377.1337"
         y="208.59259"
         style="font-style:normal;font-variant:normal;font-weight:normal;font-stretch:normal;font-size:14px;font-family:Vazir;-inkscape-font-specification:Vazir;direction:ltr">بهاباد</tspan></text>
    <text
       xml:space="preserve"
       style="font-style:normal;font-weight:normal;font-size:14px;line-height:1;font-family:sans-serif;letter-spacing:0px;word-spacing:0px;direction:ltr;display:inline;fill:#000000;fill-opacity:1;stroke:none"
       x="163.38953"
       y="262.51706"
       id="text1549"><tspan
         sodipodi:role="line"
         id="tspan1547"
         x="163.38953"
         y="262.51706"
         style="font-style:normal;font-variant:normal;font-weight:normal;font-stretch:normal;font-size:14px;font-family:Vazir;-inkscape-font-specification:Vazir;direction:ltr">تفت</tspan></text>
    <text
       xml:space="preserve"
       style="font-style:normal;font-weight:normal;font-size:14px;line-height:1;font-family:sans-serif;letter-spacing:0px;word-spacing:0px;direction:ltr;display:inline;fill:#000000;fill-opacity:1;stroke:none"
       x="114.16756"
       y="293.96442"
       id="text1553"><tspan
         sodipodi:role="line"
         id="tspan1551"
         x="114.16756"
         y="293.96442"
         style="font-style:normal;font-variant:normal;font-weight:normal;font-stretch:normal;font-size:14px;font-family:Vazir;-inkscape-font-specification:Vazir;direction:ltr">ابرکوه</tspan></text>
    <text
       xml:space="preserve"
       style="font-style:normal;font-weight:normal;font-size:14px;line-height:1;font-family:sans-serif;letter-spacing:0px;word-spacing:0px;direction:ltr;display:inline;fill:#000000;fill-opacity:1;stroke:none"
       x="195.15437"
       y="344.05011"
       id="text1557"><tspan
         sodipodi:role="line"
         id="tspan1555"
         x="195.15437"
         y="344.05011"
         style="font-style:normal;font-variant:normal;font-weight:normal;font-stretch:normal;font-size:14px;font-family:Vazir;-inkscape-font-specification:Vazir;direction:ltr">خاتم</tspan></text>
  </g>
</svg>
