<?xml version="1.0" encoding="UTF-8"?>
<svg version="1.1" viewBox="0 0 383 377" xmlns="http://www.w3.org/2000/svg">
  <g fill="#fefee5" stroke="#000" stroke-width="0.2">
    <path d="m322.87 182.08c-2.0731-0.12074-3.4883-0.14214-5.6128-0.85333-0.27429-0.0918-0.28716 0.47726-0.58068 0.41226 0.552 1.1054-4.7192 2.864-8.0734 6.0598-1.399 1.3329-1.9434 3.6542-3.5899 4.6821-0.83571 1.1837-1.0878 3.3887-2.4486 3.9616-0.6013 1.1398-1.0116 3.2256-1.7671 4.1692-1.2177 1.1116-2.019 1.6946-4.3267 1.9237-1.9344 2.2025-4.7338 4.5591-6.925 5.7716-6.6513 2.2987-12.397 3.4168-19.336 5.1784-10.004 2.5392-19.017 4.9853-29.24 8.4206-2.8528-12.238-8.2377-7.8532-10.756-15.23-3.4461-6.8961-4.2679-13.781-6.4177-20.307-0.86775-1.2373-1.9541-2.4064-3.1404-3.4023-7.6673-6.437-18.19-11.969-26.65-16.374 0 0 0.21137-1.9137 0.23047-2.0009 0.54643-2.4905 3.7609-6.4372 6.394-10.583-0.84152-1.9024-3.2238-5.2738-4.7029-7.6056 1.59-1.5064 4.9027-3.6711 6.2476-5.344 4.411-5.1628 14.389-6.044 28.33-8.8844 12.874-2.4498 17.861-3.9316 31.026-7.0162 2.8498 12.151-0.74051 11.358 3.5025 17.283 0.86444 1.1892 4.2594 2.6915 9.3615 4.0855 4.7173 2.083 9.2962 3.1724 12.353 3.8108-2.355 4.1961-3.1658 7.0534 0.51464 12.435 0.32799 0.47958 1.0755 1.1327 2.1778 1.213 1.3624-0.19793 1.9695-1.2351 5.2702-3.4236l2.0397-0.16372 1.6981-1.3146c0.32364 0.49512 0.14167 1.0926 0.48072 1.5871 1.364 1.9896 2.0974 2.9886 4.7912 5.7023 0.83772 1.2954 0.31232 2.5173 3.271 4.0966 1.5306 2.0938 0.24775 3.7424 0.71322 5.3716 2.3475-0.51651 3.9397-0.60554 7.098-2.0692 0.96484-0.31832 0.94603 0.96711 2.1772 1.7624 0.97112 0.25029 1.739-0.24424 2.6899 0.63171 1.1446 0.10362 4.8889 3.0488 6.1155 6.9134-1.4495 0.10096-2.1784-0.85651-2.9149-0.89941z"/>
    <path d="m351.31 115.31c3.1737 4.0932 6.0018 7.3941 8.9835 10.962 0.51865 0.62056 0.51597 1.5503 1.1563 1.9536 2.0725 1.7637 3.5395 3.0265 5.5569 5.1859-3.9181 4.2134-5.3679 4.1089-5.608 14.883-0.85396 3.0111-1.8657 6.5538-2.3186 9.8154-0.89492 7.0139 0.82559 8.9416-0.57365 10.697-1.7889 1.3021-4.7456 2.7842-10.314 3.9929-7.7628 3.3549-8.9895 4.3567-13.44 6.5052-2.9412 1.4095-3.7825 1.9548-6.1851 3.1027-0.80001 0.92285-2.0428 0.94841-2.7779 0.57192-1.2266-3.8645-4.9709-6.8098-6.1155-6.9134-0.9509-0.87595-1.7188-0.38142-2.6899-0.63171-1.2312-0.7953-1.2124-2.0807-2.1772-1.7624-3.1583 1.4637-4.7505 1.5527-7.098 2.0692-0.46547-1.6292 0.81741-3.2778-0.71322-5.3716-2.9587-1.5793-2.4333-2.8012-3.271-4.0966-2.6938-2.7136-3.4273-3.7127-4.7912-5.7023-0.33905-0.49458-0.15708-1.092-0.48072-1.5871l-1.6981 1.3146-2.0397 0.16372c-3.3007 2.1885-3.9078 3.2257-5.2702 3.4236-1.1023-0.0803-1.8498-0.73341-2.1778-1.213-3.6805-5.3814-2.8696-8.2387-0.51464-12.435-3.0569-0.63845-7.6358-1.7279-12.353-3.8108-5.1021-1.3939-8.497-2.8963-9.3615-4.0855-4.243-5.9258-0.65275-5.1326-3.5025-17.283 7.5262-1.9936 14.039-3.2118 22.02-5.1833 9.5024-3.9412 18.514-7.7028 27.677-11.564 8.4355-3.8496 15.467-5.6247 24.594-9.6336 5.5948 6.1433 10.72 11.329 15.483 16.633z"/>
    <path d="m155.35 121.85c-4.4976 0.6984-10.097 1.7523-15.502 2.8493-2.7731 4.5596-0.31285 6.1658-17.443 8.1469-0.89883-0.41648-1.1882-1.8222-2.106-2.6516-4.0772 2.3194-10.452 4.983-13.535 4.734-1.3748 0.95679-1.8824 3.3259-2.8706 4.9128-2.1599 2.5848-4.5668 5.8215-6.0222 8.8695-0.72776 2.1708 0.0949 4.7984-0.72176 6.0365 3.8846 0.40689 6.5095 2.2334 10.414 1.9517 1.1242 0.19888 1.7065 1.1509 2.8576 1.4976 6.45 1.5907 17.233 3.6718 23.591 5.7274 3.4366-0.50997 6.29-2.1854 9.9897-5.2317-4.1576-2.1419-3.9251-2.7068-3.8404-4.8428 0.0101-2.4199 2.3112-5.9255 1.2894-7.0962 0.86367-1.708 1.7264-1.9917 3.0138-3.3902 0.41039-0.44581-0.63934-1.1323-0.14858-1.5508 0.16247-0.13851 0.81957-0.45422 0.96199-0.61189 2.2655-2.5081 7.9318-5.7618 10.834-6.8976 2.8848-1.1294 5.9678-1.4259 9.1039-2.5184z"/>
    <path d="m53.941 182.59c1.5772 3.9e-4 2.4791 0.96853 3.7543 1.3036-0.20673 0.74827 1.748 1.1253 0.28583 1.948-0.12096 0.0681 1.102 0.3803 0.95755 0.53222-0.16557 0.17417-1.149 0.25885-1.1049 0.41942 0.0715 0.25984 1.5036 0.63938 1.4742 0.87901-0.89724 0.0582-2.0352 0.10985-2.1417 0.72622 2.3567 4.6944 6.6727 8.3434 10.729 16.322 1.2904 0.5439 3.4073 0.47842 5.267 0.43238 1.5019 0.8112 2.0236 0.92391 3.4562 0.61767 1.7654-0.37739 3.8066-1.5856 4.9133-1.0273 0.45178 0.17024 1.1182 0.69145 0.7932 0.93486-0.6531 0.48917-0.42472 1.2841 0.21239 1.9388 1.0497 1.0787 0.65222 3.4767 1.3171 4.7578l1.2507-1.6355 2.3003 1.6925 2.3488-1.2981c0.3779 0.15021 0.75737 0.31163 1.1374 0.48333 0.14215 0.0642-1.5794 1.24-1.43 1.2891 1.0136 0.33335 2.4014-0.049 4.1528-0.11735 0.48903 0.44474 1.2128 1.9509 2.7238 1.3844 0.30902 1.7662 3.1271 2.3602 2.6838 3.7251 2.3877 0.13979 3.8054 1.4508 2.7105 2.3736 0.66878-0.25281 2.2864 0.033 2.5176 0.48048 0.62678 1.2132-1.5463 2.7378-1.7174 3.314-0.21923 0.7384 1.8016 1.6498 3.2077 0.90842-0.3182 2.3036-1.1762 2.8259-2.8468 2.5698 0.78823 0.8355 0.92404 2.1628 1.6114 2.8111 0.58997 0.55639 3.1286 0.27345 3.8936 0.69926 0.50456 0.28086-1.0367 1.6031-0.97656 1.7528 0.35623 0.88627 0.9766-0.28521 2.0713 0.0821 0.50419 0.16909 0.62346 2.4191 1.2505 2.354 3.0828-0.31974 8.9122-0.7514 11.533-0.39186-3.8114 5.4292-9.399 18.268-11.648 22.972l-5e-5 4e-5c-0.52931 1.8434-1.0237 3.4675-1.0658 6.493-9.3393-6.5877-26.966-2.4249-30.59-6.0034-0.81105-0.70649-1.3093-1.2272-4.6336-1.5675-2.2465-2.2956-3.3552-6.7847-6.5989-9.2779-1.0989-0.1572-2.1564-0.39049-3.5164-0.6711-4.1145-1.7222-14.166-7.3776-20.328-10.013-3.7871-1.7343-7.1626-3.0689-10.712-3.936-0.465-0.1136 2e-3 -0.86573-0.40679-1.1896-0.6596-0.52208-3.1728-0.27911-4.5498 0.12013l1.0304-0.93355c0.17807-0.16133-0.88305-0.58585-0.7792-0.80979 0.10503-0.22648 0.83162 0.33455 0.94192 0.0891 0.10517-0.23402-0.48594-0.86666-0.38477-1.1232 0.09847-0.24967 1.678 1.1821 1.6362 0.90551-0.46752-3.0926-0.24812-3.4601-0.24348-5.9132 0.25974-1.6058 1.0349-3.9506 0.8482-4.8385-2.0496 0.38916-5.5026-0.65747-7.3626 0.69925-1.8177-2.4644-5.6316-3.4367-5.925-5.8044 0.1231-1.8225 3.2938-1.4653 5.8963-2.3169 3.219-0.44622 3.881-3.1144 4.8505-5.4184 1.8872-4.5359-0.72217-8.5169-3.5081-12.181-4.9431-1.0006-7.1298-3.1073-9.0353-5.1518 5.1426-1.1939 12.434-0.56386 17.521-1.6698 2.5308-0.85878 5.0331-1.7746 7.3586-3.044 2.8307-1.4187 5.0397-2.9125 8.3696-4.4728 0.53982 0.76488 1.7047 0.7484 2.8062 0.8112 0.33766 0.73533 0.78531 1.3873 1.6924 1.9835z"/>
    <path d="m67.021 178.98c3.7582-1.1485 7.4801 0.10301 8.9173 0.49257 1.3615-0.89926 2.9652-1.4094 4.1068-2.8684 2.7189-7.2655 3.8947-8.4183 8.6547-9.5971-1.447-4.6473-1.8283-6.0866-3.7655-7.8969 3.0541-2.0554 5.6998-3.1956 10.304-5.7701 0.78193-0.0907 1.0855 1.3536 1.9143 1.4076 0.81666-1.2382-6e-3 -3.8658 0.72176-6.0365 1.4554-3.048 3.8624-6.2847 6.0222-8.8695 0.98823-1.5869 1.4958-3.956 2.8706-4.9128 3.083 0.24899 9.4574-2.4146 13.535-4.734 0.91788 0.82941 1.2072 2.2351 2.106 2.6516 17.13-1.9812 14.67-3.5873 17.443-8.1469 5.4045-1.097 11.004-2.1509 15.502-2.8493 0.96516-0.67842 8.0806-5.0939 8.0806-5.0939l-3.2705-4.5395c-3.3086 0.78403-4.323 1.0714-6.3706 1.4568-4.5694 1.1631-8.1632 1.8561-13.053 1.6045-2.06-0.17672-5.3394-0.96359-8.5205-0.99621-0.83802 0.0342-1.6565 1.1986-2.4294 1.2409-0.67538 0.0369-1.4967-0.16492-2.0692-0.10365-0.33703 0.0361-0.55983 1.1918-0.85201 1.2157-0.36173 0.0296-0.6243-0.90908-0.90543-0.879l-1.1259 0.56907-0.82449-1.0683c-0.90498 0.22233-0.77656-0.34868-1.1234-0.41126-0.50612-0.0913-0.95109 0.74242-1.582 0.46963-1.9338-0.83612-4.3574-1.9474-6.4901-2.2631-6.1024 1.63-7.4643 1.8813-12.862 3.8044-4.601 0.0271-10.131 0.47962-12.606-0.2154-1.4346-0.63131-1.7934-1.5258-2.9991-1.7333-2.1305-0.11023-3.0617 0.12871-4.9999 0.36318-1.6206-1.3788-3.9183-2.627-3.9183-2.627-4.9989 1.7944-5.3059 5.8174-11.029 8.2059-3.5964 2.0904-7.5004 4.8827-10.894 6.3632-1.5752 0.99136-3.3438 2.5412-4.8526 3.7041-4.6929 3.6168-9.3348 8.8112-14.338 11.471-0.71822 3.7727-2.2665 8.3759-3.053 11.485 1.0736 4.9158 2.2621 7.2411 3.8947 11.164 2.6388 1.8709 7.251 5.4346 10.6 9.2248 0.94459 1.6144 1.9777 2.5644 3.1973 4.3837l-1.5128 1.1413c0.53982 0.7649 1.7047 0.7484 2.8062 0.8112 9.1522-0.26447 6.1147-0.72723 14.771-1.6177z"/>
    <path d="m158.48 232.18c-7.67 0.5952-13.799 1.528-22.062 1.947-3.1029-0.35852-14.148 0.72399-14.148 0.72399-3.8114 5.4292-9.399 18.268-11.648 22.972-0.52931 1.8434-1.0237 3.4675-1.0658 6.493-0.11232 1.2725-0.36714 2.5275-0.1157 3.5378 1.046 2.5076 3.7878 6.3483 5.9512 10.632 0.29032 0.57489 0.94192 1.26 0.78236 1.8449-1.1781 2.681-1.1595 4.4241-0.56765 6.5015 1.4678 1.6456 1.7934 2.647 1.8842 5.4071 0 0 0.81763 0.0799 0.86236 0.31545 0.76341 4.0206-0.51616 7.6377-1.4738 10.733-0.11205 0.36221-1.0408-1.5629-1.2481-1.2251-0.21837 0.35581-0.0612 0.85211-0.32794 1.2062-0.25036 0.33236-1.3171-0.34801-1.6049-6e-3 -0.39115 0.46417 0.0669 1.3179 9.1e-4 1.9767 0.91051 0.20624 2.1114-0.0958 2.7315 0.61873-0.67817 0.74595-3.5214 1.788-3.741 2.5746-0.14872 0.53267 1.7187 1.1593 1.73 1.7469 0.0299 1.5568-0.28119 2.9335 0.27047 4.4938 0.2953 0.83523 1.2872 1.5252 1.9074 2.2784 1.5939 2.0497 4.1462 3.3737 6.1729 4.248 1.6947 1.1223 3.4191 2.463 5.2707 3.0668 1.4715 0.54226 1.8049 1.6929 2.7133 2.0331 0.86976 0.35303 1.7548 0.25494 2.4228 0.17855-0.938 1.1371-0.48295 1.9271-0.40902 2.5798 0.51219 1.1074 0.76132 2.0393 0.65376 3.7344-0.0343 0.54128 0.27349 1.0859 0.3669 1.8197 0.22706 0.47299-0.5625 7.7532-0.50052 8.4726 0.0613 0.71159 1.9779 0.72714 2.2669 1.4567 3.7022 6.4031 5.705 10.544 7.8377 14.412 1.0054 1.0308 2.2114 1.5497 3.693 2.0684 3.5314-1.7023 6.8567-0.83931 11.018-1.8254 1.0011-0.54026 2.7236-1.0674 4.0627-1.0051 2.7604 0.12835 4.9875 0.5932 6.3565-0.94956 3.159 0.0623 6.1386 0.55046 9.3357 1.8922-0.3073-6.4473-0.99233-12.922-2.057-19.365 0.4921-3.3369-1.5167-5.2474-1.9578-8.0963 1.3158-5.9742 0.1696-10.148-1.008-16.164-0.13256-3.1326 0.10243-9.0082-0.27838-11.962 0.83427-0.73834-0.046-0.7826-0.083-1.1678-0.0325-1.4012 0.48322-1.8318-0.27514-2.7109-2.3544-1.5485-2.719-0.39588-4.1113-1.043-2.7298-1.5391-5.381-3.8186-7.3811-5.925-1.4892-1.5684-1.7442-3.1015-2.5738-4.5509 1.6423-1.514 4.2215-3.4176 6.1141-5.0424 4.7265-4.1317 8.6072-6.8138 10.976-12.29 0 0 1.8829-4.3912-0.48425-10.28-0.0687-2.6809-0.12796-6.7954-0.75357-9.0064 0.084-2.38-0.2792-5.2943-1.2952-5.8442-0.0188-1.2338 0.92914-1.0901 0.92859-3.18-0.0336-1.9094-1.2853-1.8109-1.4006-11.075-3.1256-0.37996-9.9932 0.82425-13.739 0.74619z"/>
    <path d="m37.071 136.78c-0.49792-4.3497-1.1133-9.0153-1.2212-17.175-0.0616-0.99424-0.4317-1.8617-0.49141-2.9615 1.1413-5.6453-0.059-11.423-6.5e-4 -18.624 0.0404-1.3487-1.5963-3.869-2.8956-5.5546 2.3955 8e-3 5.1524 0.4375 8.2761 1.22 1.0414 0.1672 0.49681-0.70509 3.5501-0.55247 1.3138-0.0209 2.7099 0.6383 4.1136 0.7091 0.48593-0.0485 3.7091-2.8952 4.1252-3.1176 0.14052-2.3063 0.25476-2.0986 0.40702-3.4643 0.64288-1.3519 1.3651-1.7217 3.0522-3.9717 5.0024-2.9866 10.618 0.80402 18.36 3.6386 8.0064-3.1125 14.259-6.5664 20.804-9.1882 0.17955-0.0719 0.17196-0.86145 0.35228-0.93099 0.27797-0.11269 1.3963 0.23353 1.6797 0.13411 9.2458-3.2432 17.934-5.491 26.946-9.6076 2.7205-1.0652 5.5635-2.04 8.0491-3.2142 1.0876-0.26341 1.9851-0.0451 3.0436-0.7032 0.37402-0.19055-0.35808-1.0859 0.0131-1.273 5.3571-1.6272 11.588-5.1969 14.922-8.9821 1.6957-2.3222 1.9201-5.6119 2.8503-7.105 2.9346-2.525 12.441-5.1638 12.695-4.9889 11.257-0.76708 15.336 1.2596 28.104 2.2396 1.2189-0.99784 0.3003-2.0109 1.6278-3.1057 0.78138-0.88062 0.31571-2.3352 0.6978-3.3676 1.2853-1.8086 2.8713-3.3877 6.9743-3.5003 6.4924-0.24021 7.2529 2.5775 12.664 4.8699 6.531-7.1976 14.108-14.982 25.722-19.888 1.5935 0.13681 2.7464-0.36999 3.8596-0.35636 5.9875 1.4394 5.6045-1.3931 7.2816-1.8573 1.6043 0.31672 3.3219 4.614 5.6191 6.7963 7.2685 13.112 16.135 26.606 17.966 29.678 9.1294 12.587 7.2204 10.047 16.585 19.257 4.0946 1.6948 11.007 2.4598 15.682 4.2329 4.7356 1.7962 8.2597 5.1755 12.422 7.9808 5.5416 4.7066 9.9931 9.5572 14.913 14.63-9.1271 4.0088-16.158 5.784-24.594 9.6336-9.1625 3.8609-18.175 7.6224-27.677 11.564-7.9819 1.9715-14.494 3.1897-22.02 5.1833-13.165 3.0846-18.152 4.5664-31.026 7.0162-13.941 2.8404-23.919 3.7216-28.33 8.8844-1.5966-3.4196-2.8461-7.4332-4.8641-8.7669-3.2179-0.0832-4.5449-1.3242-6.4084-3.094-3.047-2.8939-3.7435-7.011-6.9869-7.27-2.8572 0.24475-7.9748 0.96612-9.1705 1.2453-0.93914 3.0647-5.8749 6.6544-9.5301 8.714l-9.8666-9.9346c0.96516-0.67842 8.0806-5.0939 8.0806-5.0939l-3.2705-4.5395c-3.3086 0.78403-4.323 1.0714-6.3706 1.4568-4.5694 1.1631-8.1632 1.8561-13.053 1.6045-2.06-0.17672-5.3394-0.96359-8.5205-0.99621-0.83802 0.0342-1.6565 1.1986-2.4294 1.2409-0.67538 0.0369-1.4967-0.16492-2.0692-0.10365-0.33703 0.0361-0.55983 1.1918-0.85201 1.2157-0.36173 0.0296-0.6243-0.90908-0.90543-0.879l-1.1259 0.56907-0.82449-1.0683c-0.90498 0.22233-0.77656-0.34868-1.1234-0.41126-0.50612-0.0913-0.95109 0.74242-1.582 0.46963-1.9338-0.83612-4.3574-1.9474-6.4901-2.2631-6.1024 1.63-7.4643 1.8813-12.862 3.8044-4.601 0.0271-10.131 0.47962-12.606-0.2154-1.4346-0.63131-1.7934-1.5258-2.9991-1.7333-2.1305-0.11023-3.0617 0.12871-4.9999 0.36318-1.6206-1.3788-3.9183-2.627-3.9183-2.627-4.9989 1.7944-5.3059 5.8174-11.029 8.2059-3.5964 2.0904-7.5004 4.8827-10.894 6.3632-1.5752 0.99136-3.3438 2.5412-4.8526 3.7041-4.6929 3.6168-9.3348 8.8112-14.338 11.471 0.20201-1.8698 0.7347-3.6445 0.76005-5.6093z"/>
    <path d="m67.021 178.98c3.7582-1.1485 7.4801 0.10301 8.9173 0.49257 1.3615-0.89926 2.9652-1.4094 4.1068-2.8684 2.7189-7.2655 3.8947-8.4183 8.6547-9.5971-1.447-4.6473-1.8283-6.0866-3.7655-7.8969 3.0541-2.0554 5.6998-3.1956 10.304-5.7701 0.78193-0.0907 1.0855 1.3536 1.9143 1.4076 3.8846 0.40689 6.5095 2.2334 10.414 1.9517 1.1242 0.19888 1.7065 1.1509 2.8576 1.4976 6.45 1.5907 17.233 3.6718 23.591 5.7274 3.4366-0.50997 6.29-2.1854 9.9897-5.2317 2.7032-0.1991 5.3596-0.20165 7.7714 0.82308-1.0387 2.8617-2.258 5.4071-3.5308 7.8592-1.742 0.94725-5.6522 7.2-5.3542 9.119-0.16408 1.3825-2.2784 1.6399-2.7798 2.7305-0.61355 1.3344-1.505 3.3974-1.1661 4.6281 0.18522 0.67263 1.8749 2.0064 3.5981 2.903 2.527 1.2807 5.042 1.0827 8.5456 1.4977-1.9618 3.8268-2.7316 4.4896-2.2246 11.356-0.43254 1.0015-8.028 1.114-12.24 2.7661 0.20892 0.58758 0.56041 11.904-0.27895 18.525 0.47725 1.499 0.5971 5.9225-0.0601 6.5847 0 2.4475 0.14047 6.6337 0.14047 6.6337-3.1029-0.35852-14.147 0.72397-14.147 0.72397-2.621-0.35956-8.4504 0.0721-11.533 0.39184-0.62703 0.065-0.7463-2.185-1.2505-2.354-1.0947-0.36731-1.7151 0.80417-2.0713-0.0821-0.0602-0.14967 1.4811-1.4719 0.97656-1.7528-0.76499-0.42581-3.3037-0.14287-3.8936-0.69926-0.68735-0.64823-0.82316-1.9756-1.6114-2.8111 1.6706 0.2561 2.5286-0.26619 2.8468-2.5698-1.4061 0.74141-3.4269-0.17002-3.2077-0.90842 0.17108-0.57622 2.3441-2.1009 1.7174-3.314-0.23117-0.44748-1.8488-0.73329-2.5176-0.48048 1.0949-0.92276-0.32288-2.2338-2.7105-2.3736 0.44332-1.3649-2.3748-1.9589-2.6838-3.7251-1.511 0.56649-2.2348-0.93971-2.7238-1.3844-1.7513 0.0684-3.1391 0.4507-4.1528 0.11735-0.14939-0.0491 1.5722-1.2249 1.43-1.2891-0.38-0.1717-0.75947-0.33312-1.1374-0.48333l-2.3488 1.2981-2.3003-1.6925-1.2507 1.6355c-0.6649-1.2812-0.2674-3.6791-1.3171-4.7578-0.63711-0.65473-0.86549-1.4497-0.21239-1.9388 0.32497-0.24341-0.34142-0.76462-0.7932-0.93486-1.1068-0.55832-3.148 0.64992-4.9133 1.0273-1.4326 0.30624-1.9543 0.19353-3.4562-0.61767-1.8597 0.046-3.9766 0.11152-5.267-0.43238-4.0564-7.9786-8.3724-11.628-10.729-16.322 0.1065-0.61637 1.2444-0.66802 2.1417-0.72622 0.0294-0.23963-1.4027-0.61917-1.4742-0.87901-0.0442-0.16057 0.93931-0.24525 1.1049-0.41942 0.14442-0.15192-1.0785-0.46412-0.95755-0.53222 1.4622-0.82278-0.49256-1.1998-0.28583-1.948-1.2752-0.3351-2.1771-1.3032-3.7543-1.3036-0.90714-0.59616-1.3548-1.2481-1.6924-1.9835 9.1522-0.26447 6.1147-0.72723 14.771-1.6177z"/>
    <path d="m184.28 163.98c-3.0536-0.40857-4.9493 1.1046-7.9283 1.6047-0.83388 0.13999-1.7788-0.53116-2.6497-0.59564-0.89272-0.0661-1.7212 0.4007-2.6363 0.44451-2.6061 0.12476-7.7803 0.0741-9.3602 1.1556-1.362 0.93234 0.79504 2.9524 1.5275 5.6929-4.9934-2.1921-7.5233-2.0499-9.1203-1.8511-2.7755-0.96341-2.3839-1.4484-5.8739-3.0508-1.742 0.94725-5.6522 7.2-5.3542 9.119-0.16408 1.3825-2.2784 1.6399-2.7798 2.7305-0.61355 1.3344-1.505 3.3974-1.1661 4.6281 0.18522 0.67263 1.8749 2.0064 3.5981 2.903 2.527 1.2807 5.042 1.0827 8.5456 1.4977-1.9618 3.8268-2.7316 4.4896-2.2246 11.356-0.43254 1.0015-8.028 1.114-12.24 2.7661 0.20892 0.58758 0.56041 11.904-0.27895 18.525 0.47725 1.499 0.5971 5.9225-0.0601 6.5847 0 2.4475 0.14047 6.6337 0.14047 6.6337 8.2627-0.419 14.392-1.3518 22.062-1.947 3.7454 0.0781 10.613-1.1262 13.739-0.74619 4.5835-1.3078 7.8668-1.7924 17.754-4.7029 6.2451 0.79157 11.708 3.0747 17.572 3.35 1.9659-0.16099 5.0652-1.0416 7.8123-1.573 3.6653-1.7339 10.46-1.7898 17.017-3.6451 3.0914-1.2975 6.269-2.2913 8.5916-3.0512-2.8528-12.238-8.2377-7.8532-10.756-15.23-3.4461-6.8961-4.2679-13.781-6.4177-20.307-0.86775-1.2373-1.9541-2.4064-3.1404-3.4023-7.6673-6.437-18.19-11.969-26.65-16.374-3.3102-2.2136-6.5417-2.4915-9.7227-2.5155z"/>
    <path d="m197.31 132.19c-3.2179-0.0832-4.5449-1.3242-6.4084-3.094-3.047-2.8939-3.7435-7.011-6.9869-7.27-2.8572 0.24475-7.9748 0.96612-9.1705 1.2453-0.93914 3.0647-5.8749 6.6544-9.5301 8.714-3.1361 1.0925-6.2191 1.389-9.1039 2.5184-2.9019 1.1358-8.5681 4.3894-10.834 6.8976-0.14242 0.15767-0.79952 0.47338-0.96199 0.61189-0.49076 0.41851 0.55897 1.105 0.14858 1.5508-1.2874 1.3985-2.1501 1.6822-3.0138 3.3902 1.0219 1.1707-1.2792 4.6763-1.2894 7.0962-0.0847 2.1359-0.31717 2.7009 3.8404 4.8427 2.7032-0.19908 5.3596-0.20163 7.7714 0.8231-1.0387 2.8617-2.258 5.4071-3.5308 7.8592 3.4899 1.6024 3.0984 2.0874 5.8739 3.0508 1.597-0.19877 4.1269-0.34099 9.1203 1.8511-0.73247-2.7405-2.8895-4.7605-1.5275-5.6929 1.5799-1.0815 6.7541-1.0308 9.3602-1.1556 0.91509-0.0438 1.7436-0.51061 2.6363-0.44451 0.87094 0.0645 1.8158 0.73563 2.6497 0.59564 2.979-0.50012 4.8748-2.0133 7.9283-1.6047 3.1811 0.024 6.4126 0.30195 9.7227 2.5155 0 0 0.21137-1.9137 0.23047-2.0009 0.54643-2.4905 3.7609-6.4372 6.394-10.583-0.84152-1.9024-3.2238-5.2738-4.7029-7.6056 1.59-1.5064 4.9027-3.6711 6.2476-5.344-1.5966-3.4196-2.8461-7.4332-4.8641-8.7669z" fill="#c12838"/>
  </g>
</svg>
