<?xml version="1.0" encoding="UTF-8"?>
<svg version="1.1" viewBox="0 0 383 377" xmlns="http://www.w3.org/2000/svg">
  <g stroke="#000" stroke-width="0.2">
    <path d="m322.87 182.08c-2.073-0.121-3.488-0.142-5.613-0.853-0.274-0.092-0.287 0.477-0.58 0.412 0.552 1.105-4.72 2.864-8.074 6.06-1.399 1.333-1.943 3.654-3.59 4.682-0.835 1.184-1.088 3.389-2.448 3.961-0.602 1.14-1.012 3.226-1.767 4.17-1.218 1.111-2.019 1.694-4.327 1.923-1.935 2.203-4.734 4.559-6.925 5.772-6.651 2.299-12.397 3.417-19.336 5.178-10.004 2.54-19.017 4.986-29.24 8.421-2.853-12.238-8.238-7.853-10.756-15.23-3.446-6.896-4.268-13.781-6.418-20.307-0.868-1.237-1.954-2.406-3.14-3.402-7.668-6.437-18.19-11.969-26.65-16.374 0 0 0.211-1.914 0.23-2.001 0.547-2.491 3.761-6.437 6.394-10.583-0.841-1.903-3.224-5.274-4.703-7.606 1.59-1.506 4.903-3.671 6.248-5.344 4.411-5.163 14.389-6.044 28.33-8.884 12.874-2.45 17.861-3.932 31.026-7.016 2.85 12.151-0.741 11.358 3.502 17.283 0.865 1.189 4.26 2.691 9.362 4.085 4.717 2.083 9.296 3.172 12.353 3.811-2.355 4.196-3.166 7.053 0.515 12.435 0.328 0.479 1.075 1.133 2.177 1.213 1.363-0.198 1.97-1.235 5.271-3.424l2.039-0.163 1.698-1.315c0.324 0.495 0.142 1.093 0.481 1.587 1.364 1.99 2.097 2.989 4.791 5.702 0.838 1.296 0.313 2.518 3.271 4.097 1.531 2.094 0.248 3.742 0.713 5.372 2.348-0.517 3.94-0.606 7.098-2.07 0.965-0.318 0.946 0.967 2.178 1.763 0.971 0.25 1.739-0.245 2.69 0.631 1.144 0.104 4.888 3.049 6.115 6.914-1.449 0.101-2.178-0.857-2.915-0.9z" fill="#fbd0d1"/>
    <path d="m351.31 115.31c3.174 4.093 6.002 7.394 8.983 10.962 0.519 0.621 0.516 1.55 1.157 1.954 2.072 1.763 3.539 3.026 5.557 5.186-3.918 4.213-5.368 4.108-5.608 14.882-0.854 3.012-1.866 6.554-2.319 9.816-0.895 7.014 0.826 8.941-0.574 10.697-1.788 1.302-4.745 2.784-10.314 3.993-7.762 3.355-8.989 4.357-13.44 6.505-2.941 1.41-3.782 1.955-6.185 3.103-0.8 0.923-2.042 0.948-2.778 0.572-1.226-3.865-4.97-6.81-6.115-6.914-0.951-0.876-1.719-0.381-2.69-0.631-1.231-0.796-1.212-2.081-2.177-1.763-3.158 1.464-4.751 1.553-7.098 2.069-0.466-1.629 0.817-3.277-0.713-5.371-2.959-1.58-2.434-2.801-3.271-4.097-2.694-2.713-3.428-3.713-4.792-5.702-0.339-0.495-0.157-1.092-0.48-1.587l-1.698 1.314-2.04 0.164c-3.301 2.189-3.908 3.226-5.27 3.424-1.103-0.081-1.85-0.734-2.178-1.213-3.681-5.382-2.87-8.239-0.515-12.435-3.057-0.639-7.636-1.728-12.353-3.811-5.102-1.394-8.497-2.896-9.361-4.086-4.243-5.925-0.653-5.132-3.503-17.283 7.526-1.993 14.039-3.211 22.02-5.183 9.503-3.941 18.514-7.703 27.677-11.564 8.436-3.85 15.467-5.625 24.594-9.6336 5.595 6.1436 10.72 11.329 15.483 16.633z" fill="#dbeccb"/>
    <path d="m155.35 121.85c-4.498 0.698-10.097 1.752-15.502 2.849-2.773 4.56-0.313 6.166-17.443 8.147-0.899-0.416-1.188-1.822-2.106-2.651-4.077 2.319-10.452 4.983-13.535 4.734-1.375 0.956-1.882 3.325-2.871 4.912-2.16 2.585-4.5664 5.822-6.0218 8.87-0.7278 2.171 0.0949 4.798-0.7218 6.036 3.8846 0.407 6.5096 2.234 10.414 1.952 1.125 0.199 1.707 1.151 2.858 1.498 6.45 1.59 17.233 3.671 23.591 5.727 3.437-0.51 6.29-2.185 9.99-5.232-4.158-2.142-3.925-2.706-3.841-4.842 0.01-2.42 2.312-5.926 1.29-7.097 0.863-1.708 1.726-1.991 3.014-3.39 0.41-0.446-0.64-1.132-0.149-1.551 0.162-0.138 0.82-0.454 0.962-0.611 2.265-2.509 7.932-5.762 10.834-6.898 2.885-1.129 5.968-1.426 9.104-2.518z" fill="#fbd0d1"/>
    <path d="m53.941 182.59c1.5772 0 2.4791 0.969 3.7543 1.304-0.2067 0.748 1.748 1.125 0.2858 1.948-0.1209 0.068 1.102 0.38 0.9576 0.532-0.1656 0.174-1.149 0.259-1.1049 0.419 0.0715 0.26 1.5036 0.64 1.4742 0.879-0.8973 0.058-2.0352 0.11-2.1417 0.726 2.3567 4.695 6.6727 8.344 10.729 16.322 1.2904 0.544 3.4073 0.479 5.267 0.433 1.5019 0.811 2.0236 0.924 3.4562 0.618 1.7654-0.378 3.8066-1.586 4.9133-1.028 0.4518 0.17 1.1182 0.692 0.7932 0.935-0.6531 0.489-0.4247 1.284 0.2124 1.939 1.0497 1.079 0.6522 3.477 1.3171 4.758l1.2507-1.636 2.3003 1.693 2.3488-1.298c0.3779 0.15 0.7573 0.311 1.1374 0.483 0.1421 0.064-1.5794 1.24-1.43 1.289 1.0136 0.333 2.4014-0.049 4.1528-0.117 0.489 0.444 1.2128 1.951 2.7238 1.384 0.309 1.766 3.1271 2.36 2.6838 3.725 2.3879 0.14 3.8049 1.451 2.7109 2.374 0.668-0.253 2.286 0.033 2.517 0.48 0.627 1.213-1.546 2.738-1.717 3.314-0.219 0.739 1.801 1.65 3.207 0.909-0.318 2.303-1.176 2.826-2.846 2.569 0.788 0.836 0.924 2.163 1.611 2.812 0.59 0.556 3.129 0.273 3.894 0.699 0.504 0.281-1.037 1.603-0.977 1.753 0.356 0.886 0.977-0.286 2.071 0.082 0.505 0.169 0.624 2.419 1.251 2.354 3.083-0.32 8.912-0.752 11.533-0.392-3.811 5.429-9.399 18.268-11.648 22.972-0.529 1.843-1.024 3.467-1.066 6.493-9.339-6.588-26.966-2.425-30.59-6.003-0.8111-0.707-1.3093-1.228-4.6336-1.568-2.2465-2.296-3.3552-6.785-6.5989-9.278-1.0989-0.157-2.1564-0.39-3.5164-0.671-4.1145-1.722-14.166-7.378-20.328-10.013-3.7871-1.734-7.1626-3.069-10.712-3.936-0.465-0.114 2e-3 -0.866-0.4068-1.19-0.6596-0.522-3.1728-0.279-4.5498 0.121l1.0304-0.934c0.178-0.161-0.8831-0.586-0.7792-0.81 0.105-0.226 0.8316 0.335 0.9419 0.089 0.1052-0.234-0.486-0.866-0.3848-1.123 0.0985-0.25 1.678 1.182 1.6362 0.906-0.4675-3.093-0.2481-3.46-0.2435-5.914 0.2598-1.605 1.0349-3.95 0.8482-4.838-2.0496 0.389-5.5026-0.658-7.3626 0.699-1.8177-2.464-5.6316-3.437-5.925-5.804 0.1231-1.823 3.2938-1.466 5.8963-2.317 3.219-0.446 3.881-3.115 4.8505-5.419 1.8872-4.535-0.7221-8.516-3.5081-12.181-4.9431-1-7.1298-3.107-9.0353-5.151 5.1426-1.194 12.434-0.564 17.521-1.67 2.5308-0.859 5.0331-1.775 7.3586-3.044 2.8307-1.419 5.0397-2.913 8.3696-4.473 0.5399 0.765 1.7047 0.748 2.8062 0.811 0.3377 0.736 0.7853 1.388 1.6924 1.984z" fill="#fbd0d1"/>
    <path d="m67.021 178.98c3.7582-1.149 7.4801 0.103 8.9173 0.493 1.3615-0.9 2.9652-1.41 4.1068-2.869 2.7189-7.265 3.8947-8.418 8.6547-9.597-1.447-4.647-1.8283-6.087-3.7655-7.897 3.0541-2.055 5.6998-3.195 10.304-5.77 0.7819-0.091 1.0855 1.354 1.9143 1.408 0.8167-1.239-6e-3 -3.866 0.7218-6.037 1.4554-3.048 3.8626-6.285 6.0226-8.869 0.988-1.587 1.495-3.956 2.87-4.913 3.083 0.249 9.458-2.415 13.535-4.734 0.918 0.829 1.207 2.235 2.106 2.651 17.13-1.981 14.67-3.587 17.443-8.146 5.405-1.097 11.004-2.151 15.502-2.85 0.965-0.678 8.081-5.094 8.081-5.094l-3.271-4.539c-3.308 0.784-4.323 1.071-6.37 1.457-4.57 1.163-8.164 1.856-13.053 1.604-2.06-0.177-5.34-0.963-8.521-0.996-0.838 0.034-1.656 1.199-2.429 1.241-0.676 0.037-1.497-0.165-2.069-0.104-0.337 0.036-0.56 1.192-0.852 1.216-0.362 0.03-0.625-0.909-0.906-0.879l-1.126 0.569-0.824-1.068c-0.905 0.222-0.777-0.349-1.124-0.412-0.506-0.091-0.951 0.743-1.582 0.47-1.933-0.836-4.357-1.947-6.49-2.263-6.102 1.63-7.464 1.881-12.862 3.804-4.6008 0.027-10.131 0.48-12.606-0.215-1.4346-0.631-1.7934-1.526-2.9991-1.733-2.1305-0.111-3.0617 0.128-4.9999 0.363-1.6206-1.379-3.9183-2.627-3.9183-2.627-4.9989 1.794-5.3059 5.817-11.029 8.206-3.5964 2.09-7.5004 4.882-10.894 6.363-1.5752 0.991-3.3438 2.541-4.8526 3.704-4.6929 3.617-9.3348 8.811-14.338 11.471-0.7182 3.773-2.2665 8.376-3.053 11.485 1.0736 4.916 2.2621 7.241 3.8947 11.164 2.6388 1.871 7.251 5.435 10.6 9.225 0.9446 1.614 1.9777 2.564 3.1973 4.384l-1.5128 1.141c0.5399 0.765 1.7047 0.748 2.8062 0.811 9.1522-0.264 6.1147-0.727 14.771-1.618z" fill="#dbeccb"/>
    <path d="m158.48 232.18c-7.67 0.595-13.799 1.528-22.062 1.947-3.103-0.359-14.148 0.724-14.148 0.724-3.811 5.429-9.399 18.268-11.648 22.972-0.529 1.843-1.024 3.467-1.066 6.493-0.112 1.272-0.367 2.527-0.115 3.538 1.045 2.507 3.787 6.348 5.951 10.632 0.29 0.575 0.942 1.26 0.782 1.845-1.178 2.681-1.159 4.424-0.568 6.501 1.468 1.646 1.794 2.647 1.885 5.407 0 0 0.817 0.08 0.862 0.316 0.763 4.02-0.516 7.637-1.474 10.733-0.112 0.362-1.041-1.563-1.248-1.225-0.218 0.355-0.061 0.852-0.328 1.206-0.25 0.332-1.317-0.348-1.605-6e-3 -0.391 0.464 0.067 1.318 1e-3 1.977 0.911 0.206 2.112-0.096 2.732 0.618-0.679 0.746-3.522 1.788-3.741 2.575-0.149 0.533 1.718 1.159 1.73 1.747 0.03 1.557-0.282 2.933 0.27 4.494 0.295 0.835 1.287 1.525 1.908 2.278 1.593 2.05 4.146 3.374 6.172 4.248 1.695 1.122 3.42 2.463 5.271 3.067 1.472 0.542 1.805 1.693 2.713 2.033 0.87 0.353 1.755 0.255 2.423 0.178-0.938 1.138-0.483 1.928-0.409 2.58 0.512 1.108 0.762 2.04 0.654 3.735-0.034 0.541 0.273 1.086 0.367 1.819 0.227 0.473-0.563 7.754-0.501 8.473 0.062 0.712 1.978 0.727 2.267 1.457 3.702 6.403 5.705 10.544 7.838 14.412 1.005 1.03 2.211 1.549 3.693 2.068 3.531-1.702 6.857-0.839 11.018-1.825 1.001-0.541 2.724-1.068 4.063-1.005 2.76 0.128 4.987 0.593 6.356-0.95 3.159 0.062 6.139 0.55 9.336 1.892-0.307-6.447-0.992-12.922-2.057-19.365 0.492-3.337-1.517-5.247-1.958-8.096 1.316-5.974 0.17-10.148-1.008-16.164-0.133-3.133 0.102-9.008-0.278-11.962 0.834-0.738-0.046-0.783-0.083-1.168-0.033-1.401 0.483-1.832-0.275-2.711-2.355-1.548-2.719-0.396-4.112-1.043-2.73-1.539-5.381-3.818-7.381-5.925-1.489-1.568-1.744-3.101-2.574-4.551 1.643-1.514 4.222-3.417 6.114-5.042 4.727-4.132 8.608-6.814 10.976-12.29 0 0 1.883-4.391-0.484-10.28-0.069-2.681-0.128-6.796-0.753-9.007 0.084-2.38-0.28-5.294-1.296-5.844-0.018-1.234 0.93-1.09 0.929-3.18-0.034-1.909-1.285-1.811-1.401-11.075-3.125-0.38-9.993 0.825-13.739 0.746z" fill="#fdfad4"/>
    <path d="m37.071 136.78c-0.4979-4.35-1.1133-9.015-1.2212-17.175-0.0616-0.994-0.4317-1.862-0.4914-2.962 1.1413-5.645-0.059-11.423-7e-4 -18.624 0.0404-1.3487-1.5963-3.869-2.8956-5.5546 2.3955 8e-3 5.1524 0.4375 8.2761 1.22 1.0414 0.1672 0.4969-0.7051 3.5501-0.5525 1.3138-0.0209 2.7099 0.6383 4.1136 0.7091 0.486-0.0485 3.7091-2.8952 4.1252-3.1176 0.1406-2.3063 0.2548-2.0986 0.4071-3.4643 0.6428-1.3519 1.3651-1.7217 3.0522-3.9717 5.0024-2.9866 10.618 0.804 18.36 3.6386 8.0064-3.1125 14.259-6.5664 20.804-9.1882 0.1795-0.0719 0.1719-0.8614 0.3522-0.931 0.278-0.1127 1.3963 0.2336 1.6797 0.1341 9.2457-3.2432 17.934-5.491 26.946-9.6076 2.721-1.0652 5.564-2.04 8.049-3.2142 1.088-0.2634 1.986-0.0451 3.044-0.7032 0.374-0.1905-0.358-1.0859 0.013-1.273 5.357-1.6272 11.588-5.1969 14.922-8.9821 1.696-2.3222 1.92-5.6119 2.85-7.105 2.935-2.525 12.441-5.1638 12.695-4.9889 11.257-0.767 15.336 1.2596 28.104 2.2396 1.219-0.9978 0.301-2.0109 1.628-3.1057 0.782-0.8806 0.316-2.3352 0.698-3.3676 1.285-1.8086 2.871-3.3877 6.974-3.5003 6.493-0.2402 7.253 2.5775 12.664 4.8699 6.531-7.1976 14.108-14.982 25.722-19.888 1.594 0.1369 2.747-0.3699 3.86-0.3563 5.987 1.4394 5.604-1.3931 7.282-1.8573 1.604 0.3167 3.321 4.614 5.619 6.7963 7.268 13.112 16.135 26.606 17.966 29.678 9.129 12.587 7.22 10.047 16.585 19.257 4.094 1.6948 11.007 2.4598 15.682 4.2329 4.735 1.7962 8.259 5.1755 12.422 7.9808 5.541 4.7066 9.993 9.5572 14.913 14.63-9.127 4.0083-16.158 5.7843-24.594 9.6333-9.163 3.861-18.175 7.623-27.677 11.564-7.982 1.972-14.494 3.19-22.02 5.184-13.165 3.084-18.152 4.566-31.026 7.016-13.941 2.84-23.919 3.721-28.33 8.884-1.597-3.419-2.846-7.433-4.864-8.767-3.218-0.083-4.545-1.324-6.409-3.094-3.047-2.894-3.743-7.011-6.987-7.27-2.857 0.245-7.975 0.966-9.17 1.246-0.939 3.064-5.875 6.654-9.53 8.714l-9.867-9.935c0.965-0.678 8.081-5.094 8.081-5.094l-3.271-4.539c-3.308 0.784-4.323 1.071-6.37 1.456-4.57 1.163-8.164 1.856-13.053 1.605-2.06-0.177-5.34-0.964-8.521-0.996-0.838 0.034-1.656 1.198-2.429 1.241-0.676 0.036-1.497-0.165-2.07-0.104-0.337 0.036-0.559 1.192-0.852 1.216-0.361 0.029-0.624-0.909-0.905-0.879l-1.126 0.569-0.824-1.069c-0.905 0.223-0.777-0.348-1.124-0.411-0.506-0.091-0.951 0.743-1.582 0.47-1.934-0.836-4.357-1.948-6.49-2.263-6.102 1.63-7.464 1.881-12.862 3.804-4.6009 0.027-10.131 0.48-12.606-0.215-1.4346-0.632-1.7934-1.526-2.9991-1.734-2.1305-0.11-3.0617 0.129-4.9999 0.364-1.6206-1.379-3.9183-2.627-3.9183-2.627-4.9989 1.794-5.3059 5.817-11.029 8.205-3.5964 2.091-7.5004 4.883-10.894 6.364-1.5752 0.991-3.3438 2.541-4.8526 3.704-4.6929 3.617-9.3348 8.811-14.338 11.471 0.202-1.87 0.7347-3.645 0.7601-5.61z" fill="#e8d0e5"/>
    <path d="m67.021 178.98c3.7582-1.149 7.4801 0.103 8.9173 0.493 1.3615-0.9 2.9652-1.41 4.1068-2.869 2.7189-7.265 3.8947-8.418 8.6547-9.597-1.447-4.647-1.8283-6.087-3.7655-7.897 3.0541-2.055 5.6998-3.195 10.304-5.77 0.7819-0.091 1.0855 1.354 1.9143 1.408 3.8844 0.407 6.5094 2.233 10.414 1.951 1.124 0.199 1.706 1.151 2.857 1.498 6.45 1.591 17.233 3.672 23.591 5.727 3.437-0.51 6.29-2.185 9.99-5.231 2.703-0.199 5.359-0.202 7.771 0.823-1.038 2.861-2.258 5.407-3.531 7.859-1.742 0.947-5.652 7.2-5.354 9.119-0.164 1.382-2.278 1.64-2.78 2.73-0.613 1.335-1.505 3.398-1.166 4.629 0.186 0.672 1.875 2.006 3.598 2.903 2.527 1.28 5.042 1.082 8.546 1.497-1.962 3.827-2.731 4.49-2.225 11.356-0.432 1.002-8.027 1.114-12.24 2.766 0.209 0.588 0.561 11.904-0.278 18.525 0.477 1.499 0.597 5.923-0.061 6.585 0 2.448 0.141 6.634 0.141 6.634-3.103-0.359-14.147 0.724-14.147 0.724-2.621-0.36-8.45 0.072-11.533 0.392-0.627 0.065-0.746-2.185-1.251-2.354-1.094-0.368-1.715 0.804-2.071-0.083-0.06-0.149 1.481-1.471 0.977-1.752-0.765-0.426-3.304-0.143-3.894-0.7-0.687-0.648-0.823-1.975-1.611-2.811 1.67 0.256 2.528-0.266 2.846-2.57-1.406 0.742-3.426-0.17-3.207-0.908 0.171-0.576 2.344-2.101 1.717-3.314-0.231-0.447-1.849-0.733-2.517-0.48 1.094-0.923-0.323-2.234-2.7109-2.374 0.4433-1.365-2.3748-1.959-2.6838-3.725-1.511 0.566-2.2348-0.94-2.7238-1.385-1.7513 0.069-3.1391 0.451-4.1528 0.118-0.1494-0.049 1.5722-1.225 1.43-1.289-0.38-0.172-0.7595-0.333-1.1374-0.484l-2.3488 1.299-2.3003-1.693-1.2507 1.636c-0.6649-1.282-0.2674-3.68-1.3171-4.758-0.6371-0.655-0.8655-1.45-0.2124-1.939 0.325-0.243-0.3414-0.765-0.7932-0.935-1.1068-0.558-3.148 0.65-4.9133 1.027-1.4326 0.307-1.9543 0.194-3.4562-0.617-1.8597 0.046-3.9766 0.111-5.267-0.433-4.0564-7.978-8.3724-11.628-10.729-16.322 0.1065-0.616 1.2444-0.668 2.1417-0.726 0.0294-0.24-1.4027-0.619-1.4742-0.879-0.0442-0.16 0.9393-0.245 1.1049-0.419 0.1444-0.152-1.0785-0.464-0.9576-0.533 1.4622-0.822-0.4925-1.199-0.2858-1.948-1.2752-0.335-2.1771-1.303-3.7543-1.303-0.9071-0.596-1.3548-1.248-1.6924-1.984 9.1522-0.264 6.1147-0.727 14.771-1.617z" fill="#e8d0e5"/>
    <path d="m184.28 163.98c-3.054-0.409-4.949 1.105-7.928 1.605-0.834 0.14-1.779-0.531-2.65-0.596-0.893-0.066-1.721 0.401-2.636 0.445-2.606 0.124-7.781 0.074-9.36 1.155-1.363 0.933 0.795 2.953 1.527 5.693-4.993-2.192-7.523-2.05-9.12-1.851-2.776-0.963-2.384-1.448-5.874-3.051-1.742 0.947-5.652 7.2-5.354 9.119-0.164 1.383-2.279 1.64-2.78 2.731-0.614 1.334-1.505 3.397-1.166 4.628 0.185 0.672 1.875 2.006 3.598 2.903 2.527 1.28 5.042 1.082 8.545 1.497-1.961 3.827-2.731 4.49-2.224 11.356-0.433 1.002-8.028 1.114-12.24 2.767 0.209 0.587 0.56 11.904-0.279 18.525 0.477 1.499 0.597 5.922-0.06 6.584 0 2.448 0.14 6.634 0.14 6.634 8.263-0.419 14.392-1.352 22.062-1.947 3.746 0.078 10.613-1.126 13.739-0.746 4.584-1.308 7.867-1.793 17.754-4.703 6.245 0.791 11.708 3.075 17.572 3.35 1.966-0.161 5.065-1.042 7.813-1.573 3.665-1.734 10.46-1.79 17.017-3.645 3.091-1.298 6.269-2.292 8.591-3.051-2.853-12.238-8.238-7.854-10.756-15.23-3.446-6.897-4.268-13.781-6.418-20.307-0.867-1.238-1.954-2.407-3.14-3.403-7.667-6.437-18.19-11.969-26.65-16.374-3.31-2.213-6.542-2.491-9.723-2.515z" fill="#dbeccb"/>
    <path d="m197.31 132.19c-3.218-0.083-4.545-1.324-6.408-3.094-3.047-2.894-3.744-7.011-6.987-7.27-2.857 0.245-7.975 0.966-9.171 1.245-0.939 3.065-5.875 6.655-9.53 8.714-3.136 1.093-6.219 1.389-9.104 2.519-2.902 1.135-8.568 4.389-10.834 6.897-0.142 0.158-0.799 0.474-0.962 0.612-0.491 0.419 0.559 1.105 0.149 1.551-1.288 1.398-2.15 1.682-3.014 3.39 1.022 1.171-1.279 4.676-1.289 7.096-0.085 2.136-0.318 2.701 3.84 4.843 2.703-0.199 5.36-0.202 7.771 0.823-1.038 2.862-2.258 5.407-3.53 7.859 3.489 1.603 3.098 2.088 5.873 3.051 1.597-0.199 4.127-0.341 9.121 1.851-0.733-2.74-2.89-4.76-1.528-5.693 1.58-1.081 6.754-1.03 9.36-1.155 0.916-0.044 1.744-0.511 2.637-0.445 0.871 0.065 1.816 0.736 2.649 0.596 2.979-0.5 4.875-2.013 7.929-1.605 3.181 0.024 6.412 0.302 9.722 2.516 0 0 0.212-1.914 0.231-2.001 0.546-2.491 3.761-6.437 6.394-10.583-0.842-1.903-3.224-5.274-4.703-7.606 1.59-1.506 4.903-3.671 6.248-5.344-1.597-3.419-2.846-7.433-4.864-8.767z" fill="#fdfad4"/>
  </g>
  <g aria-label="اردکان">
    <path d="m217.58 86.597c0 0.3555-0.073 0.6813-0.219 0.9775-0.086 0.1778-0.146 0.2666-0.177 0.2666-0.037 0-0.055-0.1116-0.055-0.3349 0-1.0118-0.178-3.4818-0.533-7.4102l0.724-0.6768c0.064-0.0592 0.107-0.0911 0.13-0.0957 0.023 0 0.037 0.0502 0.041 0.1504 0.059 1.153 0.089 3.5273 0.089 7.123z"/>
    <path d="m215.52 87.757c0 0.8522-0.271 1.6566-0.813 2.4131-0.465 0.6471-0.853 0.9707-1.163 0.9707-0.665 0-1.239-0.0342-1.722-0.1025-0.16-0.0228-0.24-0.0616-0.24-0.1163 0-0.0546 0.082-0.0979 0.247-0.1298 0.683-0.1413 1.371-0.5036 2.064-1.0869 0.738-0.6244 1.107-1.2236 1.107-1.7978 0-0.3828-0.305-0.8705-0.916-1.4629l0.397-0.8272c0.036-0.0729 0.064-0.1116 0.082-0.1162 0.027 0.0091 0.066 0.0456 0.116 0.1094 0.21 0.2552 0.399 0.5947 0.568 1.0186 0.182 0.4466 0.273 0.8226 0.273 1.1279z"/>
    <path d="m211.1 85.847c0 1.2168-0.807 1.8252-2.42 1.8252-0.601 0-1.041-0.082-1.319-0.2461-0.36-0.2096-0.54-0.5902-0.54-1.1416 0-0.2598 0.07-0.5241 0.212-0.793 0.063-0.123 0.123-0.1845 0.177-0.1845 0.069 0 0.094 0.0752 0.076 0.2255-0.014 0.1094-0.021 0.2006-0.021 0.2735 0 0.3646 0.164 0.6107 0.492 0.7383 0.201 0.0774 0.524 0.1162 0.971 0.1162 1.276 0 1.914-0.1983 1.914-0.5947 0-0.6244-0.745-1.4766-2.235-2.5566l0.259-0.8887c0.028-0.0866 0.053-0.1299 0.076-0.1299 0.027 0 0.084 0.0342 0.171 0.1025 1.458 1.1712 2.187 2.2559 2.187 3.2539z"/>
    <path d="m206.14 79.577c-0.023 0.1504-0.134 0.4854-0.335 1.0049l-2.208 0.6904c-0.989 0.319-1.659 0.5834-2.01 0.793 0.693 0.6881 1.162 1.1894 1.408 1.5039 0.47 0.6016 0.73 1.1712 0.78 1.709 0.041 0.4329-0.023 0.8545-0.192 1.2646-0.305 0.7519-1.221 1.1279-2.748 1.1279h-0.471v-1.0117h0.492c0.688 0 1.182-0.0319 1.483-0.0957 0.629-0.1322 0.944-0.4124 0.944-0.8408 0-0.5834-0.479-1.308-1.436-2.1738l-0.123 0.1914c-0.091-0.0729-0.248-0.2552-0.472-0.5469-0.241-0.3053-0.362-0.4922-0.362-0.5605 0-0.1641 0.032-0.3851 0.096-0.6631 0.073-0.3099 0.15-0.5127 0.232-0.6084 0.055-0.0638 0.656-0.3099 1.805-0.7383 1.29-0.4831 2.329-0.8317 3.117-1.0459z"/>
    <path d="m200.72 87.677h-0.595c-0.651 0-1.103-0.2666-1.353-0.7998-0.178-0.3737-0.265-0.932-0.26-1.6748l7e-3 -1.668c5e-3 -0.8067-0.064-1.9414-0.205-3.4043l0.54-0.5742c0.1-0.1048 0.159-0.098 0.178 0.0205 0.123 0.761 0.184 1.9117 0.184 3.4521v2.5498c0 0.7246 0.349 1.0869 1.046 1.0869h0.458z"/>
    <path d="m197.17 87.557c0.05 0.3053 0.075 0.5606 0.075 0.7656 0 0.3282-0.054 0.6472-0.164 0.9571-0.228 0.6517-0.74 1.1575-1.538 1.5176-0.665 0.3007-1.39 0.4511-2.174 0.4511-0.765 0-1.394-0.1891-1.886-0.5674-0.538-0.4192-0.807-1.0026-0.807-1.75 0-0.3964 0.098-0.8203 0.294-1.2715 0.141-0.3235 0.287-0.5764 0.437-0.7587 0.073-0.0866 0.139-0.1299 0.199-0.1299 0.054 0 0.082 0.0319 0.082 0.0957 0 0.041-0.014 0.0888-0.041 0.1435-0.26 0.5332-0.39 1.0209-0.39 1.4629 0 0.433 0.143 0.8067 0.431 1.1211 0.378 0.4148 0.95 0.6221 1.715 0.6221 0.866 0 1.632-0.1549 2.297-0.4648 0.547-0.2552 0.889-0.5332 1.026-0.834 0.045-0.1003 0.068-0.2256 0.068-0.376 0-0.2324-0.059-0.5172-0.178-0.8545-0.1-0.2825-0.373-0.7405-0.82-1.374l0.356-0.7109c0.054-0.1048 0.095-0.1572 0.123-0.1572 0.027 0 0.068 0.0433 0.123 0.1298 0.401 0.6244 0.658 1.2852 0.772 1.9824zm-2.577-3.7871-0.711 0.7109-0.718-0.7177 0.711-0.711z"/>
  </g>
  <g aria-label="میبد">
    <path d="m78.711 146.03c0.0365 0.433-0.0137 0.798-0.1504 1.094-0.2096 0.451-0.442 0.677-0.6972 0.677-0.4649 0-1.1257-0.299-1.9825-0.896-0.2643 0.315-0.4488 0.513-0.5537 0.595-0.2278 0.178-0.5081 0.266-0.8408 0.266h-0.4717v-1.011h0.6221c0.3919 0 0.736-0.201 1.0322-0.602 0.1458-0.21 0.4079-0.581 0.7861-1.114 0.2872-0.401 0.5811-0.602 0.8819-0.602 0.4238 0 0.7702 0.214 1.0391 0.643 0.1959 0.314 0.3076 0.631 0.3349 0.95zm-0.5195 0.643c0-0.256-0.0957-0.534-0.2871-0.834-0.2142-0.338-0.4489-0.506-0.7041-0.506-0.2598 0-0.5651 0.266-0.9161 0.8 0.1459 0.159 0.4125 0.328 0.7998 0.505 0.3874 0.174 0.6882 0.26 0.9024 0.26 0.1367 0 0.2051-0.075 0.2051-0.225z"/>
    <path d="m74.371 147.77h-0.6699c-0.8067 0-1.3467-0.264-1.6201-0.793-0.3008 0.529-0.9024 0.793-1.8047 0.793h-0.5674v-1.012h0.7793c0.8522 0 1.317-0.33 1.3945-0.991 0.0319-0.264 0.098-0.396 0.1982-0.396 0.1003 0 0.1641 0.136 0.1914 0.41 0.0593 0.651 0.5014 0.977 1.3262 0.977h0.7725zm-1.3809 1.928-0.6768 0.676-0.6836-0.683 0.6768-0.677zm-1.5039 0-0.6699 0.676-0.6836-0.683 0.6767-0.677z"/>
    <path d="m70.071 147.77h-0.6699c-0.8067 0-1.3467-0.264-1.6201-0.793-0.3008 0.529-0.9024 0.793-1.8047 0.793h-0.5674v-1.012h0.7793c0.8522 0 1.317-0.33 1.3945-0.991 0.0319-0.264 0.0979-0.396 0.1982-0.396s0.1641 0.136 0.1914 0.41c0.0593 0.651 0.5014 0.977 1.3262 0.977h0.7725zm-1.8936 1.928-0.7109 0.711-0.7178-0.718 0.7109-0.711z"/>
    <path d="m65.761 147.77h-0.3897c-0.3281 0-0.6061-0.105-0.8339-0.314-0.1413-0.133-0.3122-0.365-0.5127-0.698-0.2097 0.374-0.4535 0.636-0.7315 0.786-0.3372 0.187-0.8203 0.281-1.4492 0.281-1.2259 0-1.8389-0.44-1.8389-1.32 0-0.296 0.0912-0.601 0.2735-0.916 0.0592-0.104 0.1185-0.157 0.1777-0.157 0.0547 0 0.082 0.046 0.082 0.137 0 0.05-0.0068 0.125-0.0205 0.225-0.0137 0.096-0.0205 0.169-0.0205 0.219 0 0.524 0.4443 0.786 1.333 0.786 1.2533 0 1.8799-0.243 1.8799-0.731 0-0.264-0.3623-1.215-1.0869-2.851l0.3896-0.676c0.0502-0.087 0.0844-0.133 0.1026-0.137 0.0273 0.018 0.0615 0.075 0.1025 0.171 0.2917 0.688 0.6905 1.727 1.1963 3.117 0.2598 0.711 0.6267 1.066 1.1006 1.066h0.2461z"/>
  </g>
  <g aria-label="یزد">
    <path d="m178.58 148.14c0 1.158-0.576 1.736-1.73 1.736h-0.717v-1.011h0.594c0.871 0 1.306-0.158 1.306-0.472 0-0.219-0.198-0.581-0.595-1.087l0.356-0.861c0.036-0.087 0.066-0.13 0.089-0.13s0.07 0.052 0.143 0.157c0.369 0.542 0.554 1.098 0.554 1.668zm0.807 3.664-0.677 0.677-0.677-0.684 0.677-0.676zm-1.497 0-0.677 0.677-0.677-0.684 0.67-0.676z"/>
    <path d="m176.49 149.88h-0.369c-0.319 0-0.561-0.055-0.725-0.164 9e-3 0.091 0.014 0.182 0.014 0.273 0 0.821-0.267 1.611-0.8 2.372-0.46 0.657-0.836 0.985-1.128 0.985-0.665 0-1.239-0.034-1.722-0.103-0.16-0.022-0.24-0.061-0.24-0.116s0.082-0.098 0.246-0.13c0.684-0.141 1.372-0.503 2.065-1.087 0.738-0.624 1.107-1.223 1.107-1.797 0-0.383-0.305-0.871-0.916-1.463l0.404-0.821c0.032-0.068 0.059-0.105 0.082-0.109 0.027 9e-3 0.066 0.048 0.116 0.116 0.269 0.356 0.476 0.593 0.622 0.711 0.273 0.214 0.597 0.321 0.971 0.321h0.273zm-1.675-4.614-0.711 0.711-0.711-0.718 0.711-0.704z"/>
    <path d="m171.04 148.05c0 1.217-0.807 1.825-2.42 1.825-0.601 0-1.041-0.082-1.319-0.246-0.36-0.21-0.54-0.59-0.54-1.141 0-0.26 0.07-0.525 0.212-0.793 0.063-0.124 0.123-0.185 0.177-0.185 0.069 0 0.094 0.075 0.076 0.226-0.014 0.109-0.021 0.2-0.021 0.273 0 0.365 0.164 0.611 0.492 0.738 0.201 0.078 0.524 0.116 0.971 0.116 1.276 0 1.914-0.198 1.914-0.594 0-0.625-0.745-1.477-2.235-2.557l0.259-0.889c0.028-0.086 0.053-0.129 0.076-0.129 0.027 0 0.084 0.034 0.171 0.102 1.458 1.171 2.187 2.256 2.187 3.254z"/>
  </g>
  <g aria-label="اشکذر">
    <path d="m135.07 147.75c0 0.355-0.073 0.681-0.219 0.978-0.086 0.177-0.146 0.266-0.177 0.266-0.037 0-0.055-0.112-0.055-0.335 0-1.012-0.178-3.482-0.533-7.41l0.724-0.677c0.064-0.059 0.107-0.091 0.13-0.095 0.023 0 0.037 0.05 0.041 0.15 0.059 1.153 0.089 3.527 0.089 7.123z"/>
    <path d="m132.98 146.97c0 0.52-0.121 0.948-0.362 1.285-0.274 0.388-0.659 0.581-1.156 0.581-0.583 0-1.002-0.239-1.257-0.718-0.324 0.479-0.734 0.718-1.231 0.718-0.638 0-1.064-0.239-1.278-0.718-0.333 0.479-0.786 0.718-1.361 0.718h-0.608v-1.011h0.697c0.634 0 1.007-0.342 1.121-1.026 0.028-0.168 0.082-0.253 0.164-0.253 0.073 0 0.119 0.087 0.137 0.26 0.069 0.679 0.435 1.019 1.101 1.019 0.392 0 0.67-0.101 0.834-0.301 0.114-0.141 0.196-0.381 0.246-0.718 0.023-0.164 0.07-0.246 0.143-0.246 0.078 0 0.128 0.08 0.151 0.239 0.091 0.684 0.442 1.026 1.052 1.026 0.666 0 0.999-0.158 0.999-0.472 0-0.251-0.165-0.583-0.493-0.998l0.397-0.745c0.064-0.119 0.109-0.178 0.137-0.178 0.027 0 0.077 0.066 0.15 0.198 0.278 0.506 0.417 0.953 0.417 1.34zm-2.188-4.56-0.635 0.643-0.643-0.649 0.636-0.636zm0.793 1.368-0.649 0.642-0.643-0.649 0.643-0.636zm-1.558 0-0.643 0.642-0.649-0.649 0.642-0.636z"/>
    <path d="m126.09 148.83h-0.629c-0.451 0-0.914-0.246-1.388-0.738-0.232-0.242-0.572-0.688-1.018-1.34 0.045 1.385-0.736 2.078-2.345 2.078h-0.991v-1.012h1.114c1.176 0 1.764-0.326 1.764-0.977 0-0.347-0.205-0.77-0.615-1.272-0.26-0.314-0.638-0.704-1.135-1.169-0.41-0.383-0.615-0.594-0.615-0.635 0-0.584 0.098-1.008 0.294-1.272 0.041-0.059 0.613-0.292 1.715-0.697 1.158-0.429 2.204-0.784 3.138-1.067 0 0.128-0.075 0.452-0.226 0.971-1.107 0.365-2.533 0.877-4.279 1.538 0.811 0.716 1.805 1.837 2.981 3.363 0.414 0.538 0.752 0.885 1.011 1.04 0.201 0.118 0.49 0.177 0.869 0.177h0.355z"/>
    <path d="m120.07 148.83h-0.39c-0.328 0-0.606-0.105-0.834-0.314-0.141-0.133-0.312-0.365-0.512-0.698-0.21 0.374-0.454 0.636-0.732 0.786-0.337 0.187-0.82 0.281-1.449 0.281-1.226 0-1.839-0.44-1.839-1.32 0-0.296 0.091-0.601 0.274-0.916 0.059-0.104 0.118-0.157 0.177-0.157 0.055 0 0.082 0.046 0.082 0.137 0 0.05-7e-3 0.125-0.02 0.225-0.014 0.096-0.021 0.169-0.021 0.219 0 0.524 0.445 0.786 1.333 0.786 1.254 0 1.88-0.243 1.88-0.731 0-0.264-0.362-1.215-1.087-2.851l0.39-0.676c0.05-0.087 0.084-0.133 0.102-0.137 0.028 0.018 0.062 0.075 0.103 0.171 0.292 0.688 0.69 1.727 1.196 3.117 0.26 0.711 0.627 1.066 1.101 1.066h0.246zm-2.611-7.178-0.711 0.711-0.718-0.718 0.711-0.71z"/>
    <path d="m113.24 148.92c0 0.852-0.271 1.657-0.813 2.413-0.465 0.647-0.853 0.971-1.163 0.971-0.665 0-1.239-0.034-1.722-0.103-0.16-0.023-0.24-0.061-0.24-0.116s0.082-0.098 0.247-0.13c0.683-0.141 1.371-0.503 2.064-1.087 0.738-0.624 1.107-1.223 1.107-1.798 0-0.382-0.305-0.87-0.916-1.462l0.397-0.828c0.036-0.072 0.064-0.111 0.082-0.116 0.027 9e-3 0.066 0.046 0.116 0.11 0.21 0.255 0.399 0.594 0.567 1.018 0.183 0.447 0.274 0.823 0.274 1.128z"/>
  </g>
  <g aria-label="مهریز">
    <path d="m195.07 198.92c0.036 0.433-0.014 0.798-0.15 1.094-0.21 0.451-0.442 0.677-0.698 0.677-0.464 0-1.125-0.299-1.982-0.896-0.264 0.315-0.449 0.513-0.554 0.595-0.228 0.178-0.508 0.266-0.841 0.266h-0.471v-1.011h0.622c0.392 0 0.736-0.201 1.032-0.602 0.146-0.21 0.408-0.581 0.786-1.114 0.287-0.401 0.581-0.602 0.882-0.602 0.424 0 0.77 0.214 1.039 0.643 0.196 0.314 0.308 0.631 0.335 0.95zm-0.52 0.643c0-0.256-0.095-0.534-0.287-0.834-0.214-0.338-0.449-0.506-0.704-0.506-0.26 0-0.565 0.266-0.916 0.8 0.146 0.159 0.413 0.328 0.8 0.505 0.387 0.174 0.688 0.26 0.902 0.26 0.137 0 0.205-0.075 0.205-0.225z"/>
    <path d="m190.73 200.66h-0.451c-0.347 0-0.672 0.057-0.978 0.171-0.474 0.178-0.711 0.476-0.711 0.895 0 0.511 0.349 0.985 1.046 1.422l-0.403 0.916c-0.816-0.291-1.493-0.699-2.03-1.223-0.657-0.638-1.012-1.365-1.067-2.181h-1.203v-1.012h1.155c0-0.665 0.18-1.415 0.54-2.249 0.338-0.784 0.607-1.175 0.807-1.175 0.205 0 0.444 0.369 0.718 1.107 0.246 0.665 0.369 1.139 0.369 1.422 0 1.235-0.599 1.861-1.798 1.88 0.073 0.378 0.249 0.74 0.527 1.087 0.278 0.346 0.592 0.606 0.943 0.779-0.014-0.123-0.021-0.244-0.021-0.362 0-0.616 0.149-1.137 0.445-1.566 0.424-0.615 1.002-0.923 1.736-0.923h0.376zm-2.666-1.415c0-0.173-0.098-0.492-0.294-0.957-0.21-0.492-0.378-0.738-0.506-0.738-0.118 0-0.257 0.214-0.417 0.642-0.178 0.474-0.266 0.957-0.266 1.449 0.989 0 1.483-0.132 1.483-0.396z"/>
    <path d="m185.29 200.66h-0.369c-0.319 0-0.561-0.055-0.725-0.164 9e-3 0.091 0.014 0.182 0.014 0.273 0 0.821-0.267 1.611-0.8 2.372-0.46 0.657-0.836 0.985-1.128 0.985-0.665 0-1.239-0.034-1.722-0.103-0.16-0.022-0.24-0.061-0.24-0.116s0.082-0.098 0.246-0.13c0.684-0.141 1.372-0.503 2.065-1.087 0.738-0.624 1.107-1.223 1.107-1.798 0-0.382-0.305-0.87-0.916-1.462l0.404-0.821c0.032-0.068 0.059-0.105 0.082-0.109 0.027 9e-3 0.066 0.048 0.116 0.116 0.269 0.356 0.476 0.592 0.622 0.711 0.273 0.214 0.597 0.321 0.971 0.321h0.273z"/>
    <path d="m179.01 198.92c0 1.158-0.577 1.736-1.73 1.736h-0.717v-1.011h0.594c0.871 0 1.306-0.158 1.306-0.472 0-0.219-0.198-0.581-0.595-1.087l0.356-0.861c0.036-0.087 0.066-0.13 0.089-0.13s0.07 0.052 0.143 0.157c0.369 0.542 0.554 1.098 0.554 1.668zm0.807 3.664-0.677 0.677-0.677-0.684 0.677-0.676zm-1.497 0-0.677 0.677-0.677-0.684 0.67-0.676z"/>
    <path d="m176.92 200.66h-0.369c-0.319 0-0.561-0.055-0.725-0.164 9e-3 0.091 0.014 0.182 0.014 0.273 0 0.821-0.267 1.611-0.8 2.372-0.46 0.657-0.836 0.985-1.128 0.985-0.665 0-1.239-0.034-1.722-0.103-0.16-0.022-0.24-0.061-0.24-0.116s0.082-0.098 0.246-0.13c0.684-0.141 1.372-0.503 2.065-1.087 0.738-0.624 1.107-1.223 1.107-1.798 0-0.382-0.305-0.87-0.916-1.462l0.404-0.821c0.031-0.068 0.059-0.105 0.082-0.109 0.027 9e-3 0.066 0.048 0.116 0.116 0.269 0.356 0.476 0.592 0.622 0.711 0.273 0.214 0.597 0.321 0.97 0.321h0.274zm-1.675-4.614-0.711 0.711-0.711-0.718 0.711-0.704z"/>
  </g>
  <g aria-label="بافق">
    <path d="m261.75 174.04c0 1.158-0.577 1.736-1.729 1.736h-0.718v-1.011h0.594c0.871 0 1.306-0.158 1.306-0.472 0-0.219-0.198-0.581-0.595-1.087l0.356-0.861c0.036-0.087 0.066-0.13 0.089-0.13s0.07 0.052 0.143 0.157c0.369 0.542 0.554 1.098 0.554 1.668zm-0.28 3.664-0.711 0.711-0.718-0.718 0.711-0.711z"/>
    <path d="m259.67 175.78h-0.595c-0.651 0-1.103-0.267-1.353-0.8-0.178-0.374-0.265-0.932-0.26-1.675l7e-3 -1.668c5e-3 -0.806-0.064-1.941-0.205-3.404l0.54-0.574c0.1-0.105 0.159-0.098 0.178 0.02 0.123 0.761 0.184 1.912 0.184 3.453v2.549c0 0.725 0.349 1.087 1.046 1.087h0.458z"/>
    <path d="m256.21 173.3v0.355c0 0.575-0.087 0.987-0.26 1.238-0.405 0.588-1.157 0.882-2.256 0.882h-1.23v-1.012h0.868c1.495 0 2.308-0.244 2.44-0.732 0.014-0.05 0.021-0.109 0.021-0.177 0-0.137-0.025-0.249-0.075-0.335-0.374 0.077-0.761 0.116-1.162 0.116-0.816 0-1.226-0.34-1.231-1.019-5e-3 -0.469 0.107-0.929 0.335-1.381 0.273-0.542 0.624-0.813 1.053-0.813 0.378 0 0.713 0.244 1.005 0.731 0.328 0.552 0.492 1.267 0.492 2.147zm-0.663-0.759c0-0.278-0.098-0.531-0.294-0.759-0.191-0.227-0.424-0.341-0.697-0.341-0.196 0-0.358 0.061-0.486 0.184-0.127 0.123-0.193 0.28-0.198 0.472-5e-3 0.364 0.276 0.551 0.841 0.56 0.246 5e-3 0.524-0.034 0.834-0.116zm-0.356-4.04-0.704 0.711-0.717-0.718 0.711-0.711z"/>
    <path d="m252.82 175.78h-0.916v0.191c0 0.771-0.064 1.288-0.191 1.552-0.292 0.597-0.812 1.055-1.559 1.374-0.633 0.269-1.328 0.404-2.085 0.404-1.996 0-2.999-0.757-3.008-2.27 0-0.346 0.075-0.75 0.226-1.21 0.123-0.369 0.275-0.672 0.458-0.909 0.086-0.11 0.162-0.166 0.225-0.171 0.05 0 0.078 0.039 0.082 0.116 5e-3 0.069-0.013 0.146-0.054 0.233-0.242 0.524-0.365 1-0.369 1.428-5e-3 0.574 0.248 1.019 0.758 1.333 0.433 0.265 0.955 0.397 1.566 0.397 0.738 0 1.39-0.082 1.955-0.246 0.816-0.237 1.315-0.611 1.497-1.121 0.032-0.087 0.05-0.215 0.055-0.383 4e-3 -0.137-7e-3 -0.29-0.035-0.458-4e-3 -0.078-0.018-0.164-0.041-0.26h-1.319c-0.756 0-1.135-0.335-1.135-1.005 0-0.46 0.112-0.923 0.335-1.388 0.274-0.565 0.618-0.847 1.032-0.847 0.447 0 0.821 0.273 1.122 0.82 0.227 0.415 0.373 0.884 0.437 1.408h0.964zm-1.62-1.005c0-0.255-0.114-0.524-0.342-0.807-0.2-0.246-0.433-0.371-0.697-0.376-0.182-4e-3 -0.337 0.057-0.465 0.185-0.123 0.128-0.187 0.283-0.191 0.465-5e-3 0.223 0.072 0.374 0.232 0.451 0.119 0.059 0.355 0.089 0.711 0.089h0.444c0.023 0 0.06-2e-3 0.11-7e-3zm0.369-4.218-0.67 0.67-0.683-0.677 0.676-0.676zm-1.497 0-0.677 0.67-0.677-0.677 0.67-0.676z"/>
  </g>
  <g aria-label="بهاباد">
    <path d="m332.69 141.59c0 1.158-0.577 1.736-1.729 1.736h-0.718v-1.011h0.594c0.871 0 1.306-0.158 1.306-0.472 0-0.219-0.198-0.581-0.595-1.087l0.356-0.861c0.036-0.087 0.066-0.13 0.089-0.13s0.07 0.052 0.143 0.157c0.369 0.542 0.554 1.098 0.554 1.668zm-0.28 3.664-0.711 0.711-0.718-0.718 0.711-0.711z"/>
    <path d="m330.61 143.33h-0.451c-0.347 0-0.672 0.057-0.978 0.171-0.474 0.178-0.711 0.476-0.711 0.895 0 0.511 0.349 0.985 1.046 1.422l-0.403 0.916c-0.816-0.291-1.493-0.699-2.03-1.223-0.657-0.638-1.012-1.365-1.067-2.181h-1.203v-1.012h1.155c0-0.665 0.18-1.415 0.54-2.249 0.338-0.784 0.607-1.175 0.807-1.175 0.205 0 0.444 0.369 0.718 1.107 0.246 0.665 0.369 1.139 0.369 1.422 0 1.235-0.599 1.861-1.798 1.88 0.073 0.378 0.249 0.74 0.527 1.087 0.278 0.346 0.592 0.606 0.943 0.779-0.014-0.123-0.021-0.244-0.021-0.362 0-0.616 0.148-1.137 0.445-1.566 0.424-0.615 1.002-0.923 1.736-0.923h0.376zm-2.666-1.415c0-0.173-0.098-0.492-0.294-0.957-0.21-0.492-0.378-0.738-0.506-0.738-0.118 0-0.257 0.214-0.417 0.642-0.178 0.474-0.266 0.957-0.266 1.449 0.989 0 1.483-0.132 1.483-0.396z"/>
    <path d="m325.17 143.33h-0.595c-0.651 0-1.103-0.267-1.353-0.8-0.178-0.374-0.265-0.932-0.26-1.675l7e-3 -1.668c5e-3 -0.806-0.064-1.941-0.205-3.404l0.54-0.574c0.1-0.105 0.159-0.098 0.178 0.02 0.123 0.761 0.184 1.912 0.184 3.453v2.549c0 0.725 0.349 1.087 1.046 1.087h0.458z"/>
    <path d="m321.7 141.59c0 1.158-0.577 1.736-1.73 1.736h-0.717v-1.011h0.594c0.871 0 1.306-0.158 1.306-0.472 0-0.219-0.198-0.581-0.595-1.087l0.356-0.861c0.036-0.087 0.066-0.13 0.089-0.13s0.07 0.052 0.143 0.157c0.37 0.542 0.554 1.098 0.554 1.668zm-0.28 3.664-0.711 0.711-0.718-0.718 0.711-0.711z"/>
    <path d="m319.62 143.33h-0.595c-0.651 0-1.103-0.267-1.353-0.8-0.178-0.374-0.265-0.932-0.26-1.675l7e-3 -1.668c5e-3 -0.806-0.064-1.941-0.205-3.404l0.54-0.574c0.1-0.105 0.159-0.098 0.178 0.02 0.123 0.761 0.184 1.912 0.184 3.453v2.549c0 0.725 0.349 1.087 1.046 1.087h0.458z"/>
    <path d="m316.14 141.5c0 1.217-0.807 1.825-2.42 1.825-0.601 0-1.041-0.082-1.319-0.246-0.36-0.21-0.54-0.59-0.54-1.141 0-0.26 0.07-0.525 0.212-0.793 0.063-0.124 0.123-0.185 0.177-0.185 0.069 0 0.094 0.075 0.076 0.226-0.014 0.109-0.021 0.2-0.021 0.273 0 0.365 0.164 0.611 0.492 0.738 0.201 0.078 0.524 0.116 0.971 0.116 1.276 0 1.914-0.198 1.914-0.594 0-0.625-0.745-1.477-2.235-2.557l0.259-0.889c0.028-0.086 0.053-0.129 0.076-0.129 0.027 0 0.084 0.034 0.171 0.102 1.458 1.171 2.187 2.256 2.187 3.254z"/>
  </g>
  <g aria-label="تفت">
    <path d="m115.78 192.11c0 1.158-0.577 1.736-1.73 1.736h-0.717v-1.011h0.594c0.871 0 1.306-0.158 1.306-0.472 0-0.219-0.198-0.581-0.595-1.087l0.356-0.861c0.036-0.087 0.066-0.13 0.089-0.13s0.07 0.052 0.143 0.157c0.369 0.542 0.554 1.098 0.554 1.668zm0.69-3.828-0.676 0.677-0.684-0.684 0.677-0.67zm-1.503 0-0.67 0.677-0.684-0.684 0.677-0.67z"/>
    <path d="m113.7 193.84h-0.451c-0.283 0-0.62-0.052-1.012-0.157-0.433-0.114-0.745-0.244-0.936-0.39-0.196 0.132-0.458 0.248-0.787 0.349-0.423 0.132-0.847 0.198-1.271 0.198h-0.636v-1.012h0.41c0.684 0 1.133-0.05 1.347-0.15-0.132-0.096-0.248-0.244-0.349-0.444-0.095-0.206-0.143-0.39-0.143-0.554 0-0.365 0.148-0.789 0.444-1.272 0.347-0.565 0.736-0.847 1.169-0.847 0.419 0 0.738 0.225 0.957 0.676 0.169 0.347 0.255 0.755 0.26 1.224 5e-3 0.305-0.068 0.577-0.219 0.814-0.082 0.132-0.207 0.262-0.376 0.389 0.21 0.11 0.625 0.164 1.244 0.164h0.349zm-1.504-2.249c0-0.21-0.086-0.426-0.26-0.649-0.182-0.242-0.373-0.365-0.574-0.37-0.196-4e-3 -0.403 0.094-0.622 0.294-0.214 0.201-0.324 0.399-0.328 0.595-5e-3 0.214 0.1 0.415 0.314 0.602 0.187 0.164 0.395 0.271 0.622 0.321 0.21-0.027 0.399-0.114 0.568-0.26 0.187-0.159 0.28-0.337 0.28-0.533zm-0.253-4.3-0.711 0.711-0.718-0.718 0.711-0.711z"/>
    <path d="m108.96 193.84h-0.369c-0.41 0-0.745-0.093-1.005-0.28-0.296-0.21-0.447-0.511-0.451-0.903-0.971 0.898-2.468 1.347-4.491 1.347-2.088 0-3.1313-0.633-3.1313-1.9 0-0.429 0.1618-0.873 0.4853-1.333 0.059-0.087 0.123-0.13 0.191-0.13 0.064 0 0.096 0.041 0.096 0.123 0 0.036-0.011 0.082-0.034 0.137-0.128 0.291-0.191 0.553-0.191 0.786 0 0.87 0.947 1.305 2.843 1.305 2.211 0 3.678-0.48 4.403-1.442 0.146-0.191 0.257-0.287 0.335-0.287 0.054 0 0.082 0.055 0.082 0.164 0 0.077-0.016 0.194-0.048 0.349s-0.048 0.271-0.048 0.348c0 0.47 0.321 0.704 0.964 0.704h0.369zm-3.938-5.079-0.676 0.67-0.677-0.677 0.67-0.677zm-1.497 0-0.676 0.67-0.684-0.677 0.677-0.677z"/>
  </g>
  <g aria-label="ابرکوه">
    <path d="m73.421 225.7c0 0.355-0.0729 0.681-0.2187 0.978-0.0866 0.177-0.1459 0.266-0.1778 0.266-0.0365 0-0.0547-0.112-0.0547-0.335 0-1.012-0.1777-3.482-0.5332-7.41l0.7246-0.677c0.0638-0.059 0.1071-0.091 0.1299-0.095 0.0228 0 0.0365 0.05 0.041 0.15 0.0593 1.153 0.0889 3.527 0.0889 7.123z"/>
    <path d="m71.371 225.04c0 1.158-0.5765 1.736-1.7295 1.736h-0.7178v-1.011h0.5947c0.8705 0 1.3057-0.158 1.3057-0.472 0-0.219-0.1982-0.581-0.5947-1.087l0.3555-0.861c0.0365-0.087 0.0661-0.13 0.0889-0.13s0.0706 0.052 0.1435 0.157c0.3692 0.542 0.5538 1.098 0.5538 1.668zm-0.2803 3.664-0.7109 0.711-0.7178-0.718 0.7109-0.711z"/>
    <path d="m69.271 226.78h-0.3691c-0.3191 0-0.5606-0.055-0.7246-0.164 0.0091 0.091 0.0137 0.182 0.0137 0.273 0 0.821-0.2667 1.611-0.7999 2.372-0.4602 0.657-0.8362 0.985-1.1279 0.985-0.6653 0-1.2396-0.034-1.7227-0.103-0.1595-0.022-0.2392-0.061-0.2392-0.116s0.082-0.098 0.2461-0.13c0.6836-0.141 1.3717-0.503 2.0644-1.087 0.7383-0.624 1.1074-1.223 1.1074-1.798 0-0.382-0.3053-0.87-0.916-1.462l0.4033-0.821c0.0319-0.068 0.0593-0.105 0.082-0.109 0.0273 9e-3 0.0661 0.048 0.1162 0.116 0.2689 0.356 0.4762 0.592 0.6221 0.711 0.2734 0.214 0.597 0.321 0.9707 0.321h0.2734z"/>
    <path d="m64.201 218.68c-0.0228 0.15-0.1345 0.485-0.335 1.005l-2.208 0.69c-0.9889 0.319-1.6588 0.584-2.0098 0.793 0.6928 0.688 1.1622 1.19 1.4082 1.504 0.4694 0.602 0.7292 1.171 0.7793 1.709 0.041 0.433-0.0228 0.855-0.1914 1.265-0.3053 0.752-1.2213 1.128-2.748 1.128h-0.4717v-1.012h0.4922c0.6882 0 1.1826-0.032 1.4834-0.096 0.6289-0.132 0.9434-0.412 0.9434-0.841 0-0.583-0.4785-1.307-1.4355-2.173l-0.1231 0.191c-0.0911-0.073-0.2483-0.255-0.4716-0.547-0.2416-0.305-0.3623-0.492-0.3623-0.56 0-0.164 0.0319-0.385 0.0957-0.663 0.0729-0.31 0.1503-0.513 0.2324-0.609 0.0546-0.064 0.6562-0.31 1.8047-0.738 1.2897-0.483 2.3288-0.832 3.1172-1.046z"/>
    <path d="m58.791 226.78h-0.9502c-0.082 1.189-0.54 2.203-1.374 3.042-0.2643 0.264-0.4307 0.396-0.499 0.396-0.4785 0-1.0459-0.05-1.7022-0.15-0.2142-0.032-0.3213-0.066-0.3213-0.102 0-0.037 0.1139-0.089 0.3418-0.158 0.7201-0.209 1.3786-0.574 1.9756-1.093 0.2552-0.224 0.4876-0.481 0.6973-0.773 0.2643-0.369 0.3964-0.679 0.3964-0.93v-0.232h-1.0938c-0.8385 0-1.2578-0.34-1.2578-1.019 0-0.433 0.1254-0.897 0.376-1.394 0.2871-0.565 0.6153-0.848 0.9844-0.848 0.4512 0 0.8135 0.278 1.0869 0.834 0.2005 0.406 0.3258 0.877 0.376 1.415h0.9638zm-1.5654-1.025c0-0.265-0.0934-0.531-0.2803-0.8-0.2096-0.306-0.4511-0.458-0.7246-0.458-0.1777 0-0.3372 0.073-0.4785 0.219-0.1413 0.141-0.2119 0.3-0.2119 0.478 0 0.397 0.3395 0.595 1.0186 0.595 0.1777 0 0.4033-0.012 0.6767-0.034z"/>
    <path d="m53.351 224.94c0 0.597-0.1846 1.062-0.5537 1.394-0.3555 0.315-0.834 0.472-1.4356 0.472-0.3691 0-0.679-0.111-0.9297-0.335-0.2643-0.232-0.3965-0.531-0.3965-0.895 0-0.406 0.1732-0.909 0.5196-1.511 0.3007-0.52 0.6334-0.962 0.998-1.326 1.1986 0.624 1.7979 1.358 1.7979 2.201zm-0.499 0.355c0-0.241-0.1937-0.544-0.5811-0.909-0.3463-0.323-0.654-0.535-0.9228-0.635-0.4558 0.578-0.6836 1.041-0.6836 1.387 0 0.205 0.1071 0.372 0.3213 0.499 0.1823 0.11 0.3828 0.164 0.6015 0.164 0.3783 0 0.6973-0.07 0.9571-0.212 0.205-0.109 0.3076-0.207 0.3076-0.294z"/>
  </g>
  <g aria-label="خاتم">
    <path d="m148.93 291.8-0.383 0.684c-0.652-0.01-1.107 0.034-1.367 0.129-0.351 0.133-0.88 0.374-1.586 0.725-0.684 0.342-1.212 0.579-1.586 0.711-0.551 0.196-1.098 0.294-1.64 0.294h-0.622v-1.012h0.656c0.811 0 1.524-0.134 2.139-0.403l2.037-0.889c-0.323-0.073-0.84-0.241-1.551-0.506-0.588-0.218-0.969-0.328-1.142-0.328-0.337 0-0.681 0.148-1.032 0.445-0.069 0.059-0.13 0.089-0.185 0.089-0.059 0-0.089-0.039-0.089-0.117 0-0.032 9e-3 -0.075 0.028-0.13 0.287-0.843 0.777-1.264 1.469-1.264 0.246 0 0.581 0.096 1.005 0.287 0.711 0.319 1.24 0.538 1.586 0.656 0.597 0.201 1.308 0.328 2.133 0.383 0.146 9e-3 0.219 0.027 0.219 0.055 0 0.023-0.03 0.086-0.089 0.191zm-2.481-3.985-0.711 0.711-0.711-0.718 0.711-0.711z"/>
    <path d="m142.11 294.34h-0.595c-0.651 0-1.103-0.267-1.353-0.8-0.178-0.374-0.265-0.932-0.26-1.675l7e-3 -1.668c5e-3 -0.806-0.064-1.941-0.205-3.404l0.54-0.574c0.1-0.105 0.159-0.098 0.178 0.02 0.123 0.761 0.184 1.912 0.184 3.453v2.549c0 0.725 0.349 1.087 1.046 1.087h0.458z"/>
    <path d="m137.95 292.6c0 1.158-0.576 1.736-1.73 1.736h-0.717v-1.011h0.594c0.871 0 1.306-0.158 1.306-0.472 0-0.219-0.198-0.581-0.595-1.087l0.356-0.861c0.036-0.087 0.066-0.13 0.089-0.13s0.07 0.052 0.143 0.157c0.369 0.542 0.554 1.098 0.554 1.668zm0.69-3.828-0.676 0.677-0.684-0.684 0.677-0.67zm-1.503 0-0.67 0.677-0.684-0.684 0.677-0.67z"/>
    <path d="m135.86 294.34h-0.417c-0.533 0-0.941-0.118-1.224-0.355 0.037 0.123 0.055 0.282 0.055 0.478 0 0.912-0.303 1.367-0.909 1.367-0.497 0-0.893-0.273-1.19-0.82-0.241-0.447-0.362-0.943-0.362-1.49 0-0.119 7e-3 -0.233 0.021-0.342-0.087-0.014-0.176-0.021-0.267-0.021-0.57 0-0.984 0.149-1.244 0.445 0.182 1.417 0.273 2.472 0.273 3.165 0 0.337-0.089 0.743-0.266 1.217-0.064 0.168-0.112 0.252-0.144 0.252s-0.059-0.111-0.082-0.334l-0.41-4.061c-0.018-0.173 0.08-0.412 0.294-0.718 0.191-0.269 0.374-0.467 0.547-0.595 0.123-0.091 0.344-0.17 0.663-0.239 0.283-0.064 0.519-0.096 0.711-0.096 0.05 0 0.096 3e-3 0.137 7e-3l0.129-0.56c0.028-0.114 0.055-0.171 0.082-0.171 0.028 9e-3 0.073 0.041 0.137 0.096 0.702 0.629 1.21 1.048 1.525 1.258 0.51 0.337 0.986 0.505 1.428 0.505h0.513zm-1.982-0.055c0-0.241-0.18-0.526-0.54-0.854-0.06-0.055-0.388-0.34-0.985-0.855-0.023 0.173-0.034 0.34-0.034 0.499 0 0.406 0.073 0.764 0.219 1.074 0.187 0.401 0.462 0.601 0.827 0.601 0.342 0 0.513-0.155 0.513-0.465z"/>
  </g>
</svg>
