<svg viewBox="0 0 469.92 224.58" xmlns="http://www.w3.org/2000/svg" xmlns:xlink="http://www.w3.org/1999/xlink">
  <defs>
    <path id="marker" transform="scale(.5)" d="m5.77 0-8.65 5v-10z"/>
    <marker id="marker1" overflow="visible" orient="auto">
      <use xlink:href="#marker" fill="#ff0000"/>
    </marker>
    <marker id="marker2" overflow="visible" orient="auto">
      <use xlink:href="#marker" fill="#00ff00"/>
    </marker>
    <marker id="marker3" overflow="visible" orient="auto">
      <use xlink:href="#marker" fill="#0000ff"/>
    </marker>
    <marker id="marker4" overflow="visible" orient="auto">
      <use xlink:href="#marker" fill="#ffff00"/>
    </marker>
    <marker id="marker5" overflow="visible" orient="auto">
      <use xlink:href="#marker" fill="#6b4bc8" stroke="none"/>
    </marker>
  </defs>
  <g stroke-width="2" transform="translate(-16.873,-136.52)">
    <ellipse fill="#ffd74c" cx="54" cy="196" rx="7" ry="17"/>
    <rect width="13.309" height="33.231" fill="#9aadb1" x="47.346" y="211"/>
    <path stroke="#6b4bc8" stroke-dasharray=".8,1" d="m384 196-100 40" marker-end="url(#marker5)"/>
    <path stroke="#6b4bc8" stroke-dasharray=".8,1" d="m60.994 196h319.01" marker-end="url(#marker5)"/>
    <path stroke="#6b4bc8" d="M 393.98,282.22 219,288" marker-end="url(#marker5)"/>
    <path stroke="#6b4bc8" d="M 277.79,238.48 389,277" marker-end="url(#marker5)"/>
    <path stroke="#f00" d="M 393.98,282.22 219,331.95" marker-end="url(#marker1)"/>
    <path stroke="#ff0" d="M 393.98,282.22 219,320.96" marker-end="url(#marker4)"/>
    <path stroke="#0f0" d="M 393.98,282.22 219,309.98" marker-end="url(#marker2)"/>
    <path stroke="#00f" d="M 393.98,282.22 219,298.99" marker-end="url(#marker3)"/>
    <path stroke="#f00" d="m277.79 238.48 108.66 44.25" marker-end="url(#marker1)"/>
    <path stroke="#0f0" d="m277.79 238.48 109.94 41.39" marker-end="url(#marker2)"/>
    <text fill="#000" x="104.63" y="341.48" font-family="Arial" font-size="20">Detector</text>
    <text fill="#000" x="172.48" y="242.98" font-family="Arial" font-size="20">Grating</text>
    <text fill="#000" x="31.975" y="167.08" font-family="Arial" font-size="20">Source</text>
    <text fill="#000" x="409.36" y="242.19" font-family="Arial" font-size="20">Mirrors</text>
    <path fill="#ff6767" stroke="#000" stroke-width=".5" d="m268.93 200.18c-10.99 0-20.01 9.02-20.01 20.01h10c0-5.59 4.42-10.01 10.01-10.01 5.2 0 9.37 3.82 9.94 8.85h-3.74l4.4 4.48 4.41 4.48 4.41-4.48 4.4-4.48h-3.85c-0.61-10.46-9.37-18.85-19.97-18.85z"/>
    <rect width="12" height="36" fill="#008080" stroke="#000" stroke-width=".5" transform="rotate(-15)" x="194.62" y="284.22"/>
    <path fill="none" stroke="#000" d="m374.31 180.84a100 100 0 0 1 19.05 31.09"/>
    <path fill="none" stroke="#000" d="m399.03 261.68a100 100 0 0 1-11.57 34.56"/>
    <path fill="#ff6767" stroke="#000" stroke-width=".5" d="m184.19 303.99h23.84v12.07h-23.84z"/>
    <path fill="#9aadb1" stroke="#000" stroke-width=".5" d="m208.03 316.06h-5.73v28.79h5.73z"/>
    <path fill="none" stroke="#000" stroke-width=".5" d="m208.03 303.99h-5.73v12.07h5.73z"/>
    <path fill="#9aadb1" stroke="#000" stroke-width=".5" d="m202.3 275.2v28.79h5.73v-28.79z"/>
  </g>
</svg>
