<?xml version="1.0" encoding="UTF-8" standalone="no"?>
<svg
    xmlns:dc="http://purl.org/dc/elements/1.1/"
    xmlns:cc="http://creativecommons.org/ns#"
    xmlns:rdf="http://www.w3.org/1999/02/22-rdf-syntax-ns#"
    xmlns:svg="http://www.w3.org/2000/svg"
    xmlns="http://www.w3.org/2000/svg"
    xmlns:sodipodi="http://sodipodi.sourceforge.net/DTD/sodipodi-0.dtd"
    xmlns:inkscape="http://www.inkscape.org/namespaces/inkscape"
    version="1.1"
    viewBox="0 0 512 512"
    id="svg91"
    sodipodi:docname="4-half-loop.svg"
    inkscape:version="1.0.1 (3bc2e813f5, 2020-09-07)">
  <metadata
      id="metadata97">
    <rdf:RDF>
      <cc:Work
          rdf:about="">
        <dc:format>image/svg+xml</dc:format>
        <dc:type
            rdf:resource="http://purl.org/dc/dcmitype/StillImage" />
      </cc:Work>
    </rdf:RDF>
  </metadata>
  <defs
      id="defs95">
    <inkscape:path-effect
        effect="ruler"
        id="path-effect1597"
        is_visible="true"
        lpeversion="1"
        unit="px"
        mark_distance="19.35"
        mark_length="5"
        minor_mark_length="5"
        major_mark_steps="5"
        shift="0"
        offset="0"
        mark_dir="left"
        border_marks="both" />
    <inkscape:path-effect
        effect="ruler"
        id="path-effect1593"
        is_visible="true"
        lpeversion="1"
        unit="px"
        mark_distance="19.35"
        mark_length="5"
        minor_mark_length="5"
        major_mark_steps="5"
        shift="0"
        offset="0"
        mark_dir="left"
        border_marks="both" />
    <inkscape:path-effect
        effect="ruler"
        id="path-effect1064"
        is_visible="true"
        lpeversion="1"
        unit="px"
        mark_distance="16.8"
        mark_length="10"
        minor_mark_length="10"
        major_mark_steps="6"
        shift="0"
        offset="0"
        mark_dir="right"
        border_marks="both" />
    <inkscape:path-effect
        effect="clone_original"
        linkeditem="#petal"
        method="d"
        allow_transforms="true"
        id="path-effect984"
        lpeversion="1" />
  </defs>
  <sodipodi:namedview
      pagecolor="#ffffff"
      bordercolor="#666666"
      borderopacity="1"
      objecttolerance="10"
      gridtolerance="10"
      guidetolerance="10"
      inkscape:pageopacity="0"
      inkscape:pageshadow="2"
      inkscape:window-width="1920"
      inkscape:window-height="1017"
      id="namedview93"
      showgrid="false"
      showguides="true"
      inkscape:guide-bbox="true"
      inkscape:zoom="1.4142136"
      inkscape:cx="436.50542"
      inkscape:cy="154.10412"
      inkscape:window-x="-8"
      inkscape:window-y="-8"
      inkscape:window-maximized="1"
      inkscape:current-layer="svg91"
      inkscape:snap-object-midpoints="true"
      inkscape:snap-to-guides="true">
    <sodipodi:guide
        position="256,256"
        orientation="-1,0"
        id="guide1101"
        inkscape:label=""
        inkscape:locked="true"
        inkscape:color="rgb(0,0,255)" />
    <sodipodi:guide
        position="256,256"
        orientation="-0.70710678,0.70710678"
        id="guide1103"
        inkscape:label=""
        inkscape:locked="true"
        inkscape:color="rgb(0,0,255)" />
    <sodipodi:guide
        position="256,256"
        orientation="-0.92387953,0.38268343"
        id="guide1105"
        inkscape:label=""
        inkscape:locked="true"
        inkscape:color="rgb(0,0,255)" />
    <sodipodi:guide
        position="324.36938,421.05828"
        orientation="0.38268343,0.92387953"
        id="guide1565"
        inkscape:label=""
        inkscape:locked="true"
        inkscape:color="rgb(0,0,255)" />
  </sodipodi:namedview>
  <path
      id="path1569-5"
      style="fill:none;stroke:#000000;stroke-width:1px;stroke-linecap:butt;stroke-linejoin:miter;stroke-opacity:1"
      d="m 613.50755,184.08195 10e-4,-193.3773395 c 10.11825,-24.4247345 32.49767,-41.5970685 58.70915,-45.0478745 26.21147,-3.450804 52.27286,7.344174 68.36708,28.318574 16.09422,20.9744005 19.77619,48.941712 9.66024,73.367397 z"
      sodipodi:nodetypes="ccsscc" />
  <path
      id="path1591"
      style="fill:none;stroke:#000000;stroke-width:1px;stroke-linecap:butt;stroke-linejoin:miter;stroke-opacity:1"
      d="m 804.23444,231.15706 0.001,-193.377328 c 10.11825,-24.42474 32.49767,-41.5970697 58.70915,-45.0478797 26.21147,-3.4508003 52.27286,7.34416997 68.36708,28.3185697 16.09422,20.97441 19.77619,48.94172 9.66024,73.3674 l -136.73747,136.739238 -5,-3e-5 m 5.0001,-19.34997 -5,-3e-5 m 5.0001,-19.34997 -5,-3e-5 m 5.0001,-19.34997 -5,-3e-5 m 5.0001,-19.34997 -5,-3e-5 m 5.0001,-19.34997 -5,-3e-5 m 5.0001,-19.34997 -5,-3e-5 m 5.0001,-19.34997 -5,-2.6e-5 m 5.0001,-19.349974 -5,-2.6e-5 m 5.0001,-19.349974 -5,-2.6e-5 m 5.04714,-19.340595 -4.61615,-1.92123 m 14.28772,-14.774651 -3.96243,-3.04944 M 827.61516,7.3444961 824.57545,3.374591 m 19.75718,-5.6644741 -1.91039,-4.6206495 m 20.55097,-0.3613773 -0.6507,-4.9574771 m 19.94556,4.9602796 0.65327,-4.9571406 m 17.98421,9.9510815 1.9123,-4.6198604 m 14.8023,14.2592063 3.04138,-3.9686332 m 10.61073,17.6035668 3.96412,-3.047258 m 5.70202,19.746282 4.61722,-1.918682 m 0.40033,20.549822 4.95623,-0.660155 m -4.92202,19.955085 4.95847,0.643151 m -9.9162,18.003903 4.62356,1.903317 m -18.25439,11.813722 3.53556,3.53552 m -17.21798,10.14709 3.53555,3.53551 m -17.21798,10.14709 3.53555,3.53552 m -17.21798,10.14709 3.53556,3.53551 m -17.21799,10.14709 3.53556,3.53551 m -17.21799,10.1471 3.53556,3.53551 m -17.21798,10.14709 3.53555,3.53551 m -17.21798,10.1471 3.53556,3.53551 m -17.21799,10.14709 3.53556,3.53551 m -17.21799,10.1471 3.53556,3.53551 m -3.56087,-3.5102 3.53556,3.53551"
      sodipodi:nodetypes="ccsscc"
      inkscape:path-effect="#path-effect1593"
      inkscape:original-d="m 804.23444,231.15706 0.001,-193.377328 c 10.11825,-24.42474 32.49767,-41.5970697 58.70915,-45.0478797 26.21147,-3.4508003 52.27286,7.34416997 68.36708,28.3185697 16.09422,20.97441 19.77619,48.94172 9.66024,73.3674 z" />
  <path
      style="fill:none;stroke:#000000;stroke-width:1px;stroke-linecap:butt;stroke-linejoin:miter;stroke-opacity:1"
      d="m 992.11854,303.36204 3.53556,3.53551"
      id="path1968" />
  <path
      style="fill:none;stroke:#000000;stroke-width:1px;stroke-linecap:butt;stroke-linejoin:miter;stroke-opacity:1"
      d="m 992.14387,303.33671 3.53556,3.53551"
      id="path1966" />
  <path
      style="fill:none;stroke:#000000;stroke-width:1px;stroke-linecap:butt;stroke-linejoin:miter;stroke-opacity:1"
      d="m 1005.8263,289.6541 3.5356,3.53551"
      id="path1964" />
  <path
      style="fill:none;stroke:#000000;stroke-width:1px;stroke-linecap:butt;stroke-linejoin:miter;stroke-opacity:1"
      d="m 1019.5087,275.9715 3.5356,3.53551"
      id="path1962" />
  <path
      style="fill:none;stroke:#000000;stroke-width:1px;stroke-linecap:butt;stroke-linejoin:miter;stroke-opacity:1"
      d="m 1033.1912,262.28889 3.5355,3.53551"
      id="path1960" />
  <path
      style="fill:none;stroke:#000000;stroke-width:1px;stroke-linecap:butt;stroke-linejoin:miter;stroke-opacity:1"
      d="m 1046.8736,248.60629 3.5355,3.53551"
      id="path1958" />
  <path
      style="fill:none;stroke:#000000;stroke-width:1px;stroke-linecap:butt;stroke-linejoin:miter;stroke-opacity:1"
      d="m 1060.556,234.92368 3.5356,3.53551"
      id="path1956" />
  <path
      style="fill:none;stroke:#000000;stroke-width:1px;stroke-linecap:butt;stroke-linejoin:miter;stroke-opacity:1"
      d="m 1074.2384,221.24108 3.5356,3.53551"
      id="path1954" />
  <path
      style="fill:none;stroke:#000000;stroke-width:1px;stroke-linecap:butt;stroke-linejoin:miter;stroke-opacity:1"
      d="m 1087.9209,207.55847 3.5355,3.53551"
      id="path1952" />
  <path
      style="fill:none;stroke:#000000;stroke-width:1px;stroke-linecap:butt;stroke-linejoin:miter;stroke-opacity:1"
      d="m 1101.6033,193.87587 3.5355,3.53551"
      id="path1950" />
  <path
      style="fill:none;stroke:#000000;stroke-width:1px;stroke-linecap:butt;stroke-linejoin:miter;stroke-opacity:1"
      d="m 1115.2857,180.19326 3.5356,3.53551"
      id="path1948" />
  <path
      style="fill:none;stroke:#000000;stroke-width:1px;stroke-linecap:butt;stroke-linejoin:miter;stroke-opacity:1"
      d="m 1128.9165,166.47621 4.6236,1.90332"
      id="path1946" />
  <path
      style="fill:none;stroke:#000000;stroke-width:1px;stroke-linecap:butt;stroke-linejoin:miter;stroke-opacity:1"
      d="m 1133.8743,147.82916 4.9584,0.64315"
      id="path1944" />
  <path
      style="fill:none;stroke:#000000;stroke-width:1px;stroke-linecap:butt;stroke-linejoin:miter;stroke-opacity:1"
      d="m 1133.8401,128.53423 4.9562,-0.66016"
      id="path1942" />
  <path
      style="fill:none;stroke:#000000;stroke-width:1px;stroke-linecap:butt;stroke-linejoin:miter;stroke-opacity:1"
      d="m 1128.8225,109.90309 4.6172,-1.91868"
      id="path1940" />
  <path
      style="fill:none;stroke:#000000;stroke-width:1px;stroke-linecap:butt;stroke-linejoin:miter;stroke-opacity:1"
      d="m 1119.1564,93.204067 3.9641,-3.047257"
      id="path1938" />
  <path
      style="fill:none;stroke:#000000;stroke-width:1px;stroke-linecap:butt;stroke-linejoin:miter;stroke-opacity:1"
      d="m 1105.5043,79.569136 3.0413,-3.968634"
      id="path1936" />
  <path
      style="fill:none;stroke:#000000;stroke-width:1px;stroke-linecap:butt;stroke-linejoin:miter;stroke-opacity:1"
      d="m 1088.7897,69.929799 1.9122,-4.619862"
      id="path1934" />
  <path
      style="fill:none;stroke:#000000;stroke-width:1px;stroke-linecap:butt;stroke-linejoin:miter;stroke-opacity:1"
      d="m 1070.1522,64.935869 0.6532,-4.957141"
      id="path1932" />
  <path
      style="fill:none;stroke:#000000;stroke-width:1px;stroke-linecap:butt;stroke-linejoin:miter;stroke-opacity:1"
      d="m 1050.8573,64.933071 -0.6507,-4.957478"
      id="path1930" />
  <path
      style="fill:none;stroke:#000000;stroke-width:1px;stroke-linecap:butt;stroke-linejoin:miter;stroke-opacity:1"
      d="m 1032.2167,69.915097 -1.9104,-4.62065"
      id="path1928" />
  <path
      style="fill:none;stroke:#000000;stroke-width:1px;stroke-linecap:butt;stroke-linejoin:miter;stroke-opacity:1"
      d="m 1015.4993,79.549476 -3.0398,-3.969905"
      id="path1926" />
  <path
      style="fill:none;stroke:#000000;stroke-width:1px;stroke-linecap:butt;stroke-linejoin:miter;stroke-opacity:1"
      d="M 1001.8382,93.175539 997.87572,90.1261"
      id="path1924" />
  <path
      style="fill:none;stroke:#000000;stroke-width:1px;stroke-linecap:butt;stroke-linejoin:miter;stroke-opacity:1"
      d="m 992.16658,109.87142 -4.61615,-1.92123"
      id="path1922" />
  <path
      style="fill:none;stroke:#000000;stroke-width:1px;stroke-linecap:butt;stroke-linejoin:miter;stroke-opacity:1"
      d="m 992.11944,129.21204 -5,-3e-5"
      id="path1920" />
  <path
      style="fill:none;stroke:#000000;stroke-width:1px;stroke-linecap:butt;stroke-linejoin:miter;stroke-opacity:1"
      d="m 992.11934,148.56204 -5,-3e-5"
      id="path1918" />
  <path
      style="fill:none;stroke:#000000;stroke-width:1px;stroke-linecap:butt;stroke-linejoin:miter;stroke-opacity:1"
      d="m 992.11924,167.91204 -5,-3e-5"
      id="path1916" />
  <path
      style="fill:none;stroke:#000000;stroke-width:1px;stroke-linecap:butt;stroke-linejoin:miter;stroke-opacity:1"
      d="m 992.11914,187.26204 -5,-3e-5"
      id="path1914" />
  <path
      style="fill:none;stroke:#000000;stroke-width:1px;stroke-linecap:butt;stroke-linejoin:miter;stroke-opacity:1"
      d="m 992.11904,206.61204 -5,-3e-5"
      id="path1912" />
  <path
      style="fill:none;stroke:#000000;stroke-width:1px;stroke-linecap:butt;stroke-linejoin:miter;stroke-opacity:1"
      d="m 992.11894,225.96204 -5,-3e-5"
      id="path1910" />
  <path
      style="fill:none;stroke:#000000;stroke-width:1px;stroke-linecap:butt;stroke-linejoin:miter;stroke-opacity:1"
      d="m 992.11884,245.31204 -5,-3e-5"
      id="path1908" />
  <path
      style="fill:none;stroke:#000000;stroke-width:1px;stroke-linecap:butt;stroke-linejoin:miter;stroke-opacity:1"
      d="m 992.11874,264.66204 -5,-3e-5"
      id="path1906" />
  <path
      style="fill:none;stroke:#000000;stroke-width:1px;stroke-linecap:butt;stroke-linejoin:miter;stroke-opacity:1"
      d="m 992.11864,284.01204 -5,-3e-5"
      id="path1904" />
  <path
      style="fill:none;stroke:#000000;stroke-width:1px;stroke-linecap:butt;stroke-linejoin:miter;stroke-opacity:1"
      d="m 992.11854,303.36204 10e-4,-193.37733 c 10.11826,-24.424738 32.49766,-41.597068 58.70916,-45.047878 26.2115,-3.4508 52.2729,7.34417 68.3671,28.31857 16.0942,20.974408 19.7762,48.941718 9.6602,73.367398 l -136.73746,136.73924 -5,-3e-5"
      id="path1595" />
  <circle
      cx="1157.2115"
      cy="255.81232"
      r="2"
      id="circle22-8" />
  <circle
      cx="256"
      cy="256"
      r="2"
      id="circle22-8-9" />
  <circle
      cx="338.11987"
      cy="173.87904"
      r="2"
      id="circle2057" />
  <circle
      cx="324.43747"
      cy="187.56165"
      r="2"
      id="circle2059" />
  <circle
      cx="310.75507"
      cy="201.24425"
      r="2"
      id="circle2061" />
  <circle
      cx="297.07266"
      cy="214.92685"
      r="2"
      id="circle2063" />
  <circle
      cx="283.39017"
      cy="228.60947"
      r="2"
      id="circle2065" />
  <circle
      cx="269.70776"
      cy="242.29205"
      r="2"
      id="circle2067" />
  <circle
      cx="397.72156"
      cy="81.172195"
      r="2"
      id="circle2069" />
  <circle
      cx="397.75577"
      cy="100.46712"
      r="2"
      id="circle2071" />
  <circle
      cx="392.79797"
      cy="119.11417"
      r="2"
      id="circle2073" />
  <circle
      cx="379.16714"
      cy="132.83122"
      r="2"
      id="circle2075" />
  <circle
      cx="365.48477"
      cy="146.51382"
      r="2"
      id="circle2077" />
  <circle
      cx="351.80237"
      cy="160.19643"
      r="2"
      id="circle2079" />
  <circle
      cx="256.0007"
      cy="120.55"
      r="2"
      id="circle2081" />
  <circle
      cx="256.00079"
      cy="101.2"
      r="2"
      id="circle2083" />
  <circle
      cx="256.00089"
      cy="81.850006"
      r="2"
      id="circle2085" />
  <circle
      cx="256.04803"
      cy="62.509384"
      r="2"
      id="circle2087" />
  <circle
      cx="265.71967"
      cy="45.813503"
      r="2"
      id="circle2089" />
  <circle
      cx="279.38077"
      cy="32.187439"
      r="2"
      id="circle2091" />
  <circle
      cx="296.09818"
      cy="22.553061"
      r="2"
      id="circle2093" />
  <circle
      cx="314.73877"
      cy="17.571033"
      r="2"
      id="circle2095" />
  <circle
      cx="334.03366"
      cy="17.573832"
      r="2"
      id="circle2097" />
  <circle
      cx="352.67117"
      cy="22.567762"
      r="2"
      id="circle2099" />
  <circle
      cx="369.38577"
      cy="32.2071"
      r="2"
      id="circle2101" />
  <circle
      cx="383.03787"
      cy="45.84203"
      r="2"
      id="circle2103" />
  <circle
      cx="392.70395"
      cy="62.541054"
      r="2"
      id="circle2105" />
  <circle
      cx="256.00031"
      cy="197.95"
      r="2"
      id="circle2107" />
  <circle
      cx="256.0004"
      cy="178.60001"
      r="2"
      id="circle2109" />
  <circle
      cx="256.00049"
      cy="159.25"
      r="2"
      id="circle2111" />
  <circle
      cx="256.00061"
      cy="139.89999"
      r="2"
      id="circle2113" />
  <circle
      cx="256.00009"
      cy="236.64999"
      r="2"
      id="circle2115" />
  <circle
      cx="256.00021"
      cy="217.3"
      r="2"
      id="circle2117" />
</svg>
