<?xml version="1.0" encoding="UTF-8"?>
<svg version="1.1" viewBox="0 0 512 512" xmlns="http://www.w3.org/2000/svg" xmlns:xlink="http://www.w3.org/1999/xlink">
  <circle cx="256" cy="256" r="2"/>
  <g id="petal">
    <circle cx="338.12" cy="173.88" r="2"/>
    <circle cx="324.44" cy="187.56" r="2"/>
    <circle cx="310.76" cy="201.24" r="2"/>
    <circle cx="297.07" cy="214.93" r="2"/>
    <circle cx="283.39" cy="228.61" r="2"/>
    <circle cx="269.71" cy="242.29" r="2"/>
    <circle cx="397.72" cy="81.172" r="2"/>
    <circle cx="397.76" cy="100.47" r="2"/>
    <circle cx="392.80" cy="119.11" r="2"/>
    <circle cx="379.17" cy="132.83" r="2"/>
    <circle cx="365.48" cy="146.51" r="2"/>
    <circle cx="351.80" cy="160.20" r="2"/>
    <circle cx="265.72" cy="45.813" r="2"/>
    <circle cx="279.38" cy="32.187" r="2"/>
    <circle cx="296.10" cy="22.553" r="2"/>
    <circle cx="314.74" cy="17.571" r="2"/>
    <circle cx="334.03" cy="17.574" r="2"/>
    <circle cx="352.67" cy="22.568" r="2"/>
    <circle cx="369.39" cy="32.207" r="2"/>
    <circle cx="383.04" cy="45.842" r="2"/>
    <circle cx="392.70" cy="62.541" r="2"/>
    <g fill="none" stroke="#000" stroke-width="1px">
      <path d="m256 256 96.67-233.43"/>
      <path d="m269.71 242.29 64.32-224.72"/>
      <path d="m283.39 228.61 31.35-211.04"/>
      <path d="m297.07 214.93-0.97-192.38"/>
      <path d="m310.76 201.24-31.38-169.05"/>
      <path d="m324.44 187.56-58.72-141.75"/>
      <path d="m338.12 173.88-82.184-111.41"/>
      <path d="m351.8 160.2-95.8-78.389"/>
      <path d="m365.48 146.51-109.49-45.345"/>
      <path d="m379.17 132.83-123.17-12.312"/>
      <path d="m392.8 119.11-136.8 20.755"/>
      <path d="m397.76 100.47-141.76 58.741"/>
      <path d="m397.72 81.172-141.72 97.386"/>
      <path d="m392.7 62.541-136.7 135.38"/>
      <path d="m383.04 45.842-127.04 171.42"/>
      <path d="m369.39 32.207-113.39 204.4"/>
    </g>
  </g>
  <use xlink:href="#petal" transform="rotate(45 256 256)"/>
  <use xlink:href="#petal" transform="rotate(90 256 256)"/>
  <use xlink:href="#petal" transform="rotate(135 256 256)"/>
  <use xlink:href="#petal" transform="rotate(180 256 256)"/>
  <use xlink:href="#petal" transform="rotate(225 256 256)"/>
  <use xlink:href="#petal" transform="rotate(270 256 256)"/>
  <use xlink:href="#petal" transform="rotate(315 256 256)"/>
</svg>
