<?xml version="1.0" encoding="UTF-8" standalone="no"?>
<svg
   sodipodi:docname="Lion_and_sun_Emblem2.svg"
   inkscape:version="1.4.2 (f4327f4, 2025-05-13)"
   width="280px"
   height="250px"
   viewBox="0 0 280 250"
   version="1.1"
   id="SVGRoot"
   xmlns:inkscape="http://www.inkscape.org/namespaces/inkscape"
   xmlns:sodipodi="http://sodipodi.sourceforge.net/DTD/sodipodi-0.dtd"
   xmlns="http://www.w3.org/2000/svg"
   xmlns:svg="http://www.w3.org/2000/svg"
   xmlns:rdf="http://www.w3.org/1999/02/22-rdf-syntax-ns#"
   xmlns:cc="http://creativecommons.org/ns#"
   xmlns:dc="http://purl.org/dc/elements/1.1/">
  <defs
     id="defs70" />
  <sodipodi:namedview
     inkscape:window-maximized="1"
     inkscape:window-y="-9"
     inkscape:window-x="-9"
     inkscape:window-height="991"
     inkscape:window-width="1920"
     showgrid="false"
     inkscape:document-rotation="0"
     inkscape:current-layer="layer1"
     inkscape:document-units="px"
     inkscape:cy="125"
     inkscape:cx="139.96914"
     inkscape:zoom="3.24"
     inkscape:pageshadow="2"
     inkscape:pageopacity="0.0"
     borderopacity="1.0"
     bordercolor="#666666"
     pagecolor="#ffffff"
     id="base"
     inkscape:showpageshadow="2"
     inkscape:pagecheckerboard="0"
     inkscape:deskcolor="#d1d1d1" />
  <metadata
     id="metadata73">
    <rdf:RDF>
      <cc:Work
         rdf:about="">
        <dc:format>image/svg+xml</dc:format>
        <dc:type
           rdf:resource="http://purl.org/dc/dcmitype/StillImage" />
      </cc:Work>
    </rdf:RDF>
  </metadata>
  <g
     id="layer1"
     inkscape:groupmode="layer"
     inkscape:label="Layer 1">
    <g
       stroke-width="1.60657"
       transform="matrix(1.0581524,0,0,1.0581524,-473.50896,-305.5283)"
       id="g60">
      <g
         stroke-width="1.60657"
         id="g36">
        <path
           d="m 473.1506,406.53233 c 0,0 -2.5951,-28.05472 2.9924,-45.26001 3.8559,-11.87348 9.8145,-21.61301 19.4506,-29.54992 15.0499,-12.39619 38.2989,-15.67051 54.6112,-8.22909 -14.2868,0.74815 -33.4052,5.57 -43.7638,14.21389 -7.9387,6.62462 -14.1399,15.93488 -17.2063,25.80942 -5.2142,16.79114 -2.6183,43.76381 -2.6183,43.76381 z"
           fill="#ffbb26"
           stroke="#000000"
           stroke-width="1.60657"
           id="path8" />
        <path
           d="m 483.3318,360.66222 c -4.8232,14.55518 -4.8253,30.61481 -4.3434,44.40698 l 1.7909,-0.0705 c -0.4798,-13.73586 -0.3669,-29.56374 4.2729,-43.7724 4.6398,-14.20866 13.7303,-26.78935 31.4614,-34.28179 -21.1643,4.76073 -30.6951,26.21336 -33.1818,33.71772 z"
           id="path10" />
        <g
           fill="#ffbb26"
           stroke="#000000"
           id="g32">
          <path
             d="m 473.04562,395.97821 h 12.8703 v 28.86086 h -12.8703 z"
             stroke-width="1.60657"
             id="path12" />
          <g
             stroke-width="0.624164"
             transform="matrix(2.6967774,0,0,2.4567402,-131.99828,-96.158334)"
             id="g22">
            <path
               d="m 281.69553,343.78572 c -2.86723,-2.92309 -3.0833,-0.70954 -8.82168,-9.19548 0,0 -2.50828,0.84229 -3.81275,0.89712 -0.67958,0.0286 -1.37852,-0.0687 -2.01852,-0.29904 -1.17824,-0.42403 -3.21468,-1.94376 -3.21468,-1.94376 l -0.52332,-4.93416 c 0,0 -1.03623,-0.18273 -1.34568,-0.67284 -0.26609,-0.42143 -0.26861,-1.07538 0,-1.4952 0.3846,-0.60109 0.97951,-0.74447 1.71948,-0.97188 1.38179,-0.42466 2.92636,-0.39478 4.33608,-0.0748 1.24983,0.28369 2.2214,0.94555 3.43896,1.34568 3.74811,1.23175 11.66255,2.01852 11.66255,2.01852 z"
               transform="translate(-38.245434,-121.29877)"
               id="path14" />
            <path
               d="m 224.08727,211.04867 c 0,0 1.92253,0.0216 2.84088,-0.0748 0.66733,-0.07 1.22781,-0.45633 1.94376,-0.14952 0.42606,0.18258 0.82236,1.1214 0.82236,1.1214 0,0 -0.6457,0.85914 -1.1214,1.04664 -1.32149,0.52088 -3.15024,0.63242 -4.33608,-0.14952 -0.31688,-0.20895 -0.44394,-0.6671 -0.44856,-1.04664 -0.003,-0.26836 0.29904,-0.74756 0.29904,-0.74756 z"
               id="path16" />
            <path
               d="m 224.01251,209.17967 c 0,0 1.92253,0.0216 2.84088,-0.0748 0.66733,-0.07 1.60161,-0.60585 2.31756,-0.29904 0.42606,0.18258 0.82236,1.1214 0.82236,1.1214 0,0 -0.6457,0.85914 -1.1214,1.04664 -1.32149,0.52088 -3.52404,0.78194 -4.70988,0 -0.31688,-0.20895 -0.44394,-0.6671 -0.44856,-1.04664 -0.003,-0.26836 0.29904,-0.74756 0.29904,-0.74756 z"
               id="path18" />
            <path
               d="m 262.25794,328.38516 c 0,0 1.92253,0.0216 2.84088,-0.0748 0.66733,-0.07 1.60161,-0.60585 2.31756,-0.29904 0.42606,0.18258 0.82236,1.1214 0.82236,1.1214 0,0 -0.6457,0.85914 -1.1214,1.04664 -1.32149,0.52088 -3.52404,0.78194 -4.70988,0 -0.31688,-0.20895 -0.44394,-0.6671 -0.44856,-1.04664 -0.003,-0.26836 0.29904,-0.74756 0.29904,-0.74756 z"
               transform="translate(-38.245434,-121.29877)"
               id="path20" />
          </g>
          <path
             d="m 489.1528,399.75024 h 8.7103 l 4.1812,-2.80476 -4.162,-2.86107 h -8.7103 l -9.4437,-2.34417 -9.4438,2.34419 h -9.2053 l -4.162,2.86108 4.1812,2.80476 h 9.2053 l 9.4246,2.70283 z"
             stroke-width="1.60657"
             id="path24" />
          <path
             d="m 597.482,317.99052 c -1.0736,0 -2.1454,0.0292 -3.2153,0.0705 l 0.9872,57.88844 -8.6022,-38.56879 c -2.2385,0.36605 -4.4504,0.84114 -6.6279,1.4243 l 11.0136,39.51361 -23.7477,-54.7719 c -2.2049,0.82997 -4.373,1.74749 -6.5009,2.74987 l 26.2013,55.09625 -24.2976,-35.28303 c -1.9004,1.12905 -3.7376,2.34799 -5.5138,3.6524 l 23.2399,30.33325 -41.5583,-39.09055 c -1.6636,1.53247 -3.259,3.1468 -4.7947,4.80876 l 44.3365,39.11876 -35.1703,-21.30802 c -1.2475,1.69183 -2.4099,3.44427 -3.4831,5.26002 l 41.7699,22.71821 1.6076,-2.52425 0.7474,0.691 3.455,-3.15883 1.6922,-1.07175 v 0.0846 l 3.7088,-1.38199 v 0.0705 l 3.2012,-0.7615 h 3.2011 l 3.2858,0.7615 v -0.0705 l 3.7088,1.38199 v -0.0846 l 1.6922,1.07175 3.455,3.15883 0.7474,-0.691 1.1845,1.91787 -0.8461,0.31024 1.7769,3.99085 1.0153,3.90623 47.862,-8.60218 c -0.3048,-2.05606 -0.7077,-4.07571 -1.2128,-6.04973 l -46.903,10.59055 62.5561,-22.54898 c -0.7476,-2.04807 -1.5746,-4.04856 -2.4819,-6.00743 l -55.9565,22.09773 36.3125,-19.74271 c -1.0712,-1.81569 -2.2236,-3.58264 -3.4691,-5.27412 l -35.1138,21.26572 44.2942,-39.07646 c -1.5277,-1.65459 -3.1262,-3.25448 -4.7806,-4.78055 l -41.5302,39.09055 23.1836,-30.36146 c -1.7674,-1.29861 -3.5952,-2.52727 -5.4856,-3.6524 l -21.9144,31.81396 -0.5923,-0.31024 24.4104,-51.33103 c -2.1393,-1.0086 -4.3264,-1.91521 -6.5433,-2.74988 l -22.422,51.69768 -0.3385,-0.18332 10.097,-36.24197 c -2.1917,-0.5913 -4.4171,-1.08049 -6.6702,-1.4525 l -7.9676,35.32534 1.0012,-54.63088 c -1.3319,-0.0637 -2.6673,-0.0987 -4.0049,-0.0987 z"
             id="path26" />
          <path
             d="m 597.4797,368.56973 c -18.6702,0 -34.0326,13.79735 -34.0326,31.0017 0,17.20438 15.3482,31.0831 34.0326,31.0831 18.6843,0 34.1182,-13.86462 34.1182,-31.0831 0,-17.21848 -15.4481,-31.0017 -34.1182,-31.0017 z"
             id="path28" />
          <path
             d="M 478.0367,495.74538 H 685.6473 V 484.01255 H 478.0367 Z"
             id="path30" />
        </g>
        <path
           d="m 484.6052,483.11004 c 0.1513,2.21531 0.9095,5.75411 1.7861,6.76892 -3.3762,-0.48973 -3.5437,-4.55122 -3.9652,-6.68974 z m 6.2869,0 c 0.1514,2.21531 0.9096,5.75411 1.7862,6.76892 -3.3762,-0.48973 -3.5437,-4.55122 -3.9652,-6.68974 z m 6.287,0 c 0.1514,2.21531 0.9096,5.75411 1.7862,6.76892 -3.3762,-0.48973 -3.5438,-4.55122 -3.9652,-6.68974 z m 6.287,0 c 0.1514,2.21531 0.9096,5.75411 1.7862,6.76892 -3.3762,-0.48973 -3.5438,-4.55122 -3.9652,-6.68974 z m 6.287,0 c 0.1514,2.21531 0.9096,5.75411 1.7861,6.76892 -3.3761,-0.48973 -3.5437,-4.55122 -3.9651,-6.68974 z m 6.287,0 c 0.1514,2.21531 0.9096,5.75411 1.7861,6.76892 -3.3761,-0.48973 -3.5437,-4.55122 -3.9652,-6.68974 z m 6.287,0 c 0.1514,2.21531 0.9096,5.75411 1.7861,6.76892 -3.3761,-0.48973 -3.5437,-4.55122 -3.9652,-6.68974 z m 6.287,0 c 0.1514,2.21531 0.9096,5.75411 1.7861,6.76892 -3.3761,-0.48973 -3.5437,-4.55122 -3.9652,-6.68974 z m 6.287,0 c 0.1513,2.21531 0.9096,5.75411 1.7861,6.76892 -3.3762,-0.48973 -3.5437,-4.55122 -3.9652,-6.68974 z m 6.287,0 c 0.1513,2.21531 0.9096,5.75411 1.7861,6.76892 -3.3762,-0.48973 -3.5437,-4.55122 -3.9652,-6.68974 z m 6.287,0 c 0.1513,2.21531 0.9096,5.75411 1.7861,6.76892 -3.3762,-0.48973 -3.5437,-4.55122 -3.9652,-6.68974 z m 6.2869,0 c 0.1514,2.21531 0.9096,5.75411 1.7862,6.76892 -3.3762,-0.48973 -3.5437,-4.55122 -3.9652,-6.68974 z m 6.287,0 c 0.1514,2.21531 0.9096,5.75411 1.7862,6.76892 -3.3762,-0.48973 -3.5437,-4.55122 -3.9652,-6.68974 z m 6.287,0 c 0.1514,2.21531 0.9096,5.75411 1.7862,6.76892 -3.3762,-0.48973 -3.5438,-4.55122 -3.9652,-6.68974 z m 6.287,0 c 0.1514,2.21531 0.9096,5.75411 1.7862,6.76892 -3.3762,-0.48973 -3.5438,-4.55122 -3.9652,-6.68974 z m 6.287,0 c 0.1514,2.21531 0.9096,5.75411 1.7862,6.76892 -3.3762,-0.48973 -3.5438,-4.55122 -3.9652,-6.68974 z m 6.287,0 c 0.1514,2.21531 0.9096,5.75411 1.7862,6.76892 -3.3762,-0.48973 -3.5438,-4.55122 -3.9652,-6.68974 z m 6.287,0 c 0.1514,2.21531 0.9096,5.75411 1.7861,6.76892 -3.3762,-0.48973 -3.5437,-4.55122 -3.9652,-6.68974 z m 6.287,0 c 0.1514,2.21531 0.9096,5.75411 1.7861,6.76892 -3.3761,-0.48973 -3.5437,-4.55122 -3.9652,-6.68974 z m 6.287,0 c 0.1513,2.21531 0.9096,5.75411 1.7861,6.76892 -3.3762,-0.48973 -3.5437,-4.55122 -3.9652,-6.68974 z m 6.287,0 c 0.1513,2.21531 0.9096,5.75411 1.7861,6.76892 -3.3762,-0.48973 -3.5437,-4.55122 -3.9652,-6.68974 z m 6.2869,0 c 0.1514,2.21531 0.9096,5.75411 1.7862,6.76892 -3.3762,-0.48973 -3.5437,-4.55122 -3.9652,-6.68974 z m 6.287,0 c 0.1514,2.21531 0.9096,5.75411 1.7862,6.76892 -3.3762,-0.48973 -3.5437,-4.55122 -3.9652,-6.68974 z m 6.287,0 c 0.1514,2.21531 0.9096,5.75411 1.7862,6.76892 -3.3762,-0.48973 -3.5438,-4.55122 -3.9652,-6.68974 z m 6.287,0 c 0.1514,2.21531 0.9096,5.75411 1.7862,6.76892 -3.3762,-0.48973 -3.5438,-4.55122 -3.9652,-6.68974 z m 6.287,0 c 0.1514,2.21531 0.9096,5.75411 1.7862,6.76892 -3.3762,-0.48973 -3.5438,-4.55122 -3.9652,-6.68974 z m 6.287,0 c 0.1514,2.21531 0.9096,5.75411 1.7862,6.76892 -3.3762,-0.48973 -3.5438,-4.55122 -3.9652,-6.68974 z m 6.287,0 c 0.1514,2.21531 0.9096,5.75411 1.7862,6.76892 -3.3762,-0.48973 -3.5438,-4.55122 -3.9652,-6.68974 z m 6.287,0 c 0.1514,2.21531 0.9096,5.75411 1.7862,6.76892 -3.3763,-0.48973 -3.5438,-4.55122 -3.9653,-6.68974 z m 6.287,0 c 0.1514,2.21531 0.9096,5.75411 1.7861,6.76892 -3.3762,-0.48973 -3.5437,-4.55122 -3.9652,-6.68974 z m 6.287,0 c 0.1514,2.21531 0.9096,5.75411 1.7861,6.76892 -3.3762,-0.48973 -3.5437,-4.55122 -3.9652,-6.68974 z m 6.287,0 c 0.1514,2.21531 0.9095,5.75411 1.7861,6.76892 -3.3762,-0.48973 -3.5437,-4.55122 -3.9652,-6.68974 z"
           id="path34" />
      </g>
      <g
         stroke-width="0.624164"
         transform="matrix(2.6967774,0,0,2.4567402,-127.99828,-100.15833)"
         id="g58">
        <path
           d="m 272.20824,225.5512 c -1.50508,2.75432 0.58326,5.21568 -0.55151,7.3223 0,0 -2.41248,-0.47442 -3.66393,-0.53488 -0.86925,-0.042 -2.14935,-0.0422 -2.89316,0.33453 -1.32431,0.6708 -2.46948,1.58389 -3.07084,2.60213 -1.09622,1.85615 0.2427,3.57143 2.22225,2.66033 1.77027,1.78695 3.85571,0.64312 6.41004,-0.33452 0.52339,-0.20033 1.29213,0.0158 1.93307,0.1599 0.6707,0.15082 1.42945,0.26839 2.06234,0 1.50576,-0.63854 2.52579,-2.52052 3.48042,-5.53992 l 1.48354,0.68314 c 0.0159,-1.29106 -0.5073,-2.27545 -1.19092,-3.16853 l 1.77042,0.65351 c 0.0109,-1.28424 -0.56078,-2.22564 -1.14425,-2.93285 l 1.7044,0.69108 c 0,0 -0.14189,-0.66861 -0.16981,-1.65848 -0.0181,-0.6415 0.1213,-1.58168 0.007,-2.0076 -0.19743,-0.73539 -0.46049,-1.02883 -0.62849,-1.56545 -0.13463,-0.43003 -0.30167,-1.31776 -0.30167,-1.31776 -5.13018,-2.46728 -4.02424,-8.28059 -3.08242,-10.74179 l -9.76798,7.3942 c -1.97356,1.41062 0.73686,6.48258 5.3915,7.30066 z"
           fill="#ffbb26"
           stroke="#000000"
           stroke-width="0.624164"
           id="path38" />
        <path
           d="m 272.40676,220.67318 c -0.68562,-0.27814 -1.7083,-0.89304 -1.93333,-1.98507 l 0.74279,-1.70276 c -0.32428,1.92099 0.85008,3.32571 1.19057,3.68784 z m -1.12139,1.03514 c -0.68562,-0.27814 -1.7083,-0.89304 -1.93333,-1.98507 l 0.74279,-1.70276 c -0.32428,1.92099 0.85008,3.32571 1.19057,3.68784 z m -0.94227,1.22056 c -0.68562,-0.27814 -1.7083,-0.89304 -1.93333,-1.98507 l 0.74279,-1.70276 c -0.32428,1.92099 0.85008,3.32571 1.19057,3.68784 z m -1.20337,11.42394 c 0,0 -1.47592,-0.0869 -2.34375,0.0625 -0.57415,0.0988 -1.14008,0.32555 -1.625,0.6875 -0.55508,0.41433 -1.22393,0.94445 -1.40625,1.75 -0.0808,0.35719 0.0158,0.72052 0.0937,1 0.078,0.27948 0.15625,0.5 0.15625,0.5 l 0.65625,-0.28125 c 0,0 -0.0923,-0.17697 -0.15625,-0.40625 -0.064,-0.22928 -0.0914,-0.52873 -0.0625,-0.65625 0.11338,-0.50097 0.6066,-0.9568 1.125,-1.34375 1.23459,-1.06744 2.43008,-0.74771 3.56245,-1.3125 z m 5.11862,-0.28264 c 0.52029,-0.7686 1.4076,-1.64722 1.71761,-2.71511 0.31001,-1.06788 0.419,-2.19092 0.0695,-3.09801 -0.66846,0.31716 -2.0332,5.60245 -1.78715,5.81312 z m 3.75025,-8.50358 c -0.17351,1.08824 -1.79049,1.05711 -2.49103,0.78235 -0.70056,-0.27477 -1.22384,-1.21134 -0.87231,-2.08911 0.27846,1.19782 2.03051,1.75181 3.36334,1.30676 z m 0.25878,-2.67409 c -0.17351,1.08824 -1.79049,1.05711 -2.49103,0.78235 -0.70056,-0.27477 -1.22384,-1.21134 -0.87231,-2.08911 0.27846,1.19782 2.03051,1.75181 3.36334,1.30676 z"
           id="path40" />
        <path
           d="m 340.73636,301.85909 c 0.29825,1.48977 -0.29861,2.51282 -1.08006,2.92216 -1.17519,0.61559 -2.26715,0.2019 -3.25,-0.71875 -1.27722,-1.19639 -2.1417,-2.79068 -3.28125,-3.84375 -1.44529,-1.33561 -3.18679,-1.69309 -4.6875,-1.59375 -1.50071,0.0993 -2.84586,0.77736 -3.8125,1.84375 -1.93327,2.13278 -2.43063,5.95071 -0.40625,9.09116 1.90597,2.95677 7.6382,5.05755 9.8125,6.8444 1.95248,1.60456 2.81385,2.66447 3.1875,3.84569 0.37365,1.18122 0.51893,2.68009 -0.0625,4.125 -0.69911,1.73735 -2.36286,2.48426 -4.84634,2.53726 -3.2996,0.0704 -6.41236,-2.9906 -9.59767,-3.50413 -5.96396,-0.96149 -7.65835,1.58444 -13.19974,1.65623 -10.97636,0.1422 -15.45625,-3.5 -15.45625,-3.5 l -11.9,15.12314 c -3.63546,1.48959 -3.8264,6.97888 0,9.9375 -1.09401,0.68764 -2.17669,2.11624 -2.65625,3.3125 -0.60345,1.50531 -1.09751,2.43956 -1.84375,3.53125 0,0 -2.4048,-0.47075 -3.65625,-0.53125 -0.86925,-0.042 -2.16244,-0.033 -2.90625,0.34375 -1.32431,0.6708 -2.46114,1.57551 -3.0625,2.59375 -1.09622,1.85615 0.2392,3.56735 2.21875,2.65625 1.77027,1.78695 3.85192,0.66514 6.40625,-0.3125 0.52339,-0.20033 1.29656,0.0122 1.9375,0.15625 0.6707,0.15082 1.43675,0.28463 2.0625,0 1.47165,-0.6694 2.13702,-2.38989 3.1875,-3.59375 0.49543,-0.56776 1.46875,-1.71875 1.46875,-1.71875 l 0.96875,1.34375 c 0.65225,-1.1143 0.68377,-2.22945 0.53125,-3.34375 l 1.21875,1.4375 c 0.64454,-1.11084 0.59489,-2.22178 0.4375,-3.125 l 1.15625,1.4375 c 0,0 0.191,-0.62584 0.65625,-1.5 0.30152,-0.56651 0.88875,-1.32326 1,-1.75 0.1921,-0.73681 0.25,-1.6875 0.25,-1.6875 0.66734,0.63796 1.17431,0.97004 2.03125,0.84375 0.12221,-1.33456 0.21101,-1.73881 0.53125,-2.28125 4.24825,-0.2249 8.2026,-0.96971 11.78125,-2.46875 2.70298,-1.13224 5.21025,-2.68061 7.4375,-4.75 0.58131,-0.54011 1.04831,-0.82578 1.59375,-1.4375 0.5361,-0.60124 2.75568,-0.29644 3.875,0.15625 0.54049,0.2186 1.21875,1.125 1.21875,1.125 0.89733,2.50896 3.01412,8.49702 8.84375,9.78125 -1.50508,2.75432 0.57227,5.23713 -0.5625,7.34375 0,0 -2.4048,-0.502 -3.65625,-0.5625 -0.86925,-0.042 -2.13119,-0.033 -2.875,0.34375 -1.32431,0.6708 -2.49239,1.57551 -3.09375,2.59375 -1.09622,1.85615 0.2392,3.5986 2.21875,2.6875 1.77027,1.78695 3.85192,0.63389 6.40625,-0.34375 0.52339,-0.20033 1.29656,0.0122 1.9375,0.15625 0.6707,0.15082 1.42961,0.26839 2.0625,0 1.50576,-0.63854 2.54537,-2.51185 3.5,-5.53125 l 1.46875,0.65625 c 0.0159,-1.29106 -0.50388,-2.26317 -1.1875,-3.15625 l 1.78125,0.65625 c 0.0109,-1.28424 -0.57278,-2.23029 -1.15625,-2.9375 l 1.71875,0.6875 c 0,0 -0.1596,-0.66638 -0.1875,-1.65625 -0.0181,-0.6415 0.1143,-1.57408 0,-2 -0.19743,-0.73539 -0.457,-1.02588 -0.625,-1.5625 -0.13463,-0.43003 -0.28125,-1.3125 -0.28125,-1.3125 -3.07092,-1.55605 -3.74935,-4.11982 -3.78125,-6.4375 -0.0421,-3.05646 -0.50427,-4.79037 -2.4375,-6.64063 0.67626,-0.1211 1.3764,-0.0229 1.9687,-0.0156 3.69346,0.0455 6.71747,-1.84751 7.61918,-4.62953 0.60147,-1.85568 0.60872,-3.93769 -0.1237,-5.52672 -1.04954,-2.27703 -2.15872,-3.25941 -4.27673,-5 -2.38758,-1.96213 -7.89991,-4.14917 -9.375,-6.4375 -1.57936,-2.45007 -1.12088,-4.96285 0.1875,-6.40625 1.28322,-1.41565 3.38649,-2.08246 5.65625,-0.125 1.36234,1.17489 2.18876,2.84234 3.3125,3.875 1.31106,1.20479 3.59662,2.19949 5.5625,0.9375 2.03937,-1.30917 2.31034,-3.24353 2.11136,-4.89091 0.34226,-1.35079 1.51989,-2.50333 3.57875,-2.61078 -0.65427,-1.37477 -3.65824,-2.76382 -4.93459,0.11131 -1.53218,-2.28661 -4.46066,-1.17592 -5.00879,1.00176 1.53103,-0.35282 3.2112,0.18196 4.36463,1.74769 z"
           fill="#ffbb26"
           stroke="#000000"
           stroke-width="0.624164"
           transform="translate(-38.245434,-121.29877)"
           id="path42" />
        <path
           d="m 287.52071,206.60325 c 1.3205,-0.25457 2.78119,0.65642 4.20509,1.22926 0.84871,0.34144 1.61283,0.22874 1.89604,0.44097 l -1.28533,0.2552 1.60388,3.0978 c -0.76159,-1.54418 -4.98624,-4.68483 -6.41971,-5.02321 z m -3.20364,8.66048 c 0.33353,2.65196 1.12622,4.69561 2.53125,6.21875 1.40503,1.52314 3.36959,2.50317 5.9375,3.125 -0.88875,-1.43111 -3.85419,-2.50156 -5.1875,-3.78125 -1.79769,-1.72539 -2.13779,-4.65801 -3.28125,-5.5625 z m 7.64885,17.1837 c 0.38672,-0.84374 1.11733,-1.85641 1.24737,-2.96075 0.13004,-1.10434 0.0527,-2.23001 -0.44126,-3.06722 -0.60714,0.42285 -1.08347,5.86067 -0.80611,6.02797 z m -8.83557,-18.55809 c 0.55144,-0.9541 -0.72329,-1.94941 -1.44028,-2.17782 -0.71701,-0.22845 -1.71368,0.16864 -1.99424,1.0716 0.97135,-0.75419 2.68057,-0.0796 3.43452,1.10622 z m -16.43066,-0.82526 c 0.49417,1.93585 5.94083,4.45145 7.04509,3.86306 l 1.57328,-0.98788 c -1.96411,1.08994 -7.11038,-0.99011 -8.61839,-2.87522 z m -2.7013,0.42799 c -0.0825,1.57373 6.09882,5.35173 7.5417,5.08684 l 1.62172,-0.90618 c -2.13367,1.22564 -9.10845,-3.18895 -9.16344,-4.1807 z m -1.42763,1.8696 c 0.27135,1.97942 5.26897,5.09673 6.43286,4.63743 l 1.6752,-0.80301 c -2.60841,0.67061 -7.09007,-1.89509 -8.10807,-3.83446 z m -1.55439,1.81136 c -0.12686,1.51251 3.10031,3.92909 4.61692,4.22685 l 1.74873,-0.62694 c -2.20202,0.37914 -5.73841,-2.03636 -6.36566,-3.59995 z m -2.46139,0.43318 c -0.17774,1.28868 2.55052,4.54345 3.76945,4.65836 l 1.81597,-0.39162 c -1.75659,0.48983 -5.40591,-3.31925 -5.58543,-4.26678 z m -1.43283,1.97195 c -0.0709,0.70714 0.74472,2.60949 1.97227,3.22576 l 1.84898,-0.17998 c -2.35558,-0.27546 -3.60277,-2.57465 -3.82125,-3.04582 z m -2.19165,1.11496 c 0.009,0.73983 0.20868,1.91631 1.14348,2.52403 l 1.85637,-0.0708 c -1.90698,-0.39847 -2.7868,-2.00418 -2.99985,-2.45327 z m -8.98924,2.66343 c 0.17351,1.08824 1.79049,1.05711 2.49103,0.78235 0.70056,-0.27477 1.22384,-1.21134 0.87231,-2.08911 -0.27846,1.19782 -2.03051,1.75181 -3.36334,1.30676 z m 0.0411,2.53113 c 0.17351,1.08824 1.79049,1.05711 2.49103,0.78235 0.70056,-0.27477 1.22384,-1.21134 0.87231,-2.08911 -0.27846,1.19782 -2.03051,1.75181 -3.36334,1.30676 z m -4.35412,7.6872 c 0.75767,-0.53609 1.89758,-1.04589 2.56385,-1.93615 0.66627,-0.89026 1.16382,-1.90295 1.15625,-2.875 -0.73733,0.0614 -3.87618,4.52732 -3.7201,4.81115 z m 45.84922,0.72216 c 0,0 -1.47592,-0.0869 -2.34375,0.0625 -0.57415,0.0988 -1.14008,0.32555 -1.625,0.6875 -0.55508,0.41433 -1.22393,0.94445 -1.40625,1.75 -0.0808,0.35719 0.0158,0.72052 0.0937,1 0.078,0.27948 0.15625,0.5 0.15625,0.5 l 0.65625,-0.28125 c 0,0 -0.0923,-0.17697 -0.15625,-0.40625 -0.064,-0.22928 -0.0914,-0.52873 -0.0625,-0.65625 0.11338,-0.50097 0.6066,-0.9568 1.125,-1.34375 1.23459,-1.06744 2.43008,-0.74771 3.56245,-1.3125 z m -50.47287,-0.68956 c 0,0 -1.47592,-0.0869 -2.34375,0.0625 -0.57415,0.0988 -1.14008,0.32555 -1.625,0.6875 -0.55508,0.41433 -1.22393,0.94445 -1.40625,1.75 -0.0808,0.35719 0.0158,0.72052 0.0937,1 0.078,0.27948 0.15625,0.5 0.15625,0.5 l 0.65625,-0.28125 c 0,0 -0.0923,-0.17697 -0.15625,-0.40625 -0.064,-0.22928 -0.0914,-0.52873 -0.0625,-0.65625 0.11338,-0.50097 0.6066,-0.9568 1.125,-1.34375 1.23459,-1.06744 2.43008,-0.74771 3.56245,-1.3125 z"
           id="path44" />
        <path
           d="m 257.41801,208.83034 -0.90836,0.52233 c -6.17627,2.38032 -10.93327,2.30127 -17.14757,0 l -0.88389,2.49237 c -0.70648,2.81877 -0.31842,5.30177 0.64819,7.30687 0.58927,-0.28071 1.17853,-0.88803 1.76779,-1.47316 0.2909,0.9735 0.16066,2.35775 1.17853,3.47665 1.15448,-0.64819 1.8712,-1.53208 2.29812,-2.18027 0.1967,1.33156 0.70386,2.3417 1.72397,3.06417 1.02011,-0.72247 1.52727,-1.73262 1.72397,-3.06418 0.42692,0.64819 1.14364,1.7678 2.29812,2.41599 1.01787,-1.1189 1.00548,-1.79604 1.32585,-2.90812 0.51532,1.1578 1.17311,1.74707 2.32759,2.39526 1.01787,-1.1189 0.88763,-2.50315 1.17853,-3.47665 0.48808,0.78749 1.10607,1.33734 1.76779,1.47316 0.50531,-0.72275 0.87323,-1.88058 0.86874,-2.92727 0.94897,0.7443 1.83246,0.96653 2.43159,1.01596 0.23892,-1.36316 0.18787,-2.4169 -0.007,-3.63045 0.89457,0.30787 1.06685,0.58839 2.16724,0.59049 0.73592,-2.70158 -0.13921,-5.62512 -2.69877,-7.6965 z"
           fill="#ffbb26"
           stroke="#000000"
           stroke-width="0.624164"
           id="path46" />
        <path
           d="m 261.7864,213.84129 -1.46594,-0.0966 -0.4752,0.97147 c -0.0255,-1.31826 -0.73254,-2.50522 -0.8702,-3.21865 0.33079,0.7522 1.34203,1.60975 2.81134,2.34377 z m -2.77001,2.8403 -1.2314,-0.48451 -0.59358,0.90401 c 0.14049,-1.311 -0.069,-3.4583 -0.11586,-4.18337 0.23358,0.78782 0.85416,2.84003 1.94084,3.76387 z m -3.24433,1.46711 -0.72708,-0.48451 -0.59358,0.90401 c 0.14049,-1.311 -0.11486,-3.91678 -0.16171,-4.64185 0.23358,0.78782 1.03755,3.34436 1.48237,4.22235 z m -3.53026,1.14619 -0.72708,-0.48451 -0.59358,0.90401 c 0.14049,-1.311 0.20607,-3.64169 0.15922,-4.36676 0.23358,0.78782 0.71662,3.06927 1.16144,3.94726 z m -3.62196,0.43556 -0.72708,-0.48451 -0.59358,0.90401 c 0.14049,-1.311 0.20607,-3.64169 0.15922,-4.36676 0.23358,0.78782 0.71662,3.06927 1.16144,3.94726 z m -5.126,0.13754 0.72708,-0.48451 0.59358,0.90401 c -0.14049,-1.311 -0.20607,-2.95398 -0.15922,-3.67905 -0.23358,0.78782 -0.71662,2.38156 -1.16144,3.25955 z m -3.4221,-1.43787 0.72708,-0.48451 0.59358,0.90401 c -0.14049,-1.311 -0.20607,-2.95398 -0.15922,-3.67905 -0.23358,0.78782 -0.71662,2.38156 -1.16144,3.25955 z"
           id="path48" />
        <path
           d="m 237.64803,201.03571 c 0,0 -2.27902,4.00182 -2.73436,6.06686 -0.29465,1.33627 -0.25635,3.41795 -0.25635,3.41795 0.74056,-0.0465 1.48111,-0.21018 2.22167,-0.93993 0.0766,1.13932 -0.0368,2.27863 0.68359,3.41795 0.74056,-0.28565 1.65201,-0.66152 2.39257,-2.05077 0.0572,1.41687 0.31956,2.25258 1.11083,3.58885 0.97021,-0.30973 1.73157,-1.46442 2.47802,-2.22167 0.0159,1.03333 0.27362,2.18758 1.19628,3.6743 1.21148,-0.72613 1.91561,-2.40591 2.19671,-3.3592 0.30747,0.90065 0.98524,2.63307 2.19672,3.3592 0.92266,-1.48672 1.18038,-2.64097 1.19628,-3.6743 0.74645,0.75725 1.50781,1.91194 2.47802,2.22167 0.79127,-1.33627 1.05363,-2.17198 1.11083,-3.58885 0.74056,1.38925 1.65201,1.76512 2.39257,2.05077 0.72039,-1.13932 0.60699,-2.27863 0.68359,-3.41795 0.74056,0.72975 1.75474,1.3625 2.4953,1.409 0.14734,-0.14734 0.72641,-2.14436 0.44725,-3.33977 0.87089,0.75554 1.61503,1.25907 2.90059,1.22263 0.21049,-1.10384 0.0302,-2.20772 -0.18544,-3.20797 1.39737,0.52749 2.91111,0.67104 3.99155,0.10274 -2.52118,-4.68344 -6.50683,-5.44848 -10.88381,-6.256 -4.95995,4.5104 -10.90832,5.34949 -18.11241,1.52449 z"
           fill="#ffbb26"
           stroke="#000000"
           stroke-width="0.624164"
           id="path50" />
        <path
           d="m 263.85704,206.09773 -0.8686,-0.0945 -0.10961,1.0759 c -0.48013,-1.22797 -1.21766,-2.95863 -1.59371,-3.58033 0.36559,0.72794 2.25054,2.38064 3.58353,2.59889 z m -2.68699,2.34365 -1.15937,-0.72697 0.12749,1.65183 c -0.41028,-1.25304 -1.04926,-3.02246 -1.38974,-3.66433 0.53651,0.62239 1.65547,2.12162 2.42162,2.73947 z m -3.02009,2.23413 -1.01717,-0.91541 -0.1583,1.64916 c -0.18882,-1.30491 -0.51419,-3.15782 -0.73929,-3.84866 0.42156,0.70534 1.2662,2.37458 1.91476,3.11491 z m -3.29309,1.21116 -0.78292,-0.38785 -0.47347,0.97232 c -0.0278,-1.31821 -0.12411,-3.197 -0.26302,-3.91018 0.33212,0.7516 0.96627,2.51161 1.51941,3.32571 z m -7.23075,1.68131 -0.67028,-0.56045 -0.68806,0.83436 c 0.28176,-1.28805 0.62822,-3.23346 0.66023,-3.95934 0.14683,0.80848 0.35106,2.76441 0.69811,3.68543 z m 3.61787,-0.52519 -0.78292,-0.38785 -0.47347,0.97232 c -0.0278,-1.31821 -0.12411,-3.197 -0.26302,-3.91018 0.33212,0.7516 0.96627,2.51161 1.51941,3.32571 z m -8.64882,0.19269 0.78292,-0.38785 0.47347,0.97232 c 0.0278,-1.31821 0.12411,-3.197 0.26302,-3.91018 -0.33212,0.7516 -0.96627,2.51161 -1.51941,3.32571 z m -3.58379,-1.29814 0.78292,-0.38785 0.47347,0.97232 c 0.0278,-1.31821 0.3168,-3.67872 0.45571,-4.3919 -0.33212,0.7516 -1.15896,2.99333 -1.7121,3.80743 z m -3.04843,-1.83381 0.82334,-0.29242 0.35501,1.02154 c 0.18371,-1.30564 0.52108,-2.91495 0.74346,-3.60666 -0.41878,0.70699 -1.27617,2.13466 -1.92181,2.87754 z"
           id="path52" />
        <path
           d="m 257.11463,197.0571 c 0.79525,0.23939 1.12109,-0.0432 2.03852,0.0925 -0.49144,-2.09601 -0.63508,-2.83919 -2.29623,-4.25292 1.22566,0.35452 1.41252,0.026 2.19089,0.10707 -1.72873,-3.1509 -1.41275,-6.34263 -3.99482,-7.97291 0.80809,-2.14281 0.27934,-2.57769 -0.42159,-4.52092 -0.1751,-0.48557 -0.0859,-1.54623 -0.0859,-1.54623 0,0 -2.21076,0.45276 -3.00656,1.43703 -0.45899,0.56769 -1.03875,1.36585 -1.03875,1.36585 0.18213,-1.19293 0.0618,-1.71743 -0.85902,-2.49115 -0.38691,0.52902 -0.8266,1.71503 -1.28853,2.17696 -0.1574,-1.07877 -0.36977,-2.00422 -1.26029,-2.69579 -0.77699,0.74789 -1.22249,1.58518 -1.26029,2.69579 -0.46193,-0.46193 -0.90162,-1.64794 -1.28853,-2.17696 -0.92082,0.77372 -1.04115,1.29822 -0.85902,2.49115 0,0 -0.57976,-0.79816 -1.03875,-1.36585 -0.7958,-0.98427 -3.00656,-1.43703 -3.00656,-1.43703 0,0 0.0248,1.04204 -0.0859,1.54623 -0.25643,1.16764 -1.51233,2.6788 -0.42159,4.52092 -3.1294,2.17762 -2.44854,5.09568 -4.17727,8.24658 0.77837,-0.0811 0.92711,0.3414 2.15277,-0.0131 -1.66115,1.41373 -1.77734,1.70043 -2.26878,3.79644 0.60335,-0.2404 1.11483,-0.0479 2.28891,-0.37625 -0.39896,0.93495 -1.25815,1.61809 -1.7369,2.06106 -1.18318,1.09474 -1.66908,2.1926 -1.96197,3.45802 0.77537,0.01 1.55075,-0.26314 2.32612,-0.48126 -0.26585,1.0097 -0.39717,1.75224 -0.0802,3.20844 1.16336,-0.4676 1.73973,-0.96071 2.48654,-1.4438 -0.0955,0.93579 -0.14724,2.03201 0.16042,2.9678 0.77537,-0.22726 1.55074,-0.7355 2.32611,-1.60422 -0.0181,1.22126 0.31676,2.08956 0.7219,2.88759 0.71222,-0.4463 1.42999,-0.88816 2.00527,-1.44379 0.23175,0.86749 0.28669,1.6171 1.12295,2.88759 1.27746,-0.56964 1.53799,-1.39351 2.00527,-2.16569 0.17745,0.71297 0.49384,1.49541 1.42791,2.58668 1.22168,-0.88326 1.15997,-1.76652 1.50393,-2.64978 0.27803,0.63377 0.86945,1.75396 1.7904,2.22009 0.69567,-0.78777 0.80395,-1.86201 1.00261,-2.50655 0.62718,0.78126 1.35613,1.46075 2.36331,1.86201 0.52421,-1.05004 0.54132,-1.93105 0.50133,-2.79302 0.88326,1.01787 1.76652,1.30483 2.64978,1.57555 0.22036,-0.95487 0.1595,-1.90975 0,-2.86462 0.931,0.73158 1.86201,1.08179 2.79301,0.85938 0.0473,-1.05334 -0.26096,-1.84215 -0.57293,-2.72139 0.93685,0.17878 1.83093,0.27204 2.57817,0.0716 0,0 -0.50977,-1.25292 -1.14586,-1.862 -0.81913,-0.78435 -1.92713,-1.35847 -2.74393,-2.14526 -0.47252,-0.45516 -1.53595,-1.59182 -1.53595,-1.59182 z"
           fill="#ffbb26"
           stroke="#000000"
           stroke-width="0.624164"
           id="path54" />
        <path
           d="m 278.75,301.96875 c 0,0 0.067,0.72697 -0.0312,1.09375 -0.18934,0.70738 -0.52608,1.29988 -0.5625,2.03125 -0.0248,0.49884 0.46875,1.4375 0.46875,1.4375 0,0 0.32087,-1.15076 0.84375,-1.375 0.52051,-0.22322 1.59375,0.3125 1.59375,0.3125 0,0 -0.0694,-1.06203 -0.21875,-1.46875 -0.33501,-0.91218 -2.09375,-2.03125 -2.09375,-2.03125 z m 13.0625,0 c 0,0 -1.75874,1.11907 -2.09375,2.03125 -0.14935,0.40672 -0.21875,1.46875 -0.21875,1.46875 0,0 1.07324,-0.53572 1.59375,-0.3125 0.52288,0.22424 0.84375,1.375 0.84375,1.375 0,0 0.49355,-0.93866 0.46875,-1.4375 -0.0364,-0.73137 -0.34191,-1.32387 -0.53125,-2.03125 -0.0982,-0.36678 -0.0625,-1.09375 -0.0625,-1.09375 z m -13.59375,6.15625 c -0.77984,0.52278 -1.05356,1.4082 -0.84375,2.1875 0.16109,0.59832 0.67136,1.06411 1.34375,1.34375 -0.0341,0.032 -0.0272,0.0273 -0.0625,0.0625 -0.26634,0.26542 -0.57322,0.61882 -0.6875,1.0625 -0.47553,1.84618 -0.16462,3.64588 0.875,4.8125 -0.54954,0.80756 -1.57961,2.6077 -2.03125,3.625 0.90691,-0.80966 1.83889,-2.27187 2.53125,-3.15625 0.30749,0.24348 0.65649,0.43141 1.03125,0.59375 -0.3856,0.80244 -1.1555,2.92307 -1.4375,4.0625 0.81986,-1.0417 1.54511,-2.87297 2.09375,-3.8125 0.26974,0.0783 0.55684,0.11396 0.84375,0.15625 -0.21366,0.67301 -0.13635,1.38113 0.21875,1.96875 -0.38783,0.76059 -1.19879,2.96869 -1.5,4.125 0.77482,-0.9601 1.45658,-2.58291 2,-3.5625 0.31295,0.27538 0.6944,0.48486 1.15625,0.625 -0.17444,0.97876 -0.37295,3.0271 -0.375,4.125 0.50998,-1.12373 0.78147,-2.88441 1.0625,-3.96875 0.19346,0.024 0.38316,0.0625 0.59375,0.0625 0.12174,0 0.22766,-0.0231 0.34375,-0.0312 0.19594,1.10681 0.32993,2.83529 0.75,3.96875 0.0743,-1.07145 0.037,-3.04903 -0.0625,-4.0625 0.35217,-0.0807 0.65984,-0.21761 0.9375,-0.375 0.44221,1.02004 0.94041,2.80827 1.625,3.875 -0.17645,-1.19667 -0.73088,-3.54277 -1.03125,-4.3125 0.0849,-0.0842 0.17894,-0.15671 0.25,-0.25 0.37419,-0.49122 0.50445,-1.10959 0.4375,-1.71875 0.93025,0.83302 2.45278,2.31496 3.46875,2.96875 -0.60298,-0.93082 -2.26454,-2.75791 -3.03125,-3.53125 0.78835,-0.18448 1.52231,-0.49078 2.09375,-0.96875 0.8837,0.80593 2.68249,3.10543 3.78125,3.8125 -0.63902,-0.98646 -2.63194,-3.60107 -3.3125,-4.3125 0.9816,-1.1679 1.27681,-2.91612 0.8125,-4.71875 -0.11428,-0.44368 -0.42116,-0.79708 -0.6875,-1.0625 -0.0353,-0.0352 -0.0284,-0.0305 -0.0625,-0.0625 0.67238,-0.27964 1.18266,-0.74543 1.34375,-1.34375 0.20981,-0.7793 -0.0639,-1.66472 -0.84375,-2.1875 0.2197,0.68729 0.38213,1.23399 0.1875,2.03125 -0.12428,0.50908 -0.57257,0.95157 -1.375,1.0625 l -0.875,0.125 0.71875,0.5 c 0,0 0.18051,0.15003 0.40625,0.375 0.22574,0.22497 0.47855,0.54544 0.53125,0.75 0.42798,1.66158 1.1e-4,3.06842 -0.90625,4.0625 -0.90637,0.99408 -2.34342,1.68383 -3.96875,1.4375 -1.12636,-0.17071 -1.15762,-0.45244 -1.15625,-1.46875 0.21031,-0.0239 0.47229,-0.0837 0.71875,-0.21875 0.22373,-0.12265 0.31365,-0.253 0.40625,-0.375 0.0926,-0.12205 0.1681,-0.20975 0.1875,-0.21875 0.29337,-0.1387 0.75,-0.0937 0.75,-0.0937 l 0.375,0.0937 0.0312,-0.40625 c 0.0251,-0.35246 0.1025,-0.57796 -0.15625,-1.15396 -0.20983,-0.46709 -0.52946,-0.74856 -0.75,-0.90625 -0.11027,-0.0788 -0.17435,-0.11495 -0.21875,-0.15625 -0.0444,-0.0413 -0.0545,-0.0595 -0.0625,-0.0937 -0.28784,-1.16936 -0.37693,-2.18223 -0.0937,-3.15854 0.16949,-0.58435 0.74907,-1.07841 1.5,-1.1875 0.8089,-0.11751 1.79479,0.13065 2.25,0.21875 -0.44854,-0.56115 -1.32418,-1.10298 -2.4375,-0.90625 -0.9117,0.1611 -1.73738,0.78217 -2,1.6875 -0.32395,1.11676 -0.203,2.29695 0.0937,3.50229 0.0448,0.18207 0.14214,0.33708 0.25,0.4375 0.10786,0.10042 0.2165,0.1813 0.3125,0.25 0.1921,0.13735 0.38147,0.26032 0.53125,0.59375 0.1286,0.28621 0.0784,0.27677 0.0625,0.52896 -0.22486,-0.0185 -0.36268,-0.19961 -0.71875,-0.0312 -0.23646,0.11179 -0.36657,0.30285 -0.46875,0.4375 -0.10215,0.13465 -0.19335,0.23905 -0.15625,0.21875 -0.0973,0.0533 -0.30401,0.1063 -0.46875,0.125 -0.16474,0.0187 -0.3125,0 -0.3125,0 0,0 -0.14776,0.0187 -0.3125,0 -0.16474,-0.0187 -0.37147,-0.0717 -0.46875,-0.125 0.0371,0.0203 -0.0541,-0.0841 -0.15625,-0.21875 -0.10218,-0.13465 -0.23229,-0.32571 -0.46875,-0.4375 -0.35607,-0.16836 -0.49389,0.0127 -0.71875,0.0312 -0.0159,-0.25219 -0.0661,-0.24275 0.0625,-0.52896 0.14978,-0.33343 0.33915,-0.4564 0.53125,-0.59375 0.096,-0.0687 0.20464,-0.14958 0.3125,-0.25 0.10786,-0.10042 0.20517,-0.25543 0.25,-0.4375 0.29675,-1.20534 0.4177,-2.38553 0.0937,-3.50229 -0.26262,-0.90533 -1.0883,-1.5264 -2,-1.6875 -1.11332,-0.19673 -1.98896,0.3451 -2.4375,0.90625 0.45521,-0.0881 1.4411,-0.33626 2.25,-0.21875 0.75093,0.10909 1.33051,0.60315 1.5,1.1875 0.28318,0.97631 0.19409,1.98918 -0.0937,3.15854 -0.008,0.0343 -0.0181,0.0525 -0.0625,0.0937 -0.0444,0.0413 -0.10848,0.0774 -0.21875,0.15625 -0.22054,0.15769 -0.54017,0.43916 -0.75,0.90625 -0.25875,0.576 -0.18131,0.8015 -0.15625,1.15396 l 0.0312,0.40625 0.375,-0.0937 c 0,0 0.45663,-0.0449 0.75,0.0937 0.0194,0.009 0.0949,0.0967 0.1875,0.21875 0.0926,0.122 0.18252,0.25235 0.40625,0.375 0.24646,0.1351 0.50844,0.19484 0.71875,0.21875 0.0678,1.07658 -0.10453,1.27928 -1.15625,1.46875 -1.61785,0.29147 -3.06238,-0.44342 -3.96875,-1.4375 -0.90637,-0.99408 -1.33424,-2.40092 -0.90625,-4.0625 0.0527,-0.20456 0.30551,-0.52503 0.53125,-0.75 0.22574,-0.22497 0.40625,-0.375 0.40625,-0.375 l 0.71875,-0.5 -0.875,-0.125 c -0.80243,-0.11093 -1.25072,-0.55342 -1.375,-1.0625 -0.19463,-0.79726 -0.0322,-1.34396 0.1875,-2.03125 z m 3.5,1.78125 c -0.26999,0.003 -0.59328,0.0969 -0.96875,0.28125 0.12896,0.79717 0.97031,1.85342 2.40625,1 -0.22911,-0.61174 -0.62753,-1.28981 -1.4375,-1.28125 z m 6.625,0 c -0.80997,-0.009 -1.20839,0.66951 -1.4375,1.28125 1.43594,0.85342 2.27729,-0.20283 2.40625,-1 -0.37547,-0.18431 -0.69876,-0.27839 -0.96875,-0.28125 z m -3.3125,8.6875 c 0.0905,0.0559 0.18173,0.11127 0.40625,0.21875 0.31314,0.14991 0.67473,0.27891 1.0625,0.3125 0.33799,0.0293 0.66913,0.0466 1,0.0312 0.22478,0.54153 0.14302,0.93133 -0.21875,1.40625 -0.39777,0.52218 -1.1347,0.90625 -2.25,0.90625 -1.1153,0 -1.88348,-0.38407 -2.28125,-0.90625 -0.36177,-0.47492 -0.41695,-0.86472 -0.1875,-1.40625 0.33087,0.0153 0.66201,-0.002 1,-0.0312 0.38777,-0.0336 0.74936,-0.16259 1.0625,-0.3125 0.22452,-0.10748 0.31571,-0.16283 0.40625,-0.21875 z m -8.71875,1.5 c -1.17453,0.90802 -2.22456,2.64414 -3.4375,3.0625 L 273.96875,323 l 0.125,1.15625 c 0.58011,-2.49242 1.751,-2.36292 2.21875,-4.0625 z m 2.15625,0.5 c -1.02969,1.06947 -2.11097,4.12811 -3.25,4.71875 l 1.0625,-0.34375 0.28125,1.125 c 0.21075,-2.55034 1.69114,-3.75041 1.90625,-5.5 z m 16.9375,0.4375 c 0.31687,1.42646 2.40036,1.92682 2.9375,4.125 l 0.125,-1.125 1.28125,0.0625 c -2.3135,-1.12517 -2.3025,-1.36523 -4.34375,-3.0625 z M 293,321.15625 c 0.0504,1.46037 2.78061,3.61563 2.90625,5.875 l 0.34375,-1.0625 1,0.46875 c -1.27452,-1.16422 -3.29772,-4.43182 -4.25,-5.28125 z M 279.9375,323 c -0.82975,1.23108 -1.16744,3.06546 -2.1875,3.84375 l 0.96875,-0.5 0.5,1.0625 c -0.23239,-2.54846 0.8087,-2.64578 0.71875,-4.40625 z m 11.65625,0.0937 c -0.0548,1.46021 1.75801,2.68402 1.40625,5.21875 l 0.53125,-1.03125 0.96875,0.5625 c -0.9824,-0.82531 -2.01756,-3.83425 -2.90625,-4.75 z m -2.1875,0.4375 c -0.35312,1.72704 1.14345,3.10903 0.53125,5.59375 l 0.625,-1 0.90625,0.65625 c -0.89171,-0.92255 -1.42689,-3.90834 -2.0625,-5.25 z m -7.3125,1 c -0.63561,1.34166 -0.54579,3.1087 -1.4375,4.03125 l 0.90625,-0.65625 0.625,0.96875 c -0.6122,-2.48472 0.2594,-2.61671 -0.0937,-4.34375 z m 4.9375,0.21875 c -0.48273,1.69528 0.79894,2.25639 0,4.6875 l 0.71875,-0.90625 0.8125,0.6875 c -0.81916,-0.98754 -0.99925,-3.08273 -1.53125,-4.46875 z m -2.15625,1 c -0.532,1.38602 -0.14959,2.48121 -0.96875,3.46875 L 284.75,328.5 l 0.6875,0.9375 c -0.79894,-2.43111 -0.0793,-1.99222 -0.5625,-3.6875 z"
           transform="translate(-38.245434,-121.29877)"
           id="path56" />
      </g>
    </g>
  </g>
</svg>
