<?xml version="1.0" encoding="UTF-8" standalone="no"?>
<svg
   sodipodi:docname="2-improved.svg"
   inkscape:version="1.4 (86a8ad7, 2024-10-11)"
   width="280"
   height="250"
   viewBox="0 0 280 250"
   version="1.1"
   id="SVGRoot"
   xmlns:inkscape="http://www.inkscape.org/namespaces/inkscape"
   xmlns:sodipodi="http://sodipodi.sourceforge.net/DTD/sodipodi-0.dtd"
   xmlns="http://www.w3.org/2000/svg"
   xmlns:svg="http://www.w3.org/2000/svg"
   xmlns:rdf="http://www.w3.org/1999/02/22-rdf-syntax-ns#"
   xmlns:cc="http://creativecommons.org/ns#"
   xmlns:dc="http://purl.org/dc/elements/1.1/">
  <defs
     id="defs70" />
  <sodipodi:namedview
     inkscape:window-maximized="1"
     inkscape:window-y="-9"
     inkscape:window-x="-9"
     inkscape:window-height="991"
     inkscape:window-width="1920"
     showgrid="false"
     inkscape:document-rotation="0"
     inkscape:current-layer="layer1"
     inkscape:document-units="px"
     inkscape:cy="70.843261"
     inkscape:cx="115.3247"
     inkscape:zoom="22.627417"
     inkscape:pageshadow="2"
     inkscape:pageopacity="0.0"
     borderopacity="1.0"
     bordercolor="#666666"
     pagecolor="#ffffff"
     id="base"
     inkscape:showpageshadow="2"
     inkscape:pagecheckerboard="0"
     inkscape:deskcolor="#d1d1d1"
     showguides="true">
    <sodipodi:guide
       position="-505.64941,286.6896"
       orientation="0,-1"
       id="guide10"
       inkscape:locked="false" />
    <sodipodi:guide
       position="-508.98229,258.13631"
       orientation="-0.99985462,-0.017051003"
       id="guide13"
       inkscape:locked="false" />
    <sodipodi:guide
       position="-502.39545,255.78544"
       orientation="0.99983211,-0.018323706"
       id="guide14"
       inkscape:locked="false" />
    <sodipodi:guide
       position="28.787084,-165.02748"
       orientation="0,-1"
       id="guide5"
       inkscape:locked="false" />
    <sodipodi:guide
       position="28.592556,-152.3107"
       orientation="0,-1"
       id="guide6"
       inkscape:locked="false" />
  </sodipodi:namedview>
  <metadata
     id="metadata73">
    <rdf:RDF>
      <cc:Work
         rdf:about="">
        <dc:format>image/svg+xml</dc:format>
        <dc:type
           rdf:resource="http://purl.org/dc/dcmitype/StillImage" />
      </cc:Work>
    </rdf:RDF>
  </metadata>
  <g
     id="layer1"
     inkscape:groupmode="layer"
     inkscape:label="Layer 1"
     transform="translate(-7.5401533,-27.370178)"
     style="display:inline;opacity:1;mix-blend-mode:normal">
    <path
       style="display:inline;mix-blend-mode:normal;fill:#ffbb26;fill-opacity:1;stroke:#000000;stroke-width:1.7;stroke-dasharray:none;stroke-opacity:1"
       d="m 168.61134,144.68361 1.58064,-86.24754 -7.64012,-0.0299 1.47133,86.27739 z"
       id="path162-7"
       inkscape:transform-center-x="-0.054655"
       inkscape:transform-center-y="-43.138697" />
    <path
       id="path163-8"
       style="display:inline;mix-blend-mode:normal;fill:#ffbb26;fill-opacity:1;stroke:#000000;stroke-width:1.7;stroke-dasharray:none;stroke-opacity:1"
       inkscape:transform-center-x="-9.55556"
       inkscape:transform-center-y="-42.384558"
       d="m 176.50816,78.8535 -12.4375,65.36329 4.49219,0.93359 14.79101,-65.10352 c -2.24519,-0.49426 -4.52848,-0.89372 -6.8457,-1.19336 z" />
    <path
       style="display:inline;mix-blend-mode:normal;fill:#ffbb26;fill-opacity:1;stroke:#000000;stroke-width:1.7;stroke-dasharray:none;stroke-opacity:1"
       d="m 168.42107,145.59837 35.84067,-78.4639 -6.99455,-3.07387 -33.05373,79.70825 z"
       id="path164-8"
       inkscape:transform-center-x="-17.920335"
       inkscape:transform-center-y="-39.854123" />
    <path
       id="path165-2"
       style="display:inline;mix-blend-mode:normal;fill:#ffbb26;fill-opacity:1;stroke:#000000;stroke-width:1.7;stroke-dasharray:none;stroke-opacity:1"
       inkscape:transform-center-x="-25.534085"
       inkscape:transform-center-y="-35.653441"
       d="m 202.75816,87.13671 -38.31445,56.22265 3.74609,2.64844 40.62305,-55.30078 c -1.94971,-1.27745 -3.96981,-2.46958 -6.05469,-3.57031 z" />
    <path
       style="display:inline;mix-blend-mode:normal;fill:#ffbb26;fill-opacity:1;stroke:#000000;stroke-width:1.7;stroke-dasharray:none;stroke-opacity:1"
       d="m 167.88182,146.36139 64.15545,-57.66468 -5.18872,-5.60799 -62.09584,59.91711 z"
       id="path166-9"
       inkscape:transform-center-x="-32.077725"
       inkscape:transform-center-y="-29.958553" />
    <path
       id="path167-1"
       style="display:inline;mix-blend-mode:normal;fill:#ffbb26;fill-opacity:1;stroke:#000000;stroke-width:1.7;stroke-dasharray:none;stroke-opacity:1"
       inkscape:transform-center-x="-37.27702"
       inkscape:transform-center-y="-23.008134"
       d="m 222.51934,106.5427 -57.39204,36.17995 2.38086,3.92187 58.61313,-34.11335 z"
       sodipodi:nodetypes="ccccc" />
    <path
       style="display:inline;mix-blend-mode:normal;fill:#ffbb26;fill-opacity:1;stroke:#000000;stroke-width:1.7;stroke-dasharray:none;stroke-opacity:1"
       d="m 167.08304,146.8461 84.16991,-28.08134 -2.55101,-7.29428 -83.15045,31.05064 z"
       id="path168-3"
       inkscape:transform-center-x="-40.91407"
       inkscape:transform-center-y="-15.093461"
       sodipodi:nodetypes="ccccc" />
    <path
       id="path169-5"
       style="display:inline;mix-blend-mode:normal;fill:#ffbb26;fill-opacity:1;stroke:#000000;stroke-width:1.7;stroke-dasharray:none;stroke-opacity:1"
       inkscape:transform-center-x="-42.83645"
       inkscape:transform-center-y="-6.546241"
       d="m 237.77574,131.39452 -71.76758,11.01563 0.61914,4.54687 72.28516,-8.49219 c -0.24149,-2.39738 -0.62261,-4.75582 -1.13672,-7.07031 z" />
    <path
       id="path170-9"
       style="display:inline;mix-blend-mode:normal;fill:#ffbb26;fill-opacity:1;stroke:#000000;stroke-width:1.7;stroke-dasharray:none;stroke-opacity:1"
       inkscape:transform-center-x="9.50509"
       inkscape:transform-center-y="-42.381075"
       d="m 156.20542,78.8203 c -2.3185,0.29258 -4.60376,0.68603 -6.8496,1.17383 l 14.71484,65.15625 4.49219,-0.93359 -12.35547,-65.39649 z" />
    <path
       style="display:inline;mix-blend-mode:normal;fill:#ffbb26;fill-opacity:1;stroke:#000000;stroke-width:1.7;stroke-dasharray:none;stroke-opacity:1"
       d="m 168.42107,143.76885 -32.94158,-79.72446 -7.01836,3.01912 35.75233,78.53486 z"
       id="path171-8"
       inkscape:transform-center-x="17.876165"
       inkscape:transform-center-y="-39.862229" />
    <path
       id="path172-4"
       style="display:inline;mix-blend-mode:normal;fill:#ffbb26;fill-opacity:1;stroke:#000000;stroke-width:1.7;stroke-dasharray:none;stroke-opacity:1"
       inkscape:transform-center-x="25.49807"
       inkscape:transform-center-y="-35.672796"
       d="m 129.92222,87.04882 c -2.08713,1.09806 -4.11106,2.28678 -6.0625,3.5625 l 40.58399,55.39648 3.74609,-2.64844 z" />
    <path
       style="display:inline;mix-blend-mode:normal;fill:#ffbb26;fill-opacity:1;stroke:#000000;stroke-width:1.7;stroke-dasharray:none;stroke-opacity:1"
       d="m 167.88182,143.00583 -39.58897,-38.29735 -1.80196,7.17399 38.26182,34.47892 z"
       id="path173-0"
       inkscape:transform-center-x="32.05137"
       inkscape:transform-center-y="-29.988347"
       sodipodi:nodetypes="ccccc" />
    <path
       d="m -498.25548,209.51435 c -39.94418,0 -72.81145,29.55248 -72.81145,66.4024 0,36.84997 32.8369,66.57673 72.81145,66.57673 39.97435,0 72.99458,-29.69655 72.99458,-66.57673 0,-36.88018 -33.05062,-66.4024 -72.99458,-66.4024 z"
       id="path101-7"
       style="display:inline;mix-blend-mode:exclusion;fill:#ffbb26;stroke:#000000;stroke-width:1.7" />
    <path
       id="path8"
       style="fill:#ffbb26;fill-opacity:1;stroke:#000000;stroke-width:1.7;stroke-dasharray:none;stroke-opacity:1"
       d="m 34.615865,141.86237 h 13.824679 c -0.942638,-28.1376 4.201443,-40.04475 8.70975,-47.771724 C 71.16604,70.068483 98.878235,63.543506 116.24914,62.63385 99.185879,54.05738 62.926429,56.473109 44.270762,89.429959 34.646386,105.28021 34.564945,123.88675 34.615865,141.86237 Z"
       sodipodi:nodetypes="ccscsc" />
    <path
       id="path10"
       style="stroke-width:1.7"
       d="m 80.286247,66.551819 c -20.498052,4.610867 -31.990409,24.915825 -35.734375,37.453121 -2.613943,8.75324 -4.292704,17.91971 -3.964384,37.85743 h 1.990235 c -0.302221,-12.393 -0.07074,-25.60742 3.909696,-37.79688 4.909616,-15.034931 15.036622,-29.585528 33.798828,-37.513671 z"
       sodipodi:nodetypes="csccsc" />
    <path
       d="m 34.615865,141.86237 h 13.824679 l 0,29.51531 H 34.60069 Z"
       stroke-width="1.7"
       id="path12"
       style="fill:#ffbb26;stroke:#000000"
       sodipodi:nodetypes="ccccc" />
    <path
       d="m -498.2092,44.095459 c -19.75592,0 -36.01168,14.5997 -36.01168,32.80453 0,18.20485 16.24074,32.890651 36.01168,32.890651 19.77084,0 36.10225,-14.670881 36.10225,-32.890651 0,-18.21978 -16.34644,-32.80453 -36.10225,-32.80453 z"
       id="path28-48-4"
       style="display:inline;mix-blend-mode:exclusion;fill:#ffbb26;stroke:#000000;stroke-width:1.7"
       sodipodi:nodetypes="sssss" />
    <path
       d="M 39.883951,246.40736 H 259.56761 V 233.99224 H 39.883951 Z"
       id="path30"
       style="fill:#ffbb26;stroke:#000000;stroke-width:1.7" />
    <path
       id="path34"
       style="stroke-width:1.7"
       d="m 44.647575,233.99127 c 0.388163,2.31921 0.833147,5.73857 4.076172,6.20899 -0.832765,-0.96407 -1.563563,-3.91899 -1.820312,-6.20899 z m 6.652344,0 c 0.388162,2.31921 0.833146,5.73857 4.076172,6.20899 -0.832766,-0.96407 -1.563488,-3.91899 -1.820313,-6.20899 z m 6.652344,0 c 0.388099,2.31921 0.835099,5.73857 4.078125,6.20899 -0.832766,-0.96407 -1.565441,-3.91899 -1.822266,-6.20899 z m 6.654297,0 c 0.388099,2.31921 0.833146,5.73857 4.076171,6.20899 -0.832766,-0.96407 -1.56544,-3.91899 -1.822265,-6.20899 z m 6.652343,0 c 0.3881,2.31921 0.833243,5.73857 4.076172,6.20899 -0.83267,-0.96407 -1.565441,-3.91899 -1.822265,-6.20899 z m 6.652344,0 c 0.388179,2.31921 0.833243,5.73857 4.076172,6.20899 -0.83267,-0.96407 -1.565441,-3.91899 -1.822266,-6.20899 z m 6.652344,0 c 0.388178,2.31921 0.833243,5.73857 4.076172,6.20899 -0.83267,-0.96407 -1.563488,-3.91899 -1.820313,-6.20899 z m 6.652344,0 c 0.388177,2.31921 0.833242,5.73857 4.076171,6.20899 -0.83267,-0.96407 -1.563488,-3.91899 -1.820312,-6.20899 z m 6.652343,0 c 0.388163,2.31921 0.833146,5.73857 4.076172,6.20899 -0.83267,-0.96407 -1.56355,-3.91899 -1.82031,-6.20899 z m 6.652342,0 c 0.38816,2.31921 0.83315,5.73857 4.07617,6.20899 -0.83267,-0.96407 -1.56354,-3.91899 -1.82031,-6.20899 z m 6.6543,0 c 0.38816,2.31921 0.83314,5.73857 4.07617,6.20899 -0.83267,-0.96407 -1.5655,-3.91899 -1.82226,-6.20899 z m 6.65234,0 c 0.38816,2.31921 0.83315,5.73857 4.07617,6.20899 -0.83276,-0.96407 -1.56544,-3.91899 -1.82226,-6.20899 z m 6.65235,0 c 0.38816,2.31921 0.83314,5.73857 4.07617,6.20899 -0.83277,-0.96407 -1.56544,-3.91899 -1.82227,-6.20899 z m 6.65234,0 c 0.3881,2.31921 0.83315,5.73857 4.07617,6.20899 -0.83277,-0.96407 -1.56544,-3.91899 -1.82226,-6.20899 z m 6.65234,0 c 0.3881,2.31921 0.83315,5.73857 4.07618,6.20899 -0.83276,-0.96407 -1.56349,-3.91899 -1.82032,-6.20899 z m 6.65235,0 c 0.3881,2.31921 0.83314,5.73857 4.07617,6.20899 -0.83277,-0.96407 -1.56349,-3.91899 -1.82031,-6.20899 z m 6.65234,0 c 0.3881,2.31921 0.83315,5.73857 4.07617,6.20899 -0.83276,-0.96407 -1.56349,-3.91899 -1.82031,-6.20899 z m 6.65235,0 c 0.38816,2.31921 0.83315,5.73857 4.07617,6.20899 -0.83267,-0.96407 -1.56349,-3.91899 -1.82032,-6.20899 z m 6.65429,0 c 0.38818,2.31921 0.83325,5.73857 4.07617,6.20899 -0.83267,-0.96407 -1.56544,-3.91899 -1.82226,-6.20899 z m 6.65235,0 c 0.38816,2.31921 0.83314,5.73857 4.07617,6.20899 -0.83267,-0.96407 -1.5655,-3.91899 -1.82227,-6.20899 z m 6.65234,0 c 0.38816,2.31921 0.83315,5.73857 4.07617,6.20899 -0.83267,-0.96407 -1.5655,-3.91899 -1.82226,-6.20899 z m 6.65234,0 c 0.38817,2.31921 0.83314,5.73857 4.07618,6.20899 -0.83277,-0.96407 -1.56544,-3.91899 -1.82227,-6.20899 z m 6.65235,0 c 0.38817,2.31921 0.83315,5.73857 4.07617,6.20899 -0.83277,-0.96407 -1.56349,-3.91899 -1.82031,-6.20899 z m 6.65234,0 c 0.3881,2.31921 0.83315,5.73857 4.07617,6.20899 -0.83276,-0.96407 -1.56348,-3.91899 -1.82031,-6.20899 z m 6.65234,0 c 0.38811,2.31921 0.83315,5.73857 4.07618,6.20899 -0.83277,-0.96407 -1.56349,-3.91899 -1.82032,-6.20899 z m 6.65235,0 c 0.38809,2.31921 0.8351,5.73857 4.07812,6.20899 -0.83276,-0.96407 -1.56543,-3.91899 -1.82226,-6.20899 z m 6.6543,0 c 0.3881,2.31921 0.83314,5.73857 4.07617,6.20899 -0.83277,-0.96407 -1.56545,-3.91899 -1.82227,-6.20899 z m 6.65234,0 c 0.3881,2.31921 0.83315,5.73857 4.07617,6.20899 -0.83276,-0.96407 -1.56544,-3.91899 -1.82226,-6.20899 z m 6.65234,0 c 0.38817,2.31921 0.83305,5.73857 4.07617,6.20899 -0.83276,-0.96407 -1.56543,-3.91899 -1.82226,-6.20899 z m 6.65235,0 c 0.38816,2.31921 0.83315,5.73857 4.07617,6.20899 -0.83267,-0.96407 -1.56349,-3.91899 -1.82031,-6.20899 z m 6.65234,0 c 0.38816,2.31921 0.83314,5.73857 4.07617,6.20899 -0.83267,-0.96407 -1.56348,-3.91899 -1.82031,-6.20899 z m 6.65234,0 c 0.38817,2.31921 0.83315,5.73857 4.07618,6.20899 -0.83276,-0.96407 -1.56351,-3.91899 -1.82032,-6.20899 z" />
    <path
       d="m 175.38042,202.19456 c -4.2949,7.16015 1.66439,13.55871 -1.57379,19.03509 -10.45177,-2.37014 -20.85295,-3.4249 -27.47427,6.24368 -3.24923,4.74459 0.69257,9.28431 6.34141,6.91581 5.05165,4.64537 11.00266,1.67186 18.2917,-0.86962 2.85948,-0.99705 7.63105,1.87221 11.40131,0.41568 4.29684,-1.65995 7.2076,-6.55236 9.93173,-14.40161 l 4.23343,1.7759 c 0.0454,-3.35625 -1.44763,-5.91528 -3.39841,-8.23693 l 5.05208,1.69887 c 0.0311,-3.33852 -1.67741,-5.70863 -3.26524,-7.62426 l 4.86368,1.79654 c -0.97359,-4.3696 -0.0328,-8.06502 -0.46459,-9.53036 -0.93459,-3.17126 -1.42201,-1.59577 -2.65431,-7.49521 -14.63949,-6.41396 -11.48358,-21.52627 -8.796,-27.92442 l -27.87392,19.222 c -5.63175,3.66706 2.1027,16.85215 15.38519,18.97884 z"
       fill="#ffbb26"
       stroke="#000000"
       stroke-width="1.7"
       id="path38"
       sodipodi:nodetypes="ccscssccccccccccc" />
    <path
       d="m 166.27198,111.83602 c -19.75592,0 -36.01168,14.5997 -36.01168,32.80453 0,18.20485 16.24074,32.89065 36.01168,32.89065 19.77084,0 36.10225,-14.67088 36.10225,-32.89065 0,-18.21978 -16.34644,-32.80453 -36.10225,-32.80453 z"
       id="path161-3"
       style="display:inline;mix-blend-mode:normal;fill:#ffbb26;fill-opacity:1;stroke:#000000;stroke-width:1.7"
       sodipodi:nodetypes="sssss" />
    <path
       d="m 38.096431,171.05847 c 9.865186,6.63648 13.339988,7.25321 25.813537,3.49824 16.375049,22.06009 20.30138,17.64424 28.483312,25.24312 l 0.743617,-41.17964 c 0,0 -22.584658,-2.04529 -33.280271,-5.24736 -3.474431,-1.04018 -6.232241,-2.8356 -9.813421,-3.49823 -8.373187,-1.54929 -17.861044,-0.0301 -17.861044,4.84797 0,1.66591 1.066163,3.21805 4.420923,3.62477 z"
       id="path14"
       sodipodi:nodetypes="ccccssccc"
       style="fill:#ffbb26;stroke:#000000;stroke-width:1.7" />
    <path
       d="m 249.56387,90.776517 c -3.35003,-3.42548 -6.1273,-7.202482 -9.48838,-9.804733 -17.23914,-13.347057 -37.90979,5.703333 -25.41489,24.283326 5.25458,7.81359 21.79638,13.14764 28.00097,17.79274 16.89159,12.64604 12.04575,26.98684 -4.91202,27.31653 -9.41574,0.18301 -18.29832,-7.77438 -27.38793,-9.10936 -17.01876,-2.49949 -21.85387,4.11892 -37.66679,4.30555 -31.32216,0.36966 -44.10598,-9.09862 -44.10598,-9.09862 l -33.957859,39.3142 c -10.374154,3.87234 -10.919021,18.14233 0,25.83358 -7.839157,4.69715 -7.227631,10.3098 -12.841207,17.79105 -11.346262,-2.62085 -20.859627,-3.01022 -27.465914,6.2553 -3.128175,4.82526 0.682581,9.2737 6.331428,6.9052 5.051645,4.64536 10.991845,1.7291 18.280885,-0.81238 2.900743,-1.01145 7.794555,1.90616 11.414406,0.40619 4.199502,-1.74017 6.098203,-6.21277 9.095854,-9.34233 1.413757,-1.47595 4.191227,-4.46807 4.191227,-4.46807 l 2.76443,3.49322 c 1.86126,-2.89674 1.9512,-5.79569 1.51597,-8.69243 l 3.47783,3.73693 c 1.83926,-2.88775 1.69758,-5.77575 1.24845,-8.12377 l 3.29948,3.73693 c 0,0 0.54504,-1.62693 1.87267,-3.8994 0.86042,-1.47271 2.53614,-3.43996 2.8536,-4.54931 0.54818,-1.91542 0.7134,-4.38684 0.7134,-4.38684 1.90433,1.65845 3.35102,2.52172 5.79638,2.19342 0.34874,-3.46933 0.60214,-4.52022 1.51598,-5.93035 11.8082,-0.0855 40.91742,-4.01208 59.39058,-22.50284 0.66552,-0.66614 9.40501,-2.79468 14.53553,3.33075 2.56062,6.52231 8.6011,22.0889 25.23654,25.42739 -4.2949,7.16015 1.63303,13.61447 -1.60515,19.09085 -11.82253,-2.64967 -21.46876,-2.44441 -27.46591,6.17407 -3.28456,4.7202 0.68258,9.35494 6.33142,6.98644 5.05165,4.64536 10.99185,1.64786 18.28089,-0.89362 2.8762,-1.0029 7.65013,1.86041 11.4144,0.40619 4.29684,-1.65995 7.26348,-6.52982 9.98761,-14.37907 l 4.19123,1.70599 c 0.0454,-3.35624 -1.43788,-5.88335 -3.38865,-8.205 l 5.08297,1.70599 c 0.0311,-3.33852 -1.86597,-5.95219 -3.29947,-7.63634 l 4.90462,1.78723 c -1.04393,-4.15552 -0.0944,-8.00931 -0.53505,-9.50481 -0.92456,-3.13733 -1.54725,-1.86283 -2.58607,-7.47387 -18.61039,-8.82308 -3.92139,-22.14879 -17.74584,-33.99798 14.11913,0.42994 26.66261,-2.42126 28.59104,-17.74036 0.84012,-22.51509 -33.54428,-28.54788 -40.54064,-38.43537 -8.76355,-12.384885 4.54245,-26.511167 16.67574,-16.978674 7.2212,6.879494 14.3468,18.330504 25.32571,12.510602 11.95581,-6.337753 -0.84244,-17.788789 16.23731,-19.501435 -1.86703,-3.573859 -10.43916,-7.184842 -14.08136,0.289362 -4.37223,-5.944284 -12.72894,-3.056928 -14.29309,2.604181 22.84087,-0.521346 10.24192,20.327654 0.22365,10.083751 z"
       fill="#ffbb26"
       stroke="#000000"
       stroke-width="1.7"
       id="path42"
       sodipodi:nodetypes="sssssssccccscsssccccccsccccscccscsscccccccccsssssccs"
       style="stroke-linejoin:miter" />
    <path
       id="path1"
       style="fill:#000000;fill-opacity:1;stroke-width:1.7"
       d="m 74.923221,223.13771 c -8.82265,-1.02707 -17.82382,2.60372 -14.62485,10.39843 l 1.87268,-0.73114 c -2.18341,-7.35945 7.52529,-8.73325 12.75217,-9.66729 z M 209.9342,175.4512 c 0.95176,6.89405 3.21378,12.20673 7.22318,16.16629 4.00939,3.95957 9.61546,6.50726 16.94326,8.12377 -2.53614,-3.72032 -10.99833,-6.50307 -14.80306,-9.82976 -5.12989,-4.48533 -6.1004,-12.10899 -9.36338,-14.4603 z m 21.82677,44.67084 c 1.10354,-2.19339 3.18841,-4.82594 3.55949,-7.69678 0.37109,-2.87085 0.15039,-5.79715 -1.25918,-7.97357 -1.73253,1.09925 -3.09179,15.23543 -2.30031,15.67035 z m -25.2132,-48.24372 c 0.46806,-3.31442 -1.26409,-4.59917 -3.31931,-5.36651 -2.86979,-1.07147 -5.65998,0.0823 -6.48144,2.49078 3.21379,-1.60705 7.64928,-0.20693 9.80075,2.87573 z m -69.36728,11.37333 c -0.50888,3.36113 6.42856,10.25617 10.46305,10.42398 l 4.56794,-1.07676 c -7.324,0.01 -13.725,-5.99737 -15.03099,-9.34722 z m -36.75556,13.23769 c 0.43285,2.47315 4.01374,2.72238 6.24334,2.26873 2.92235,-0.59486 4.3731,-3.34826 3.35429,-5.66579 -0.79461,3.11385 -5.79427,4.55401 -9.59763,3.39706 z m 0.11728,6.57994 c 0.43867,2.50637 4.11052,2.72868 6.33245,2.25008 2.77189,-0.597 4.30201,-3.28864 3.26518,-5.64715 -0.79461,3.11386 -5.79426,4.55402 -9.59763,3.39707 z m -12.424922,19.98368 c 2.162088,-1.39362 5.414937,-2.7189 7.316206,-5.03322 1.901269,-2.31433 3.321079,-4.94692 3.299477,-7.47387 -2.104046,0.15962 -11.061073,11.76925 -10.615683,12.50709 z m 130.835402,1.87733 c -8.82265,-1.02707 -17.82382,2.60372 -14.62485,10.39843 l 1.87268,-0.73114 c -2.18341,-7.35945 7.52529,-8.73325 12.75217,-9.66729 z m -52.32858,0.14501 c -8.82265,-1.02707 -17.82382,2.60372 -14.62485,10.39843 l 1.87268,-0.73114 c -2.18341,-7.35945 7.52529,-8.73325 12.75217,-9.66729 z m -6.96289,-55.34233 c 0.86942,4.00406 15.82425,12.34527 21.35524,9.73951 l 3.0176,-2.35774 c -7.24365,3.1125 -20.8105,-3.45981 -24.37284,-7.38177 z m -7.70844,1.11261 c -0.23687,4.11636 17.25232,14.09377 22.00278,13.17295 l 3.79087,-2.29117 c -5.03679,2.8139 -23.52869,-6.51841 -25.79365,-10.88178 z m -4.07389,4.86022 c 0.77433,5.14571 15.09686,13.29443 18.41813,12.10043 l 4.59405,-2.14807 c -7.56604,1.6894 -20.20598,-4.96844 -23.01218,-9.95236 z m -4.43561,4.70882 c -0.362,3.93193 8.78339,10.1846 13.11119,10.95866 l 5.10294,-1.70505 c -6.91071,1.1122 -16.79111,-5.68271 -18.21413,-9.25361 z m -11.11255,6.25239 c -0.16612,1.50942 1.65445,6.62474 6.02142,8.57181 l 4.6022,-0.67093 c -5.97067,-0.89105 -9.33683,-5.55289 -10.62362,-7.90088 z m -6.25409,2.89846 c 0.0246,1.84116 0.54212,4.72588 2.92705,6.35456 l 4.47086,-0.19955 c -4.66672,-1.54429 -6.76997,-4.87426 -7.39791,-6.15501 z m 49.87028,-0.0518 c -1.63229,-0.61211 -3.96734,-1.81507 -5.05585,-3.85551 l 1.96759,-1.033 c 0.80558,2.56758 2.4504,4.27045 3.08834,4.88854 z m -3.2,2.69096 c -4.29971,-1.57492 -5.16722,-4.01487 -5.46325,-4.83183 l 2.12911,-1.01731 c 0.0582,0.64926 0.95446,3.54341 3.33424,5.84916 z m -9.35029,-3.20646 2.49082,-1.0163 c -0.14858,1.84697 1.99138,5.0118 3.63413,6.86359 -2.44977,-1.47665 -5.06981,-3.08627 -6.12495,-5.84729 z m 17.83399,35.34242 c 1.4847,-1.99806 4.01673,-4.28212 4.90137,-7.05822 0.88465,-2.77606 1.19566,-5.69553 0.19833,-8.0536 -1.90752,0.82449 -5.80194,14.56416 -5.09982,15.11182 z m 10.70172,-22.10596 c -0.45615,2.60627 -4.40833,2.74278 -6.59091,2.18962 -2.34086,-0.59362 -4.09312,-3.11541 -3.00672,-5.58668 0.79461,3.11386 5.79426,4.55402 9.59763,3.39706 z m 0.73845,-6.95158 c -0.44591,2.54778 -4.23268,2.73541 -6.44133,2.2258 -2.587,-0.59637 -4.21519,-3.21416 -3.1563,-5.62286 0.79461,3.11386 5.79427,4.55402 9.59763,3.39706 z"
       sodipodi:nodetypes="cccccscsccscccsccccccccccccccccccccccccccccccccccccccccccccccsccssccsscccscccccccccccccccccc" />
    <path
       d="m 81.650571,160.08477 -2.52227,6.47918 c -2.016013,7.32769 -0.908644,13.78251 1.849676,18.99498 1.681541,-0.72973 3.363055,-2.30853 5.044568,-3.82963 0.830113,2.53071 0.458459,6.12922 3.363055,9.03791 3.294426,-1.68503 5.339659,-3.9828 6.557919,-5.66784 0.561303,3.46153 2.008535,6.0875 4.919521,7.96564 2.91099,-1.87814 4.35822,-4.50413 4.91953,-7.96566 1.21825,1.68503 3.26349,4.59558 6.55791,6.28062 2.9046,-2.9087 2.86924,-4.669 3.78345,-7.55997 1.47052,3.00983 3.34759,4.5417 6.64202,6.22673 2.90459,-2.9087 2.53294,-6.5072 3.36305,-9.03791 1.39279,2.04716 3.15628,3.47655 5.04457,3.82963 1.44195,-1.87886 2.49185,-4.88877 2.47904,-7.60975 2.70798,1.93489 5.22911,2.5126 6.93879,2.6411 0.68178,-3.54368 0.5361,-6.28299 -0.02,-9.43774 2.55275,0.80034 3.04437,1.52958 6.18444,1.53504 2.10002,-7.02304 -0.39725,-14.62309 -7.70121,-20.00786 z"
       fill="#ffbb26"
       stroke="#000000"
       stroke-width="1.7"
       id="path46"
       sodipodi:nodetypes="ccccccccccccccccccc" />
    <path
       d="m 140.5714,170.43206 -0.40304,3.65817 c -0.0572,-3.42696 -1.78233,-6.48133 -2.55016,-8.42972 1.23363,1.83735 3.60993,4.20932 6.3848,5.12773 z m -2.88545,7.96739 -4.03334,-1.17075 -1.3359,3.33037 c 0.82075,-3.25341 0.0148,-9.32168 -0.11895,-11.20657 0.66654,2.04802 1.99531,7.63884 5.48819,9.04695 z m -9.04294,4.21185 -2.51401,-1.60248 -1.49239,3.08447 c 0.54309,-2.51223 -0.2549,-10.23386 -0.38859,-12.11875 0.66655,2.04802 2.58108,8.93716 4.39499,10.63676 z m -9.44175,4.08005 -3.07733,-2.87135 -1.98002,3.58106 c 1.24628,-3.2523 1.07965,-9.84686 0.94596,-11.73176 0.66655,2.04802 1.84061,8.67296 4.11139,11.02205 z m -10.32805,0.94187 -3.09064,-2.53387 -2.02877,3.67942 c 1.24399,-2.6173 1.13413,-10.09229 1.00044,-11.97718 0.66655,2.04802 1.42285,7.65857 4.11897,10.83163 z m -16.088149,-0.23789 3.158458,-2.29596 1.824679,3.23975 c -1.369652,-3.33777 -1.146635,-7.50731 -1.012944,-9.39221 -0.666544,2.04802 -1.496618,5.92938 -3.970193,8.44842 z m -9.578154,-4.30195 2.815638,-1.36408 1.502996,3.08247 c -0.776553,-3.64011 -0.669288,-7.71786 -0.535597,-9.60275 -0.666544,2.04802 -1.522851,5.78342 -3.783037,7.88436 z"
       id="path48"
       style="stroke-width:1.7"
       sodipodi:nodetypes="ccccccccccccccccccccccccccccccccccc" />
    <path
       d="m 76.759355,138.46396 c 0,0 -6.503415,10.40315 -7.802774,15.77144 -0.840814,3.47377 -0.731521,8.88532 -0.731521,8.88532 2.113263,-0.12088 4.226498,-0.54638 6.339761,-2.44345 0.218586,2.96179 -0.105012,5.92354 1.950694,8.88533 2.113263,-0.74258 4.714178,-1.71969 6.827441,-5.3312 0.163226,3.68331 0.911897,5.85582 3.169866,9.3296 2.768593,-0.80518 4.941211,-3.80692 7.071282,-5.77547 0.04537,2.68625 0.780802,5.68685 3.413706,9.55173 3.45708,-1.88765 5.46639,-6.25441 6.26854,-8.73259 0.87739,2.34133 2.81148,6.84494 6.26856,8.73259 2.6329,-3.86488 3.36833,-6.86548 3.4137,-9.55173 2.13008,1.96855 4.30269,4.97029 7.07129,5.77547 2.25797,-3.47378 3.00664,-5.64629 3.16986,-9.3296 2.11327,3.61151 4.71418,4.58862 6.82744,5.3312 2.05571,-2.96179 1.73211,-5.92354 1.9507,-8.88533 2.11326,1.89707 5.00733,3.54197 7.12059,3.66285 0.42045,-0.38303 2.07288,-5.57449 1.27627,-8.68209 2.48518,1.96411 4.60865,3.27309 8.27713,3.17836 0.60066,-2.86955 0.0862,-5.7392 -0.52917,-8.33946 3.98754,1.37127 8.30715,1.74444 11.39029,0.26709 -7.19444,-12.1751 -18.5679,-14.1639 -31.05805,-16.26314 z"
       fill="#ffbb26"
       stroke="#000000"
       stroke-width="1.7"
       id="path50"
       sodipodi:nodetypes="csccccccccccccccccccccc" />
    <path
       d="m 148.11272,150.49693 -0.1905,3.50077 c -0.33153,-4.12032 -2.63893,-7.51451 -3.71203,-9.13068 1.34012,1.61111 4.39986,5.36979 9.56306,5.9684 z m -3.92756,6.66821 -3.8204,-1.50711 -0.75333,3.75491 c 0.31558,-3.94886 -1.66835,-7.15009 -2.63994,-8.8187 1.53098,1.61797 4.32027,5.15256 7.21367,6.5709 z m -8.41273,5.1878 -3.80453,-1.67567 -1.05071,3.89446 c 0.38305,-3.50164 -0.47511,-7.34972 -1.11746,-9.14563 1.20297,1.8336 2.90663,5.15696 5.9727,6.92684 z m -9.45105,4.36153 -3.13162,-2.48307 -1.41024,3.87177 c 0.95926,-3.44892 0.14761,-8.22254 -0.24878,-10.07653 0.94773,1.95386 2.0045,6.09081 4.79064,8.68783 z m -20.72915,5.03157 -2.32588,-3.14137 -2.37451,3.32999 c 1.52278,-2.74686 2.25754,-8.58541 2.34888,-10.47241 0.41899,2.10173 0.93148,7.56138 2.35151,10.28379 z m 10.68333,-1.78716 -3.32695,-2.17335 -1.48902,3.91482 c 0.92847,-3.16591 0.15781,-8.81427 -0.23857,-10.66826 0.94773,1.95387 2.45266,6.57607 5.05454,8.92679 z m -26.100622,0.0926 3.409166,-2.26596 1.474274,3.86269 c -0.926087,-3.24453 -0.153472,-8.05753 0.153934,-10.11521 -0.947738,1.95387 -3.070115,6.86423 -5.037374,8.51848 z m -9.78068,-3.48839 2.948698,-2.3317 1.435062,3.95127 c -0.998795,-3.30965 0.361052,-9.4226 0.757446,-11.27659 -0.947739,1.95386 -3.264453,8.12627 -5.141206,9.65702 z m -8.514696,-5.10155 2.685259,-0.78428 1.017867,3.29831 c -0.24034,-2.9858 1.217616,-7.62116 1.8522,-9.41934 -1.195031,1.8379 -3.773745,6.22525 -5.555326,6.90531 z"
       id="path52"
       style="stroke-width:1.7"
       sodipodi:nodetypes="ccccccccccccccccccccccccccccccccccccccccccccc" />
    <path
       d="m 125.22312,85.105001 c -0.49966,-1.262291 -0.24512,-4.019588 -0.24512,-4.019588 -7.94365,1.832908 -8.45862,3.466636 -11.5437,7.286382 0.51972,-3.101147 0.17635,-4.46464 -2.4513,-6.476007 -1.10409,1.375243 -2.35879,4.458401 -3.67695,5.659237 -0.44916,-2.804376 -1.05518,-5.210181 -3.59637,-7.00799 -2.21722,1.944218 -3.4885,4.120842 -3.59636,7.00799 -1.318169,-1.200836 -2.572869,-4.283994 -3.676956,-5.659237 -2.627653,2.011367 -2.971027,3.37486 -2.451301,6.476007 -3.884256,-4.817491 -5.676509,-6.140822 -11.543702,-7.286382 0,0 0.07077,2.708893 -0.245125,4.019588 -0.731749,3.035403 -4.315587,6.963823 -1.20305,11.752608 -8.93006,5.660951 -6.987157,13.246761 -11.920264,21.437851 2.221158,-0.21082 2.703474,0.45348 6.143148,-0.0341 -4.74026,3.67514 -5.07182,4.42045 -6.474194,9.86925 1.721721,-0.62495 3.181281,-0.12453 6.531637,-0.97811 -1.138473,2.43051 -3.590259,4.2064 -4.95642,5.35795 -3.376325,2.84589 -4.76289,5.69989 -5.598681,8.98948 2.212597,0.026 4.425223,-0.68406 6.63782,-1.25108 -0.75863,2.62482 -1.133365,4.55513 -0.228859,8.34068 3.319766,-1.21558 4.964496,-2.49747 7.095594,-3.75331 -0.272519,2.43268 -0.420164,5.28242 0.457775,7.71511 2.212597,-0.59079 4.425194,-1.91201 6.637791,-4.17034 -0.05165,3.17479 0.903907,5.43203 2.060015,7.50659 2.032392,-1.1602 4.080621,-2.30886 5.722241,-3.75328 0.661322,2.25513 0.818099,4.20382 3.204452,7.50659 3.645362,-1.48084 4.388809,-3.62257 5.722239,-5.62994 0.50637,1.85344 1.40923,3.88748 4.07469,6.72435 3.48619,-2.29613 3.31009,-4.59226 4.29162,-6.88838 0.79338,1.64755 2.48106,4.5596 5.10908,5.77136 1.98517,-2.0479 2.29416,-4.8405 2.86105,-6.51605 1.78972,2.03097 3.86986,3.79738 6.74395,4.8405 1.49588,-2.72969 1.54471,-5.01997 1.43059,-7.26075 2.52048,2.64606 5.04095,3.39204 7.56142,4.0958 0.62882,-2.48228 0.45515,-4.96459 0,-7.44688 2.6567,1.90182 5.31343,2.81223 7.97014,2.23405 0.13497,-2.73827 -0.74468,-4.78886 -1.63492,-7.07454 2.6734,0.46476 5.22475,0.7072 7.35707,0.18613 0,0 -1.45468,-3.2571 -3.26982,-4.84046 -2.33747,-2.039 -5.49927,-3.53149 -7.83009,-5.57683 -1.34838,-1.18324 -4.38299,-4.13811 -4.38299,-4.13811 v 0 c 2.24936,0.0234 3.19915,-0.1123 5.81713,0.24046 -1.40238,-5.44879 -1.81227,-7.38077 -6.55253,-11.05591 3.57939,0.55333 4.03077,0.0676 6.25193,0.27834 -4.93311,-8.1911 -4.03143,-16.48834 -11.39963,-20.726421 2.30597,-5.57046 0.79713,-6.700977 -1.20305,-11.752608 z"
       fill="#ffbb26"
       stroke="#000000"
       stroke-width="1.7"
       id="path54"
       sodipodi:nodetypes="ccccccccccccccccccccccccccccccccccccccssccccccc" />
    <path
       d="m 122.18594,85.521093 c -4.06791,2.900542 -6.45378,3.374735 -6.59896,9.09862 4.0471,-1.782092 5.56589,-1.43128 6.95566,2.76208 3.29557,-5.840538 -0.79084,-6.164451 -0.3567,-11.8607 z M 83.394792,101.52491 c -3.404757,2.0793 -4.039344,7.1089 1.426801,9.17986 -4.166379,3.56224 -3.443902,11.54989 0.3567,15.43516 -1.568168,2.09934 -4.546158,6.74041 -5.834958,9.38499 2.587959,-2.1048 5.286039,-5.86739 7.261759,-8.16643 0.877454,0.63296 1.873361,1.1215 2.942777,1.54352 -1.100349,2.08603 -3.297337,7.59883 -4.102053,10.5609 2.339554,-2.70801 4.409129,-7.46859 5.974729,-9.911 0.76973,0.20355 1.588999,0.29625 2.407726,0.40619 -0.609701,1.74956 -0.389089,3.59039 0.624225,5.11797 -1.106712,1.97724 -3.420869,7.71743 -4.280402,10.72338 2.211027,-2.49589 4.156499,-6.71455 5.707203,-9.2611 0.893034,0.71588 1.981541,1.26045 3.299477,1.62475 -0.497783,2.54439 -1.064251,7.86927 -1.070101,10.72338 1.45528,-2.92126 2.230005,-7.49833 3.031955,-10.31719 0.89239,0.17821 1.77767,0.16762 2.67525,0.0814 0.55913,2.87727 0.94149,7.37064 2.1402,10.31719 0.21202,-2.78535 0.10558,-7.92628 -0.17835,-10.5609 1.00495,-0.20979 1.88292,-0.5657 2.67525,-0.97485 1.26189,2.6517 2.68356,7.30039 4.6371,10.07347 -0.50352,-3.11087 -2.08564,-9.20981 -2.94277,-11.2108 1.61598,-1.22989 2.05602,-3.17415 1.96185,-5.11798 2.65456,2.16553 6.99925,6.01799 9.89843,7.71758 -1.72067,-2.41976 -6.4621,-7.16947 -8.64998,-9.17985 2.24963,-0.47958 4.34406,-1.27584 5.97473,-2.51837 2.52172,2.0951 7.96848,6.99533 11.1039,8.83343 -1.82351,-2.5644 -7.82423,-8.2838 -9.76628,-10.13323 3.55325,-3.85133 4.33879,-11.63656 0.17835,-15.19145 5.46618,-2.071 4.83154,-7.1006 1.4268,-9.17986 0.62694,1.78669 1.09045,3.20789 0.53505,5.28045 -0.96715,2.71978 -3.98384,2.76991 -6.4206,3.08703 1.85788,1.09675 3.66286,2.29977 4.72628,4.22436 2.57993,9.12476 -5.95679,15.39609 -13.91131,14.29783 -3.21418,-0.44377 -3.30339,-1.17616 -3.29948,-3.81817 0.60014,-0.0621 1.34773,-0.21758 2.05103,-0.56866 0.63844,-0.31884 0.89503,-0.6577 1.15927,-0.97485 0.26425,-0.31728 0.4797,-0.54527 0.53506,-0.56867 0.83716,-0.36056 2.1402,-0.24358 2.1402,-0.24358 l 1.0701,0.24358 0.089,-1.05609 c 0.0716,-0.91625 0.29249,-1.50246 -0.44588,-2.99984 -0.59877,-1.21425 -1.51086,-1.94596 -2.1402,-2.35589 -0.31466,-0.20485 -0.49752,-0.29882 -0.62422,-0.40619 -0.1267,-0.10736 -0.15552,-0.15467 -0.17835,-0.24358 -0.82138,-3.03988 -1.07561,-5.67294 -0.26739,-8.21096 0.48366,-1.51908 2.13755,-2.80344 4.28041,-3.08703 2.30828,-0.30548 5.12161,0.33964 6.4206,0.56866 -3.6779,-4.19171 -11.17796,-2.6323 -12.66286,2.03095 -0.92442,2.90313 -0.57928,5.97116 0.26739,9.10457 0.21974,0.81357 0.75086,1.23028 1.60515,1.78723 0.54817,0.35705 1.08856,0.67673 1.51597,1.54351 0.36698,0.74404 0.22373,0.7195 0.17835,1.37509 -0.64166,-0.0481 -1.03494,-0.51891 -2.05102,-0.0811 -0.67477,0.29061 -1.04605,0.78729 -1.33763,1.13733 -0.29149,0.35004 -0.55174,0.62144 -0.44587,0.56866 -0.27766,0.13856 -0.86753,0.27634 -1.33763,0.32495 -0.25568,0.0264 -1.52694,0.0265 -1.7835,0 -0.4701,-0.0486 -1.06003,-0.18639 -1.33763,-0.32495 0.10587,0.0528 -0.15438,-0.21862 -0.44587,-0.56866 -0.291583,-0.35004 -0.662865,-0.84672 -1.337627,-1.13733 -1.016082,-0.43767 -1.409365,0.033 -2.051026,0.0811 -0.04537,-0.65559 -0.188623,-0.63105 0.17835,-1.37509 0.427412,-0.86678 0.967799,-1.18646 1.515976,-1.54351 0.854,-0.55677 1.385167,-0.97332 1.605147,-1.78723 0.84681,-3.13341 1.19195,-6.20144 0.26739,-9.10457 -1.484889,-4.66323 -8.984925,-6.22268 -12.662861,-2.03095 1.298988,-0.22902 4.112325,-0.87414 6.420604,-0.56866 2.142855,0.28359 3.796745,1.56795 4.280402,3.08703 0.808083,2.53802 0.553855,5.17108 -0.267383,8.21096 -0.02283,0.0892 -0.05165,0.13648 -0.17835,0.24358 -0.1267,0.10737 -0.309558,0.20121 -0.624225,0.40619 -0.629333,0.40993 -1.54143,1.14164 -2.140201,2.35589 -0.73837,1.49738 -0.517387,2.08359 -0.445875,2.99984 l 0.08903,1.05609 1.070101,-0.24358 c 0,0 1.30304,-0.11672 2.140201,0.24358 0.05536,0.0234 0.270806,0.25139 0.53505,0.56867 0.264243,0.31715 0.520839,0.65601 1.159276,0.97485 0.703301,0.35121 1.450891,0.50651 2.051031,0.56866 0.19347,2.79869 -0.29829,3.32563 -3.299482,3.81817 -7.614798,1.24977 -16.533598,-5.02348 -13.911307,-14.29783 0.989073,-1.97554 2.927981,-3.08471 4.726277,-4.22436 -2.534705,-0.27567 -5.300655,-0.43665 -6.420603,-3.08703 -0.555397,-2.07256 -0.09189,-3.49376 0.53505,-5.28045 z m 7.223179,5.36169 c 0.368001,2.07233 2.768878,4.81816 6.866479,2.59961 -1.699766,-4.13455 -4.547586,-3.63682 -6.866479,-2.59961 z m 17.567489,2.59961 c 4.0976,2.21855 6.49847,-0.52728 6.86647,-2.59961 -2.32053,-1.0377 -5.16661,-1.53523 -6.86647,2.59961 z m -5.35051,19.25332 c 2.48914,1.40066 4.53271,1.5051 7.04483,1.46215 1.32893,2.91665 -1.64789,6.01159 -7.04483,6.01159 -5.152911,0 -8.528135,-2.82239 -7.044826,-6.01159 2.965507,0.18329 5.372916,-0.52142 7.044826,-1.46215 z m -24.879836,3.89941 c -3.35164,2.3605 -5.73174,6.57999 -9.610381,7.52448 l 3.011499,0.0854 0.168017,2.95099 c 1.642743,-6.34441 5.547769,-6.7042 6.430865,-10.56087 z m 6.153079,1.29981 c -2.938325,2.7802 -5.817181,10.30513 -9.531558,12.12783 l 3.646332,-1.23036 0.622325,3.51085 c -0.16682,-6.25891 4.649062,-9.86008 5.262901,-14.40832 z m 48.332877,1.13732 c 0.90422,3.70824 6.74163,5.02003 8.29651,10.72338 l -0.30248,-3.30904 4.21364,-0.37224 c -4.05148,0.003 -6.38276,-2.62986 -12.20767,-7.0421 z m -7.21023,0.6062 c 0.14382,3.79639 8.15711,9.17541 8.4271,15.17927 l 0.44194,-3.53064 3.83689,1.11179 c -4.87135,-2.09683 -9.9885,-10.55223 -12.70593,-12.76042 z m -36.93142,4.51178 c -2.367776,3.20032 -2.857968,7.73472 -6.331312,9.91422 l 3.350425,-1.72728 1.181689,3.17918 c -1.05833,-5.80299 2.055879,-6.7896 1.799198,-11.36612 z m 33.26229,0.24358 c -0.15637,3.79597 5.03875,6.97739 4.03497,13.56669 l 0.94178,-3.32234 3.65903,1.77165 c -3.85025,-2.50486 -6.09981,-9.63541 -8.63578,-12.016 z m -6.24225,1.13733 c -1.00766,4.48962 3.37232,8.35569 1.32066,14.47904 l 1.7238,-2.95177 3.10671,1.84722 c -3.55978,-2.93621 -4.33739,-9.88671 -6.15117,-13.37449 z m -20.866962,2.5996 c -1.813778,3.48779 -0.791842,6.76499 -4.633302,9.30388 l 3.281593,-1.34414 1.807059,3.29915 c -2.127265,-5.86993 0.546367,-6.75026 -0.45535,-11.25889 z m 14.089662,0.56867 c -1.37752,4.40706 2.24118,5.88782 -0.10496,12.18565 l 1.95659,-3.08196 2.51794,2.51329 c -2.66901,-3.09754 -2.85146,-8.01388 -4.36957,-11.61698 z m -6.15308,2.5996 c -1.51812,3.60311 -0.52453,5.98142 -2.893335,9.00175 l 2.531735,-2.33363 2.15816,2.91025 c -2.52049,-4.93383 -0.41502,-5.16821 -1.79656,-9.57837 z M 84.910933,85.521091 c 4.06791,2.900542 6.45378,3.374735 6.59896,9.09862 -4.0471,-1.782092 -5.56589,-1.43128 -6.95566,2.762077 -3.29557,-5.840535 0.79084,-6.164448 0.3567,-11.860697 z"
       id="path56"
       sodipodi:nodetypes="cccccssccccccccccccsccccccccccccsccssscccccccscsccsssscccccccscccccscscssccsscccccscsccscccccccscssscccccccccccccccccccccccccccccccccccccccccccccccccccccc"
       style="stroke-width:1.7" />
    <path
       style="opacity:1;fill:#000000;fill-opacity:1;stroke:none;stroke-width:3.77953;stroke-opacity:1;-inkscape-stroke:none"
       d="m 219.07611,152.93742 c 7.72839,0 9.58248,4.30199 19.25195,4.05034 l -6.90255,0.9567 c 3.35576,3.01422 4.92908,5.8114 4.898,8.35278 -3.13814,-9.16417 -11.03238,-10.24138 -17.2474,-13.35982 z"
       id="path4"
       sodipodi:nodetypes="ccccc" />
    <path
       style="fill:#ffbb26;fill-opacity:1;stroke:#000000;stroke-width:1.7;stroke-dasharray:none;stroke-opacity:1"
       d="m -495.86984,76.943049 1.58064,-86.247543 -7.64012,-0.02985 1.47133,86.277393 z"
       id="path7"
       inkscape:transform-center-x="-0.054655"
       inkscape:transform-center-y="-43.138697" />
    <text
       xml:space="preserve"
       style="font-size:32px;font-family:'Century Gothic';-inkscape-font-specification:'Century Gothic';text-align:start;writing-mode:lr-tb;direction:ltr;text-anchor:start;fill:#ff2698;fill-opacity:1;stroke:none;stroke-width:1.7;stroke-dasharray:none;stroke-opacity:1"
       x="-1031.0665"
       y="58.606701"
       id="text69"><tspan
         sodipodi:role="line"
         id="tspan69"
         x="-1031.0665"
         y="58.606701"
         style="font-size:32px;fill:#ff2698;fill-opacity:1;stroke:none">each 11.75 degrees rotated</tspan></text>
    <path
       style="fill:#ffbb26;fill-opacity:1;stroke:#000000;stroke-width:1.7;stroke-dasharray:none;stroke-opacity:1"
       d="m -495.91791,77.410219 19.11112,-84.118383 -7.47395,-1.585072 -16.12918,84.769115 z"
       id="path148"
       inkscape:transform-center-x="-9.55556"
       inkscape:transform-center-y="-42.384558" />
    <path
       style="fill:#ffbb26;fill-opacity:1;stroke:#000000;stroke-width:1.7;stroke-dasharray:none;stroke-opacity:1"
       d="m -496.06011,77.857809 35.84067,-78.46389896 -6.99455,-3.07386604 -33.05373,79.708245 z"
       id="path149"
       inkscape:transform-center-x="-17.920335"
       inkscape:transform-center-y="-39.854123" />
    <path
       style="fill:#ffbb26;fill-opacity:1;stroke:#000000;stroke-width:1.7;stroke-dasharray:none;stroke-opacity:1"
       d="m -496.29048,78.267059 51.06817,-69.521064 -6.22201,-4.433837 -48.59303,71.306881 z"
       id="path150"
       inkscape:transform-center-x="-25.534085"
       inkscape:transform-center-y="-35.653441" />
    <path
       style="fill:#ffbb26;fill-opacity:1;stroke:#000000;stroke-width:1.7;stroke-dasharray:none;stroke-opacity:1"
       d="m -496.59936,78.620829 64.15545,-57.664676 -5.18872,-5.607989 -62.09584,59.917105 z"
       id="path151"
       inkscape:transform-center-x="-32.077725"
       inkscape:transform-center-y="-29.958553" />
    <path
       style="fill:#ffbb26;fill-opacity:1;stroke:#000000;stroke-width:1.7;stroke-dasharray:none;stroke-opacity:1"
       d="m -496.97381,78.904279 74.55404,-43.39161 -3.93797,-6.547116 -72.99628,46.016266 z"
       id="path152"
       inkscape:transform-center-x="-37.27702"
       inkscape:transform-center-y="-23.008134" />
    <path
       style="fill:#ffbb26;fill-opacity:1;stroke:#000000;stroke-width:1.7;stroke-dasharray:none;stroke-opacity:1"
       d="m -497.39814,79.105539 81.82814,-27.30005 -2.52218,-7.21185 -80.83751,30.18692 z"
       id="path153"
       inkscape:transform-center-x="-40.91407"
       inkscape:transform-center-y="-15.093461" />
    <path
       style="fill:#ffbb26;fill-opacity:1;stroke:#000000;stroke-width:1.7;stroke-dasharray:none;stroke-opacity:1"
       d="m -497.85456,79.216169 85.6729,-10.06436 -1.00069,-7.57436 -85.29092,13.09248 z"
       id="path154"
       inkscape:transform-center-x="-42.83645"
       inkscape:transform-center-y="-6.546241" />
    <path
       style="fill:#ffbb26;fill-opacity:1;stroke:#000000;stroke-width:1.7;stroke-dasharray:none;stroke-opacity:1"
       d="m -495.91791,76.475879 -16.01608,-84.76215 -7.48611,1.526623 19.01018,84.169867 z"
       id="path155"
       inkscape:transform-center-x="9.50509"
       inkscape:transform-center-y="-42.381075" />
    <path
       style="fill:#ffbb26;fill-opacity:1;stroke:#000000;stroke-width:1.7;stroke-dasharray:none;stroke-opacity:1"
       d="m -496.06011,76.028289 -32.94158,-79.724458 -7.01836,3.01911804 35.75233,78.53485996 z"
       id="path156"
       inkscape:transform-center-x="17.876165"
       inkscape:transform-center-y="-39.862229" />
    <path
       style="fill:#ffbb26;fill-opacity:1;stroke:#000000;stroke-width:1.7;stroke-dasharray:none;stroke-opacity:1"
       d="m -496.29048,75.619039 -48.48653,-71.345593 -6.25648,4.385085 50.99614,69.608528 z"
       id="path157"
       inkscape:transform-center-x="25.49807"
       inkscape:transform-center-y="-35.672796" />
    <path
       style="fill:#ffbb26;fill-opacity:1;stroke:#000000;stroke-width:1.7;stroke-dasharray:none;stroke-opacity:1"
       d="m -496.59936,75.265269 -61.99946,-59.976694 -5.23239,5.567279 64.10274,57.764975 z"
       id="path158"
       inkscape:transform-center-x="32.05137"
       inkscape:transform-center-y="-29.988347" />
    <path
       style="fill:#ffbb26;fill-opacity:1;stroke:#000000;stroke-width:1.7;stroke-dasharray:none;stroke-opacity:1"
       d="m -496.97381,74.981819 -72.91405,-46.094234 -3.98902,6.516153 74.52286,43.500541 z"
       id="path159"
       inkscape:transform-center-x="37.26143"
       inkscape:transform-center-y="-23.047117" />
    <path
       style="display:inline;mix-blend-mode:exclusion;fill:#ffbb26;fill-opacity:1;stroke:#000000;stroke-width:1.7;stroke-dasharray:none;stroke-opacity:1"
       d="m -495.86984,276.00391 1.58064,-86.24754 -7.64012,-0.0299 1.47133,86.27739 z"
       id="path7-3"
       inkscape:transform-center-x="-0.054655"
       inkscape:transform-center-y="-43.138697" />
    <path
       style="display:inline;mix-blend-mode:exclusion;fill:#ffbb26;fill-opacity:1;stroke:#000000;stroke-width:1.7;stroke-dasharray:none;stroke-opacity:1"
       d="m -495.91791,276.47108 19.11112,-84.11838 -7.47395,-1.58508 -16.12918,84.76912 z"
       id="path148-8"
       inkscape:transform-center-x="-9.55556"
       inkscape:transform-center-y="-42.384558" />
    <path
       style="display:inline;mix-blend-mode:exclusion;fill:#ffbb26;fill-opacity:1;stroke:#000000;stroke-width:1.7;stroke-dasharray:none;stroke-opacity:1"
       d="m -496.06011,276.91867 35.84067,-78.4639 -6.99455,-3.07387 -33.05373,79.70825 z"
       id="path149-9"
       inkscape:transform-center-x="-17.920335"
       inkscape:transform-center-y="-39.854123" />
    <path
       style="display:inline;mix-blend-mode:exclusion;fill:#ffbb26;fill-opacity:1;stroke:#000000;stroke-width:1.7;stroke-dasharray:none;stroke-opacity:1"
       d="m -496.29048,277.32792 51.06817,-69.52106 -6.22201,-4.43384 -48.59303,71.30688 z"
       id="path150-3"
       inkscape:transform-center-x="-25.534085"
       inkscape:transform-center-y="-35.653441" />
    <path
       style="display:inline;mix-blend-mode:exclusion;fill:#ffbb26;fill-opacity:1;stroke:#000000;stroke-width:1.7;stroke-dasharray:none;stroke-opacity:1"
       d="m -496.59936,277.68169 64.15545,-57.66468 -5.18872,-5.60799 -62.09584,59.91711 z"
       id="path151-4"
       inkscape:transform-center-x="-32.077725"
       inkscape:transform-center-y="-29.958553" />
    <path
       style="display:inline;mix-blend-mode:exclusion;fill:#ffbb26;fill-opacity:1;stroke:#000000;stroke-width:1.7;stroke-dasharray:none;stroke-opacity:1"
       d="m -496.97381,277.96514 74.55404,-43.39161 -3.93797,-6.54712 -72.99628,46.01627 z"
       id="path152-4"
       inkscape:transform-center-x="-37.27702"
       inkscape:transform-center-y="-23.008134" />
    <path
       style="display:inline;mix-blend-mode:exclusion;fill:#ffbb26;fill-opacity:1;stroke:#000000;stroke-width:1.7;stroke-dasharray:none;stroke-opacity:1"
       d="m -497.39814,278.1664 81.82814,-27.30005 -2.52218,-7.21185 -80.83751,30.18692 z"
       id="path153-6"
       inkscape:transform-center-x="-40.91407"
       inkscape:transform-center-y="-15.093461" />
    <path
       style="display:inline;mix-blend-mode:exclusion;fill:#ffbb26;fill-opacity:1;stroke:#000000;stroke-width:1.7;stroke-dasharray:none;stroke-opacity:1"
       d="m -497.85456,278.27703 85.6729,-10.06436 -1.00069,-7.57436 -85.29092,13.09248 z"
       id="path154-0"
       inkscape:transform-center-x="-42.83645"
       inkscape:transform-center-y="-6.546241" />
    <path
       style="display:inline;mix-blend-mode:exclusion;fill:#ffbb26;fill-opacity:1;stroke:#000000;stroke-width:1.7;stroke-dasharray:none;stroke-opacity:1"
       d="m -495.91791,275.53674 -16.01608,-84.76215 -7.48611,1.52662 19.01018,84.16987 z"
       id="path155-6"
       inkscape:transform-center-x="9.50509"
       inkscape:transform-center-y="-42.381075" />
    <path
       style="display:inline;mix-blend-mode:exclusion;fill:#ffbb26;fill-opacity:1;stroke:#000000;stroke-width:1.7;stroke-dasharray:none;stroke-opacity:1"
       d="m -496.06011,275.08915 -32.94158,-79.72446 -7.01836,3.01912 35.75233,78.53486 z"
       id="path156-6"
       inkscape:transform-center-x="17.876165"
       inkscape:transform-center-y="-39.862229" />
    <path
       style="display:inline;mix-blend-mode:exclusion;fill:#ffbb26;fill-opacity:1;stroke:#000000;stroke-width:1.7;stroke-dasharray:none;stroke-opacity:1"
       d="m -496.29048,274.6799 -48.48653,-71.34559 -6.25648,4.38508 50.99614,69.60853 z"
       id="path157-1"
       inkscape:transform-center-x="25.49807"
       inkscape:transform-center-y="-35.672796" />
    <path
       style="display:inline;mix-blend-mode:exclusion;fill:#ffbb26;fill-opacity:1;stroke:#000000;stroke-width:1.7;stroke-dasharray:none;stroke-opacity:1"
       d="m -496.59936,274.32613 -61.99946,-59.97669 -5.23239,5.56727 64.10274,57.76498 z"
       id="path158-8"
       inkscape:transform-center-x="32.05137"
       inkscape:transform-center-y="-29.988347" />
    <path
       style="display:inline;mix-blend-mode:exclusion;fill:#ffbb26;fill-opacity:1;stroke:#000000;stroke-width:1.7;stroke-dasharray:none;stroke-opacity:1"
       d="m -496.97381,274.04268 -72.91405,-46.09423 -3.98902,6.51615 74.52286,43.50054 z"
       id="path159-4"
       inkscape:transform-center-x="37.26143"
       inkscape:transform-center-y="-23.047117" />
    <path
       id="path160"
       style="display:inline;mix-blend-mode:exclusion;fill:#ffbb26;stroke:#000000;stroke-width:1.7"
       d="m -556.62391,441.83697 c -1.50799,1.84394 -2.91341,3.7626 -4.20898,5.74805 l 61.5332,35.91797 2.38086,-3.92187 z" />
    <path
       d="m -498.15501,448.69449 c -19.75592,0 -36.01168,14.5997 -36.01168,32.80453 0,18.20485 16.24074,32.89065 36.01168,32.89065 19.77084,0 36.10225,-14.67088 36.10225,-32.89065 0,-18.21978 -16.34644,-32.80453 -36.10225,-32.80453 z"
       id="path161"
       style="display:inline;mix-blend-mode:exclusion;fill:#ffbb26;stroke:#000000;stroke-width:1.7"
       sodipodi:nodetypes="sssss" />
    <path
       style="display:inline;mix-blend-mode:exclusion;fill:#ffbb26;fill-opacity:1;stroke:#000000;stroke-width:1.7;stroke-dasharray:none;stroke-opacity:1"
       d="m -495.81565,481.54208 1.58064,-86.24754 -7.64012,-0.0299 1.47133,86.27739 z"
       id="path162"
       inkscape:transform-center-x="-0.054655"
       inkscape:transform-center-y="-43.138697" />
    <path
       id="path163"
       style="display:inline;mix-blend-mode:exclusion;fill:#ffbb26;fill-opacity:1;stroke:#000000;stroke-width:1.7;stroke-dasharray:none;stroke-opacity:1"
       inkscape:transform-center-x="-9.55556"
       inkscape:transform-center-y="-42.384558"
       d="m -487.91883,415.71197 -12.4375,65.36329 4.49219,0.93359 14.79101,-65.10352 c -2.24519,-0.49426 -4.52848,-0.89372 -6.8457,-1.19336 z" />
    <path
       style="display:inline;mix-blend-mode:exclusion;fill:#ffbb26;fill-opacity:1;stroke:#000000;stroke-width:1.7;stroke-dasharray:none;stroke-opacity:1"
       d="m -496.00592,482.45684 35.84067,-78.4639 -6.99455,-3.07387 -33.05373,79.70825 z"
       id="path164"
       inkscape:transform-center-x="-17.920335"
       inkscape:transform-center-y="-39.854123" />
    <path
       id="path165"
       style="display:inline;mix-blend-mode:exclusion;fill:#ffbb26;fill-opacity:1;stroke:#000000;stroke-width:1.7;stroke-dasharray:none;stroke-opacity:1"
       inkscape:transform-center-x="-25.534085"
       inkscape:transform-center-y="-35.653441"
       d="m -461.66883,423.99518 -38.31445,56.22265 3.74609,2.64844 40.62305,-55.30078 c -1.94971,-1.27745 -3.96981,-2.46958 -6.05469,-3.57031 z" />
    <path
       style="display:inline;mix-blend-mode:exclusion;fill:#ffbb26;fill-opacity:1;stroke:#000000;stroke-width:1.7;stroke-dasharray:none;stroke-opacity:1"
       d="m -496.54517,483.21986 64.15545,-57.66468 -5.18872,-5.60799 -62.09584,59.91711 z"
       id="path166"
       inkscape:transform-center-x="-32.077725"
       inkscape:transform-center-y="-29.958553" />
    <path
       id="path167"
       style="display:inline;mix-blend-mode:exclusion;fill:#ffbb26;fill-opacity:1;stroke:#000000;stroke-width:1.7;stroke-dasharray:none;stroke-opacity:1"
       inkscape:transform-center-x="-37.27702"
       inkscape:transform-center-y="-23.008134"
       d="m -439.57508,441.93072 -59.72461,37.6504 2.38086,3.92187 61.55273,-35.82422 c -1.29543,-1.98519 -2.70097,-3.90399 -4.20898,-5.74805 z" />
    <path
       style="display:inline;mix-blend-mode:exclusion;fill:#ffbb26;fill-opacity:1;stroke:#000000;stroke-width:1.7;stroke-dasharray:none;stroke-opacity:1"
       d="m -497.34395,483.70457 81.82814,-27.30005 -2.52218,-7.21185 -80.83751,30.18692 z"
       id="path168"
       inkscape:transform-center-x="-40.91407"
       inkscape:transform-center-y="-15.093461" />
    <path
       id="path169"
       style="display:inline;mix-blend-mode:exclusion;fill:#ffbb26;fill-opacity:1;stroke:#000000;stroke-width:1.7;stroke-dasharray:none;stroke-opacity:1"
       inkscape:transform-center-x="-42.83645"
       inkscape:transform-center-y="-6.546241"
       d="m -426.65125,468.25299 -71.76758,11.01563 0.61914,4.54687 72.28516,-8.49219 c -0.24149,-2.39738 -0.62261,-4.75582 -1.13672,-7.07031 z" />
    <path
       id="path170"
       style="display:inline;mix-blend-mode:exclusion;fill:#ffbb26;fill-opacity:1;stroke:#000000;stroke-width:1.7;stroke-dasharray:none;stroke-opacity:1"
       inkscape:transform-center-x="9.50509"
       inkscape:transform-center-y="-42.381075"
       d="m -508.22157,415.67877 c -2.3185,0.29258 -4.60376,0.68603 -6.8496,1.17383 l 14.71484,65.15625 4.49219,-0.93359 -12.35547,-65.39649 z" />
    <path
       style="display:inline;mix-blend-mode:exclusion;fill:#ffbb26;fill-opacity:1;stroke:#000000;stroke-width:1.7;stroke-dasharray:none;stroke-opacity:1"
       d="m -496.00592,480.62732 -32.94158,-79.72446 -7.01836,3.01912 35.75233,78.53486 z"
       id="path171"
       inkscape:transform-center-x="17.876165"
       inkscape:transform-center-y="-39.862229" />
    <path
       id="path172"
       style="display:inline;mix-blend-mode:exclusion;fill:#ffbb26;fill-opacity:1;stroke:#000000;stroke-width:1.7;stroke-dasharray:none;stroke-opacity:1"
       inkscape:transform-center-x="25.49807"
       inkscape:transform-center-y="-35.672796"
       d="m -534.50477,423.90729 c -2.08713,1.09806 -4.11106,2.28678 -6.0625,3.5625 l 40.58399,55.39648 3.74609,-2.64844 z" />
    <path
       style="display:inline;mix-blend-mode:exclusion;fill:#ffbb26;fill-opacity:1;stroke:#000000;stroke-width:1.7;stroke-dasharray:none;stroke-opacity:1"
       d="m -496.54517,479.8643 -61.99946,-59.97669 -5.23239,5.56727 64.10274,57.76498 z"
       id="path173"
       inkscape:transform-center-x="32.05137"
       inkscape:transform-center-y="-29.988347" />
    <path
       d="m -498.2092,243.15632 c -19.75592,0 -36.01168,14.5997 -36.01168,32.80453 0,18.20485 16.24074,32.89065 36.01168,32.89065 19.77084,0 36.10225,-14.67088 36.10225,-32.89065 0,-18.21978 -16.34644,-32.80453 -36.10225,-32.80453 z"
       id="path28-48-4-1"
       style="display:inline;mix-blend-mode:exclusion;fill:#ffbb26;stroke:#000000;stroke-width:1.7"
       sodipodi:nodetypes="sssss" />
    <path
       style="display:inline;mix-blend-mode:normal;fill:#ffbb26;fill-opacity:1;stroke:#000000;stroke-width:1.7;stroke-dasharray:none;stroke-opacity:1"
       d="m 22.208654,138.89414 h 9.216825 l 9.972557,-2.86003 9.972557,2.86003 h 9.216825 l 4.424345,2.96787 -4.424345,2.96787 h -9.216825 l -9.972557,2.86003 -9.972557,-2.86003 h -9.216825 l -4.424345,-2.96787 z"
       id="path3-8"
       sodipodi:nodetypes="ccccccccccccc" />
    <path
       d="m 47.483196,168.14317 c 1.215805,0.47464 2.346687,2.9152 2.346687,2.9152 0,0 -1.853994,2.03295 -3.200028,2.72085 -2.766131,1.41366 -8.98953,1.64404 -12.373445,-0.38869 -0.904249,-0.54319 -1.280011,-1.44685 -1.280011,-2.4336 0,-1.02916 0.853341,-2.23062 0.853341,-2.23062"
       id="path16"
       style="fill:#ffbb26;stroke:#000000;stroke-width:1.7"
       sodipodi:nodetypes="ccsssc" />
    <path
       d="m 48.336537,162.89581 c 1.215805,0.47464 2.346687,2.9152 2.346687,2.9152 0,0 -1.857828,2.19286 -3.200028,2.72085 -3.947786,1.55295 -10.056206,2.03274 -13.440121,0 -0.904249,-0.54318 -1.280011,-1.55196 -1.280011,-2.53871 0,-1.20051 1.279997,-2.90299 1.279997,-2.90299"
       id="path18"
       style="fill:#ffbb26;stroke:#000000;stroke-width:1.7"
       sodipodi:nodetypes="ccsssc" />
    <path
       d="m 32.182161,154.72257 c 0,1.66591 1.066163,3.21805 4.420923,3.62477 5.665446,0.68687 9.194245,-1.86068 11.733439,-0.89323 0.92492,0.3524 1.652713,1.44282 2.346688,2.9152 0,0 -1.867716,2.16838 -3.200027,2.72085 -3.638423,1.50876 -10.056208,2.03274 -13.440123,0 -0.904249,-0.54319 -1.280011,-1.57786 -1.280011,-2.5646 0,-1.33488 0.784107,-1.97969 1.323343,-2.91368"
       id="path20"
       style="fill:#ffbb26;stroke:#000000;stroke-width:1.7"
       sodipodi:nodetypes="ccscsssc" />
  </g>
</svg>
