<svg width="280" height="250" viewBox="0 0 280 250" xmlns="http://www.w3.org/2000/svg">
  <g fill="#ffbb26" stroke="#000" stroke-width="1.7">
    <path d="m161.071187 117.313432 1.58064-86.24754-7.64012-.0299 1.47133 86.27739z"/>
    <path d="m168.968007 51.483322-12.4375 65.36329 4.49219.93359 14.79101-65.10352c-2.24519-.49426-4.52848-.89372-6.8457-1.19336z"/>
    <path d="m160.880917 118.228192 35.84067-78.4639-6.99455-3.07387-33.05373 79.70825z"/>
    <path d="m195.218007 59.766532-38.31445 56.22265 3.74609 2.64844 40.62305-55.30078c-1.94971-1.27745-3.96981-2.46958-6.05469-3.57031z"/>
    <path d="m160.341667 118.991212 64.15545-57.66468-5.18872-5.60799-62.09584 59.91711z"/>
    <path d="m213.924657 79.837302-56.33751 35.51517 2.38086 3.92187 59.40649-34.57509z"/>
    <path d="m159.542887 119.475922 81.82814-27.30005-2.52218-7.21185-80.83751 30.18692z"/>
    <path d="m230.235587 104.024342-71.76758 11.01563.61914 4.54687 72.28516-8.49219c-.24149-2.39738-.62261-4.75582-1.13672-7.07031z"/>
    <path d="m148.665267 51.450122c-2.3185.29258-4.60376.68603-6.8496 1.17383l14.71484 65.15625 4.49219-.93359-12.35547-65.39649z"/>
    <path d="m160.880917 116.398672-32.94158-79.72446-7.01836 3.01912 35.75233 78.53486z"/>
    <path d="m122.382067 59.678642c-2.08713 1.09806-4.11106 2.28678-6.0625 3.5625l40.58399 55.39648 3.74609-2.64844z"/>
    <path d="m160.341667 115.635652-39.58897-38.29735-1.80196 7.17399 38.26182 34.47892z"/>
    <path d="m27.17356 124.636182s-2.746011-29.68617 3.166415-47.89199c14.396629-44.331557 56.735815-49.844531 78.368672-39.975948-20.048391 1.049867-53.871735 8.074804-64.515658 42.350758-5.517418 17.76759-2.661439 45.65405-2.661439 45.65405z"/>
    <path d="m27.062475 113.468312h13.618739v30.53919h-13.618739z"/>
    <path d="m84.853127 172.429652c-8.181932-7.59888-12.108263-3.18303-28.483312-25.24312-12.473549 3.75497-15.948351 3.13824-25.813537-3.49824l-1.493347-12.71113c-2.22922-.25139-4.420923-1.37571-4.420923-3.62477 0-4.87809 9.487857-6.39726 17.861044-4.84797 3.58118.66263 6.33899 2.45805 9.813421 3.49823 10.695613 3.20207 33.280271 5.24736 33.280271 5.24736z"/>
    <path d="m26.289587 141.356132s5.486134.0561 8.106739-.19445c1.904294-.18197 3.503681-1.18628 5.546717-.38869 1.215805.47464 2.346687 2.9152 2.346687 2.9152s-1.84257 2.23342-3.200028 2.72085c-3.771006 1.35408-8.98953 1.64404-12.373445-.38869-.904249-.54319-1.26725-1.73419-1.280011-2.72086-.009-.69762.853341-1.94336.853341-1.94336z"/>
    <path d="m26.076252 136.497472s5.486134.0562 8.106739-.19445c1.904294-.18197 4.570357-1.57497 6.613393-.77739 1.215805.47464 2.346687 2.9152 2.346687 2.9152s-1.84257 2.23343-3.200028 2.72085c-3.771006 1.35409-10.056206 2.03274-13.440121 0-.904249-.54318-1.26725-1.73418-1.280011-2.72085-.009-.69762.853341-1.94336.853341-1.94336z"/>
    <path d="m26.076238 131.055772s5.486134.0562 8.106739-.19445c1.904294-.18197 4.570357-1.57497 6.613393-.77739 1.215806.47464 2.346688 2.9152 2.346688 2.9152s-1.842571 2.23342-3.200029 2.72085c-3.771006 1.35408-10.056206 2.03274-13.440121 0-.904249-.54319-1.26725-1.73419-1.280011-2.72085-.009-.69762.853341-1.94336.853341-1.94336z"/>
    <path d="m32.343798 219.037182h219.683659v-12.41512h-219.683659z"/>
    <path d="m158.731827 84.465842c-19.75592 0-36.01168 14.5997-36.01168 32.80453 0 18.20485 16.24074 32.89065 36.01168 32.89065 19.77084 0 36.10225-14.67088 36.10225-32.89065 0-18.21978-16.34644-32.80453-36.10225-32.80453z"/>
    <path fill="#000" stroke="none" d="m37.107422 206.621092c.388163 2.31921.833147 5.73857 4.076172 6.20899-.832765-.96407-1.563563-3.91899-1.820312-6.20899zm6.652344 0c.388162 2.31921.833146 5.73857 4.076172 6.20899-.832766-.96407-1.563488-3.91899-1.820313-6.20899zm6.652344 0c.388099 2.31921.835099 5.73857 4.078125 6.20899-.832766-.96407-1.565441-3.91899-1.822266-6.20899zm6.654297 0c.388099 2.31921.833146 5.73857 4.076171 6.20899-.832766-.96407-1.56544-3.91899-1.822265-6.20899zm6.652343 0c.3881 2.31921.833243 5.73857 4.076172 6.20899-.83267-.96407-1.565441-3.91899-1.822265-6.20899zm6.652344 0c.388179 2.31921.833243 5.73857 4.076172 6.20899-.83267-.96407-1.565441-3.91899-1.822266-6.20899zm6.652344 0c.388178 2.31921.833243 5.73857 4.076172 6.20899-.83267-.96407-1.563488-3.91899-1.820313-6.20899zm6.652344 0c.388177 2.31921.833242 5.73857 4.076171 6.20899-.83267-.96407-1.563488-3.91899-1.820312-6.20899zm6.652343 0c.388163 2.31921.833146 5.73857 4.076172 6.20899-.83267-.96407-1.56355-3.91899-1.82031-6.20899zm6.652342 0c.38816 2.31921.83315 5.73857 4.07617 6.20899-.83267-.96407-1.56354-3.91899-1.82031-6.20899zm6.6543 0c.38816 2.31921.83314 5.73857 4.07617 6.20899-.83267-.96407-1.5655-3.91899-1.82226-6.20899zm6.65234 0c.38816 2.31921.83315 5.73857 4.07617 6.20899-.83276-.96407-1.56544-3.91899-1.82226-6.20899zm6.65235 0c.38816 2.31921.83314 5.73857 4.07617 6.20899-.83277-.96407-1.56544-3.91899-1.82227-6.20899zm6.65234 0c.3881 2.31921.83315 5.73857 4.07617 6.20899-.83277-.96407-1.56544-3.91899-1.82226-6.20899zm6.65234 0c.3881 2.31921.83315 5.73857 4.07618 6.20899-.83276-.96407-1.56349-3.91899-1.82032-6.20899zm6.65235 0c.3881 2.31921.83314 5.73857 4.07617 6.20899-.83277-.96407-1.56349-3.91899-1.82031-6.20899zm6.65234 0c.3881 2.31921.83315 5.73857 4.07617 6.20899-.83276-.96407-1.56349-3.91899-1.82031-6.20899zm6.65235 0c.38816 2.31921.83315 5.73857 4.07617 6.20899-.83267-.96407-1.56349-3.91899-1.82032-6.20899zm6.65429 0c.38818 2.31921.83325 5.73857 4.07617 6.20899-.83267-.96407-1.56544-3.91899-1.82226-6.20899zm6.65235 0c.38816 2.31921.83314 5.73857 4.07617 6.20899-.83267-.96407-1.5655-3.91899-1.82227-6.20899zm6.65234 0c.38816 2.31921.83315 5.73857 4.07617 6.20899-.83267-.96407-1.5655-3.91899-1.82226-6.20899zm6.65234 0c.38817 2.31921.83314 5.73857 4.07618 6.20899-.83277-.96407-1.56544-3.91899-1.82227-6.20899zm6.65235 0c.38817 2.31921.83315 5.73857 4.07617 6.20899-.83277-.96407-1.56349-3.91899-1.82031-6.20899zm6.65234 0c.3881 2.31921.83315 5.73857 4.07617 6.20899-.83276-.96407-1.56348-3.91899-1.82031-6.20899zm6.65234 0c.38811 2.31921.83315 5.73857 4.07618 6.20899-.83277-.96407-1.56349-3.91899-1.82032-6.20899zm6.65235 0c.38809 2.31921.8351 5.73857 4.07812 6.20899-.83276-.96407-1.56543-3.91899-1.82226-6.20899zm6.6543 0c.3881 2.31921.83314 5.73857 4.07617 6.20899-.83277-.96407-1.56545-3.91899-1.82227-6.20899zm6.65234 0c.3881 2.31921.83315 5.73857 4.07617 6.20899-.83276-.96407-1.56544-3.91899-1.82226-6.20899zm6.65234 0c.38817 2.31921.83305 5.73857 4.07617 6.20899-.83276-.96407-1.56543-3.91899-1.82226-6.20899zm6.65235 0c.38816 2.31921.83315 5.73857 4.07617 6.20899-.83267-.96407-1.56349-3.91899-1.82031-6.20899zm6.65234 0c.38816 2.31921.83314 5.73857 4.07617 6.20899-.83267-.96407-1.56348-3.91899-1.82031-6.20899zm6.65234 0c.38817 2.31921.83315 5.73857 4.07618 6.20899-.83276-.96407-1.56351-3.91899-1.82032-6.20899z"/>
    <path d="m167.840267 174.824382c-4.2949 7.16015 1.66439 13.55871-1.57379 19.03509-10.45177-2.37014-20.85295-3.4249-27.47427 6.24368-3.24923 4.74459.69257 9.28431 6.34141 6.91581 5.05165 4.64537 11.00266 1.67186 18.2917-.86962 2.85948-.99705 7.63105 1.87221 11.40131.41568 4.29684-1.65995 7.2076-6.55236 9.93173-14.40161l4.23343 1.7759c.0454-3.35625-1.44763-5.91528-3.39841-8.23693l5.05208 1.69887c.0311-3.33852-1.67741-5.70863-3.26524-7.62426l4.86368 1.79654c-.97359-4.3696-.0328-8.06502-.46459-9.53036-.93459-3.17126-1.42201-1.59577-2.65431-7.49521-14.63949-6.41396-11.48358-21.52627-8.796-27.92442l-27.87392 19.222c-5.63175 3.66706 2.1027 16.85215 15.38519 18.97884z"/>
    <path fill="#000" stroke="none" d="M 73.058594 39.806641 C 52.560542 44.417508 40.755685 64.097466 37.011719 76.634766 C 34.39779 85.387952 32.836962 94.554707 33.130859 114.49219 L 35.132812 114.49219 C 34.87725 102.09929 34.966864 88.884662 38.947266 76.695312 C 43.856882 61.660381 54.296388 47.734784 73.058594 39.806641 z "/>
    <path d="m44.106326 117.459702h9.216825l4.424347-2.96787-4.40403-3.02745h-9.216825l-9.992874-2.48048-9.99298 2.48051h-9.74061l-4.40403 3.02745 4.424347 2.96787h9.74061l9.972663 2.86z"/>
    <path d="m242.023717 63.406339c-3.35003-3.42548-6.1273-7.202482-9.48838-9.804733-17.23914-13.347057-37.90979 5.703333-25.41489 24.283326 5.25458 7.81359 21.79638 13.14764 28.00097 17.79274 16.89159 12.64604 12.04575 26.98684-4.91202 27.31653-9.41574.18301-18.29832-7.77438-27.38793-9.10936-17.01876-2.49949-21.85387 4.11892-37.66679 4.30555-31.32216.36966-44.10598-9.09862-44.10598-9.09862l-33.957859 39.3142c-10.374154 3.87234-10.919021 18.14233 0 25.83358-7.839157 4.69715-7.227631 10.3098-12.841207 17.79105-11.346262-2.62085-20.859627-3.01022-27.465914 6.2553-3.128175 4.82526.682581 9.2737 6.331428 6.9052 5.051645 4.64536 10.991845 1.7291 18.280885-.81238 2.900743-1.01145 7.794555 1.90616 11.414406.40619 4.199502-1.74017 6.098203-6.21277 9.095854-9.34233 1.413757-1.47595 4.191227-4.46807 4.191227-4.46807l2.76443 3.49322c1.86126-2.89674 1.9512-5.79569 1.51597-8.69243l3.47783 3.73693c1.83926-2.88775 1.69758-5.77575 1.24845-8.12377l3.29948 3.73693s.54504-1.62693 1.87267-3.8994c.86042-1.47271 2.53614-3.43996 2.8536-4.54931.54818-1.91542.7134-4.38684.7134-4.38684 1.90433 1.65845 3.35102 2.52172 5.79638 2.19342.34874-3.46933.60214-4.52022 1.51598-5.93035 11.8082-.0855 40.91742-4.01208 59.39058-22.50284.66552-.66614 9.40501-2.79468 14.53553 3.33075 2.56062 6.52231 8.6011 22.0889 25.23654 25.42739-4.2949 7.16015 1.63303 13.61447-1.60515 19.09085-11.82253-2.64967-21.46876-2.44441-27.46591 6.17407-3.28456 4.7202.68258 9.35494 6.33142 6.98644 5.05165 4.64536 10.99185 1.64786 18.28089-.89362 2.8762-1.0029 7.65013 1.86041 11.4144.40619 4.29684-1.65995 7.26348-6.52982 9.98761-14.37907l4.19123 1.70599c.0454-3.35624-1.43788-5.88335-3.38865-8.205l5.08297 1.70599c.0311-3.33852-1.86597-5.95219-3.29947-7.63634l4.90462 1.78723c-1.04393-4.15552-.0944-8.00931-.53505-9.50481-.92456-3.13733-1.54725-1.86283-2.58607-7.47387-18.61039-8.82308-3.92139-22.14879-17.74584-33.99798 14.11913.42994 26.66261-2.42126 28.59104-17.74036.84012-22.51509-33.54428-28.54788-40.54064-38.43537-8.76355-12.384885 4.54245-26.511167 16.67574-16.978674 7.2212 6.879494 14.3468 18.330504 25.32571 12.510602 11.95581-6.337753-.84244-17.788789 16.23731-19.501435-1.86703-3.573859-10.43916-7.184842-14.08136.289362-4.37223-5.944284-12.72894-3.056928-14.29309 2.604181 22.84087-.521346 10.24192 20.327654.22365 10.083751z"/>
    <path d="m74.110418 132.714592-2.52227 6.47918c-2.016013 7.32769-.908644 13.78251 1.849676 18.99498 1.681541-.72973 3.363055-2.30853 5.044568-3.82963.830113 2.53071.458459 6.12922 3.363055 9.03791 3.294426-1.68503 5.339659-3.9828 6.557919-5.66784.561303 3.46153 2.008535 6.0875 4.919521 7.96564 2.91099-1.87814 4.35822-4.50413 4.91953-7.96566 1.21825 1.68503 3.26349 4.59558 6.55791 6.28062 2.9046-2.9087 2.86924-4.669 3.78345-7.55997 1.47052 3.00983 3.34759 4.5417 6.64202 6.22673 2.90459-2.9087 2.53294-6.5072 3.36305-9.03791 1.39279 2.04716 3.15628 3.47655 5.04457 3.82963 1.44195-1.87886 2.49185-4.88877 2.47904-7.60975 2.70798 1.93489 5.22911 2.5126 6.93879 2.6411.68178-3.54368.5361-6.28299-.02-9.43774 2.55275.80034 3.04437 1.52958 6.18444 1.53504 2.10002-7.02304-.39725-14.62309-7.70121-20.00786z"/>
    <path d="m69.219202 111.093782s-6.503415 10.40315-7.802774 15.77144c-.840814 3.47377-.731521 8.88532-.731521 8.88532 2.113263-.12088 4.226498-.54638 6.339761-2.44345.218586 2.96179-.105012 5.92354 1.950694 8.88533 2.113263-.74258 4.714178-1.71969 6.827441-5.3312.163226 3.68331.911897 5.85582 3.169866 9.3296 2.768593-.80518 4.941211-3.80692 7.071282-5.77547.04537 2.68625.780802 5.68685 3.413706 9.55173 3.45708-1.88765 5.46639-6.25441 6.26854-8.73259.87739 2.34133 2.81148 6.84494 6.26856 8.73259 2.6329-3.86488 3.36833-6.86548 3.4137-9.55173 2.13008 1.96855 4.30269 4.97029 7.07129 5.77547 2.25797-3.47378 3.00664-5.64629 3.16986-9.3296 2.11327 3.61151 4.71418 4.58862 6.82744 5.3312 2.05571-2.96179 1.73211-5.92354 1.9507-8.88533 2.11326 1.89707 5.00733 3.54197 7.12059 3.66285.42045-.38303 2.07288-5.57449 1.27627-8.68209 2.48518 1.96411 4.60865 3.27309 8.27713 3.17836.60066-2.86955.0862-5.7392-.52917-8.33946 3.98754 1.37127 8.30715 1.74444 11.39029.26709-7.19444-12.1751-18.5679-14.1639-31.05805-16.26314z"/>
    <path d="m 117.68297,57.734823 c -0.49966,-1.262291 -0.24512,-4.019588 -0.24512,-4.019588 -7.94365,1.832908 -8.45862,3.466636 -11.5437,7.286382 0.51972,-3.101147 0.17635,-4.46464 -2.4513,-6.476007 -1.10409,1.375243 -2.35879,4.458401 -3.676953,5.659237 -0.44916,-2.804376 -1.05518,-5.210181 -3.59637,-7.00799 -2.21722,1.944218 -3.4885,4.120842 -3.59636,7.00799 -1.318169,-1.200836 -2.572869,-4.283994 -3.676956,-5.659237 -2.627653,2.011367 -2.971027,3.37486 -2.451301,6.476007 -3.884256,-4.817491 -5.676509,-6.140822 -11.543702,-7.286382 0,0 0.07077,2.708893 -0.245125,4.019588 -0.731749,3.035403 -4.315587,6.963823 -1.20305,11.752608 -8.93006,5.660951 -6.987157,13.246761 -11.920264,21.437851 2.221158,-0.21082 2.703474,0.45348 6.143148,-0.0341 -4.74026,3.67514 -5.07182,4.42045 -6.474194,9.869248 1.721721,-0.62495 3.181281,-0.12453 6.531637,-0.978108 -1.138473,2.430508 -3.590259,4.206398 -4.95642,5.357948 -3.376325,2.84589 -4.76289,5.69989 -5.598681,8.98948 2.212597,0.026 4.425223,-0.68406 6.63782,-1.25108 -0.75863,2.62482 -1.133365,4.55513 -0.228859,8.34068 3.319766,-1.21558 4.964496,-2.49747 7.095594,-3.75331 -0.272519,2.43268 -0.420164,5.28242 0.457775,7.71511 2.212597,-0.59079 4.425194,-1.91201 6.637791,-4.17034 -0.05165,3.17479 0.903907,5.43203 2.060015,7.50659 2.032392,-1.1602 4.080621,-2.30886 5.722241,-3.75328 0.661322,2.25513 0.818099,4.20382 3.204452,7.50659 3.645362,-1.48084 4.388809,-3.62257 5.722239,-5.62994 0.50637,1.85344 1.40923,3.88748 4.07469,6.72435 3.486193,-2.29613 3.310093,-4.59226 4.291623,-6.88838 0.79338,1.64755 2.48106,4.5596 5.10908,5.77136 1.98517,-2.0479 2.29416,-4.8405 2.86105,-6.51605 1.78972,2.03097 3.86986,3.79738 6.74395,4.8405 1.49588,-2.72969 1.54471,-5.01997 1.43059,-7.26075 2.52048,2.64606 5.04095,3.39204 7.56142,4.0958 0.62882,-2.48228 0.45515,-4.96459 0,-7.44688 2.6567,1.90182 5.31343,2.81223 7.97014,2.23405 0.13497,-2.73827 -0.74468,-4.78886 -1.63492,-7.07454 2.6734,0.46476 5.22475,0.7072 7.35707,0.18613 0,0 -1.45468,-3.2571 -3.26982,-4.84046 -2.33747,-2.039 -5.49927,-3.53149 -7.83009,-5.57683 -1.34838,-1.18324 -4.38299,-4.13811 -4.38299,-4.13811 2.24936,0.0234 3.19915,-0.1123 5.81713,0.24046 -1.40238,-5.448788 -1.81227,-7.380768 -6.55253,-11.055908 3.57939,0.55333 4.03077,0.0676 6.25193,0.27834 -4.93311,-8.1911 -4.03143,-16.48834 -11.39963,-20.726421 2.30597,-5.57046 0.79713,-6.700977 -1.20305,-11.752608 z"/>
    <path fill="#000" stroke="none" d="m67.383068 195.767532c-8.82265-1.02707-17.82382 2.60372-14.62485 10.39843l1.87268-.73114c-2.18341-7.35945 7.52529-8.73325 12.75217-9.66729zm135.010979-47.68651c.95176 6.89405 3.21378 12.20673 7.22318 16.16629 4.00939 3.95957 9.61546 6.50726 16.94326 8.12377-2.53614-3.72032-10.99833-6.50307-14.80306-9.82976-5.12989-4.48533-6.1004-12.10899-9.36338-14.4603zm21.82677 44.67084c1.10354-2.19339 3.18841-4.82594 3.55949-7.69678.37109-2.87085.15039-5.79715-1.25918-7.97357-1.73253 1.09925-3.09179 15.23543-2.30031 15.67035zm-25.2132-48.24372c.46806-3.31442-1.26409-4.59917-3.31931-5.36651-2.86979-1.07147-5.65998.0823-6.48144 2.49078 3.21379-1.60705 7.64928-.20693 9.80075 2.87573zm-69.36728 11.37333c-.50888 3.36113 6.42856 10.25617 10.46305 10.42398l4.56794-1.07676c-7.324.01-13.725-5.99737-15.03099-9.34722zm-36.75556 13.23769c.43285 2.47315 4.01374 2.72238 6.24334 2.26873 2.92235-.59486 4.3731-3.34826 3.35429-5.66579-.79461 3.11385-5.79427 4.55401-9.59763 3.39706zm.11728 6.57994c.43867 2.50637 4.11052 2.72868 6.33245 2.25008 2.77189-.597 4.30201-3.28864 3.26518-5.64715-.79461 3.11386-5.79426 4.55402-9.59763 3.39707zm-12.424922 19.98368c2.162088-1.39362 5.414937-2.7189 7.316206-5.03322 1.901269-2.31433 3.321079-4.94692 3.299477-7.47387-2.104046.15962-11.061073 11.76925-10.615683 12.50709zm130.835402 1.87733c-8.82265-1.02707-17.82382 2.60372-14.62485 10.39843l1.87268-.73114c-2.18341-7.35945 7.52529-8.73325 12.75217-9.66729zm-52.32858.14501c-8.82265-1.02707-17.82382 2.60372-14.62485 10.39843l1.87268-.73114c-2.18341-7.35945 7.52529-8.73325 12.75217-9.66729zm-6.96289-55.34233c.86942 4.00406 15.82425 12.34527 21.35524 9.73951l3.0176-2.35774c-7.24365 3.1125-20.8105-3.45981-24.37284-7.38177zm-7.70844 1.11261c-.23687 4.11636 17.25232 14.09377 22.00278 13.17295l3.79087-2.29117c-5.03679 2.8139-23.52869-6.51841-25.79365-10.88178zm-4.07389 4.86022c.77433 5.14571 15.09686 13.29443 18.41813 12.10043l4.59405-2.14807c-7.56604 1.6894-20.20598-4.96844-23.01218-9.95236zm-4.43561 4.70882c-.362 3.93193 8.78339 10.1846 13.11119 10.95866l5.10294-1.70505c-6.91071 1.1122-16.79111-5.68271-18.21413-9.25361zm-11.11255 6.25239c-.16612 1.50942 1.65445 6.62474 6.02142 8.57181l4.6022-.67093c-5.97067-.89105-9.33683-5.55289-10.62362-7.90088zm-6.25409 2.89846c.0246 1.84116.54212 4.72588 2.92705 6.35456l4.47086-.19955c-4.66672-1.54429-6.76997-4.87426-7.39791-6.15501zm49.87028-.0518c-1.63229-.61211-3.96734-1.81507-5.05585-3.85551l1.96759-1.033c.80558 2.56758 2.4504 4.27045 3.08834 4.88854zm-3.2 2.69096c-4.29971-1.57492-5.16722-4.01487-5.46325-4.83183l2.12911-1.01731c.0582.64926.95446 3.54341 3.33424 5.84916zm-9.35029-3.20646 2.49082-1.0163c-.14858 1.84697 1.99138 5.0118 3.63413 6.86359-2.44977-1.47665-5.06981-3.08627-6.12495-5.84729zm17.83399 35.34242c1.4847-1.99806 4.01673-4.28212 4.90137-7.05822.88465-2.77606 1.19566-5.69553.19833-8.0536-1.90752.82449-5.80194 14.56416-5.09982 15.11182zm10.70172-22.10596c-.45615 2.60627-4.40833 2.74278-6.59091 2.18962-2.34086-.59362-4.09312-3.11541-3.00672-5.58668.79461 3.11386 5.79426 4.55402 9.59763 3.39706zm.73845-6.95158c-.44591 2.54778-4.23268 2.73541-6.44133 2.2258-2.587-.59637-4.21519-3.21416-3.1563-5.62286.79461 3.11386 5.79427 4.55402 9.59763 3.39706z"/>
    <path fill="#000" stroke="none" d="m133.031247 143.061882-.40304 3.65817c-.0572-3.42696-1.78233-6.48133-2.55016-8.42972 1.23363 1.83735 3.60993 4.20932 6.3848 5.12773zm-2.88545 7.96739-4.03334-1.17075-1.3359 3.33037c.82075-3.25341.0148-9.32168-.11895-11.20657.66654 2.04802 1.99531 7.63884 5.48819 9.04695zm-9.04294 4.21185-2.51401-1.60248-1.49239 3.08447c.54309-2.51223-.2549-10.23386-.38859-12.11875.66655 2.04802 2.58108 8.93716 4.39499 10.63676zm-9.44175 4.08005-3.07733-2.87135-1.98002 3.58106c1.24628-3.2523 1.07965-9.84686.94596-11.73176.66655 2.04802 1.84061 8.67296 4.11139 11.02205zm-10.32805.94187-3.09064-2.53387-2.02877 3.67942c1.24399-2.6173 1.13413-10.09229 1.00044-11.97718.66655 2.04802 1.42285 7.65857 4.11897 10.83163zm-16.088149-.23789 3.158458-2.29596 1.824679 3.23975c-1.369652-3.33777-1.146635-7.50731-1.012944-9.39221-.666544 2.04802-1.496618 5.92938-3.970193 8.44842zm-9.578154-4.30195 2.815638-1.36408 1.502996 3.08247c-.776553-3.64011-.669288-7.71786-.535597-9.60275-.666544 2.04802-1.522851 5.78342-3.783037 7.88436z"/>
    <path fill="#000" stroke="none" d="m140.572567 123.126752-.1905 3.50077c-.33153-4.12032-2.63893-7.51451-3.71203-9.13068 1.34012 1.61111 4.39986 5.36979 9.56306 5.9684zm-3.92756 6.66821-3.8204-1.50711-.75333 3.75491c.31558-3.94886-1.66835-7.15009-2.63994-8.8187 1.53098 1.61797 4.32027 5.15256 7.21367 6.5709zm-8.41273 5.1878-3.80453-1.67567-1.05071 3.89446c.38305-3.50164-.47511-7.34972-1.11746-9.14563 1.20297 1.8336 2.90663 5.15696 5.9727 6.92684zm-9.45105 4.36153-3.13162-2.48307-1.41024 3.87177c.95926-3.44892.14761-8.22254-.24878-10.07653.94773 1.95386 2.0045 6.09081 4.79064 8.68783zm-20.72915 5.03157-2.32588-3.14137-2.37451 3.32999c1.52278-2.74686 2.25754-8.58541 2.34888-10.47241.41899 2.10173.93148 7.56138 2.35151 10.28379zm10.68333-1.78716-3.32695-2.17335-1.48902 3.91482c.92847-3.16591.15781-8.81427-.23857-10.66826.94773 1.95387 2.45266 6.57607 5.05454 8.92679zm-26.100622.0926 3.409166-2.26596 1.474274 3.86269c-.926087-3.24453-.153472-8.05753.153934-10.11521-.947738 1.95387-3.070115 6.86423-5.037374 8.51848zm-9.78068-3.48839 2.948698-2.3317 1.435062 3.95127c-.998795-3.30965.361052-9.4226.757446-11.27659-.947739 1.95386-3.264453 8.12627-5.141206 9.65702zm-8.514696-5.10155 2.685259-.78428 1.017867 3.29831c-.24034-2.9858 1.217616-7.62116 1.8522-9.41934-1.195031 1.8379-3.773745 6.22525-5.555326 6.90531z"/>
    <path fill="#000" stroke="none" d="m114.645787 58.150915c-4.06791 2.900542-6.45378 3.374735-6.59896 9.09862 4.0471-1.782092 5.56589-1.43128 6.95566 2.76208 3.29557-5.840538-.79084-6.164451-.3567-11.8607zm-38.791148 16.003817c-3.404757 2.0793-4.039344 7.1089 1.426801 9.17986-4.166379 3.56224-3.443902 11.54989.3567 15.43516-1.568168 2.09934-4.546158 6.74041-5.834958 9.38499 2.587959-2.1048 5.286039-5.86739 7.261759-8.16643.877454.63296 1.873361 1.1215 2.942777 1.54352-1.100349 2.08603-3.297337 7.59883-4.102053 10.5609 2.339554-2.70801 4.409129-7.46859 5.974729-9.911.76973.20355 1.588999.29625 2.407726.40619-.609701 1.74956-.389089 3.59039.624225 5.11797-1.106712 1.97724-3.420869 7.71743-4.280402 10.72338 2.211027-2.49589 4.156499-6.71455 5.707203-9.2611.893034.71588 1.981541 1.26045 3.299477 1.62475-.497783 2.54439-1.064251 7.86927-1.070101 10.72338 1.45528-2.92126 2.230005-7.49833 3.031955-10.31719.89239.17821 1.77767.16762 2.67525.0814.55913 2.87727.94149 7.37064 2.1402 10.31719.21202-2.78535.10558-7.92628-.17835-10.5609 1.00495-.20979 1.88292-.5657 2.67525-.97485 1.26189 2.6517 2.68356 7.30039 4.6371 10.07347-.50352-3.11087-2.08564-9.20981-2.94277-11.2108 1.61598-1.22989 2.05602-3.17415 1.96185-5.11798 2.65456 2.16553 6.99925 6.01799 9.89843 7.71758-1.72067-2.41976-6.4621-7.16947-8.64998-9.17985 2.24963-.47958 4.34406-1.27584 5.97473-2.51837 2.52172 2.0951 7.96848 6.99533 11.1039 8.83343-1.82351-2.5644-7.82423-8.2838-9.76628-10.13323 3.55325-3.85133 4.33879-11.63656.17835-15.19145 5.46618-2.071 4.83154-7.1006 1.4268-9.17986.62694 1.78669 1.09045 3.20789.53505 5.28045-.96715 2.71978-3.98384 2.76991-6.4206 3.08703 1.85788 1.09675 3.66286 2.29977 4.72628 4.22436 2.57993 9.12476-5.95679 15.39609-13.91131 14.29783-3.21418-.44377-3.30339-1.17616-3.29948-3.81817.60014-.0621 1.34773-.21758 2.05103-.56866.63844-.31884.89503-.6577 1.15927-.97485.26425-.31728.4797-.54527.53506-.56867.83716-.36056 2.1402-.24358 2.1402-.24358l1.0701.24358.089-1.05609c.0716-.91625.29249-1.50246-.44588-2.99984-.59877-1.21425-1.51086-1.94596-2.1402-2.35589-.31466-.20485-.49752-.29882-.62422-.40619-.1267-.10736-.15552-.15467-.17835-.24358-.82138-3.03988-1.07561-5.67294-.26739-8.21096.48366-1.51908 2.13755-2.80344 4.28041-3.08703 2.30828-.30548 5.12161.33964 6.4206.56866-3.6779-4.19171-11.17796-2.6323-12.66286 2.03095-.92442 2.90313-.57928 5.97116.26739 9.10457.21974.81357.75086 1.23028 1.60515 1.78723.54817.35705 1.08856.67673 1.51597 1.54351.36698.74404.22373.7195.17835 1.37509-.64166-.0481-1.03494-.51891-2.05102-.0811-.67477.29061-1.04605.78729-1.33763 1.13733-.29149.35004-.55174.62144-.44587.56866-.27766.13856-.86753.27634-1.33763.32495-.25568.0264-1.52694.0265-1.7835 0-.4701-.0486-1.06003-.18639-1.33763-.32495.10587.0528-.15438-.21862-.44587-.56866-.291583-.35004-.662865-.84672-1.337627-1.13733-1.016082-.43767-1.409365.033-2.051026.0811-.04537-.65559-.188623-.63105.17835-1.37509.427412-.86678.967799-1.18646 1.515976-1.54351.854-.55677 1.385167-.97332 1.605147-1.78723.84681-3.13341 1.19195-6.20144.26739-9.10457-1.484889-4.66323-8.984925-6.22268-12.662861-2.03095 1.298988-.22902 4.112325-.87414 6.420604-.56866 2.142855.28359 3.796745 1.56795 4.280402 3.08703.808083 2.53802.553855 5.17108-.267383 8.21096-.02283.0892-.05165.13648-.17835.24358-.1267.10737-.309558.20121-.624225.40619-.629333.40993-1.54143 1.14164-2.140201 2.35589-.73837 1.49738-.517387 2.08359-.445875 2.99984l.08903 1.05609 1.070101-.24358s1.30304-.11672 2.140201.24358c.05536.0234.270806.25139.53505.56867.264243.31715.520839.65601 1.159276.97485.703301.35121 1.450891.50651 2.051031.56866.19347 2.79869-.29829 3.32563-3.299482 3.81817-7.614798 1.24977-16.533598-5.02348-13.911307-14.29783.989073-1.97554 2.927981-3.08471 4.726277-4.22436-2.534705-.27567-5.300655-.43665-6.420603-3.08703-.555397-2.07256-.09189-3.49376.53505-5.28045zm7.223179 5.36169c.368001 2.07233 2.768878 4.81816 6.866479 2.59961-1.699766-4.13455-4.547586-3.63682-6.866479-2.59961zm17.567489 2.59961c4.0976 2.21855 6.49847-.52728 6.86647-2.59961-2.32053-1.0377-5.16661-1.53523-6.86647 2.59961zm-5.35051 19.25332c2.48914 1.40066 4.53271 1.5051 7.04483 1.46215 1.32893 2.91665-1.64789 6.01159-7.04483 6.01159-5.152911 0-8.528135-2.82239-7.044826-6.01159 2.965507.18329 5.372916-.52142 7.044826-1.46215zm-24.879836 3.89941c-3.35164 2.3605-5.73174 6.57999-9.610381 7.52448l3.011499.0854.168017 2.95099c1.642743-6.34441 5.547769-6.7042 6.430865-10.56087zm6.153079 1.29981c-2.938325 2.7802-5.817181 10.30513-9.531558 12.12783l3.646332-1.23036.622325 3.51085c-.16682-6.25891 4.649062-9.86008 5.262901-14.40832zm48.332877 1.13732c.90422 3.70824 6.74163 5.02003 8.29651 10.72338l-.30248-3.30904 4.21364-.37224c-4.05148.003-6.38276-2.62986-12.20767-7.0421zm-7.21023.6062c.14382 3.79639 8.15711 9.17541 8.4271 15.17927l.44194-3.53064 3.83689 1.11179c-4.87135-2.09683-9.9885-10.55223-12.70593-12.76042zm-36.93142 4.51178c-2.367776 3.20032-2.857968 7.73472-6.331312 9.91422l3.350425-1.72728 1.181689 3.17918c-1.05833-5.80299 2.055879-6.7896 1.799198-11.36612zm33.26229.24358c-.15637 3.79597 5.03875 6.97739 4.03497 13.56669l.94178-3.32234 3.65903 1.77165c-3.85025-2.50486-6.09981-9.63541-8.63578-12.016zm-6.24225 1.13733c-1.00766 4.48962 3.37232 8.35569 1.32066 14.47904l1.7238-2.95177 3.10671 1.84722c-3.55978-2.93621-4.33739-9.88671-6.15117-13.37449zm-20.866962 2.5996c-1.813778 3.48779-.791842 6.76499-4.633302 9.30388l3.281593-1.34414 1.807059 3.29915c-2.127265-5.86993.546367-6.75026-.45535-11.25889zm14.089662.56867c-1.37752 4.40706 2.24118 5.88782-.10496 12.18565l1.95659-3.08196 2.51794 2.51329c-2.66901-3.09754-2.85146-8.01388-4.36957-11.61698zm-6.15308 2.5996c-1.51812 3.60311-.52453 5.98142-2.893335 9.00175l2.531735-2.33363 2.15816 2.91025c-2.52049-4.93383-.41502-5.16821-1.79656-9.57837zm-17.478147-61.821739c4.06791 2.900542 6.45378 3.374735 6.59896 9.09862-4.0471-1.782092-5.56589-1.43128-6.95566 2.762077-3.29557-5.840535.79084-6.164448.3567-11.860697z"/>
    <path fill="#000" stroke="none" d="m211.535957 125.567242c7.72839 0 9.58248 4.30199 19.25195 4.05034l-6.90255.9567c3.35576 3.01422 4.92908 5.8114 4.898 8.35278-3.13814-9.16417-11.03238-10.24138-17.2474-13.35982z"/>
  </g>
</svg>
