<?xml version="1.0" encoding="UTF-8"?>
<svg width="540" height="340" stroke="#000" stroke-linecap="square" stroke-width="2" version="1.1" xmlns="http://www.w3.org/2000/svg">
  <line x1="460" x2="470" y1="177" y2="177"/>
  <line x1="460" x2="470" y1="247" y2="247"/>
  <line x1="470" x2="470" y1="217" y2="247"/>
  <line x1="340" x2="390" y1="237" y2="237"/>
  <line x1="120" x2="150" y1="307" y2="307"/>
  <line x1="120" x2="120" y1="277" y2="307"/>
  <line x1="140" x2="150" y1="287" y2="287"/>
  <line x1="140" x2="140" y1="237" y2="287"/>
  <line x1="140" x2="150" y1="237" y2="237"/>
  <line x1="140" x2="140" y1="197" y2="237"/>
  <line x1="80" x2="140" y1="197" y2="197"/>
  <line x1="80" x2="80" y1="57" y2="197"/>
  <line x1="100" x2="100" y1="107" y2="257"/>
  <line x1="100" x2="150" y1="107" y2="107"/>
  <line x1="140" x2="150" y1="87" y2="87"/>
  <line x1="140" x2="140" y1="37" y2="87"/>
  <line x1="120" x2="150" y1="57" y2="57"/>
  <line x1="120" x2="120" y1="57" y2="277"/>
  <line x1="80" x2="150" y1="37" y2="37"/>
  <line x1="360" x2="360" y1="257" y2="297"/>
  <g font-family="Arial" font-size="12px" stroke="none" text-anchor="end">
    <text x="52" y="280">B1</text>
    <text x="52" y="260">B0</text>
    <text x="52" y="60">A1</text>
    <text x="52" y="40">A0</text>
  </g>
  <g font-family="Arial" font-size="12px" stroke="none">
    <text x="498" y="220">C3</text>
    <text x="498" y="180">C2</text>
    <text x="498" y="140">C1</text>
    <text x="498" y="100">C0</text>
  </g>
  <g fill="none">
    <circle cx="490" cy="217" r="3"/>
    <circle cx="490" cy="177" r="3"/>
    <circle cx="490" cy="137" r="3"/>
    <circle cx="490" cy="97" r="3"/>
    <circle cx="60" cy="277" r="3"/>
    <circle cx="60" cy="257" r="3"/>
    <circle cx="60" cy="57" r="3"/>
    <circle cx="60" cy="37" r="3"/>
  </g>
  <path d="m405 237m0-10v40h24m-24-40h24m0 40a20 20 0 0 0 0-40" fill="none"/>
  <path d="m270 227m0-10v40h24m-24-40h24m0 40a20 20 0 0 0 0-40" fill="none"/>
  <path d="m165 287m0-10v40h24m-24-40h24m0 40a20 20 0 0 0 0-40" fill="none"/>
  <path d="m165 237m0-10v40h24m-24-40h24m0 40a20 20 0 0 0 0-40" fill="none"/>
  <path d="m165 87m0-10v40h24m-24-40h24m0 40a20 20 0 0 0 0-40" fill="none"/>
  <path d="m165 37m0-10v40h24m-24-40h24m0 40a20 20 0 0 0 0-40" fill="none"/>
  <path d="m269 117c13.333 13.333 13.333 26.667 0 40m7.5 0c22.833-3.3333 39.5-10 49.5-20-10-10-26.667-16.667-49.5-20 13.833 13.333 13.833 26.667 0 40z" fill="none" stroke-linecap="round" stroke-linejoin="round"/>
  <path d="m398.02 157c13.333 13.333 13.333 26.667 0 40m57-20c-10-10-26.667-16.667-49.5-20 13.833 13.333 13.833 26.667 0 40 22.833-3.3333 39.5-10 49.5-20z" fill="none" stroke-linecap="round" stroke-linejoin="round"/>
  <line x1="470" x2="487" y1="217" y2="217"/>
  <line x1="470" x2="487" y1="177" y2="177"/>
  <line x1="470" x2="487" y1="137" y2="137"/>
  <line x1="470" x2="487" y1="97" y2="97"/>
  <line x1="63" x2="120" y1="277" y2="277"/>
  <line x1="63" x2="150" y1="257" y2="257"/>
  <line x1="63" x2="80" y1="57" y2="57"/>
  <line x1="63" x2="100" y1="37" y2="37"/>
  <line x1="360" x2="390" y1="257" y2="257"/>
  <line x1="360" x2="390" y1="187" y2="187"/>
  <line x1="360" x2="360" y1="187" y2="257"/>
  <line x1="210" x2="360" y1="297" y2="297"/>
  <line x1="340" x2="400" y1="167" y2="167"/>
  <line x1="340" x2="340" y1="167" y2="237"/>
  <line x1="320" x2="400" y1="237" y2="237"/>
  <line x1="330" x2="480" y1="137" y2="137"/>
  <line x1="210" x2="480" y1="97" y2="97"/>
  <line x1="230" x2="260" y1="247" y2="247"/>
  <line x1="250" x2="250" y1="107" y2="227"/>
  <line x1="230" x2="260" y1="147" y2="147"/>
  <line x1="230" x2="230" y1="147" y2="247"/>
  <line x1="220" x2="270" y1="247" y2="247"/>
  <line x1="250" x2="260" y1="127" y2="127"/>
  <line x1="250" x2="250" y1="47" y2="127"/>
  <line x1="210" x2="250" y1="47" y2="47"/>
  <line x1="390" x2="405" y1="167" y2="167"/>
  <line x1="390" x2="405" y1="187" y2="187"/>
  <line x1="455.02" x2="465.02" y1="177" y2="177"/>
  <line x1="390" x2="405" y1="237" y2="237"/>
  <line x1="390" x2="405" y1="257" y2="257"/>
  <line x1="451" x2="460" y1="247" y2="247"/>
  <line x1="250" x2="270" y1="227" y2="227"/>
  <line x1="250" x2="270" y1="247" y2="247"/>
  <line x1="316" x2="330" y1="237" y2="237"/>
  <line x1="150" x2="165" y1="287" y2="287"/>
  <line x1="150" x2="165" y1="307" y2="307"/>
  <line x1="211" x2="220" y1="297" y2="297"/>
  <line x1="150" x2="165" y1="237" y2="237"/>
  <line x1="150" x2="165" y1="257" y2="257"/>
  <line x1="211" x2="220" y1="247" y2="247"/>
  <line x1="260" x2="275" y1="127" y2="127"/>
  <line x1="260" x2="275" y1="147" y2="147"/>
  <line x1="325" x2="330" y1="137" y2="137"/>
  <line x1="150" x2="165" y1="87" y2="87"/>
  <line x1="150" x2="165" y1="107" y2="107"/>
  <line x1="211" x2="220" y1="97" y2="97"/>
  <line x1="150" x2="165" y1="37" y2="37"/>
  <line x1="150" x2="165" y1="57" y2="57"/>
  <line x1="211" x2="220" y1="47" y2="47"/>
  <circle cx="340" cy="237" r="2"/>
  <circle cx="120" cy="277" r="2"/>
  <circle cx="140" cy="237" r="2"/>
  <circle cx="100" cy="257" r="2"/>
  <circle cx="140" cy="37" r="2"/>
  <circle cx="360" cy="257" r="2"/>
  <circle cx="230" cy="247" r="2"/>
  <circle cx="250" cy="127" r="2"/>
</svg>
