<svg viewBox="0 0 2048 2048" xmlns="http://www.w3.org/2000/svg" stroke-width="0.5" xmlns:xlink="http://www.w3.org/1999/xlink">
  <defs>
    <linearGradient id="linearGradient2517">
      <stop stop-color="#d27979" offset="0"/>
      <stop stop-color="#fd9c9c" offset="1"/>
    </linearGradient>
    <linearGradient id="linearGradient2501">
      <stop stop-color="#cecece" offset="0"/>
      <stop stop-color="#e6e6e6" offset="1"/>
    </linearGradient>
    <linearGradient id="linearGradient2493" x1="370" x2="609" y1="857" y2="792" gradientTransform="matrix(1.411 0 0 1.411 -403.96 -483.51)" gradientUnits="userSpaceOnUse" spreadMethod="reflect">
      <stop stop-color="#789880" offset="0"/>
      <stop stop-color="#8eb196" offset="1"/>
    </linearGradient>
    <linearGradient id="linearGradient2503" xlink:href="#linearGradient2501" x1="380" x2="444" y1="880" y2="864" gradientTransform="matrix(1.411 0 0 1.411 -403.96 -483.51)" gradientUnits="userSpaceOnUse" spreadMethod="reflect"/>
    <linearGradient id="linearGradient2519" xlink:href="#linearGradient2517" x1="441" x2="441" y1="940" y2="924" gradientUnits="userSpaceOnUse" spreadMethod="reflect"/>
    <linearGradient id="linearGradient2527" x1="504" x2="504" y1="924" y2="906" gradientUnits="userSpaceOnUse" spreadMethod="reflect">
      <stop stop-color="#fafafa" offset="0"/>
      <stop stop-color="#cfcfcf" offset="1"/>
    </linearGradient>
    <linearGradient id="linearGradient2537" xlink:href="#linearGradient2517" x1="571" x2="571" y1="940" y2="924" gradientUnits="userSpaceOnUse" spreadMethod="reflect"/>
    <linearGradient id="linearGradient2549" x1="498" x2="499" y1="903" y2="901" gradientUnits="userSpaceOnUse" spreadMethod="reflect">
      <stop stop-color="#757575" offset="0"/>
      <stop stop-color="#757575" offset=".5"/>
      <stop stop-color="#ccc" offset=".5"/>
      <stop stop-color="#ccc" offset="1"/>
    </linearGradient>
    <linearGradient id="linearGradient2691" x1="904" x2="904" y1="696" y2="672" gradientTransform="matrix(1.411 0 0 1.411 -403.96 -483.51)" gradientUnits="userSpaceOnUse">
      <stop stop-color="#5b7260" offset="0"/>
      <stop stop-color="#9ac1a3" offset=".70833"/>
      <stop stop-color="#5b7260" offset="1"/>
    </linearGradient>
    <linearGradient id="linearGradient2710" x1="1120" x2="1120" y1="847" y2="686" gradientTransform="matrix(1.411 0 0 1.411 -403.96 -483.51)" gradientUnits="userSpaceOnUse">
      <stop stop-color="#789880" offset="0"/>
      <stop stop-color="#a2cbab" offset=".78882"/>
      <stop stop-color="#5b7260" offset="1"/>
    </linearGradient>
    <linearGradient id="linearGradient2817" x1="992" x2="992" y1="924" y2="903" gradientTransform="matrix(1.411 0 0 1.411 -403.96 -483.51)" gradientUnits="userSpaceOnUse" spreadMethod="reflect">
      <stop stop-color="#fafafa" offset="0"/>
      <stop stop-color="#cfcfcf" offset="1"/>
    </linearGradient>
    <linearGradient id="linearGradient1271" x1="1492" x2="1492" y1="811" y2="685" gradientTransform="matrix(1.411 0 0 1.411 -403.96 -483.51)" gradientUnits="userSpaceOnUse">
      <stop stop-color="#8c8c8c" offset="0"/>
      <stop stop-color="#f5f5f5" offset=".72466"/>
      <stop stop-color="#8c8c8c" offset="1"/>
    </linearGradient>
    <filter width="1.006" height="1.0154" id="filter15471" x="-.0030012" y="-.0077062" color-interpolation-filters="sRGB">
      <feConvolveMatrix in="SourceGraphic" kernelMatrix="0 250 0 250 -1000 250 0 250 0" order="3 3" result="convolve"/>
      <feBlend in="convolve" in2="SourceGraphic" mode="multiply" result="blend"/>
      <feTurbulence baseFrequency="0.5 0.5" result="turbulence" seed="70" type="fractalNoise"/>
      <feColorMatrix in="blend" result="colormatrix1" type="luminanceToAlpha"/>
      <feComposite in="turbulence" in2="colormatrix1" k1="1" k2="1.3" operator="arithmetic" result="composite1"/>
      <feColorMatrix in="composite1" result="colormatrix2" values="1 0 0 0 0 0 1 0 0 0 0 0 1 0 0 0 0 0 10 -9 "/>
      <feGaussianBlur result="blur" stdDeviation="0.37101656"/>
      <feFlood flood-color="rgb(128,128,128)" result="flood1"/>
      <feComposite in="flood1" in2="blur" operator="out" result="composite2"/>
      <feFlood flood-color="rgb(0,0,0)" result="flood2"/>
      <feComposite in="flood2" in2="blur" operator="in" result="composite3"/>
      <feComposite in="composite3" in2="composite2" k2="1" k3="1" operator="arithmetic" result="composite4"/>
      <feComposite in2="SourceGraphic" operator="in" result="composite5"/>
    </filter>
    <linearGradient id="linearGradient15591" x1="949.2" x2="1436.5" y1="1239.6" y2="1239.6" gradientTransform="matrix(1.411 0 0 1.411 -403.96 -353)" gradientUnits="userSpaceOnUse">
      <stop stop-color="#ffc500" offset="0"/>
      <stop stop-color="#c00" offset="1"/>
    </linearGradient>
    <filter width="1" height="1" id="filter16117" x="0" y="0" color-interpolation-filters="sRGB">
      <feConvolveMatrix in="SourceGraphic" kernelMatrix="0 250 0 250 -1000 250 0 250 0" order="3 3" result="convolve"/>
      <feBlend in="convolve" in2="SourceGraphic" mode="multiply" result="blend"/>
      <feTurbulence baseFrequency="0.5 0.5" result="turbulence" seed="70" type="fractalNoise"/>
      <feColorMatrix in="blend" result="colormatrix1" type="luminanceToAlpha"/>
      <feComposite in="turbulence" in2="colormatrix1" k1="1" k2="1.3" operator="arithmetic" result="composite1"/>
      <feColorMatrix in="composite1" result="colormatrix2" values="1 0 0 0 0 0 1 0 0 0 0 0 1 0 0 0 0 0 10 -9 "/>
      <feGaussianBlur result="blur" stdDeviation="0.07554027"/>
      <feFlood flood-color="rgb(90,39,39)" result="flood1"/>
      <feComposite in="flood1" in2="blur" operator="out" result="composite2"/>
      <feFlood flood-color="rgb(192,51,51)" result="flood2"/>
      <feComposite in="flood2" in2="blur" operator="in" result="composite3"/>
      <feComposite in="composite3" in2="composite2" k2="1" k3="1" operator="arithmetic" result="composite4"/>
      <feComposite in2="SourceGraphic" operator="in" result="composite5"/>
    </filter>
    <linearGradient id="linearGradient16473" x1="948" x2="955.51" y1="1280.5" y2="1280.5" gradientTransform="matrix(1.411 0 0 1.411 -403.96 -353)" gradientUnits="userSpaceOnUse" spreadMethod="repeat">
      <stop stop-color="#e5e5e5" offset="0"/>
      <stop stop-color="#e5e5e5" offset=".48305"/>
      <stop stop-color="#595959" offset=".48305"/>
      <stop stop-color="#595959" offset="1"/>
    </linearGradient>
    <linearGradient id="linearGradient16676" x1="1585" x2="1582.7" y1="1368" y2="1371.6" gradientTransform="matrix(1.411 0 0 1.411 -403.96 -353)" gradientUnits="userSpaceOnUse" spreadMethod="repeat">
      <stop stop-color="#d9d9d9" offset="0"/>
      <stop stop-color="#d9d9d9" offset=".56969"/>
      <stop stop-color="#808080" offset=".56969"/>
      <stop stop-color="#808080" offset="1"/>
    </linearGradient>
    <linearGradient id="linearGradient16682" xlink:href="#linearGradient2517" x1="441" x2="441" y1="940" y2="924" gradientTransform="matrix(1.411 0 0 1.411 -403.96 -353)" gradientUnits="userSpaceOnUse" spreadMethod="reflect"/>
    <linearGradient id="linearGradient16702" xlink:href="#linearGradient2517" x1="441" x2="441" y1="940" y2="924" gradientTransform="matrix(1.411 0 0 1.411 -233.93 -353)" gradientUnits="userSpaceOnUse" spreadMethod="reflect"/>
    <linearGradient id="linearGradient16722" xlink:href="#linearGradient2517" x1="441" x2="441" y1="940" y2="924" gradientTransform="matrix(1.411 0 0 1.411 -63.904 -353)" gradientUnits="userSpaceOnUse" spreadMethod="reflect"/>
    <linearGradient id="linearGradient1587" xlink:href="#linearGradient2501" x1="380" x2="444" y1="880" y2="864" gradientTransform="matrix(1.411 0 0 1.411 -403.96 -353)" gradientUnits="userSpaceOnUse" spreadMethod="reflect"/>
    <linearGradient id="linearGradient1609" xlink:href="#linearGradient2517" x1="441" x2="441" y1="940" y2="924" gradientTransform="matrix(1.411 0 0 1.411 -403.96 -483.51)" gradientUnits="userSpaceOnUse" spreadMethod="reflect"/>
    <marker id="dot" overflow="visible" orient="auto">
      <circle r="4"/>
    </marker>
    <linearGradient id="linearGradient1587-4" xlink:href="#linearGradient2501" x1="380" x2="444" y1="880" y2="864" gradientTransform="matrix(1.411 0 0 1.411 -403.99 -1135.4)" gradientUnits="userSpaceOnUse" spreadMethod="reflect"/>
  </defs>
  <path fill="none" stroke="#000" d="m1795.8 1396.6 15.521 8.9609m-95.95-140.18v117.11l31.043 14.11h49.386l47.975-131.22"/>
  <path fill="#f2f2f2" stroke="#000" stroke-linecap="square" d="m1603.9 1474.5c-42.861 0-77.607 34.744-77.607 77.603s34.746 77.603 77.607 77.603 77.607-34.744 77.607-77.603-34.746-77.603-77.607-77.603z"/>
  <path fill="none" stroke="#000" stroke-linecap="square" d="m1603.9 1474.5c-42.861 0-77.607 34.744-77.607 77.603s34.746 77.603 77.607 77.603 77.607-34.744 77.607-77.603-34.746-77.603-77.607-77.603z"/>
  <path fill="url(#linearGradient16722)" stroke="#000" stroke-linecap="square" d="m1603.9 1485.8c-36.606 0.028-66.266 29.711-66.266 66.315 0 36.625 29.692 66.315 66.318 66.315 36.627 0 66.318-29.69 66.318-66.315s-29.692-66.315-66.318-66.315h-0.052z"/>
  <rect width="111.47" height="14.11" fill="#dedede" stroke="#000" stroke-linejoin="round" x="1548.9" y="1588.5"/>
  <path fill="#f2f2f2" stroke="#000" stroke-linecap="square" d="m1433.9 1474.5c-42.861 0-77.607 34.744-77.607 77.603s34.746 77.603 77.607 77.603 77.607-34.744 77.607-77.603-34.746-77.603-77.607-77.603z"/>
  <path fill="none" stroke="#000" stroke-linecap="square" d="m1433.9 1474.5c-42.861 0-77.607 34.744-77.607 77.603s34.746 77.603 77.607 77.603 77.607-34.744 77.607-77.603-34.746-77.603-77.607-77.603z"/>
  <path fill="url(#linearGradient16702)" stroke="#000" stroke-linecap="square" d="m1433.9 1485.8c-36.606 0.028-66.266 29.711-66.266 66.315 0 36.625 29.692 66.315 66.318 66.315 36.627 0 66.318-29.69 66.318-66.315s-29.692-66.315-66.318-66.315h-0.052z"/>
  <rect width="111.47" height="14.11" fill="#dedede" stroke="#000" stroke-linejoin="round" x="1378.9" y="1588.5"/>
  <path fill="#f2f2f2" stroke="#000" stroke-linecap="square" d="m1263.9 1474.5c-42.861 0-77.607 34.744-77.607 77.603s34.746 77.603 77.607 77.603 77.607-34.744 77.607-77.603-34.746-77.603-77.607-77.603z"/>
  <path fill="none" stroke="#000" stroke-linecap="square" d="m1263.9 1474.5c-42.861 0-77.607 34.744-77.607 77.603s34.746 77.603 77.607 77.603 77.607-34.744 77.607-77.603-34.746-77.603-77.607-77.603z"/>
  <path fill="url(#linearGradient16682)" stroke="#000" stroke-linecap="square" d="m1263.8 1485.8c-36.606 0.028-66.266 29.711-66.266 66.315 0 36.625 29.692 66.315 66.318 66.315 36.627 0 66.318-29.69 66.318-66.315s-29.692-66.315-66.318-66.315h-0.052z"/>
  <rect width="111.47" height="14.11" fill="#dedede" stroke="#000" stroke-linejoin="round" x="1208.8" y="1588.5"/>
  <path fill="#d9d9d9" stroke="#000" d="m1042.4 1546.2h-52.211l-34.106 11.288-19.513 18.343h-28.221v18.342h134.05z"/>
  <g stroke="#000">
    <path fill="#f2f2f2" d="m1015.1 1508.1c-33.356 0.21-60.287 27.31-60.287 60.67 0 16.09 6.393 31.52 17.771 42.9 11.379 11.38 26.811 17.77 42.906 17.77 16.09 0 31.52-6.39 42.9-17.77s17.77-26.81 17.77-42.9-6.39-31.52-17.77-42.9-26.81-17.77-42.9-17.77h-0.39zm0.03 11.28h0.36c27.27 0 49.38 22.12 49.38 49.39s-22.11 49.39-49.38 49.39c-27.278 0-49.389-22.12-49.389-49.39 0-27.13 21.891-49.19 49.029-49.39z"/>
    <path fill="url(#linearGradient2519)" d="m1015.1 1519.4c-27.131 0.2-49.022 22.26-49.021 49.39 0 27.27 22.11 49.39 49.381 49.39 27.28 0 49.39-22.12 49.39-49.39s-22.11-49.39-49.39-49.39h-0.36zm-34.911 40.92c4.676 0 8.466 3.79 8.466 8.47s-3.79 8.47-8.466 8.47-8.466-3.79-8.466-8.47 3.79-8.47 8.466-8.47zm35.271 35.28c4.68 0 8.47 3.79 8.47 8.47 0 4.67-3.79 8.46-8.47 8.46-4.67 0-8.46-3.79-8.46-8.46 0-4.68 3.79-8.47 8.46-8.47z"/>
  </g>
  <use width="100%" height="100%" xlink:href="#path181-4" transform="translate(0,782.37)"/>
  <path fill="#d9d9d9" stroke="#000" d="m1378.2 1262.6c0 8.4658-15.521 12.699-32.454 12.699-16.932 0-32.454-4.2329-32.454-12.699v-16.932c0-8.4658 15.521-12.699 32.454-12.699 16.932 0 32.454 4.2329 32.454 12.699z"/>
  <path fill="#adc0b2" stroke="#000" d="m1033.9 1292.2v-45.151h-313.25v45.151"/>
  <path fill="#adc0b2" stroke="#000" d="m1033.9 1285.1v155.21h-222.94v-155.21"/>
  <path fill="#bfcae0" stroke="#000" d="m1622.3 1265.4v177.78h-416.25l-29.632 35.274v15.521l-251.16-32.452 46.564-183.43c0.7164-2.8219 2.4721-6.9755 5.6441-7.0548l56.441-1.411c48.894-0.3266 110.65-2.9868 215.89-4.2329 87.836-1.0399 206.29 0 372.51 0z"/>
  <path fill="#e5e5e5" stroke="#000" d="m1033.9 1285.1h-222.94z"/>
  <path fill="#eaf0f5" stroke="#000" d="m1622.3 1300.7h-656.13l5.6441-22.576c0.7164-2.8219 2.4721-6.9755 5.6441-7.0548l56.441-1.411c48.894-0.3266 110.65-2.9868 215.89-4.2329 87.836-1.0399 206.29 0 372.51 0z"/>
  <path fill="#d9d9d9" stroke="#000" d="m1485.4 1265.2v-22.38c0-2.822 2.8221-5.6439 7.0552-5.6439h50.797c4.2331-0.076 7.0552 2.8219 7.0552 5.6439v22.515"/>
  <path fill="#d9d9d9" d="m1549.7 1265.1c-2.9511 6.6611-16.86 10.168-31.88 10.168-15.102 0-29.081-3.5435-31.927-10.278"/>
  <path fill="#adc0b2" stroke="#000" d="m720.63 1285.1h62.085v222.93h-664.59v-184.84h183.43l33.865-31.041h385.21z"/>
  <path fill="#bec9df" stroke="#000" d="m118.12 1508.1v-170.73h314.66l191.9 103h172.15l49.386 67.726z"/>
  <path fill="url(#linearGradient1587)" stroke="#000" d="m792.82 1515.1-0.2271 52.206-15.521-31.041h-570.06l-9.8772 9.8768h-79.018v-31.041z"/>
  <path fill="#bfbfbf" stroke="#000" d="m861.73 769.42h53.619v7.0548h-53.619z"/>
  <path fill="#728d77" stroke="#000" d="m933.69 680.53v14.11l118.53 103 104.42-83.247v-5.6439z"/>
  <path fill="url(#linearGradient2710)" stroke="#000" d="m1622.3 483v177.78h-416.25l-29.632 35.274v15.521l-251.16-32.452v-176.37h108.65v-15.521c48.894-0.32671 110.65-2.987 215.89-4.2329 87.836-1.04 206.29 0 372.51 0z"/>
  <path fill="#74917a" stroke="#000" d="m1378.2 480.18c0 8.4658-15.521 12.699-32.454 12.699-16.932 0-32.454-4.2329-32.454-12.699v-16.932c0-8.4658 15.521-12.699 32.454-12.699 16.932 0 32.454 4.2329 32.454 12.699z"/>
  <path fill="#b0b5b0" stroke="#000" d="m1368.3 643.85v25.397h-9.8772v-25.397z"/>
  <path fill="#799a81" stroke="#000" d="m1033.9 502.75v155.21h-222.94v-155.21z"/>
  <rect width="68.667" height="67.726" fill="#b6b594" stroke="#000" stroke-linecap="square" x="956.39" y="511.22" rx="4.2331" ry="4.2329"/>
  <rect width="68.667" height="67.726" fill="#b6b594" stroke="#000" stroke-linecap="square" x="877.37" y="511.22" rx="4.2331" ry="4.2329"/>
  <rect width="33.865" height="67.726" fill="#b6b594" stroke="#000" stroke-linecap="square" x="820.11" y="511.22" rx="4.2331" ry="4.2329"/>
  <path fill="url(#linearGradient1271)" stroke="#000" d="m1843.8 571.89v66.315c4.2331 0 9.8772-4.2329 9.8772-8.4658v-57.85m-9.8772 0v-66.315c4.2331 0 9.8772 4.2329 9.8772 8.4658v57.85"/>
  <path fill="#d9d9d9" stroke="#000" d="m1867.8 480.18v-40.918m-26.81 0c-11.288 0-11.288 40.918 0 40.918m23.988 0h9.8772v-40.918h-33.865v40.918z"/>
  <path fill="#bfbfbf" stroke="#000" d="m1843.8 491.46h21.165v-15.521h-21.165z"/>
  <path fill="url(#linearGradient1271)" stroke="#000" d="m1630.7 483v177.78m213.07-177.78h-221.53v177.78h221.53z"/>
  <path fill="#e5e5e5" stroke="#000" stroke-linejoin="round" stroke-linecap="square" d="m1818.9 660.29a11.288 11.288 0 0 1 0-15.963 11.288 11.288 0 0 1 15.964 0 11.288 11.288 0 0 1 0 15.963"/>
  <path fill="#b2b2b2" stroke="#000" d="m1822.4 652.14 59.513 80.587 5.6755-4.1909-59.513-80.587c-2.8115-1.4319-6.2167 1.0826-5.6754 4.1909z"/>
  <path id="path181-4" fill="url(#linearGradient1587-4)" stroke="#000" d="m1580 736.93h47.975v11.288h-47.975zm-340.06 0h47.975v11.288h-47.975zm170.03 0h47.975v11.288h-47.975zm76.196 1.411h21.684c3.1268 0 5.6441 2.5172 5.6441 5.6439v35.274c0 3.1267-2.5173 5.6439-5.6441 5.6439h-21.684c-3.1268 0-5.6441-2.5172-5.6441-5.6439v-35.274c0-3.1267 2.5173-5.6439 5.6441-5.6439zm43.929 0h21.684c2.822 0 5.6441 2.4218 5.6441 5.6439v35.274c0 3.1267-2.5173 5.6439-5.6441 5.6439h-21.684c-3.1268 0-5.6441-2.5172-5.6441-5.6439v-35.274c0-3.1267 2.5173-5.6439 5.6441-5.6439zm-327.55 2.8219h12.699c3.5177 0 6.3496 2.8318 6.3496 6.3494v32.452c0 3.5175-2.8319 6.3493-6.3496 6.3493h-12.699c-3.5177 0-6.3496-2.8318-6.3496-6.3493v-32.452c0-3.5176 2.8319-6.3494 6.3496-6.3494zm111.47 0h19.382c3.5177 0 6.3496 2.8318 6.3496 6.3494v32.452c0 3.5175-2.8319 6.3493-6.3496 6.3493h-19.382c-3.5177 0-6.3496-2.8318-6.3496-6.3493v-32.452c0-3.5176 2.8319-6.3494 6.3496-6.3494zm50.516 0h18.646c3.5175 0 6.3496 2.8318 6.3496 6.3494v32.452c0 3.5175-2.8321 6.3493-6.3496 6.3493h-18.646c-3.5177 0-6.3496-2.8318-6.3496-6.3493v-32.452c0-3.5176 2.8319-6.3494 6.3496-6.3494zm-284.04 5.6439h70.551v22.575c0 2.5296-0.7055 7.0549-8.4661 5.6439l-62.085-11.288c-11.288-2.0523-5.6441-16.932 0-16.932zm-138.27 16.931h95.95l59.263 38.096h131.23v7.0548h12.699v-15.521h47.909l0.066 15.521h12.699v-7.0548h95.95v7.0548h12.699v-15.521h47.975v15.521h12.699v-7.0548h97.361v7.0548h12.699v-15.521h47.975v15.521h12.699v-9.8768h26.81l28.221-11.288h115.7l12.699-16.932h105.83v-46.562h-108.65l-23.988 32.494h-83.27l-64.888-33.905-451.53 1e-3 -19.754 7.0548h-237.05l-3e-3 4.2792"/>
  <path fill="#e2e2e2" stroke="#000" d="m942.17 772.25h-39.517v-38.096l39.517 2e-3v-4.2772h3.4684"/>
  <rect width="64.907" height="45.151" fill="#c2c2c0" stroke="#000" stroke-linejoin="round" stroke-linecap="square" x="1636.4" y="478.76" rx="5.6441" ry="5.6439"/>
  <path fill="none" stroke="#000" d="m1313.3 463.24h65.317"/>
  <path fill="#74917a" stroke="#000" d="m1550.3 480.18c0 8.4658-15.521 12.699-32.454 12.699-16.932 0-32.454-4.2329-32.454-12.699v-19.754c0-2.8219 2.8221-5.6439 7.0552-5.6439h50.797c4.2331-0.0768 7.0552 2.8219 7.0552 5.6439z"/>
  <path fill="#74917a" stroke="#000" d="m1485.4 468.89h-14.11v4.2329h14.11z"/>
  <path fill="#74917a" stroke="#000" d="m1475.5 451.96v16.932h4.2331v-16.932"/>
  <path fill="#74917a" stroke="#000" d="m1475.5 457.6v11.288h-4.2331v-11.288"/>
  <path fill="#c2c2c0" stroke="#000" d="m1787.4 447.72c-2.8221 5.6439-12.699 28.219 2.8221 29.63v7.0548c-26.81 7.0548-38.098 7.0548-64.907 0v-7.0548c15.521-1.411 5.6441-23.986 2.8221-29.63v-2.8219h59.263z"/>
  <path fill="#dbdbd7" stroke="#000" stroke-linejoin="round" stroke-linecap="square" d="m1725.3 477.35c-1.411 0-3.5621 1.4474-3.7065 2.8219 0.8844 5.6439 16.126 12.699 36.16 12.699 20.035 7e-5 35.276-7.0548 36.16-12.699-0.1443-1.3745-2.2954-2.8219-3.7064-2.8219-3.2128 5.629-16.615 8.3776-32.454 8.3776-15.839 1e-5 -29.241-2.7486-32.454-8.3776z"/>
  <path fill="#dbdbd7" stroke="#000" stroke-linejoin="round" stroke-linecap="square" d="m1784.5 447.72c3.1269 0 5.6442-1.6447 5.6442-3.6878 0-2.043-2.5173-3.6877-5.6442-3.6877h-53.619c-3.1268 0-5.6441 1.6447-5.6441 3.6877s2.5173 3.6878 5.6441 3.6878z"/>
  <path fill="#a6a6a6" stroke="#000" d="m1942.6 738.38-11.288-8.4658v31.041l11.288-8.4658z"/>
  <path fill="#bfbfbf" stroke="#000" d="m1948.2 738.38h-5.6441v14.11h5.6441z"/>
  <path fill="#a6a6a6" stroke="#000" stroke-linejoin="round" d="m1948.2 738.38 12.699-11.288h8.4662v36.685h-8.4662l-12.699-11.288z"/>
  <path fill="#e5e5e5" stroke="#000" stroke-linejoin="round" d="m1969.4 763.78 8.4662-2.8219v-31.041l-8.4662-2.8219z"/>
  <path fill="#a6a6a6" stroke="#000" d="m1977.9 736.97 5.6441 2.8219v11.288l-5.6441 2.8219z"/>
  <path fill="#ccc" stroke="#000" d="m1953.9 745.44v-5.6439h11.288v5.6439z"/>
  <path fill="#d9d9d9" stroke="#000" d="m1948.1 716.3v-28.716m-18.815 0c-7.9221 0-7.9221 28.716 0 28.716m16.834 0h6.9318v-28.716h-23.766v28.716z"/>
  <path fill="#bfbfbf" stroke="#000" d="m1931.3 724.23h14.854v-10.892h-14.854z"/>
  <g stroke="#000" stroke-linecap="square">
    <circle r="60.673" fill="#f2f2f2" cx="1015.5" cy="786.39"/>
    <circle r="56.44" fill="#e5e5e5" cx="1015.5" cy="786.39"/>
    <circle r="49.385" fill="url(#linearGradient2519)" cx="1015.5" cy="786.39"/>
  </g>
  <path fill="#f2f2f2" stroke="#000" stroke-linecap="square" d="m1873.3 741.2a53.619 53.617 0 0 0-53.509 53.617 53.619 53.617 0 0 0 53.619 53.617 53.619 53.617 0 0 0 53.619-53.617 53.619 53.617 0 0 0-53.619-53.617 53.619 53.617 0 0 0-0.1101 0zm-0.093 11.288c0.069-1.7e-4 0.1368-1.7e-4 0.2039 0 23.379 0 42.331 18.951 42.331 42.329s-18.952 42.329-42.331 42.329-42.331-18.951-42.331-42.329c-3e-4 -23.298 18.828-42.217 42.127-42.329z"/>
  <path fill="#e5e5e5" stroke="#000" stroke-linecap="square" d="m1873.4 746.85a47.975 47.973 0 0 0-47.975 47.973 47.975 47.973 0 0 0 47.975 47.973 47.975 47.973 0 0 0 47.975-47.973 47.975 47.973 0 0 0-47.975-47.973zm-0.2039 5.6439c0.069-1.7e-4 0.1369-1.7e-4 0.2039 0 23.379 0 42.331 18.951 42.331 42.329s-18.952 42.329-42.331 42.329-42.331-18.951-42.331-42.329c-3e-4 -23.298 18.828-42.217 42.127-42.329z"/>
  <path fill="#d2d2d1" stroke="#000" d="m1043.8 487.23v-8.4658h8.4662v8.4658z"/>
  <ellipse fill="#d2d2d1" stroke="#000" stroke-linejoin="round" stroke-linecap="square" cx="1048" cy="470.3" rx="8.4662" ry="8.4658"/>
  <path fill="#d2d2d1" stroke="#000" d="m1056.5 457.6c0 5.6439-4.2331 9.8768-8.4662 9.8768s-8.4662-4.2329-8.4662-9.8768z"/>
  <path fill="#d2d2d1" stroke="#000" d="m1040.9 457.6v-28.219h14.11v28.219z"/>
  <path fill="#d2d2d1" stroke="#000" d="m1039.5 425.15h16.932v4.2329h-16.932z"/>
  <path fill="#c2c2c0" stroke="#000" d="m1046.6 425.15v-7.0548h2.822v7.0548z"/>
  <path fill="#c4c4be" stroke="#000" d="m1048 418.09v-1.411"/>
  <path fill="#b0b5b0" stroke="#000" d="m1454.4 639.61v25.397h-9.8772v-25.397z"/>
  <path fill="#b0b5b0" stroke="#000" d="m1534.8 643.85v25.397h-9.8772v-25.397z"/>
  <path fill="#e5e6e5" stroke="#000" d="m1548.9 650.9-515.03-18.343v5.6439l515.03 16.932z"/>
  <path fill="#a6a6a6" stroke="#000" d="m1722.5 665.01h-12.699v-15.521h94.539v15.521h-12.699v-4.2329h-69.14z"/>
  <path fill="#e9e9e9" stroke="#000" d="m1931.3 720.04h-4.2331v-100.18h4.2331z"/>
  <path fill="#e9e9e9" stroke="#000" d="m1853.7 720.04h4.2331v-100.18h-4.2331z"/>
  <path fill="#d5d5d5" stroke="#000" d="m1800.1 732.74v7.0548l2.822 2.8219v5.6439l-4.2331 2.8219v2.8219h5.6442l1.411-1.411v-19.754z"/>
  <path fill="#a6a6a6" stroke="#000" d="m1805.7 704.52v-4.2329h7.0551v36.685h-7.0551v-4.2329h-5.6441v9.8768h-1.4111v8.4658l7.0552 8.4658v18.343l-7.0552 8.4658v8.4658h1.4111v11.288h-8.4662v-5.6439h-69.14v7.0548h-8.4661v-14.11l9.8772-11.288h-8.4662v5.6439h-7.0551v-35.274h7.0551v4.2329h9.8772l-11.288-14.11h-9.8772v-5.6439h-5.6442v-11.288h-4.233v-14.11h4.233v-11.288h7.0552v4.2329h36.687v-8.4658h-1.4111v-9.8768h2.8221v-25.397h26.81v25.397h2.8221v9.8768h-1.411v8.4658z"/>
  <path fill="#d9d9d9" stroke="#000" d="m1749.3 729.92v-39.507h-8.4662v-4.2329h8.4662v-97.357c0-4.2329 1.411-7.0548 7.7607-7.0548 6.3496 0 7.7606 2.8219 7.7606 7.0548v97.357h8.4662v4.2329h-8.4662v39.507z"/>
  <path fill="#e5e6e5" stroke="#000" d="m1815.6 691.82h12.699v-2.8219h-15.521"/>
  <path fill="#e5e5e5" stroke="#000" stroke-linejoin="round" d="m1790.2 744.03h-70.552l20.46 25.397-21.871 25.397h71.962z"/>
  <path fill="#e5e5e5" stroke="#000" d="m1790.2 748.26v40.918l12.699-14.11v-12.699z"/>
  <path fill="#d8d9d8" stroke="#000" d="m1668.8 775.07h105.83v-12.699h-105.83z"/>
  <path fill="#ccc" stroke="#000" d="m1763.4 752.49 7.0551 9.8768v14.11l-7.0551 8.4658z"/>
  <path fill="#e5e5e5" stroke="#000" stroke-linejoin="round" d="m1730.9 729.92-7.0551 14.11h-4.2331l5.6441-14.11h-19.754v-22.575h101.59v22.575h-22.576l5.6442 14.11h-4.2331l-7.0552-14.11z"/>
  <path fill="none" stroke="#000" d="m1705.5 725.68h101.59v-14.11h-101.59z"/>
  <path fill="none" stroke="#000" d="m1746.4 725.68v4.2329"/>
  <path fill="none" stroke="#000" d="m1767.6 725.68v4.2329"/>
  <path fill="none" stroke="#000" d="m1725.3 729.92v-4.2329"/>
  <path fill="none" stroke="#000" d="m1784.5 729.92v-4.2329"/>
  <path fill="#d8d9d8" stroke="#000" d="m1784.5 720.74h-105.83v-4.2329h105.83z"/>
  <rect width="12.699" height="50.795" fill="#d9d9d9" stroke="#000" stroke-linecap="square" x="1750.7" y="744.03"/>
  <path fill="#d4d4d4" stroke="#000" d="m1790.2 665.01v39.507h15.521v-39.507zm7.7606 7.7603a4.9386 4.9384 0 0 1 4.9386 4.9384 4.9386 4.9384 0 0 1-4.9386 4.9384 4.9386 4.9384 0 0 1-4.9386-4.9384 4.9386 4.9384 0 0 1 4.9386-4.9384zm0 16.507a4.9386 4.9384 0 0 1 4.9386 4.9384 4.9386 4.9384 0 0 1-4.9386 4.9384 4.9386 4.9384 0 0 1-4.9386-4.9384 4.9386 4.9384 0 0 1 4.9386-4.9384z"/>
  <path fill="#d4d4d4" stroke="#000" d="m1709.1 665.01v39.507h15.521v-39.507zm7.7606 7.7603a4.9386 4.9384 0 0 1 4.9386 4.9384 4.9386 4.9384 0 0 1-4.9386 4.9384 4.9386 4.9384 0 0 1-4.9386-4.9384 4.9386 4.9384 0 0 1 4.9386-4.9384zm0 16.507a4.9386 4.9384 0 0 1 4.9386 4.9384 4.9386 4.9384 0 0 1-4.9386 4.9384 4.9386 4.9384 0 0 1-4.9386-4.9384 4.9386 4.9384 0 0 1 4.9386-4.9384z"/>
  <path fill="#e5e6e5" stroke="#000" d="m1783.1 656.55h14.11v-2.8219h-16.932"/>
  <path fill="url(#linearGradient1609)" stroke="#000" stroke-linecap="square" d="m1873.2 752.49a42.331 42.329 0 0 0-42.127 42.329 42.331 42.329 0 0 0 42.331 42.329 42.331 42.329 0 0 0 42.331-42.329 42.331 42.329 0 0 0-42.331-42.329 42.331 42.329 0 0 0-0.2039 0zm0.2039 2.8219a7.0551 7.0548 0 0 1 7.0551 7.0548 7.0551 7.0548 0 0 1-7.0551 7.0548 7.0551 7.0548 0 0 1-7.0552-7.0548 7.0551 7.0548 0 0 1 7.0552-7.0548zm-32.454 32.452a7.0551 7.0548 0 0 1 7.0552 7.0548 7.0551 7.0548 0 0 1-7.0552 7.0549 7.0551 7.0548 0 0 1-7.0551-7.0549 7.0551 7.0548 0 0 1 7.0551-7.0548zm64.907 0a7.0551 7.0548 0 0 1 7.0551 7.0548 7.0551 7.0548 0 0 1-7.0551 7.0549 7.0551 7.0548 0 0 1-7.0552-7.0549 7.0551 7.0548 0 0 1 7.0552-7.0548zm-32.454 32.452a7.0551 7.0548 0 0 1 7.0551 7.0549 7.0551 7.0548 0 0 1-7.0551 7.0548 7.0551 7.0548 0 0 1-7.0552-7.0548 7.0551 7.0548 0 0 1 7.0552-7.0549z"/>
  <ellipse fill="#dadada" stroke="#000" stroke-linecap="square" cx="1873.4" cy="794.82" rx="11.288" ry="11.288"/>
  <path fill="#e9e9e9" stroke="#000" d="m1688.6 652.31h4.2331v-93.124h-4.2331z"/>
  <path fill="#e9e9e9" stroke="#000" d="m1524.9 652.31h4.2331v-93.124h-4.2331z"/>
  <path fill="#e9e9e9" stroke="#000" d="m1361.2 652.31h4.2331v-93.124h-4.2331z"/>
  <path fill="#e9e9e9" stroke="#000" d="m1197.6 652.31h4.2331v-93.124h-4.2331z"/>
  <path fill="#e9e9e9" stroke="#000" d="m1033.9 652.31h4.2331v-93.124h-4.2331z"/>
  <path fill="#d4ded4" stroke="#000" d="m1587 667.83c2.8221 0 2.8221-1.411 2.8221-4.2329v-36.685h-2.8221v-39.507h-1.411v-38.096h-14.11v38.096h-1.411v39.507h-2.8221v36.685c0 2.8219 0 4.2329 2.8221 4.2329z"/>
  <path fill="#e3e8e3" stroke="#000" d="m1581.4 587.41h9.8772v-21.164h2.8221v-7.0548h-31.043v7.0548h2.8221v21.164h9.8772"/>
  <path fill="none" stroke="#000" d="m1591.2 566.24h-25.398"/>
  <path fill="#d4ded4" stroke="#000" d="m1571.5 545.08v-7.0548h14.11v7.0548z"/>
  <path fill="#d4ded4" stroke="#000" d="m1574.3 545.08v4.2329h8.4661v-4.2329z"/>
  <path fill="#e3e8e3" stroke="#000" d="m1565.8 598.7v28.219h25.398v-28.219z"/>
  <path fill="#e3e8e3" stroke="#000" d="m1564.4 631.15v5.6439h28.22v-5.6439z"/>
  <path fill="none" stroke="#000" d="m1567.2 642.44h22.576"/>
  <path fill="#d4ded4" stroke="#000" d="m1581.4 576.12h-5.2661v66.315h5.2661z"/>
  <g id="g1463" stroke="#000">
    <path fill="#f2f2f2" d="m1198.9 686.21v7.055l45.15 15.521h39.51l45.15-15.521v-7.055z"/>
    <path fill="#f2f2f2" d="m1258.2 683.39v29.631h11.29v-29.631z"/>
    <path fill="#f2f2f2" d="m1254 713.02h19.76v7.055h-19.76z"/>
    <path fill="#ccc" d="m1206 676.33v79.016h5.64v-79.016z"/>
    <path fill="#bfbfbf" stroke-linejoin="round" d="m1203.2 680.56 2.82 1.411h5.64l2.83-1.411v5.644l-2.83 1.411h-5.64l-2.82-1.134z"/>
    <path fill="none" d="m1203.2 680.56h2.82"/>
    <path fill="none" d="m1214.5 680.56h-2.83"/>
    <path fill="none" d="m1203.2 742.65h2.82"/>
    <path fill="#ccc" d="m1316 676.33v79.016h5.64v-79.016z"/>
    <path fill="#bfbfbf" stroke-linejoin="round" d="m1313.2 680.56 2.82 1.411h5.64l2.83-1.411v5.644l-2.83 1.411h-5.64l-2.82-1.134z"/>
    <path fill="none" d="m1313.2 680.56h2.82"/>
    <path fill="none" d="m1324.5 680.56h-2.83"/>
    <path fill="none" d="m1324.5 742.65h-2.83"/>
  </g>
  <g id="g1057" stroke="#000" stroke-linecap="square">
    <path fill="#f2f2f2" d="m1263.8 692.16c-20.58 0-40.32 8.176-54.87 22.73-14.56 14.554-22.73 34.293-22.73 54.875s8.17 40.321 22.73 54.875c14.55 14.554 34.29 22.73 54.87 22.73s40.32-8.176 54.88-22.73c14.55-14.554 22.73-34.293 22.73-54.875 0-42.86-34.75-77.605-77.61-77.605zm-0.05 11.288h0.05c36.63 0 66.32 29.692 66.32 66.317 0 36.626-29.69 66.317-66.32 66.317-36.62 0-66.31-29.691-66.31-66.317 0-36.605 29.66-66.289 66.26-66.317z"/>
    <path fill="#e5e5e5" d="m1263.8 696.39c-19.46 0-38.12 7.73-51.88 21.49s-21.49 32.423-21.49 51.882c0 19.46 7.73 38.122 21.49 51.882s32.42 21.49 51.88 21.49c40.53 0 73.37-32.85 73.37-73.372 0-19.459-7.73-38.122-21.49-51.882s-32.42-21.49-51.88-21.49zm-0.05 7.055h0.05c36.63 0 66.32 29.692 66.32 66.317 0 36.626-29.69 66.317-66.32 66.317-36.62 0-66.31-29.691-66.31-66.317 0-36.605 29.66-66.289 66.26-66.317z"/>
    <path fill="url(#linearGradient2519)" d="m1263.8 703.45c-36.6 0.029-66.26 29.712-66.26 66.317 0 17.589 6.98 34.457 19.42 46.893 12.44 12.437 29.31 19.424 46.9 19.424 17.58 0 34.45-6.987 46.89-19.424 12.44-12.436 19.42-29.304 19.42-46.893 0-17.588-6.98-34.456-19.42-46.893s-29.31-19.424-46.89-19.424h-0.06zm0.06 5.644c12.17 0 24.35 3.659 34.8 10.974h-69.61c10.45-7.315 22.63-10.974 34.81-10.974zm-40.95 23.987h0.03c3.74 0 7.33 1.487 9.97 4.133 2.65 2.646 4.14 6.235 4.14 9.977s-1.49 7.331-4.14 9.977c-2.64 2.647-6.23 4.133-9.97 4.133-3.75 0-7.34-1.486-9.98-4.133-2.65-2.646-4.13-6.235-4.13-9.977 0-7.782 6.3-14.095 14.08-14.11zm81.84 0h0.02c3.75 0 7.34 1.487 9.98 4.133 2.65 2.646 4.13 6.235 4.13 9.977s-1.48 7.331-4.13 9.977c-2.64 2.647-6.23 4.133-9.98 4.133-3.74 0-7.33-1.486-9.97-4.133-2.65-2.646-4.14-6.235-4.14-9.977 0-7.782 6.3-14.095 14.09-14.11zm-81.84 45.152h0.03c3.74 0 7.33 1.487 9.97 4.133 2.65 2.646 4.14 6.235 4.14 9.977s-1.49 7.331-4.14 9.977c-2.64 2.647-6.23 4.133-9.97 4.133-3.75 0-7.34-1.486-9.98-4.133-2.65-2.646-4.13-6.235-4.13-9.977 0-7.782 6.3-14.095 14.08-14.11zm81.84 0h0.02c3.75 0 7.34 1.487 9.98 4.133 2.65 2.646 4.13 6.235 4.13 9.977s-1.48 7.331-4.13 9.977c-2.64 2.647-6.23 4.133-9.98 4.133-3.74 0-7.33-1.486-9.97-4.133-2.65-2.646-4.14-6.235-4.14-9.977 0-7.782 6.3-14.095 14.09-14.11zm-40.97 43.427c0.03-1e-3 0.05-1e-3 0.08 0 1.12 0 2.19 0.446 2.99 1.239 0.79 0.794 1.24 1.871 1.24 2.994 0 1.122-0.45 2.199-1.24 2.993-0.8 0.794-1.87 1.24-2.99 1.24-1.13 0-2.2-0.446-3-1.24-0.79-0.794-1.24-1.871-1.24-2.993 0-2.311 1.85-4.194 4.16-4.233z"/>
    <path fill="#e5e5e5" d="m1289.2 769.77c0 6.736-2.67 13.196-7.44 17.959-4.76 4.763-11.22 7.439-17.96 7.439-6.73 0-13.19-2.676-17.96-7.439-4.76-4.763-7.44-11.223-7.44-17.959s2.68-13.196 7.44-17.959c4.77-4.763 11.23-7.439 17.96-7.439 6.74 0 13.2 2.676 17.96 7.439 4.77 4.763 7.44 11.223 7.44 17.959z"/>
    <path fill="#c7c7c7" d="m1278 769.77c0 3.742-1.48 7.331-4.13 9.977s-6.23 4.133-9.98 4.133c-3.74 0-7.33-1.487-9.97-4.133-2.65-2.646-4.14-6.235-4.14-9.977s1.49-7.331 4.14-9.977c2.64-2.646 6.23-4.133 9.97-4.133 3.75 0 7.33 1.487 9.98 4.133s4.13 6.235 4.13 9.977z"/>
    <path fill="#fafafa" d="m1269.5 769.77c0 1.497-0.6 2.932-1.66 3.991-1.05 1.058-2.49 1.653-3.99 1.653-1.49 0-2.93-0.595-3.99-1.653-1.06-1.059-1.65-2.494-1.65-3.991s0.59-2.932 1.65-3.991c1.06-1.058 2.5-1.653 3.99-1.653 1.5 0 2.94 0.595 3.99 1.653 1.06 1.059 1.66 2.494 1.66 3.991z"/>
  </g>
  <use width="100%" height="100%" xlink:href="#g1463" transform="translate(170.03)"/>
  <use width="100%" height="100%" xlink:href="#g1057" transform="translate(170.03 6e-5)"/>
  <use width="100%" height="100%" xlink:href="#g1463" transform="translate(340.06)"/>
  <use width="100%" height="100%" xlink:href="#g1057" transform="translate(340.06)"/>
  <use width="100%" height="100%" xlink:href="#g1277" transform="translate(340.06)"/>
  <path fill="#d9d9d9" stroke="#000" d="m1551.7 712.98s2.822-18.343 5.6441-29.63c0.6652-2.6605 0-5.6439-4.2331-7.0548-4.2331-1.411-7.6435 2.3536-8.4662 5.6439-2.822 11.288-2.822 31.041-2.822 31.041z"/>
  <path fill="#e5e6e5" stroke="#000" d="m1519.3 660.78v57.85h4.2331v-57.85z"/>
  <ellipse fill="none" stroke="#fd0000" stroke-linejoin="round" stroke-linecap="square" cx="1548.9" cy="721.45" rx="7.0551" ry="7.0548"/>
  <path fill="#d9d9d9" stroke="#000" d="m1661.8 780.71-28.221-12.699v-5.6439h28.221z"/>
  <path fill="#bfbfbf" stroke="#000" d="m1670.3 756.72c-4.2331 0-9.8772 1.411-9.8772 4.2329v25.397h8.4661"/>
  <path fill="#d9d9d9" stroke="#000" stroke-linejoin="round" stroke-linecap="square" d="m1666.2 787.11a5.6441 5.6439 0 0 1-5.7 5.64 5.6441 5.6439 0 0 1-5.6-5.64 5.6441 5.6439 0 0 1 5.6-5.65 5.6441 5.6439 0 0 1 5.7 5.65z"/>
  <path fill="#b2b2b2" stroke="#000" d="m1608.2 751.08h50.797c0 4.2329-1.411 7.0548-7.0551 7.0548h-36.687c-5.6441 0-7.0551-2.8219-7.0551-7.0548z"/>
  <path fill="#d9d9d9" stroke="#000" d="m1603.9 792h-166.5v16.808h166.5z"/>
  <path fill="#bfbfbf" stroke="#000" d="m1632.1 758.26-196.13 33.863 2.881 16.685 196.13-33.863z"/>
  <path fill="#bfbfbf" stroke="#000" stroke-linecap="square" d="m1651.9 766.6c-4e-4 6.4122-3.3495 12.359-8.8328 15.683 0.2424 0.8657 0.366 1.7604 0.3666 2.6594 0 5.4548-4.4222 9.8767-9.8772 9.8767s-9.8772-4.4219-9.8772-9.8767c6e-4 -0.899 0.1242-1.7937 0.3666-2.6594-5.4833-3.3245-8.8324-9.271-8.8328-15.683v-8.4658h36.687z"/>
  <path fill="#d9d9d9" stroke="#000" d="m1534.7 779.37-61.027 10.536c-6.5692 1.1342-5.1286 9.4767 1.4406 8.3424l61.101-10.549m-1.3656-8.3553 67.006-11.569c6.5692-1.1342 8.0097 7.2083 1.4405 8.3425l-67.081 11.582"/>
  <use width="100%" height="100%" xlink:href="#g1277" transform="translate(170.03 6e-5)"/>
  <path fill="#b2b2b2" stroke="#000" d="m1560.2 772.25h-112.88v-8.4658h112.88"/>
  <path fill="#c7c7c7" stroke="#000" d="m1348.5 484.41h-4.2331v290.66c0 24.614-11.232 49.764-33.865 62.082l1.8864 3.4784c23.877-12.331 36.211-38.563 36.211-65.561z"/>
  <path fill="#d9d9d9" stroke="#000" d="m1263.9 792h134.05v16.808h-134.05z"/>
  <path fill="#b2b2b2" stroke="#000" stroke-linecap="square" d="m1247 800.46c0 9.338 7.56 16.912 16.9 16.93 9.34-0.018 16.9-7.592 16.9-16.93s-7.56-16.912-16.9-16.93c-9.34 0.018-16.9 7.592-16.9 16.93z"/>
  <path fill="#d9d9d9" stroke="#000" d="m1402.2 790.59 14.11-2.8219v25.397l-14.11-2.8219z"/>
  <ellipse fill="#bfbfbf" stroke="#000" stroke-linecap="square" cx="1437.4" cy="800.46" rx="23.987" ry="23.986"/>
  <path fill="#d9d9d9" stroke="#000" stroke-linecap="square" d="m1392.3 790.69a11.288 11.288 0 0 1 14.291 2.5198 11.288 11.288 0 0 1 0 14.511 11.288 11.288 0 0 1-14.291 2.5198l5.6441-9.7755z"/>
  <ellipse fill="#b2b2b2" stroke="#000" stroke-linecap="square" cx="1397.9" cy="800.46" rx="8.4662" ry="8.4658"/>
  <ellipse fill="#d9d9d9" stroke="#000" stroke-linecap="square" cx="1397.9" cy="800.46" rx="2.8221" ry="2.8219"/>
  <path fill="#cbcdcb" stroke="#000" d="m1351.4 722.86v-8.4658h16.932v8.4658z"/>
  <path fill="#d8d9d8" stroke="#000" d="m1358.4 714.4v-53.617h-7.0552v53.617z"/>
  <ellipse fill="#d8d9d8" stroke="#000" stroke-linecap="square" cx="1532" cy="467.48" rx="7.0551" ry="7.0548"/>
  <path fill="#e5e6e5" stroke="#000" d="m1534 465.48 12.699 12.699-3.9909 3.9908-12.699-12.699z"/>
  <ellipse fill="#e5e6e5" stroke="#000" stroke-linecap="square" cx="992.96" cy="530.97" rx="5.6441" ry="5.6439"/>
  <path fill="#e5e6e5" stroke="#000" d="m1255.4 534.68 15.174-17.415 12.593-20.067-4.0837-3.7575-18.061 13.545-14.504 20.754z"/>
  <path fill="#e5e6e5" stroke="#000" d="m1246.9 535.2-255.4 7.0548 1.411-5.6439 253.99-8.4658z"/>
  <path fill="#e5e6e5" stroke="#000" d="m973.2 566.24 14.11-21.164-4.2331-2.8219-14.11 21.164z"/>
  <ellipse fill="#d9d9d9" stroke="#000" stroke-linecap="square" cx="1263.9" cy="800.46" rx="5.6441" ry="5.6439"/>
  <path fill="#e3e2e2" stroke="#000" stroke-linecap="square" d="m1024 800.46a8.4662 8.4658 0 0 1-4.2331 7.3316 8.4662 8.4658 0 0 1-8.4662 0 8.4662 8.4658 0 0 1-4.2331-7.3316"/>
  <path fill="#b7b7b7" stroke="#000" d="m1017.7 804.13c-1.3098 0.7561-2.9234 0.7561-4.2331 0s-2.1166-2.1535-2.1166-3.6658h-9.8772v-25.397h28.221v25.397h-9.8772c0 1.5123-0.8068 2.9097-2.1165 3.6658z"/>
  <path fill="#e3e2e2" stroke="#000" d="m1001.4 769.42v5.6439h28.221v-5.6439z"/>
  <path fill="none" stroke="#000" d="m1249.8 483v177.78"/>
  <path fill="none" stroke="#000" d="m1217.3 583.18v63.493l-11.288 14.11"/>
  <path fill="#d4d4d4" stroke="#000" d="m902.65 734.15h-19.754v23.986l19.754 14.11z"/>
  <path fill="#d1d1d1" stroke="#000" stroke-linejoin="round" d="m882.9 734.15h-8.4662v23.986h8.4662z"/>
  <path fill="#cfcfcf" stroke="#000" stroke-linejoin="round" d="m874.43 734.15h-5.6441v16.932l5.6441 7.0548z"/>
  <path fill="#dedede" stroke="#000" d="m911.12 741.2h28.221v31.041h-28.221z"/>
  <path fill="#bfbfbf" stroke="#000" d="m911.12 746.85 11.288 25.397h-11.288z"/>
  <path fill="#e5e5e5" stroke="#000" stroke-linejoin="round" d="m911.12 746.85 11.288 25.397h26.81l-11.288-25.397h-5.6441l8.4662 19.754h-14.11l-9.8772-19.754z"/>
  <path fill="#bfbfbf" stroke="#000" stroke-linejoin="round" d="m923.11 793.41-9.8268-21.165h11.943l7.0552 14.11z"/>
  <path fill="#d3d3d3" stroke="#000" stroke-linejoin="round" d="m925.23 772.25 7.0552 14.11h16.932l-8.4661-14.11z"/>
  <path fill="#dedede" stroke="#000" stroke-linejoin="round" d="m923.11 793.41 9.1717-7.0549h16.932l-7.0551 7.0549z"/>
  <path fill="#bfbfbf" stroke="#000" d="m1160.9 710.16v9.8768h-2.822v9.8768h19.754v-9.8768h-7.0551v-9.195z"/>
  <path fill="none" stroke="#000" d="m1139.9 727.79-196.89-24.921"/>
  <path fill="#d1d1d1" stroke="#000" d="m1139.9 710.33-196.89-24.921c-3.9619-0.50149-4.8522 6.7934 0 7.4076l196.89 24.921c4.9724 0.62941 5.9173-6.6586 0-7.4076z"/>
  <ellipse fill="#e6e6e6" stroke="#000" stroke-linecap="square" cx="1015.5" cy="821.63" rx="8.4662" ry="8.4658"/>
  <path fill="#bfbfbf" stroke="#000" d="m983.08 815.99v8.4658h64.907v-8.4658z"/>
  <g stroke="#000">
    <path fill="#f2f2f2" d="m1065.8 738.96v5.47l-35.01 12.033h-30.62l-35.01-12.033v-5.47z"/>
    <path fill="#ccc" d="m970.63 731.31v59.07h4.376v-59.07z"/>
    <path fill="#f2f2f2" d="m1011.1 736.78v22.972h8.76v-22.972z"/>
    <path fill="#f2f2f2" d="m1010 759.75h11.29v4.035h-11.29z"/>
    <path fill="#bfbfbf" stroke-linejoin="round" d="m968.44 734.59 2.188 1.093h4.376l2.187-1.093v4.375l-2.187 1.094h-4.376l-2.188-0.879z"/>
    <path fill="none" d="m968.44 734.59h2.306"/>
    <path fill="none" d="m977.19 734.59h-2.235"/>
    <path fill="#bfbfbf" stroke-linejoin="round" d="m968.44 782.72 2.188 1.094h4.376l2.187-1.094v4.376l-2.187 1.094h-4.376l-2.188-0.88z"/>
    <path fill="none" d="m968.44 782.72 2.188-1.094"/>
    <path fill="none" d="m977.19 782.72-2.187-1.094"/>
    <path fill="#ccc" d="m1056 731.31v59.07h4.38v-59.07z"/>
    <path fill="#bfbfbf" stroke-linejoin="round" d="m1053.8 734.59 2.18 1.093h4.38l2.19-1.093v4.375l-2.19 1.094h-4.38l-2.18-0.879z"/>
    <path fill="none" d="m1053.8 734.59h2.18"/>
    <path fill="none" d="m1062.5 734.59h-2.19"/>
    <path fill="#bfbfbf" stroke-linejoin="round" d="m1053.8 782.72 2.18 1.094h4.38l2.19-1.094v4.376l-2.19 1.094h-4.38l-2.18-0.88z"/>
    <path fill="none" d="m1053.8 782.72 2.18-1.094"/>
    <path fill="none" d="m1062.5 782.72-2.19-1.094"/>
  </g>
  <path fill="url(#linearGradient2817)" stroke="#000" d="m990.14 763.78-36.687 11.288-16.932 18.343h-28.221v18.342h81.84v7.0549h14.11v-7.0549h22.576v7.0549h14.11v-7.0549h139.69v-31.041h-84.662l-53.619-16.932zm5.6441 5.6439h11.288l4.2331 7.0548v14.11c0 2.822 8.4662 2.822 8.4662 0v-14.11l4.2331-7.0548h11.288v39.507h-39.509z"/>
  <g id="g1277" stroke="#000">
    <path fill="#bfbfbf" d="m1187.1 794.93s-1.59 0.877-3.19 0.04l0.79 22.164c5.04 1.249 9.4 0.993 13.18-0.775m0 0c-5.13-7.256-9.02-15.308-11.52-23.831-0.8-3.408 3.98-4.804 5.41-1.591 2.33 7.928 5.95 15.418 10.72 22.167 2.7 3.389-2.34 6.728-4.61 3.256z"/>
    <path fill="#dedede" stroke-linejoin="round" d="m1184.8 820.1-2.83-79.016-8.46 0.302 2.83 79.016z"/>
    <path fill="#bfbfbf" stroke-linejoin="round" d="m1184.8 820.25c0 2.338-1.9 4.233-4.24 4.233-2.33 0-4.23-1.895-4.23-4.233s1.9-4.233 4.23-4.233c2.34 0 4.24 1.895 4.24 4.233z"/>
    <path fill="#bfbfbf" stroke-linejoin="round" d="m1182 741.24c0 2.338-1.89 4.233-4.23 4.233s-4.23-1.895-4.23-4.233 1.89-4.233 4.23-4.233 4.23 1.895 4.23 4.233z"/>
  </g>
  <path fill="#838383" stroke="#000" d="m1046.6 815.99h-5.6442v-4.2329h5.6442z"/>
  <rect width="26.81" height="59.261" fill="#b3d0ff" stroke="#000" stroke-linecap="square" x="823.63" y="515.45" rx="2.8221" ry="2.8219" fill-opacity=".5"/>
  <path fill="#e5e5e5" stroke="#000" d="m1033.9 502.75v-4.2329h-313.25v4.2329z"/>
  <rect width="43.742" height="152.38" fill="none" stroke="#000" stroke-linecap="square" x="815.17" y="505.57" rx="4.2331" ry="4.2329"/>
  <path fill="#c8c8c8" stroke="#000" d="m851.77 584.59c1.0966-0.0347 2.1152 0.571 2.6089 1.5525 0.4937 0.98153 0.3728 2.1604-0.3098 3.0213-0.6826 0.86092-1.8029 1.2474-2.8775 0.98891-5.5452-1.3607-9.7162-0.36927-15.616 2.743-0.65 0.33217-1.4358 0.1236-1.8306-0.47932-0.3949-0.60298-0.2718-1.4066 0.28-1.8592 6.0928-5.1024 12.569-5.809 17.745-5.9672z"/>
  <rect width="60.907" height="59.261" fill="#b3d0ff" stroke="#000" stroke-linecap="square" x="881.25" y="515.45" rx="2.8221" ry="2.8219" fill-opacity=".50196"/>
  <ellipse fill="#e5e6e5" stroke="#000" stroke-linecap="square" cx="967.56" cy="569.07" rx="5.6441" ry="5.6439"/>
  <ellipse fill="#e5e6e5" stroke="#000" stroke-linecap="square" cx="987.31" cy="539.44" rx="5.6441" ry="5.6439"/>
  <rect width="60.907" height="59.261" fill="#b3d0ff" stroke="#000" stroke-linecap="square" x="960.27" y="515.45" rx="2.8221" ry="2.8219" fill-opacity=".50196"/>
  <path fill="url(#linearGradient2691)" stroke="#000" d="m1033.9 498.52v-33.863h-313.25v33.863z"/>
  <path fill="#7b9c83" stroke="#000" d="m904.06 427.97-19.754 36.685h146.75l-19.754-36.685zm5.6744 14.11h95.889l7.2647 13.495h-110.42z"/>
  <path fill="none" stroke="#000" d="m899.83 436.44h115.7"/>
  <rect width="142.51" height="49.384" fill="none" stroke="#afa683" stroke-width="5" stroke-linecap="square" x="880.07" y="593.05" rx="2.7146" ry="4.9384"/>
  <path fill="#7b9c83" stroke="#000" d="m817.99 657.96v26.808l70.552 38.096v11.288h33.865v-76.192zm38.098 16.932h50.797c2.822 0 4.233 0 4.233 2.8219v23.986c0 2.8219-1.411 2.8219-4.233 2.8219h-11.288l-5.6441-2.8219-36.687-21.164c-1.6669-0.96166-1.411-5.6439 2.8221-5.6439z"/>
  <path fill="#e9e9e9" stroke="#000" d="m858.91 657.96h2.822v142.51h-2.822z"/>
  <path fill="#e9e9e9" stroke="#000" d="m815.17 660.78h43.742v-2.8219h-43.742z"/>
  <path fill="#a6a6a6" stroke="#000" stroke-linejoin="round" d="m105.42 753.9 12.699 9.8768v-36.685l-12.699 9.8768z"/>
  <path fill="#a6a6a6" stroke="#000" stroke-linejoin="round" d="m99.776 753.9-11.288 9.8768h-8.4662v-36.685h8.4662l11.288 9.8768z"/>
  <path fill="#e5e5e5" stroke="#000" stroke-linejoin="round" d="m80.021 763.78-8.4662-2.8219v-31.041l8.4662-2.8219z"/>
  <path fill="#b2b2b2" stroke="#000" d="m99.776 753.9h-28.221c-2.8221 0-7.0552-2.8219-7.0552-8.4658s4.2331-8.4658 7.0552-8.4658h28.221zm5.6441-16.932h-5.6441v16.932h5.6441z"/>
  <path fill="#7b9c83" stroke="#000" d="m782.71 657.96h14.11l49.386 67.726h-63.496z"/>
  <path fill="#cbcbcb" stroke="#000" d="m118.12 732.74v-7.0548h740.79v7.0548z"/>
  <path fill="url(#linearGradient2493)" stroke="#000" d="m720.63 502.75h62.085v222.93h-664.59v-184.84h183.43l33.865-31.041h385.21z"/>
  <rect width="586.99" height="121.34" fill="none" stroke="#afa683" stroke-width="5" stroke-linecap="square" x="156.92" y="573.3" rx="2.8221" ry="2.8219"/>
  <g fill="#c9c9c9" stroke="#000">
    <path d="m782.69 464.68c0-4.233 7.055-4.233 7.055 0v193.31h-7.055z"/>
    <path d="m786.22 468.92v189.07"/>
  </g>
  <g fill="#c9c9c9" stroke="#000">
    <path d="m789.74 464.68c0-4.233 7.055-4.233 7.055 0v193.31h-7.055z"/>
    <path d="m793.27 468.92v189.07"/>
  </g>
  <g fill="#c9c9c9" stroke="#000">
    <path d="m796.8 464.68c0-4.233 7.055-4.233 7.055 0v193.31h-7.055z"/>
    <path d="m800.33 468.92v189.07"/>
  </g>
  <g fill="none" stroke="#000">
    <path d="m803.85 464.68c0-4.233 7.055-4.233 7.055 0v193.31h-7.055z"/>
    <path d="m807.38 468.92v189.07"/>
  </g>
  <g fill="#c9c9c9" stroke="#000">
    <path d="m803.85 464.68c0-4.233 7.055-4.233 7.055 0v193.31h-7.055z"/>
    <path d="m807.38 468.92v189.07"/>
  </g>
  <g id="g1668">
    <path fill="#a2a2a1" stroke="#000" d="m257.8 799.09v22.576l9.877 9.877c5.288-1.315 10.532-3.94 15.521-14.11l-18.429-18.343zm15.353 14.11h0.074c1.123 0 2.2 0.446 2.994 1.24 0.793 0.794 1.239 1.87 1.239 2.993s-0.446 2.199-1.239 2.993c-0.794 0.794-1.871 1.24-2.994 1.24-1.122 0-2.199-0.446-2.993-1.24s-1.24-1.87-1.24-2.993c0-2.309 1.85-4.192 4.159-4.233z"/>
    <circle r="50.796" fill="#f2f2f2" stroke="#000" stroke-linecap="square" cx="218.29" cy="796.27"/>
    <path fill="url(#linearGradient2519)" stroke="#000" stroke-linecap="square" d="m218.08 749.7c-25.634 0.115-46.354 20.928-46.354 46.563 0 12.349 4.906 24.193 13.638 32.925s20.576 13.638 32.925 13.638 24.193-4.906 32.925-13.638 13.638-20.576 13.638-32.925-4.906-24.193-13.638-32.925-20.576-13.638-32.925-13.638h-0.209zm0.21 5.644c2.245 0 4.398 0.892 5.986 2.48 1.588 1.587 2.48 3.741 2.48 5.986s-0.892 4.399-2.48 5.986c-1.588 1.588-3.741 2.48-5.986 2.48-2.246 0-4.399-0.892-5.987-2.48-1.587-1.587-2.479-3.741-2.479-5.986s0.892-4.399 2.479-5.986c1.588-1.588 3.741-2.48 5.987-2.48zm-32.453 32.453c2.245 0 4.398 0.892 5.986 2.48 1.588 1.587 2.48 3.741 2.48 5.986s-0.892 4.399-2.48 5.986c-1.588 1.588-3.741 2.48-5.986 2.48-2.246 0-4.399-0.892-5.987-2.48-1.587-1.587-2.479-3.741-2.479-5.986s0.892-4.399 2.479-5.986c1.588-1.588 3.741-2.48 5.987-2.48zm64.906 0c2.245 0 4.398 0.892 5.986 2.48 1.588 1.587 2.48 3.741 2.48 5.986 0 4.676-3.791 8.466-8.466 8.466-2.246 0-4.399-0.892-5.987-2.48-1.587-1.587-2.479-3.741-2.479-5.986s0.892-4.399 2.479-5.986c1.588-1.588 3.741-2.48 5.987-2.48zm-32.453 32.453c2.245 0 4.398 0.892 5.986 2.48 1.588 1.587 2.48 3.741 2.48 5.986s-0.892 4.399-2.48 5.986c-1.588 1.588-3.741 2.48-5.986 2.48-2.246 0-4.399-0.892-5.987-2.48-1.587-1.587-2.479-3.741-2.479-5.986s0.892-4.399 2.479-5.986c1.588-1.588 3.741-2.48 5.987-2.48z"/>
    <path fill="#e3e2e2" stroke="#000" stroke-linecap="square" d="m226.76 807.56c0 3.025-1.614 5.82-4.233 7.332s-5.847 1.512-8.466 0-4.233-4.307-4.233-7.332"/>
    <path fill="#b7b7b7" stroke="#000" d="m220.41 811.22c-1.31 0.756-2.924 0.756-4.233 0-1.31-0.757-2.117-2.154-2.117-3.666h-9.877v-25.398h28.22v25.398h-9.877c0 1.512-0.807 2.909-2.116 3.666z"/>
    <path fill="#e3e2e2" stroke="#000" d="m204.18 776.51v5.644h28.22v-5.644z"/>
    <path fill="#bfbfbf" stroke="#000" d="m250.74 818.84v7.055h-64.906v-7.055z"/>
    <path fill="none" stroke="#000" d="m283.3 760.24h-34.069c-2.433 0-3.476 2.434 0 7.3l12.167 17.034c2.434 3.407 7.258 3.467 9.734 0l12.167-17.034c3.476-4.866 2.433-7.3 0-7.3z"/>
    <path fill="#bbb" stroke="#000" d="m295.9 768.05h-11.288v23.987c0 5.644 11.288 5.644 11.288 0z"/>
    <path fill="url(#linearGradient2549)" stroke="#000" d="m307.18 765.22v26.809h-11.288v-26.809z"/>
    <path fill="#a2a2a1" stroke="#000" d="m362.21 799.09v22.576l-9.877 9.877c-5.288-1.315-10.532-3.94-15.521-14.11l18.429-18.343zm-15.353 14.11h-0.074c-2.338 0-4.233 1.895-4.233 4.233 0 1.123 0.446 2.199 1.239 2.993 0.794 0.794 1.871 1.24 2.994 1.24 1.122 0 2.199-0.446 2.993-1.24s1.24-1.87 1.24-2.993c0-2.309-1.85-4.192-4.159-4.233z"/>
    <circle r="50.796" fill="#f2f2f2" stroke="#000" stroke-linecap="square" cx="401.72" cy="796.27"/>
    <path fill="url(#linearGradient2537)" stroke="#000" stroke-linecap="square" d="m401.93 749.7c25.634 0.115 46.354 20.928 46.354 46.563 0 12.349-4.906 24.193-13.638 32.925s-20.576 13.638-32.925 13.638-24.193-4.906-32.925-13.638-13.638-20.576-13.638-32.925 4.906-24.193 13.638-32.925 20.576-13.638 32.925-13.638h0.209zm-0.21 5.644c-2.245 0-4.398 0.892-5.986 2.48-1.588 1.587-2.48 3.741-2.48 5.986s0.892 4.399 2.48 5.986c1.588 1.588 3.741 2.48 5.986 2.48 2.246 0 4.399-0.892 5.987-2.48 1.587-1.587 2.479-3.741 2.479-5.986s-0.892-4.399-2.479-5.986c-1.588-1.588-3.741-2.48-5.987-2.48zm32.453 32.453c-2.245 0-4.398 0.892-5.986 2.48-1.588 1.587-2.48 3.741-2.48 5.986s0.892 4.399 2.48 5.986c1.588 1.588 3.741 2.48 5.986 2.48 2.246 0 4.399-0.892 5.987-2.48 1.587-1.587 2.479-3.741 2.479-5.986s-0.892-4.399-2.479-5.986c-1.588-1.588-3.741-2.48-5.987-2.48zm-64.906 0c-2.245 0-4.398 0.892-5.986 2.48-1.588 1.587-2.48 3.741-2.48 5.986s0.892 4.399 2.48 5.986c1.588 1.588 3.741 2.48 5.986 2.48 2.246 0 4.399-0.892 5.987-2.48 1.587-1.587 2.479-3.741 2.479-5.986s-0.892-4.399-2.479-5.986c-1.588-1.588-3.741-2.48-5.987-2.48zm32.453 32.453c-2.245 0-4.398 0.892-5.986 2.48-1.588 1.587-2.48 3.741-2.48 5.986s0.892 4.399 2.48 5.986c1.588 1.588 3.741 2.48 5.986 2.48 2.246 0 4.399-0.892 5.987-2.48 1.587-1.587 2.479-3.741 2.479-5.986s-0.892-4.399-2.479-5.986c-1.588-1.588-3.741-2.48-5.987-2.48z"/>
    <path fill="#e3e2e2" stroke="#000604" stroke-linecap="square" d="m393.26 807.56c0 3.025 1.614 5.82 4.233 7.332s5.847 1.512 8.466 0 4.233-4.307 4.233-7.332"/>
    <path fill="#b7b7b7" stroke="#000" d="m399.6 811.22c1.309 0.756 2.923 0.756 4.233 0 1.309-0.757 2.116-2.154 2.116-3.666h9.877v-25.398h-28.22v25.398h9.877c0 1.512 0.807 2.909 2.117 3.666z"/>
    <path fill="#e3e2e2" stroke="#000" d="m415.83 776.51v5.644h-28.22v-5.644z"/>
    <path fill="#bfbfbf" stroke="#000" d="m369.27 818.84v7.055h64.906v-7.055z"/>
    <path fill="#bbb" stroke="#000" d="m324.12 768.05h11.288v23.987c0 5.644-11.288 5.644-11.288 0z"/>
    <path fill="url(#linearGradient2549)" stroke="#000" d="m312.83 765.22v26.809h11.288v-26.809z"/>
    <path fill="url(#linearGradient2527)" stroke="#000" d="m206.99 753.98c-12.856 3.48-23.435 12.572-28.766 24.748l14.671 41.531h49.385l16.932-26.809 26.809 26.809h47.974l26.809-26.809 16.932 26.809h49.385l14.672-41.531c-5.331-12.176-15.91-21.268-28.766-24.748zm49.402 11.25h19.754c1.411 0 2.016 1.411 0 4.233l-7.055 9.877c-1.436 2.01-4.233 1.975-5.644 0l-7.055-9.877c-2.016-2.822-1.411-4.233 0-4.233zm42.33 0h22.576l21.165 29.631c2.016 2.822 2.822 5.644 0 5.644h-64.906c-2.822 0-2.016-2.822 0-5.644zm45.152 0h19.754c1.411 0 2.016 1.411 0 4.233l-7.055 9.877c-1.411 1.975-4.208 2.01-5.644 0l-7.055-9.877c-2.016-2.822-1.411-4.233 0-4.233zm-145.33 11.288h12.699l2.822 5.644v14.11c0 5.644 8.466 5.644 8.466 0v-14.11l2.822-5.644h12.699v39.508h-39.508zm183.43 0h12.699l2.822 5.644v14.11c0 5.644 8.466 5.644 8.466 0v-14.11l2.822-5.644h12.699v39.508h-39.508z"/>
    <path fill="none" stroke="#000" d="m336.72 760.24h34.069c2.433 0 3.476 2.434 0 7.3l-12.167 17.034c-2.434 3.407-7.258 3.467-9.734 0l-12.167-17.034c-3.476-4.866-2.433-7.3 0-7.3z"/>
    <path fill="none" stroke="#000" d="m249.23 760.24h34.069c2.433 0 3.476 2.434 0 7.3l-12.167 17.034c-2.434 3.407-7.258 3.467-9.734 0l-12.167-17.034c-3.476-4.866-2.433-7.3 0-7.3z"/>
  </g>
  <use width="100%" height="100%" xlink:href="#g1668" transform="translate(330.39)"/>
  <text id="text1708" x="953.19836" y="628.28021" font-family="Arial" font-size="28.22px" xml:space="preserve"><tspan fill="#ffffff" x="953.19836" y="628.28021" font-family="Arial" font-size="28.22px" text-anchor="middle">C<tspan fill="#ffffff" baseline-shift="super" font-size="14.11px" text-anchor="middle">P</tspan>201-1</tspan></text>
  <use width="100%" height="100%" xlink:href="#text1708" transform="translate(-495.98 16.226)"/>
  <path fill="url(#linearGradient2503)" stroke="#000" d="m858.91 732.74v52.206h-56.441l-25.399-31.041h-570.06l-9.8772 9.8768h-79.018v-31.041z"/>
  <path fill="#cfcfcf" stroke="#000" d="m868.79 734.15v16.932l-7.0552 8.4658v-25.397z"/>
  <path fill="#e9e9e9" stroke="#000" d="m815.17 800.46h43.742v-2.8219h-43.742z"/>
  <path fill="#e9e9e9" stroke="#000" d="m815.17 765.54h43.742v-2.8219h-43.742z"/>
  <path fill="#e9e9e9" stroke="#000" d="m815.17 730.62h43.742v-2.8219h-43.742z"/>
  <path fill="#e9e9e9" stroke="#000" d="m815.17 695.7h43.742v-2.8219h-43.742z"/>
  <rect width="16.932" height="8.4658" fill="#d9d9d9" stroke="#000" stroke-linecap="square" x="828.57" y="784.94"/>
  <path fill="#e9e9e9" stroke="#000" d="m864.55 586v149.56c0 1.411-1.4111 1.411-2.8221 1.411v2.8219c2.8221 0 5.6441-1.411 5.6441-2.8219v-152.38c0-2.8219-4.2331-2.8219-5.6441-2.8219v2.8219c1.411 0 2.8221 0 2.8221 1.411z"/>
  <path fill="#e9e9e9" stroke="#000" d="m812.35 657.96h2.822v142.51h-2.822z"/>
  <path fill="#e9e9e9" stroke="#000" d="m809.52 586v149.56c0 1.411 1.4111 1.411 2.8221 1.411v2.8219c-2.8221 0-5.6441-1.411-5.6441-2.8219v-152.38c0-2.8219 4.2331-2.8219 5.6441-2.8219v2.8219c-1.411 0-2.8221 0-2.8221 1.411z"/>
  <ellipse fill="#d8d9d8" stroke="#000" stroke-linecap="square" cx="1251.2" cy="530.97" rx="5.6441" ry="5.6439"/>
  <path fill="#d8d9d8" stroke="#000" stroke-linecap="square" d="m1265.3 505.57a7.0551 7.0548 0 0 0-7.0551 7.0548 7.0551 7.0548 0 0 0 7.0551 7.0548 7.0551 7.0548 0 0 0 7.0552-7.0548 7.0551 7.0548 0 0 0-7.0552-7.0548zm-0.069 4.2329a2.8221 2.8219 0 0 1 0.069 0 2.8221 2.8219 0 0 1 2.8221 2.8219 2.8221 2.8219 0 0 1-2.8221 2.8219 2.8221 2.8219 0 0 1-2.822-2.8219 2.8221 2.8219 0 0 1 2.7532-2.8219z"/>
  <path fill="#e5e6e5" stroke="#000" d="m1544.5 477.36-263.86 15.521 0.3313 5.6341 263.86-15.521z"/>
  <ellipse fill="#d8d9d8" stroke="#000" stroke-linecap="square" cx="1280.8" cy="495.7" rx="2.8221" ry="2.8219"/>
  <ellipse fill="#f2f3f2" stroke="#000" stroke-linecap="square" cx="1532" cy="467.48" rx="2.8221" ry="2.8219"/>
  <ellipse fill="#d8d9d8" stroke="#000" stroke-linecap="square" cx="1544.7" cy="480.18" rx="7.0551" ry="7.0548"/>
  <ellipse fill="#f2f3f2" stroke="#000" stroke-linecap="square" cx="1544.7" cy="480.18" rx="2.8221" ry="2.8219"/>
  <ellipse fill="#d9d9d9" stroke="#000" stroke-linecap="square" cx="1437.4" cy="800.46" rx="19.754" ry="19.754"/>
  <path fill="#b2b2b2" stroke="#000" d="m1449.5 776.25 2.0432 21.394-6.8803 21.502-9.4074-3.01 2.15-6.7192-5.3756-1.72-2.1501 6.7192-9.4073-3.01 6.8803-21.502 14.084-16.234"/>
  <ellipse fill="#d9d9d9" stroke="#000" stroke-linecap="square" cx="1437.4" cy="800.46" rx="8.4662" ry="8.4658"/>
  <ellipse fill="#b2b2b2" stroke="#000" stroke-linecap="square" cx="1437.4" cy="800.46" rx="4.2331" ry="4.2329"/>
  <ellipse fill="#d9d9d9" stroke="#000" stroke-linecap="square" cx="1447.3" cy="768.01" rx="8.4662" ry="8.4658"/>
  <ellipse fill="#d9d9d9" stroke="#000" stroke-linecap="square" cx="1447.3" cy="768.01" rx="2.8221" ry="2.8219"/>
  <ellipse fill="#bfbfbf" stroke="#000" stroke-linecap="square" cx="1603.9" cy="800.46" rx="16.932" ry="16.932"/>
  <ellipse fill="#d9d9d9" stroke="#000" stroke-linecap="square" cx="1603.9" cy="800.46" rx="5.6441" ry="5.6439"/>
  <ellipse fill="#d9d9d9" stroke="#000" stroke-linejoin="round" stroke-linecap="square" cx="1633.6" cy="766.6" rx="8.4662" ry="8.4658"/>
  <ellipse fill="#bfbfbf" stroke="#000" stroke-linejoin="round" stroke-linecap="square" cx="1633.6" cy="766.6" rx="4.2331" ry="4.2329"/>
  <path fill="#b2b2b2" stroke="#000" d="m1720.8 751.08-6.8102-8.4658h-9.8772v-5.6439h-183.43v5.6439c14.11 0 18.343 2.8219 23.988 8.4658z"/>
  <path fill="#d1d1d1" stroke="#000" d="m1665.1 783.8 14.916-58.779c2.0536-1.0973 3.2225-3.343 2.9434-5.6544-0.2787-2.3116-1.9491-4.2144-4.2052-4.7913-2.2558-0.57651-4.6343 0.29057-5.9888 2.1843-1.3549 1.8937-1.4075 4.4248-0.1326 6.3733l-14.841 59.026"/>
  <ellipse fill="none" stroke="#000" stroke-linejoin="round" stroke-linecap="square" cx="1677.3" cy="720.04" rx="2.8221" ry="2.8219"/>
  <path fill="#b2b2b2" stroke="#000" d="m1561.6 734.15 111.55-26.91c2.502-3.0978 6.881-3.5957 9.9149-1.2199 3.0338 2.3758 3.6002 6.7462 1.272 9.8167s-6.6894 3.705-9.8256 1.4034l-110.09 21.143"/>
  <path fill="#d9d9d9" stroke="#000" stroke-linecap="square" d="m1556.1 772.34c2.2982 2.1628 5.8872 2.1495 8.1694-0.0303s2.46-5.764 0.2687-8.201l-0.1369-27.133-9.2842-18.818-12.24 7.0028 13.034 20.592-0.127 18.373c-2.1878 2.469-1.9833 6.0518 0.315 8.2145z"/>
  <path fill="#b2b2b2" stroke="#000" d="m1503.8 696.05v31.041h33.865c2.0388 4.1164 6.1047 6.8133 10.663 7.0383 4.5579 0.22503 8.8864-2.0128 11.338-5.8616 2.4515-3.8488 2.6474-8.7151 0.5071-12.768-6.4023-12.032-18.274-19.45-29.563-19.45zm11.288 8.4658h16.932c4.8233 0 8.4662 4.2329 8.4662 8.4658 0 4.0459-2.0259 5.5702-4.2331 5.6439h-21.166l-1.411-2.8219v-8.4658z"/>
  <path fill="#d9d9d9" stroke="#000" d="m1556 721.45c0 3.8963-3.1588 7.0548-7.0552 7.0548s-7.0551-3.1586-7.0551-7.0548 3.1587-7.0548 7.0551-7.0548 7.0552 3.1586 7.0552 7.0548z"/>
  <ellipse fill="#d9d9d9" stroke="#000" stroke-linejoin="round" stroke-linecap="square" cx="1560.2" cy="768.01" rx="2.8221" ry="2.8219"/>
  <ellipse fill="#a6a6a6" stroke="#000" stroke-linejoin="round" stroke-linecap="square" cx="1548.9" cy="721.45" rx="4.1449" ry="4.1447"/>
  <path fill="#d9d9d9" stroke="#000" stroke-linejoin="round" stroke-linecap="square" d="m1574.4 700.71 2.6492-0.96525 8.6879 27.347c2.0704 0.0564 3.7959 1.6026 4.0783 3.6543 0.2823 2.0517-0.9615 4.0064-2.9396 4.62s-4.1098-0.29433-5.0381-2.1457c-0.9283-1.8514-0.3806-4.1025 1.2523-5.2968zm2.7556-0.4278c0 0.77925-0.6317 1.411-1.411 1.411s-1.411-0.63171-1.411-1.411 0.6317-1.411 1.411-1.411 1.411 0.63172 1.411 1.411zm9.8772 31.041c0 0.77925-0.6317 1.411-1.411 1.411s-1.411-0.63172-1.411-1.411 0.6317-1.411 1.411-1.411 1.411 0.63171 1.411 1.411z"/>
  <ellipse fill="#d9d9d9" stroke="#000" stroke-linejoin="round" stroke-linecap="square" cx="1585.6" cy="731.33" rx="1.411" ry="1.411"/>
  <path fill="#b2b2b2" stroke="#000" d="m1534.5 690.49 14.057-37.307-2.499-1.1514-19.227 34.924"/>
  <path fill="#b2b2b2" stroke="#000" d="m1579.9 700.49c-0.076 1.5362-0.9788 2.9105-2.359 3.5896-1.3801 0.67912-2.9129 0.39552-4.0512-0.24733-10.081-5.6928-18.741-10.983-33.61-11.688-1.6916 5.0108-7.0159 7.8004-12.09 6.3418-5.0742-1.4586-8.1041-6.6498-6.8785-11.785 1.2257-5.1353 6.2733-8.3988 11.452-7.4103 16.341 3.0934 33.705 8.1515 45.724 17.597 1.006 0.79052 1.8883 2.0664 1.8125 3.6026z"/>
  <ellipse fill="#d9d9d9" stroke="#000" stroke-linejoin="round" stroke-linecap="square" cx="1575.7" cy="700.29" rx="1.411" ry="1.411"/>
  <ellipse fill="#d9d9d9" stroke="#000" stroke-linejoin="round" stroke-linecap="square" cx="1678.7" cy="711.57" rx="2.8221" ry="2.8219"/>
  <path fill="#b2b2b2" stroke="#000" d="m1548.7 652.7c0 0.76173-0.6174 1.3792-1.3793 1.3792-0.7618 0-1.3792-0.61751-1.3792-1.3792 0-0.76172 0.6174-1.3792 1.3792-1.3792 0.7619 0 1.3793 0.61751 1.3793 1.3792z"/>
  <path fill="#b2b2b2" stroke="#000" d="m1534.8 689c0 2.3378-1.8951 4.2329-4.2331 4.2329-2.3379 0-4.233-1.8951-4.233-4.2329s1.8951-4.2329 4.233-4.2329c2.338 0 4.2331 1.8951 4.2331 4.2329z"/>
  <path fill="#d9d9d9" stroke="#0c0000" stroke-linejoin="round" stroke-linecap="square" d="m1663.2 787.79c-0.38 1.502-1.9 2.418-3.41 2.053-1.5-0.389-2.4-1.914-2.03-3.417 0.38-1.502 1.9-2.419 3.41-2.053 1.5 0.389 2.4 1.914 2.03 3.417z"/>
  <ellipse fill="#bfbfbf" stroke="#000" stroke-linecap="square" cx="1873.4" cy="794.82" rx="7.0551" ry="7.0548"/>
  <rect width="8.4662" height="14.11" fill="#d9d9d9" stroke="#000" stroke-linecap="square" x="1728.1" y="711.57"/>
  <rect width="8.4662" height="14.11" fill="#d9d9d9" stroke="#000" stroke-linecap="square" x="1784.5" y="711.57" rx="0" ry="0"/>
  <path fill="#e9e9e9" stroke="#000" d="m1931.3 670.66v4.2329h-86.073c-7.7412 0-15.029-6.1054-19.754-11.288l-43.742-47.973c-4.3561-4.7775-6.3842-7.0548-16.932-7.0548h-730.91v-4.2329h728.09c6.9806 0 13.879-0.73522 19.754 5.6439l47.975 52.088c8.5546 9.2881 15.281 8.5312 18.343 8.5831z"/>
  <path fill="#e5e6e5" stroke="#000" d="m1931.3 727.09h-90.306l-62.085-69.137h-745.02v-5.6439h745.02l62.085 67.726h90.306z"/>
  <path fill="#e9e9e9" stroke="#000" d="m1931.3 621.27v4.2329h-86.073c-7.7412 0-15.029-6.1054-19.754-11.288l-43.742-47.973c-4.3561-4.7775-6.3842-7.0548-16.932-7.0548h-730.91v-4.2329h728.09c6.9806 0 13.886-0.74182 19.754 5.6439l47.975 52.206c8.5442 9.2977 15.281 8.4139 18.343 8.4658z"/>
  <path fill="#808080" stroke="#000" d="m1358.4 1443.2h9.8772v2.8219h-7.0552v7.0548h-2.822z"/>
  <rect width="68.667" height="67.726" fill="#b6b594" stroke="#000" stroke-linecap="square" x="877.37" y="1293.6" rx="4.2331" ry="4.2329"/>
  <rect width="33.865" height="67.726" fill="#b6b594" stroke="#000" stroke-linecap="square" x="820.11" y="1293.6" rx="4.2331" ry="4.2329"/>
  <path fill="#8d8d8d" stroke="#000" d="m1843.8 1354.3v66.315c4.2331 0 9.8772-4.2329 9.8772-8.4658v-57.85m-9.8772 0v-66.315c4.2331 0 9.8772 4.2329 9.8772 8.4658v57.85" fill-opacity=".29804"/>
  <path fill="#d9d9d9" stroke="#000" d="m1867.8 1262.6v-40.918m-26.81 0c-11.288 0-11.288 40.918 0 40.918m23.988 0h9.8772v-40.918h-33.865v40.918z"/>
  <path fill="#bfbfbf" stroke="#000" d="m1843.8 1273.8h21.165v-15.521h-21.165z"/>
  <path fill="none" stroke="#000" d="m1313.3 1245.6h65.317"/>
  <path fill="#c2c2c0" stroke="#000" d="m1780 1365.3 8.1335 10.092h-60.8l8.1334-10.092v-93.214c0-25.756-4.5428-36.317-7.3648-41.961v-2.822h59.263v2.822c-2.8221 5.6438-7.3649 16.05-7.3649 41.961z"/>
  <path fill="#dbdbd7" stroke="#000" stroke-linejoin="round" stroke-linecap="square" d="m1784.5 1230.1c3.1269 0 5.6442-1.6448 5.6442-3.6879 0-2.0429-2.5173-3.6877-5.6442-3.6877h-53.619c-3.1268 0-5.6441 1.6448-5.6441 3.6877 0 2.0431 2.5173 3.6879 5.6441 3.6879z"/>
  <path fill="#a6a6a6" stroke="#000" d="m1942.6 1520.8-11.288-8.4658v31.041l11.288-8.4658z"/>
  <path fill="#bfbfbf" stroke="#000" d="m1948.2 1520.8h-5.6441v14.11h5.6441z"/>
  <path fill="#a6a6a6" stroke="#000" stroke-linejoin="round" d="m1948.2 1520.8 12.699-11.288h8.4662v36.685h-8.4662l-12.699-11.288z"/>
  <path fill="#e5e5e5" stroke="#000" stroke-linejoin="round" d="m1969.4 1546.2 8.4662-2.8219v-31.041l-8.4662-2.8219z"/>
  <path fill="#a6a6a6" stroke="#000" d="m1977.9 1519.4 5.6441 2.822v11.288l-5.6441 2.8219z"/>
  <path fill="#ccc" stroke="#000" d="m1953.9 1527.8v-5.6438h11.288v5.6438z"/>
  <path fill="#d9d9d9" stroke="#000" d="m1948.1 1498.7v-28.716m-18.815 0c-7.9221 0-7.9221 28.716 0 28.716m16.834 0h6.9318v-28.716h-23.766v28.716z"/>
  <path fill="#bfbfbf" stroke="#000" d="m1931.3 1506.6h14.854v-10.892h-14.854z"/>
  <path fill="#f2f2f2" stroke="#000" stroke-linecap="square" d="m1873.3 1523.6a53.619 53.617 0 0 0-53.509 53.617 53.619 53.617 0 0 0 53.619 53.617 53.619 53.617 0 0 0 53.619-53.617 53.619 53.617 0 0 0-53.619-53.617 53.619 53.617 0 0 0-0.1101 0zm-0.093 11.288c0.069-2e-4 0.1368-2e-4 0.2039 0 23.379 0 42.331 18.951 42.331 42.329s-18.952 42.329-42.331 42.329-42.331-18.951-42.331-42.329c-3e-4 -23.298 18.828-42.217 42.127-42.329z"/>
  <path fill="#e9e9e9" stroke="#000" d="m1931.3 1502.4h-4.2331v-100.18h4.2331z"/>
  <path fill="#e9e9e9" stroke="#000" d="m1853.7 1502.4h4.2331v-100.18h-4.2331z"/>
  <path fill="#b2b2b2" stroke="#000" d="m1822.4 1434.5 59.513 80.587 5.6755-4.1908-59.513-80.587c-2.8115-1.4318-6.2167 1.0827-5.6754 4.1909z"/>
  <path fill="#e5e6e5" stroke="#000" d="m1815.6 1474.2h12.699v-2.8219h-15.521"/>
  <path fill="url(#linearGradient16682)" stroke="#000" stroke-linecap="square" d="m1873.2 1534.9c-23.299 0.1128-42.127 19.031-42.127 42.329 0 23.378 18.952 42.329 42.331 42.329s42.331-18.951 42.331-42.329-18.952-42.329-42.331-42.329c-0.068-2e-4 -0.1355-2e-4 -0.2039 0zm-32.25 35.274c3.8964 0 7.0552 3.1586 7.0552 7.0548 0 3.8963-3.1588 7.0549-7.0552 7.0549s-7.0551-3.1586-7.0551-7.0549c0-3.8962 3.1587-7.0548 7.0551-7.0548zm64.907 0c3.8964 0 7.0551 3.1586 7.0551 7.0548 0 3.8963-3.1587 7.0549-7.0551 7.0549s-7.0552-3.1586-7.0552-7.0549c0-3.8962 3.1588-7.0548 7.0552-7.0548zm-32.454 32.452c3.8964 0 7.0551 3.1586 7.0551 7.0549 0 3.8962-3.1587 7.0548-7.0551 7.0548s-7.0552-3.1586-7.0552-7.0548c0-3.8963 3.1588-7.0549 7.0552-7.0549z"/>
  <path fill="#bababa" stroke="#000" d="m1901.7 1598.4v-21.164h28.221v-5.6438h-112.88v5.6438h28.221v21.164z"/>
  <rect width="45.859" height="35.274" fill="#b0b0b0" stroke="#000" stroke-linejoin="round" x="1850.9" y="1563.1" rx="0" ry="0"/>
  <rect width="76.196" height="18.343" fill="#cfcfcf" stroke="#000" stroke-linejoin="round" x="1835.3" y="1553.2"/>
  <rect width="36.687" height="28.219" fill="#c4c4c4" stroke="#000" stroke-linejoin="round" x="1855.1" y="1563.1" rx="0" ry="0"/>
  <ellipse fill="#a8a8a8" stroke="#000" stroke-linecap="square" cx="1873.4" cy="1577.2" rx="11.288" ry="11.288"/>
  <g id="g1454" fill="none" stroke="#000">
    <path fill="#f2f2f2" d="m1198.9 1468.6v7.05l45.15 15.52h39.51l45.15-15.52v-7.05z"/>
    <path fill="#f2f2f2" d="m1258.2 1465.8v29.63h11.29v-29.63z"/>
    <path fill="#f2f2f2" d="m1254 1495.4h19.76v35.27h-19.76z"/>
    <path fill="#ccc" d="m1206 1458.7v76.2h5.64v-76.2z"/>
    <path fill="#bfbfbf" stroke-linejoin="round" d="m1203.2 1463 2.82 1.41h5.64l2.83-1.41v5.64l-2.83 1.41h-5.64l-2.82-1.13z"/>
    <path fill="none" d="m1203.2 1463h2.82"/>
    <path fill="none" d="m1214.5 1463h-2.83"/>
    <path fill="#bfbfbf" stroke-linejoin="round" d="m1203.2 1525 2.82 1.41h5.64l2.83-1.41v5.64l-2.83 1.41h-5.64l-2.82-1.13z"/>
    <path fill="none" d="m1203.2 1525h2.82"/>
    <path fill="none" d="m1214.5 1525h-2.83"/>
    <path fill="#ccc" d="m1316 1458.7v100.18h5.64v-100.18z"/>
    <path fill="#bfbfbf" stroke-linejoin="round" d="m1313.2 1463 2.82 1.41h5.64l2.83-1.41v5.64l-2.83 1.41h-5.64l-2.82-1.13z"/>
    <path fill="none" d="m1313.2 1463h2.82"/>
    <path fill="none" d="m1324.5 1463h-2.83"/>
    <path fill="#bfbfbf" stroke-linejoin="round" d="m1313.2 1549 2.82 1.41h5.64l2.83-1.41v5.64l-2.83 1.41h-5.64l-2.82-1.13z"/>
    <path fill="none" d="m1313.2 1549h2.82"/>
    <path fill="none" d="m1324.5 1549h-2.83"/>
  </g>
  <path fill="#d8d9d8" stroke="#000" d="m1519.3 1443.2v57.85h4.2331v-57.85z"/>
  <path fill="#808080" stroke="#000" d="m1358.4 1489.7v9.8768h2.822v-9.8768z"/>
  <path fill="#d8d9d8" stroke="#000" d="m1358.4 1499.6v-56.439h-4.2331v56.439z"/>
  <path fill="#d9d9d9" stroke="#000" d="m902.65 1515.1h-109.83l-0.2271 52.206h53.619v-18.343l8.4662-8.4658h39.509l8.4662 8.4658v18.343h39.509v-52.206z"/>
  <path fill="#808080" stroke="#000" d="m1160.9 1492.5v9.8767h-2.822v9.8768h-4.2331v4.2329h19.754v38.096h-16.932v4.2329h22.576v-46.562h-1.411v-9.8768h-7.0551v-9.1949z"/>
  <path fill="#d9d9d9" stroke="#000" d="m1070.6 1594.2h115.71v-31.041h-115.71c6.2351 10.178 3.4964 20.6 0 31.041z"/>
  <path fill="#bfbfbf" stroke="#000" d="m933.69 1453.8v23.239l108.65 94.417v22.122l52.208-24.917v-22.37l62.085-49.498v-14.773z"/>
  <path fill="none" stroke="#000" d="m1139.9 1510.2-196.89-24.922"/>
  <path fill="#a6a6a6" stroke="#000" d="m1139.9 1492.7-196.89-24.922c-3.9619-0.5015-4.8522 6.7935 0 7.4076l196.89 24.921c4.9724 0.6293 5.9173-6.6586 0-7.4075z"/>
  <rect width="26.81" height="59.261" fill="#b3d0ff" stroke="#000" stroke-linecap="square" x="823.63" y="1297.8" rx="2.8221" ry="2.8219" fill-opacity=".5"/>
  <rect width="43.742" height="152.38" fill="none" stroke="#000" stroke-linecap="square" x="815.17" y="1288" rx="4.2331" ry="4.2329"/>
  <path fill="#c8c8c8" stroke="#000" d="m851.77 1367c1.0966-0.035 2.1152 0.571 2.6089 1.5525s0.3728 2.1603-0.3098 3.0213-1.8029 1.2473-2.8775 0.9889c-5.5452-1.3607-9.7162-0.3692-15.616 2.743-0.65 0.3321-1.4358 0.1241-1.8306-0.4794-0.3949-0.603-0.2718-1.4065 0.28-1.8592 6.0928-5.1023 12.569-5.8089 17.745-5.9671z"/>
  <rect width="60.907" height="59.261" fill="#b3d0ff" stroke="#000" stroke-linecap="square" x="881.25" y="1297.8" rx="2.8221" ry="2.8219" fill-opacity=".5"/>
  <path fill="#a8bdad" stroke="#000" d="m904.06 1210.4-19.754 36.685h146.75l-19.754-36.685zm5.6744 14.11h95.889l7.2647 13.495h-110.42z"/>
  <path fill="none" stroke="#000" d="m899.83 1218.8h115.7"/>
  <path fill="#c4d4cb" stroke="#000" d="m817.99 1440.3v26.808l70.552 38.096v9.8767h33.865v-74.781zm38.098 16.932h50.797c2.822 0 4.233 0 4.233 2.822v23.986c0 2.8219-1.411 2.8219-4.233 2.8219h-11.288l-5.6441-2.8219-36.687-21.164c-1.6669-0.9617-1.411-5.6439 2.8221-5.6439z"/>
  <path fill="#a6a6a6" stroke="#000" stroke-linejoin="round" d="m105.42 1536.3 12.699 9.8768v-36.685l-12.699 9.8767z"/>
  <path fill="#a6a6a6" stroke="#000" stroke-linejoin="round" d="m99.776 1536.3-11.288 9.8768h-8.4662v-36.685h8.4662l11.288 9.8767z"/>
  <path fill="#e5e5e5" stroke="#000" stroke-linejoin="round" d="m80.021 1546.2-8.4662-2.8219v-31.041l8.4662-2.8219z"/>
  <path fill="#b2b2b2" stroke="#000" d="m99.776 1536.3h-28.221c-2.8221 0-7.0552-2.8219-7.0552-8.4658 0-5.6438 4.2331-8.4658 7.0552-8.4658h28.221zm5.6441-16.932h-5.6441v16.932h5.6441z"/>
  <path fill="#cbcbcb" stroke="#000" d="m118.12 1515.1v-7.0548h728.09v7.0548z"/>
  <g fill="#c9c9c9" stroke="#000">
    <path d="m782.69 1247.1c0-4.23 7.055-4.23 7.055 0v193.31h-7.055z"/>
    <path d="m786.22 1251.3v189.07"/>
  </g>
  <g fill="#c9c9c9" stroke="#000">
    <path d="m789.74 1247.1c0-4.23 7.055-4.23 7.055 0v193.31h-7.055z"/>
    <path d="m793.27 1251.3v189.07"/>
  </g>
  <g fill="#c9c9c9" stroke="#000">
    <path d="m796.8 1247.1c0-4.23 7.055-4.23 7.055 0v193.31h-7.055z"/>
    <path d="m800.33 1251.3v189.07"/>
  </g>
  <g fill="none" stroke="#000">
    <path d="m803.85 1247.1c0-4.23 7.055-4.23 7.055 0v193.31h-7.055z"/>
    <path d="m807.38 1251.3v189.07"/>
  </g>
  <g fill="#c9c9c9" stroke="#000">
    <path d="m803.85 1247.1c0-4.23 7.055-4.23 7.055 0v193.31h-7.055z"/>
    <path d="m807.38 1251.3v189.07"/>
  </g>
  <ellipse fill="#d9d9d9" stroke="#000" stroke-linecap="square" cx="1873.4" cy="1577.2" rx="7.0551" ry="7.0548"/>
  <path fill="#e9e9e9" stroke="#000" d="m1931.3 1453v4.2329h-86.073c-7.7412 0-15.029-6.1054-19.754-11.288l-2.573-2.8219h5.6147l1.1914 1.2935c8.5543 9.2883 15.281 8.5313 18.343 8.5832z"/>
  <path fill="#e9e9e9" stroke="#000" d="m1931.3 1509.5h-90.306l-35.276-39.283v-6.2531l35.276 38.481h90.306z"/>
  <path fill="#e9e9e9" stroke="#000" d="m1931.3 1403.7v4.2329h-87.484v-4.2329z"/>
  <g id="g1970">
    <path fill="none" stroke="#000" stroke-linecap="square" d="m218.08 1532.1c-25.634 0.11-46.354 20.92-46.354 46.56 0 12.35 4.906 24.19 13.638 32.92 8.732 8.74 20.576 13.64 32.925 13.64s24.193-4.9 32.925-13.64c8.732-8.73 13.638-20.57 13.638-32.92s-4.906-24.19-13.638-32.93c-8.732-8.73-20.576-13.63-32.925-13.63h-0.209zm0.21 5.64c2.245 0 4.398 0.89 5.986 2.48s2.48 3.74 2.48 5.99c0 2.24-0.892 4.39-2.48 5.98s-3.741 2.48-5.986 2.48c-2.246 0-4.399-0.89-5.987-2.48-1.587-1.59-2.479-3.74-2.479-5.98 0-2.25 0.892-4.4 2.479-5.99 1.588-1.59 3.741-2.48 5.987-2.48zm-32.453 32.45c2.245 0 4.398 0.89 5.986 2.48s2.48 3.74 2.48 5.99c0 2.24-0.892 4.4-2.48 5.99-1.588 1.58-3.741 2.47-5.986 2.47-2.246 0-4.399-0.89-5.987-2.47-1.587-1.59-2.479-3.75-2.479-5.99 0-2.25 0.892-4.4 2.479-5.99 1.588-1.59 3.741-2.48 5.987-2.48zm64.906 0c2.245 0 4.398 0.89 5.986 2.48s2.48 3.74 2.48 5.99c0 4.67-3.791 8.46-8.466 8.46-2.246 0-4.399-0.89-5.987-2.47-1.587-1.59-2.479-3.75-2.479-5.99 0-2.25 0.892-4.4 2.479-5.99 1.588-1.59 3.741-2.48 5.987-2.48zm-32.453 32.46c2.245 0 4.398 0.89 5.986 2.48 1.588 1.58 2.48 3.74 2.48 5.98 0 2.25-0.892 4.4-2.48 5.99s-3.741 2.48-5.986 2.48c-2.246 0-4.399-0.89-5.987-2.48-1.587-1.59-2.479-3.74-2.479-5.99 0-2.24 0.892-4.4 2.479-5.98 1.588-1.59 3.741-2.48 5.987-2.48z"/>
    <path fill="url(#linearGradient2527)" stroke="#000" d="m206.99 1536.3c-12.856 3.48-23.435 12.57-28.766 24.75l14.671 41.53h49.385l16.932-26.81 26.809 26.81h47.974l26.809-26.81 16.932 26.81h49.385l14.672-41.53c-5.331-12.18-15.91-21.27-28.766-24.75zm69.156 6.56c2.822 0 5.644 1.41 5.644 4.23v28.22c0 5.64-11.288 5.64-11.288 0v-28.22c0-2.82 2.822-4.23 5.644-4.23zm67.728 0c2.822 0 5.644 1.41 5.644 4.23v28.22c0 5.64-11.288 5.64-11.288 0v-28.22c0-2.82 2.822-4.23 5.644-4.23zm-53.725 1.41h39.722c1.504 0 2.715 2.2 2.715 4.93v24.7c0 2.73-1.211 4.94-2.715 4.94h-39.722c-1.504 0-2.715-2.21-2.715-4.94v-24.7c0-2.73 1.211-4.93 2.715-4.93z"/>
    <path fill="url(#linearGradient2519)" stroke="#000" stroke-linecap="square" d="m401.93 1532.1c25.634 0.11 46.354 20.92 46.354 46.56 0 12.35-4.906 24.19-13.638 32.92-8.732 8.74-20.576 13.64-32.925 13.64s-24.193-4.9-32.925-13.64c-8.732-8.73-13.638-20.57-13.638-32.92s4.906-24.19 13.638-32.93c8.732-8.73 20.576-13.63 32.925-13.63h0.209zm-0.21 5.64c-2.245 0-4.398 0.89-5.986 2.48s-2.48 3.74-2.48 5.99c0 2.24 0.892 4.39 2.48 5.98s3.741 2.48 5.986 2.48c2.246 0 4.399-0.89 5.987-2.48 1.587-1.59 2.479-3.74 2.479-5.98 0-2.25-0.892-4.4-2.479-5.99-1.588-1.59-3.741-2.48-5.987-2.48zm32.453 32.45c-2.245 0-4.398 0.89-5.986 2.48s-2.48 3.74-2.48 5.99c0 2.24 0.892 4.4 2.48 5.99 1.588 1.58 3.741 2.47 5.986 2.47 2.246 0 4.399-0.89 5.987-2.47 1.587-1.59 2.479-3.75 2.479-5.99 0-2.25-0.892-4.4-2.479-5.99-1.588-1.59-3.741-2.48-5.987-2.48zm-64.906 0c-2.245 0-4.398 0.89-5.986 2.48s-2.48 3.74-2.48 5.99c0 2.24 0.892 4.4 2.48 5.99 1.588 1.58 3.741 2.47 5.986 2.47 2.246 0 4.399-0.89 5.987-2.47 1.587-1.59 2.479-3.75 2.479-5.99 0-2.25-0.892-4.4-2.479-5.99-1.588-1.59-3.741-2.48-5.987-2.48zm32.453 32.46c-2.245 0-4.398 0.89-5.986 2.48-1.588 1.58-2.48 3.74-2.48 5.98 0 2.25 0.892 4.4 2.48 5.99s3.741 2.48 5.986 2.48c2.246 0 4.399-0.89 5.987-2.48 1.587-1.59 2.479-3.74 2.479-5.99 0-2.24-0.892-4.4-2.479-5.98-1.588-1.59-3.741-2.48-5.987-2.48z"/>
    <path fill="#e5e5e5" stroke="#000" d="m319.88 1578.2v-33.87h-19.754v33.87"/>
    <path fill="#b2b2b2" stroke="#000" stroke-linejoin="round" d="m298.6 1551.8h22.802c1.496 0 2.709 1.27 2.709 2.82v5.65c0 1.55-1.213 2.82-2.709 2.82h-22.802c-1.496 0-2.709-1.27-2.709-2.82v-5.65c0-1.55 1.213-2.82 2.709-2.82z"/>
    <path fill="none" stroke="#000" d="m250.74 1540.1h118.52"/>
    <path fill="#ededed" stroke="#060604" stroke-linejoin="round" d="m222.52 1510.9h12.699v25.4h-12.699z"/>
    <path fill="#ededed" stroke="#000" stroke-linejoin="round" d="m401.72 1510.9h12.699v25.4h-12.699z"/>
    <path fill="#bfbfbf" stroke="#000" stroke-linejoin="round" d="m287.43 1518h45.152v18.34h-45.152z"/>
    <path fill="#eaeaea" stroke="#000" stroke-linejoin="round" d="m310.01 1523.2c1.566 0 2.822 1.27 2.822 2.82v19.75c0 1.55-1.256 2.82-2.822 2.82s-2.822-1.27-2.822-2.82v-19.75c0-1.55 1.256-2.82 2.822-2.82z"/>
    <path fill="#f2f2f2" stroke="#000" stroke-linecap="square" d="m218.24 1527.9c-28.031 0.04-50.739 22.77-50.739 50.8 0 28.05 22.743 50.8 50.796 50.8 28.054 0 50.796-22.75 50.796-50.8s-22.742-50.8-50.796-50.8zm-0.152 4.24h0.209c25.716 0 46.563 20.84 46.563 46.56 0 25.71-20.847 46.56-46.563 46.56-25.715 0-46.563-20.85-46.563-46.56 0-25.64 20.72-46.45 46.355-46.56z"/>
    <path fill="url(#linearGradient2519)" stroke="#000" stroke-linecap="square" d="m218.08 1532.1c-25.634 0.11-46.354 20.92-46.354 46.56 0 12.35 4.906 24.19 13.638 32.92 8.732 8.74 20.576 13.64 32.925 13.64s24.193-4.9 32.925-13.64c8.732-8.73 13.638-20.57 13.638-32.92s-4.906-24.19-13.638-32.93c-8.732-8.73-20.576-13.63-32.925-13.63h-0.209zm0.21 5.64c2.245 0 4.398 0.89 5.986 2.48s2.48 3.74 2.48 5.99c0 2.24-0.892 4.39-2.48 5.98s-3.741 2.48-5.986 2.48c-2.246 0-4.399-0.89-5.987-2.48-1.587-1.59-2.479-3.74-2.479-5.98 0-2.25 0.892-4.4 2.479-5.99 1.588-1.59 3.741-2.48 5.987-2.48zm-32.453 32.45c2.245 0 4.398 0.89 5.986 2.48s2.48 3.74 2.48 5.99c0 2.24-0.892 4.4-2.48 5.99-1.588 1.58-3.741 2.47-5.986 2.47-2.246 0-4.399-0.89-5.987-2.47-1.587-1.59-2.479-3.75-2.479-5.99 0-2.25 0.892-4.4 2.479-5.99 1.588-1.59 3.741-2.48 5.987-2.48zm64.906 0c2.245 0 4.398 0.89 5.986 2.48s2.48 3.74 2.48 5.99c0 4.67-3.791 8.46-8.466 8.46-2.246 0-4.399-0.89-5.987-2.47-1.587-1.59-2.479-3.75-2.479-5.99 0-2.25 0.892-4.4 2.479-5.99 1.588-1.59 3.741-2.48 5.987-2.48zm-32.453 32.46c2.245 0 4.398 0.89 5.986 2.48 1.588 1.58 2.48 3.74 2.48 5.98 0 2.25-0.892 4.4-2.48 5.99s-3.741 2.48-5.986 2.48c-2.246 0-4.399-0.89-5.987-2.48-1.587-1.59-2.479-3.74-2.479-5.99 0-2.24 0.892-4.4 2.479-5.98 1.588-1.59 3.741-2.48 5.987-2.48z"/>
    <path fill="url(#linearGradient2519)" stroke="#000" stroke-linecap="square" d="m401.93 1532.1c25.634 0.11 46.354 20.92 46.354 46.56 0 12.35-4.906 24.19-13.638 32.92-8.732 8.74-20.576 13.64-32.925 13.64s-24.193-4.9-32.925-13.64c-8.732-8.73-13.638-20.57-13.638-32.92s4.906-24.19 13.638-32.93c8.732-8.73 20.576-13.63 32.925-13.63h0.209zm-0.21 5.64c-2.245 0-4.398 0.89-5.986 2.48s-2.48 3.74-2.48 5.99c0 2.24 0.892 4.39 2.48 5.98s3.741 2.48 5.986 2.48c2.246 0 4.399-0.89 5.987-2.48 1.587-1.59 2.479-3.74 2.479-5.98 0-2.25-0.892-4.4-2.479-5.99-1.588-1.59-3.741-2.48-5.987-2.48zm32.453 32.45c-2.245 0-4.398 0.89-5.986 2.48s-2.48 3.74-2.48 5.99c0 2.24 0.892 4.4 2.48 5.99 1.588 1.58 3.741 2.47 5.986 2.47 2.246 0 4.399-0.89 5.987-2.47 1.587-1.59 2.479-3.75 2.479-5.99 0-2.25-0.892-4.4-2.479-5.99-1.588-1.59-3.741-2.48-5.987-2.48zm-64.906 0c-2.245 0-4.398 0.89-5.986 2.48s-2.48 3.74-2.48 5.99c0 2.24 0.892 4.4 2.48 5.99 1.588 1.58 3.741 2.47 5.986 2.47 2.246 0 4.399-0.89 5.987-2.47 1.587-1.59 2.479-3.75 2.479-5.99 0-2.25-0.892-4.4-2.479-5.99-1.588-1.59-3.741-2.48-5.987-2.48zm32.453 32.46c-2.245 0-4.398 0.89-5.986 2.48-1.588 1.58-2.48 3.74-2.48 5.98 0 2.25 0.892 4.4 2.48 5.99s3.741 2.48 5.986 2.48c2.246 0 4.399-0.89 5.987-2.48 1.587-1.59 2.479-3.74 2.479-5.99 0-2.24-0.892-4.4-2.479-5.98-1.588-1.59-3.741-2.48-5.987-2.48z"/>
    <path fill="url(#linearGradient2519)" stroke="#000" stroke-linecap="square" d="m401.93 1532.1c25.634 0.11 46.354 20.92 46.354 46.56 0 12.35-4.906 24.19-13.638 32.92-8.732 8.74-20.576 13.64-32.925 13.64s-24.193-4.9-32.925-13.64c-8.732-8.73-13.638-20.57-13.638-32.92s4.906-24.19 13.638-32.93c8.732-8.73 20.576-13.63 32.925-13.63h0.209zm-0.21 5.64c-2.245 0-4.398 0.89-5.986 2.48s-2.48 3.74-2.48 5.99c0 2.24 0.892 4.39 2.48 5.98s3.741 2.48 5.986 2.48c2.246 0 4.399-0.89 5.987-2.48 1.587-1.59 2.479-3.74 2.479-5.98 0-2.25-0.892-4.4-2.479-5.99-1.588-1.59-3.741-2.48-5.987-2.48zm32.453 32.45c-2.245 0-4.398 0.89-5.986 2.48s-2.48 3.74-2.48 5.99c0 2.24 0.892 4.4 2.48 5.99 1.588 1.58 3.741 2.47 5.986 2.47 2.246 0 4.399-0.89 5.987-2.47 1.587-1.59 2.479-3.75 2.479-5.99 0-2.25-0.892-4.4-2.479-5.99-1.588-1.59-3.741-2.48-5.987-2.48zm-64.906 0c-2.245 0-4.398 0.89-5.986 2.48s-2.48 3.74-2.48 5.99c0 2.24 0.892 4.4 2.48 5.99 1.588 1.58 3.741 2.47 5.986 2.47 2.246 0 4.399-0.89 5.987-2.47 1.587-1.59 2.479-3.75 2.479-5.99 0-2.25-0.892-4.4-2.479-5.99-1.588-1.59-3.741-2.48-5.987-2.48zm32.453 32.46c-2.245 0-4.398 0.89-5.986 2.48-1.588 1.58-2.48 3.74-2.48 5.98 0 2.25 0.892 4.4 2.48 5.99s3.741 2.48 5.986 2.48c2.246 0 4.399-0.89 5.987-2.48 1.587-1.59 2.479-3.74 2.479-5.99 0-2.24-0.892-4.4-2.479-5.98-1.588-1.59-3.741-2.48-5.987-2.48z"/>
    <circle r="11.288" fill="#ababab" stroke="#000" stroke-linejoin="round" cx="401.72" cy="1578.7"/>
    <path fill="#f2f2f2" stroke="#000" stroke-linecap="square" d="m401.93 1532.1c25.633 0.11 46.354 20.92 46.354 46.56 0 25.71-20.848 46.56-46.563 46.56-25.716 0-46.563-20.85-46.563-46.56 0-25.72 20.847-46.56 46.563-46.56h0.209zm-51.005 46.56c0 28.05 22.742 50.8 50.796 50.8 28.053 0 50.796-22.75 50.796-50.8s-22.743-50.8-50.796-50.8c-28.054 0-50.796 22.75-50.796 50.8z"/>
    <circle r="11.288" fill="#ababab" stroke="#000" stroke-linejoin="round" cx="218.29" cy="1578.7"/>
  </g>
  <use width="100%" height="100%" xlink:href="#g1970" transform="translate(330.39)"/>
  <path fill="none" stroke="#000" d="m782.71 1440.3v67.726"/>
  <path fill="#c7c7c7" stroke="#000" d="m205.6 1508.1v-170.73h4.2331v170.73z"/>
  <path fill="#c7c7c7" stroke="#000" d="m674.06 1508.1v-148.15h4.2331v148.15z"/>
  <path fill="#c7c7c7" stroke="#000" d="m580.37 1508.1v-170.73h4.2331v170.73z"/>
  <path fill="#c7c7c7" stroke="#000" d="m486.68 1508.1v-170.73h4.2331v170.73z"/>
  <path fill="#c7c7c7" stroke="#000" d="m392.99 1508.1v-170.73h4.2331v170.73z"/>
  <path fill="#c7c7c7" stroke="#000" d="m299.3 1508.1v-170.73h4.2331v170.73z"/>
  <path fill="none" stroke="#000" d="m118.12 1383.9h664.59"/>
  <path fill="none" stroke="#000" d="m432.78 1337.3-84.121-45.151"/>
  <path fill="none" stroke="#000" d="m717.24 1292.2v91.713"/>
  <path fill="none" stroke="#000" d="m865.96 1440.3v-193.3h5.6441v193.3z"/>
  <path fill="#d0d0d0" stroke="#000" d="m723.45 1440.3h74.785v-29.63z"/>
  <rect width="12.699" height="36.685" fill="#ededed" stroke="#060604" stroke-linejoin="round" x="860.32" y="1509.5" rx="6.3496" ry="6.3493"/>
  <path fill="#b2b2b2" stroke="#000" d="m1042.3 1593.6 52.208-24.917c2.8831-1.3761 4.971 2.7774 2.0019 4.1944l-52.208 24.917"/>
  <ellipse fill="#b2b2b2" stroke="#000" stroke-linejoin="round" cx="1042.3" cy="1594.1" rx="4.2331" ry="4.2329"/>
  <ellipse fill="#ccc" stroke="#000" stroke-linejoin="round" cx="1015.5" cy="1568.7" rx="14.11" ry="14.11"/>
  <ellipse fill="#a6a6a6" stroke="#000" stroke-linejoin="round" cx="1015.5" cy="1568.7" rx="7.0551" ry="7.0548"/>
  <path fill="url(#linearGradient15591)" d="m1252.6 1314.8-259.63 9.8768c-6.7472 0.2567-11.91 4.1971-14.11 11.288l-12.699 40.918c-2.1526 6.9358-7.9784 10.457-12.6 9.6232s-7.963-5.1498-6.763-9.8768l-10.707 42.169c1.286-5.0659 7.0948-8.4233 11.928-6.2198 4.8328 2.2036 5.3938 7.3396 4.0319 10.866l-9.8772 25.577 217.3 28.219 46.564-55.207h46.564v-7.0549l2.822 2.822h366.87v-103l-366.87 12.699-2.822 4.2329zm366.87 15.521v9.8767s-340.93 9.2567-362.93 9.8493c-0.7338 0.014-1.1135 0.028-1.1135 0.028l-2.822 2.8219v-12.699l0.028 0.028 2.7938 2.793s0.3955-0.014 1.1575-0.041c22.365-0.7764 362.89-12.658 362.89-12.658zm0.014 22.11-0.014 10.342s-348.64 4.7555-363.3 5.1506l-3.5689 3.3152 0.1044-12.586 3.478 3.147c14.915-0.5079 363.3-9.3696 363.3-9.3696zm0.014 22.11-0.028 9.3973s-356.34 1.6792-363.68 1.8767l-3.1886 3.7671 0.055-12.627 3.1471 3.6818c7.4644-0.2681 363.69-6.0959 363.69-6.0959zm-366.9 20.685s1.3557 2.0322 2.1882 3.2739c0.3668 0.5644 0.6338 0.959 0.6338 0.959s332.49-2.5823 361.97-2.8081c1.3546-0.014 2.0752-0.014 2.0752-0.014v5.6439s-0.7337-3e-4 -2.1165 0.014c-29.73 0.1128-361.93 1.3971-361.93 1.3971s-0.2533 0.3815-0.6201 0.9177c-0.8184 1.2558-2.2019 3.3152-2.2019 3.3152v-12.657z"/>
  <path fill="#ad3c3c" stroke="#000" d="m942.13 1449 2.506-6.49s91.95-11.09 137.18-4.24c29.84 4.52 85.61 29.46 85.61 29.46l-8 9.49z" filter="url(#filter16117)"/>
  <path fill="url(#linearGradient16473)" stroke="#000" d="m942.16 1449 217.3 28.219-0.035 5.2194-225.73-28.637 0.058-6.016z"/>
  <path fill="#b2b2b2" stroke="#000" d="m1532.7 1245.6h-29.632v7.0548h4.2331l1.6293-2.8219h18.125l1.411 2.8219h4.2331z"/>
  <path fill="#ccc" stroke="#000" stroke-linejoin="round" d="m1508 1263.3c0 7.8584 3.1219 15.395 8.6789 20.952 5.557 5.5568 13.094 8.6786 20.953 8.6786h11.288v-19.754h-11.288c-2.6196 0-5.1319-1.0405-6.9842-2.8929-1.8524-1.8521-2.893-4.3644-2.893-6.9838"/>
  <path fill="#bfbfbf" stroke="#000" d="m1508 1263.3v-7.7603h19.754v7.7603"/>
  <use width="100%" height="100%" xlink:href="#g1454" transform="matrix(-1 0 0 1 2697.8 0)"/>
  <use width="100%" height="100%" xlink:href="#g1454" transform="translate(340.06)"/>
  <path fill="#808080" stroke="#000" d="m946.78 1376.6-3.843-0.9755-10.705 42.169 3.8431 0.9755z"/>
  <path fill="#cfcfcf" stroke="#000" d="m1361.6 1519.4-3.8486 8.4658v15.521h-17.666v-15.521l-3.884-8.4658z"/>
  <path fill="#cfcfcf" stroke="#000" d="m1381.3 1561.7c2.9399-0.639 5.6441-3.4478 5.6441-7.0548s-2.7042-6.4158-5.6441-7.0548l-32.454-7.0549-32.454 7.0549c-2.9399 0.639-5.6442 3.4478-5.6442 7.0548s2.7043 6.4158 5.6442 7.0548l32.454 7.0548z"/>
  <ellipse fill="none" stroke="#000" stroke-linejoin="round" cx="1348.9" cy="1554.6" rx="5.6441" ry="5.6439"/>
  <ellipse fill="none" stroke="#000" stroke-linejoin="round" cx="1318.9" cy="1554.6" rx="2.8221" ry="2.8219"/>
  <ellipse fill="none" stroke="#000" stroke-linejoin="round" cx="1378.8" cy="1554.6" rx="2.8221" ry="2.8219"/>
  <path fill="#cfcfcf" stroke="#000" d="m1358.8 1499.6v8.4658l7.9503 5.2958c3.1847 1.8304 4.3409 6.145 2.3927 9.5193-1.9482 3.3742-6.263 4.5304-9.3156 2.7468l-10.905-4.8632-10.905 4.8632c-3.0526 1.7836-7.3674 0.6274-9.3156-2.7468-1.9482-3.3743-0.792-7.6889 2.3927-9.5193l7.9503-5.2958v-8.4658z"/>
  <ellipse fill="none" stroke="#000" stroke-linejoin="round" cx="1348.9" cy="1515.1" rx="2.8221" ry="2.8219"/>
  <ellipse fill="none" stroke="#000" stroke-linejoin="round" cx="1333.4" cy="1519.4" rx="2.8221" ry="2.8219"/>
  <ellipse fill="none" stroke="#000" stroke-linejoin="round" cx="1364.4" cy="1519.4" rx="2.8221" ry="2.8219"/>
  <path fill="#808080" stroke="#000" d="m1523.5 1443.2h9.8772v2.8219h-7.0551v7.0548h-2.8221z"/>
  <ellipse id="path2594" fill="#bfbfbf" stroke="#000" stroke-linejoin="round" cx="1518.9" cy="1567.3" rx="3.5276" ry="3.5274"/>
  <use width="100%" height="100%" id="use2596" xlink:href="#path2594" transform="translate(0 -53.617)"/>
  <use width="100%" height="100%" id="use2598" xlink:href="#use2596" transform="translate(-20.813)"/>
  <use width="100%" height="100%" id="use2600" xlink:href="#use2598" transform="translate(20.813 40.213)"/>
  <use width="100%" height="100%" id="use2602" xlink:href="#use2600" transform="translate(0 -13.404)"/>
  <use width="100%" height="100%" id="use2604" xlink:href="#use2602" transform="translate(0 -13.404)"/>
  <use width="100%" height="100%" xlink:href="#use2604" transform="translate(-10.406 -13.404)"/>
  <path fill="#808080" stroke="#000" d="m1524.9 1523.6h4.2331v-22.575h-9.8772v-15.521h-16.932v22.576h4.233v-18.343h7.0552v18.343h4.2331v-2.8219h7.0551z"/>
  <path fill="#808080" stroke="#000" d="m1663.2 1529.2 4.2331 4.2329v32.452l-4.2331 4.2329h-8.4662l-4.2331-4.2329v-32.452l4.2331-4.2329z"/>
  <path fill="#d7d7d7" stroke="#000" stroke-linejoin="round" d="m1653.3 1533.5v31.041h11.288v-31.041zm5.5753 2.8219a2.8221 2.8219 0 0 1 0.069 0 2.8221 2.8219 0 0 1 2.8221 2.822 2.8221 2.8219 0 0 1-2.8221 2.8219 2.8221 2.8219 0 0 1-2.8221-2.8219 2.8221 2.8219 0 0 1 2.7532-2.822zm0 19.754a2.8221 2.8219 0 0 1 0.069 0 2.8221 2.8219 0 0 1 2.8221 2.822 2.8221 2.8219 0 0 1-2.8221 2.8219 2.8221 2.8219 0 0 1-2.8221-2.8219 2.8221 2.8219 0 0 1 2.7504-2.822z"/>
  <path fill="#808080" stroke="#000" d="m1644.9 1547.6h-4.2331v38.096h25.399v-5.6438h-21.166z"/>
  <path fill="none" stroke="#000" d="m1724.6 1447.4v-4.2329"/>
  <path fill="none" stroke="#000" d="m1790.2 1447.4v-4.2329"/>
  <path fill="#c4c4c4" stroke="#000" d="m1646.3 1591.3v-5.6439h172.15v5.6439z"/>
  <path fill="#ccc" stroke="#000" d="m1725.3 1570.1v15.521h-9.8772v-15.521z"/>
  <path fill="#ccc" stroke="#000" d="m1798.7 1570.1v15.521h-9.8772v-15.521z"/>
  <path fill="#bfbfbf" stroke="#000" d="m1856.5 1509.5h33.865v21.164h-33.865z"/>
  <path fill="#c4c4c4" stroke="#000" d="m1649.1 1543.3v12.699l76.196 18.343h76.196l38.098-25.397h11.288v-5.6438h5.6441v-9.8768h32.454v9.8768h5.6441v5.6438h31.043v-12.699l-7.0552-5.6438-70.551-5.6439-40.92 18.343z"/>
  <path fill="#b8b8b8" stroke="#000" d="m1791.6 1560.3 4.2331-4.2329v-16.971h-31.043v16.971l4.2331 4.2329z"/>
  <ellipse fill="none" stroke="#000" stroke-linejoin="round" cx="1769" cy="1549" rx="2.8221" ry="2.8219"/>
  <ellipse fill="none" stroke="#000" stroke-linejoin="round" cx="1791.6" cy="1549" rx="2.8221" ry="2.8219"/>
  <ellipse fill="none" stroke="#000" stroke-linejoin="round" cx="1780.3" cy="1549" rx="2.8221" ry="2.8219"/>
  <path fill="#808080" stroke="#000" d="m1931.3 1509.5h-5.6441v43.74h5.6442z"/>
  <path fill="#e5e5e5" stroke="#000" d="m1736.6 1461.3v36.888c0 3.0113 2.2783 4.2329 4.2331 4.2329h33.159c1.9549 0 4.2331-1.2216 4.2331-4.2329v-36.888m11.994-18.14v95.936h-65.613v-95.936z"/>
  <path id="path2752" fill="#ccc" stroke="#000" stroke-linejoin="round" d="m1724.6 1490.6c22.66-4.7512 38.81-24.278 38.81-47.431h-19.754c0 11.905-7.9062 22.107-19.052 26.292"/>
  <use width="100%" height="100%" xlink:href="#path2752" transform="matrix(-1 0 0 1 3514.8 0)"/>
  <path fill="#d6d6d6" stroke="#000" stroke-linejoin="round" d="m1771.1 1413.5v39.86c0 7.6213-6.1359 13.757-13.758 13.757s-13.758-6.1356-13.758-13.757v-39.86z"/>
  <path fill="#d6d6d6" stroke="#000" stroke-linejoin="round" d="m1766.9 1391 4.2331 22.576h-27.515l4.2331-22.576z"/>
  <path fill="#808080" stroke="#000" d="m1839.6 1553.2v-4.2329h11.288v-5.6438h5.6441v-9.8768h32.454v9.8768h5.6441v5.6438h12.699v4.2329h-14.11v-5.6438h-16.932v-7.0549h4.233v-5.0587h-14.11v5.0587h4.2331v7.0549h-18.343v5.6438z"/>
  <path fill="#a6a6a6" stroke="#000" d="m1925.6 1549v4.2329h-66.318l-2.8221-5.6438h36.687v1.4109z"/>
  <path fill="#b2b2b2" stroke="#000" d="m1929.9 1598.4v2.822h-112.88v-2.822z"/>
  <rect width="14.11" height="21.164" id="rect2801" fill="url(#linearGradient16676)" stroke="#000" stroke-linejoin="round" x="1818.4" y="1577.2"/>
  <use width="100%" height="100%" xlink:href="#rect2801" transform="translate(95.95)"/>
  <path fill="#b2b2b2" stroke="#000" d="m1548.9 1292.9h170.38v-19.754h-170.38z"/>
  <path fill="none" stroke="#000" stroke-linejoin="round" stroke-dasharray="2, 1" d="m1719.3 1292.9c15.586 0 28.221 12.634 28.221 28.219h19.754c0-26.495-21.479-47.973-47.975-47.973"/>
  <path fill="none" stroke="#000" stroke-linejoin="round" stroke-dasharray="2, 1" d="m1767.2 1321.1v37.404c0 5.4641-4.3992 9.8631-9.8636 9.8631-5.4643 0-9.8635-4.399-9.8635-9.8631v-37.404z" stroke-dashoffset="1.5"/>
  <rect width="8.4662" height="26.808" fill="#ccc" stroke="#000" stroke-linejoin="round" x="1623.7" y="1269.6" rx="0" ry="0"/>
  <rect width="57.852" height="26.808" fill="#ccc" stroke="#000" stroke-linejoin="round" x="1639.2" y="1269.6" rx="0" ry="0"/>
  <rect width="8.4662" height="26.808" fill="#ccc" stroke="#000" stroke-linejoin="round" x="1704.1" y="1269.6" rx="0" ry="0"/>
  <path fill="#d9d9d9" stroke="#000" d="m815.31 1551.8h116.97c5.6441 0 5.6441 7.0549 0 7.0549h-116.97c-4.3769 0-4.3769-7.0549 0-7.0549z"/>
  <g id="g2014" fill="#ededed" stroke="#000" transform="matrix(1.411 0 0 1.411 -403.96 -353)">
    <path d="m868 1367h8v-25h-8z"/>
    <rect width="16" height="4" stroke-linejoin="round" x="864" y="1338"/>
  </g>
  <use width="100%" height="100%" xlink:href="#g2014" transform="translate(95.95)"/>
  <path fill="#ccc" stroke="#000" d="m1163.7 1512.3v93.124h5.6441v-93.124z"/>
  <path fill="#bfbfbf" stroke="#000" stroke-linejoin="round" d="m1160.9 1594.1 2.8221 1.411h5.6441l2.8221-1.411v5.6439l-2.8221 1.411h-5.6441l-2.8221-1.1342z"/>
  <path fill="#bfbfbf" stroke="#000" stroke-linejoin="round" d="m1160.9 1549.7h11.288v5.6439l-11.288 0.2767z"/>
  <path fill="#bfbfbf" stroke="#000" d="m1735.5 1265.4h-113.19v177.78h221.53v-177.78h-63.806" fill-opacity=".5"/>
  <path id="path1372" fill="#d4d4d4" stroke="#000" d="m1709.1 1447.4v91.696h15.521v-91.696zm7.7606 7.7603c2.7275 0 4.9386 2.211 4.9386 4.9384s-2.2111 4.9383-4.9386 4.9383-4.9386-2.2109-4.9386-4.9383 2.2111-4.9384 4.9386-4.9384zm0 16.507c2.7275 0 4.9386 2.211 4.9386 4.9384s-2.2111 4.9384-4.9386 4.9384-4.9386-2.211-4.9386-4.9384 2.2111-4.9384 4.9386-4.9384zm0 16.507c2.7275 0 4.9386 2.211 4.9386 4.9384s-2.2111 4.9384-4.9386 4.9384-4.9386-2.211-4.9386-4.9384 2.2111-4.9384 4.9386-4.9384zm0 16.507c2.7275 0 4.9386 2.211 4.9386 4.9384s-2.2111 4.9384-4.9386 4.9384-4.9386-2.211-4.9386-4.9384 2.2111-4.9384 4.9386-4.9384zm0 16.507c2.7275 0 4.9386 2.211 4.9386 4.9384s-2.2111 4.9384-4.9386 4.9384-4.9386-2.211-4.9386-4.9384 2.2111-4.9384 4.9386-4.9384z"/>
  <use width="100%" height="100%" xlink:href="#path1372" transform="translate(81.134)"/>
  <path fill="#dbdbd7" stroke="#000" stroke-linejoin="round" stroke-linecap="square" d="m1725.3 1259.7c-1.411 0-3.5621 1.4473-3.7065 2.8219 0.8844 5.6439 16.126 12.699 36.16 12.699 20.035 1e-4 35.276-7.0548 36.16-12.699-0.1443-1.3746-2.2954-2.8219-3.7064-2.8219-3.2128 5.6289-16.615 8.3776-32.454 8.3776s-29.241-2.7487-32.454-8.3776z"/>
  <path fill="#d8d8d8" stroke="#000" d="m1649 1594.1v-18.342h8.4662v18.342z"/>
  <path fill="#d9d9d9" stroke="#000" d="m1876.3 1550.4h-5.6442v-9.8768h-4.2331v-5.6438h14.11v5.6438h-4.233z"/>
  <path fill="none" stroke="#000" d="m1217.3 1365.6v63.494l-11.288 14.11"/>
  <rect width="62.085" height="45.151" fill="#b2b2b2" stroke="#000" stroke-linejoin="round" x="1234.2" y="1530.6"/>
  <ellipse fill="#d9d9d9" stroke="#050503" stroke-linejoin="round" cx="1263.9" cy="1552.1" rx="21.48" ry="21.479"/>
  <path fill="#a6a6a6" stroke="#000" stroke-linecap="square" d="m1278 1552.1a14.11 14.11 0 0 1-14.11 14.11 14.11 14.11 0 0 1-14.11-14.11 14.11 14.11 0 0 1 14.11-14.11 14.11 14.11 0 0 1 14.11 14.11z"/>
  <path fill="#d9d9d9" stroke="#000" stroke-linecap="square" d="m1269.5 1552.1a5.6441 5.6439 0 0 1-5.6441 5.6438 5.6441 5.6439 0 0 1-5.6441-5.6438 5.6441 5.6439 0 0 1 5.6441-5.6439 5.6441 5.6439 0 0 1 5.6441 5.6439z"/>
  <rect width="62.085" height="45.151" fill="#b2b2b2" stroke="#000" stroke-linejoin="round" x="1404.3" y="1530.6"/>
  <ellipse fill="#d9d9d9" stroke="#050503" stroke-linejoin="round" cx="1433.9" cy="1552.1" rx="21.48" ry="21.479"/>
  <path fill="#a6a6a6" stroke="#000" stroke-linecap="square" d="m1448 1552.1a14.11 14.11 0 0 1-14.11 14.11 14.11 14.11 0 0 1-14.11-14.11 14.11 14.11 0 0 1 14.11-14.11 14.11 14.11 0 0 1 14.11 14.11z"/>
  <path fill="#d9d9d9" stroke="#000" stroke-linecap="square" d="m1439.5 1552.1a5.6441 5.6439 0 0 1-5.6442 5.6438 5.6441 5.6439 0 0 1-5.6441-5.6438 5.6441 5.6439 0 0 1 5.6441-5.6439 5.6441 5.6439 0 0 1 5.6442 5.6439z"/>
  <rect width="62.085" height="45.151" fill="#b2b2b2" stroke="#000" stroke-linejoin="round" x="1574.3" y="1530.6"/>
  <ellipse fill="#d9d9d9" stroke="#050503" stroke-linejoin="round" cx="1603.9" cy="1552.1" rx="21.48" ry="21.479"/>
  <path fill="#a6a6a6" stroke="#000" stroke-linecap="square" d="m1618 1552.1a14.11 14.11 0 0 1-14.11 14.11 14.11 14.11 0 0 1-14.11-14.11 14.11 14.11 0 0 1 14.11-14.11 14.11 14.11 0 0 1 14.11 14.11z"/>
  <path fill="#d9d9d9" stroke="#000" stroke-linecap="square" d="m1609.6 1552.1a5.6441 5.6439 0 0 1-5.6441 5.6438 5.6441 5.6439 0 0 1-5.6441-5.6438 5.6441 5.6439 0 0 1 5.6441-5.6439 5.6441 5.6439 0 0 1 5.6441 5.6439z"/>
  <path fill="#9c9c9c" transform="matrix(1.411 0 0 1.411 -403.96 -483.51)" d="m553 1269.5 176 94h70l50.692-20.086c-87.653-8.8446-94.21-92.423-134.67-95.237-41.917-2.9154-98.413 23.346-116.86 22.904-8.9654-0.2148-17.704-5.2774-25.287-7.0129-9.324-1.9791-19.88 5.4313-19.88 5.4313z" filter="url(#filter15471)"/>
  <g fill="none" stroke="#000" marker-end="url(#dot)">
    <path d="m1071.1 1151.3h26.625l55.155 205.83"/>
    <path d="m956.47 1689.7h26.626l45.599-170.17"/>
    <path d="m1236.3 1151.3h26.626l42.831 159.83"/>
    <path d="m1868.4 364.32h-26.625l-45.329 169.15"/>
    <path d="m837.99 364.32h26.625l47.624 177.72"/>
    <path d="m244.55 364.32h26.625l69.012 257.54"/>
    <path d="m1492.9 364.32h26.626l26.08 97.323"/>
    <path d="m1421.1 364.32h26.626l23.602 88.077"/>
    <path d="m1465.7 1151.3h26.625l28.5 106.35"/>
    <path d="m1609.1 1151.3h26.625l34.07 127.15"/>
    <path d="m1697.5 902.66h26.625l32.769-122.28"/>
    <path d="m1665.5 1689.7h26.625l69.558-259.57"/>
    <path d="m1488.5 902.66h26.625l43.779-163.37"/>
    <path d="m1153.1 364.32h26.626l43.009 160.5"/>
    <path d="m1056.4 902.66h26.625l43.652-162.89"/>
    <path d="m908.47 902.66h26.625l28.308-105.64"/>
    <path d="m1784.7 1689.7h26.625l34.844-130.03"/>
    <path d="m1182.2 1689.7h26.625l37.54-140.09"/>
    <path d="m1326.9 1689.7h26.626l57.229-213.56"/>
    <path d="m1150.7 902.66h26.625l21.661-79.783"/>
    <path d="m1665.1 364.32h-26.626l-55.566 208.1"/>
    <path d="m1897.7 902.66h26.625l35.51-132.51"/>
    <path d="m985.68 364.32h26.625l24.531 91.545"/>
    <path d="m1293.5 364.32h26.626l21.99 82.062"/>
  </g>
  <g font-family="Arial" font-size="22" text-anchor="middle">
    <switch>
      <g systemLanguage="fa">
        <text x="1085.1696" y="1144.3741"></text>
        <text x="970.53076" y="1682.7294"></text>
        <text x="1250.3810" y="1144.3741"></text>
        <text x="1855.8433" y="357.30685"></text>
        <text x="852.06573" y="357.30685"></text>
        <text x="258.64587" y="357.30685"></text>
        <text x="1506.8927" y="357.30685"></text>
        <text x="1435.1411" y="357.30685"></text>
        <text x="1479.7379" y="1144.3740"></text>
        <text x="1623.1487" y="1144.3740"></text>
        <text x="1711.5913" y="895.66296"></text>
        <text x="1679.5745" y="1682.7294"></text>
        <text x="1502.5400" y="895.66296"></text>
        <text x="1167.2074" y="357.30685"></text>
        <text x="1070.4238" y="895.66296"></text>
        <text x="922.54163" y="895.66296"></text>
        <text x="1798.7434" y="1682.7294"></text>
        <text x="1196.2323" y="1682.7294"></text>
        <text x="1341.0164" y="1682.7294"></text>
        <text x="1164.6941" y="895.66296"></text>
        <text x="1652.5021" y="357.30685"></text>
        <text x="1911.7440" y="895.66296"></text>
        <text x="999.74042" y="357.30685"></text>
        <text x="1307.6204" y="357.30685"></text>
      </g>
      <g>
        <text x="1085.1696" y="1144.3741">1</text>
        <text x="970.53076" y="1682.7294">2</text>
        <text x="1250.3810" y="1144.3741">3</text>
        <text x="1855.8433" y="357.30685">4</text>
        <text x="852.06573" y="357.30685">5</text>
        <text x="258.64587" y="357.30685">6</text>
        <text x="1506.8927" y="357.30685">7</text>
        <text x="1435.1411" y="357.30685">8</text>
        <text x="1479.7379" y="1144.3740">9</text>
        <text x="1623.1487" y="1144.3740">10</text>
        <text x="1711.5913" y="895.66296">11</text>
        <text x="1679.5745" y="1682.7294">12</text>
        <text x="1502.5400" y="895.66296">13</text>
        <text x="1167.2074" y="357.30685">14</text>
        <text x="1070.4238" y="895.66296">15</text>
        <text x="922.54163" y="895.66296">16</text>
        <text x="1798.7434" y="1682.7294">17</text>
        <text x="1196.2323" y="1682.7294">18</text>
        <text x="1341.0164" y="1682.7294">19</text>
        <text x="1164.6941" y="895.66296">20</text>
        <text x="1652.5021" y="357.30685">21</text>
        <text x="1911.7440" y="895.66296">22</text>
        <text x="999.74042" y="357.30685">23</text>
        <text x="1307.6204" y="357.30685">24</text>
      </g>
    </switch>
  </g>
  <path fill="#f5f5f5" stroke="#000" d="m1644.9 1296.4v5.6438l-19.754 17.902-323.13 11.729v4.2329l325.5-11.315 22.281-21.137v-7.0548z"/>
  <path fill="#f5f5f5" stroke="#000" d="m1686.5 1296.4v39.507l-60.191 51.59-324.64 2.8677v4.2329l325.83-1.9449 63.89-55.335v-40.918z"/>
  <path fill="#f5f5f5" stroke="#000" d="m1658.5 1296.4v16.932l-33.466 30.889-323.17 8.3539v4.2329l325.54-8.1598 35.992-33.905v-18.342z"/>
  <path fill="#f5f5f5" stroke="#000" d="m1672.9 1296.4v28.219l-46.588 41.754-324.6 4.9841v4.2329l325.8-4.0614 50.288-45.499v-29.63z"/>
</svg>
