<svg viewBox="0 0 2048 2048" xmlns="http://www.w3.org/2000/svg" xmlns:xlink="http://www.w3.org/1999/xlink">
  <linearGradient id="a">
    <stop offset="0" stop-color="#d27979"/>
    <stop offset="1" stop-color="#fd9c9c"/>
  </linearGradient>
  <linearGradient id="b" gradientUnits="userSpaceOnUse" spreadMethod="reflect" x1="118.11" x2="455.339" y1="790.937" y2="699.222">
    <stop offset="0" stop-color="#789880"/>
    <stop offset="1" stop-color="#8eb196"/>
  </linearGradient>
  <linearGradient id="c" gradientUnits="userSpaceOnUse" spreadMethod="reflect" x1="132.22" x2="222.524" y1="823.39" y2="800.814">
    <stop offset="0" stop-color="#cecece"/>
    <stop offset="1" stop-color="#e6e6e6"/>
  </linearGradient>
  <linearGradient id="d" gradientUnits="userSpaceOnUse" spreadMethod="reflect" x1="441" x2="441" xlink:href="#a" y1="940" y2="924"/>
  <linearGradient id="e">
    <stop offset="0" stop-color="#fafafa"/>
    <stop offset="1" stop-color="#cfcfcf"/>
  </linearGradient>
  <linearGradient id="f" gradientUnits="userSpaceOnUse" spreadMethod="reflect" x1="504" x2="504" xlink:href="#e" y1="924" y2="906"/>
  <linearGradient id="g" gradientUnits="userSpaceOnUse" spreadMethod="reflect" x1="571" x2="571" xlink:href="#a" y1="940" y2="924"/>
  <linearGradient id="h" gradientUnits="userSpaceOnUse" spreadMethod="reflect" x1="498" x2="499" y1="903" y2="901">
    <stop offset="0" stop-color="#757575"/>
    <stop offset=".5" stop-color="#757575"/>
    <stop offset=".5" stop-color="#ccc"/>
    <stop offset="1" stop-color="#ccc"/>
  </linearGradient>
  <linearGradient id="i" gradientUnits="userSpaceOnUse" x1="871.584" x2="871.584" y1="563.766" y2="529.902">
    <stop offset="0" stop-color="#5b7260"/>
    <stop offset=".70833" stop-color="#9ac1a3"/>
    <stop offset="1" stop-color="#5b7260"/>
  </linearGradient>
  <linearGradient id="j" gradientUnits="userSpaceOnUse" x1="1176.36" x2="1176.36" y1="776.827" y2="549.656">
    <stop offset="0" stop-color="#789880"/>
    <stop offset=".78882" stop-color="#a2cbab"/>
    <stop offset="1" stop-color="#5b7260"/>
  </linearGradient>
  <linearGradient id="k" gradientUnits="userSpaceOnUse" spreadMethod="reflect" x1="995.752" x2="995.752" xlink:href="#e" y1="885.474" y2="855.843"/>
  <linearGradient id="l" gradientUnits="userSpaceOnUse" x1="1701.252" x2="1701.252" y1="726.031" y2="548.245">
    <stop offset="0" stop-color="#8c8c8c"/>
    <stop offset=".72466" stop-color="#f5f5f5"/>
    <stop offset="1" stop-color="#8c8c8c"/>
  </linearGradient>
  <filter id="m" color-interpolation-filters="sRGB" height="1.0154" width="1.006" x="-.003001" y="-.007706">
    <feConvolveMatrix in="SourceGraphic" kernelMatrix="0 250 0 250 -1000 250 0 250 0" order="3 3" result="convolve"/>
    <feBlend in="convolve" in2="SourceGraphic" mode="multiply" result="blend"/>
    <feTurbulence baseFrequency=".5 .5" result="turbulence" seed="70" type="fractalNoise"/>
    <feColorMatrix in="blend" result="colormatrix1" type="luminanceToAlpha"/>
    <feComposite in="turbulence" in2="colormatrix1" k1="1" k2="1.3" operator="arithmetic" result="composite1"/>
    <feColorMatrix in="composite1" result="colormatrix2" values="1 0 0 0 0 0 1 0 0 0 0 0 1 0 0 0 0 0 10 -9"/>
    <feGaussianBlur result="blur" stdDeviation=".37101656"/>
    <feFlood flood-color="#808080" result="flood1"/>
    <feComposite in="flood1" in2="blur" operator="out" result="composite2"/>
    <feFlood result="flood2"/>
    <feComposite in="flood2" in2="blur" operator="in" result="composite3"/>
    <feComposite in="composite3" in2="composite2" k2="1" k3="1" operator="arithmetic" result="composite4"/>
    <feComposite in2="SourceGraphic" operator="in" result="composite5"/>
  </filter>
  <linearGradient id="n" gradientUnits="userSpaceOnUse" x1="935.3612" x2="1622.9415" y1="1330.7856" y2="1330.7856">
    <stop offset="0" stop-color="#ffc500"/>
    <stop offset="1" stop-color="#c00"/>
  </linearGradient>
  <filter id="o" color-interpolation-filters="sRGB" height="1.0124" width="1.0023" x="-.001136" y="-.006213">
    <feConvolveMatrix in="SourceGraphic" kernelMatrix="0 250 0 250 -1000 250 0 250 0" order="3 3" result="convolve"/>
    <feBlend in="convolve" in2="SourceGraphic" mode="multiply" result="blend"/>
    <feTurbulence baseFrequency=".5 .5" result="turbulence" seed="70" type="fractalNoise"/>
    <feColorMatrix in="blend" result="colormatrix1" type="luminanceToAlpha"/>
    <feComposite in="turbulence" in2="colormatrix1" k1="1" k2="1.3" operator="arithmetic" result="composite1"/>
    <feColorMatrix in="composite1" result="colormatrix2" values="1 0 0 0 0 0 1 0 0 0 0 0 1 0 0 0 0 0 10 -9"/>
    <feGaussianBlur result="blur" stdDeviation=".07554027"/>
    <feFlood flood-color="#5a2727" result="flood1"/>
    <feComposite in="flood1" in2="blur" operator="out" result="composite2"/>
    <feFlood flood-color="#c03333" result="flood2"/>
    <feComposite in="flood2" in2="blur" operator="in" result="composite3"/>
    <feComposite in="composite3" in2="composite2" k2="1" k3="1" operator="arithmetic" result="composite4"/>
    <feComposite in2="SourceGraphic" operator="in" result="composite5"/>
  </filter>
  <linearGradient id="p" gradientUnits="userSpaceOnUse" spreadMethod="repeat" x1="933.668" x2="944.26461" y1="1388.4955" y2="1388.4955">
    <stop offset="0" stop-color="#e5e5e5"/>
    <stop offset=".48305" stop-color="#e5e5e5"/>
    <stop offset=".48305" stop-color="#595959"/>
    <stop offset="1" stop-color="#595959"/>
  </linearGradient>
  <linearGradient id="q" gradientUnits="userSpaceOnUse" spreadMethod="repeat" x1="1832.475" x2="1829.2297" y1="1511.958" y2="1517.0376">
    <stop offset="0" stop-color="#d9d9d9"/>
    <stop offset=".56969" stop-color="#d9d9d9"/>
    <stop offset=".56969" stop-color="#808080"/>
    <stop offset="1" stop-color="#808080"/>
  </linearGradient>
  <linearGradient id="r" gradientUnits="userSpaceOnUse" spreadMethod="reflect" x1="218.291" x2="218.291" xlink:href="#a" y1="908.05" y2="885.474"/>
  <linearGradient id="s" gradientUnits="userSpaceOnUse" spreadMethod="reflect" x1="388.321" x2="388.321" xlink:href="#a" y1="908.05" y2="885.474"/>
  <linearGradient id="t" gradientUnits="userSpaceOnUse" spreadMethod="reflect" x1="558.347" x2="558.347" xlink:href="#a" y1="908.05" y2="885.474"/>
  <path d="m1795.8 1331.3 15.521 8.961m-95.95-140.18v117.11l31.043 14.11h49.386l47.975-131.22" fill="none" stroke="#000"/>
  <path d="m1603.9 1409.3c-42.861 0-77.607 34.745-77.607 77.605s34.746 77.605 77.607 77.605 77.607-34.745 77.607-77.605-34.746-77.605-77.607-77.605z" fill="#f2f2f2" stroke="#000" stroke-linecap="square"/>
  <path d="m1603.9 1409.3c-42.861 0-77.607 34.745-77.607 77.605s34.746 77.605 77.607 77.605 77.607-34.745 77.607-77.605-34.746-77.605-77.607-77.605z" fill="none" stroke="#000" stroke-linecap="square"/>
  <path d="m1603.9 1420.6c-36.606.028-66.266 29.711-66.266 66.317 0 36.626 29.692 66.317 66.318 66.317 36.627 0 66.318-29.691 66.318-66.317s-29.692-66.317-66.318-66.317z" fill="url(#t)" stroke="#000" stroke-linecap="square"/>
  <path d="m1548.9 1523.2h111.47v14.11h-111.47z" fill="#dedede" stroke="#000" stroke-linejoin="round"/>
  <path d="m1433.9 1409.3c-42.861 0-77.607 34.745-77.607 77.605s34.746 77.605 77.607 77.605 77.607-34.745 77.607-77.605-34.746-77.605-77.607-77.605z" fill="#f2f2f2" stroke="#000" stroke-linecap="square"/>
  <path d="m1433.9 1409.3c-42.861 0-77.607 34.745-77.607 77.605s34.746 77.605 77.607 77.605 77.607-34.745 77.607-77.605-34.746-77.605-77.607-77.605z" fill="none" stroke="#000" stroke-linecap="square"/>
  <path d="m1433.9 1420.6c-36.606.028-66.266 29.711-66.266 66.317 0 36.626 29.692 66.317 66.318 66.317 36.627 0 66.318-29.691 66.318-66.317s-29.692-66.317-66.318-66.317z" fill="url(#s)" stroke="#000" stroke-linecap="square"/>
  <path d="m1378.9 1523.2h111.47v14.11h-111.47z" fill="#dedede" stroke="#000" stroke-linejoin="round"/>
  <path d="m1263.9 1409.3c-42.861 0-77.607 34.745-77.607 77.605s34.746 77.605 77.607 77.605 77.607-34.745 77.607-77.605-34.746-77.605-77.607-77.605z" fill="#f2f2f2" stroke="#000" stroke-linecap="square"/>
  <path d="m1263.9 1409.3c-42.861 0-77.607 34.745-77.607 77.605s34.746 77.605 77.607 77.605 77.607-34.745 77.607-77.605-34.746-77.605-77.607-77.605z" fill="none" stroke="#000" stroke-linecap="square"/>
  <path d="m1263.8 1420.6c-36.606.028-66.266 29.711-66.266 66.317 0 36.626 29.692 66.317 66.318 66.317 36.627 0 66.318-29.691 66.318-66.317s-29.692-66.317-66.318-66.317z" fill="url(#r)" stroke="#000" stroke-linecap="square"/>
  <path d="m1208.8 1523.2h111.47v14.11h-111.47z" fill="#dedede" stroke="#000" stroke-linejoin="round"/>
  <path d="m990.14 1480.9-36.687 11.288-16.932 18.343h-28.221v18.343h81.84v7.055h14.11v-7.055h22.576v7.055h14.11v-7.055h145.34v-31.042h-90.306l-53.619-16.932z" fill="#d9d9d9" stroke="#000"/>
  <g stroke="#000" stroke-linecap="square" stroke-width=".70871" transform="matrix(1.411 0 0 1.411 -403.96 233.59)">
    <path d="m1005.7 857a43 43 0 0 0 -42.728 43 43 43 0 0 0 43 43 43 43 0 0 0 43-43 43 43 0 0 0 -43-43 43 43 0 0 0 -.2715 0zm.016 8c.085-.0003.1709-.0003.2559 0 19.33 0 35 15.67 35 35s-15.67 35-35 35-35-15.67-35-35c-.00051-19.23 15.514-34.859 34.744-35z" fill="#f2f2f2"/>
    <path d="m1005.7 1327c-19.23.1406-34.745 15.77-34.744 35 0 19.33 15.67 35 35 35s35-15.67 35-35-15.67-35-35-35c-.085-.0003-.1706-.0003-.2559 0zm-24.744 29c3.3137 0 6 2.6863 6 6s-2.6863 6-6 6-6-2.6863-6-6 2.6863-6 6-6zm25 25c3.3137 0 6 2.6863 6 6s-2.6863 6-6 6-6-2.6863-6-6 2.6863-6 6-6z" fill="url(#d)" transform="translate(0 -462)"/>
  </g>
  <path d="m1199 1440-19.754 7.0549h-237.05v33.864h95.95l59.263 38.097h131.23v7.0549h12.699v-15.521h47.909l.066 15.521h12.699v-7.0549h95.95v7.0549h12.699v-15.521h47.975v15.521h12.699v-7.0549h97.361v7.0549h12.699v-15.521h47.975v15.521h12.699v-9.8769h26.81l28.221-11.288h115.7l12.699-16.932h105.83v-46.563h-108.65l-23.988 31.042h-81.84l-66.318-32.453zm380.98 14.11h47.975v11.288h-47.975zm-340.06 0h47.975v11.288h-47.975zm170.03 0h47.975v11.288h-47.975zm76.196 1.411h21.684c3.1268 0 5.6441 2.5172 5.6441 5.644v35.275c0 3.1267-2.5173 5.6439-5.6441 5.6439h-21.684c-3.1268 0-5.6441-2.5172-5.6441-5.6439v-35.275c0-3.1268 2.5173-5.644 5.6441-5.644zm43.929 0h21.684c2.822 0 5.6441 2.4218 5.6441 5.644v35.275c0 3.1267-2.5173 5.6439-5.6441 5.6439h-21.684c-3.1268 0-5.6441-2.5172-5.6441-5.6439v-35.275c0-3.1268 2.5173-5.644 5.6441-5.644zm-327.55 2.822h12.699c3.5177 0 6.3496 2.8319 6.3496 6.3495v32.453c0 3.5176-2.8319 6.3494-6.3496 6.3494h-12.699c-3.5177 0-6.3496-2.8318-6.3496-6.3494v-32.453c0-3.5176 2.8319-6.3495 6.3496-6.3495zm111.47 0h19.382c3.5177 0 6.3496 2.8319 6.3496 6.3495v32.453c0 3.5176-2.8319 6.3494-6.3496 6.3494h-19.382c-3.5177 0-6.3496-2.8318-6.3496-6.3494v-32.453c0-3.5176 2.8319-6.3495 6.3496-6.3495zm50.516 0h18.646c3.5175 0 6.3496 2.8319 6.3496 6.3495v32.453c0 3.5176-2.8321 6.3494-6.3496 6.3494h-18.646c-3.5177 0-6.3496-2.8318-6.3496-6.3494v-32.453c0-3.5176 2.8319-6.3495 6.3496-6.3495zm-284.04 5.644h70.551v22.576c0 2.5296-.7055 7.055-8.4661 5.644l-62.085-11.288c-11.288-2.0523-5.6441-16.932 0-16.932z" fill="url(#c)" stroke="#000"/>
  <path d="m1378.2 1197.3c0 8.4659-15.521 12.699-32.454 12.699-16.932 0-32.454-4.233-32.454-12.699v-16.932c0-8.466 15.521-12.699 32.454-12.699 16.932 0 32.454 4.2329 32.454 12.699z" fill="#d9d9d9" stroke="#000"/>
  <path d="m1033.9 1226.9v-45.152h-313.25v45.152" fill="#adc0b2" stroke="#000"/>
  <path d="m1033.9 1219.9v155.21h-222.94v-155.21" fill="#adc0b2" stroke="#000"/>
  <path d="m1622.3 1200.1v177.79h-416.25l-29.632 35.275v15.521l-251.16-32.453 46.564-183.43c.7164-2.822 2.4721-6.9757 5.6441-7.055l56.441-1.411c48.894-.3266 110.65-2.9869 215.89-4.233 87.836-1.0399 206.29 0 372.51 0z" fill="#bfcae0" stroke="#000"/>
  <path d="m1033.9 1219.9h-222.94z" fill="#e5e5e5" stroke="#000"/>
  <path d="m1622.3 1235.4h-656.13l5.6441-22.576c.7164-2.822 2.4721-6.9757 5.6441-7.055l56.441-1.411c48.894-.3266 110.65-2.9869 215.89-4.233 87.836-1.0399 206.29 0 372.51 0z" fill="#eaf0f5" stroke="#000"/>
  <path d="m1485.4 1199.9v-22.38c0-2.822 2.8221-5.644 7.0552-5.644h50.797c4.2331-.076 7.0552 2.822 7.0552 5.644v22.516" fill="#d9d9d9" stroke="#000"/>
  <path d="m1549.7 1199.8c-2.9511 6.6611-16.86 10.168-31.88 10.168-15.102 0-29.081-3.5436-31.927-10.278" fill="#d9d9d9"/>
  <path d="m720.63 1219.9h62.085v222.94h-664.59v-184.84h183.43l33.865-31.042h385.21z" fill="#adc0b2" stroke="#000"/>
  <path d="m118.12 1442.8v-170.73h314.66l191.9 103h172.15l49.386 67.728z" fill="#bec9df" stroke="#000"/>
  <path d="m792.82 1449.9-.2271 52.207-15.521-31.042h-570.06l-9.8772 9.877h-79.018v-31.042z" fill="url(#c)" stroke="#000"/>
  <path d="m861.73 834.68h53.619v7.055h-53.619z" fill="#bfbfbf" stroke="#000"/>
  <path d="m933.69 745.78v14.11l118.53 103 104.42-83.249v-5.644z" fill="#728d77" stroke="#000"/>
  <path d="m1622.3 548.24v177.79h-416.25l-29.632 35.275v15.521l-251.16-32.453v-176.37h108.65v-15.521c48.894-.32672 110.65-2.987 215.89-4.233 87.836-1.04 206.29 0 372.51-.00001z" fill="url(#j)" stroke="#000"/>
  <path d="m1378.2 545.42c0 8.466-15.521 12.699-32.454 12.699-16.932 0-32.454-4.233-32.454-12.699v-16.932c0-8.466 15.521-12.699 32.454-12.699 16.932 0 32.454 4.233 32.454 12.699z" fill="#74917a" stroke="#000"/>
  <path d="m1368.3 709.1v25.398h-9.8772v-25.398z" fill="#b0b5b0" stroke="#000"/>
  <path d="m1033.9 568v155.21h-222.94v-155.21z" fill="#799a81" stroke="#000"/>
  <rect fill="#b6b594" height="67.728" rx="4.2331" ry="4.233" stroke="#000" stroke-linecap="square" width="68.667" x="956.39" y="576.46"/>
  <rect fill="#b6b594" height="67.728" rx="4.2331" ry="4.233" stroke="#000" stroke-linecap="square" width="68.667" x="877.37" y="576.46"/>
  <rect fill="#b6b594" height="67.728" rx="4.2331" ry="4.233" stroke="#000" stroke-linecap="square" width="33.865" x="820.11" y="576.46"/>
  <path d="m1843.8 637.14v66.317c4.2331 0 9.8772-4.233 9.8772-8.466v-57.851m-9.8772 0v-66.317c4.2331 0 9.8772 4.233 9.8772 8.466v57.851" fill="url(#l)" stroke="#000"/>
  <path d="m1867.8 545.42v-40.919m-26.81 0c-11.288 0-11.288 40.919 0 40.919m23.988 0h9.8772v-40.919h-33.865v40.919z" fill="#d9d9d9" stroke="#000"/>
  <path d="m1843.8 556.71h21.165v-15.521h-21.165z" fill="#bfbfbf" stroke="#000"/>
  <path d="m1630.7 548.24v177.79m213.07-177.79h-221.53v177.79h221.53z" fill="url(#l)" stroke="#000"/>
  <rect fill="#c2c2c0" height="45.152" rx="5.6441" ry="5.644" stroke="#000" stroke-linecap="square" stroke-linejoin="round" width="64.907" x="1636.4" y="544.01"/>
  <path d="m1313.3 528.49h65.317" fill="none" stroke="#000"/>
  <path d="m1550.3 545.42c0 8.466-15.521 12.699-32.454 12.699-16.932 0-32.454-4.233-32.454-12.699v-19.754c0-2.822 2.8221-5.644 7.0552-5.644h50.797c4.2331-.0768 7.0552 2.822 7.0552 5.644z" fill="#74917a" stroke="#000"/>
  <path d="m1485.4 534.13h-14.11v4.233h14.11z" fill="#74917a" stroke="#000"/>
  <path d="m1475.5 517.2v16.932h4.2331v-16.932" fill="#74917a" stroke="#000"/>
  <path d="m1475.5 522.85v11.288h-4.2331v-11.288" fill="#74917a" stroke="#000"/>
  <path d="m1787.4 512.97c-2.8221 5.644-12.699 28.22 2.8221 29.631v7.055c-26.81 7.055-38.098 7.055-64.907 0v-7.055c15.521-1.411 5.6441-23.987 2.8221-29.631v-2.822h59.263z" fill="#c2c2c0" stroke="#000"/>
  <path d="m1725.3 542.6c-1.411 0-3.5621 1.4474-3.7065 2.822.8844 5.644 16.126 12.699 36.16 12.699 20.035.00008 35.276-7.055 36.16-12.699-.1443-1.3746-2.2954-2.822-3.7064-2.822-3.2128 5.6291-16.615 8.3778-32.454 8.3778s-29.241-2.7487-32.454-8.3778z" fill="#dbdbd7" stroke="#000" stroke-linecap="square" stroke-linejoin="round"/>
  <path d="m1784.5 512.97c3.1269 0 5.6442-1.6448 5.6442-3.6878s-2.5173-3.6878-5.6442-3.6878h-53.619c-3.1268 0-5.6441 1.6448-5.6441 3.6878 0 2.0431 2.5173 3.6878 5.6441 3.6878z" fill="#dbdbd7" stroke="#000" stroke-linecap="square" stroke-linejoin="round"/>
  <path d="m1942.6 803.63-11.288-8.466v31.042l11.288-8.466z" fill="#a6a6a6" stroke="#000"/>
  <path d="m1948.2 803.63h-5.6441v14.11h5.6441z" fill="#bfbfbf" stroke="#000"/>
  <path d="m1948.2 803.63 12.699-11.288h8.4662v36.686h-8.4662l-12.699-11.288z" fill="#a6a6a6" stroke="#000" stroke-linejoin="round"/>
  <path d="m1969.4 829.03 8.4662-2.822v-31.042l-8.4662-2.822z" fill="#e5e5e5" stroke="#000" stroke-linejoin="round"/>
  <path d="m1977.9 802.22 5.6441 2.822v11.288l-5.6441 2.822z" fill="#a6a6a6" stroke="#000"/>
  <path d="m1953.9 810.69v-5.644h11.288v5.644z" fill="#ccc" stroke="#000"/>
  <path d="m1948.1 781.56v-28.717m-18.815 0c-7.9221 0-7.9221 28.717 0 28.717m16.834 0h6.9318v-28.717h-23.766v28.717z" fill="#d9d9d9" stroke="#000"/>
  <path d="m1931.3 789.48h14.854v-10.893h-14.854z" fill="#bfbfbf" stroke="#000"/>
  <path d="m1199 788.11-19.754 7.055h-237.05v4.233h-39.509v38.097h39.509v-8.466h95.95l59.263 38.097h126.99v7.0549h9.8772v-7.0549h393.68v12.699h15.521v-12.699h35.276l18.343-14.11h115.7l12.699-16.932h105.83v-46.563h-108.65l-21.165 26.809h-248.34v-28.22zm281.76 16.827c2.7549 0 4.9716 2.2168 4.9716 4.9716v35.313c0 2.7547-2.2167 4.9715-4.9716 4.9715-2.7548 0-4.9716-2.2168-4.9716-4.9715v-35.313c0-2.7548 2.2168-4.9716 4.9716-4.9716zm-263.86 4.3377c2.5895 0 4.674 2.0845 4.674 4.6739v33.194c0 2.5895-2.0845 4.6739-4.674 4.6739s-4.6741-2.0844-4.6741-4.6739v-33.194c0-2.5894 2.0846-4.6739 4.6741-4.6739zm95.421 0c2.5896 0 4.6741 2.0845 4.6741 4.6739v33.194c0 2.5895-2.0845 4.6739-4.6741 4.6739-2.5895 0-4.674-2.0844-4.674-4.6739v-33.194c0-2.5894 2.0845-4.6739 4.674-4.6739zm75.314 0c2.5896 0 4.6741 2.0845 4.6741 4.6739v33.194c0 2.5895-2.0845 4.6739-4.6741 4.6739-2.5895 0-4.674-2.0844-4.674-4.6739v-33.194c0-2.5894 2.0845-4.6739 4.674-4.6739zm-307.16 2.822h70.551v22.576c0 2.5297-.7055 7.055-8.4661 5.644l-62.085-11.288c-11.288-2.0524-5.6441-16.932 0-16.932z" fill="url(#c)" stroke="#000"/>
  <g stroke="#000" stroke-linecap="square" stroke-width=".70871" transform="matrix(1.411 0 0 1.411 -403.96 -418.29)">
    <circle cx="1006" cy="900" fill="#f2f2f2" r="43"/>
    <circle cx="1006" cy="900" fill="#e5e5e5" r="40"/>
    <circle cx="1006" cy="900" fill="url(#d)" r="35"/>
  </g>
  <path d="m1873.3 806.46a53.619 53.618 0 0 0 -53.509 53.618 53.619 53.618 0 0 0 53.619 53.618 53.619 53.618 0 0 0 53.619-53.618 53.619 53.618 0 0 0 -53.619-53.618 53.619 53.618 0 0 0 -.1101 0zm-.093 11.288c.069-.00017.1368-.00017.2039 0 23.379 0 42.331 18.952 42.331 42.33s-18.952 42.33-42.331 42.33-42.331-18.952-42.331-42.33c-.0003-23.299 18.828-42.218 42.127-42.33z" fill="#f2f2f2" stroke="#000" stroke-linecap="square"/>
  <path d="m1873.4 812.1a47.975 47.974 0 0 0 -47.975 47.974 47.975 47.974 0 0 0 47.975 47.974 47.975 47.974 0 0 0 47.975-47.974 47.975 47.974 0 0 0 -47.975-47.974zm-.2039 5.644c.069-.00016.1369-.00016.2039 0 23.379 0 42.331 18.952 42.331 42.33s-18.952 42.33-42.331 42.33-42.331-18.952-42.331-42.33c-.0003-23.299 18.828-42.218 42.127-42.33z" fill="#e5e5e5" stroke="#000" stroke-linecap="square"/>
  <path d="m1043.8 552.48v-8.466h8.4662v8.466z" fill="#d2d2d1" stroke="#000"/>
  <ellipse cx="1048" cy="535.55" fill="#d2d2d1" rx="8.4662" ry="8.466" stroke="#000" stroke-linecap="square" stroke-linejoin="round"/>
  <path d="m1056.5 522.85c0 5.644-4.2331 9.877-8.4662 9.877s-8.4662-4.233-8.4662-9.877z" fill="#d2d2d1" stroke="#000"/>
  <path d="m1040.9 522.85v-28.22h14.11v28.22z" fill="#d2d2d1" stroke="#000"/>
  <path d="m1039.5 490.39h16.932v4.233h-16.932z" fill="#d2d2d1" stroke="#000"/>
  <path d="m1046.6 490.39v-7.055h2.822v7.055z" fill="#c2c2c0" stroke="#000"/>
  <path d="m1048 483.34v-1.411" fill="#c4c4be" stroke="#000"/>
  <path d="m1454.4 704.87v25.398h-9.8772v-25.398z" fill="#b0b5b0" stroke="#000"/>
  <path d="m1534.8 709.1v25.398h-9.8772v-25.398z" fill="#b0b5b0" stroke="#000"/>
  <path d="m1548.9 716.15-515.03-18.343v5.644l515.03 16.932z" fill="#e5e6e5" stroke="#000"/>
  <path d="m1722.5 730.26h-12.699v-15.521h94.539v15.521h-12.699v-4.233h-69.14z" fill="#a6a6a6" stroke="#000"/>
  <path d="m1931.3 785.29h-4.2331v-100.18h4.2331z" fill="#e9e9e9" stroke="#000"/>
  <path d="m1853.7 785.29h4.2331v-100.18h-4.2331z" fill="#e9e9e9" stroke="#000"/>
  <path d="m1818.9 725.55a11.288 11.288 0 0 1 0-15.964 11.288 11.288 0 0 1 15.964 0 11.288 11.288 0 0 1 0 15.964" fill="#e5e5e5" stroke="#000" stroke-linecap="square" stroke-linejoin="round"/>
  <path d="m1822.4 717.39 59.513 80.589 5.6755-4.191-59.513-80.589c-2.8115-1.4319-6.2167 1.0826-5.6754 4.1909z" fill="#b2b2b2" stroke="#000"/>
  <path d="m1800.1 797.99v7.055l2.822 2.822v5.644l-4.2331 2.822v2.822h5.6442l1.411-1.411v-19.754z" fill="#d5d5d5" stroke="#000"/>
  <path d="m1805.7 769.77v-4.233h7.0551v36.686h-7.0551v-4.233h-5.6441v9.877h-1.4111v8.466l7.0552 8.466v18.343l-7.0552 8.4659v8.466h1.4111v11.288h-8.4662v-5.644h-69.14v7.055h-8.4661v-14.11l9.8772-11.288h-8.4662v5.644h-7.0551v-35.275h7.0551v4.233h9.8772l-11.288-14.11h-9.8772v-5.644h-5.6442v-11.288h-4.233v-14.11h4.233v-11.288h7.0552v4.233h36.687v-8.466h-1.4111v-9.877h2.8221v-25.398h26.81v25.398h2.8221v9.877h-1.411v8.466z" fill="#a6a6a6" stroke="#000"/>
  <path d="m1749.3 795.17v-39.508h-8.4662v-4.233h8.4662v-97.359c0-4.233 1.411-7.055 7.7607-7.055 6.3496 0 7.7606 2.822 7.7606 7.055v97.359h8.4662v4.233h-8.4662v39.508z" fill="#d9d9d9" stroke="#000"/>
  <path d="m1815.6 757.07h12.699v-2.822h-15.521" fill="#e5e6e5" stroke="#000"/>
  <path d="m1790.2 809.28h-70.552l20.46 25.398-21.871 25.398h71.962z" fill="#e5e5e5" stroke="#000"/>
  <path d="m1790.2 813.51v40.919l12.699-14.11v-12.699z" fill="#e5e5e5" stroke="#000"/>
  <path d="m1668.8 840.32h105.83v-12.699h-105.83z" fill="#d8d9d8" stroke="#000"/>
  <path d="m1763.4 817.74 7.0551 9.877v14.11l-7.0551 8.4659z" fill="#ccc" stroke="#000"/>
  <path d="m1730.9 795.17-7.0551 14.11h-4.2331l5.6441-14.11h-19.754v-22.576h101.59v22.576h-22.576l5.6442 14.11h-4.2331l-7.0552-14.11z" fill="#e5e5e5" stroke="#000"/>
  <path d="m1705.5 790.94h101.59v-14.11h-101.59z" fill="none" stroke="#000"/>
  <path d="m1746.4 790.94v4.233" fill="none" stroke="#000"/>
  <path d="m1767.6 790.94v4.233" fill="none" stroke="#000"/>
  <path d="m1725.3 795.17v-4.233" fill="none" stroke="#000"/>
  <path d="m1784.5 795.17v-4.233" fill="none" stroke="#000"/>
  <path d="m1784.5 786h-105.83v-4.233h105.83z" fill="#d8d9d8" stroke="#000"/>
  <path d="m1750.7 809.28h12.699v50.796h-12.699z" fill="#d9d9d9" stroke="#000" stroke-linecap="square"/>
  <path d="m1790.2 730.26v39.508h15.521v-39.508zm7.7606 7.7605a4.9386 4.9385 0 0 1 4.9386 4.9385 4.9386 4.9385 0 0 1 -4.9386 4.9385 4.9386 4.9385 0 0 1 -4.9386-4.9385 4.9386 4.9385 0 0 1 4.9386-4.9385zm0 16.508a4.9386 4.9385 0 0 1 4.9386 4.9385 4.9386 4.9385 0 0 1 -4.9386 4.9385 4.9386 4.9385 0 0 1 -4.9386-4.9385 4.9386 4.9385 0 0 1 4.9386-4.9385z" fill="#d4d4d4" stroke="#000"/>
  <path d="m1709.1 730.26v39.508h15.521v-39.508zm7.7606 7.7605a4.9386 4.9385 0 0 1 4.9386 4.9385 4.9386 4.9385 0 0 1 -4.9386 4.9385 4.9386 4.9385 0 0 1 -4.9386-4.9385 4.9386 4.9385 0 0 1 4.9386-4.9385zm0 16.508a4.9386 4.9385 0 0 1 4.9386 4.9385 4.9386 4.9385 0 0 1 -4.9386 4.9385 4.9386 4.9385 0 0 1 -4.9386-4.9385 4.9386 4.9385 0 0 1 4.9386-4.9385z" fill="#d4d4d4" stroke="#000"/>
  <path d="m1783.1 721.8h14.11v-2.822h-16.932" fill="#e5e6e5" stroke="#000"/>
  <path d="m1873.2 817.74a42.331 42.33 0 0 0 -42.127 42.33 42.331 42.33 0 0 0 42.331 42.33 42.331 42.33 0 0 0 42.331-42.33 42.331 42.33 0 0 0 -42.331-42.33 42.331 42.33 0 0 0 -.2039-.00001zm.2039 2.822a7.0551 7.055 0 0 1 7.0551 7.055 7.0551 7.055 0 0 1 -7.0551 7.055 7.0551 7.055 0 0 1 -7.0552-7.055 7.0551 7.055 0 0 1 7.0552-7.055zm-32.454 32.453a7.0551 7.055 0 0 1 7.0552 7.055 7.0551 7.055 0 0 1 -7.0552 7.055 7.0551 7.055 0 0 1 -7.0551-7.055 7.0551 7.055 0 0 1 7.0551-7.055zm64.907 0a7.0551 7.055 0 0 1 7.0551 7.055 7.0551 7.055 0 0 1 -7.0551 7.055 7.0551 7.055 0 0 1 -7.0552-7.055 7.0551 7.055 0 0 1 7.0552-7.055zm-32.454 32.453a7.0551 7.055 0 0 1 7.0551 7.055 7.0551 7.055 0 0 1 -7.0551 7.055 7.0551 7.055 0 0 1 -7.0552-7.055 7.0551 7.055 0 0 1 7.0552-7.055z" fill="url(#r)" stroke="#000" stroke-linecap="square"/>
  <ellipse cx="1873.4" cy="860.07" fill="#dadada" rx="11.288" ry="11.288" stroke="#000" stroke-linecap="square"/>
  <path d="m1688.6 717.56h4.2331v-93.126h-4.2331z" fill="#e9e9e9" stroke="#000"/>
  <path d="m1524.9 717.56h4.2331v-93.126h-4.2331z" fill="#e9e9e9" stroke="#000"/>
  <path d="m1361.2 717.56h4.2331v-93.126h-4.2331z" fill="#e9e9e9" stroke="#000"/>
  <path d="m1197.6 717.56h4.2331v-93.126h-4.2331z" fill="#e9e9e9" stroke="#000"/>
  <path d="m1033.9 717.56h4.2331v-93.126h-4.2331z" fill="#e9e9e9" stroke="#000"/>
  <path d="m1587 733.09c2.8221 0 2.8221-1.411 2.8221-4.233v-36.686h-2.8221v-39.508h-1.411v-38.097h-14.11v38.097h-1.411v39.508h-2.8221v36.686c0 2.822 0 4.233 2.8221 4.233z" fill="#d4ded4" stroke="#000"/>
  <path d="m1581.4 652.66h9.8772v-21.165h2.8221v-7.055h-31.043v7.055h2.8221v21.165h9.8772" fill="#e3e8e3" stroke="#000"/>
  <path d="m1591.2 631.49h-25.398" fill="none" stroke="#000"/>
  <path d="m1571.5 610.33v-7.055h14.11v7.055z" fill="#d4ded4" stroke="#000"/>
  <path d="m1574.3 610.33v4.233h8.4661v-4.233z" fill="#d4ded4" stroke="#000"/>
  <path d="m1565.8 663.95v28.22h25.398v-28.22z" fill="#e3e8e3" stroke="#000"/>
  <path d="m1564.4 696.4v5.644h28.22v-5.644z" fill="#e3e8e3" stroke="#000"/>
  <path d="m1567.2 707.69h22.576" fill="none" stroke="#000"/>
  <path d="m1581.4 641.37h-5.2661v66.317h5.2661z" fill="#d4ded4" stroke="#000"/>
  <g id="u" stroke-width=".70871">
    <path d="m1198.936 751.429v7.055l45.152 15.521h39.508l45.152-15.521v-7.055z" fill="#f2f2f2" stroke="#000" stroke-width=".99998981"/>
    <path d="m1258.198 748.607v29.631h11.288v-29.631z" fill="#f2f2f2" stroke="#000" stroke-width=".99998981"/>
    <path d="m1253.965 778.238h19.754v7.055h-19.754z" fill="#f2f2f2" stroke="#000" stroke-width=".99998981"/>
    <path d="m1205.991 741.552v79.016h5.644v-79.016z" fill="#ccc" stroke="#000" stroke-width=".99998981"/>
    <path d="m1203.169 745.785 2.822 1.411h5.644l2.822-1.411v5.644l-2.822 1.411h-5.644l-2.822-1.13423235z" fill="#bfbfbf" stroke="#000" stroke-linejoin="round" stroke-width=".99998981"/>
    <path d="m1203.169 745.785h2.822" fill="none" stroke="#000" stroke-width=".99998981"/>
    <path d="m1214.457 745.785h-2.822" fill="none" stroke="#000" stroke-width=".99998981"/>
    <path d="m1203.169 807.869h2.822" fill="none" stroke="#000" stroke-width=".99998981"/>
    <path d="m1316.049 741.552v79.016h5.644v-79.016z" fill="#ccc" stroke="#000" stroke-width=".99998981"/>
    <path d="m1313.227 745.785 2.822 1.411h5.644l2.822-1.411v5.644l-2.822 1.411h-5.644l-2.822-1.13423235z" fill="#bfbfbf" stroke="#000" stroke-linejoin="round" stroke-width=".99998981"/>
    <path d="m1313.227 745.785h2.822" fill="none" stroke="#000" stroke-width=".99998981"/>
    <path d="m1324.515 745.785h-2.822" fill="none" stroke="#000" stroke-width=".99998981"/>
    <path d="m1324.515 807.869h-2.822" fill="none" stroke="#000" stroke-width=".99998981"/>
  </g>
  <g id="v" transform="matrix(1.411 0 0 1.411 -405.37 -416.56)">
    <path d="m1182.99988 831.9973a55 55 0 0 0 -55 55 55 55 0 0 0 55 55 55 55 0 0 0 55-55 55 55 0 0 0 -55-55zm-.037 8h.037c25.957 0 47 21.043 47 47s-21.043 47-47 47-47-21.043-47-47c0-25.943 21.02-46.98 46.963-47z" fill="#f2f2f2" stroke="#000" stroke-linecap="square" stroke-width=".70871"/>
    <path d="m1182.99988 834.9973a52 52 0 0 0 -52 52 52 52 0 0 0 52 52 52 52 0 0 0 52-52 52 52 0 0 0 -52-52zm-.037 5h.037c25.957 0 47 21.043 47 47s-21.043 47-47 47-47-21.043-47-47c0-25.943 21.02-46.98 46.963-47z" fill="#e5e5e5" stroke="#000" stroke-linecap="square" stroke-width=".70871"/>
    <path d="m1182 841.22a47 47 0 0 0 -46.963 47 47 47 0 0 0 47 47 47 47 0 0 0 47-47 47 47 0 0 0 -47-47 47 47 0 0 0 -.037 0zm.037 4c8.6299 0 17.26 2.593 24.664 7.7773h-49.328c7.4041-5.1843 16.034-7.7773 24.664-7.7773zm-29.02 17a10 10 0 0 1 .02 0 10 10 0 0 1 10 10 10 10 0 0 1 -10 10 10 10 0 0 1 -10-10 10 10 0 0 1 9.9805-10zm58 0a10 10 0 0 1 .02 0 10 10 0 0 1 10 10 10 10 0 0 1 -10 10 10 10 0 0 1 -10-10 10 10 0 0 1 9.9805-10zm-58 32a10 10 0 0 1 .02 0 10 10 0 0 1 10 10 10 10 0 0 1 -10 10 10 10 0 0 1 -10-10 10 10 0 0 1 9.9805-10zm58 0a10 10 0 0 1 .02 0 10 10 0 0 1 10 10 10 10 0 0 1 -10 10 10 10 0 0 1 -10-10 10 10 0 0 1 9.9805-10zm-29.031 30.777a3 3 0 0 1 .051 0 3 3 0 0 1 3 3 3 3 0 0 1 -3 3 3 3 0 0 1 -3-3 3 3 0 0 1 2.9492-3z" fill="url(#d)" stroke="#000" stroke-linecap="square" stroke-width=".70871" transform="translate(.99988 -1.2227)"/>
    <path d="m1201 887a18 18 0 0 1 -18 18 18 18 0 0 1 -18-18 18 18 0 0 1 18-18 18 18 0 0 1 18 18z" fill="#e5e5e5" stroke="#000" stroke-linecap="square" stroke-width=".70871"/>
    <path d="m1193 887a10 10 0 0 1 -10 10 10 10 0 0 1 -10-10 10 10 0 0 1 10-10 10 10 0 0 1 10 10z" fill="#c7c7c7" stroke="#000" stroke-linecap="square" stroke-width=".70871"/>
    <path d="m1187 887a4 4 0 0 1 -4 4 4 4 0 0 1 -4-4 4 4 0 0 1 4-4 4 4 0 0 1 4 4z" fill="#fafafa" stroke="#000" stroke-linecap="square" stroke-width=".70871"/>
  </g>
  <use height="100%" stroke-width=".70871" transform="translate(170.03)" width="100%" xlink:href="#u"/>
  <use height="100%" stroke-width=".70871" transform="translate(170.03 .000055)" width="100%" xlink:href="#v"/>
  <use height="100%" stroke-width=".70871" transform="translate(340.06)" width="100%" xlink:href="#u"/>
  <use height="100%" stroke-width=".70871" transform="translate(340.06)" width="100%" xlink:href="#v"/>
  <use height="100%" stroke-width=".70871" transform="translate(340.06)" width="100%" xlink:href="#w"/>
  <path d="m1551.7 778.24s2.822-18.343 5.6441-29.631c.6652-2.6606 0-5.644-4.2331-7.055s-7.6435 2.3536-8.4662 5.644c-2.822 11.288-2.822 31.042-2.822 31.042z" fill="#d9d9d9" stroke="#000"/>
  <path d="m1519.3 726.03v57.851h4.2331v-57.851z" fill="#e5e6e5" stroke="#000"/>
  <ellipse cx="1548.9" cy="786.7" fill="none" rx="7.0551" ry="7.055" stroke="#fd0000" stroke-linecap="square" stroke-linejoin="round"/>
  <path d="m1661.8 845.96-28.221-12.699v-5.644h28.221z" fill="#d9d9d9" stroke="#000"/>
  <path d="m1670.3 821.98c-4.2331 0-9.8772 1.411-9.8772 4.233v25.398h8.4661" fill="#bfbfbf" stroke="#000"/>
  <ellipse cx="1818" cy="422.38" fill="#d9d9d9" rx="5.6441" ry="5.644" stroke="#000" stroke-linecap="square" stroke-linejoin="round" transform="matrix(.9699 .24349 -.24351 .9699 0 0)"/>
  <path d="m1608.2 816.33h50.797c0 4.233-1.411 7.055-7.0551 7.055h-36.687c-5.6441 0-7.0551-2.822-7.0551-7.055z" fill="#b2b2b2" stroke="#000"/>
  <path d="m1603.9 857.25h-166.5v16.808h166.5z" fill="#d9d9d9" stroke="#000"/>
  <path d="m1632.1 823.51-196.13 33.864 2.881 16.685 196.13-33.864z" fill="#bfbfbf" stroke="#000"/>
  <path d="m1651.9 831.85c-.0004 6.4123-3.3495 12.359-8.8328 15.684.2424.8657.366 1.7604.3666 2.6594 0 5.4549-4.4222 9.877-9.8772 9.877s-9.8772-4.4221-9.8772-9.877c.0006-.899.1242-1.7937.3666-2.6594-5.4833-3.3246-8.8324-9.2712-8.8328-15.684v-8.466h36.687z" fill="#bfbfbf" stroke="#000" stroke-linecap="square"/>
  <path d="m1534.7 844.63-61.027 10.537c-6.5692 1.1342-5.1286 9.4768 1.4406 8.3426l61.101-10.55m-1.3656-8.3556 67.006-11.569c6.5692-1.1342 8.0097 7.2084 1.4405 8.3426l-67.081 11.582" fill="#d9d9d9" stroke="#000"/>
  <use height="100%" stroke-width=".70871" transform="translate(170.03 .000055)" width="100%" xlink:href="#w"/>
  <path d="m1560.2 837.5h-112.88v-8.466h112.88" fill="#b2b2b2" stroke="#000"/>
  <path d="m1263.9 857.25h134.05v16.808h-134.05z" fill="#d9d9d9" stroke="#000"/>
  <ellipse cx="-1263.9" cy="865.72" fill="#b2b2b2" rx="16.932" ry="16.932" stroke="#000" stroke-linecap="square" transform="scale(-1 1)"/>
  <path d="m1402.2 855.84 14.11-2.822v25.398l-14.11-2.822z" fill="#d9d9d9" stroke="#000"/>
  <ellipse cx="1437.4" cy="865.72" fill="#bfbfbf" rx="23.987" ry="23.987" stroke="#000" stroke-linecap="square"/>
  <path d="m1392.3 855.94a11.288 11.288 0 0 1 14.291 2.5199 11.288 11.288 0 0 1 0 14.512 11.288 11.288 0 0 1 -14.291 2.5199l5.6441-9.7757z" fill="#d9d9d9" stroke="#000" stroke-linecap="square"/>
  <ellipse cx="1397.9" cy="865.72" fill="#b2b2b2" rx="8.4662" ry="8.466" stroke="#000" stroke-linecap="square"/>
  <ellipse cx="1397.9" cy="865.72" fill="#d9d9d9" rx="2.8221" ry="2.822" stroke="#000" stroke-linecap="square"/>
  <path d="m1351.4 788.11v-8.466h16.932v8.466z" fill="#cbcdcb" stroke="#000"/>
  <path d="m1358.4 779.65v-53.618h-7.0552v53.618z" fill="#d8d9d8" stroke="#000"/>
  <path d="m1348.5 549.66h-4.2331v290.66c0 24.615-11.232 49.765-33.865 62.084l1.8864 3.4785c23.877-12.331 36.211-38.564 36.211-65.562z" fill="#c7c7c7" stroke="#000"/>
  <ellipse cx="1532" cy="532.72" fill="#d8d9d8" rx="7.0551" ry="7.055" stroke="#000" stroke-linecap="square"/>
  <path d="m1534 530.73 12.699 12.699-3.9909 3.9909-12.699-12.699z" fill="#e5e6e5" stroke="#000"/>
  <ellipse cx="992.96" cy="596.22" fill="#e5e6e5" rx="5.6441" ry="5.644" stroke="#000" stroke-linecap="square"/>
  <path d="m1255.4 599.93 15.174-17.415 12.593-20.067-4.0837-3.7576-18.061 13.546-14.504 20.754z" fill="#e5e6e5" stroke="#000"/>
  <path d="m1246.9 600.45-255.4 7.055 1.411-5.644 253.99-8.466z" fill="#e5e6e5" stroke="#000"/>
  <path d="m973.2 631.49 14.11-21.165-4.2331-2.822-14.11 21.165z" fill="#e5e6e5" stroke="#000"/>
  <ellipse cx="1263.9" cy="865.72" fill="#d9d9d9" rx="5.6441" ry="5.644" stroke="#000" stroke-linecap="square"/>
  <path d="m1024 865.72a8.4662 8.466 0 0 1 -4.2331 7.3317 8.4662 8.466 0 0 1 -8.4662 0 8.4662 8.466 0 0 1 -4.2331-7.3317" fill="#e3e2e2" stroke="#000" stroke-linecap="square"/>
  <path d="m1017.7 869.38c-1.3098.75611-2.9234.75611-4.2331 0-1.3097-.7562-2.1166-2.1536-2.1166-3.6659h-9.8772v-25.398h28.221v25.398h-9.8772c0 1.5123-.8068 2.9097-2.1165 3.6659z" fill="#b7b7b7" stroke="#000"/>
  <path d="m1001.4 834.68v5.644h28.221v-5.644z" fill="#e3e2e2" stroke="#000"/>
  <path d="m1249.8 548.24v177.79" fill="none" stroke="#000"/>
  <path d="m1217.3 648.43v63.495l-11.288 14.11" fill="none" stroke="#000"/>
  <path d="m902.65 799.4h-19.754v23.987l19.754 14.11" fill="#d4d4d4" stroke="#000"/>
  <path d="m882.9 799.4h-8.4662v23.987h8.4662z" fill="#d1d1d1" stroke="#000" stroke-linejoin="round"/>
  <path d="m874.43 799.4h-5.6441v16.932l5.6441 7.055z" fill="#cfcfcf" stroke="#000" stroke-linejoin="round"/>
  <path d="m911.12 806.46h28.221v31.042h-28.221z" fill="#dedede" stroke="#000"/>
  <path d="m911.12 812.1 11.288 25.398h-11.288z" fill="#bfbfbf" stroke="#000"/>
  <path d="m911.12 812.1 11.288 25.398h26.81l-11.288-25.398h-5.6441l8.4662 19.754h-14.11l-9.8772-19.754z" fill="#e5e5e5" stroke="#000"/>
  <path d="m923.11 858.66-9.8268-21.165h11.943l7.0552 14.11z" fill="#bfbfbf" stroke="#000" stroke-linejoin="round"/>
  <path d="m925.23 837.5 7.0552 14.11h16.932l-8.4661-14.11z" fill="#d3d3d3" stroke="#000" stroke-linejoin="round"/>
  <path d="m923.11 858.66 9.1717-7.055h16.932l-7.0551 7.055z" fill="#dedede" stroke="#000" stroke-linejoin="round"/>
  <path d="m1160.9 775.41v9.877h-2.822v9.877h19.754v-9.877h-7.0551v-9.1952z" fill="#bfbfbf" stroke="#000"/>
  <path d="m1139.9 793.04-196.89-24.922" fill="none" stroke="#000"/>
  <path d="m1139.9 775.58-196.89-24.922c-3.9619-.50149-4.8522 6.7935 0 7.4077l196.89 24.922c4.9724.62941 5.9173-6.6587 0-7.4077z" fill="#d1d1d1" stroke="#000"/>
  <ellipse cx="1015.5" cy="886.88" fill="#e6e6e6" rx="8.4662" ry="8.466" stroke="#000" stroke-linecap="square"/>
  <path d="m983.08 881.24v8.466h64.907v-8.466z" fill="#bfbfbf" stroke="#000"/>
  <g stroke="#000" stroke-width=".999977746">
    <path d="m1065.7992 804.2031v5.4695l-35.0048 12.0329h-30.6292l-35.0048-12.0329v-5.4695z" fill="#f2f2f2"/>
    <path d="m970.6299 796.5458v59.0706h4.3756v-59.0706z" fill="#ccc"/>
    <path d="m1011.1042 802.0153v22.9719h8.7512v-22.9719z" fill="#f2f2f2"/>
    <path d="m1010.0103 824.9872h11.2879541v4.03474076h-11.2879541z" fill="#f2f2f2"/>
    <path d="m968.4421 799.8275 2.1878 1.0939h4.3756l2.1878-1.0939v4.3756l-2.1878 1.0939h-4.3756l-2.1878-.879331515z" fill="#bfbfbf" stroke-linejoin="round"/>
    <path d="m968.4421 799.8275 2.30572242.000010939" fill="none"/>
    <path d="m977.1933 799.8275-2.23494709.000010939" fill="none"/>
    <path d="m968.4421 847.9591 2.1878 1.0939h4.3756l2.1878-1.0939v4.3756l-2.1878 1.0939h-4.3756l-2.1878-.879331515z" fill="#bfbfbf" stroke-linejoin="round"/>
    <path d="m968.4421 847.9591 2.1878-1.0939" fill="none"/>
    <path d="m977.1933 847.9591-2.1878-1.0939" fill="none"/>
    <path d="m1055.9541 796.5458v59.0706h4.3756v-59.0706z" fill="#ccc"/>
    <path d="m1053.7663 799.8275 2.1878 1.0939h4.3756l2.1878-1.0939v4.3756l-2.1878 1.0939h-4.3756l-2.1878-.879331515z" fill="#bfbfbf" stroke-linejoin="round"/>
    <path d="m1053.7663 799.8275 2.1878.000010939" fill="none"/>
    <path d="m1062.5175 799.8275-2.1878.000010939" fill="none"/>
    <path d="m1053.7663 847.9591 2.1878 1.0939h4.3756l2.1878-1.0939v4.3756l-2.1878 1.0939h-4.3756l-2.1878-.879331515z" fill="#bfbfbf" stroke-linejoin="round"/>
    <g fill="none">
      <path d="m1053.7663 847.9591 2.1878-1.0939"/>
      <path d="m1062.5175 847.9591-2.1878-1.0939"/>
    </g>
  </g>
  <path d="m990.14 829.03-36.687 11.288-16.932 18.343h-28.221v18.343h81.84v7.055h14.11v-7.055h22.576v7.055h14.11v-7.055h139.69v-31.042h-84.662l-53.619-16.932zm5.6441 5.644h11.288l4.2331 7.055v14.11c0 2.822 8.4662 2.822 8.4662 0v-14.11l4.2331-7.055h11.288v39.508h-39.509z" fill="url(#k)" stroke="#000"/>
  <g id="w">
    <path d="m1187.0836 860.14655s-1.5948533.87779721-3.1912587.0400724l.791571 22.163988c5.0391043 1.24969448 9.3940147.99368264 13.1757769-.7742157m0 0c-5.1257397-7.2560675-9.0188298-15.307939-11.5223671-23.83179-.8017302-3.4077061 3.980431-4.8037495 5.4152769-1.5904792 2.3284322 7.9279857 5.9494815 15.417997 10.7168272 22.16681 2.7044637 3.389222-2.3349228 6.7280713-4.609737 3.2564469z" fill="#bfbfbf" stroke="#000" stroke-width=".99998981"/>
    <path d="m1184.826 885.31879-2.822-79.016-8.4606382.30216565 2.822 79.016z" fill="#dedede" stroke="#000" stroke-linejoin="round" stroke-width=".99998981"/>
    <path d="m1184.826 885.474c0 2.3377448-1.8951141 4.233-4.233 4.233s-4.233-1.8952552-4.233-4.233 1.8951141-4.233 4.233-4.233 4.233 1.8952552 4.233 4.233z" fill="#bfbfbf" stroke="#000" stroke-linejoin="round" stroke-width=".99998981"/>
    <path d="m1182.004 806.458c0 2.3377448-1.8951141 4.233-4.233 4.233s-4.233-1.8952552-4.233-4.233 1.8951141-4.233 4.233-4.233 4.233 1.8952552 4.233 4.233z" fill="#bfbfbf" stroke="#000" stroke-linejoin="round" stroke-width=".99998981"/>
  </g>
  <path d="m1046.6 881.24h-5.6442v-4.233h5.6442z" fill="#838383" stroke="#000"/>
  <rect fill="#b3d0ff" fill-opacity=".5" height="59.262" rx="2.8221" ry="2.822" stroke="#000" stroke-linecap="square" width="26.81" x="823.63" y="580.7"/>
  <path d="m1033.9 568v-4.233h-313.25v4.233z" fill="#e5e5e5" stroke="#000"/>
  <rect fill="none" height="152.39" rx="4.2331" ry="4.233" stroke="#000" stroke-linecap="square" width="43.742" x="815.17" y="570.82"/>
  <path d="m851.77 649.84c1.0966-.0347 2.1152.57102 2.6089 1.5526.4937.98155.3728 2.1604-.3098 3.0214-.6826.86094-1.8029 1.2474-2.8775.98893-5.5452-1.3607-9.7162-.36928-15.616 2.743-.65.33218-1.4358.12361-1.8306-.47933-.3949-.60298-.2718-1.4066.28-1.8592 6.0928-5.1025 12.569-5.8091 17.745-5.9673z" fill="#c8c8c8" stroke="#000"/>
  <rect fill="#b3d0ff" fill-opacity=".50196" height="59.262" rx="2.8221" ry="2.822" stroke="#000" stroke-linecap="square" width="60.907" x="881.25" y="580.7"/>
  <ellipse cx="967.56" cy="634.32" fill="#e5e6e5" rx="5.6441" ry="5.644" stroke="#000" stroke-linecap="square"/>
  <ellipse cx="987.31" cy="604.68" fill="#e5e6e5" rx="5.6441" ry="5.644" stroke="#000" stroke-linecap="square"/>
  <rect fill="#b3d0ff" fill-opacity=".50196" height="59.262" rx="2.8221" ry="2.822" stroke="#000" stroke-linecap="square" width="60.907" x="960.27" y="580.7"/>
  <path d="m1033.9 563.77v-33.864h-313.25v33.864z" fill="url(#i)" stroke="#000"/>
  <path d="m904.06 493.22-19.754 36.686h146.75l-19.754-36.686zm5.6744 14.11h95.889l7.2647 13.495h-110.42z" fill="#7b9c83" stroke="#000"/>
  <path d="m899.83 501.68h115.7" fill="none" stroke="#000"/>
  <rect fill="none" height="49.385" rx="2.7146" ry="4.9385" stroke="#afa683" stroke-linecap="square" stroke-width="3" width="142.51" x="880.07" y="658.3"/>
  <path d="m817.99 723.21v26.809l70.552 38.097v11.288h33.865v-76.194zm38.098 16.932h50.797c2.822 0 4.233 0 4.233 2.822v23.987c0 2.822-1.411 2.822-4.233 2.822h-11.288l-5.6441-2.822-36.687-21.165c-1.6669-.96168-1.411-5.644 2.8221-5.644z" fill="#7b9c83" stroke="#000"/>
  <path d="m858.91 723.21h2.822v142.51h-2.822z" fill="#e9e9e9" stroke="#000"/>
  <path d="m815.17 726.03h43.742v-2.822h-43.742z" fill="#e9e9e9" stroke="#000"/>
  <path d="m105.42 819.16 12.699 9.877v-36.686l-12.699 9.877z" fill="#a6a6a6" stroke="#000" stroke-linejoin="round"/>
  <path d="m99.776 819.16-11.288 9.877h-8.4662v-36.686h8.4662l11.288 9.877z" fill="#a6a6a6" stroke="#000" stroke-linejoin="round"/>
  <path d="m80.021 829.03-8.4662-2.822v-31.042l8.4662-2.822z" fill="#e5e5e5" stroke="#000" stroke-linejoin="round"/>
  <path d="m99.776 819.16h-28.221c-2.8221 0-7.0552-2.822-7.0552-8.466s4.2331-8.466 7.0552-8.466h28.221zm5.6441-16.932h-5.6441v16.932h5.6441z" fill="#b2b2b2" stroke="#000"/>
  <path d="m782.71 723.21h14.11l49.386 67.728h-63.496z" fill="#7b9c83" stroke="#000"/>
  <path d="m118.12 797.99v-7.055h740.79v7.055z" fill="#cbcbcb" stroke="#000"/>
  <path d="m720.63 568h62.085v222.94h-664.59v-184.84h183.43l33.865-31.042h385.21z" fill="url(#b)" stroke="#000"/>
  <rect fill="none" height="121.35" rx="2.8221" ry="2.822" stroke="#afa683" stroke-linecap="square" stroke-width="3" width="586.99" x="156.92" y="638.55"/>
  <g fill="#c9c9c9" stroke="#000" stroke-width=".99998981">
    <path d="m782.691 529.902c0-4.233 7.055-4.233 7.055 0v193.307h-7.055z"/>
    <path d="m786.2185 534.135v189.074"/>
  </g>
  <g fill="#c9c9c9" stroke="#000" stroke-width=".99998981">
    <path d="m789.741 529.902c0-4.233 7.055-4.233 7.055 0v193.307h-7.055z"/>
    <path d="m793.2685 534.135v189.074"/>
  </g>
  <g fill="#c9c9c9" stroke="#000" stroke-width=".99998981">
    <path d="m796.801 529.902c0-4.233 7.055-4.233 7.055 0v193.307h-7.055z"/>
    <path d="m800.3285 534.135v189.074"/>
  </g>
  <g fill="none" stroke="#000" stroke-width=".99998981">
    <path d="m803.851 529.902c0-4.233 7.055-4.233 7.055 0v193.307h-7.055z"/>
    <path d="m807.3785 534.135v189.074"/>
  </g>
  <g fill="#c9c9c9" stroke="#000" stroke-width=".99998981">
    <path d="m803.851 529.902c0-4.233 7.055-4.233 7.055 0v193.307h-7.055z"/>
    <path d="m807.3785 534.135v189.074"/>
  </g>
  <g id="x" transform="matrix(1.411 0 0 1.411 -403.96 -418.29)">
    <path d="m469 909v16l7 7c3.7477-.93208 7.4641-2.7925 11-10l-13.061-13zm10.881 10a3 3 0 0 1 .0527 0 3 3 0 0 1 3 3 3 3 0 0 1 -3 3 3 3 0 0 1 -3-3 3 3 0 0 1 2.9473-3z" fill="#a2a2a1" stroke="#000" stroke-width=".70871"/>
    <circle cx="441" cy="907" fill="#f2f2f2" r="36" stroke="#000" stroke-linecap="square" stroke-width=".70871"/>
    <path d="m440.85 874a33 33 0 0 0 -32.852 33 33 33 0 0 0 33 33 33 33 0 0 0 33-33 33 33 0 0 0 -33-33 33 33 0 0 0 -.14844 0zm.14844 4a6 6 0 0 1 6 6 6 6 0 0 1 -6 6 6 6 0 0 1 -6-6 6 6 0 0 1 6-6zm-23 23a6 6 0 0 1 6 6 6 6 0 0 1 -6 6 6 6 0 0 1 -6-6 6 6 0 0 1 6-6zm46 0a6 6 0 0 1 6 6 6 6 0 0 1 -6 6 6 6 0 0 1 -6-6 6 6 0 0 1 6-6zm-23 23a6 6 0 0 1 6 6 6 6 0 0 1 -6 6 6 6 0 0 1 -6-6 6 6 0 0 1 6-6z" fill="url(#d)" stroke="#000" stroke-linecap="square" stroke-width=".70871"/>
    <path d="m447 915a6 6 0 0 1 -3 5.1962 6 6 0 0 1 -6 0 6 6 0 0 1 -3-5.1962" fill="#e3e2e2" stroke="#000" stroke-linecap="square" stroke-width=".70871"/>
    <path d="m442.5 917.6c-.9282.5359-2.0718.5359-3 0s-1.5-1.5263-1.5-2.5981h-7v-18h20v18h-7c0 1.0718-.5718 2.0622-1.5 2.5981z" fill="#b7b7b7" stroke="#000" stroke-width=".70871"/>
    <path d="m431 893v4h20v-4z" fill="#e3e2e2" stroke="#000" stroke-width=".70871"/>
    <path d="m464 923v5h-46v-5z" fill="#bfbfbf" stroke="#000" stroke-width=".70871"/>
    <path d="m487.07 881.47h-24.145c-1.7246 0-2.4637 1.7246 0 5.1738l8.623 12.072c1.7246 2.4145 5.1435 2.4569 6.8984 0l8.623-12.072c2.4637-3.4492 1.7246-5.1738 0-5.1738z" fill="none" stroke="#000" stroke-width=".70871"/>
    <path d="m496 887h-8v17c0 4 8 4 8 0z" fill="#bbb" stroke="#000" stroke-width=".70871"/>
    <path d="m504 885v19h-8v-19z" fill="url(#h)" stroke="#000" stroke-width=".70871"/>
    <path d="m543 909v16l-7 7c-3.7477-.93208-7.4641-2.7925-11-10l13.061-13zm-10.881 10a3 3 0 0 0 -.0527 0 3 3 0 0 0 -3 3 3 3 0 0 0 3 3 3 3 0 0 0 3-3 3 3 0 0 0 -2.9473-3z" fill="#a2a2a1" stroke="#000" stroke-width=".70871"/>
    <circle cx="-571" cy="907" fill="#f2f2f2" r="36" stroke="#000" stroke-linecap="square" stroke-width=".70871" transform="scale(-1 1)"/>
    <path d="m571.15 874a33 33 0 0 1 32.852 33 33 33 0 0 1 -33 33 33 33 0 0 1 -33-33 33 33 0 0 1 33-33 33 33 0 0 1 .14844 0zm-.14844 4a6 6 0 0 0 -6 6 6 6 0 0 0 6 6 6 6 0 0 0 6-6 6 6 0 0 0 -6-6zm23 23a6 6 0 0 0 -6 6 6 6 0 0 0 6 6 6 6 0 0 0 6-6 6 6 0 0 0 -6-6zm-46 0a6 6 0 0 0 -6 6 6 6 0 0 0 6 6 6 6 0 0 0 6-6 6 6 0 0 0 -6-6zm23 23a6 6 0 0 0 -6 6 6 6 0 0 0 6 6 6 6 0 0 0 6-6 6 6 0 0 0 -6-6z" fill="url(#g)" stroke="#000" stroke-linecap="square" stroke-width=".70871"/>
    <path d="m-565 915a6 6 0 0 1 -3 5.1962 6 6 0 0 1 -6 0 6 6 0 0 1 -3-5.1962" fill="#e3e2e2" stroke="#000604" stroke-linecap="square" stroke-width=".70871" transform="scale(-1 1)"/>
    <path d="m569.5 917.6c.9282.5359 2.0718.5359 3 0s1.5-1.5263 1.5-2.5981h7v-18h-20v18h7c0 1.0718.5718 2.0622 1.5 2.5981z" fill="#b7b7b7" stroke="#000" stroke-width=".70871"/>
    <path d="m581 893v4h-20v-4z" fill="#e3e2e2" stroke="#000" stroke-width=".70871"/>
    <path d="m548 923v5h46v-5z" fill="#bfbfbf" stroke="#000" stroke-width=".70871"/>
    <path d="m516 887h8v17c0 4-8 4-8 0z" fill="#bbb" stroke="#000" stroke-width=".70871"/>
    <path d="m508 885v19h8v-19z" fill="url(#h)" stroke="#000" stroke-width=".70871"/>
    <path d="m432.99 877.03c-9.1109 2.4663-16.609 8.9097-20.387 17.539l10.398 29.434h35l12-19 19 19h34l19-19 12 19h35l10.398-29.434c-3.7781-8.6294-11.276-15.073-20.387-17.539zm35.012 7.9727h14c1 0 1.4286 1 0 3l-5 7c-1.0176 1.4246-3 1.4-4 0l-5-7c-1.4286-2-1-3 0-3zm30 0h16l15 21c1.4286 2 2 4 0 4h-46c-2 0-1.4286-2 0-4zm32 0h14c1 0 1.4286 1 0 3l-5 7c-1 1.4-2.9824 1.4246-4 0l-5-7c-1.4286-2-1-3 0-3zm-103 8h9l2 4v10c0 4 6 4 6 0v-10l2-4h9v28h-28zm130 0h9l2 4v10c0 4 6 4 6 0v-10l2-4h9v28h-28z" fill="url(#f)" stroke="#000" stroke-width=".70871"/>
    <path d="m524.93 881.47h24.145c1.7246 0 2.4637 1.7246 0 5.1738l-8.623 12.072c-1.7246 2.4145-5.1435 2.4569-6.8984 0l-8.623-12.072c-2.4637-3.4492-1.7246-5.1738 0-5.1738z" fill="none" stroke="#000" stroke-width=".70871"/>
    <path d="m462.93 881.47h24.145c1.7246 0 2.4637 1.7246 0 5.1738l-8.623 12.072c-1.7246 2.4145-5.1435 2.4569-6.8984 0l-8.623-12.072c-2.4637-3.4492-1.7246-5.1738 0-5.1738z" fill="none" stroke="#000" stroke-width=".70871"/>
  </g>
  <use height="100%" stroke-width=".70871" transform="translate(330.39)" width="100%" xlink:href="#x"/>
  <text id="y" font-family="'Vazir FD'" font-size="28.22" font-weight="300" letter-spacing="0" word-spacing="0" x="953.20483" y="693.52698"><tspan fill="#fff" font-family="Arial" font-size="28.22" font-weight="normal" text-anchor="middle" x="953.20483" y="693.52698">C<tspan baseline-shift="super" fill="#fff" font-size="14.11" text-anchor="middle">P</tspan>201-1</tspan></text>
  <use height="100%" stroke-width=".70871" transform="translate(-495.98 16.226)" width="100%" xlink:href="#y"/>
  <path d="m858.91 797.99v52.207h-56.441l-25.399-31.042h-570.06l-9.8772 9.877h-79.018v-31.042z" fill="url(#c)" stroke="#000"/>
  <path d="m868.79 799.4v16.932l-7.0552 8.466v-25.398z" fill="#cfcfcf" stroke="#000"/>
  <path d="m815.17 865.72h43.742v-2.822h-43.742z" fill="#e9e9e9" stroke="#000"/>
  <path d="m815.17 830.8h43.742v-2.822h-43.742z" fill="#e9e9e9" stroke="#000"/>
  <path d="m815.17 795.87h43.742v-2.822h-43.742z" fill="#e9e9e9" stroke="#000"/>
  <path d="m815.17 760.95h43.742v-2.822h-43.742z" fill="#e9e9e9" stroke="#000"/>
  <path d="m828.57 850.2h16.932v8.466h-16.932z" fill="#d9d9d9" stroke="#000" stroke-linecap="square"/>
  <path d="m864.55 651.25v149.57c0 1.411-1.4111 1.411-2.8221 1.411v2.822c2.8221 0 5.6441-1.411 5.6441-2.822v-152.39c0-2.822-4.2331-2.822-5.6441-2.822v2.822c1.411 0 2.8221 0 2.8221 1.411z" fill="#e9e9e9" stroke="#000"/>
  <path d="m812.35 723.21h2.822v142.51h-2.822z" fill="#e9e9e9" stroke="#000"/>
  <path d="m809.52 651.25v149.57c0 1.411 1.4111 1.411 2.8221 1.411v2.822c-2.8221 0-5.6441-1.411-5.6441-2.822v-152.39c0-2.822 4.2331-2.822 5.6441-2.822v2.822c-1.411 0-2.8221 0-2.8221 1.411z" fill="#e9e9e9" stroke="#000"/>
  <ellipse cx="1251.2" cy="596.22" fill="#d8d9d8" rx="5.6441" ry="5.644" stroke="#000" stroke-linecap="square"/>
  <path d="m1265.3 570.82a7.0551 7.055 0 0 0 -7.0551 7.055 7.0551 7.055 0 0 0 7.0551 7.055 7.0551 7.055 0 0 0 7.0552-7.055 7.0551 7.055 0 0 0 -7.0552-7.055zm-.069 4.233a2.8221 2.822 0 0 1 .069 0 2.8221 2.822 0 0 1 2.8221 2.822 2.8221 2.822 0 0 1 -2.8221 2.822 2.8221 2.822 0 0 1 -2.822-2.822 2.8221 2.822 0 0 1 2.7532-2.822z" fill="#d8d9d8" stroke="#000" stroke-linecap="square"/>
  <path d="m1544.5 542.61-263.86 15.521.3313 5.6342 263.86-15.521z" fill="#e5e6e5" stroke="#000"/>
  <ellipse cx="1280.8" cy="560.94" fill="#d8d9d8" rx="2.8221" ry="2.822" stroke="#000" stroke-linecap="square"/>
  <ellipse cx="1532" cy="532.72" fill="#f2f3f2" rx="2.8221" ry="2.822" stroke="#000" stroke-linecap="square"/>
  <ellipse cx="1544.7" cy="545.42" fill="#d8d9d8" rx="7.0551" ry="7.055" stroke="#000" stroke-linecap="square"/>
  <ellipse cx="1544.7" cy="545.42" fill="#f2f3f2" rx="2.8221" ry="2.822" stroke="#000" stroke-linecap="square"/>
  <ellipse cx="1437.4" cy="865.72" fill="#d9d9d9" rx="19.754" ry="19.754" stroke="#000" stroke-linecap="square"/>
  <path d="m1449.5 841.5 2.0432 21.394-6.8803 21.502-9.4074-3.0101 2.15-6.7194-5.3756-1.72-2.1501 6.7193-9.4073-3.01 6.8803-21.502 14.084-16.234" fill="#b2b2b2" stroke="#000"/>
  <ellipse cx="1437.4" cy="865.72" fill="#d9d9d9" rx="8.4662" ry="8.466" stroke="#000" stroke-linecap="square"/>
  <ellipse cx="1437.4" cy="865.72" fill="#b2b2b2" rx="4.2331" ry="4.233" stroke="#000" stroke-linecap="square"/>
  <ellipse cx="1447.3" cy="833.27" fill="#d9d9d9" rx="8.4662" ry="8.466" stroke="#000" stroke-linecap="square"/>
  <ellipse cx="1447.3" cy="833.27" fill="#d9d9d9" rx="2.8221" ry="2.822" stroke="#000" stroke-linecap="square"/>
  <ellipse cx="1603.9" cy="865.72" fill="#bfbfbf" rx="16.932" ry="16.932" stroke="#000" stroke-linecap="square"/>
  <ellipse cx="1603.9" cy="865.72" fill="#d9d9d9" rx="5.6441" ry="5.644" stroke="#000" stroke-linecap="square"/>
  <ellipse cx="1633.6" cy="831.85" fill="#d9d9d9" rx="8.4662" ry="8.466" stroke="#000" stroke-linecap="square" stroke-linejoin="round"/>
  <ellipse cx="1633.6" cy="831.85" fill="#bfbfbf" rx="4.2331" ry="4.233" stroke="#000" stroke-linecap="square" stroke-linejoin="round"/>
  <path d="m1721 816.33-7.0551-8.466h-9.8772v-5.644h-183.43v5.644c14.11 0 18.343 2.822 23.988 8.466z" fill="#b2b2b2" stroke="#000"/>
  <path d="m1665.1 849.05 14.916-58.781c2.0536-1.0973 3.2225-3.343 2.9434-5.6545-.2787-2.3116-1.9491-4.2145-4.2052-4.7914-2.2558-.57652-4.6343.29058-5.9888 2.1843-1.3549 1.8937-1.4075 4.4249-.1326 6.3734l-14.841 59.028" fill="#d1d1d1" stroke="#000"/>
  <ellipse cx="1677.3" cy="785.29" fill="none" rx="2.8221" ry="2.822" stroke="#000" stroke-linecap="square" stroke-linejoin="round"/>
  <path d="m1561.6 799.4 111.55-26.91c2.502-3.0979 6.881-3.5958 9.9149-1.2199 3.0338 2.3758 3.6002 6.7463 1.272 9.8169s-6.6894 3.7051-9.8256 1.4034l-110.09 21.143" fill="#b2b2b2" stroke="#000"/>
  <path d="m1556.1 837.59c2.2982 2.1629 5.8872 2.1495 8.1694-.0303s2.46-5.7641.2687-8.2011l-.1369-27.134-9.2842-18.818-12.24 7.0029 13.034 20.592-.127 18.374c-2.1878 2.469-1.9833 6.0519.315 8.2147z" fill="#d9d9d9" stroke="#000" stroke-linecap="square"/>
  <path d="m1503.8 761.3v31.042h33.865c2.0388 4.1165 6.1047 6.8134 10.663 7.0384 4.5579.22504 8.8864-2.0128 11.338-5.8617 2.4515-3.8489 2.6474-8.7153.5071-12.768-6.4023-12.032-18.274-19.451-29.563-19.451zm11.288 8.466h16.932c4.8233 0 8.4662 4.233 8.4662 8.466 0 4.046-2.0259 5.5703-4.2331 5.644h-21.166l-1.411-2.822v-8.466z" fill="#b2b2b2" stroke="#000"/>
  <path d="m1556 786.7c0 3.8964-3.1588 7.055-7.0552 7.055s-7.0551-3.1586-7.0551-7.055 3.1587-7.055 7.0551-7.055 7.0552 3.1586 7.0552 7.055z" fill="#d9d9d9" stroke="#000"/>
  <ellipse cx="1560.2" cy="833.27" fill="#d9d9d9" rx="2.8221" ry="2.822" stroke="#000" stroke-linecap="square" stroke-linejoin="round"/>
  <ellipse cx="1548.9" cy="786.7" fill="#a6a6a6" rx="4.1449" ry="4.1448" stroke="#000" stroke-linecap="square" stroke-linejoin="round"/>
  <path d="m1574.4 765.97 2.6492-.96528 8.6879 27.348c2.0704.0564 3.7959 1.6026 4.0783 3.6544.2823 2.0518-.9615 4.0065-2.9396 4.62s-4.1098-.29433-5.0381-2.1457c-.9283-1.8514-.3806-4.1026 1.2523-5.2969zm2.7556-.42782c0 .77927-.6317 1.411-1.411 1.411s-1.411-.63172-1.411-1.411c0-.77926.6317-1.411 1.411-1.411s1.411.63173 1.411 1.411zm9.8772 31.042c0 .77927-.6317 1.411-1.411 1.411s-1.411-.63173-1.411-1.411c0-.77926.6317-1.411 1.411-1.411s1.411.63172 1.411 1.411z" fill="#d9d9d9" stroke="#000" stroke-linecap="square" stroke-linejoin="round"/>
  <ellipse cx="1585.6" cy="796.58" fill="#d9d9d9" rx="1.411" ry="1.411" stroke="#000" stroke-linecap="square" stroke-linejoin="round"/>
  <path d="m1534.5 755.74 14.057-37.308-2.499-1.1515-19.227 34.925" fill="#b2b2b2" stroke="#000"/>
  <path d="m1579.9 765.75c-.076 1.5363-.9788 2.9105-2.359 3.5896-1.3801.67914-2.9129.39553-4.0512-.24733-10.081-5.6929-18.741-10.983-33.61-11.688-1.6916 5.0109-7.0159 7.8005-12.09 6.3419-5.0742-1.4587-8.1041-6.6499-6.8785-11.785 1.2257-5.1354 6.2733-8.399 11.452-7.4104 16.341 3.0934 33.705 8.1517 45.724 17.597 1.006.79054 1.8883 2.0664 1.8125 3.6026z" fill="#b2b2b2" stroke="#000"/>
  <ellipse cx="1575.7" cy="765.54" fill="#d9d9d9" rx="1.411" ry="1.411" stroke="#000" stroke-linecap="square" stroke-linejoin="round"/>
  <ellipse cx="1678.7" cy="776.83" fill="#d9d9d9" rx="2.8221" ry="2.822" stroke="#000" stroke-linecap="square" stroke-linejoin="round"/>
  <path d="m1548.7 717.95c0 .76174-.6174 1.3793-1.3793 1.3793-.7618 0-1.3792-.61753-1.3792-1.3793 0-.76175.6174-1.3793 1.3792-1.3793.7619 0 1.3793.61752 1.3793 1.3793z" fill="#b2b2b2" stroke="#000"/>
  <path d="m1534.8 754.25c0 2.3378-1.8951 4.233-4.2331 4.233-2.3379 0-4.233-1.8952-4.233-4.233s1.8951-4.233 4.233-4.233c2.338 0 4.2331 1.8952 4.2331 4.233z" fill="#b2b2b2" stroke="#000"/>
  <ellipse cx="1818" cy="422.38" fill="#d9d9d9" rx="2.8221" ry="2.822" stroke="#0c0000" stroke-linecap="square" stroke-linejoin="round" transform="matrix(.9699 .24349 -.24351 .9699 0 0)"/>
  <ellipse cx="1873.4" cy="860.07" fill="#bfbfbf" rx="7.0551" ry="7.055" stroke="#000" stroke-linecap="square"/>
  <path d="m1728.1 776.83h8.4662v14.11h-8.4662z" fill="#d9d9d9" stroke="#000" stroke-linecap="square"/>
  <path d="m1784.5 776.83h8.4662v14.11h-8.4662z" fill="#d9d9d9" stroke="#000" stroke-linecap="square"/>
  <path d="m1931.3 735.91v4.233h-86.073c-7.7412 0-15.029-6.1055-19.754-11.288l-43.742-47.974c-4.3561-4.7776-6.3842-7.055-16.932-7.055h-730.91v-4.233h728.09c6.9806 0 13.879-.73524 19.754 5.644l47.975 52.089c8.5546 9.2883 15.281 8.5314 18.343 8.5833z" fill="#e9e9e9" stroke="#000"/>
  <path d="m1931.3 792.35h-90.306l-62.085-69.139h-745.02v-5.644h745.02l62.085 67.728h90.306z" fill="#e5e6e5" stroke="#000"/>
  <path d="m1931.3 686.52v4.233h-86.073c-7.7412 0-15.029-6.1055-19.754-11.288l-43.742-47.974c-4.3561-4.7776-6.3842-7.055-16.932-7.055h-730.91v-4.233h728.09c6.9806 0 13.886-.74183 19.754 5.644l47.975 52.207c8.5442 9.2978 15.281 8.4141 18.343 8.466z" fill="#e9e9e9" stroke="#000"/>
  <path d="m1358.4 1377.9h9.8772v2.822h-7.0552v7.055h-2.822z" fill="#808080" stroke="#000"/>
  <rect fill="#b6b594" height="67.728" rx="4.2331" ry="4.233" stroke="#000" stroke-linecap="square" width="68.667" x="877.37" y="1228.3"/>
  <rect fill="#b6b594" height="67.728" rx="4.2331" ry="4.233" stroke="#000" stroke-linecap="square" width="33.865" x="820.11" y="1228.3"/>
  <path d="m1843.8 1289v66.317c4.2331 0 9.8772-4.233 9.8772-8.466v-57.851m-9.8772 0v-66.317c4.2331 0 9.8772 4.2329 9.8772 8.4659v57.851" fill="#8d8d8d" fill-opacity=".29804" stroke="#000"/>
  <path d="m1867.8 1197.3v-40.919m-26.81 0c-11.288 0-11.288 40.919 0 40.919m23.988 0h9.8772v-40.919h-33.865v40.919z" fill="#d9d9d9" stroke="#000"/>
  <path d="m1843.8 1208.6h21.165v-15.521h-21.165z" fill="#bfbfbf" stroke="#000"/>
  <path d="m1313.3 1180.4h65.317" fill="none" stroke="#000"/>
  <path d="m1780 1300 8.1335 10.092h-60.8l8.1334-10.092v-93.216c0-25.756-4.5428-36.318-7.3648-41.962v-2.822h59.263v2.822c-2.8221 5.644-7.3649 16.05-7.3649 41.962z" fill="#c2c2c0" stroke="#000"/>
  <path d="m1784.5 1164.8c3.1269 0 5.6442-1.6448 5.6442-3.6879 0-2.043-2.5173-3.6878-5.6442-3.6878h-53.619c-3.1268 0-5.6441 1.6448-5.6441 3.6878 0 2.0431 2.5173 3.6879 5.6441 3.6879z" fill="#dbdbd7" stroke="#000" stroke-linecap="square" stroke-linejoin="round"/>
  <path d="m1942.6 1455.5-11.288-8.466v31.042l11.288-8.4659z" fill="#a6a6a6" stroke="#000"/>
  <path d="m1948.2 1455.5h-5.6441v14.11h5.6441z" fill="#bfbfbf" stroke="#000"/>
  <path d="m1948.2 1455.5 12.699-11.288h8.4662v36.686h-8.4662l-12.699-11.288z" fill="#a6a6a6" stroke="#000" stroke-linejoin="round"/>
  <path d="m1969.4 1480.9 8.4662-2.822v-31.042l-8.4662-2.822z" fill="#e5e5e5" stroke="#000" stroke-linejoin="round"/>
  <path d="m1977.9 1454.1 5.6441 2.822v11.288l-5.6441 2.8219z" fill="#a6a6a6" stroke="#000"/>
  <path d="m1953.9 1462.6v-5.644h11.288v5.644z" fill="#ccc" stroke="#000"/>
  <path d="m1948.1 1433.4v-28.717m-18.815 0c-7.9221 0-7.9221 28.717 0 28.717m16.834 0h6.9318v-28.717h-23.766v28.717z" fill="#d9d9d9" stroke="#000"/>
  <path d="m1931.3 1441.4h14.854v-10.893h-14.854z" fill="#bfbfbf" stroke="#000"/>
  <path d="m1873.3 1458.3a53.619 53.618 0 0 0 -53.509 53.618 53.619 53.618 0 0 0 53.619 53.618 53.619 53.618 0 0 0 53.619-53.618 53.619 53.618 0 0 0 -53.619-53.618 53.619 53.618 0 0 0 -.1101 0zm-.093 11.288c.069-.0002.1368-.0002.2039 0 23.379 0 42.331 18.952 42.331 42.33s-18.952 42.33-42.331 42.33-42.331-18.952-42.331-42.33c-.0003-23.299 18.828-42.218 42.127-42.33z" fill="#f2f2f2" stroke="#000" stroke-linecap="square"/>
  <path d="m1931.3 1437.2h-4.2331v-100.18h4.2331z" fill="#e9e9e9" stroke="#000"/>
  <path d="m1853.7 1437.2h4.2331v-100.18h-4.2331z" fill="#e9e9e9" stroke="#000"/>
  <path d="m1822.4 1369.3 59.513 80.589 5.6755-4.1909-59.513-80.589c-2.8115-1.4319-6.2167 1.0827-5.6754 4.1909z" fill="#b2b2b2" stroke="#000"/>
  <path d="m1815.6 1409h12.699v-2.822h-15.521" fill="#e5e6e5" stroke="#000"/>
  <path d="m1873.2 1469.6c-23.299.1128-42.127 19.031-42.127 42.33 0 23.378 18.952 42.33 42.331 42.33s42.331-18.952 42.331-42.33-18.952-42.33-42.331-42.33c-.068-.0002-.1355-.0002-.2039 0zm-32.25 35.275c3.8964 0 7.0552 3.1587 7.0552 7.055s-3.1588 7.055-7.0552 7.055-7.0551-3.1587-7.0551-7.055 3.1587-7.055 7.0551-7.055zm64.907 0c3.8964 0 7.0551 3.1587 7.0551 7.055s-3.1587 7.055-7.0551 7.055-7.0552-3.1587-7.0552-7.055 3.1588-7.055 7.0552-7.055zm-32.454 32.453c3.8964 0 7.0551 3.1587 7.0551 7.055s-3.1587 7.055-7.0551 7.055-7.0552-3.1587-7.0552-7.055 3.1588-7.055 7.0552-7.055z" fill="url(#r)" stroke="#000" stroke-linecap="square"/>
  <path d="m1901.7 1533.1v-21.165h28.221v-5.644h-112.88v5.644h28.221v21.165z" fill="#bababa" stroke="#000"/>
  <path d="m1850.9 1497.8h45.859v35.275h-45.859z" fill="#b0b0b0" stroke="#000" stroke-linejoin="round"/>
  <path d="m1835.3 1488h76.196v18.343h-76.196z" fill="#cfcfcf" stroke="#000" stroke-linejoin="round"/>
  <path d="m1855.1 1497.8h36.687v28.22h-36.687z" fill="#c4c4c4" stroke="#000" stroke-linejoin="round"/>
  <ellipse cx="1873.4" cy="1512" fill="#a8a8a8" rx="11.288" ry="11.288" stroke="#000" stroke-linecap="square"/>
  <g id="z" fill="none" stroke-width=".70871">
    <path d="m1198.936 1403.309v7.055l45.152 15.521h39.508l45.152-15.521v-7.055z" fill="#f2f2f2" stroke="#000" stroke-width=".99998981"/>
    <path d="m1258.198 1400.487v29.631h11.288v-29.631z" fill="#f2f2f2" stroke="#000" stroke-width=".99998981"/>
    <path d="m1253.965 1430.118h19.754v35.275h-19.754z" fill="#f2f2f2" stroke="#000" stroke-width=".99998981"/>
    <path d="m1205.991 1393.432v76.194h5.644v-76.194z" fill="#ccc" stroke="#000" stroke-width=".99998981"/>
    <path d="m1203.169 1397.665 2.822 1.411h5.644l2.822-1.411v5.644l-2.822 1.411h-5.644l-2.822-1.13423235z" fill="#bfbfbf" stroke="#000" stroke-linejoin="round" stroke-width=".99998981"/>
    <path d="m1203.169 1397.665h2.822" fill="none" stroke="#000" stroke-width=".99998981"/>
    <path d="m1214.457 1397.665h-2.822" fill="none" stroke="#000" stroke-width=".99998981"/>
    <path d="m1203.169 1459.749 2.822 1.411h5.644l2.822-1.411v5.644l-2.822 1.411h-5.644l-2.822-1.13423235z" fill="#bfbfbf" stroke="#000" stroke-linejoin="round" stroke-width=".99998981"/>
    <path d="m1203.169 1459.749h2.822" fill="none" stroke="#000" stroke-width=".99998981"/>
    <path d="m1214.457 1459.749h-2.822" fill="none" stroke="#000" stroke-width=".99998981"/>
    <path d="m1316.049 1393.432v100.181h5.644v-100.181z" fill="#ccc" stroke="#000" stroke-width=".99998981"/>
    <path d="m1313.227 1397.665 2.822 1.411h5.644l2.822-1.411v5.644l-2.822 1.411h-5.644l-2.822-1.13423235z" fill="#bfbfbf" stroke="#000" stroke-linejoin="round" stroke-width=".99998981"/>
    <path d="m1313.227 1397.665h2.822" fill="none" stroke="#000" stroke-width=".99998981"/>
    <path d="m1324.515 1397.665h-2.822" fill="none" stroke="#000" stroke-width=".99998981"/>
    <path d="m1313.227 1483.736 2.822 1.411h5.644l2.822-1.411v5.644l-2.822 1.411h-5.644l-2.822-1.13423235z" fill="#bfbfbf" stroke="#000" stroke-linejoin="round" stroke-width=".99998981"/>
    <path d="m1313.227 1483.736h2.822" fill="none" stroke="#000" stroke-width=".99998981"/>
    <path d="m1324.515 1483.736h-2.822" fill="none" stroke="#000" stroke-width=".99998981"/>
  </g>
  <path d="m1519.3 1377.9v57.851h4.2331v-57.851z" fill="#d8d9d8" stroke="#000"/>
  <path d="m1358.4 1424.5v9.877h2.822v-9.877z" fill="#808080" stroke="#000"/>
  <path d="m1358.4 1434.3v-56.44h-4.2331v56.44z" fill="#d8d9d8" stroke="#000"/>
  <path d="m902.65 1449.9h-109.83l-.2271 52.207h53.619v-18.343l8.4662-8.466h39.509l8.4662 8.466v18.343h39.509v-52.207z" fill="#d9d9d9" stroke="#000"/>
  <path d="m1160.9 1427.3v9.877h-2.822v9.8769h-4.2331v4.233h19.754v38.097h-16.932v4.233h22.576v-46.563h-1.411v-9.8769h-7.0551v-9.1952z" fill="#808080" stroke="#000"/>
  <path d="m933.69 1388.5v23.24l108.65 94.419v22.123l52.208-24.918v-22.37l62.085-49.499v-14.774z" fill="#bfbfbf" stroke="#000"/>
  <path d="m1139.9 1444.9-196.89-24.922" fill="none" stroke="#000"/>
  <path d="m1139.9 1427.5-196.89-24.922c-3.9619-.5014-4.8522 6.7937 0 7.4077l196.89 24.922c4.9724.6293 5.9173-6.6587 0-7.4077z" fill="#a6a6a6" stroke="#000"/>
  <rect fill="#b3d0ff" fill-opacity=".5" height="59.262" rx="2.8221" ry="2.822" stroke="#000" stroke-linecap="square" width="26.81" x="823.63" y="1232.6"/>
  <rect fill="none" height="152.39" rx="4.2331" ry="4.233" stroke="#000" stroke-linecap="square" width="43.742" x="815.17" y="1222.7"/>
  <path d="m851.77 1301.7c1.0966-.035 2.1152.571 2.6089 1.5525s.3728 2.1604-.3098 3.0214-1.8029 1.2473-2.8775.9889c-5.5452-1.3607-9.7162-.3692-15.616 2.743-.65.3322-1.4358.1242-1.8306-.4793-.3949-.6031-.2718-1.4066.28-1.8593 6.0928-5.1024 12.569-5.809 17.745-5.9672z" fill="#c8c8c8" stroke="#000"/>
  <rect fill="#b3d0ff" fill-opacity=".5" height="59.262" rx="2.8221" ry="2.822" stroke="#000" stroke-linecap="square" width="60.907" x="881.25" y="1232.6"/>
  <path d="m904.06 1145.1-19.754 36.686h146.75l-19.754-36.686zm5.6744 14.11h95.889l7.2647 13.495h-110.42z" fill="#a8bdad" stroke="#000"/>
  <path d="m899.83 1153.6h115.7" fill="none" stroke="#000"/>
  <path d="m817.99 1375.1v26.809l70.552 38.097v9.8769h33.865v-74.783zm38.098 16.932h50.797c2.822 0 4.233 0 4.233 2.822v23.987c0 2.822-1.411 2.822-4.233 2.822h-11.288l-5.6441-2.822-36.687-21.165c-1.6669-.9617-1.411-5.644 2.8221-5.644z" fill="#c4d4cb" stroke="#000"/>
  <path d="m105.42 1471 12.699 9.877v-36.686l-12.699 9.877z" fill="#a6a6a6" stroke="#000" stroke-linejoin="round"/>
  <path d="m99.776 1471-11.288 9.877h-8.4662v-36.686h8.4662l11.288 9.877z" fill="#a6a6a6" stroke="#000" stroke-linejoin="round"/>
  <path d="m80.021 1480.9-8.4662-2.822v-31.042l8.4662-2.822z" fill="#e5e5e5" stroke="#000" stroke-linejoin="round"/>
  <path d="m99.776 1471h-28.221c-2.8221 0-7.0552-2.8219-7.0552-8.4659s4.2331-8.466 7.0552-8.466h28.221zm5.6441-16.932h-5.6441v16.932h5.6441z" fill="#b2b2b2" stroke="#000"/>
  <path d="m118.12 1449.9v-7.0549h728.09v7.0549z" fill="#cbcbcb" stroke="#000"/>
  <g fill="#c9c9c9" stroke="#000" stroke-width=".99998981">
    <path d="m782.691 1181.782c0-4.233 7.055-4.233 7.055 0v193.307h-7.055z"/>
    <path d="m786.2185 1186.015v189.074"/>
  </g>
  <g fill="#c9c9c9" stroke="#000" stroke-width=".99998981">
    <path d="m789.741 1181.782c0-4.233 7.055-4.233 7.055 0v193.307h-7.055z"/>
    <path d="m793.2685 1186.015v189.074"/>
  </g>
  <g fill="#c9c9c9" stroke="#000" stroke-width=".99998981">
    <path d="m796.801 1181.782c0-4.233 7.055-4.233 7.055 0v193.307h-7.055z"/>
    <path d="m800.3285 1186.015v189.074"/>
  </g>
  <g fill="none" stroke="#000" stroke-width=".99998981">
    <path d="m803.851 1181.782c0-4.233 7.055-4.233 7.055 0v193.307h-7.055z"/>
    <path d="m807.3785 1186.015v189.074"/>
  </g>
  <g fill="#c9c9c9" stroke="#000" stroke-width=".99998981">
    <path d="m803.851 1181.782c0-4.233 7.055-4.233 7.055 0v193.307h-7.055z"/>
    <path d="m807.3785 1186.015v189.074"/>
  </g>
  <text style="fill:none;font-family:'Vazir FD';font-size:28.22;font-weight:300;letter-spacing:0;word-spacing:0" x="953.20483" y="1345.4148"><tspan fill="none" font-family="Arial" font-size="28.22" font-weight="normal" text-anchor="middle" x="953.20483" y="1345.4148">C<tspan baseline-shift="super" fill="none" font-size="14.11" text-anchor="middle">P</tspan>201-1</tspan></text>
  <ellipse cx="1873.4" cy="1512" fill="#d9d9d9" rx="7.0551" ry="7.055" stroke="#000" stroke-linecap="square"/>
  <path d="m1931.3 1387.8v4.2329h-86.073c-7.7412 0-15.029-6.1055-19.754-11.288l-2.573-2.822h5.6147l1.1914 1.2936c8.5543 9.2884 15.281 8.5314 18.343 8.5834z" fill="#e9e9e9" stroke="#000"/>
  <path d="m1931.3 1444.2h-90.306l-35.276-39.283v-6.2533l35.276 38.482h90.306z" fill="#e9e9e9" stroke="#000"/>
  <path d="m1931.3 1338.4v4.233h-87.484v-4.233z" fill="#e9e9e9" stroke="#000"/>
  <g id="A" transform="matrix(1.411 0 0 1.411 -403.96 -418.29)">
    <path d="m440.85 1336a33 33 0 0 0 -32.852 33 33 33 0 0 0 33 33 33 33 0 0 0 33-33 33 33 0 0 0 -33-33 33 33 0 0 0 -.14844 0zm.14844 4a6 6 0 0 1 6 6 6 6 0 0 1 -6 6 6 6 0 0 1 -6-6 6 6 0 0 1 6-6zm-23 23a6 6 0 0 1 6 6 6 6 0 0 1 -6 6 6 6 0 0 1 -6-6 6 6 0 0 1 6-6zm46 0a6 6 0 0 1 6 6 6 6 0 0 1 -6 6 6 6 0 0 1 -6-6 6 6 0 0 1 6-6zm-23 23a6 6 0 0 1 6 6 6 6 0 0 1 -6 6 6 6 0 0 1 -6-6 6 6 0 0 1 6-6z" fill="none" stroke="#000" stroke-linecap="square" stroke-width=".70871"/>
    <path d="m432.99 1339c-9.1109 2.4663-16.609 8.9097-20.387 17.539l10.398 29.434h35l12-19 19 19h34l19-19 12 19h35l10.398-29.434c-3.7781-8.6294-11.276-15.073-20.387-17.539zm49.012 4.6465c2 0 4 1 4 3v20c0 4-8 4-8 0v-20c0-2 2-3 4-3zm48 0c2 0 4 1 4 3v20c0 4-8 4-8 0v-20c0-2 2-3 4-3zm-38.076 1h28.152c1.0658 0 1.9238 1.561 1.9238 3.5v17.5c0 1.939-.85804 3.5-1.9238 3.5h-28.152c-1.0658 0-1.9238-1.561-1.9238-3.5v-17.5c0-1.939.85804-3.5 1.9238-3.5z" fill="url(#f)" stroke="#000" stroke-width=".70871"/>
    <path d="m571.15 1336a33 33 0 0 1 32.852 33 33 33 0 0 1 -33 33 33 33 0 0 1 -33-33 33 33 0 0 1 33-33 33 33 0 0 1 .14844 0zm-.14844 4a6 6 0 0 0 -6 6 6 6 0 0 0 6 6 6 6 0 0 0 6-6 6 6 0 0 0 -6-6zm23 23a6 6 0 0 0 -6 6 6 6 0 0 0 6 6 6 6 0 0 0 6-6 6 6 0 0 0 -6-6zm-46 0a6 6 0 0 0 -6 6 6 6 0 0 0 6 6 6 6 0 0 0 6-6 6 6 0 0 0 -6-6zm23 23a6 6 0 0 0 -6 6 6 6 0 0 0 6 6 6 6 0 0 0 6-6 6 6 0 0 0 -6-6z" fill="url(#d)" stroke="#000" stroke-linecap="square" stroke-width=".70871"/>
    <path d="m513 1368.7v-24h-14v24" fill="#e5e5e5" stroke="#000" stroke-width=".70871"/>
    <rect fill="#b2b2b2" height="8" rx="1.9238" ry="2" stroke="#000" stroke-linejoin="round" stroke-width=".70871" width="20" x="496" y="1350"/>
    <path d="m464 1341.7h84" fill="none" stroke="#000" stroke-width=".70871"/>
    <path d="m444 1321h9v18h-9z" fill="#ededed" stroke="#060604" stroke-linejoin="round" stroke-width=".70871"/>
    <path d="m571 1321h9v18h-9z" fill="#ededed" stroke="#000" stroke-linejoin="round" stroke-width=".70871"/>
    <path d="m490 1326h32v13h-32z" fill="#bfbfbf" stroke="#000" stroke-linejoin="round" stroke-width=".70871"/>
    <rect fill="#eaeaea" height="18" rx="2" stroke="#000" stroke-linejoin="round" stroke-width=".70871" width="4" x="504" y="1329.7"/>
    <path d="m440.96 1333c-19.866.023-35.959 16.134-35.959 36 0 19.882 16.118 36 36 36s36-16.118 36-36-16.118-36-36-36zm-.10742 3c.0495-.0001.099-.0001.14844 0 18.225 0 33 14.775 33 33s-14.775 33-33 33-33-14.775-33-33c-.00018-18.168 14.684-32.918 32.852-33z" fill="#f2f2f2" stroke="#000" stroke-linecap="square" stroke-width=".70871"/>
    <path d="m440.85 1336a33 33 0 0 0 -32.852 33 33 33 0 0 0 33 33 33 33 0 0 0 33-33 33 33 0 0 0 -33-33 33 33 0 0 0 -.14844 0zm.14844 4a6 6 0 0 1 6 6 6 6 0 0 1 -6 6 6 6 0 0 1 -6-6 6 6 0 0 1 6-6zm-23 23a6 6 0 0 1 6 6 6 6 0 0 1 -6 6 6 6 0 0 1 -6-6 6 6 0 0 1 6-6zm46 0a6 6 0 0 1 6 6 6 6 0 0 1 -6 6 6 6 0 0 1 -6-6 6 6 0 0 1 6-6zm-23 23a6 6 0 0 1 6 6 6 6 0 0 1 -6 6 6 6 0 0 1 -6-6 6 6 0 0 1 6-6z" fill="url(#d)" stroke="#000" stroke-linecap="square" stroke-width=".70871"/>
    <path d="m571.15 1336a33 33 0 0 1 32.852 33 33 33 0 0 1 -33 33 33 33 0 0 1 -33-33 33 33 0 0 1 33-33 33 33 0 0 1 .14844 0zm-.14844 4a6 6 0 0 0 -6 6 6 6 0 0 0 6 6 6 6 0 0 0 6-6 6 6 0 0 0 -6-6zm23 23a6 6 0 0 0 -6 6 6 6 0 0 0 6 6 6 6 0 0 0 6-6 6 6 0 0 0 -6-6zm-46 0a6 6 0 0 0 -6 6 6 6 0 0 0 6 6 6 6 0 0 0 6-6 6 6 0 0 0 -6-6zm23 23a6 6 0 0 0 -6 6 6 6 0 0 0 6 6 6 6 0 0 0 6-6 6 6 0 0 0 -6-6z" fill="url(#d)" stroke="#000" stroke-linecap="square" stroke-width=".70871"/>
    <path d="m571.15 1336a33 33 0 0 1 32.852 33 33 33 0 0 1 -33 33 33 33 0 0 1 -33-33 33 33 0 0 1 33-33 33 33 0 0 1 .14844 0zm-.14844 4a6 6 0 0 0 -6 6 6 6 0 0 0 6 6 6 6 0 0 0 6-6 6 6 0 0 0 -6-6zm23 23a6 6 0 0 0 -6 6 6 6 0 0 0 6 6 6 6 0 0 0 6-6 6 6 0 0 0 -6-6zm-46 0a6 6 0 0 0 -6 6 6 6 0 0 0 6 6 6 6 0 0 0 6-6 6 6 0 0 0 -6-6zm23 23a6 6 0 0 0 -6 6 6 6 0 0 0 6 6 6 6 0 0 0 6-6 6 6 0 0 0 -6-6z" fill="url(#d)" stroke="#000" stroke-linecap="square" stroke-width=".70871"/>
    <circle cx="571" cy="1369" fill="#ababab" r="8" stroke="#000" stroke-linejoin="round" stroke-width=".70871"/>
    <path d="m571.15 1336c18.167.082 32.852 14.832 32.852 33 0 18.225-14.775 33-33 33s-33-14.775-33-33 14.775-33 33-33c.0495-.0001.099-.0001.14844 0zm-36.148 33c0 19.882 16.118 36 36 36s36-16.118 36-36-16.118-36-36-36-36 16.118-36 36z" fill="#f2f2f2" stroke="#000" stroke-linecap="square" stroke-width=".70871"/>
    <circle cx="441" cy="1369" fill="#ababab" r="8" stroke="#000" stroke-linejoin="round" stroke-width=".70871"/>
  </g>
  <use height="100%" stroke-width=".70871" transform="translate(330.39)" width="100%" xlink:href="#A"/>
  <path d="m782.71 1375.1v67.728" fill="none" stroke="#000"/>
  <path d="m205.6 1442.8v-170.73h4.2331v170.73z" fill="#c7c7c7" stroke="#000"/>
  <path d="m674.06 1442.8v-148.15h4.2331v148.15z" fill="#c7c7c7" stroke="#000"/>
  <path d="m580.37 1442.8v-170.73h4.2331v170.73z" fill="#c7c7c7" stroke="#000"/>
  <path d="m486.68 1442.8v-170.73h4.2331v170.73z" fill="#c7c7c7" stroke="#000"/>
  <path d="m392.99 1442.8v-170.73h4.2331v170.73z" fill="#c7c7c7" stroke="#000"/>
  <path d="m299.3 1442.8v-170.73h4.2331v170.73z" fill="#c7c7c7" stroke="#000"/>
  <path d="m118.12 1318.6h664.59" fill="none" stroke="#000"/>
  <path d="m432.78 1272.1-84.121-45.152" fill="none" stroke="#000"/>
  <path d="m717.24 1226.9v91.715" fill="none" stroke="#000"/>
  <path d="m865.96 1375.1v-193.31h5.6441v193.31z" fill="none" stroke="#000"/>
  <path d="m723.45 1375.1h74.785v-29.631z" fill="#d0d0d0" stroke="#000"/>
  <rect fill="#ededed" height="36.686" rx="6.3496" ry="6.3495" stroke="#060604" stroke-linejoin="round" width="12.699" x="860.32" y="1444.2"/>
  <path d="m1042.3 1528.3 52.208-24.918c2.8831-1.3761 4.971 2.7774 2.0019 4.1945l-52.208 24.918" fill="#b2b2b2" stroke="#000"/>
  <ellipse cx="1042.3" cy="1528.9" fill="#b2b2b2" rx="4.2331" ry="4.233" stroke="#000" stroke-linejoin="round"/>
  <ellipse cx="1015.5" cy="1503.5" fill="#ccc" rx="14.11" ry="14.11" stroke="#000" stroke-linejoin="round"/>
  <ellipse cx="1015.5" cy="1503.5" fill="#a6a6a6" rx="7.0551" ry="7.055" stroke="#000" stroke-linejoin="round"/>
  <path d="m1252.6 1249.5-259.63 9.8769c-6.7472.2567-11.91 4.1972-14.11 11.288l-12.699 40.919c-2.1526 6.9361-7.9784 10.457-12.6 9.6234-4.6216-.8337-7.963-5.1498-6.763-9.8769l-10.707 42.17c1.286-5.0661 7.0948-8.4235 11.928-6.22 4.8328 2.2037 5.3938 7.3397 4.0319 10.866l-9.8772 25.577 217.3 28.22 46.564-55.208h46.564v-7.055l2.822 2.822h366.87v-103l-366.87 12.699-2.822 4.233zm366.87 15.521v9.877s-340.93 9.2568-362.93 9.8494c-.7338.014-1.1135.028-1.1135.028l-2.822 2.822v-12.699l.028.028 2.7938 2.7931s.3955-.014 1.1575-.041c22.365-.7764 362.89-12.658 362.89-12.658zm.014 22.11-.014 10.343s-348.64 4.7556-363.3 5.1507l-3.5689 3.3153.1044-12.586 3.478 3.1471c14.915-.508 363.3-9.3698 363.3-9.3698zm.014 22.11-.028 9.3975s-356.34 1.6792-363.68 1.8768l-3.1886 3.7672.055-12.627 3.1471 3.6819c7.4644-.2681 363.69-6.0961 363.69-6.0961zm-366.9 20.686s1.3557 2.0322 2.1882 3.2739c.3668.5644.6338.9591.6338.9591s332.49-2.5825 361.97-2.8082c1.3546-.014 2.0752-.014 2.0752-.014v5.644s-.7337-.0003-2.1165.014c-29.73.1128-361.93 1.3971-361.93 1.3971s-.2533.3816-.6201.9177c-.8184 1.2558-2.2019 3.3153-2.2019 3.3153v-12.658z" fill="url(#n)"/>
  <path d="m954 1277.1 1.7758-4.5983s65.165-7.8543 97.222-3c21.146 3.2021 60.671 20.877 60.671 20.877l-5.6687 6.7211z" fill="#ad3c3c" filter="url(#o)" stroke="#000" stroke-width=".70871" transform="matrix(1.411 0 0 1.411 -403.96 -418.29)"/>
  <path d="m942.16 1383.7 217.3 28.22-.035 5.2195-225.73-28.638.058-6.016z" fill="url(#p)" stroke="#000"/>
  <path d="m1532.7 1180.4h-29.632v7.055h4.2331l1.6293-2.822h18.125l1.411 2.822h4.2331z" fill="#b2b2b2" stroke="#000"/>
  <path d="m1508 1198c0 7.8585 3.1219 15.395 8.6789 20.952 5.557 5.5569 13.094 8.6787 20.953 8.6787h11.288v-19.754h-11.288c-2.6196 0-5.1319-1.0406-6.9842-2.8929-1.8524-1.8523-2.893-4.3645-2.893-6.984" fill="#ccc" stroke="#000" stroke-linejoin="round"/>
  <path d="m1508 1198v-7.7605h19.754v7.7605" fill="#bfbfbf" stroke="#000"/>
  <use height="100%" stroke-width=".70871" transform="matrix(-1 0 0 1 2697.8 .000005)" width="100%" xlink:href="#z"/>
  <use height="100%" stroke-width=".70871" transform="translate(340.06)" width="100%" xlink:href="#z"/>
  <path d="m946.78 1311.3-3.843-.9756-10.705 42.17 3.8431.9756z" fill="#808080" stroke="#000"/>
  <path d="m1361.6 1454.1-3.8486 8.466v15.521h-17.666v-15.521l-3.884-8.466z" fill="#cfcfcf" stroke="#000"/>
  <path d="m1381.3 1496.4c2.9399-.6391 5.6441-3.448 5.6441-7.055 0-3.6071-2.7042-6.416-5.6441-7.055l-32.454-7.055-32.454 7.055c-2.9399.639-5.6442 3.4479-5.6442 7.055 0 3.607 2.7043 6.4159 5.6442 7.055l32.454 7.0549z" fill="#cfcfcf" stroke="#000"/>
  <ellipse cx="1348.9" cy="1489.4" fill="none" rx="5.6441" ry="5.644" stroke="#000" stroke-linejoin="round"/>
  <ellipse cx="1318.9" cy="1489.4" fill="none" rx="2.8221" ry="2.822" stroke="#000" stroke-linejoin="round"/>
  <ellipse cx="1378.8" cy="1489.4" fill="none" rx="2.8221" ry="2.822" stroke="#000" stroke-linejoin="round"/>
  <path d="m1358.8 1434.3v8.466l7.9503 5.2958c3.1847 1.8305 4.3409 6.1452 2.3927 9.5196-1.9482 3.3742-6.263 4.5304-9.3156 2.7468l-10.905-4.8633-10.905 4.8633c-3.0526 1.7836-7.3674.6274-9.3156-2.7468-1.9482-3.3744-.792-7.6891 2.3927-9.5196l7.9503-5.2958v-8.466z" fill="#cfcfcf" stroke="#000"/>
  <ellipse cx="1348.9" cy="1449.9" fill="none" rx="2.8221" ry="2.822" stroke="#000" stroke-linejoin="round"/>
  <ellipse cx="1333.4" cy="1454.1" fill="none" rx="2.8221" ry="2.822" stroke="#000" stroke-linejoin="round"/>
  <ellipse cx="1364.4" cy="1454.1" fill="none" rx="2.8221" ry="2.822" stroke="#000" stroke-linejoin="round"/>
  <path d="m1523.5 1377.9h9.8772v2.822h-7.0551v7.055h-2.8221z" fill="#808080" stroke="#000"/>
  <ellipse id="B" cx="1518.9" cy="1502.1" fill="#bfbfbf" rx="3.5276" ry="3.5275" stroke="#000" stroke-linejoin="round"/>
  <use id="C" height="100%" stroke-width=".70871" transform="translate(0 -53.618)" width="100%" xlink:href="#B"/>
  <use id="D" height="100%" stroke-width=".70871" transform="translate(-20.813)" width="100%" xlink:href="#C"/>
  <use id="E" height="100%" stroke-width=".70871" transform="translate(20.813 40.213)" width="100%" xlink:href="#D"/>
  <use id="F" height="100%" stroke-width=".70871" transform="translate(0 -13.404)" width="100%" xlink:href="#E"/>
  <use id="G" height="100%" stroke-width=".70871" transform="translate(0 -13.404)" width="100%" xlink:href="#F"/>
  <use height="100%" stroke-width=".70871" transform="translate(-10.406 -13.404)" width="100%" xlink:href="#G"/>
  <path d="m1524.9 1458.3h4.2331v-22.576h-9.8772v-15.521h-16.932v22.576h4.233v-18.343h7.0552v18.343h4.2331v-2.822h7.0551z" fill="#808080" stroke="#000"/>
  <path d="m1663.2 1464 4.2331 4.233v32.453l-4.2331 4.233h-8.4662l-4.2331-4.233v-32.453l4.2331-4.233z" fill="#808080" stroke="#000"/>
  <path d="m1653.3 1468.2v31.042h11.288v-31.042zm5.5753 2.8219a2.8221 2.822 0 0 1 .069 0 2.8221 2.822 0 0 1 2.8221 2.822 2.8221 2.822 0 0 1 -2.8221 2.822 2.8221 2.822 0 0 1 -2.8221-2.822 2.8221 2.822 0 0 1 2.7532-2.822zm0 19.754a2.8221 2.822 0 0 1 .069 0 2.8221 2.822 0 0 1 2.8221 2.822 2.8221 2.822 0 0 1 -2.8221 2.822 2.8221 2.822 0 0 1 -2.8221-2.822 2.8221 2.822 0 0 1 2.7504-2.822z" fill="#d7d7d7" stroke="#000" stroke-linejoin="round"/>
  <path d="m1644.9 1482.3h-4.2331v38.097h25.399v-5.644h-21.166z" fill="#808080" stroke="#000"/>
  <path d="m1724.6 1382.1v-4.233" fill="none" stroke="#000"/>
  <path d="m1790.2 1382.1v-4.233" fill="none" stroke="#000"/>
  <path d="m1646.3 1526.1v-5.6439h172.15v5.6439z" fill="#c4c4c4" stroke="#000"/>
  <path d="m1725.3 1504.9v15.521h-9.8772v-15.521z" fill="#ccc" stroke="#000"/>
  <path d="m1798.7 1504.9v15.521h-9.8772v-15.521z" fill="#ccc" stroke="#000"/>
  <path d="m1856.5 1444.2h33.865v21.165h-33.865z" fill="#bfbfbf" stroke="#000"/>
  <path d="m1649.1 1478.1v12.699l76.196 18.343h76.196l38.098-25.398h11.288v-5.644h5.6441v-9.8769h32.454v9.8769h5.6441v5.644h31.043v-12.699l-7.0552-5.6439-70.551-5.644-40.92 18.343z" fill="#c4c4c4" stroke="#000"/>
  <path d="m1791.6 1495 4.2331-4.233v-18.343h-31.043v18.343l4.2331 4.233z" fill="#b8b8b8" stroke="#000"/>
  <ellipse cx="1769" cy="1483.7" fill="none" rx="2.8221" ry="2.822" stroke="#000" stroke-linejoin="round"/>
  <ellipse cx="1791.6" cy="1483.7" fill="none" rx="2.8221" ry="2.822" stroke="#000" stroke-linejoin="round"/>
  <ellipse cx="1780.3" cy="1483.7" fill="none" rx="2.8221" ry="2.822" stroke="#000" stroke-linejoin="round"/>
  <path d="m1931.3 1444.2h-5.6441v43.741h5.6442z" fill="#808080" stroke="#000"/>
  <path d="m1736.6 1396v36.889c0 3.0113 2.2783 4.233 4.2331 4.233h33.159c1.9549 0 4.2331-1.2217 4.2331-4.233v-36.889m11.994-18.14v94.537h-65.613v-94.537z" fill="#e5e5e5" stroke="#000"/>
  <path id="H" d="m1724.6 1425.3c22.66-4.7513 38.81-24.279 38.81-47.432h-19.754c0 11.906-7.9062 22.108-19.052 26.293" fill="#ccc" stroke="#000" stroke-linejoin="round"/>
  <use height="100%" stroke-width=".70871" transform="matrix(-1 0 0 1 3514.8 .000005)" width="100%" xlink:href="#H"/>
  <path d="m1771.1 1348.3v39.861c0 7.6215-6.1359 13.757-13.758 13.757s-13.758-6.1357-13.758-13.757v-39.861z" fill="#d6d6d6" stroke="#000" stroke-linejoin="round"/>
  <path d="m1766.9 1325.7 4.2331 22.576h-27.515l4.2331-22.576z" fill="#d6d6d6" stroke="#000" stroke-linejoin="round"/>
  <path d="m1839.6 1488v-4.233h11.288v-5.644h5.6441v-9.8769h32.454v9.8769h5.6441v5.644h12.699v4.233h-14.11v-5.644h-16.932v-7.055h4.233v-5.0588h-14.11v5.0588h4.2331v7.055h-18.343v5.644z" fill="#808080" stroke="#000"/>
  <path d="m1925.6 1483.7v4.233h-66.318l-2.8221-5.644h36.687v1.411z" fill="#a6a6a6" stroke="#000"/>
  <path d="m1929.9 1533.1v2.822h-112.88v-2.822z" fill="#b2b2b2" stroke="#000"/>
  <path id="I" d="m1818.4 1512h14.11v21.165h-14.11z" fill="url(#q)" stroke="#000" stroke-linejoin="round"/>
  <use height="100%" stroke-width=".70871" transform="translate(95.95)" width="100%" xlink:href="#I"/>
  <path d="m1548.9 1227.6h170.38v-19.754h-170.38z" fill="#b2b2b2" stroke="#000"/>
  <path d="m1719.3 1227.6c15.586 0 28.221 12.634 28.221 28.22h19.754c0-26.495-21.479-47.974-47.975-47.974" fill="none" stroke="#000" stroke-dasharray="2 1" stroke-linejoin="round"/>
  <path d="m1767.2 1255.9v37.405c0 5.4642-4.3992 9.8633-9.8636 9.8633-5.4643 0-9.8635-4.3991-9.8635-9.8633v-37.405z" fill="none" stroke="#000" stroke-dasharray="2 1" stroke-dashoffset="1.5" stroke-linejoin="round"/>
  <path d="m1623.7 1204.4h8.4662v26.809h-8.4662z" fill="#ccc" stroke="#000" stroke-linejoin="round"/>
  <path d="m1639.2 1204.4h57.852v26.809h-57.852z" fill="#ccc" stroke="#000" stroke-linejoin="round"/>
  <path d="m1704.1 1204.4h8.4662v26.809h-8.4662z" fill="#ccc" stroke="#000" stroke-linejoin="round"/>
  <path d="m1644.9 1231.2v5.644l-19.754 17.902-323.13 11.729v4.233l325.5-11.316 22.281-21.137v-7.055z" fill="#f5f5f5" stroke="#000"/>
  <path d="m1686.5 1231.2v39.508l-60.191 51.591-324.64 2.8677v4.233l325.83-1.9449 63.89-55.336v-40.919z" fill="#f5f5f5" stroke="#000"/>
  <path d="m1658.5 1231.2v16.932l-33.466 30.889-323.17 8.3541v4.2329l325.54-8.1599 35.992-33.905v-18.343z" fill="#f5f5f5" stroke="#000"/>
  <path d="m1672.9 1231.2v28.22l-46.588 41.755-324.6 4.9842v4.233l325.8-4.0614 50.288-45.5v-29.631z" fill="#f5f5f5" stroke="#000"/>
  <path d="m815.31 1486.6h116.97c5.6441 0 5.6441 7.055 0 7.055h-116.97c-4.3769 0-4.3769-7.055 0-7.055z" fill="#d9d9d9" stroke="#000"/>
  <g id="J">
    <path d="m820.788 1510.547h11.288v-35.275h-11.288z" fill="#ededed" stroke="#000" stroke-width=".99998981"/>
    <path d="m815.144 1469.628h22.576v5.644h-22.576z" fill="#ededed" stroke="#000" stroke-linejoin="round" stroke-width=".99998981"/>
  </g>
  <use height="100%" stroke-width=".70871" transform="translate(95.95)" width="100%" xlink:href="#J"/>
  <path d="m1163.7 1447v93.126h5.6441v-93.126z" fill="#ccc" stroke="#000"/>
  <path d="m1160.9 1528.9 2.8221 1.411h5.6441l2.8221-1.411v5.644l-2.8221 1.411h-5.6441l-2.8221-1.1342z" fill="#bfbfbf" stroke="#000" stroke-linejoin="round"/>
  <path d="m1160.9 1484.4h11.288v5.644l-11.288.2767z" fill="#bfbfbf" stroke="#000" stroke-linejoin="round"/>
  <path d="m1735.5 1200.1h-113.19v177.79h221.53v-177.79h-63.806" fill="#8c8c8c" fill-opacity=".3" stroke="#000"/>
  <path id="K" d="m1709.1 1382.1v90.304h15.521v-90.304zm7.7606 7.7604c2.7275 0 4.9386 2.2111 4.9386 4.9385 0 2.7275-2.2111 4.9385-4.9386 4.9385s-4.9386-2.211-4.9386-4.9385c0-2.7274 2.2111-4.9385 4.9386-4.9385zm0 16.508c2.7275 0 4.9386 2.211 4.9386 4.9384 0 2.7275-2.2111 4.9385-4.9386 4.9385s-4.9386-2.211-4.9386-4.9385c0-2.7274 2.2111-4.9384 4.9386-4.9384zm0 16.508c2.7275 0 4.9386 2.211 4.9386 4.9384 0 2.7275-2.2111 4.9385-4.9386 4.9385s-4.9386-2.211-4.9386-4.9385c0-2.7274 2.2111-4.9384 4.9386-4.9384zm0 16.508c2.7275 0 4.9386 2.211 4.9386 4.9385s-2.2111 4.9385-4.9386 4.9385-4.9386-2.211-4.9386-4.9385 2.2111-4.9385 4.9386-4.9385zm0 16.508c2.7275 0 4.9386 2.2111 4.9386 4.9385 0 2.7275-2.2111 4.9385-4.9386 4.9385s-4.9386-2.211-4.9386-4.9385c0-2.7274 2.2111-4.9385 4.9386-4.9385z" fill="#d4d4d4" stroke="#000"/>
  <use height="100%" stroke-width=".70871" transform="translate(81.134)" width="100%" xlink:href="#K"/>
  <g stroke="#000">
    <path d="m1725.3 1194.5c-1.411 0-3.5621 1.4474-3.7065 2.822.8844 5.6439 16.126 12.699 36.16 12.699 20.035.0002 35.276-7.055 36.16-12.699-.1443-1.3746-2.2954-2.822-3.7064-2.822-3.2128 5.629-16.615 8.3777-32.454 8.3777s-29.241-2.7487-32.454-8.3777z" fill="#dbdbd7" stroke-linecap="square" stroke-linejoin="round"/>
    <path d="m1649 1528.9v-18.343h8.4662v18.343z" fill="#d8d8d8"/>
    <path d="m1876.3 1485.1h-5.6442v-9.877h-4.2331v-5.6439h14.11v5.6439h-4.233z" fill="#d9d9d9"/>
    <path d="m1217.3 1300.3v63.495l-11.288 14.11" fill="none"/>
    <path d="m1234.2 1465.4h62.085v45.152h-62.085z" fill="#b2b2b2" stroke-linejoin="round"/>
  </g>
  <ellipse cx="1263.9" cy="1486.9" fill="#d9d9d9" rx="21.48" ry="21.479" stroke="#050503" stroke-linejoin="round"/>
  <path d="m1278 1486.9a14.11 14.11 0 0 1 -14.11 14.11 14.11 14.11 0 0 1 -14.11-14.11 14.11 14.11 0 0 1 14.11-14.11 14.11 14.11 0 0 1 14.11 14.11z" fill="#a6a6a6" stroke="#000" stroke-linecap="square"/>
  <path d="m1269.5 1486.9a5.6441 5.644 0 0 1 -5.6441 5.644 5.6441 5.644 0 0 1 -5.6441-5.644 5.6441 5.644 0 0 1 5.6441-5.644 5.6441 5.644 0 0 1 5.6441 5.644z" fill="#d9d9d9" stroke="#000" stroke-linecap="square"/>
  <path d="m1404.3 1465.4h62.085v45.152h-62.085z" fill="#b2b2b2" stroke="#000" stroke-linejoin="round"/>
  <ellipse cx="1433.9" cy="1486.9" fill="#d9d9d9" rx="21.48" ry="21.479" stroke="#050503" stroke-linejoin="round"/>
  <path d="m1448 1486.9a14.11 14.11 0 0 1 -14.11 14.11 14.11 14.11 0 0 1 -14.11-14.11 14.11 14.11 0 0 1 14.11-14.11 14.11 14.11 0 0 1 14.11 14.11z" fill="#a6a6a6" stroke="#000" stroke-linecap="square"/>
  <path d="m1439.5 1486.9a5.6441 5.644 0 0 1 -5.6442 5.644 5.6441 5.644 0 0 1 -5.6441-5.644 5.6441 5.644 0 0 1 5.6441-5.644 5.6441 5.644 0 0 1 5.6442 5.644z" fill="#d9d9d9" stroke="#000" stroke-linecap="square"/>
  <path d="m1574.3 1465.4h62.085v45.152h-62.085z" fill="#b2b2b2" stroke="#000" stroke-linejoin="round"/>
  <ellipse cx="1603.9" cy="1486.9" fill="#d9d9d9" rx="21.48" ry="21.479" stroke="#050503" stroke-linejoin="round"/>
  <path d="m1618 1486.9a14.11 14.11 0 0 1 -14.11 14.11 14.11 14.11 0 0 1 -14.11-14.11 14.11 14.11 0 0 1 14.11-14.11 14.11 14.11 0 0 1 14.11 14.11z" fill="#a6a6a6" stroke="#000" stroke-linecap="square"/>
  <path d="m1609.6 1486.9a5.6441 5.644 0 0 1 -5.6441 5.644 5.6441 5.644 0 0 1 -5.6441-5.644 5.6441 5.644 0 0 1 5.6441-5.644 5.6441 5.644 0 0 1 5.6441 5.644z" fill="#d9d9d9" stroke="#000" stroke-linecap="square"/>
  <path d="m553 1177 176 94h70l50.692-20.086c-87.653-8.8446-94.21-92.423-134.67-95.237-41.917-2.9154-98.413 23.346-116.86 22.904-8.9654-.2148-17.704-5.2774-25.287-7.0129-9.324-1.9791-19.88 5.4313-19.88 5.4313z" fill="#9c9c9c" filter="url(#m)" transform="matrix(1.411 0 0 1.411 -403.96 -418.29)"/>
</svg>
