<?xml version="1.0" encoding="UTF-8" standalone="no"?>
<svg
   xmlns:dc="http://purl.org/dc/elements/1.1/"
   xmlns:cc="http://creativecommons.org/ns#"
   xmlns:rdf="http://www.w3.org/1999/02/22-rdf-syntax-ns#"
   xmlns:svg="http://www.w3.org/2000/svg"
   xmlns="http://www.w3.org/2000/svg"
   xmlns:xlink="http://www.w3.org/1999/xlink"
   xmlns:sodipodi="http://sodipodi.sourceforge.net/DTD/sodipodi-0.dtd"
   xmlns:inkscape="http://www.inkscape.org/namespaces/inkscape"
   width="512"
   height="512"
   viewBox="0 0 511.99998 512"
   version="1.1"
   id="svg8"
   inkscape:version="1.0.1 (3bc2e813f5, 2020-09-07)"
   sodipodi:docname="3.svg">
  <defs
     id="defs2">
    <marker
       style="overflow:visible;"
       id="Arrow1Lend"
       refX="0.0"
       refY="0.0"
       orient="auto"
       inkscape:stockid="Arrow1Lend"
       inkscape:isstock="true">
      <path
         transform="scale(0.8) rotate(180) translate(12.5,0)"
         style="fill-rule:evenodd;stroke:#000000;stroke-width:1pt;stroke-opacity:1;fill:#000000;fill-opacity:1"
         d="M 0.0,0.0 L 5.0,-5.0 L -12.5,0.0 L 5.0,5.0 L 0.0,0.0 z "
         id="path7717" />
    </marker>
    <marker
       style="overflow:visible"
       id="Arrow1Lstart"
       refX="0.0"
       refY="0.0"
       orient="auto"
       inkscape:stockid="Arrow1Lstart"
       inkscape:isstock="true">
      <path
         transform="scale(0.8) translate(12.5,0)"
         style="fill-rule:evenodd;stroke:#000000;stroke-width:1pt;stroke-opacity:1;fill:#000000;fill-opacity:1"
         d="M 0.0,0.0 L 5.0,-5.0 L -12.5,0.0 L 5.0,5.0 L 0.0,0.0 z "
         id="path7714" />
    </marker>
    <linearGradient
       inkscape:collect="always"
       id="linearGradient7702">
      <stop
         style="stop-color:#9e4d1e;stop-opacity:1"
         offset="0"
         id="stop7698" />
      <stop
         style="stop-color:#823f17;stop-opacity:1"
         offset="1"
         id="stop7700" />
    </linearGradient>
    <clipPath
       clipPathUnits="userSpaceOnUse"
       id="clipPath63">
      <path
         d="m 7614.65,3415.64 c 0,-139.47 -113.07,-252.53 -252.54,-252.53 H 4339.26 c -139.46,0 -252.54,113.06 -252.54,252.53 v 2221.05 c 0,139.47 113.08,252.53 252.54,252.53 h 3022.85 c 139.47,0 252.54,-113.06 252.54,-252.53 V 3415.64"
         id="path61" />
    </clipPath>
    <clipPath
       clipPathUnits="userSpaceOnUse"
       id="clipPath79">
      <path
         d="m 7594.57,3428.28 c 0,-137.88 -111.78,-249.65 -249.67,-249.65 H 4356.47 c -137.88,0 -249.66,111.77 -249.66,249.65 v 2195.76 c 0,137.89 111.78,249.67 249.66,249.67 H 7344.9 c 137.89,0 249.67,-111.78 249.67,-249.67 V 3428.28"
         id="path77" />
    </clipPath>
    <clipPath
       clipPathUnits="userSpaceOnUse"
       id="clipPath101">
      <path
         d="m 7574.49,3440.92 c 0,-136.29 -110.5,-246.78 -246.8,-246.78 H 4373.68 c -136.29,0 -246.79,110.49 -246.79,246.78 V 5611.4 c 0,136.3 110.5,246.79 246.79,246.79 h 2954.01 c 136.3,0 246.8,-110.49 246.8,-246.79 V 3440.92"
         id="path99" />
    </clipPath>
    <clipPath
       clipPathUnits="userSpaceOnUse"
       id="clipPath131">
      <path
         d="m 7554.4,3453.57 c 0,-134.71 -109.2,-243.91 -243.92,-243.91 h -2919.6 c -134.7,0 -243.9,109.2 -243.9,243.91 v 2145.19 c 0,134.71 109.2,243.91 243.9,243.91 h 2919.6 c 134.71,0 243.92,-109.2 243.92,-243.91 V 3453.57"
         id="path129" />
    </clipPath>
    <clipPath
       clipPathUnits="userSpaceOnUse"
       id="clipPath167">
      <path
         d="m 7534.32,3466.21 c 0,-133.12 -107.92,-241.03 -241.04,-241.03 H 4408.09 c -133.11,0 -241.04,107.91 -241.04,241.03 v 2119.9 c 0,133.13 107.93,241.04 241.04,241.04 h 2885.19 c 133.12,0 241.04,-107.91 241.04,-241.04 v -2119.9"
         id="path165" />
    </clipPath>
    <clipPath
       clipPathUnits="userSpaceOnUse"
       id="clipPath211">
      <path
         d="m 7514.23,3478.85 c 0,-131.53 -106.62,-238.15 -238.16,-238.15 H 4425.3 c -131.53,0 -238.16,106.62 -238.16,238.15 v 2094.62 c 0,131.53 106.63,238.17 238.16,238.17 h 2850.77 c 131.53,0 238.16,-106.64 238.16,-238.17 V 3478.85"
         id="path209" />
    </clipPath>
    <clipPath
       clipPathUnits="userSpaceOnUse"
       id="clipPath261">
      <path
         d="m 7494.16,3491.49 c 0,-129.94 -105.35,-235.28 -235.3,-235.28 H 4442.5 c -129.94,0 -235.28,105.34 -235.28,235.28 v 2069.34 c 0,129.95 105.34,235.29 235.28,235.29 h 2816.36 c 129.94,0 235.3,-105.34 235.3,-235.29 V 3491.49"
         id="path259" />
    </clipPath>
    <clipPath
       clipPathUnits="userSpaceOnUse"
       id="clipPath317">
      <path
         d="m 7474.07,3504.14 c 0,-128.35 -104.05,-232.41 -232.41,-232.41 H 4459.71 c -128.36,0 -232.4,104.06 -232.4,232.41 v 2044.04 c 0,128.36 104.04,232.42 232.4,232.42 h 2781.95 c 128.36,0 232.41,-104.06 232.41,-232.42 V 3504.14"
         id="path315" />
    </clipPath>
    <clipPath
       clipPathUnits="userSpaceOnUse"
       id="clipPath381">
      <path
         d="m 7453.99,3516.78 c 0,-126.76 -102.76,-229.53 -229.54,-229.53 H 4476.92 c -126.77,0 -229.53,102.77 -229.53,229.53 v 2018.76 c 0,126.78 102.76,229.54 229.53,229.54 h 2747.53 c 126.76,0 229.54,-102.76 229.54,-229.54 V 3516.78"
         id="path379" />
    </clipPath>
    <clipPath
       clipPathUnits="userSpaceOnUse"
       id="clipPath475">
      <path
         d="m 3606.47,313.242 c 0,-139.48 -113.06,-252.5272 -252.54,-252.5272 H 331.09 C 191.617,60.7148 78.5547,173.762 78.5547,313.242 V 2534.28 c 0,139.49 113.0623,252.54 252.5353,252.54 h 3022.84 c 139.48,0 252.54,-113.05 252.54,-252.54 V 313.242"
         id="path473" />
    </clipPath>
    <clipPath
       clipPathUnits="userSpaceOnUse"
       id="clipPath499">
      <path
         d="m 3586.39,325.891 c 0,-137.895 -111.78,-249.6605 -249.66,-249.6605 H 348.297 C 210.41,76.2305 98.6367,187.996 98.6367,325.891 V 2521.64 c 0,137.89 111.7733,249.67 249.6603,249.67 H 3336.73 c 137.88,0 249.66,-111.78 249.66,-249.67 V 325.891"
         id="path497" />
    </clipPath>
    <clipPath
       clipPathUnits="userSpaceOnUse"
       id="clipPath539">
      <path
         d="m 3566.31,338.523 c 0,-136.296 -110.49,-246.7769 -246.79,-246.7769 H 365.504 c -136.301,0 -246.789,110.4809 -246.789,246.7769 V 2508.99 c 0,136.31 110.488,246.8 246.789,246.8 H 3319.52 c 136.3,0 246.79,-110.49 246.79,-246.8 V 338.523"
         id="path537" />
    </clipPath>
    <clipPath
       clipPathUnits="userSpaceOnUse"
       id="clipPath593">
      <path
         d="m 3546.23,351.172 c 0,-134.719 -109.2,-243.906 -243.92,-243.906 H 382.711 c -134.715,0 -243.91,109.187 -243.91,243.906 V 2496.35 c 0,134.72 109.195,243.92 243.91,243.92 H 3302.31 c 134.72,0 243.92,-109.2 243.92,-243.92 V 351.172"
         id="path591" />
    </clipPath>
    <clipPath
       clipPathUnits="userSpaceOnUse"
       id="clipPath663">
      <path
         d="m 3526.15,363.816 c 0,-133.125 -107.92,-241.035 -241.04,-241.035 H 399.91 c -133.113,0 -241.027,107.91 -241.027,241.035 V 2483.71 c 0,133.13 107.914,241.05 241.027,241.05 h 2885.2 c 133.12,0 241.04,-107.92 241.04,-241.05 V 363.816"
         id="path661" />
    </clipPath>
    <clipPath
       clipPathUnits="userSpaceOnUse"
       id="clipPath747">
      <path
         d="m 3506.06,376.465 c 0,-131.543 -106.63,-238.164 -238.16,-238.164 H 417.117 c -131.527,0 -238.152,106.621 -238.152,238.164 V 2471.07 c 0,131.54 106.625,238.17 238.152,238.17 H 3267.9 c 131.53,0 238.16,-106.63 238.16,-238.17 V 376.465"
         id="path745" />
    </clipPath>
    <clipPath
       clipPathUnits="userSpaceOnUse"
       id="clipPath847">
      <path
         d="m 3485.98,389.102 c 0,-129.954 -105.34,-235.286 -235.29,-235.286 H 434.324 c -129.937,0 -235.281,105.332 -235.281,235.286 V 2458.42 c 0,129.96 105.344,235.3 235.281,235.3 H 3250.69 c 129.95,0 235.29,-105.34 235.29,-235.3 V 389.102"
         id="path845" />
    </clipPath>
    <clipPath
       clipPathUnits="userSpaceOnUse"
       id="clipPath963">
      <path
         d="m 3465.9,401.746 c 0,-128.355 -104.06,-232.41 -232.42,-232.41 H 451.531 c -128.351,0 -232.406,104.055 -232.406,232.41 V 2445.78 c 0,128.36 104.055,232.42 232.406,232.42 H 3233.48 c 128.36,0 232.42,-104.06 232.42,-232.42 V 401.746"
         id="path961" />
    </clipPath>
    <clipPath
       clipPathUnits="userSpaceOnUse"
       id="clipPath1093">
      <path
         d="m 3445.82,414.395 c 0,-126.778 -102.77,-229.54 -229.54,-229.54 H 468.738 c -126.765,0 -229.527,102.762 -229.527,229.54 V 2433.14 c 0,126.77 102.762,229.55 229.527,229.55 H 3216.28 c 126.77,0 229.54,-102.78 229.54,-229.55 V 414.395"
         id="path1091" />
    </clipPath>
    <clipPath
       clipPathUnits="userSpaceOnUse"
       id="clipPath1263">
      <path
         d="m 3606.49,3415.64 c 0,-139.47 -113.06,-252.53 -252.54,-252.53 H 331.078 c -139.457,0 -252.5233,113.06 -252.5233,252.53 v 2221.05 c 0,139.48 113.0663,252.53 252.5233,252.53 H 3353.95 c 139.48,0 252.54,-113.05 252.54,-252.53 V 3415.64"
         id="path1261" />
    </clipPath>
    <clipPath
       clipPathUnits="userSpaceOnUse"
       id="clipPath1289">
      <path
         d="m 3586.41,3428.29 c 0,-137.89 -111.78,-249.66 -249.67,-249.66 H 348.285 c -137.871,0 -249.6483,111.77 -249.6483,249.66 v 2195.75 c 0,137.89 111.7773,249.67 249.6483,249.67 H 3336.74 c 137.89,0 249.67,-111.78 249.67,-249.67 V 3428.29"
         id="path1287" />
    </clipPath>
    <clipPath
       clipPathUnits="userSpaceOnUse"
       id="clipPath1329">
      <path
         d="m 3566.33,3440.93 c 0,-136.3 -110.49,-246.79 -246.79,-246.79 H 365.492 c -136.281,0 -246.773,110.49 -246.773,246.79 V 5611.4 c 0,136.31 110.492,246.79 246.773,246.79 H 3319.54 c 136.3,0 246.79,-110.48 246.79,-246.79 V 3440.93"
         id="path1327" />
    </clipPath>
    <clipPath
       clipPathUnits="userSpaceOnUse"
       id="clipPath1383">
      <path
         d="m 3546.25,3453.57 c 0,-134.7 -109.2,-243.91 -243.92,-243.91 H 382.699 c -134.695,0 -243.894,109.21 -243.894,243.91 v 2145.19 c 0,134.71 109.199,243.91 243.894,243.91 H 3302.33 c 134.71,0 243.92,-109.2 243.92,-243.91 V 3453.57"
         id="path1381" />
    </clipPath>
    <clipPath
       clipPathUnits="userSpaceOnUse"
       id="clipPath1453">
      <path
         d="m 3526.17,3466.22 c 0,-133.12 -107.92,-241.04 -241.05,-241.04 H 399.906 c -133.113,0 -241.023,107.92 -241.023,241.04 v 2119.89 c 0,133.13 107.91,241.04 241.023,241.04 H 3285.12 c 133.12,0 241.05,-107.91 241.05,-241.04 V 3466.22"
         id="path1451" />
    </clipPath>
    <clipPath
       clipPathUnits="userSpaceOnUse"
       id="clipPath1537">
      <path
         d="m 3506.09,3478.86 c 0,-131.53 -106.64,-238.16 -238.18,-238.16 H 417.113 c -131.527,0 -238.148,106.63 -238.148,238.16 v 2094.61 c 0,131.54 106.621,238.17 238.148,238.17 H 3267.91 c 131.54,0 238.18,-106.63 238.18,-238.17 V 3478.86"
         id="path1535" />
    </clipPath>
    <clipPath
       clipPathUnits="userSpaceOnUse"
       id="clipPath1637">
      <path
         d="m 3486,3491.5 c 0,-129.94 -105.34,-235.29 -235.29,-235.29 H 434.32 c -129.941,0 -235.273,105.35 -235.273,235.29 v 2069.33 c 0,129.95 105.332,235.29 235.273,235.29 h 2816.39 c 129.94,0 235.29,-105.34 235.29,-235.29 V 3491.5"
         id="path1635" />
    </clipPath>
    <clipPath
       clipPathUnits="userSpaceOnUse"
       id="clipPath1751">
      <path
         d="m 3465.92,3504.15 c 0,-128.36 -104.06,-232.42 -232.42,-232.42 H 451.527 c -128.351,0 -232.394,104.06 -232.394,232.42 v 2044.03 c 0,128.37 104.043,232.42 232.394,232.42 H 3233.5 c 128.36,0 232.42,-104.05 232.42,-232.42 V 3504.15"
         id="path1749" />
    </clipPath>
    <clipPath
       clipPathUnits="userSpaceOnUse"
       id="clipPath1879">
      <path
         d="m 3445.84,3516.79 c 0,-126.77 -102.77,-229.54 -229.55,-229.54 H 468.734 c -126.765,0 -229.519,102.77 -229.519,229.54 v 2018.75 c 0,126.78 102.754,229.54 229.519,229.54 H 3216.29 c 126.77,0 229.55,-102.76 229.55,-229.54 V 3516.79"
         id="path1877" />
    </clipPath>
    <clipPath
       clipPathUnits="userSpaceOnUse"
       id="clipPath2047">
      <path
         d="m 7614.65,313.262 c 0,-139.485 -113.07,-252.5472 -252.54,-252.5472 H 4339.27 c -139.48,0 -252.56,113.0622 -252.56,252.5472 V 2534.3 c 0,139.47 113.08,252.54 252.56,252.54 h 3022.84 c 139.46,0 252.54,-113.07 252.54,-252.54 V 313.262"
         id="path2045" />
    </clipPath>
    <clipPath
       clipPathUnits="userSpaceOnUse"
       id="clipPath2071">
      <path
         d="m 7594.57,325.898 c 0,-137.89 -111.79,-249.6675 -249.67,-249.6675 H 4356.48 c -137.9,0 -249.68,111.7775 -249.68,249.6675 V 2521.66 c 0,137.88 111.78,249.66 249.68,249.66 H 7344.9 c 137.88,0 249.67,-111.78 249.67,-249.66 V 325.898"
         id="path2069" />
    </clipPath>
    <clipPath
       clipPathUnits="userSpaceOnUse"
       id="clipPath2111">
      <path
         d="m 7574.49,338.543 c 0,-136.309 -110.5,-246.7969 -246.8,-246.7969 h -2954 c -136.31,0 -246.81,110.4879 -246.81,246.7969 V 2509.02 c 0,136.29 110.5,246.78 246.81,246.78 h 2954 c 136.29,0 246.8,-110.49 246.8,-246.78 V 338.543"
         id="path2109" />
    </clipPath>
    <clipPath
       clipPathUnits="userSpaceOnUse"
       id="clipPath2167">
      <path
         d="m 7554.4,351.191 c 0,-134.726 -109.21,-243.925 -243.92,-243.925 H 4390.89 c -134.71,0 -243.92,109.199 -243.92,243.925 V 2496.37 c 0,134.72 109.21,243.91 243.92,243.91 h 2919.59 c 134.71,0 243.92,-109.19 243.92,-243.91 V 351.191"
         id="path2165" />
    </clipPath>
    <clipPath
       clipPathUnits="userSpaceOnUse"
       id="clipPath2239">
      <path
         d="m 7534.32,363.828 c 0,-133.125 -107.92,-241.047 -241.04,-241.047 H 4408.09 c -133.13,0 -241.04,107.922 -241.04,241.047 V 2483.73 c 0,133.12 107.91,241.03 241.04,241.03 h 2885.19 c 133.11,0 241.04,-107.91 241.04,-241.03 V 363.828"
         id="path2237" />
    </clipPath>
    <clipPath
       clipPathUnits="userSpaceOnUse"
       id="clipPath2327">
      <path
         d="m 7514.23,376.477 c 0,-131.543 -106.63,-238.176 -238.16,-238.176 H 4425.3 c -131.53,0 -238.17,106.633 -238.17,238.176 V 2471.09 c 0,131.53 106.64,238.15 238.17,238.15 h 2850.77 c 131.53,0 238.16,-106.62 238.16,-238.15 V 376.477"
         id="path2325" />
    </clipPath>
    <clipPath
       clipPathUnits="userSpaceOnUse"
       id="clipPath2429">
      <path
         d="m 7494.16,389.121 c 0,-129.961 -105.35,-235.305 -235.3,-235.305 H 4442.5 c -129.94,0 -235.29,105.344 -235.29,235.305 V 2458.44 c 0,129.95 105.35,235.28 235.29,235.28 h 2816.36 c 129.94,0 235.3,-105.33 235.3,-235.28 V 389.121"
         id="path2427" />
    </clipPath>
    <clipPath
       clipPathUnits="userSpaceOnUse"
       id="clipPath2547">
      <path
         d="m 7474.07,401.758 c 0,-128.367 -104.05,-232.422 -232.41,-232.422 H 4459.71 c -128.36,0 -232.41,104.055 -232.41,232.422 V 2445.8 c 0,128.36 104.05,232.4 232.41,232.4 h 2781.95 c 128.36,0 232.41,-104.04 232.41,-232.4 V 401.758"
         id="path2545" />
    </clipPath>
    <clipPath
       clipPathUnits="userSpaceOnUse"
       id="clipPath2681">
      <path
         d="m 7453.99,414.402 c 0,-126.785 -102.76,-229.547 -229.54,-229.547 H 4476.92 c -126.77,0 -229.54,102.762 -229.54,229.547 V 2433.15 c 0,126.78 102.77,229.54 229.54,229.54 h 2747.53 c 126.76,0 229.54,-102.76 229.54,-229.54 V 414.402"
         id="path2679" />
    </clipPath>
    <radialGradient
       inkscape:collect="always"
       xlink:href="#linearGradient7702"
       id="radialGradient7704"
       cx="42.353104"
       cy="523.15802"
       fx="42.353104"
       fy="523.15802"
       r="237.87399"
       gradientTransform="matrix(0.06558884,0,0,0.57769126,621.42307,226.9951)"
       gradientUnits="userSpaceOnUse" />
    <clipPath
       clipPathUnits="userSpaceOnUse"
       id="clipPath1048">
      <path
         style="fill:#000000;fill-opacity:1;stroke:none;stroke-width:1px;stroke-linecap:butt;stroke-linejoin:miter;stroke-opacity:1"
         d="m 636.85651,673.36757 h -20 v -119 c 0,-14.01024 -4.31545,-25.77678 -10,-32 v -128 h 30 z"
         id="path1050"
         sodipodi:nodetypes="ccccccc" />
    </clipPath>
  </defs>
  <sodipodi:namedview
     id="base"
     pagecolor="#ffffff"
     bordercolor="#666666"
     borderopacity="1.0"
     inkscape:pageopacity="0.0"
     inkscape:pageshadow="2"
     inkscape:zoom="1.4"
     inkscape:cx="130.16851"
     inkscape:cy="265.26487"
     inkscape:document-units="px"
     inkscape:current-layer="layer2"
     inkscape:document-rotation="0"
     showgrid="true"
     inkscape:snap-page="false"
     inkscape:object-paths="false"
     units="px"
     inkscape:showpageshadow="false"
     objecttolerance="20"
     width="24mm"
     inkscape:window-width="1920"
     inkscape:window-height="1017"
     inkscape:window-x="-8"
     inkscape:window-y="-8"
     inkscape:window-maximized="1"
     inkscape:snap-grids="true"
     inkscape:snap-bbox="true"
     inkscape:snap-bbox-midpoints="true"
     showguides="true"
     inkscape:guide-bbox="true"
     inkscape:lockguides="true"
     inkscape:snap-intersection-paths="true"
     inkscape:snap-smooth-nodes="true">
    <inkscape:grid
       type="xygrid"
       id="grid10"
       empspacing="4"
       originx="0"
       originy="0"
       dotted="false" />
  </sodipodi:namedview>
  <metadata
     id="metadata5">
    <rdf:RDF>
      <cc:Work
         rdf:about="">
        <dc:format>image/svg+xml</dc:format>
        <dc:type
           rdf:resource="http://purl.org/dc/dcmitype/StillImage" />
        <dc:title></dc:title>
      </cc:Work>
    </rdf:RDF>
  </metadata>
  <g
     inkscape:groupmode="layer"
     id="layer1"
     inkscape:label="bg"
     sodipodi:insensitive="true">
    <image
       width="300"
       height="201"
       preserveAspectRatio="none"
       xlink:href="1-original.png"
       id="image18"
       x="-358"
       y="155.5"
       style="display:inline;opacity:1" />
  </g>
  <g
     inkscape:groupmode="layer"
     id="layer2"
     inkscape:label="vector"
     style="display:inline">
    <path
       style="display:inline;fill:#cccccc;fill-opacity:1;stroke:#000000;stroke-width:1px;stroke-linecap:butt;stroke-linejoin:miter;stroke-opacity:1"
       d="m 17,325 v 33 h 459 v -33 z"
       id="path7710"
       sodipodi:nodetypes="ccccc" />
    <path
       style="display:inline;fill:none;stroke:#000000;stroke-width:1px;stroke-linecap:butt;stroke-linejoin:round;stroke-opacity:1;marker-end:url(#Arrow1Lend)"
       d="M 216,384 H 125"
       id="path7712"
       sodipodi:nodetypes="cc" />
    <text
       xml:space="preserve"
       style="display:inline;font-style:normal;font-weight:normal;font-size:22.6644px;line-height:1.25;font-family:sans-serif;letter-spacing:0px;word-spacing:0px;fill:#000000;fill-opacity:1;stroke:none;stroke-width:1"
       x="229.73103"
       y="391.97903"
       id="text8018"><tspan
         sodipodi:role="line"
         id="tspan8016"
         x="229.73103"
         y="391.97903"
         style="font-style:normal;font-variant:normal;font-weight:normal;font-stretch:normal;font-size:22.6644px;font-family:Arial;-inkscape-font-specification:Arial;stroke-width:1">Feed direction</tspan></text>
    <text
       xml:space="preserve"
       style="display:inline;font-style:normal;font-weight:normal;font-size:22.6644px;line-height:1.25;font-family:sans-serif;letter-spacing:0px;word-spacing:0px;fill:#000000;fill-opacity:1;stroke:none;stroke-width:1"
       x="219.61369"
       y="349.47903"
       id="text8022"><tspan
         sodipodi:role="line"
         id="tspan8020"
         x="219.61369"
         y="349.47903"
         style="font-style:normal;font-variant:normal;font-weight:normal;font-stretch:normal;font-size:22.6644px;font-family:Arial;-inkscape-font-specification:Arial;stroke-width:1">Table</tspan></text>
    <circle
       style="display:inline;fill:#fef72f;fill-opacity:1;stroke:#000000;stroke-width:11;stroke-linecap:round;stroke-linejoin:round;stroke-miterlimit:4;stroke-dasharray:none;stroke-opacity:1;stop-color:#000000"
       id="path8024"
       cx="417"
       cy="242"
       r="29.139967" />
    <circle
       style="display:inline;fill:#fef72f;fill-opacity:1;stroke:#000000;stroke-width:11;stroke-linecap:round;stroke-linejoin:round;stroke-miterlimit:4;stroke-dasharray:none;stroke-opacity:1;stop-color:#000000"
       id="path8024-6"
       cx="96"
       cy="258"
       r="29.139967" />
    <circle
       style="display:inline;fill:#fed92f;fill-opacity:1;stroke:#000000;stroke-width:2.00001;stroke-linecap:round;stroke-linejoin:round;stroke-miterlimit:4;stroke-dasharray:none;stroke-opacity:1;stop-color:#000000"
       id="path8041"
       cx="248"
       cy="225"
       r="55.04216" />
    <rect
       style="display:inline;fill:#000000;fill-opacity:1;stroke:none;stroke-width:11;stroke-linecap:round;stroke-linejoin:round;stroke-miterlimit:4;stroke-dasharray:none;stroke-opacity:1;stop-color:#000000"
       id="rect8076"
       width="9.7133226"
       height="46.947727"
       x="220.49536"
       y="246.48721" />
    <rect
       style="display:inline;fill:#000000;fill-opacity:1;stroke:none;stroke-width:11;stroke-linecap:round;stroke-linejoin:round;stroke-miterlimit:4;stroke-dasharray:none;stroke-opacity:1;stop-color:#000000"
       id="rect8076-2"
       width="9.7133226"
       height="46.947727"
       x="-275.50464"
       y="-202.77728"
       transform="scale(-1)" />
    <text
       xml:space="preserve"
       style="display:inline;font-style:normal;font-weight:normal;font-size:22.6644px;line-height:1.25;font-family:sans-serif;letter-spacing:0px;word-spacing:0px;fill:#000000;fill-opacity:1;stroke:none;stroke-width:1"
       x="18.456322"
       y="200.79077"
       id="text8107"><tspan
         sodipodi:role="line"
         id="tspan8105"
         x="18.456322"
         y="200.79077"
         style="font-style:normal;font-variant:normal;font-weight:normal;font-stretch:normal;font-size:22.6644px;font-family:Arial;-inkscape-font-specification:Arial;stroke-width:1">Out-feed Roller</tspan></text>
    <text
       xml:space="preserve"
       style="display:inline;font-style:normal;font-weight:normal;font-size:22.6644px;line-height:1.25;font-family:sans-serif;letter-spacing:0px;word-spacing:0px;fill:#000000;fill-opacity:1;stroke:none;stroke-width:1"
       x="187.15582"
       y="136.74551"
       id="text8111"><tspan
         sodipodi:role="line"
         id="tspan8109"
         x="187.15582"
         y="136.74551"
         style="font-style:normal;font-variant:normal;font-weight:normal;font-stretch:normal;font-size:22.6644px;font-family:Arial;-inkscape-font-specification:Arial;stroke-width:1">Cutter Head</tspan></text>
    <text
       xml:space="preserve"
       style="display:inline;font-style:normal;font-weight:normal;font-size:22.6644px;line-height:1.25;font-family:sans-serif;letter-spacing:0px;word-spacing:0px;fill:#000000;fill-opacity:1;stroke:none;stroke-width:1"
       x="347.76181"
       y="183.57761"
       id="text8115"><tspan
         sodipodi:role="line"
         id="tspan8113"
         x="347.76181"
         y="183.57761"
         style="font-style:normal;font-variant:normal;font-weight:normal;font-stretch:normal;font-size:22.6644px;font-family:Arial;-inkscape-font-specification:Arial;stroke-width:1">In-feed Roller</tspan></text>
    <g
       id="g7708"
       transform="matrix(0,1.6188871,-1.6188871,0,1134.2819,-705.76856)"
       style="display:inline;opacity:1;stroke-width:0.617708"
       clip-path="url(#clipPath1048)">
      <path
         id="rect6873"
         style="fill:url(#radialGradient7704);fill-opacity:1;stroke:none;stroke-width:3.08854;stroke-linecap:round;stroke-linejoin:round;stop-color:#000000"
         d="m 602.74034,391.80119 h 37.0625 v 284.14582 h -37.0625 z"
         sodipodi:nodetypes="ccccc" />
      <path
         d="m 632.33118,559.40891 c 0.23467,2.04667 1.28667,-3.57466 0.848,-7.40934 -0.23467,-2.04666 -1.28933,3.57468 -0.848,7.40934 z m 5.092,-162.98133 c 0.19631,-90.64846 -2.31847,2.49281 -3.396,37.04133 -0.132,-8.71734 0.148,-21.028 -0.848,-22.224 0.372,64.88667 -1.20533,101.15333 0.848,148.164 0.46533,10.764 -0.99333,38.29333 0.84933,37.04134 v -51.85868 c -1.62666,-17.90533 -0.53466,-59.52933 -0.84933,-88.89732 1.75067,-2.016 0.20267,-32.80667 2.548,-29.63467 0.348,17.84933 -1.552,16.10533 -0.84933,37.04133 1.87466,0.92267 0.36,31.42933 0.84933,44.44933 1.96,-22.412 0.3,-76.41066 0.848,-111.12266 z m -3.396,214.83866 c -0.23333,-2.04933 -1.288,3.57467 -0.848,7.408 0.23467,2.04667 1.28667,-3.57333 0.848,-7.408 z m -19.528,-133.34799 c -0.236,-2.052 -1.288,3.57732 -0.84933,7.408 0.23466,2.05065 1.288,-3.57735 0.84933,-7.408 z m -0.84933,22.22399 c 0.009,10.86266 -1.02618,31.27886 0.84933,37.04134 -0.0107,-10.86134 0.31867,-60.62267 -0.84933,-37.04134 z m 1.69866,-29.63199 c -0.003,4.11199 0.68667,8.40933 0.84667,0 0.003,-4.11334 -0.68667,-8.40934 -0.84667,0 z m 1.696,74.08132 c -0.0347,7.87867 0.40134,18.81067 0.84934,7.408 0.0373,-7.87733 -0.39867,-18.81333 -0.84934,-7.408 z m 9.34267,-81.49066 c -0.236,-2.05066 -1.29067,3.57867 -0.84933,7.40934 0.23466,2.04932 1.28666,-3.57734 0.84933,-7.40934 z m -3.81323,18.63746 c -0.56108,4.11332 0.96789,25.72475 2.56527,17.31543 -0.55944,-6.36082 -2.22265,-25.90872 -2.56527,-17.31543 z m 2.9639,-48.26946 c 0.23466,2.05067 1.28666,-3.57866 0.84933,-7.40933 -0.236,-2.04933 -1.29067,3.57866 -0.84933,7.40933 z m -2.54934,222.24533 c -0.23466,-2.04533 -1.288,3.57467 -0.84933,7.40933 0.236,2.04667 1.29067,-3.57333 0.84933,-7.40933 z m 0,-148.164 c -2.316,22.536 2.584,-20.21999 0,0 z m -11.036,-44.44933 c -0.003,4.11467 0.68667,8.41067 0.848,0 0.003,-4.112 -0.68666,-8.40934 -0.848,0 z m -0.852,-59.26533 c -0.0347,7.87867 0.40134,18.81467 0.852,7.40933 0.0347,-7.87866 -0.40133,-18.81333 -0.852,-7.40933 z m 11.888,29.63333 c 0.66934,-25.58533 -0.79466,-32.58933 -2.54533,-37.04133 0.784,12.91067 -0.0293,39.76133 2.54533,37.04133 z m -1.69733,22.22534 c 0.23467,2.05066 1.28667,-3.57867 0.848,-7.408 -0.23333,-2.052 -1.28533,3.57733 -0.848,7.408 z m 1.69733,7.40666 c -0.23466,-2.05066 -1.288,3.57867 -0.84933,7.40934 0.236,2.04932 1.29067,-3.57734 0.84933,-7.40934 z m 5.09467,200.02266 c 0.236,2.04667 1.288,-3.57333 0.84933,-7.40933 -0.23466,-2.04533 -1.28933,3.57467 -0.84933,7.40933 z m -19.528,-155.57333 c 0.236,-16.88399 -0.20667,-27.848 -1.69867,-29.63199 0.19334,13.128 -0.85466,37.09999 1.69867,29.63199 z m 22.92667,66.676 c 1.02666,0.752 0.52133,-10.772 0,0 z m -6.79467,44.448 c -0.23467,-2.048 -1.288,3.57333 -0.84933,7.40933 0.23466,2.04534 1.28933,-3.57466 0.84933,-7.40933 z m -3.396,-96.30667 c 0.003,4.11335 -0.688,8.40935 -0.848,0 -0.19067,-5.74799 -0.0253,-14.61466 -0.84933,-14.81733 v 37.04133 c 1.41333,0.86135 0.28133,60.576 1.69733,37.04135 -0.97867,-24.07068 2.59467,-45.57068 0,-59.26535 z m 6.792,88.89867 c 0.14533,11.084 -0.30267,27.34 0.84933,29.632 0.18934,-5.75067 0.0227,-14.61467 0.852,-14.81467 -0.27466,9.07734 0.13467,45.756 0.84534,22.224 -1.22134,-41.09333 -1.64934,-61.73333 0,-103.716 0.28933,-39.79732 -1.86534,-46.348 0,-81.49066 -1.06534,-3.03866 -1.73467,-9.55333 -1.69734,-22.224 -0.26933,-17.17866 0.13734,-28.44266 0.852,-37.04133 -2.60143,-96.46738 -1.70133,44.67447 -1.70133,81.49067 1.48933,16.64266 0.40667,55.72132 1.70133,74.08266 -3.77733,4.60133 1.228,39.84666 -2.55066,44.44933 -0.52934,-22.51466 1.08666,-63.80933 -0.84667,-74.08266 0.001,4.11333 -0.68933,8.40667 -0.84933,0 1.98,-2.18133 1.98,-20.04401 0,-22.22534 -0.132,8.71868 0.144,21.028 -0.85067,22.22534 -0.41867,48.10399 0.732,82.52399 1.7,118.53199 3.56666,79.14655 -5.64692,-0.34304 1.696,-37.04133 z m -11.03867,-103.716 c 0.71334,23.53201 1.12267,-13.148 0.84934,-22.22399 1.31333,-10.76935 0.74933,-37.924 0.85066,-59.26667 0.65867,-1.65867 1.67334,-0.20133 1.69867,-7.40667 0.82374,-91.77485 -2.5389,28.66576 -4.248,-14.81733 -0.54933,33.52267 0.572,33.60532 1.69867,37.04133 -1.42,12.288 -0.676,43.49467 -0.84934,66.67333 z m -9.33866,-74.08133 c -0.27334,9.07467 0.13733,45.75466 0.84933,22.22534 v -44.44934 c -0.52328,-58.55178 -0.84933,-14.48316 -0.84933,22.224 z m 28.86933,229.65466 v -37.04 c -2.61467,-5.52 -1.632,20.336 -4.244,14.81467 2.75298,61.68179 -0.71536,94.87036 0.848,29.63333 7.37843,22.2738 -5.76704,-19.52582 3.396,-7.408 z m -14.436,7.408 c -1.96891,63.05121 0.81127,-60.04313 -1.664,-15.448 -0.26533,-35.588 -0.88667,-74.88133 -1.73067,-95.67466 -4.25169,149.09614 6.86516,118.53252 3.3947,111.12266 z"
         style="fill:#582818;fill-opacity:1;fill-rule:evenodd;stroke:none;stroke-width:0.000293875"
         id="path2017"
         sodipodi:nodetypes="ccccccccccccccccccccccccccccccccccccccccccccccccccccccccccccccccccccccccccccccccccccccccccccccccccccccccccccccccc" />
    </g>
  </g>
</svg>
