<?xml version="1.0" encoding="UTF-8"?>
<svg width="512" height="512" version="1.1" viewBox="0 0 512 512"
     xmlns="http://www.w3.org/2000/svg">
  <defs>
    <marker id="Arrow1Lend" overflow="visible" orient="auto">
      <path transform="scale(.8) rotate(180) translate(12.5)" d="m0 0 5-5-17.5 5 17.5 5-5-5z" fill-rule="evenodd" stroke="#000" stroke-width="1pt"/>
    </marker>
    <radialGradient id="radialGradient7704" cx="42.353" cy="523.16" r="237.87" gradientTransform="matrix(.065589 0 0 .57769 621.42 227)" gradientUnits="userSpaceOnUse">
      <stop stop-color="#9e4d1e" offset="0"/>
      <stop stop-color="#823f17" offset="1"/>
    </radialGradient>
    <clipPath id="clipPath1048">
      <path d="m636.86 673.37h-20v-119c0-14.01-4.3154-25.777-10-32v-128h30z"/>
    </clipPath>
  </defs>
  <g>
    <path d="m17 325v33h459v-33z" fill="#ccc" stroke="#000" stroke-width="1px"/>
    <path d="m216 384h-91" fill="none" marker-end="url(#Arrow1Lend)" stroke="#000" stroke-linejoin="round" stroke-width="1px"/>
    <g>
      <text x="229.73103" y="391.97903" fill="#000" font-family="sans-serif" font-size="22.664px" letter-spacing="0px" word-spacing="0px" style="line-height:1.25" xml:space="preserve"><tspan x="229.73103" y="391.97903" font-family="Arial" font-size="22.664px">Feed direction</tspan></text>
      <text x="219.61369" y="349.47903" fill="#000" font-family="sans-serif" font-size="22.664px" letter-spacing="0px" word-spacing="0px" style="line-height:1.25" xml:space="preserve"><tspan x="219.61369" y="349.47903" font-family="Arial" font-size="22.664px">Table</tspan></text>
      <g stroke="#000" stroke-linecap="round" stroke-linejoin="round">
        <circle cx="417" cy="242" r="29.14" fill="#fef72f" stroke-width="11"/>
        <circle cx="96" cy="258" r="29.14" fill="#fef72f" stroke-width="11"/>
        <circle cx="248" cy="225" r="55.042" fill="#fed92f" stroke-width="2"/>
      </g>
      <rect x="220.5" y="246.49" width="9.7133" height="46.948"/>
      <rect transform="scale(-1)" x="-275.5" y="-202.78" width="9.7133" height="46.948"/>
    </g>
    <g fill="#000000" font-family="sans-serif" font-size="22.664px" letter-spacing="0px" word-spacing="0px">
      <text x="18.456322" y="200.79077" style="line-height:1.25" xml:space="preserve"><tspan x="18.456322" y="200.79077" font-family="Arial" font-size="22.664px">Out-feed Roller</tspan></text>
      <text x="187.15582" y="136.74551" style="line-height:1.25" xml:space="preserve"><tspan x="187.15582" y="136.74551" font-family="Arial" font-size="22.664px">Cutter Head</tspan></text>
      <text x="347.76181" y="183.57761" style="line-height:1.25" xml:space="preserve"><tspan x="347.76181" y="183.57761" font-family="Arial" font-size="22.664px">In-feed Roller</tspan></text>
    </g>
    <g transform="matrix(0 1.6189 -1.6189 0 1134.3 -705.77)" clip-path="url(#clipPath1048)" stroke-width=".61771">
      <path d="m602.74 391.8h37.062v284.15h-37.062z" fill="url(#radialGradient7704)"/>
      <path d="m632.33 559.41c0.23467 2.0467 1.2867-3.5747 0.848-7.4093-0.23467-2.0467-1.2893 3.5747-0.848 7.4093zm5.092-162.98c0.19631-90.648-2.3185 2.4928-3.396 37.041-0.132-8.7173 0.148-21.028-0.848-22.224 0.372 64.887-1.2053 101.15 0.848 148.16 0.46533 10.764-0.99333 38.293 0.84933 37.041v-51.859c-1.6267-17.905-0.53466-59.529-0.84933-88.897 1.7507-2.016 0.20267-32.807 2.548-29.635 0.348 17.849-1.552 16.105-0.84933 37.041 1.8747 0.92267 0.36 31.429 0.84933 44.449 1.96-22.412 0.3-76.411 0.848-111.12zm-3.396 214.84c-0.23333-2.0493-1.288 3.5747-0.848 7.408 0.23467 2.0467 1.2867-3.5733 0.848-7.408zm-19.528-133.35c-0.236-2.052-1.288 3.5773-0.84933 7.408 0.23466 2.0506 1.288-3.5774 0.84933-7.408zm-0.84933 22.224c9e-3 10.863-1.0262 31.279 0.84933 37.041-0.0107-10.861 0.31867-60.623-0.84933-37.041zm1.6987-29.632c-3e-3 4.112 0.68667 8.4093 0.84667 0 3e-3 -4.1133-0.68667-8.4093-0.84667 0zm1.696 74.081c-0.0347 7.8787 0.40134 18.811 0.84934 7.408 0.0373-7.8773-0.39867-18.813-0.84934-7.408zm9.3427-81.491c-0.236-2.0507-1.2907 3.5787-0.84933 7.4093 0.23466 2.0493 1.2867-3.5773 0.84933-7.4093zm-3.8132 18.637c-0.56108 4.1133 0.96789 25.725 2.5653 17.315-0.55944-6.3608-2.2226-25.909-2.5653-17.315zm2.9639-48.269c0.23466 2.0507 1.2867-3.5787 0.84933-7.4093-0.236-2.0493-1.2907 3.5787-0.84933 7.4093zm-2.5493 222.25c-0.23466-2.0453-1.288 3.5747-0.84933 7.4093 0.236 2.0467 1.2907-3.5733 0.84933-7.4093zm0-148.16c-2.316 22.536 2.584-20.22 0 0zm-11.036-44.449c-3e-3 4.1147 0.68667 8.4107 0.848 0 3e-3 -4.112-0.68666-8.4093-0.848 0zm-0.852-59.265c-0.0347 7.8787 0.40134 18.815 0.852 7.4093 0.0347-7.8787-0.40133-18.813-0.852-7.4093zm11.888 29.633c0.66934-25.585-0.79466-32.589-2.5453-37.041 0.784 12.911-0.0293 39.761 2.5453 37.041zm-1.6973 22.225c0.23467 2.0507 1.2867-3.5787 0.848-7.408-0.23333-2.052-1.2853 3.5773-0.848 7.408zm1.6973 7.4067c-0.23466-2.0507-1.288 3.5787-0.84933 7.4093 0.236 2.0493 1.2907-3.5773 0.84933-7.4093zm5.0947 200.02c0.236 2.0467 1.288-3.5733 0.84933-7.4093-0.23466-2.0453-1.2893 3.5747-0.84933 7.4093zm-19.528-155.57c0.236-16.884-0.20667-27.848-1.6987-29.632 0.19334 13.128-0.85466 37.1 1.6987 29.632zm22.927 66.676c1.0267 0.752 0.52133-10.772 0 0zm-6.7947 44.448c-0.23467-2.048-1.288 3.5733-0.84933 7.4093 0.23466 2.0453 1.2893-3.5747 0.84933-7.4093zm-3.396-96.307c3e-3 4.1134-0.688 8.4094-0.848 0-0.19067-5.748-0.0253-14.615-0.84933-14.817v37.041c1.4133 0.86135 0.28133 60.576 1.6973 37.041-0.97867-24.071 2.5947-45.571 0-59.265zm6.792 88.899c0.14533 11.084-0.30267 27.34 0.84933 29.632 0.18934-5.7507 0.0227-14.615 0.852-14.815-0.27466 9.0773 0.13467 45.756 0.84534 22.224-1.2213-41.093-1.6493-61.733 0-103.72 0.28933-39.797-1.8653-46.348 0-81.491-1.0653-3.0387-1.7347-9.5533-1.6973-22.224-0.26933-17.179 0.13734-28.443 0.852-37.041-2.6014-96.467-1.7013 44.674-1.7013 81.491 1.4893 16.643 0.40667 55.721 1.7013 74.083-3.7773 4.6013 1.228 39.847-2.5507 44.449-0.52934-22.515 1.0867-63.809-0.84667-74.083 1e-3 4.1133-0.68933 8.4067-0.84933 0 1.98-2.1813 1.98-20.044 0-22.225-0.132 8.7187 0.144 21.028-0.85067 22.225-0.41867 48.104 0.732 82.524 1.7 118.53 3.5667 79.147-5.6469-0.34304 1.696-37.041zm-11.039-103.72c0.71334 23.532 1.1227-13.148 0.84934-22.224 1.3133-10.769 0.74933-37.924 0.85066-59.267 0.65867-1.6587 1.6733-0.20133 1.6987-7.4067 0.82374-91.775-2.5389 28.666-4.248-14.817-0.54933 33.523 0.572 33.605 1.6987 37.041-1.42 12.288-0.676 43.495-0.84934 66.673zm-9.3387-74.081c-0.27334 9.0747 0.13733 45.755 0.84933 22.225v-44.449c-0.52328-58.552-0.84933-14.483-0.84933 22.224zm28.869 229.65v-37.04c-2.6147-5.52-1.632 20.336-4.244 14.815 2.753 61.682-0.71536 94.87 0.848 29.633 7.3784 22.274-5.767-19.526 3.396-7.408zm-14.436 7.408c-1.9689 63.051 0.81127-60.043-1.664-15.448-0.26533-35.588-0.88667-74.881-1.7307-95.675-4.2517 149.1 6.8652 118.53 3.3947 111.12z" fill="#582818" fill-rule="evenodd"/>
    </g>
  </g>
</svg>
