<?xml version="1.0" encoding="UTF-8"?>
<svg version="1.1" viewBox="0 0 512 512" xmlns="http://www.w3.org/2000/svg">
  <defs>
    <marker id="Arrow1Lend" overflow="visible" orient="auto">
      <path d="m-10 1.2246e-15 -4 4 14-4-14-4 4 4z" fill-rule="evenodd" stroke="#000" stroke-width="1pt"/>
    </marker>
    <radialGradient id="gradient" cx="42" cy="523" r="236" gradientTransform="matrix(0 .10618 -.93522 0 766.81 300.25)" gradientUnits="userSpaceOnUse">
      <stop stop-color="#9e4d1e" offset="0"/>
      <stop stop-color="#823f17" offset="1"/>
    </radialGradient>
  </defs>
  <path d="m288.63 276.68c-10.074 9.2028-29.124 16.189-51.805 16.189h-192.65v32.377h451.67v-48.566h-207.22z" fill="url(#gradient)"/>
  <path d="m228.67 317.91c-3.3134 0.3799 5.7871 2.083 11.995 1.3728 3.3134-0.3799-5.7871-2.0872-11.995-1.3728zm263.85 5.8352s-4.0404-1.3452-59.971-3.0896c14.112-0.21369 34.042 0.2396 35.978-1.3728-105.05 0.60224-163.75-1.9513-239.86 1.3728-17.426 0.75332-61.993-1.6081-59.966 1.375h83.955c28.986-2.6335 96.372-0.86556 143.92-1.375 3.2637 2.8342 53.111 0.3281 47.976 4.125-28.896 0.56338-26.072-2.5125-59.966-1.375-1.4937 3.035-50.88 0.5828-71.958 1.375 39.055 2.064 123.7-1.9227 179.89-1.0354zm-347.81-3.0896c3.3176-0.37774-5.7871-2.0851-11.993-1.3728-3.3134 0.37991 5.7848 2.083 11.993 1.3728zm215.88-31.614c3.322-0.38206-5.7913-2.0851-11.993-1.375-3.3197 0.37989 5.7914 2.0852 11.993 1.375zm-35.978-1.375c-17.586 0.0146-49.36-1.3775-58.689 1.6588 17.583-0.0173 96.865 0.23209 58.689-1.6588zm47.971 2.75c-6.6569-5e-3 -13.614 1.1116 0 1.3707 6.659 5e-3 13.614-1.1116 0-1.3707zm-119.93 2.7456c-12.755-0.0562-30.453 0.64973-11.993 1.375 12.753 0.0604 30.456-0.64541 11.993-1.375zm131.93 15.125c3.3199-0.38206-5.7936-2.0895-11.995-1.375-3.3176 0.37989 5.7913 2.083 11.995 1.375zm-30.171-6.1732c-6.659-0.90833-41.646 1.5669-28.031 4.153 10.298-0.90567 41.944-3.5982 28.031-4.153zm78.143 4.7983c-3.3199 0.37989 5.7936 2.083 11.995 1.375 3.3176-0.38206-5.7936-2.0895-11.995-1.375zm-359.8-4.1271c3.3111-0.3799-5.7871-2.0852-11.995-1.375-3.3134 0.38207 5.7848 2.0895 11.995 1.375zm239.86 0c-36.484-3.7494 32.734 4.1832 0 0zm71.958-17.866c-6.6613-5e-3 -13.616 1.1116 0 1.3728 6.6569 5e-3 13.614-1.1116 0-1.3728zm95.944-1.3793c-12.755-0.0562-30.46 0.64973-11.995 1.3793 12.755 0.0562 30.456-0.64971 11.995-1.3793zm-47.973 19.245c41.42 1.0836 52.758-1.2865 59.966-4.1206-20.902 1.2692-64.369-0.0474-59.966 4.1206zm-35.98-2.7478c-3.3199 0.3799 5.7936 2.083 11.993 1.3728 3.322-0.37773-5.7913-2.0808-11.993-1.3728zm-11.991 2.7478c3.3199-0.3799-5.7936-2.0852-11.995-1.375-3.3176 0.38207 5.7913 2.0895 11.995 1.375zm-323.81 8.2478c-3.3134 0.38206 5.7848 2.0851 11.995 1.375 3.3111-0.3799-5.7871-2.0872-11.995-1.375zm251.85-31.614c27.334 0.38206 45.083-0.33458 47.971-2.75-21.253 0.313-60.061-1.3836-47.971 2.75zm-107.94 37.117c-1.2174 1.6621 17.439 0.84398 0 0zm-71.957-11c3.3155-0.37991-5.7848-2.0852-11.995-1.375-3.3111 0.37989 5.7871 2.0872 11.995 1.375zm155.91-5.4978c-6.6592 5e-3 -13.614-1.1138 0-1.3728 9.3054-0.30867 23.66-0.041 23.987-1.375h-59.966c-1.3944 2.288-98.066 0.45545-59.966 2.7478 38.969-1.5844 73.775 4.2006 95.944 0zm-143.92 10.996c-17.944 0.23528-44.261-0.48999-47.971 1.375 9.3098 0.30652 23.66 0.0367 23.984 1.3793-14.695-0.44464-74.074 0.21802-35.978 1.3685 66.525-1.9772 99.94-2.67 167.91 0 64.427 0.4684 75.033-3.0197 131.93 0 4.9194-1.7246 15.466-2.8083 35.978-2.7478 27.811-0.43602 46.046 0.22234 59.966 1.3793 58.618-5.2499-73.378-2.7658-131.93-2.7542-26.943 2.411-90.207 0.65836-119.93 2.7542-7.449-6.1151-64.508 1.988-71.958-4.1293 36.45-0.85695 103.3 1.7593 119.93-1.3707-6.659 2e-3 -13.61-1.116 0-1.375 3.5313 3.2054 32.449 3.2054 35.98 0-14.115-0.2137-34.042 0.23312-35.98-1.3772-77.876-0.67779-133.6 1.185-191.89 2.7521-94.881 5.4314 1.0146-9.1465 59.966 2.7456zm167.91-17.871c-38.096 1.1548 21.285 1.8175 35.978 1.375 17.434 2.1261 61.395 1.2131 95.947 1.3771 2.6853 1.0663 0.32593 2.7089 11.991 2.75 110.26-1.7521-62.453-5.4025 23.987-6.8771-54.27-0.88931-54.403 0.92601-59.966 2.75-19.893-2.2988-70.414-1.0944-107.94-1.375zm119.93-15.118c-14.691-0.44251-74.073 0.22233-35.98 1.375h71.958c50.408-0.48035 23.335-1.3741-35.978-1.375zm-371.78 46.736h59.964c8.9363-4.2329-32.922-2.642-23.984-6.8706-51.361 2.8688-55.549-4.3683-47.973 1.3728-12.623 8.2685 31.611-9.3362 11.993 5.4978zm-11.993-23.37c8.1315-6.0132 97.204 1.3134 25.009-2.6938 57.613-0.42955 121.22-1.4354 154.89-2.8018-241.12-6.9379-172.17 5.4957-179.89 5.4957z" fill="#582818"/>
  <path d="m17 325v33h459v-33z" fill="#ccc" stroke="#000" stroke-width="1px"/>
  <path d="m216 384h-91" fill="none" stroke="#000" stroke-width="1px" marker-end="url(#Arrow1Lend)"/>
  <g stroke="#000">
    <circle cx="417" cy="242" r="29.14" fill="#fef72f" stroke-width="11"/>
    <circle cx="96" cy="258" r="29.14" fill="#fef72f" stroke-width="11"/>
    <circle cx="248" cy="225" r="55.042" fill="#fed92f" stroke-width="2"/>
  </g>
  <path d="m220.5 246.49h10v46h-10z"/>
  <path d="m275.5 202.78h-10v-46h10z"/>
  <g font-family="Arial" font-size="22px">
    <text x="229" y="391">Feed direction</text>
    <text x="219" y="349">Table</text>
    <text x="18" y="200">Out-feed Roller</text>
    <text x="187" y="136">Cutter Head</text>
    <text x="347" y="183">In-feed Roller</text>
  </g>
</svg>
