<?xml version="1.0" encoding="UTF-8" standalone="no"?>
<svg xmlns="http://www.w3.org/2000/svg" version="1.1" width="360" height="185">
  <g>
    <text x="178" y="180" font-size="36" font-weight="bold" font-family="B-Nazanin, sans-serif" text-anchor="middle">۲۸۵</text>
    <g fill="#7EC8A6" id="آذربایجانشرقی">
      <circle cx="10.61" cy="175.56" r="4.44"/>
      <circle cx="21.73" cy="175.56" r="4.44"/>
      <circle cx="32.84" cy="175.56" r="4.44"/>
      <circle cx="43.96" cy="175.56" r="4.44"/>
      <circle cx="55.08" cy="175.56" r="4.44"/>
      <circle cx="66.20" cy="175.56" r="4.44"/>
      <circle cx="77.32" cy="175.56" r="4.44"/>
      <circle cx="88.44" cy="175.56" r="4.44"/>
      <circle cx="99.57" cy="175.56" r="4.44"/>
      <circle cx="11.40" cy="163.12" r="4.44"/>
      <circle cx="22.58" cy="163.06" r="4.44"/>
      <circle cx="33.76" cy="162.99" r="4.44"/>
      <circle cx="44.92" cy="163.28" r="4.44"/>
      <circle cx="56.13" cy="163.23" r="4.44"/>
      <circle cx="67.36" cy="163.16" r="4.44"/>
      <circle cx="78.63" cy="163.07" r="4.44"/>
      <circle cx="13.09" cy="150.78" r="4.44"/>
      <circle cx="24.41" cy="150.67" r="4.44"/>
      <circle cx="89.93" cy="162.97" r="4.44"/>
    </g>
    <g fill="#7561BA" id="آذربایجانغربی">
      <circle cx="35.75" cy="150.55" r="4.44"/>
      <circle cx="46.98" cy="151.15" r="4.44"/>
      <circle cx="101.29" cy="162.84" r="4.44"/>
      <circle cx="58.40" cy="151.06" r="4.44"/>
      <circle cx="15.69" cy="138.59" r="4.44"/>
      <circle cx="69.88" cy="150.96" r="4.44"/>
      <circle cx="27.21" cy="138.47" r="4.44"/>
      <circle cx="38.80" cy="138.33" r="4.44"/>
      <circle cx="81.44" cy="150.84" r="4.44"/>
      <circle cx="50.13" cy="139.25" r="4.44"/>
      <circle cx="19.18" cy="126.63" r="4.44"/>
      <circle cx="93.14" cy="150.71" r="4.44"/>
    </g>
    <g fill="#CBEB86" id="اردبیل">
      <circle cx="61.85" cy="139.18" r="4.44"/>
      <circle cx="30.97" cy="126.52" r="4.44"/>
      <circle cx="73.71" cy="139.11" r="4.44"/>
      <circle cx="42.88" cy="126.41" r="4.44"/>
      <circle cx="23.54" cy="114.96" r="4.44"/>
      <circle cx="54.35" cy="127.68" r="4.44"/>
      <circle cx="85.73" cy="139.05" r="4.44"/>
    </g>
    <g fill="#225C94" id="اصفهان">
      <circle cx="105.02" cy="150.55" r="4.44"/>
      <circle cx="35.66" cy="114.91" r="4.44"/>
      <circle cx="66.47" cy="127.69" r="4.44"/>
      <circle cx="47.96" cy="114.89" r="4.44"/>
      <circle cx="98.01" cy="139.01" r="4.44"/>
      <circle cx="28.74" cy="103.63" r="4.44"/>
      <circle cx="78.81" cy="127.75" r="4.44"/>
      <circle cx="59.59" cy="116.54" r="4.44"/>
      <circle cx="41.26" cy="103.71" r="4.44"/>
      <circle cx="72.20" cy="116.72" r="4.44"/>
      <circle cx="91.43" cy="127.86" r="4.44"/>
      <circle cx="110.65" cy="139.01" r="4.44"/>
      <circle cx="34.76" cy="92.73" r="4.44"/>
      <circle cx="54.01" cy="103.84" r="4.44"/>
      <circle cx="65.82" cy="105.92" r="4.44"/>
      <circle cx="47.72" cy="92.98" r="4.44"/>
      <circle cx="85.12" cy="117.01" r="4.44"/>
      <circle cx="104.45" cy="128.09" r="4.44"/>
      <circle cx="41.57" cy="82.29" r="4.44"/>
    </g>
    <g fill="#E96E5D" id="البرز">
      <circle cx="60.98" cy="93.35" r="4.44"/>
      <circle cx="78.98" cy="106.37" r="4.44"/>
      <circle cx="98.45" cy="117.45" r="4.44"/>
    </g>
    <g fill="#471F5E" id="ایلام">
      <circle cx="55.01" cy="82.80" r="4.44"/>
      <circle cx="72.98" cy="95.90" r="4.44"/>
      <circle cx="49.12" cy="72.38" r="4.44"/>
    </g>
    <g fill="#AB1461" id="بوشهر">
      <circle cx="118.04" cy="128.52" r="4.44"/>
      <circle cx="92.56" cy="107.02" r="4.44"/>
      <circle cx="68.82" cy="83.49" r="4.44"/>
      <circle cx="86.76" cy="96.75" r="4.44"/>
    </g>
    <g fill="#D772D4" id="تهران">
      <circle cx="63.09" cy="73.23" r="4.44"/>
      <circle cx="112.33" cy="118.16" r="4.44"/>
      <circle cx="81.01" cy="86.58" r="4.44"/>
      <circle cx="57.38" cy="63.05" r="4.44"/>
      <circle cx="106.68" cy="107.98" r="4.44"/>
      <circle cx="77.48" cy="74.34" r="4.44"/>
      <circle cx="101.05" cy="97.91" r="4.44"/>
      <circle cx="71.89" cy="64.32" r="4.44"/>
      <circle cx="95.45" cy="87.93" r="4.44"/>
      <circle cx="66.31" cy="54.36" r="4.44"/>
      <circle cx="89.86" cy="78.02" r="4.44"/>
      <circle cx="127.01" cy="119.33" r="4.44"/>
      <circle cx="121.51" cy="109.42" r="4.44"/>
      <circle cx="86.89" cy="65.96" r="4.44"/>
      <circle cx="81.37" cy="56.14" r="4.44"/>
      <circle cx="116.01" cy="99.58" r="4.44"/>
      <circle cx="75.85" cy="46.34" r="4.44"/>
      <circle cx="110.49" cy="89.78" r="4.44"/>
      <circle cx="104.97" cy="80.02" r="4.44"/>
      <circle cx="99.44" cy="70.29" r="4.44"/>
      <circle cx="96.98" cy="58.42" r="4.44"/>
      <circle cx="91.47" cy="48.73" r="4.44"/>
      <circle cx="85.95" cy="39.05" r="4.44"/>
      <circle cx="137.32" cy="111.68" r="4.44"/>
      <circle cx="131.81" cy="102.02" r="4.44"/>
      <circle cx="126.29" cy="92.38" r="4.44"/>
      <circle cx="120.76" cy="82.73" r="4.44"/>
      <circle cx="115.22" cy="73.09" r="4.44"/>
      <circle cx="109.68" cy="63.46" r="4.44"/>
      <circle cx="96.56" cy="32.52" r="4.44"/>
      <circle cx="102.12" cy="42.14" r="4.44"/>
      <circle cx="107.68" cy="51.77" r="4.44"/>
      <circle cx="120.50" cy="57.58" r="4.44"/>
      <circle cx="126.11" cy="67.21" r="4.44"/>
      <circle cx="107.63" cy="26.79" r="4.44"/>
    </g>
    <g fill="#893B0E" id="چهارمحالوبختیاری">
      <circle cx="131.73" cy="76.85" r="4.44"/>
      <circle cx="113.26" cy="36.42" r="4.44"/>
      <circle cx="118.90" cy="46.05" r="4.44"/>
      <circle cx="137.37" cy="86.48" r="4.44"/>
    </g>
    <g fill="#2A9D82" id="خراسانجنوبی">
      <circle cx="143.03" cy="96.12" r="4.44"/>
      <circle cx="148.72" cy="105.77" r="4.44"/>
      <circle cx="119.08" cy="21.89" r="4.44"/>
      <circle cx="131.81" cy="52.71" r="4.44"/>
    </g>
    <g fill="#AE6F94" id="خراسانرضوی">
      <circle cx="124.81" cy="31.60" r="4.44"/>
      <circle cx="137.53" cy="62.44" r="4.44"/>
      <circle cx="130.58" cy="41.32" r="4.44"/>
      <circle cx="143.28" cy="72.19" r="4.44"/>
      <circle cx="149.09" cy="81.98" r="4.44"/>
      <circle cx="130.86" cy="17.84" r="4.44"/>
      <circle cx="136.72" cy="27.70" r="4.44"/>
      <circle cx="154.95" cy="91.82" r="4.44"/>
      <circle cx="143.51" cy="48.87" r="4.44"/>
      <circle cx="142.61" cy="37.60" r="4.44"/>
      <circle cx="149.36" cy="58.81" r="4.44"/>
      <circle cx="160.91" cy="101.74" r="4.44"/>
      <circle cx="142.91" cy="14.66" r="4.44"/>
      <circle cx="155.28" cy="68.83" r="4.44"/>
      <circle cx="148.89" cy="24.75" r="4.44"/>
      <circle cx="161.27" cy="78.94" r="4.44"/>
      <circle cx="155.50" cy="46.11" r="4.44"/>
      <circle cx="154.92" cy="34.93" r="4.44"/>
    </g>
    <g fill="#89131E" id="خراسانشمالی">
      <circle cx="161.50" cy="56.38" r="4.44"/>
      <circle cx="155.16" cy="12.39" r="4.44"/>
      <circle cx="167.35" cy="89.21" r="4.44"/>
      <circle cx="161.25" cy="22.78" r="4.44"/>
    </g>
    <g fill="#C6B581" id="خوزستان">
      <circle cx="167.56" cy="66.79" r="4.44"/>
      <circle cx="167.70" cy="44.45" r="4.44"/>
      <circle cx="167.41" cy="33.32" r="4.44"/>
      <circle cx="173.58" cy="99.70" r="4.44"/>
      <circle cx="167.55" cy="11.01" r="4.44"/>
      <circle cx="173.72" cy="77.41" r="4.44"/>
      <circle cx="173.81" cy="55.15" r="4.44"/>
      <circle cx="173.74" cy="21.79" r="4.44"/>
      <circle cx="180.00" cy="10.56" r="4.44"/>
      <circle cx="180.00" cy="32.78" r="4.44"/>
      <circle cx="180.00" cy="43.89" r="4.44"/>
      <circle cx="180.00" cy="66.11" r="4.44"/>
      <circle cx="180.00" cy="88.33" r="4.44"/>
      <circle cx="186.26" cy="21.79" r="4.44"/>
      <circle cx="186.19" cy="55.15" r="4.44"/>
      <circle cx="186.28" cy="77.41" r="4.44"/>
      <circle cx="192.45" cy="11.01" r="4.44"/>
      <circle cx="186.42" cy="99.70" r="4.44"/>
    </g>
    <g fill="#7AB7A0" id="زنجان">
      <circle cx="192.59" cy="33.32" r="4.44"/>
      <circle cx="192.30" cy="44.45" r="4.44"/>
      <circle cx="192.44" cy="66.79" r="4.44"/>
      <circle cx="198.75" cy="22.78" r="4.44"/>
      <circle cx="192.65" cy="89.21" r="4.44"/>
    </g>
    <g fill="#066BA0" id="سمنان">
      <circle cx="204.84" cy="12.39" r="4.44"/>
      <circle cx="198.50" cy="56.38" r="4.44"/>
      <circle cx="205.08" cy="34.93" r="4.44"/>
      <circle cx="204.50" cy="46.11" r="4.44"/>
    </g>
    <g fill="#916A93" id="سیستانوبلوچستان">
      <circle cx="198.73" cy="78.94" r="4.44"/>
      <circle cx="211.11" cy="24.75" r="4.44"/>
      <circle cx="204.72" cy="68.83" r="4.44"/>
      <circle cx="217.09" cy="14.66" r="4.44"/>
      <circle cx="199.09" cy="101.74" r="4.44"/>
      <circle cx="210.64" cy="58.81" r="4.44"/>
      <circle cx="217.39" cy="37.60" r="4.44"/>
      <circle cx="216.49" cy="48.87" r="4.44"/>
    </g>
    <g fill="#965957" id="فارس">
      <circle cx="205.05" cy="91.82" r="4.44"/>
      <circle cx="223.28" cy="27.70" r="4.44"/>
      <circle cx="229.14" cy="17.84" r="4.44"/>
      <circle cx="210.91" cy="81.98" r="4.44"/>
      <circle cx="216.72" cy="72.19" r="4.44"/>
      <circle cx="229.42" cy="41.32" r="4.44"/>
      <circle cx="222.47" cy="62.44" r="4.44"/>
      <circle cx="235.19" cy="31.60" r="4.44"/>
      <circle cx="228.19" cy="52.71" r="4.44"/>
      <circle cx="240.92" cy="21.89" r="4.44"/>
      <circle cx="211.28" cy="105.77" r="4.44"/>
      <circle cx="216.97" cy="96.12" r="4.44"/>
      <circle cx="222.63" cy="86.48" r="4.44"/>
      <circle cx="241.10" cy="46.05" r="4.44"/>
      <circle cx="246.74" cy="36.42" r="4.44"/>
      <circle cx="228.27" cy="76.85" r="4.44"/>
      <circle cx="252.37" cy="26.79" r="4.44"/>
      <circle cx="233.89" cy="67.21" r="4.44"/>
    </g>
    <g fill="#F5BF1D" id="قزوین">
      <circle cx="239.50" cy="57.58" r="4.44"/>
      <circle cx="252.32" cy="51.77" r="4.44"/>
      <circle cx="257.88" cy="42.14" r="4.44"/>
      <circle cx="263.44" cy="32.52" r="4.44"/>
    </g>
    <g fill="#8C6BB8" id="قم">
      <circle cx="250.32" cy="63.46" r="4.44"/>
      <circle cx="244.78" cy="73.09" r="4.44"/>
      <circle cx="239.24" cy="82.73" r="4.44"/>
    </g>
    <g fill="#1A972B" id="کردستان">
      <circle cx="233.71" cy="92.38" r="4.44"/>
      <circle cx="228.19" cy="102.02" r="4.44"/>
      <circle cx="222.68" cy="111.68" r="4.44"/>
      <circle cx="274.05" cy="39.05" r="4.44"/>
      <circle cx="268.53" cy="48.73" r="4.44"/>
      <circle cx="263.02" cy="58.42" r="4.44"/>
    </g>
    <g fill="#8B87F3" id="کرمان">
      <circle cx="260.56" cy="70.29" r="4.44"/>
      <circle cx="255.03" cy="80.02" r="4.44"/>
      <circle cx="249.51" cy="89.78" r="4.44"/>
      <circle cx="284.15" cy="46.34" r="4.44"/>
      <circle cx="243.99" cy="99.58" r="4.44"/>
      <circle cx="278.63" cy="56.14" r="4.44"/>
      <circle cx="273.11" cy="65.96" r="4.44"/>
      <circle cx="238.49" cy="109.42" r="4.44"/>
      <circle cx="232.99" cy="119.33" r="4.44"/>
      <circle cx="270.14" cy="78.02" r="4.44"/>
    </g>
    <g fill="#067AEB" id="کرمانشاه">
      <circle cx="293.69" cy="54.36" r="4.44"/>
      <circle cx="264.55" cy="87.93" r="4.44"/>
      <circle cx="288.11" cy="64.32" r="4.44"/>
      <circle cx="258.95" cy="97.91" r="4.44"/>
      <circle cx="282.52" cy="74.34" r="4.44"/>
      <circle cx="253.32" cy="107.98" r="4.44"/>
      <circle cx="302.62" cy="63.05" r="4.44"/>
      <circle cx="278.99" cy="86.58" r="4.44"/>
    </g>
    <g fill="#722D84" id="کهگیلویهوبویراحمد">
      <circle cx="247.67" cy="118.16" r="4.44"/>
      <circle cx="296.91" cy="73.23" r="4.44"/>
      <circle cx="273.24" cy="96.75" r="4.44"/>
    </g>
    <g fill="#FA86A0" id="گلستان">
      <circle cx="291.18" cy="83.49" r="4.44"/>
      <circle cx="267.44" cy="107.02" r="4.44"/>
      <circle cx="241.96" cy="128.52" r="4.44"/>
      <circle cx="310.88" cy="72.38" r="4.44"/>
      <circle cx="287.02" cy="95.90" r="4.44"/>
      <circle cx="304.99" cy="82.80" r="4.44"/>
      <circle cx="261.55" cy="117.45" r="4.44"/>
    </g>
    <g fill="#4880EB" id="گیلان">
      <circle cx="281.02" cy="106.37" r="4.44"/>
      <circle cx="299.02" cy="93.35" r="4.44"/>
      <circle cx="318.43" cy="82.29" r="4.44"/>
      <circle cx="255.55" cy="128.09" r="4.44"/>
      <circle cx="274.88" cy="117.01" r="4.44"/>
      <circle cx="312.28" cy="92.98" r="4.44"/>
      <circle cx="294.18" cy="105.92" r="4.44"/>
      <circle cx="305.99" cy="103.84" r="4.44"/>
      <circle cx="325.24" cy="92.73" r="4.44"/>
      <circle cx="249.35" cy="139.01" r="4.44"/>
      <circle cx="268.57" cy="127.86" r="4.44"/>
      <circle cx="287.80" cy="116.72" r="4.44"/>
      <circle cx="318.74" cy="103.71" r="4.44"/>
    </g>
    <g fill="#182717" id="لرستان">
      <circle cx="300.41" cy="116.54" r="4.44"/>
      <circle cx="281.19" cy="127.75" r="4.44"/>
      <circle cx="331.26" cy="103.63" r="4.44"/>
      <circle cx="261.99" cy="139.01" r="4.44"/>
      <circle cx="312.04" cy="114.89" r="4.44"/>
      <circle cx="293.53" cy="127.69" r="4.44"/>
      <circle cx="324.34" cy="114.91" r="4.44"/>
      <circle cx="274.27" cy="139.05" r="4.44"/>
      <circle cx="305.65" cy="127.68" r="4.44"/>
    </g>
    <g fill="#46D4A2" id="مازندران">
      <circle cx="336.46" cy="114.96" r="4.44"/>
      <circle cx="254.98" cy="150.55" r="4.44"/>
      <circle cx="317.12" cy="126.41" r="4.44"/>
      <circle cx="286.29" cy="139.11" r="4.44"/>
      <circle cx="329.03" cy="126.52" r="4.44"/>
      <circle cx="298.15" cy="139.18" r="4.44"/>
      <circle cx="266.86" cy="150.71" r="4.44"/>
      <circle cx="340.82" cy="126.63" r="4.44"/>
      <circle cx="309.87" cy="139.25" r="4.44"/>
      <circle cx="278.56" cy="150.84" r="4.44"/>
      <circle cx="321.20" cy="138.33" r="4.44"/>
      <circle cx="332.79" cy="138.47" r="4.44"/>
    </g>
    <g fill="#6F14E1" id="مرکزی">
      <circle cx="290.12" cy="150.96" r="4.44"/>
      <circle cx="344.31" cy="138.59" r="4.44"/>
      <circle cx="301.60" cy="151.06" r="4.44"/>
      <circle cx="258.71" cy="162.84" r="4.44"/>
      <circle cx="313.02" cy="151.15" r="4.44"/>
      <circle cx="324.25" cy="150.55" r="4.44"/>
      <circle cx="270.07" cy="162.97" r="4.44"/>
    </g>
    <g fill="#476CFF" id="هرمزگان">
      <circle cx="335.59" cy="150.67" r="4.44"/>
      <circle cx="346.91" cy="150.78" r="4.44"/>
      <circle cx="281.37" cy="163.07" r="4.44"/>
      <circle cx="292.64" cy="163.16" r="4.44"/>
      <circle cx="303.87" cy="163.23" r="4.44"/>
    </g>
    <g fill="#930995" id="همدان">
      <circle cx="315.08" cy="163.28" r="4.44"/>
      <circle cx="326.24" cy="162.99" r="4.44"/>
      <circle cx="337.42" cy="163.06" r="4.44"/>
      <circle cx="348.60" cy="163.12" r="4.44"/>
      <circle cx="260.43" cy="175.56" r="4.44"/>
      <circle cx="271.56" cy="175.56" r="4.44"/>
      <circle cx="282.68" cy="175.56" r="4.44"/>
      <circle cx="293.80" cy="175.56" r="4.44"/>
      <circle cx="304.92" cy="175.56" r="4.44"/>
    </g>
    <g fill="#F39091" id="یزد">
      <circle cx="316.04" cy="175.56" r="4.44"/>
      <circle cx="327.16" cy="175.56" r="4.44"/>
      <circle cx="338.27" cy="175.56" r="4.44"/>
      <circle cx="349.39" cy="175.56" r="4.44"/>
    </g>
  </g>
</svg>
