<svg viewBox="0 0 588 1039" xmlns="http://www.w3.org/2000/svg">
  <path transform="scale(.75)" d="m203.87 137.96c-23.12 19.573-45.214 40.545-64.254 64.158-22.453 27.853-40.654 60.454-45.641 96.32-2.1067 12.813-1.4125 25.826-1.5059 38.76l0.02734 404.53c12.707-0.49333 25.44 0.0148 38.146-0.47851 13.107-0.0133 26.467-1.0407 39.227 2.5859 26.427 7.08 47.826 26.948 61.6 50.041 24.307 43.653 48.466 87.372 72.506 131.17l204.82 0.0732c24.406-42.266 49.524-88.753 70.19-126.16 6.68-12.64 15.574-24.122 26.188-33.682 15.947-14.6 37-24.293 58.84-24.16 18.96 0.16 37.907 0.29328 56.867 0.61328 0.4-140.57-0.10794-281.17 0.0254-421.76 0.16-31.893-10.612-63.054-27.346-89.934-27.32-43.8-66.534-78.425-106.48-110.41-26.477-20.891-49.078-40.497-78.414-60.76 0 0-201.24-0.08268-202.3-0.04101-36.884 24.696-72.951 54.775-102.5 79.135zm177.71-39.574c-30.747 24.693-63.52 46.788-93.627 72.268-9.8133 8.3467-19.347 17.052-27.867 26.732-10.187 11.573-16.987 25.694-22.387 40.027-12.093 34.16-8.5735 71.013-7.5469 106.53-0.22666 130.53-0.31994 261.09-0.61328 391.63 20.84-0.16 41.694 0.0129 62.547-0.0937 3.7733-0.17333 7.4137 1.1459 10.707 2.8926 9.2933 5.0133 17.32 11.96 24.934 19.174 23.453 22.84 43.292 49.012 62.705 75.266-15.64 21.507-31.079 43.175-46.332 64.975-8.2267 0.08-16.467-0.12086-24.693 0.11914l-61.107-110.4c-8.2933-15.56-18.8-30.08-31.787-42.066-15.24-13.853-33.692-24.545-53.879-29.105-17.787-4.2133-36.16-1.9867-54.227-2.3867 0.24-132.19-0.0536-264.37 0.37305-396.55 0.29333-33.8 15.074-67.008 42.947-100.12 26.813-34.88 70.439-67.96 112.67-101.59 10.987-8.5467 22.094-16.947 33.32-25.187 2.4961-1.7812 5.0238-4.2419 6.843-4.341 23.888-0.13071 47.425 4.9451 67.024 12.222zm118.27-11.934c28.733 20.373 56.094 42.587 83.414 64.787 25.84 21.173 50.733 43.866 71.6 70.053 21.253 26.667 38.441 58.574 39.641 93.334 0.32 133.12 0.38638 266.24 0.37305 399.36-18.68 0.33333-37.721-1.946-56.041 2.7207-25.96 6.5733-48.879 22.694-65.666 43.32-7.8933 9.44-14.267 20.039-20 30.893-19.747 35.667-39.573 71.267-59.16 107.01-39.093-0.28-78.2-0.12083-117.29-0.1875 28.707-40.627 57.839-81.039 90.186-118.87 10.267-11.92 20.921-23.601 32.881-33.867 4.64-3.5333 9.2139-7.8 14.947-9.3867 21.053-0.21333 42.146-0.17367 63.213-0.0137l-0.37304-343.64c0.22666-23.107-0.65459-46.227 0.71875-69.307 0.86666-29.36 1.348-59.732-9.252-87.639-5.6667-14.253-12.681-28.415-23.574-39.441-14.107-14.827-29.959-27.839-45.812-40.732-27.773-22.36-88.179-67.419-89.574-68.4zm-96.133 28.814c30.2 23.027 60.853 45.505 90.213 69.639 13.173 11.187 26.666 22.241 37.746 35.588 10.24 14.4 16.667 31.413 19.014 48.906 3.0933 23.84 1.4939 47.92 0.56054 71.84l0.25395 367.01c-12.733-0.13334-25.482-0.041-38.215-0.041-11.027 0.49333-20.026 7.7598-28.439 14.146-29.827 25.72-53.547 57.48-77.854 88.227-14.12-19.52-29.12-38.425-45.16-56.412-13.787-14.613-27.96-29.4-45.6-39.4-7.0533-3.6267-14.707-6.9063-22.801-6.5996-12.533 0.0533-25.066-0.0133-37.6 0l0.56055-364.15c-0.70667-30.653-4.2274-62.147 4.2793-92.094 4.6267-14.8 11.707-29.24 22.693-40.387 8.7867-9.52 18.947-17.613 28.801-25.973 29.973-24.147 61.654-46.093 91.547-70.307z"/>
  <g fill="#000">
    <path d="m291.18 810.8c10.82-13.06 20.53-27.06 29.21-41.6 0.36 4.75-2.5 8.93-3.89 13.33-1.56 4.9-4.34 9.41-5.14 14.54-1.48 1.92-2.81 3.95-4.01 6.07-3.93 6.99-9.84 12.56-14.19 19.27-9.75 12.18-18.82 24.91-28.86 36.86-6.9 9.05-13.78 18.11-20.71 27.14-1.07 1.13-1.56 2.56-1.54 4.12 13.88-1.08 26.48 5.87 39.85 8.16 10.54 2.61 21.4 3.46 32.18 4.56 20.27 0.98 40.73 0.53 60.7-3.34 17.8-2.9 35.57-6.83 52.32-13.63 16.19-6.59 31.9-14.49 46.07-24.79 10.06-7.62 20.45-15.34 27.78-25.78 3.82-5.05 4.31-11.67 7.71-16.96 3.32-5.37 6.52-10.87 10.32-15.92l0.71 0.54c-0.11 2.49-1.09 4.83-1.91 7.16-3.07 8.23-4.86 16.97-9.28 24.65-2.76 6.28-7.14 11.6-11.21 17.06-0.86 0.8-1.69 1.64-2.49 2.5-8.52 10.49-18.99 19.21-29.56 27.54-42.67 30.97-95.49 48.07-148.27 46.81-13.12-0.48-26.33-1.31-39.06-4.84-4.5967-1.7526-8.2317-4.087-11.99-6.57-0.68 0.39-1.35 0.78-2.02 1.2-2.06 12.61-7.33 25.38-17.08 33.97-5.2 3.23-11.68 5.35-17.65 2.96-6.19-2.3-9.28-8.82-10.58-14.88-1.92-10.19-0.81-20.6-0.9-30.89 1.58-18.04 2.31-36.17 4.83-54.13 0.81-9.49 3.17-18.74 6.16-27.75 0.72904-2.5592 2.7458-12.112 3.8216-12.737 0 0 0.73446 7.402 0.57843 8.4771-0.76 6.02-0.28 12.13-1.3 18.13-1.41 8.59-1.16 17.33-2.13 25.97-0.09 7.42-1.96 14.78-1.09 22.2 3.94-3.73 6.63-8.52 10.02-12.71 8.07-10.24 16.53-20.17 24.2-30.71 9.13-12.27 19.2-23.77 28.4-35.98m-62.63 94.89c-3.24 2.88-2.13 7.62-1.92 11.42 0.81 8.25 9.29 14.48 17.39 13.43 3.9 0.16 7.16-2.14 10.26-4.18 3.71-4.02 6.26-9.81 4.72-15.29-1.45-4.95-6.23-7.8-10.85-9.29-6.67-1.03-14.39-1.04-19.6 3.91z"/>
    <path d="m360.57 798.89c4.14-6.69 7.69-13.98 13.37-19.53 4.18 1.76 7.98 4.68 10.49 8.49 1.84 2.78 1.27 6.19 0.91 9.3-1.67 3.52-3.45 7.11-6.45 9.7-2.16 1.79-4.12 4.26-7.09 4.58-4.17-2.26-6.97-6.39-11.42-8.22-0.33-1.46-0.23-2.92 0.19-4.32z"/>
    <path d="m454.88 798.8c3.05-4.05 5.4-9.07 9.23-12.28 4.84 1.91 9.99 4.98 12.17 10.01 1.52 4.25-0.48 8.59-2.02 12.52-1.34 1.72-2.7 3.44-4.01 5.2-1.72 1.4-3.43 2.82-5.05 4.34-3.67-0.81-6.35-3.72-9.63-5.37-1.99-1.49-4.84-1.99-6.25-4.09 0.32-4.07 3.83-6.83 5.56-10.33z"/>
    <path d="m137.54 807.51c2.29-3.14 4.26-6.6 7.34-9.05 5.14 2.78 10.91 6.31 12.29 12.46 0.67 4.17-0.87 8.5-3.31 11.88-0.99 1.04-2.03 2.04-3.12 3-2.11 2.06-4.66 3.6-7.43 4.6-4.51-2.26-8.04-5.98-12.53-8.26-0.18-0.5-0.54-1.51-0.73-2.02 1.89-4.54 4.89-8.48 7.49-12.61z"/>
    <path d="m376.92 820.04c2.62-3.57 4.74-7.58 7.93-10.68 3.37 0.29 6.11 3.09 8.7 5.15 3.51 2.87 5.08 7.98 3.26 12.23-2.23 5.55-6.43 10.69-12 13.07-4.46 0.38-7.12-4.15-10.63-6.18-2.98-0.76-4 2.23-5.42 4.13-2.72 3.47-6.44 7.93-11.38 6.96-3.47-1.69-5.94-5.01-9.6-6.46-2.42-1.16-1.36-4.08-0.13-5.76 3.95-6.14 7.96-12.27 12.37-18.09 0.46-0.02 1.39-0.04 1.85-0.06 4.4 2.39 7.91 5.94 11.09 9.72 2.01-0.38 2.78-2.61 3.96-4.03z"/>
    <path d="m90.79 842.29c8.14 3.6 15.96 10.31 16.95 19.68 1.09 9.8-1.99 19.65-6.08 28.47-2.05 4.19-3.66 8.8-7.12 12.09-3.41 3.84-8.13 6.02-12.69 8.15-4.82 2.11-9.64 4.22-14.54 6.12 0.11-1.29-0.32-2.84 0.79-3.8 7.09-8.59 17.67-13.44 24.67-22.09 4.29-5.77-0.25-12.91-4.47-17.25-2.65-3.21-7.1977-4.7378-10.198-7.4478 2.8922-7.457 7.7164-17.7 12.688-23.922z"/>
    <path d="m165.36 862.53c1.47-0.19 0.93 1.44 0.94 2.35-1.44 8.38-3.2 17.07-8.25 24.12-1.97 2.38-4.28 4.66-7.23 5.76-4.71 3.25-10.18 5.71-13.73 10.38-3.9 6.68-6.04 14.21-8.83 21.4-2.85 6.5-7.04 13.39-14.14 15.8-7.12 2.34-14.58 4.02-22.08 4.17-2.4-0.02-1.48-2.84-0.33-3.86 4.21-4.58 9.92-7.3 14.96-10.82 6-3.89 11.84-8.15 16.8-13.32 2.66-2.66 3.87-6.28 5.85-9.38 3.23-8.92 6.45-18.35 13.13-25.35 4.89-4.77 11.05-7.91 16.41-12.09 3.09-2.3 4.41-6.08 6.5-9.16z"/>
    <path d="m524.06 873.24c7.39 3.19 13.17 10.11 15.31 17.85 2.61 10.45-1.81 20.88-6.4 30.09-3 5.36-5.67 11.27-10.8 14.97-3.21 2.87-7.35 4.26-11.29 5.81-4.13 1.88-8.46 3.23-12.72 4.76 0.64-2.53 2.74-4.24 4.57-5.94 6.04-4.96 12.22-9.77 18.09-14.93 2.73-3.05 6.55-6.21 5.83-10.8 0.1-4.14-2.48-7.64-5.57-10.11-2.66-2.68-6.1954-5.3754-9.3654-7.3954 1.8843-6.3421 8.718-18.239 12.345-24.305z"/>
    <path d="m173.83 890.48c5.83-0.77 11.53 2.17 15.66 6.1 5.68 7.53 6.18 17.69 3.91 26.57-2.03 9.45-6.15 19.2-14.14 25.11-5.08 3.84-12.48 4.12-17.56 0.1-5.23-6.15-2.83-14.89-0.27-21.68 0.95-3.41 3.69-6.22 4.22-9.64-2.23-2.42-1.02-5.61 0.14-8.18 2.54-6.18 4.82-12.5 8.04-18.38m-4.09 27c-3.48 3.66-6.85 8.34-6.07 13.68 3.67 6.98 13.47 7.18 19.18 2.7 2.31-2.39 2.87-6.44 0.32-8.87-3.43-3.75-7.87-8.42-13.43-7.51z"/>
    <path d="m142.62 967.54c0.65-0.68 1.61-0.81 2.45-1.09 3.84 3.09 8.36 5.8 10.36 10.56 1.21 4.62-0.07 9.65-3.18 13.25-0.69 0.62-1.37 1.26-2.03 1.92-3.19 3.16-8.76 7.99-12.86 3.51-0.83-0.87-1.67-1.69-2.54-2.48-1.42-1.33-3.02-2.43-4.6-3.54-0.45-0.02-1.36-0.06-1.81-0.08-4.01 4.06-7.95 8.38-13.31 10.69-0.89 0.07-1.77 0.16-2.65 0.26-2.98-3.73-6.58-6.9-10.57-9.49-1.91-2.11 0.55-4.71 1.71-6.52 4.3-5.49 8.25-11.49 13.59-15.98 2.66 0.73 4.51 3.11 6.75 4.63 2.67 1.75 3.71 4.85 5.56 7.3 1.05 0.12 1.81-0.81 2.69-1.2 3.33-4.04 6.53-8.23 10.44-11.74z"/>
    <path d="m285.46 802.4c6.42-10.2 13.64-19.87 21.06-29.35-1.16 5.46-3.85 10.44-6.71 15.19-6.37 10.24-13.23 20.25-21.69 28.9-3.36 4.55-8.1 7.93-10.93 12.87 0.32-1.17 0.58-2.37 1.32-3.35 5.66-8.08 11.38-16.12 16.95-24.26z"/>
    <path d="m469.61 906.8c3.36-7.62 6.6185-12.955 11.039-19.975 0.86327-0.51163 1.6459-0.32398 1.5823 0.92994-4.097 5.6318-3.6815 33.326-7.4808 47.385-2.59 11.27-8.67 21.27-15.1 30.71 0.16-5.07 2.33-9.78 3.24-14.72 1.76-8.92 2.34-18.02 2.93-27.08 0.8-5.82 1.09-11.92 3.79-17.25z"/>
  </g>
</svg>
