<svg viewBox="0 0 588 1039" xmlns="http://www.w3.org/2000/svg">
  <path d="m152.9 103.47c-17.341 14.68-33.911 30.409-48.191 48.119-16.84 20.889-30.49 45.34-34.231 72.239-1.58 9.61-1.0593 19.37-1.1294 29.07l0.0205 303.4c9.5303-0.37 19.08 0.011 28.61-0.359 9.8302-0.01 19.85-0.78 29.42 1.94 19.82 5.31 35.87 20.211 46.2 37.53 18.23 32.74 36.35 65.529 54.38 98.378l153.62 0.055c18.304-31.7 37.143-66.565 52.642-94.62 5.01-9.48 11.681-18.092 19.641-25.262 11.96-10.95 27.75-18.22 44.13-18.12 14.22 0.12 28.43 0.22 42.65 0.46 0.3-105.43-0.081-210.88 0.019-316.32 0.12-23.92-7.959-47.29-20.509-67.45-20.49-32.85-49.901-58.819-79.86-82.808-19.858-15.668-36.809-30.373-58.811-45.57 0 0-150.93-0.0621-151.72-0.0308-27.663 18.522-54.713 41.081-76.875 59.352zm133.28-29.68c-23.06 18.52-47.64 35.092-70.22 54.2-7.36 6.261-14.51 12.789-20.9 20.05-7.641 8.679-12.741 19.27-16.791 30.02-9.069 25.62-6.43 53.26-5.66 79.897-0.17 97.898-0.24 195.82-0.46 293.72 15.63-0.12 31.271 9e-3 46.91-0.071 2.83-0.13 5.561 0.86 8.031 2.17 6.97 3.76 12.99 8.97 18.7 14.38 17.59 17.13 32.469 36.759 47.029 56.45-11.73 16.13-23.309 32.381-34.749 48.731-6.17 0.06-12.35-0.09-18.52 0.09l-45.83-82.8c-6.22-11.67-14.1-22.56-23.84-31.55-11.43-10.39-25.269-18.409-40.41-21.829-13.34-3.16-27.12-1.49-40.67-1.79 0.18-99.142-0.0402-198.28 0.2798-297.41 0.22-25.35 11.305-50.256 32.21-75.09 20.11-26.16 52.829-50.97 84.503-76.193 8.24-6.4101 16.57-12.71 24.99-18.89 1.872-1.3359 3.768-3.1814 5.132-3.2557 17.916-0.0981 35.569 3.7088 50.268 9.1665zm88.703-8.9505c21.549 15.28 42.07 31.94 62.56 48.59 19.38 15.88 38.05 32.9 53.7 52.54 15.94 20 28.831 43.931 29.731 70.001 0.24 99.84 0.29 199.68 0.28 299.52-14.01 0.249-28.291-1.46-42.031 2.04-19.47 4.93-36.659 17.021-49.25 32.49-5.92 7.08-10.7 15.029-15 23.17-14.81 26.75-29.679 53.45-44.37 80.257-29.319-0.21-58.65-0.09-87.967-0.14 21.53-30.471 43.379-60.78 67.639-89.153 7.701-8.94 15.691-17.701 24.661-25.4 3.48-2.65 6.91-5.85 11.21-7.04 15.79-0.16 31.61-0.13 47.41-0.01l-0.28-257.73c0.17-17.331-0.491-34.671 0.539-51.981 0.65-22.02 1.011-44.799-6.939-65.729-4.25-10.69-9.51-21.311-17.68-29.581-10.58-11.12-22.469-20.879-34.359-30.549-20.83-16.77-66.134-50.564-67.181-51.3zm-72.1 21.61c22.65 17.27 45.64 34.128 67.66 52.23 9.879 8.39 19.999 16.681 28.309 26.691 7.68 10.8 12.5 23.56 14.261 36.679 2.319 17.88 1.12 35.94 0.42 53.88l0.19 275.26c-9.549-0.1-19.111-0.031-28.661-0.031-8.27 0.37-15.019 5.82-21.329 10.609-22.37 19.29-40.16 43.11-58.391 66.171-10.59-14.64-21.84-28.819-33.87-42.309-10.34-10.96-20.97-22.05-34.2-29.55-5.29-2.72-11.03-5.18-17.1-4.95-9.4 0.04-18.8-0.01-28.2 0l0.42-273.11c-0.53-22.99-3.171-46.611 3.21-69.071 3.47-11.1 8.78-21.93 17.019-30.29 6.59-7.14 14.211-13.21 21.601-19.48 22.48-18.11 46.241-34.57 68.66-52.73z"/>
  <path d="m291.18 810.8c10.82-13.06 20.53-27.06 29.21-41.6 0.36 4.75-2.5 8.93-3.89 13.33-1.56 4.9-4.34 9.41-5.14 14.54-1.48 1.92-2.81 3.95-4.01 6.07-3.93 6.99-9.84 12.56-14.19 19.27-9.75 12.18-18.82 24.91-28.86 36.86-6.9 9.05-13.78 18.11-20.71 27.14-1.07 1.13-1.56 2.56-1.54 4.12 13.88-1.08 26.48 5.87 39.85 8.16 10.54 2.61 21.4 3.46 32.18 4.56 20.27 0.98 40.73 0.53 60.7-3.34 17.8-2.9 35.57-6.83 52.32-13.63 16.19-6.59 31.9-14.49 46.07-24.79 10.06-7.62 20.45-15.34 27.78-25.78 3.82-5.05 4.31-11.67 7.71-16.96 3.32-5.37 6.52-10.87 10.32-15.92l0.71 0.54c-0.11 2.49-1.09 4.83-1.91 7.16-3.07 8.23-4.86 16.97-9.28 24.65-2.76 6.28-7.14 11.6-11.21 17.06-0.86 0.8-1.69 1.64-2.49 2.5-8.52 10.49-18.99 19.21-29.56 27.54-42.67 30.97-95.49 48.07-148.27 46.81-13.12-0.48-26.33-1.31-39.06-4.84-4.5967-1.7526-8.2317-4.087-11.99-6.57-0.68 0.39-1.35 0.78-2.02 1.2-2.06 12.61-7.33 25.38-17.08 33.97-5.2 3.23-11.68 5.35-17.65 2.96-6.19-2.3-9.28-8.82-10.58-14.88-1.92-10.19-0.81-20.6-0.9-30.89 1.58-18.04 2.31-36.17 4.83-54.13 0.81-9.49 3.17-18.74 6.16-27.75 0.72904-2.5592 2.7458-12.112 3.8216-12.737 0 0 0.73446 7.402 0.57843 8.4771-0.76 6.02-0.28 12.13-1.3 18.13-1.41 8.59-1.16 17.33-2.13 25.97-0.09 7.42-1.96 14.78-1.09 22.2 3.94-3.73 6.63-8.52 10.02-12.71 8.07-10.24 16.53-20.17 24.2-30.71 9.13-12.27 19.2-23.77 28.4-35.98m-62.63 94.89c-3.24 2.88-2.13 7.62-1.92 11.42 0.81 8.25 9.29 14.48 17.39 13.43 3.9 0.16 7.16-2.14 10.26-4.18 3.71-4.02 6.26-9.81 4.72-15.29-1.45-4.95-6.23-7.8-10.85-9.29-6.67-1.03-14.39-1.04-19.6 3.91z"/>
  <path d="m360.57 798.89c4.14-6.69 7.69-13.98 13.37-19.53 4.18 1.76 7.98 4.68 10.49 8.49 1.84 2.78 1.27 6.19 0.91 9.3-1.67 3.52-3.45 7.11-6.45 9.7-2.16 1.79-4.12 4.26-7.09 4.58-4.17-2.26-6.97-6.39-11.42-8.22-0.33-1.46-0.23-2.92 0.19-4.32z"/>
  <path d="m454.88 798.8c3.05-4.05 5.4-9.07 9.23-12.28 4.84 1.91 9.99 4.98 12.17 10.01 1.52 4.25-0.48 8.59-2.02 12.52-1.34 1.72-2.7 3.44-4.01 5.2-1.72 1.4-3.43 2.82-5.05 4.34-3.67-0.81-6.35-3.72-9.63-5.37-1.99-1.49-4.84-1.99-6.25-4.09 0.32-4.07 3.83-6.83 5.56-10.33z"/>
  <path d="m137.54 807.51c2.29-3.14 4.26-6.6 7.34-9.05 5.14 2.78 10.91 6.31 12.29 12.46 0.67 4.17-0.87 8.5-3.31 11.88-0.99 1.04-2.03 2.04-3.12 3-2.11 2.06-4.66 3.6-7.43 4.6-4.51-2.26-8.04-5.98-12.53-8.26-0.18-0.5-0.54-1.51-0.73-2.02 1.89-4.54 4.89-8.48 7.49-12.61z"/>
  <path d="m376.92 820.04c2.62-3.57 4.74-7.58 7.93-10.68 3.37 0.29 6.11 3.09 8.7 5.15 3.51 2.87 5.08 7.98 3.26 12.23-2.23 5.55-6.43 10.69-12 13.07-4.46 0.38-7.12-4.15-10.63-6.18-2.98-0.76-4 2.23-5.42 4.13-2.72 3.47-6.44 7.93-11.38 6.96-3.47-1.69-5.94-5.01-9.6-6.46-2.42-1.16-1.36-4.08-0.13-5.76 3.95-6.14 7.96-12.27 12.37-18.09 0.46-0.02 1.39-0.04 1.85-0.06 4.4 2.39 7.91 5.94 11.09 9.72 2.01-0.38 2.78-2.61 3.96-4.03z"/>
  <path d="m90.79 842.29c8.14 3.6 15.96 10.31 16.95 19.68 1.09 9.8-1.99 19.65-6.08 28.47-2.05 4.19-3.66 8.8-7.12 12.09-3.41 3.84-8.13 6.02-12.69 8.15-4.82 2.11-9.64 4.22-14.54 6.12 0.11-1.29-0.32-2.84 0.79-3.8 7.09-8.59 17.67-13.44 24.67-22.09 4.29-5.77-0.25-12.91-4.47-17.25-2.65-3.21-7.1977-4.7378-10.198-7.4478 2.8922-7.457 7.7164-17.7 12.688-23.922z"/>
  <path d="m165.36 862.53c1.47-0.19 0.93 1.44 0.94 2.35-1.44 8.38-3.2 17.07-8.25 24.12-1.97 2.38-4.28 4.66-7.23 5.76-4.71 3.25-10.18 5.71-13.73 10.38-3.9 6.68-6.04 14.21-8.83 21.4-2.85 6.5-7.04 13.39-14.14 15.8-7.12 2.34-14.58 4.02-22.08 4.17-2.4-0.02-1.48-2.84-0.33-3.86 4.21-4.58 9.92-7.3 14.96-10.82 6-3.89 11.84-8.15 16.8-13.32 2.66-2.66 3.87-6.28 5.85-9.38 3.23-8.92 6.45-18.35 13.13-25.35 4.89-4.77 11.05-7.91 16.41-12.09 3.09-2.3 4.41-6.08 6.5-9.16z"/>
  <path d="m524.06 873.24c7.39 3.19 13.17 10.11 15.31 17.85 2.61 10.45-1.81 20.88-6.4 30.09-3 5.36-5.67 11.27-10.8 14.97-3.21 2.87-7.35 4.26-11.29 5.81-4.13 1.88-8.46 3.23-12.72 4.76 0.64-2.53 2.74-4.24 4.57-5.94 6.04-4.96 12.22-9.77 18.09-14.93 2.73-3.05 6.55-6.21 5.83-10.8 0.1-4.14-2.48-7.64-5.57-10.11-2.66-2.68-6.1954-5.3754-9.3654-7.3954 1.8843-6.3421 8.718-18.239 12.345-24.305z"/>
  <path d="m173.83 890.48c5.83-0.77 11.53 2.17 15.66 6.1 5.68 7.53 6.18 17.69 3.91 26.57-2.03 9.45-6.15 19.2-14.14 25.11-5.08 3.84-12.48 4.12-17.56 0.1-5.23-6.15-2.83-14.89-0.27-21.68 0.95-3.41 3.69-6.22 4.22-9.64-2.23-2.42-1.02-5.61 0.14-8.18 2.54-6.18 4.82-12.5 8.04-18.38m-4.09 27c-3.48 3.66-6.85 8.34-6.07 13.68 3.67 6.98 13.47 7.18 19.18 2.7 2.31-2.39 2.87-6.44 0.32-8.87-3.43-3.75-7.87-8.42-13.43-7.51z"/>
  <path d="m142.62 967.54c0.65-0.68 1.61-0.81 2.45-1.09 3.84 3.09 8.36 5.8 10.36 10.56 1.21 4.62-0.07 9.65-3.18 13.25-0.69 0.62-1.37 1.26-2.03 1.92-3.19 3.16-8.76 7.99-12.86 3.51-0.83-0.87-1.67-1.69-2.54-2.48-1.42-1.33-3.02-2.43-4.6-3.54-0.45-0.02-1.36-0.06-1.81-0.08-4.01 4.06-7.95 8.38-13.31 10.69-0.89 0.07-1.77 0.16-2.65 0.26-2.98-3.73-6.58-6.9-10.57-9.49-1.91-2.11 0.55-4.71 1.71-6.52 4.3-5.49 8.25-11.49 13.59-15.98 2.66 0.73 4.51 3.11 6.75 4.63 2.67 1.75 3.71 4.85 5.56 7.3 1.05 0.12 1.81-0.81 2.69-1.2 3.33-4.04 6.53-8.23 10.44-11.74z"/>
  <path d="m285.46 802.4c6.42-10.2 13.64-19.87 21.06-29.35-1.16 5.46-3.85 10.44-6.71 15.19-6.37 10.24-13.23 20.25-21.69 28.9-3.36 4.55-8.1 7.93-10.93 12.87 0.32-1.17 0.58-2.37 1.32-3.35 5.66-8.08 11.38-16.12 16.95-24.26z"/>
  <path d="m469.61 906.8c3.36-7.62 6.6185-12.955 11.039-19.975 0.86327-0.51163 1.6459-0.32398 1.5823 0.92994-4.097 5.6318-3.6815 33.326-7.4808 47.385-2.59 11.27-8.67 21.27-15.1 30.71 0.16-5.07 2.33-9.78 3.24-14.72 1.76-8.92 2.34-18.02 2.93-27.08 0.8-5.82 1.09-11.92 3.79-17.25z"/>
</svg>
