<svg viewBox="0 0 128 128" xmlns="http://www.w3.org/2000/svg">
  <linearGradient id="g1" x1="72.494957" x2="48.113331" y1="69.496056" y2="45.600719" gradientUnits="userSpaceOnUse">
    <stop stop-color="#ff210c" offset="0"/>
    <stop stop-color="#f54905" offset="1"/>
  </linearGradient>
  <path fill="none" stroke="url(#g1)" stroke-width="6" stroke-linejoin="round" stroke-linecap="round" d="m80.151457 69.493458c0-5.522847 4.477153-10 10-10 5.522847 1e-6 10.000003 4.477153 10.000003 10s-4.477156 9.999999-10.000003 10c-5.522847 0-10-4.477153-10-10l-7.656499 0.0026c0 21.410869-9.767594 30.745792-17.844977 30.654852-19.426491 0-16.777341-41.282452-4.12631-41.282452 10.053613 0 7.925861 21.25-7.056656 21.25-22.682994 0-21.766135-52.270028 10.120878-52.270028 6.943442 0 18.907065 5.161831 18.907065 24.917011"/>
  <circle r="6" fill="#f50000" cx="72.494957" cy="52.765438"/>
</svg>
