<?xml version="1.0" encoding="UTF-8" standalone="no"?>
<!-- Created with Inkscape (http://www.inkscape.org/) -->
<svg id="svg2" xmlns:rdf="http://www.w3.org/1999/02/22-rdf-syntax-ns#" xmlns="http://www.w3.org/2000/svg" height="967" width="1157" version="1.0" xmlns:cc="http://creativecommons.org/ns#" xmlns:xlink="http://www.w3.org/1999/xlink" xmlns:dc="http://purl.org/dc/elements/1.1/">
 <metadata id="metadata7">
  <rdf:RDF>
   <cc:Work rdf:about="">
    <dc:format>image/svg+xml</dc:format>
    <dc:type rdf:resource="http://purl.org/dc/dcmitype/StillImage"/>
   </cc:Work>
  </rdf:RDF>
 </metadata>
 <defs id="defs5">
  <linearGradient id="linearGradient5424">
   <stop id="stop5426" stop-color="#df7913" offset="0"/>
   <stop id="stop5428" stop-color="#9d3f0d" offset="1"/>
  </linearGradient>
  <linearGradient id="linearGradient4337">
   <stop id="stop4339" stop-color="#62c4a0" offset="0"/>
   <stop id="stop4341" stop-color="#389774" offset="1"/>
  </linearGradient>
  <linearGradient id="linearGradient4210">
   <stop id="stop4212" stop-color="#26aaac" offset="0"/>
   <stop id="stop4214" stop-color="#0e4242" offset="1"/>
  </linearGradient>
  <linearGradient id="linearGradient3591">
   <stop id="stop3593" stop-color="#fefef4" offset="0"/>
   <stop id="stop3595" stop-color="#fbfa93" offset="1"/>
  </linearGradient>
  <linearGradient id="linearGradient3325">
   <stop id="stop3327" stop-color="#891799" offset="0"/>
   <stop id="stop3333" stop-color="#e0afd8" offset=".29940"/>
   <stop id="stop3329" stop-color="#891799" offset="1"/>
  </linearGradient>
  <linearGradient id="linearGradient3262">
   <stop id="stop3264" stop-color="#ff2a2a" offset="0"/>
   <stop id="stop3266" stop-color="#2a7fff" offset="1"/>
  </linearGradient>
  <linearGradient id="linearGradient3244">
   <stop id="stop3246" stop-color="#fff079" offset="0"/>
   <stop id="stop3248" stop-color="#e48821" offset="1"/>
  </linearGradient>
  <linearGradient id="linearGradient6278" y2="-189" gradientUnits="userSpaceOnUse" x2="274" gradientTransform="matrix(.72859 0 0 .66598 378.87 125.87)" y1="255.49" x1="274">
   <stop id="stop5740" stop-color="#6cb0f0" offset="0"/>
   <stop id="stop5742" stop-color="#c2e3f9" offset="1"/>
  </linearGradient>
  <linearGradient id="linearGradient6280" y2="411" gradientUnits="userSpaceOnUse" x2="949.96" y1="562.32" x1="1120.1">
   <stop id="stop5730" stop-color="#29ae0b" offset="0"/>
   <stop id="stop5732" stop-color="#65ae0b" offset="1"/>
  </linearGradient>
  <linearGradient id="linearGradient6282" y2="485.63" gradientUnits="userSpaceOnUse" x2="996.62" y1="697.76" x1="1117">
   <stop id="stop5722" stop-color="#086e0d" offset="0"/>
   <stop id="stop5724" stop-color="#04a42c" offset="1"/>
  </linearGradient>
  <linearGradient id="linearGradient6284" y2="428.58" xlink:href="#linearGradient5424" gradientUnits="userSpaceOnUse" x2="1006.2" gradientTransform="translate(-640.96 -115)" y1="205.7" x1="1006.2"/>
  <linearGradient id="linearGradient6286" y2="124.53" xlink:href="#linearGradient5424" gradientUnits="userSpaceOnUse" x2="849.74" gradientTransform="translate(-640.96 -115)" y1="8.5664" x1="797.12"/>
  <linearGradient id="linearGradient6288" y2="180.39" xlink:href="#linearGradient5424" gradientUnits="userSpaceOnUse" x2="920.45" gradientTransform="translate(-640.96 -115)" y1="120.64" x1="885.86"/>
  <linearGradient id="linearGradient6290" y2="215.9" xlink:href="#linearGradient5424" gradientUnits="userSpaceOnUse" x2="1005.7" gradientTransform="translate(-640.96 -115)" y1="172.97" x1="913.08"/>
  <linearGradient id="linearGradient6292" y2="586.12" gradientUnits="userSpaceOnUse" x2="1181.1" y1="586.12" x1="1074">
   <stop id="stop3814" stop-color="#0d330b" offset="0"/>
   <stop id="stop3828" stop-color="#06b449" offset="0.6"/>
   <stop id="stop3816" stop-color="#0d340c" offset="1"/>
  </linearGradient>
  <radialGradient id="radialGradient6294" fy="426.08" gradientUnits="userSpaceOnUse" cy="465.5" cx="1127.5" gradientTransform="matrix(1 0 0 .44393 0 258.85)" r="53.5">
   <stop id="stop3795" stop-color="#fff" offset="0"/>
   <stop id="stop3797" stop-color="#19c373" offset="1"/>
  </radialGradient>
  <linearGradient id="linearGradient6296" y2="806.45" xlink:href="#linearGradient5424" gradientUnits="userSpaceOnUse" x2="1438.9" gradientTransform="translate(-640.96 -115)" y1="900.95" x1="1559.4"/>
  <linearGradient id="linearGradient6298" y2="787.36" xlink:href="#linearGradient5424" gradientUnits="userSpaceOnUse" x2="1413.6" gradientTransform="translate(-640.96 -115)" y1="830.36" x1="1449.9"/>
  <linearGradient id="linearGradient6300" y2="837.12" xlink:href="#linearGradient5424" gradientUnits="userSpaceOnUse" x2="1656.9" gradientTransform="translate(-640.96 -115)" y1="839.95" x1="1795.8"/>
  <linearGradient id="linearGradient6302" y2="844.72" xlink:href="#linearGradient5424" gradientUnits="userSpaceOnUse" x2="1785.6" gradientTransform="translate(-640.96 -115)" y1="866.29" x1="1811.5"/>
  <linearGradient id="linearGradient6304" y2="890.19" xlink:href="#linearGradient3262" gradientUnits="userSpaceOnUse" x2="759.4" y1="790.5" x1="1017.4"/>
  <linearGradient id="linearGradient6306" y2="554.86" xlink:href="#linearGradient3591" gradientUnits="userSpaceOnUse" x2="1283.2" gradientTransform="matrix(.52601 -1.2475 .91108 .72024 96.716 1776.7)" y1="508.02" x1="1292.8"/>
  <linearGradient id="linearGradient6308" y2="531.09" xlink:href="#linearGradient3591" gradientUnits="userSpaceOnUse" x2="1270.1" gradientTransform="matrix(-.52601 -1.2475 .91108 -.72024 1447.7 2591.9)" y1="538.71" x1="1294.5"/>
  <linearGradient id="linearGradient6310" y2="510.28" xlink:href="#linearGradient3591" gradientUnits="userSpaceOnUse" x2="1272.4" gradientTransform="matrix(-1.052 3.1389e-8 -2.2924e-8 -1.4405 2639.4 1397.9)" y1="560.04" x1="1289.4"/>
  <linearGradient id="linearGradient6312" y2="695.88" xlink:href="#linearGradient3325" gradientUnits="userSpaceOnUse" x2="2073.7" y1="628.65" x1="2050.8"/>
  <linearGradient id="linearGradient6318" y2="504.21" xlink:href="#linearGradient3591" gradientUnits="userSpaceOnUse" x2="1285.6" gradientTransform="matrix(-.52601 1.2475 -.91108 -.72024 2480 -612.13)" y1="557.53" x1="1283.7"/>
  <linearGradient id="linearGradient6320" y2="529.74" xlink:href="#linearGradient3591" gradientUnits="userSpaceOnUse" x2="1297.7" gradientTransform="matrix(.52601 1.2475 -.91108 .72024 1127.2 -1427.7)" y1="537.21" x1="1268.6"/>
  <linearGradient id="linearGradient6322" y2="558.38" xlink:href="#linearGradient3591" gradientUnits="userSpaceOnUse" x2="1292.9" gradientTransform="matrix(1.052 0 0 1.4405 -64.054 -233.31)" y1="512.54" x1="1270.2"/>
  <linearGradient id="linearGradient6324" y2="664.98" xlink:href="#linearGradient4337" gradientUnits="userSpaceOnUse" x2="966.45" gradientTransform="translate(9.1334 -27.661)" y1="647.63" x1="966.45"/>
  <linearGradient id="linearGradient6326" y2="664.98" xlink:href="#linearGradient4337" gradientUnits="userSpaceOnUse" x2="966.45" gradientTransform="translate(2.3486 -13.309)" y1="647.63" x1="966.45"/>
  <linearGradient id="linearGradient6328" y2="664.98" xlink:href="#linearGradient4337" gradientUnits="userSpaceOnUse" x2="966.45" gradientTransform="translate(-1.0438 .78287)" y1="647.63" x1="966.45"/>
  <linearGradient id="linearGradient6330" y2="685.86" xlink:href="#linearGradient4337" gradientUnits="userSpaceOnUse" x2="965.01" y1="664.85" x1="963.19"/>
  <linearGradient id="linearGradient6332" y2="702.95" xlink:href="#linearGradient4337" gradientUnits="userSpaceOnUse" x2="963.71" y1="679.99" x1="961.1"/>
  <linearGradient id="linearGradient6334" y2="622.32" xlink:href="#linearGradient4210" gradientUnits="userSpaceOnUse" x2="1032.1" y1="598.05" x1="1009.4"/>
  <linearGradient id="linearGradient6336" y2="648.41" xlink:href="#linearGradient4210" gradientUnits="userSpaceOnUse" x2="1069.9" y1="600.14" x1="1012.5"/>
  <linearGradient id="linearGradient6338" y2="641.45" xlink:href="#linearGradient4210" gradientUnits="userSpaceOnUse" x2="1065.3" y1="600.67" x1="1035.9"/>
  <linearGradient id="linearGradient6340" y2="648.55" xlink:href="#linearGradient4210" gradientUnits="userSpaceOnUse" x2="1081.2" y1="608.75" x1="1051.1"/>
  <linearGradient id="linearGradient6342" y2="647.37" xlink:href="#linearGradient4210" gradientUnits="userSpaceOnUse" x2="1074.1" y1="624.67" x1="1064.5"/>
  <linearGradient id="linearGradient6344" y2="662.38" xlink:href="#linearGradient4210" gradientUnits="userSpaceOnUse" x2="1087.4" y1="642.45" x1="1080.3"/>
  <linearGradient id="linearGradient6346" y2="682.65" xlink:href="#linearGradient4210" gradientUnits="userSpaceOnUse" x2="1092" y1="660.88" x1="1087.3"/>
  <linearGradient id="linearGradient6348" y2="707.77" xlink:href="#linearGradient4210" gradientUnits="userSpaceOnUse" x2="1094.2" y1="681.38" x1="1093.6"/>
  <linearGradient id="linearGradient6350" y2="729.64" xlink:href="#linearGradient4210" gradientUnits="userSpaceOnUse" x2="1098.3" y1="703.07" x1="1093.7"/>
  <linearGradient id="linearGradient6352" y2="743.2" xlink:href="#linearGradient4210" gradientUnits="userSpaceOnUse" x2="1088.3" y1="724.01" x1="1087.6"/>
  <linearGradient id="linearGradient6354" y2="749.34" xlink:href="#linearGradient4210" gradientUnits="userSpaceOnUse" x2="1084.9" y1="737.35" x1="1081.8"/>
  <linearGradient id="linearGradient6356" y2="719.26" xlink:href="#linearGradient4337" gradientUnits="userSpaceOnUse" x2="975.97" y1="697.86" x1="966.97"/>
  <linearGradient id="linearGradient6358" y2="733.48" xlink:href="#linearGradient4337" gradientUnits="userSpaceOnUse" x2="987.98" y1="713.91" x1="977.28"/>
  <linearGradient id="linearGradient6360" y2="746.79" xlink:href="#linearGradient4337" gradientUnits="userSpaceOnUse" x2="996.59" y1="727.48" x1="986.15"/>
  <linearGradient id="linearGradient6362" y2="756.84" xlink:href="#linearGradient4337" gradientUnits="userSpaceOnUse" x2="1013" y1="741.7" x1="1001.5"/>
  <linearGradient id="linearGradient6364" y2="762.97" xlink:href="#linearGradient4337" gradientUnits="userSpaceOnUse" x2="1028.2" y1="749.4" x1="1018.2"/>
  <linearGradient id="linearGradient6366" y2="758.31" xlink:href="#linearGradient4210" gradientUnits="userSpaceOnUse" x2="1070.1" gradientTransform="translate(-2.3988 2.0298)" y1="751.79" x1="1067.7"/>
  <linearGradient id="linearGradient6368" y2="680.36" xlink:href="#linearGradient3262" gradientUnits="userSpaceOnUse" x2="729.39" y1="575.76" x1="1018.7"/>
  <linearGradient id="linearGradient6370" y2="524.15" gradientUnits="userSpaceOnUse" x2="997.82" y1="449.91" x1="816.96">
   <stop id="stop3226" stop-color="#e7831c" offset="0"/>
   <stop id="stop3228" stop-color="#a13c0e" offset="1"/>
  </linearGradient>
  <linearGradient id="linearGradient6372" y2="504.34" xlink:href="#linearGradient3244" gradientUnits="userSpaceOnUse" x2="893.44" y1="472.34" x1="819.39"/>
  <linearGradient id="linearGradient6374" y2="567.97" xlink:href="#linearGradient3244" gradientUnits="userSpaceOnUse" x2="889.44" y1="504.47" x1="889.44"/>
  <linearGradient id="linearGradient6376" y2="504.34" xlink:href="#linearGradient3244" gradientUnits="userSpaceOnUse" x2="893.44" gradientTransform="matrix(.62750 0 0 .62750 315.61 192.82)" y1="472.34" x1="819.39"/>
  <linearGradient id="linearGradient6378" y2="514.75" gradientUnits="userSpaceOnUse" x2="875.75" y1="493.8" x1="825.73">
   <stop id="stop3310" stop-color="#ff2a2a" offset="0"/>
   <stop id="stop3312" stop-color="#11aff7" offset="1"/>
  </linearGradient>
  <linearGradient id="linearGradient6380" y2="518.61" xlink:href="#linearGradient3244" gradientUnits="userSpaceOnUse" x2="878.01" y1="509.37" x1="878.01"/>
  <linearGradient id="linearGradient6382" y2="680.36" xlink:href="#linearGradient3262" gradientUnits="userSpaceOnUse" x2="729.39" gradientTransform="translate(.0011971 .015809)" y1="575.76" x1="1018.7"/>
  <filter id="filter3911">
   <feGaussianBlur id="feGaussianBlur3913" stdDeviation="0.87027142"/>
  </filter>
  <filter id="filter4251" height="1.4179" width="2.0635" y="-.20894" x="-.53175">
   <feGaussianBlur id="feGaussianBlur4253" stdDeviation="0.96580138"/>
  </filter>
  <filter id="filter4968">
   <feGaussianBlur id="feGaussianBlur4970" stdDeviation="1.1573912"/>
  </filter>
  <filter id="filter3975">
   <feGaussianBlur id="feGaussianBlur3977" stdDeviation="0.55895459"/>
  </filter>
  <filter id="filter4019">
   <feGaussianBlur id="feGaussianBlur4021" stdDeviation="0.33671885"/>
  </filter>
  <linearGradient id="linearGradient3858" y2="535.25" gradientUnits="userSpaceOnUse" x2="848.92" y1="516.06" x1="807.47">
   <stop id="stop3868" stop-color="#ff2a2a" offset="0"/>
   <stop id="stop3896" stop-color="#6d6cf8" offset="1"/>
  </linearGradient>
  <linearGradient id="linearGradient3906" y2="620.79" xlink:href="#linearGradient3325" spreadMethod="reflect" gradientUnits="userSpaceOnUse" x2="1209.7" y1="608.51" x1="1204.9"/>
 </defs>
 <text id="text5832" xml:space="preserve" font-size="24px" y="117.00135" x="930" font-family="Bitstream Vera Sans" fill="#000000"><tspan id="tspan5834" x="930" y="117.00135"/></text>
 <g id="g5819">
  <rect id="rect5736" height="967" width="1157" y=".00067139" x="0" fill="url(#linearGradient6278)"/>
  <path id="path5718" d="m1135.3 260.88c-11.1 0.33-13.9 16.49-11.9 24.46 0.9 3.44-27.9-9.9-31.1-9.9-21.4 0-28.4 17.17-36.8 33.97-0.9 1.88-1.9 3.77-2.8 5.65-4.5 8.89-1.6 16.29-8.5 25.44-5.4 7.28 11.9 16.66 14.1 21.22 4.8 9.46-0.6 16.18-7 22.62-6.2 6.23-19.1-1.8-24.1-4.25-11.7-5.86-7.2-5.51-18.4 2.85-7.8 5.89-19.74 18.29-19.74 26.87 0 2.74-25.11 8.29-25.47 8.47-9.88 4.94-4.68 18.38-19.78 18.38-13.76 0-18.32-8.43-29.72-14.13-9.83-4.92-19.67-8.71-29.68-12.72-11.64-4.65-20.02-7.82-26.88-16.97-7.61-10.14-38.24-4.25-49.5-4.25h-72.12c-16.55 0-26.18-11.14-42.41-1.4-6.37 3.82-14.06 11.18-18.41 15.53v438.4h481.91v-555.81c-3.8-11.32-9.5-21.87-18-24-1.4-0.33-2.6-0.47-3.7-0.43z" fill-rule="evenodd" stroke="#000" stroke-width="1px" fill="url(#linearGradient6280)"/>
  <path id="path5715" d="m1048.6 406.75c-7.9 0.12-13 1.93-15.6 12.25-3.2 12.79 6 24.66 6 38 0 13.19-7.4 23.42-14 30-8.4 8.41-18.4 6-30 6-11.96 0-16.24 4-30 4-8.33 0-14.1-12-28-12-18.26 0-24.33-0.33-34-10-4.89-4.89 13.01-20.04 14-24 3.26-13.03-4.42-19.21-14-24-10.53-5.26-34.54 4.11-44 6-13.56 2.71-36.43 1.78-48-4-19.83-9.92-32.15-16-56-16-16.76 0-46.86 24.91-62 34-7.05 4.23-20.16 6.86-28 10v396h492v-434.44c-9.2-6.87-25.3-11.56-40-11.56h-56c-4.7 0-8.9-0.3-12.4-0.25z" fill-rule="evenodd" stroke="#000" stroke-width="1px" fill="url(#linearGradient6282)"/>
 </g>
 <path id="path4099" d="m871.94 667.66l-15.91 2.25 4.03 8.95c0 0.5 0.12 1 0.37 1.45 0.93 1.63 3.27 2.04 5.24 0.92 1.42-0.81 2.27-2.18 2.27-3.49l4-10.08zm-6.56 2.18c2 0.02 3.86 0.74 5.09 2.1-0.77 1.07-1.82 2.02-3.09 2.75-3.53 2-7.66 1.6-9.85-0.81 0.77-1.08 1.82-2.03 3.09-2.76 1.55-0.87 3.19-1.29 4.76-1.28z" fill-rule="evenodd" stroke="#000" stroke-width=".05" fill="#e3930a"/>
 <path id="path5654" d="m0.0089722-0.0010299v967h1157v-210.78l-2.6 4.44-15.4-30.79-132.4-2.28-79.31 52.47-26.62 10.94-110.82-88.13-8.25 174.38-456.4-227.66 34.81-545.22-68.91-31.902-53.18-65.906c0-0.0005-27.72 2.6557-27.72 2.6557s-4.36-5.7873-6.94-9.2187l-203.25-0.0000299z" fill-rule="evenodd" fill="#faf9c1"/>
 <path id="path4137" d="m173.21 654.01l381.44 188.75 238.65-125.08 0.18-6.7 4.44 4.28 98.73-51.74-369.11-140.72-354.33 131.21z" fill-rule="evenodd" stroke="#000" stroke-width=".05" fill="#39d2ce"/>
 <path id="path4115" d="m865.22 661.53c-1.51 0.01-3.11 0.44-4.6 1.28-3.97 2.26-5.68 6.75-3.81 10.03 0.21 0.37 0.44 0.73 0.72 1.04 2.19 2.41 6.32 2.81 9.85 0.81 1.27-0.73 2.32-1.68 3.09-2.75 1.61-2.27 1.98-5.06 0.72-7.28-1.17-2.06-3.45-3.15-5.97-3.13z" fill-rule="evenodd" stroke="#000" stroke-width=".05" fill="#4a3003"/>
 <g id="g5870" fill-rule="evenodd" stroke="#000" stroke-width=".05">
  <g id="g5464" transform="translate(-640.96 -115)">
   <path id="path5462" d="m983.94 437.07l6.36-2.11v-219.56l-6.36 2.12v219.55z" fill="#9f3c04"/>
   <path id="path5456" d="m983.94 437.07l-39.47-14.09v-219.56l39.47 14.1v219.55z" fill="#e88616"/>
   <path id="path5460" d="m990.3 215.4l-39.46-14.1-6.37 2.12 39.47 14.1 6.36-2.12z" fill="#f0ac3a"/>
  </g>
  <path id="path5397" d="m349.34 319.95l31.82-9.19v-219.56l-31.82 9.19v219.56z" fill="url(#linearGradient6284)"/>
  <path id="path5417" d="m190.85-0.0010299l6.82 14.844 31.81-9.1878-2.6-5.6562-36.03-0.0000299z" fill="url(#linearGradient6286)"/>
  <path id="path5415" d="m230.9 8.4702l31.82-9.1924-33.23 6.364-31.82 9.1922 33.23-6.3638z" fill="#b13406"/>
  <path id="path5413" d="m266.26 70.696l31.82-9.193-35.36-62.225-31.82 9.1922 35.36 62.226z" fill="url(#linearGradient6288)"/>
  <path id="path5401" d="m349.34 100.39l31.82-9.188-83.08-29.699-31.82 9.193 83.08 29.694z" fill="url(#linearGradient6290)"/>
 </g>
 <path id="path5272" d="m527.18 246.77l369.11 107.48v309l-369.11-140.71v-275.77z" fill-rule="evenodd" stroke="#000" stroke-width=".05" fill="#d2f5ef"/>
 <path id="path5274" d="m527.18 246.77l-353.97 98.23v309.01l353.97-131.47v-275.77z" fill-rule="evenodd" stroke="#000" stroke-width=".05" fill="#c6f2e3"/>
 <path id="path3935" d="m626.54 786.09c3.96-11.74 20.71-5.77 27.82-12.59 6.14-5.88 22.05 2.54 19.61-11.62-1.78-10.37 13.38-8.48 20.25-8.72 10.62-0.38 17.33-8.92 25.84-12.23 10.24-3.98 13.15-13.77 21.42-20.57 7.67-6.33 16.33-11.36 23.47-17.88 8.14-7.43 16.67-14.71 27.95-12.1 9.51 2.19 12.45-5.58 17.5-10.96 4.45-4.76 10.38 1.32 13.5-7.19 3.26-8.87 3.08 7.56 11.01 6.45 10.48-1.47-0.77-6.9-0.39-11.14 0.73-8.25 18.09 0.44 27.14-2.62 7.78-2.63 15.26 7.17 4.99 8.85-6.09 0.99-18.86-5.99-14.94 6.48 2.71 8.63-14.71 14.19-22.22 17.9-7.25 3.59-18.26 2.91-26.21 7.78-9.53 5.83-15.84 16.05-26.47 20.16-8.32 3.2-16.11 7.32-23.32 12.59-8.73 6.36-15.01 4.33-25.25 6.18-10.93 1.98-11.59 16.85-21.8 16.13-8.39-0.59-11.24 6.08-19.51 7.48-8.99 1.53-18.72 8.24-26.86 13.74-8.17 5.53-16.83 6.03-24.66 11.22-3.41 2.27-10.63-2.12-8.87-7.34z" fill-opacity=".73256" fill-rule="evenodd" fill="#12a4f0"/>
 <path id="path5280" d="m1214.1 423.03v182.85l277.2 105.65v-207.81l-277.2-80.69z" fill-rule="evenodd" transform="translate(-640.96 -115)" stroke="#000" stroke-width=".05" fill="#c6f2e3"/>
 <g id="g5106" transform="translate(-640.96 -115)">
  <path id="path3518" d="m1237 455.09c-6.2 0.04-13.3 0.43-15.6 1.03-1.5 0.39-5.7 1.97-9.3 3.5-4.6 1.98-22.1 9.88-31.1 14v7.1c2.2-0.94 5.3-2.35 8.9-4 17.7-8.05 29.3-13.11 32.2-14 3.4-1.07 18.3-1.56 22.9-0.75 3.7 0.63 263.2 85.25 267.1 87.06 3 1.43 7.2 5.25 9.3 8.47 2.3 3.56 3.6 8.05 3.6 12.56 0.1 3.2-0.2 4.25-1.3 6.63-1.5 3.11-3 4.15-6.5 4.62-1.8 0.26-12.5-3.17-90.1-29.03-194.9-64.95-218.8-72.78-222.1-72.78-5.2 0-8.3 2.02-10.7 6.81-5 10.24 0.3 27.51 10.1 32.44 2.9 1.45 213.9 78 283.9 102.97 10.5 3.76 20.1 7.25 21.2 7.75 7.8 3.34 15.4 16.27 15.4 26 0 6.38-2.6 8.72-8.3 7.56-5-1.02-63.9-22.38-226.7-82.28-43.6-16.03-80.2-29.38-81.3-29.69-8.5-2.34-15.7 3.67-17.2 14.28-1 7.27 1.3 14.54 6.4 19.85 4.3 4.49 4.2 4.5 39.1 17.31 27.3 10.03 96.8 35.2 192.1 69.53 43.3 15.63 80 29.04 81.5 29.78 8.2 4.16 15.4 16.31 15.4 26 0 7.65-3.1 10.13-10 8-1.3-0.38-34.6-13.47-74-29.06-125.6-49.63-230.7-90.84-233.5-91.59-9-2.42-17.5 5.03-18.4 16.09-0.7 8.8 4.5 17.51 12.7 21.63 1.6 0.81 61.1 24.85 132.2 53.4s130.1 52.48 131.2 53.19c4.3 2.81 4.8 7.26 1.3 10.53-2.2 2.03-27.7 15.91-92.4 50.22v7.34c16.4-8.7 36.8-19.55 51.1-27.18 29.9-15.94 42.1-22.68 44.4-24.38 3.6-2.6 5.9-6.71 5.9-10.47 0-4.25-3-9.21-7.1-11.78-1-0.65-60.4-24.74-131.9-53.5-71.6-28.76-131-52.73-132.1-53.28-3.1-1.57-5.8-4.29-7.3-7.38-1.1-2.39-1.4-3.46-1.3-6.84 0-7.02 3.1-11.25 8.3-11.25 2.7 0 46.6 17.09 226.1 88.03 44 17.39 81.4 32.02 83 32.53 14 4.33 21.9-6.57 17-23.56-1-3.46-4.6-10.33-7.1-13.41-3-3.86-7.6-7.51-11.8-9.59-2.3-1.08-35.1-13.13-73.1-26.78-110.4-39.72-200.1-72.29-226.5-82.19-6-2.26-9.7-4.66-11.8-7.78-3.2-4.7-4-12.13-1.7-17 1.5-3.29 3.2-4.53 6.2-4.44 1.7 0.05 21.3 7.09 71.8 25.69 151.5 55.81 231.6 84.91 237.5 86.28 8.2 1.91 14.7-1.61 16.5-8.97 1.1-4.62 0-11.96-2.8-18.5-3.2-7.62-10.3-15.68-15.9-18.15-1.5-0.69-13.7-5.15-27-9.91-53.4-19.04-272.9-98.53-277.2-100.34-5.3-2.31-9.3-10.01-9.3-18.07 0-3.65 0.8-6.27 2.6-8 1.4-1.38 1.6-1.45 4.3-1.18 1.9 0.18 54.6 17.51 154.1 50.59 83.2 27.67 151.9 50.52 152.7 50.78 5.5 1.8 13.1-1.24 16.4-6.56 1.9-3.07 3.1-8.81 2.6-12.97-1.2-11.84-8.3-21.53-18.8-25.75-7.4-2.97-263.7-86.29-267.1-86.81-1.7-0.27-5-0.37-8.7-0.35z" fill="#d70b04"/>
  <path id="path3524" d="m1237 457.12c-1.2 0.01-2.5 0.03-3.7 0.07-5 0.14-10.2 0.58-11.4 0.9-1.1 0.29-5.4 1.87-9 3.38-3 1.31-12.2 5.41-20.5 9.19-4.2 1.88-8.1 3.71-11.1 5.06-0.1 0.06-0.2 0.1-0.3 0.16v2.62c2.1-0.92 4.9-2.19 8.1-3.62 8.8-4.03 16.1-7.3 21.6-9.69s9-3.87 10.8-4.41c1.2-0.38 2.7-0.56 4.7-0.75 2.1-0.19 4.4-0.33 6.8-0.41 4.8-0.15 9.6-0.13 12.4 0.35 0.5 0.09 0.7 0.19 1.3 0.37 0.6 0.19 1.4 0.42 2.5 0.75 2.1 0.66 5.1 1.63 8.8 2.82 7.5 2.38 17.9 5.72 30.4 9.75 24.9 8.05 57.8 18.73 90.7 29.46 32.9 10.74 65.8 21.53 90.7 29.72 12.5 4.1 23 7.55 30.5 10.04 3.7 1.24 6.7 2.24 8.8 2.96 1.1 0.36 1.9 0.66 2.5 0.88s0.9 0.3 1.3 0.5c3.6 1.71 7.8 5.53 10.2 9.19 2.5 3.91 3.9 8.73 4 13.62 0 3.3-0.4 5.04-1.6 7.53-0.8 1.71-1.8 3.09-3.1 4.06-1.4 0.98-3 1.44-4.9 1.69-1.3 0.18-2.2-0.14-4.7-0.84-2.6-0.71-6.5-1.94-12.8-3.97-12.6-4.06-34.7-11.39-73.5-24.31-97.5-32.48-152.2-50.68-183-60.75-15.3-5.04-24.7-8.04-30.4-9.78-5.8-1.74-8.1-2.13-8.1-2.13-2.3 0-4 0.42-5.3 1.28-1.4 0.86-2.5 2.23-3.6 4.41-2.2 4.46-2.2 10.89-0.4 16.72 1.8 5.82 5.4 10.9 9.6 13-0.2-0.12 0.2 0.1 0.7 0.28 0.4 0.18 1.1 0.43 2 0.75 1.7 0.64 4.1 1.58 7.2 2.72 6.2 2.28 15 5.46 25.6 9.34 21.3 7.77 50.1 18.28 81 29.5 61.9 22.44 132.2 47.8 167.2 60.28 5.2 1.88 10.3 3.69 14.1 5.1 3.9 1.4 6.4 2.34 7.2 2.71 4.6 1.96 8.5 6.32 11.5 11.44 3.1 5.12 5.1 11.02 5.1 16.41 0 3.46-0.7 6.27-2.7 8.09-1.9 1.82-4.8 2.08-8 1.44-0.9-0.19-2.3-0.63-4.7-1.44-2.5-0.8-5.8-1.95-10.2-3.5-8.8-3.08-21.7-7.71-39.5-14.18-35.8-12.96-91.2-33.28-172.6-63.22-21.8-8.02-41.9-15.37-56.6-20.75-7.3-2.69-13.4-4.9-17.6-6.44-2.2-0.77-3.8-1.39-5-1.81-0.6-0.22-1.1-0.36-1.4-0.47-0.4-0.12-0.7-0.23-0.5-0.19-3.7-1.01-6.8-0.24-9.4 1.91-2.6 2.14-4.6 5.8-5.3 10.71-0.9 6.66 1.2 13.29 5.8 18.16 2.2 2.25 2.7 2.99 7.5 5.1 4.7 2.1 13.4 5.31 30.9 11.71 27.2 10.03 96.8 35.2 192.1 69.53 21.6 7.82 41.6 15.1 56.4 20.5 7.4 2.71 13.5 4.93 17.8 6.54 2.2 0.8 3.9 1.43 5.1 1.9 1.3 0.47 1.8 0.63 2.4 0.94 4.6 2.33 8.6 6.69 11.6 11.72 2.9 5.03 4.9 10.75 4.9 16.09 0 4.1-0.8 7.34-3.2 9.25s-5.7 1.84-9.4 0.69c-0.5-0.15-0.9-0.35-2.1-0.78-1.1-0.43-2.6-1.02-4.6-1.78-3.9-1.53-9.4-3.68-16.1-6.31-13.4-5.27-31.6-12.46-51.4-20.26-62.8-24.81-120.4-47.52-162.8-64.12-21.1-8.3-38.4-15.07-50.6-19.81-6.1-2.37-11-4.24-14.4-5.53-1.6-0.65-3-1.15-3.9-1.5-1-0.36-1.7-0.61-1.6-0.57-3.8-1.03-7.4 0.01-10.3 2.57-2.9 2.55-5.1 6.69-5.5 11.75-0.6 7.92 4.1 15.9 11.6 19.65-0.1-0.05 0.3 0.15 0.8 0.38 0.6 0.22 1.3 0.54 2.3 0.94 1.9 0.78 4.6 1.9 8.1 3.31 6.9 2.81 16.7 6.78 28.7 11.62 24 9.68 56.6 22.82 92.1 37.1 35.6 14.27 68.1 27.39 91.9 37.03 11.9 4.82 21.6 8.77 28.4 11.56 3.4 1.4 6.1 2.5 7.9 3.28 1 0.39 1.7 0.71 2.2 0.94 0.3 0.11 0.5 0.2 0.7 0.28 0.1 0.08 0.1 0.04 0.5 0.28 2.5 1.65 4.1 3.97 4.5 6.53 0.3 2.56-0.8 5.17-2.9 7.16-0.6 0.55-1.3 0.95-2.4 1.65-1.1 0.71-2.7 1.64-4.7 2.79-4 2.3-10 5.54-18.1 9.97-14.6 7.9-37.7 20.23-68.6 36.62v2.81c16.3-8.65 36.2-19.27 50.2-26.72 14.9-7.96 25.4-13.62 32.5-17.5s10.8-6.11 11.6-6.71c3.1-2.25 5-5.91 5-8.85 0-3.26-2.5-7.75-5.9-9.97v-0.03c-0.1-0.02-0.1-0.04-0.2-0.06-0.1-0.06-0.3-0.14-0.5-0.25-0.5-0.21-1.2-0.52-2.2-0.91-1.8-0.77-4.5-1.88-7.9-3.28-6.8-2.8-16.6-6.78-28.5-11.62-24-9.7-56.7-22.9-92.5-37.29-35.8-14.38-68.5-27.56-92.4-37.21-12-4.83-21.8-8.79-28.6-11.57-3.5-1.38-6.2-2.48-8-3.25-1-0.38-1.7-0.66-2.2-0.87-0.5-0.22-0.6-0.23-1-0.44-3.5-1.78-6.5-4.81-8.2-8.31-1.2-2.52-1.6-4.25-1.6-7.72 0-3.81 0.9-7.07 2.7-9.47s4.6-3.81 7.7-3.81c0.7 0 1 0.12 1.6 0.28s1.3 0.41 2.2 0.72c1.8 0.62 4.5 1.55 8.1 2.91 7.4 2.71 18.7 7.08 35.6 13.65 33.7 13.14 89.6 35.15 179.4 70.63 22 8.69 42.3 16.7 57.3 22.59 7.6 2.95 13.8 5.35 18.2 7.06 2.2 0.86 4 1.55 5.2 2.03 1.3 0.48 2.2 0.81 2.1 0.78 6.4 2 10.7 0.57 13.3-3.03 2.6-3.59 3.5-9.92 1.2-18.03-0.9-2.89-4.6-10.02-6.8-12.72-2.8-3.59-7.2-7.11-11.1-9.03-0.1-0.03-0.9-0.39-2.1-0.84-1.2-0.46-2.8-1.07-4.8-1.81-3.9-1.5-9.4-3.52-16.1-5.94-13.2-4.85-30.9-11.27-49.9-18.1-110.4-39.71-200.1-72.3-226.5-82.21-6.2-2.34-10.3-4.93-12.7-8.53-3.7-5.4-4.6-13.24-2-18.97 0.9-1.83 1.9-3.29 3.3-4.29 1.4-0.99 3.1-1.39 4.9-1.34 0.9 0.03 1.2 0.19 2 0.44 0.8 0.24 1.9 0.61 3.4 1.09 2.9 0.97 7.1 2.45 12.8 4.5 11.4 4.1 29 10.48 54.2 19.78 75.8 27.91 133.7 49.15 173.4 63.57 19.8 7.21 35.1 12.71 45.8 16.5 5.3 1.89 9.6 3.37 12.6 4.4s5 1.64 5.5 1.75c3.7 0.87 6.9 0.48 9.2-0.81 2.4-1.29 4.1-3.45 4.8-6.66 1-3.86 0-11.03-2.6-17.25-3-7.12-10.2-15.01-14.9-17.09-0.4-0.2-4.1-1.58-9-3.38-4.9-1.79-11.2-4.09-17.9-6.46-26.7-9.53-94.9-34.15-157-56.63-31-11.24-60.5-21.96-82.5-29.97-11-4-20.2-7.33-26.7-9.72-3.3-1.19-5.9-2.12-7.7-2.81-1.9-0.69-2.8-1.07-3.3-1.28-6.6-2.8-10.7-11.18-10.7-19.91 0-3.97 1-7.22 3.2-9.43 0.8-0.73 1.5-1.42 2.6-1.72s2-0.17 3.4-0.03c0.6 0.06 0.7 0.13 1.3 0.28 0.5 0.15 1.2 0.37 2.1 0.65 1.9 0.56 4.5 1.39 7.9 2.47 6.8 2.17 16.6 5.38 29.6 9.63 25.8 8.49 63.9 21.11 113.6 37.65 41.6 13.84 79.6 26.46 107.3 35.66 13.8 4.6 25.1 8.36 32.9 10.97 7.9 2.61 12.5 4.16 12.5 4.15 4.4 1.43 11.3-1.28 14.1-5.71 1.5-2.43 2.7-8.09 2.3-11.69-1.1-11.16-7.7-20.16-17.5-24.1-0.6-0.22-5.7-1.96-13.4-4.53-7.7-2.56-18.3-6.03-30.9-10.15-25.1-8.24-58-18.96-90.7-29.6-32.7-10.63-65.3-21.19-89.9-29.12-12.3-3.97-22.6-7.26-30-9.6-3.6-1.16-6.6-2.08-8.6-2.71-1-0.32-1.8-0.58-2.4-0.75-0.3-0.1-0.6-0.18-0.8-0.22-1.4-0.23-4.7-0.33-8.4-0.32z" filter="url(#filter3911)" fill="#ff8080"/>
 </g>
 <g id="g5119" transform="translate(-640.96 -115)">
  <path id="path3810" d="m1074 703.5v-234.75h107v234.75" fill="url(#linearGradient6292)"/>
  <path id="path3726" d="m1074 468.75c0 11.32 24 20.5 53.5 20.5s53.5-9.18 53.5-20.5c0-14.9-24-27-53.5-27s-53.5 12.1-53.5 27z" fill="url(#radialGradient6294)"/>
 </g>
 <g id="g5881" fill-rule="evenodd">
  <path id="path5631" d="m750.1 740.34v83.16l-81.65-40.38 81.65-42.78z" stroke="#000" stroke-width=".05" fill="#94410b"/>
  <path id="path5492" d="m810.38 683.06l-33.93 14.13 118.71 104.3 32.13-21.43-116.91-97z" stroke="#000" stroke-width=".05" fill="url(#linearGradient6296)"/>
  <path id="path5494" d="m810.38 683.05l-33.94 14.14-21.22-10.6 33.94-15.56 21.22 12.02z" stroke="#000" stroke-width=".05" fill="url(#linearGradient6298)"/>
  <g id="g5611" transform="translate(-640.96 -115)">
   <path id="path5541" d="m1257.1 925.53l172 85.27v-183.39l-12.8-13.1-25.2-10.4v134.59l-81.7-40.38" stroke="#000" stroke-width=".054" fill="#e88f10"/>
   <path id="path5554" d="m1422.8 810.31l-6.5 4 12.8 13.1 6.5-4-12.8-13.1z" stroke="#000" stroke-width=".054" fill="#f3c55a"/>
   <path id="path5550" d="m1416.3 814.31l6.5-4-24-9.9-7.8 3.5 25.3 10.4z" stroke="#000" stroke-width=".054" fill="#f3d05c"/>
   <path id="path5543" d="m1435.6 823.41l-6.5 4v183.39l6.5-4v-183.39z" stroke="#000" stroke-width=".054" fill="#974a08"/>
   <path id="path5576" d="m1391.1 936.31v2.19l-1.5-0.75 38 72.25 1.5 0.8v-2.2l-38-72.29z" fill="#974a08"/>
  </g>
  <path id="path5484" d="m1006.6 727.6l37.5-17.33 110.3 6.72-18.4 22.63-129.4-12.02z" stroke="#000" stroke-width=".05" fill="url(#linearGradient6300)"/>
  <path id="path5480" d="m1154.4 717l-18.4 22.62 18.4 21.04 2.6-4.07v-36.78l-2.6-2.81z" stroke="#000" stroke-width=".05" fill="url(#linearGradient6302)"/>
 </g>
 <g id="g5268" fill-rule="evenodd" transform="translate(-640.96 -115)" stroke="#000" stroke-width=".05">
  <path id="path3543" d="m1009.9 409.67l46.9 14.85-10.6 34.47 8.8 42.43s14.5-4.42 21.7 12.55c7.3 16.97-2.3 24.93-8.6 29.52 3.9 3.89 56.6 55.86 56.6 55.86s32.1-12.02 47.3 29.7-17.3 52.33-17.3 52.33l53 13.79 10.8 54.83 80.5 55 67.5-31v95l-356.6-163.05v-296.28zm334.8 433.89c0.4 3.49-1.7 6.6-4.7 6.95s-5.8-2.2-6.2-5.69 1.7-6.6 4.7-6.95 5.8 2.2 6.2 5.69zm16.2 22.91c0.4-1.01 0.6-2.16 0.4-3.35-0.3-3.27-2.8-5.71-5.5-5.71-0.2 0-0.4 0.01-0.6 0.03-2.2 0.25-4 2.01-4.6 4.31" fill="#74b4eb"/>
  <path id="path3371" d="m1018.4 406.44l-8.5 3.24 46.9 14.85-10.6 34.47 8.8 42.41s14.5-4.41 21.8 12.56c7.2 16.97-2.3 24.93-8.7 29.53 3.9 3.89 56.6 55.84 56.6 55.84s32.1-12 47.3 29.72-17.3 52.32-17.3 52.32l53.1 13.78 10.7 54.84 80.5 55 7.9-3.66-79.9-54.59-10.8-54.84-53-13.79s32.5-10.59 17.3-52.31-47.3-29.72-47.3-29.72-52.7-51.95-56.6-55.84c6.4-4.6 15.9-12.56 8.6-29.53-7.2-16.97-21.7-12.56-21.7-12.56l-8.8-42.41 10.6-34.47-46.9-14.84zm356.6 364.31l-8.5 3.29v94.96l8.5-3.25v-95zm-31.6 77.74c-0.8 1.11-2 1.86-3.4 2.02-3 0.35-5.8-2.2-6.2-5.69-0.4-3.32 1.5-6.29 4.3-6.88-1 1.29-1.5 3.05-1.3 4.94 0.4 3.48 3.2 6.03 6.2 5.68 0.1-0.01 0.3-0.04 0.4-0.07zm11.3 9.04c-2 0.45-3.5 2.09-4.1 4.22l2.9 1.31c0-0.17-0.1-0.35-0.1-0.53-0.2-1.9 0.3-3.68 1.3-5z" fill="#e5ebeb"/>
 </g>
 <g id="g3979" fill-rule="evenodd">
  <path id="path3947" d="m405.69 740c-1.1 0.13-1.98 0.97-2.16 2.06-0.19 1.08 0.36 2.17 1.35 2.66 23.58 12.04 32.89 15 45.62 31.78 18.78 24.76 44.29 36.65 71.62 40.19 27.34 3.53 56.55-1.15 83.38-9.22s51.28-19.56 69.09-29.88c8.91-5.15 16.15-10.02 21.25-14.06 2.55-2.02 4.58-3.82 6.04-5.44 1.45-1.62 2.62-2.85 2.62-5.09 0.01-0.9-0.46-1.74-1.24-2.19-0.78-0.46-1.74-0.46-2.52 0-0.78 0.45-1.25 1.29-1.24 2.19 0-0.64-0.19 0.46-1.34 1.75-1.16 1.29-3 2.97-5.41 4.87-4.82 3.82-11.91 8.57-20.66 13.63-17.49 10.13-41.66 21.5-68.03 29.44-26.37 7.93-54.95 12.43-81.28 9.03-26.33-3.41-50.35-14.58-68.28-38.22-13.28-17.52-23.96-21.26-47.38-33.22-0.44-0.23-0.94-0.33-1.43-0.28z" fill="#a99660"/>
  <path id="path3957" d="m405.84 741.56c-0.4 0.06-0.71 0.34-0.78 0.75-0.07 0.42 0.12 0.81 0.5 1h0.03c11.77 6.01 20 9.76 27 14.19s12.71 9.56 19.16 18.06c18.51 24.41 43.55 36.07 70.56 39.56 27.02 3.5 56.07-1.12 82.75-9.15 26.69-8.03 51.04-19.46 68.75-29.72 8.86-5.13 16.05-9.96 21.07-13.94 2.51-1.99 4.48-3.77 5.84-5.28 1.47-1.63 2.22-2.34 2.22-4.03v-0.03c0-0.33-0.17-0.64-0.47-0.81-0.31-0.18-0.63-0.18-0.94 0-0.3 0.17-0.47 0.48-0.47 0.81l-3.12 0.03c0-0.04-0.05-0.11 0.03 0.22 0.04 0.16 0.08 0.68 0.91 1.03 0.41 0.18 0.88 0.14 1.15 0.03s0.42-0.23 0.5-0.31c0.34-0.32 0.23-0.31 0.22-0.28-0.01 0.02-0.04 0.12-0.09 0.22-0.21 0.38-0.65 1.12-1.35 1.9-1.25 1.4-3.14 3.09-5.59 5.03-4.91 3.9-12.05 8.66-20.84 13.75-17.6 10.19-41.87 21.62-68.38 29.6s-55.26 12.54-81.91 9.09c-26.64-3.44-51.15-14.85-69.34-38.84-13.11-17.28-23.38-20.77-46.84-32.75l-0.03-0.03c-0.16-0.09-0.33-0.11-0.5-0.1h-0.04z" filter="url(#filter3975)" fill="#d0c6a9"/>
 </g>
 <g id="g3922" transform="matrix(-.28117 0 0 .28117 666.14 562.13)">
  <path id="path3882" fill="#c6b995" d="m-80.406 579.91c-5.855-2.12-12.052-3.08-18.104-4.47-2.78-0.87-6.04-0.65-8.45-2.4-2.77-1.27-2.2-4.39 0.36-5.48 3.86-2.62 7.015-6.57 7.651-11.3 0.595-2.82-0.268-5.98 1.187-8.58 6.436-2.1 13.235-3.59 19.132-7.08 2.997-1.66 5.259-4.87 4.894-8.4-0.589-4.64-4.679-7.79-8.54-9.85-3.847-2.11-8.376-2.53-12.193-4.69-1.334-2.03-1.05-4.67-1.238-7 0.13-2.96-0.409-6.17 0.926-8.91 0.877-0.86 1.918-1.56 2.875-2.34-0.563-19.73-0.982-39.45-1.685-59.17-0.348-4.74-0.219-9.69-1.982-14.18-1.318-3.27-5.157-3.71-8.147-4.44-11.48-2.73-23.46-2.87-35.14-1.49-5.9 0.87-12.05 1.83-17.18 5.05-2.21 1.15-2.7 3.6-2.62 5.88-1.02 19.64-1.31 39.32-1.46 58.98 0.18 3.35-0.28 6.91 1.04 10.07 1.54 2.69 1.22 5.98 1.36 8.98-0.16 2.37 0.55 5.03-0.76 7.16-2.15 2.12-5.37 2.52-8.08 3.61-4.54 1.45-9.21 3.49-12.32 7.25-2.19 2.52-2.51 6.44-0.51 9.18 3.62 5.07 9.75 7.35 15.43 9.28 2.36 0.77 5.87 1.77 5.3 4.99 0.19 5.42 3.15 10.44 6.96 14.15 2.02 1.9 4.62 2.95 6.98 4.32-0.08 5.65 0.22 11.31-0.3 16.94 0.03 2.73-3.05 3.82-3.37 6.41-0.77 3.34 0.33 7.07-1.48 10.15-1.87 1.75-1.46 4.6-1.72 6.92-0.35 7.89 0.25 15.85-0.78 23.7-1.06 2.34-1.47 4.92-1.41 7.52 0.02 6 0.22 12.1 1.74 17.93 1.23 2.28 2.24 4.74 2.26 7.39 0.26 3.16-0.59 6.94 2.03 9.35 3.1 3.29 7.08 6.06 11.71 6.4 4.03 0.82 8.15 1.5 12.26 0.87 6.69-0.82 13.44-3.45 17.99-8.57 1.76-2.79 0.75-6.25 1.17-9.35 0.05-2.45 0.91-4.73 2-6.87 1.31-5.89 0.95-11.99 0.87-17.99-0.2-6.74-0.72-13.47-1.13-20.21 6.844 1.6 13.876 3.18 20.934 2.44 4.602-0.7 8.026-4.38 10.739-7.89 3.152-4.42 5.889-9.88 4.803-15.46 0.024-2.38-0.704-4.6-2.157-6.5-3.151-4.73-6.571-9.77-11.845-12.3z"/>
  <path id="path3878" fill="#a99660" d="m-132.73 682.35c-3.55-0.74-7.37-0.88-10.41-3.1-2.28-1.61-4.65-3.4-6.01-5.9-1.17-3.61-0.03-7.55-1.26-11.18-1.01-2.35-2.27-4.63-2.43-7.26-0.82-6.22-1.37-12.57-0.56-18.81 1.12-2.41 1.43-5.06 1.48-7.73 0.46-7.7-0.21-15.45 0.69-23.12 0.54-2.46 2.86-4.22 2.45-7.03 0.18-3.1-0.41-6.93 2.36-9.12 2.02-2.27 1.48-5.58 1.68-8.38 0.02-3.89 0.01-7.79 0.01-11.68-3.18-1.77-6.62-3.34-8.86-6.35-3.1-3.77-5.29-8.49-5.16-13.45-0.49-2.77-3.95-2.99-6.06-3.96-5.4-1.86-11.16-4.17-14.59-8.99-2-2.73-1.68-6.65 0.51-9.17 3.55-4.28 8.99-6.27 14.14-7.87 2.26-0.94 5.24-1.27 6.6-3.55 0.85-2.69 0.27-5.6 0.4-8.38-0.12-2.76-0.13-5.74-1.73-8.1l67.179-3.67c0.078 2.38-0.375 4.82-2.477 6.2-1.329 2.74-0.815 5.94-0.938 8.9 0.188 2.33-0.096 4.97 1.238 7 4.445 2.44 9.769 2.83 14.009 5.73 3.551 2.24 7.273 5.87 6.678 10.44-0.396 4.53-4.749 7.02-8.473 8.65-4.992 2.22-10.342 3.53-15.507 5.2-1.305 2.38-0.796 5.28-0.98 7.9-0.04 3.9-1.223 8.22-4.779 10.35-1.87 1.6-6.15 1.74-5.93 4.89 1.53 2.93 5.41 3.17 7.47 5.54 0.36 1.77-4.72 3.26-0.87 4 3.802 0.5-1.53 3.76 1.37 5.23 1.504 0.19 2.82 0.82 2.026 2.55 1.901 1.37 4.774 0.67 7.027 0.43 1.884-1.13 3.417-3.07 5.495-4.1 1.219-1.41 5.814-1.29 3.391-3.69-0.602-0.68-4.785-2.55-1.942-2.52 5.299 0.85 9.837 4.22 13.011 8.44 2.155 2.9 4.523 5.8 5.823 9.2 0.187 3.12 1.024 6.3-0.048 9.36-1.886 6.16-5.809 11.87-11.258 15.38-3.821 2.35-8.545 1.64-12.789 1.3-4.096-0.46-8.122-1.36-12.126-2.3 0.7 11.57 1.81 23.19 0.88 34.77-0.01 2.52-1.24 4.68-2.1 6.95-1.07 3.71-0.19 7.64-1.01 11.37-1 2.49-3.49 3.91-5.55 5.45-6.42 3.9-14.3 5.49-21.71 4.25l-0.36-0.07zm0.81-9.86c0.24-2.35 0.32-6.07-2.82-6.38-1.98-0.31-3.99-0.17-5.99-0.22 0.09 3.17-0.24 6.38 0.33 9.52 0.79 2.93 4.48 2.21 6.75 2 1.96-0.63 1.46-3.32 1.73-4.92zm18.69-1.76c-0.29-2.13 0.47-5.69-1.62-6.84-1.31 2.27-4.45 2.29-5.84 4.37-0.79 2.83-0.42 5.82-0.59 8.73 2.68-0.2 5.37-0.4 8.05-0.6v-5.66zm-18.99-8.84c0.17-1.6-1.97-1.88-3.13-2.4-1.59-0.32 0.06-0.56 0.77-0.82 1.6-0.27 3.81-1.33 1.29-2.46-3.31-1.44 0.98-2.54 1.29-3.82-2.57-0.93-5.42-1.71-8.16-1.16-1.61 1.29 1.59 2.26 2.74 2.58 1.44 0.25 1 0.54-0.16 0.86-1.22 0.45-2.43 0.89-3.64 1.34 1.46 1.21 3.13 2.21 4.4 3.6-1.22 0.17-5.56 0.49-3.01 2.46 2.28 0.84 5.5 1.27 7.61-0.18zm18.99-2.2c0.76-1.64-2.81 0.17-3.63 0-1.46-0.52-4.37 1.66-1.67 1.92 1.87-0.09 3.89-0.65 5.3-1.92zm-2.04-2.96c1.05-0.25 3.91-2.19 1.22-2.01-1.67 0.42-5.48 0.5-5.41 2.36 1.36 1.39 2.77 0.25 4.19-0.35zm2.96-5.9c0.81-1.66-2.95-0.13-3.82-0.11-0.92 0.39-4.2 0.8-3.54 1.87 2.5 0.07 5.25-0.37 7.36-1.76zm-21.92-3.15c-2.16-0.42-3.8-2.39-5.98-2.47-3.23 1.52 1.51 3.69 3.32 3.54 1.89 0.14 3.78-0.01 5.66-0.01-1-0.36-2-0.71-3-1.06zm22.33-1.35c-1.33-0.84-4.16 0.83-6.08 0.55-1.69-0.28-2.35 1.86-0.15 1.25 2.12-0.25 4.45-0.55 6.23-1.8zm-20.5-1.54c-0.31-0.96-4.54-1.26-3.71-3.87-1.62-1.7-1.6-4.38-1.73-6.75-0.08-2.59-0.11-5.18-0.18-7.78-0.37 5.03-1.03 10.05-1.08 15.1-0.38 2.56 2.48 4.73 4.81 3.69 0.62-0.17 1.25-0.32 1.89-0.39zm16.86-1.58c-1.45-0.84-2.97 0.86-0.6 0.61 0.38 0.01 1.81-0.18 0.6-0.61zm2.44-3.57c-0.99-7.22-0.76-14.55-0.99-21.83-0.02-0.86-0.08 1.36-0.12 1.84-0.28 6.65-0.86 13.3-0.79 19.96-0.68 1.76 2.28 3.5 2.06 0.93l-0.05-0.43-0.11-0.47zm-24.41-22.7c0.03-1.2-0.99-4.5-1.16-1.51 0.09 1.39-0.6 4.78 0.93 4.9 0.49-1.04 0.36-2.28 0.23-3.39zm0.78-5.05c-0.32-1.96-4.2-0.63-1.79 0.71 0.67 0.57 1.81 0.26 1.79-0.71zm4.39-2.82c0-2.32-3.7-3.35-2.9-5.89-1.95-1.19-2.18 1.03-1.77 2.31-0.33 1.36-4.91 1.25-2.06 2.4 2.13 0.37 4.87 2.82 6.73 1.18zm46.38-7.61c-2.727-1.92-5.387-3.93-8.076-5.9-1.77 2.15-3.929 4.5-3.653 7.5 0.725 2.55 4.124 2.13 6.193 2.75 2.745 1.17 4.741-1.07 5.353-3.55 0.074-0.26 0.247-0.52 0.183-0.8zm-13.803-1.5c1.487-1.48 1.42-6.39-1.527-4.64-0.33 0.91-1.34 4.38-2.33 2.88 0.91-2.54 1.54-5.17 2.13-7.81-2.4 2.17-4.78 4.78-5.03 8.17 0.23 2.32 4.17 3.71 5.99 2.63 0.31-0.37 0.535-0.81 0.767-1.23zm-32.467-1c-1.22-2.27-4.68-1.57-6.93-1.61-3.55 0.5 0.9 3.49 2.54 3.24 1.43 0.1 4.01 0.19 4.39-1.63zm57.294-3.59c2.212-0.07-1.397-2.13-2.402-1.08-2.701-0.41-3.215-3.71-4.897-5.43-1.126-2.28-5.732-2.9-5.048 0.59 0.679 3.14 3.286 5.46 3.94 8.59 1.3 0.28 4.058-2 5.988-2.34 0.774-0.21 1.61-0.51 2.419-0.33zm-33.184-1.2c-1.2-0.1-0.24 4.06 0.23 1.35 0.06-0.45 0.09-0.98-0.23-1.35zm-23.8-17.3c1.14-0.74 3.9-1.55 3.88-2.5-2.38-0.1-5.05-0.52-7.2 0.64 0.37 1.49-0.8 2.71-1.43 3.79 1.68-0.25 3.2-1.28 4.75-1.93zm13.19-3.98c-0.2-2.6-6.85 0.8-3.46 0.97 1.09-0.03 2.9 0.2 3.46-0.97zm7-3.05c-0.64-1.98-3.42 1.84-0.61 0.97 0.37-0.16 0.62-0.57 0.61-0.97zm1-7.45c0.53-2.13-2.06-4.49-1.96-1.1-0.41 1.27 0.32 6.07 1.67 2.97 0.2-0.6 0.29-1.23 0.29-1.87zm-24-0.33c-1.19-1.55-3.93-3.37-5.85-2.34-2.39 3.03 2.41 3.62 4.51 3.03 0.43-0.12 1.22-0.14 1.34-0.69zm18.61-1.89c-1.2-0.1-0.24 4.06 0.23 1.35 0.06-0.45 0.09-0.98-0.23-1.35zm5.39-8.83c-1.11-1.46-4.1 0.61-1.45 1.07 0.62 0.01 1.44-0.35 1.45-1.07zm-26-4.32c-0.41-2.48-3.49-3.07-5.52-2.36-2.24-0.8-4.58-1.36-7.02-1.38-4.41-0.19-8.88-0.59-13.26 0.03 0.96 1.45 4.41 1.59 6.42 2.22 5.94 1.23 12 1.92 18.05 2.18 0.45-0.04 1.35-0.01 1.33-0.69zm40.125-1.72c2.166-0.57 4.446-0.94 6.434-2.01-1.81-0.62-4.47 0.14-6.576 0.24-4.733 0.53-9.443 1.55-14.213 1.52-2.27 1.76 2.57 1.99 3.78 1.78 3.57-0.15 7.1-0.76 10.575-1.53zm-41.875-5.07c-1.24-0.8-4.35 0.62-1.25 0.51 0.24-0.01 2.25 0 1.25-0.51zm57.752-1.34c2.781-2.58-5.327 1.19-1.685 0.81 0.592-0.2 1.16-0.47 1.685-0.81zm-57.252-1.71c-1.97-0.19-4.36-0.4-6.09 0.23 1.98 0.2 5.33 0.44 6.53-0.15l-0.44-0.08zm8.25-3.01c-1.92-1.4-3.9-2.54-6.41-2.52-4.43-0.45-8.9-0.85-13.35-0.59-2.13 0.94 2.22 2.35 3.22 2.66 4.62 1.02 9.41 0.96 14.12 0.97 0.36-0.13 3.1 0.14 2.42-0.52zm26.69-1.35c2.43-0.22 2.34-2.3-0.08-2.39-4.47-0.35-8.86 0.89-13.21 1.7-1.38-0.08-5.08 1.88-2.22 2.48 4.9 0.28 9.86-0.3 14.62-1.49l0.47-0.15 0.42-0.15zm6.605-2.91c-0.644-3.53-3.915 0.68-1.41 1.87 1.349 0.58 1.834-0.84 1.41-1.87zm-36.795-8.59c-0.13-3.19-0.42-6.57 0.94-9.55-0.02-2.57-4.15-1.53-5.99-2.14-2.32-0.14-4.69-0.54-6.99-0.14 1.12 2.64 0.94 5.65 1.12 8.47 0.16 2.69-0.3 5.63 1.02 8.09 1.63 1.97 4.5 1.52 6.79 1.73 1.2 0.04 2.4 0.08 3.6 0.11-0.17-2.19-0.33-4.38-0.49-6.57zm25.96 4.64c-0.02-1.65-1.95-3.2-0.78-5.21 0.74-3.8 0.51-7.86 1.98-11.46-2.44-0.81-5.23 0.32-7.77 0.45-1.87-0.08-3.31 0.78-2.52 2.82 0.59 3.61 1.27 7.29 2.83 10.63 2.83 1.54-0.95 2.36-1.63 3.4 2.52 0.34 5.27 0.5 7.69-0.44l0.2-0.19z"/>
  <path id="path3876" fill="#626bac" d="m-156.95 503.79c-1.02-2.27-2.97-4.19-2.93-6.86-0.56-8.31-0.09-16.65-0.02-24.97 0.32-14.42 0.45-28.85 1.43-43.24 0.22-2.72 3.11-4.03 5.28-5.08 8.1-3.28 16.96-4.02 25.61-4.33 9.64-0.2 19.41 0.72 28.643 3.61 3.337 1.09 4.215 4.9 4.61 7.98 1.1 9.53 0.989 19.15 1.342 28.73 0.358 13.26 0.72 26.51 1.08 39.76-8.135 6.31-36.065 10.53-65.045 4.4z"/>
  <path id="path3874" fill="#8a7646" d="m-130.73 681.14c-4.67-0.3-9.97-0.42-13.45-4.04-2.11-2.05-4.67-4.37-4.45-7.61-0.03-3.31 0.52-7.02-1.53-9.88-1.19-2.55 1.08-5.74-1.16-7.93-1.41-1.49 2.66-2.19 0.48-3.6-0.59-2.25-0.69-4.92 0.5-6.99-0.13-2.4-3.23-4.59-0.85-6.79 0.71-2.74 0.39-5.6 0.46-8.41 1.39 1.28 2.57 2.85 4.18 3.84 2.46-2.02-1.72-4.65-0.62-6.76 2.05-1.4 1.32-3.35-0.94-3.46-0.91-1.87-0.44-4.3-2.33-5.51-0.6-3.13-0.4-6.53 0.77-9.51 2.41-2.41 1.78-6.1 2-9.21-0.28-2.8 1.66-4.75 3.07-6.84 1.17-3.98 0.83-8.2 1.03-12.31 0.06-2.66 0.12-5.33 0.18-7.99 5.75 0.45 11.6 0.29 17.24 1.66 2.08 0.12 2.04 2.1-0.05 2.13-4.51 1.05-9.19 0.86-13.74 0.22-2.48-0.32-3.13 3.23-1.28 4.23-0.99 1.55-2.12 2.84-0.19 4.03-0.69 2.82 1.27 4.82 2.62 7.01 0.42 2.84-5.12-1.05-3.15 1.78 1.31 2.01 3.23 3.71 4.02 6-1.6 1.54-4.67 0-6.55 1.54-2.35 1.8 0.28 4.86-0.85 7-2.86 0.47 1.97 1.91 1.45 3.67-0.1 1.01 0.56 4.75 1.8 2.87-1.38-2.14 5.22-1.61 2.08-0.17-1.25 2.14-0.31 4.76-0.18 7.08 0.74 4.25 0.8 8.59 0.24 12.87-0.37 3.04-0.42 6.22-1.54 9.09-0.39-1.21-0.17-4.05-2.15-3.97 0.96 2.01 0.02 4.07-1.94 5.01-0.54 0.48-2.22 1.12-0.69 1.34 1.31 0.53 3.51 0.9 3.17 2.78-1.48 2.32 2.48 3.81-0.07 5.75-0.27 1.92 0.42 3.9-1.27 5.49 1.09 0.24 2.56 1.29 0.89 2.42-1.05 0.85-2.4 1.12-3.62 1.63 1.77 1.01 4.47 1.89 4.36 4.35-0.26 1.47-4.15 0.65-2.46 2.65 3.39-0.17 2.14 3.31 1.89 5.46-0.55 2.44 0.74 4.83 3.28 5.34 3.59 1.25 7.68 1.78 11.32 0.42 1.39-1.49-2.35-4.13 0.48-5.32 0.79-1.02-1.04-3.01 1.23-2.71 1.64-0.84 3.72-0.85 3.29 1.62 0.23 2.31-0.58 5.56 1.83 6.92 2.78 0.65 5.62-0.45 8.25-1.28 2.71-0.37 3.44-2.63 3.28-5 0.35-2.58 0.37-5.31 1.43-7.73 2.46-1.18 0.62-3.73-1.3-3.82 0.65-1.76 1.58-3.56-0.26-4.69 0.74-1.26 3.95-2.91 0.77-3.5-1.87-1.34 3.05-3.87-0.61-4.91-1.11-1.3 3.12-3.45 0.22-3.62-0.62-1.29 0.39-2.93-0.91-4.15-1.3-8.93-0.01-18.06-1.59-26.97-0.59-1.14-1.59-4.58 0.67-2.55 1.84 1.55 3.56 3.47 5.95 4.08 0.31 2.34 5.34 2.05 4.77-0.55-0.34-1.32-0.98-6.48 1.513-4.36 1.494 2.18 2.132 4.94 4.254 6.7 1.607 1.47 4.575 2.44 6.346 0.8 0.432-1.12-1.102-4.15 1.422-2.91 2.78 1.39 5.093 4.39 8.533 3.84 1.079 0.03 4.342-0.99 4.123-0.08-3.668 2.14-7.734 4.15-12.112 3.72-4.559-0.21-9.193-0.85-13.369-2.76-3.14-1.47-2.71 2.68-3.01 4.56-0.33 4.76-0.67 9.57-0.25 14.34-0.28 1.81 3.01 2.26 1.14 4-1.08 2.83 0.08 5.89-0.57 8.77-0.64 0.77-1.84 0.99-0.49 2.13 2.52 1.66-2.34 4.06 0.33 4.89-0.8 2.41-2.59 4.55-2.42 7.27-0.35 3.18 0.97 6.96-1.6 9.51-2.99 3.37-7.02 5.85-11.51 6.58-3.88 0.74-7.87 0.71-11.8 0.5zm23-42.25c2.54-1.52-4.27-1.49-2.8 0.71 0.88 0.67 2.01-0.29 2.8-0.71zm3-8.05c-0.8-2.9-3.49 1.82-1 1.55 0.52-0.34 0.96-0.91 1-1.55zm-37-4.5c-1.52-2-3 2.47-0.61 0.78 0.23-0.22 0.55-0.44 0.61-0.78zm0.5-5.83c-0.89-2.06-0.73-4.69-2.25-6.38-2.11 0.8-1.61 4.07-1.75 5.98-0.59 2.38 1.29 3.95 3.45 2.65 1.02-0.34 0.83-1.46 0.55-2.25zm35 2.38c-0.8-1.58-3.6-0.86-1.16 0.22 0.55 0.26 2.37 1.65 1.16-0.22zm-40.31-15.68c-1.45-0.84-2.97 0.86-0.6 0.61 0.38 0.01 1.81-0.18 0.6-0.61zm17.22 59.32c-0.83-5.55-0.73-11.2-0.86-16.8 0.36-2.18-0.9-5.52 1.48-6.74 1.88 0.3 2.07-2.59 3.99-0.96 1.71 0.84 4.64 3.1 2.92 4.99-0.99 4.05 0.4 8.32-0.75 12.35-0.69 1.01-1.78 1.51 0.09 1.7 1.61 2.2 0.41 6.3-2.55 6.65-1.42 0.25-3.54 0.29-4.32-1.19zm45.047-53.09c-2.823-2.54-3.146-6.95-1.227-10.12 1.929-3.23 4.832-6.74 8.867-7.01 2.429-0.21 4.115 1.89 6.314 2.43 0.475-2.18-0.7-4.64-0.89-6.93-0.801-2.44 1.111-1.74 1.661-0.09 1.598 2.96 2.901 6.28 2.73 9.69-0.798 0.76-3.082-0.69-2.469 1.71 0.841 4.74-2.209 9.2-5.913 11.84-2.877 1.73-6.793 0.76-9.073-1.52zm-34.657-2.55c-0.96-2.56-3.68-2.79-5.76-3.64-0.95-2.63-3.1-4.64-4.81-6.81-2.75-3.39-6.14-6.22-8.7-9.76-1.62-2.45 2.92-1.77 3.54-3.9 1.13-0.74 3.16-4.72 0.47-2.85-1.14 2.35-6.19 2.44-3.95-0.81 2-2.37 4.66-4.34 7.67-5.17 2.74 0.14 4.54-2.36 7.31-2.35 2.39-0.13 4.7-1.06 6.35-2.38 1.87 0.74 3.6 0.29 5.08-0.75 3.02 0.54 5.63 2.31 8.41 3.53 0.7 0.4-1.02 1.12-1.35 1.66-1.78 1.64-3.85 3.1-5.06 5.22 1.45 1.94 4.23 2.13 6.06 3.66 3.29 1.41 0.59 6.22-2.24 3.92-2.44-1.01-4.64-3.14-7.41-2.98-1.98 1.21-4.34 1.27-6.48 0.34-2.3-0.68-5.11-2.14-7.25-0.36-1.18 0.7-5.32 0.65-2.43-0.96 1.55-0.55 2.48-3.43-0.04-2.4-2.27 1.4-4.22 3.55-5.16 6.06-0.55 4.03 3.15-2.44 3.92 0.64 0.53 1.86-2.96 2.71-0.39 4.13 1.56 1.35 0.97 0.34 0.86-0.83 2.4-0.58 5.5 2.28 5.07 4.78-0.74 2.41 2.1 4.06 3.9 5.08 2.38 0.64 4.26 2.57 4.07 5.17-0.02 1.31 0.56 4.11-0.01 4.52-0.6-0.89-1.14-1.83-1.67-2.76zm20.702-17c-1.445-2.88 3.631-4.08 4.956-1.99 0.821 2.83-3.498 3.97-4.956 1.99zm-28.502-0.56c-0.16-1.42 2.77-5.61 3.36-2.96 0.02 1.01-2.56 4.93-3.36 2.96zm7-2.44c0.21-2.93 3.15 2.27 0.31 0.71l-0.22-0.32-0.09-0.39zm0.35-21.46c1.07-1.93 6.21-0.52 3.16 1.08-1.02 0.39-6.54 0.98-3.16-1.08zm8.15-1.54c-0.54-2.53 3.04 0.6 0.84 0.93-0.35-0.23-0.61-0.58-0.84-0.93zm-39-3.29c-2.02-1.47-4.68-3.17-4.48-6.03-0.16-2.61-2.9-4.14-2.89-6.84-0.66-2.3 0.22-5.31 3.19-4.27 1.83 0.13 3.64 0.42 5.46 0.63-0.03 4.82-0.46 9.66-0.03 14.48-0.71 1.68 3.26 2.99 1.81 3.69-1.12-0.34-2.1-1.01-3.06-1.66zm-4.5-13.26c0.51-2.35-1.87-2.41-1.92-0.19-0.88 1.79 1.66 4.13 1.84 1.18l0.06-0.48 0.02-0.51zm52.36 6.59c-0.23-2.83-0.86-6.19-3.44-7.83-2.83-0.93-5.9-0.33-8.83-0.26-3.26 0.22-6.49 0.8-9.65 1.61-2.54 0.55-4.91-0.81-7.42-0.98-3.26-0.57-6.66-0.62-9.88-1.24 2.95-0.42 6.18 0.24 8.93-1.15 1.38-2.54 4.68-1.93 7.12-2.16 3.75 0.03 7.59-0.27 11.26 0.61 1.46 2.01 4.45 1.13 6.67 1.19 2.63-0.18 5.26-0.37 7.882-0.56-0.126 4.23 0.41 8.55-0.742 12.67-1.55 3.07-2-0.47-1.9-1.9zm-44.36-9.04c1.11-2.9 4.97 1.17 1.2 0.98-0.52-0.07-1.17-0.37-1.2-0.98zm15.09-5.4c6.6-1.29 13.51-0.59 20.03-2.45 2.24-1.26 4.42-2.73 6.75-3.87-1.24-0.02-5.76-0.63-2.67-2.11 3.26-1.21 6.78-1.96 10.27-1.78 2.689 1.5 3.127-1.54 4.221-3.13 2.899-0.49 2.34 4.06 0.014 4.7-2.471 1.44-2.125 6.03 1.339 4.89 4.844-0.78 8.919-4.17 13.864-4.47 1.517-0.14 2.113 1.36 0.234 1.34-2.847 0.45-5.673 1.44-7.885 3.33-3.658 1.68-7.821 1.63-11.748 2.14-10.779 0.92-21.579 1.79-32.399 1.77-0.51-0.12-1.77 0.11-2.02-0.36zm44.912-0.08c2.412-1.94 5.356-3.22 8.188-4.46 3.062-1.05-0.696 1.74-1.652 2.1-2.074 0.9-4.238 2.8-6.487 2.62l-0.049-0.26zm-85.502-2.51c-2.46-2.41-5.45-4.38-7.39-7.26 1.39-0.51 3.66 1.94 5.46 2.32 4.35 2.01 9 3.34 13.29 5.46-2.22 1.02-5.51 0.23-8.1 0.18-1.09-0.17-2.26-0.18-3.26-0.7zm14.5-3.09c0.54-2.59-1.24-4.16-3.37-5.02-1.98-2.12 1.14-3.28 1.81-4.7-0.63-1.51-1.82-3.57 0.54-4.21 1.74-2.64 1.63-6 1.98-9.04 0.37-3.64 0.02-7.36 0.73-10.95 1.6-1.52 4.2 0.71 6.26 0.67 11.44 2.24 23.2 2.7 34.82 1.95 4.82-0.28 9.55-1.24 14.16-2.6 1.595-0.29 4.465-1.83 3.83 1.08 0.53 5.7 0.277 11.48 1.335 17.12-0.193 1.99 4.727 3.88 0.842 4.43-4.615 1.47-9.287 2.87-14.157 3.16-3.34 0.43-6.79-0.16-10.05 0.76-0.32 2.17-4.23 3.06-5.85 1.46-4.21-1.74-8.84-1.9-13.29-2.67 0.47-0.09 1.68-0.18 2.43-0.27 4-0.47 8.03-0.69 11.98-1.43 0.54-1.2-4.87-0.12-4.02-2.63-1.52-1.88-2-4.32-1.16-6.61 0.19-2.26 1.27-4.85 0.11-6.96-2.23-1.47-5.05-1.59-7.62-2.12-4.76-0.77-9.57-1.12-14.36-1.6 0.97 2.31 1.89 4.9 0.84 7.36-1.54 2.19 2.27 5.18-0.24 6.53-3.22 0.97 0.21 3.38 1.84 3.9 1.37 0.66 2.74 1.32 4.11 1.97-2.16 0.35-4.64 0.01-6.43 1.44-1.2 2.07-4.26-0.58-6.01 0.57 0.91 2.13 3.89 2.59 5.88 3.52 1.09 0.68 4.55 1.26 4.1 2.53-2.56 0.27-5.13-0.84-7.68-0.32 0.41 1.9 3.9 2.37 5.53 3.6 1.09 0.9 4.36 1.65 4.18 2.94-4.28 0.26-8.58-0.12-12.86-0.17-0.48-0.4-0.07-1.67-0.21-2.4v-1.29zm52.35-10.87c2.39-1.17 1.61-4.49 1.96-6.66 0.24-3.44-0.21-7 0.75-10.35 0.45-1.91 4.922-2.15 4.268-3.82-2.368 0.57-4.668 1.54-7.148 1.75-4.68 0.72-9.6 0.71-14.01 2.65-1.75 1.39 0.23 4.23-0.2 6.29 0.29 3.4-0.13 6.89 0.74 10.21 1.23 2.07 4.21 1.12 6.21 1.22 2.5-0.23 5.03-0.51 7.43-1.29zm-19.62 13.3c1.03-0.74 5.3 0.38 2.07 0.45-0.31 0-2.93 0.1-2.07-0.45zm-2.23-3.33c-1.66-0.23-3.33-0.47-5-0.7 4.32-0.19 8.63-0.56 12.93-0.8 1.28 0 4.44 0.64 4.2 1.38-3.35 0.09-6.67 0.94-10.03 0.37-0.7-0.07-1.4-0.15-2.1-0.25z"/>
 </g>
 <g id="g5098" fill-rule="evenodd" transform="translate(-640.96 -115)">
  <path id="path4782" d="m1002.8 772.25c0 13.57-4.13 16.43-11.96 20.34-63.3 26.03-67.18 27.35-67.18 27.35l12.96 5.62c28.9-11.56 63.07-25.24 66.78-26.72 11.7-4.69 13.5-14.61 13.5-23.75l-14.1-2.84zm-219.24 103.28c-1.48 0.56-2.25 0.85-2.25 0.81 0 0.03 0.91-0.3 2.25-0.81z" fill="url(#linearGradient6304)"/>
  <path id="path4794" d="m1015.9 774.94c0 4.5-0.4 10.24-2.3 14.25-1.8 4-5 7.45-10.6 9.72-3.7 1.47-37.8 15.12-66.56 26.62l0.09 2.09c28.94-11.57 63.47-25.39 67.17-26.87 6.1-2.43 9.7-6.31 11.7-10.72 2.1-4.41 2.5-10.46 2.5-15.09h-2z" fill="#f5efc8"/>
 </g>
 <g id="g3991" fill-rule="evenodd">
  <path id="path3949" d="m393.28 734.31c-1.56 0.15-2.83 1.31-3.11 2.85-0.29 1.54 0.49 3.09 1.89 3.78l39.06 20.56c1.71 0.91 3.83 0.26 4.74-1.45s0.25-3.83-1.45-4.74l-39.1-20.59c-0.62-0.34-1.33-0.48-2.03-0.41z" fill="#b3b3b3"/>
  <path id="path3989" d="m393.44 735.91c-0.86 0.08-1.54 0.7-1.69 1.53s0.27 1.68 1.03 2.06h0.03l39.07 20.56c0.94 0.5 2.07 0.18 2.56-0.75 0.49-0.92 0.15-2.06-0.78-2.56l-39.1-20.59c-0.01-0.01-0.02-0.02-0.03-0.04-0.33-0.18-0.71-0.25-1.09-0.21z" filter="url(#filter4019)" fill="#c2c2c2"/>
 </g>
 <g id="g3726">
  <g id="g3664">
   <path id="path3660" d="m921.78 276.75l8.53 31.28 2.28-0.03-8.5-31.25h-2.31zm-39.97 73.28c20.44-9.56 37.73-23.44 38.25-45.75-0.73-0.32-1.45-0.65-2.28-1.03 0 22.6-17.06 36.64-37.44 46.34l1.47 0.44z" fill="#f5efc8"/>
   <path id="path3652" d="m880.34 349.59c20.38-9.7 37.44-23.74 37.44-46.34 9.75 4.5 12.5 4.75 12.5 4.75l-8.5-31.25-29 17.75 12.25 4.75c0 20-19.5 37-34 43-0.42 0.17-6.01 2.39-6.75 2.69l16.06 4.65z" fill="#d60405"/>
  </g>
  <g id="g3668" fill-opacity=".39216">
   <path id="path2862" d="m881.81 350.03l-1.47-0.44c-3.29 1.57-6.65 3.06-10.06 4.41-10.51 4.18-50.88 20.41-94.12 37.81l-0.19 1.03c44.17-17.77 85.91-34.58 96.62-38.84 3.11-1.24 6.21-2.56 9.22-3.97z" fill="#f5efc8"/>
   <path id="path2858" d="m880.34 349.59l-16.06-4.65c-10.96 4.43-51.13 20.28-99.56 39.37l17.72 4.97c40.81-16.42 77.84-31.3 87.84-35.28 3.41-1.35 6.77-2.84 10.06-4.41z" fill="#d60405"/>
  </g>
  <g id="g3708">
   <path id="path2864" d="m776.16 391.81c-27.65 11.13-56.68 22.82-79.57 32.03-0.74 0.3-1.83 0.74-2.56 1.04-22.49 9.05-40.05 16.1-42 16.87-7 2.75-15.25 6-4.75 10 4.47 1.7 90.11 33.76 171.72 64.31 0.04 0.02 0.05 0.02 0.09 0.03l0.88-0.4-170.38-63.94c-10.5-4-2.25-7.25 4.75-10 3.94-1.55 64.8-26.04 121.63-48.91l0.19-1.03z" fill="#f5efc8"/>
   <path id="path3713" d="m764.72 384.31c-62.04 24.46-129.41 51.01-137.13 54.1-14.14 5.65-11.68 17.65 3.88 23.31 6.44 2.34 91.02 33.17 170.47 62.12l17.06-7.78c-81.61-30.55-167.25-62.61-171.72-64.31-10.5-4-2.25-7.25 4.75-10 4.14-1.63 71.24-28.66 130.41-52.47l-17.72-4.97z" fill="#d60405"/>
  </g>
 </g>
 <g id="g5220" stroke-width=".05" transform="translate(-640.96 -115)">
  <path id="path3698" opacity=".75" d="m1243.5 527.61c-4.7-0.18-8.9 2.75-12 10.12-11.3 26.93 21.9 40.7 46.7 47.85-0.1-0.25-0.2-0.5-0.2-0.75-1.5-6.93 2-13.55 7.8-14.75-12.4-18.95-29.5-41.98-42.3-42.47z" fill-rule="evenodd" stroke="#000" fill="url(#linearGradient6306)"/>
  <path id="path3704" opacity=".75" d="m1277.8 579.09c-24.8 7.18-57.6 20.93-46.3 47.72 11.6 27.41 37.6-6.72 54.5-32.75-3.8-1.37-7-5.13-8-10.03-0.4-1.69-0.4-3.36-0.2-4.94z" fill-rule="evenodd" stroke="#000" fill="url(#linearGradient6308)"/>
  <path id="path3712" opacity=".75" d="m1281.8 591.28c-8 33.04-16.4 80.5 6.6 80.5 22.8 0 14.7-46.54 6.8-79.53-1.2 1.08-2.6 1.85-4.2 2.19-3.4 0.69-6.7-0.59-9.2-3.16z" fill-rule="evenodd" stroke="#000" fill="url(#linearGradient6310)"/>
  <g id="g3510">
   <g id="g3395" transform="matrix(.34238 0 0 .34238 588.66 352.67)" stroke-width=".14604">
    <path id="path3397" d="m2040.5 711.14l27.5-10.9c13.9-5.5 21.5-23.26 17.8-41.43-4.2-20.28-21.2-33.93-38-30.46-1.4 0.29-2.7 0.67-4.1 1.19l-27.5 10.91" fill="url(#linearGradient6312)"/>
    <path id="path3399" d="m1294.8 584.75a10.75 13 0 1 1 -21.6 0 10.75 13 0 1 1 21.6 0z" transform="matrix(2.826 -.58363 .58363 2.826 -1941.6 -227.27)" fill="#891799"/>
   </g>
   <g id="g3463" stroke-width=".05">
    <path id="path3433" d="m1181.6 629.28l100.7-39.22c2.3-0.85 3.7-3.2 3.2-5.59-0.4-2.39-2.5-4.13-5-4.09-0.6 0.01-1.2 0.13-1.8 0.37l-100.6 39.19c0.8 1.85 1.7 3.75 2.4 5.87 0.5 1.21 0.7 2.31 1.1 3.47zm-53.9 20.8l33-12.85c1.8-0.59 3-2.09 3.3-3.9 0.4-1.81-0.4-3.62-1.8-4.75-1.5-1.13-3.4-1.39-5.1-0.66l-32.9 12.81c0.3 1.18 0.6 2.3 1.1 3.53 0.7 2.1 1.6 3.98 2.4 5.82z" fill-rule="evenodd" fill="url(#linearGradient3906)"/>
   </g>
   <g id="g3387" transform="matrix(1.0942 0 0 1.0942 -1118.8 -85.145)" stroke-width=".045694">
    <path id="path3389" d="m2040.5 711.14l10.6-4.18c13.8-5.5 21.5-23.26 17.7-41.43-4.2-20.28-21.2-33.92-37.9-30.46-1.4 0.29-2.8 0.67-4.1 1.19l-10.6 4.19" fill="url(#linearGradient6312)"/>
    <path id="path3391" d="m1294.8 584.75a10.75 13 0 1 1 -21.6 0 10.75 13 0 1 1 21.6 0z" transform="matrix(2.826 -.58363 .58363 2.826 -1941.6 -227.27)" fill="#390940"/>
   </g>
   <g id="g3377" transform="translate(-986.32 1.5)" stroke-width=".05">
    <path id="path3339" d="m2040.5 711.14l58.4-23.14c13.8-5.5 21.5-23.25 17.7-41.43-4.2-20.27-21.2-33.92-37.9-30.46-1.4 0.29-2.8 0.67-4.1 1.19l-58.4 23.15" fill="url(#linearGradient6312)"/>
    <path id="path3323" d="m1294.8 584.75a10.75 13 0 1 1 -21.6 0 10.75 13 0 1 1 21.6 0z" transform="matrix(2.826 -.58363 .58363 2.826 -1941.6 -227.27)" fill="#891799"/>
   </g>
  </g>
  <path id="path3710" opacity=".75" d="m1298.6 578.97c0.1 0.25 0.1 0.49 0.2 0.75 1.4 6.93-2.1 13.52-7.8 14.72 16.9 25.97 42.7 59.64 54.2 32.37 11.4-26.92-21.8-40.7-46.6-47.84z" fill-rule="evenodd" stroke="#000" fill="url(#linearGradient6318)"/>
  <path id="path3708" opacity=".75" d="m1331.5 527.34c-12.9 0.5-30.2 23.86-42.5 42.88 3.8 1.38 7 5.13 8 10.03 0.4 1.69 0.4 3.36 0.2 4.94 24.7-7.18 57.5-20.94 46.3-47.72-3.2-7.38-7.3-10.31-12-10.13z" fill-rule="evenodd" stroke="#000" fill="url(#linearGradient6320)"/>
  <path id="path3566" opacity=".75" d="m1287 492.84c-19.4 0-16.5 33.63-10.3 63.97 3.1 4.41 6.2 8.89 9 13.19 2.9-0.13 5.7 1.15 7.9 3.38 8-33.04 16.4-80.54-6.6-80.54z" fill-rule="evenodd" stroke="#000" fill="url(#linearGradient6322)"/>
 </g>
 <path id="path3910" d="m867.54 421.94c-0.1 0-0.19 0.02-0.28 0.06l-144.97 62.06c-0.38 0.1-0.68 0.41-0.74 0.8-0.07 0.39 0.1 0.79 0.43 1.01 0.33 0.21 0.76 0.22 1.09 0l145-62.03c0.45-0.2 0.69-0.7 0.56-1.18s-0.6-0.79-1.09-0.72zm0 11.02c-0.1 0.02-0.19 0.05-0.28 0.09l-144.97 62.03c-0.51 0.22-0.75 0.81-0.53 1.32 0.21 0.51 0.8 0.74 1.31 0.53l145-62.07c0.45-0.2 0.69-0.7 0.56-1.18s-0.6-0.78-1.09-0.72zm0 10.69c-0.1 0.01-0.19 0.04-0.28 0.09l-144.97 62.68c-0.51 0.22-0.75 0.81-0.53 1.31 0.21 0.51 0.8 0.75 1.31 0.54l145-62.69c0.54-0.14 0.85-0.7 0.7-1.23-0.14-0.54-0.69-0.85-1.23-0.7zm0.09 10.85c-0.13 0-0.25 0.04-0.37 0.09l-144.97 62.95c-0.51 0.21-0.75 0.8-0.53 1.31 0.21 0.51 0.8 0.75 1.31 0.53l145-62.94c0.48-0.17 0.75-0.67 0.64-1.17-0.11-0.49-0.57-0.82-1.08-0.77zm-0.09 10.97c-0.1 0.01-0.19 0.03-0.28 0.07l-144.97 62.97c-0.38 0.1-0.68 0.41-0.74 0.8-0.07 0.39 0.1 0.79 0.43 1.01s0.76 0.22 1.09 0l145-62.94c0.45-0.2 0.69-0.7 0.56-1.18s-0.6-0.79-1.09-0.73zm0 10.7c-0.1 0.02-0.19 0.05-0.28 0.09l-144.97 63.6c-0.51 0.22-0.75 0.8-0.53 1.31 0.21 0.51 0.8 0.75 1.31 0.53l145-63.62c0.45-0.21 0.69-0.71 0.56-1.19-0.13-0.47-0.6-0.78-1.09-0.72zm0 10.82c-0.1 0.01-0.19 0.05-0.28 0.09l-144.97 63.99c-0.51 0.21-0.75 0.8-0.53 1.31 0.21 0.51 0.8 0.75 1.31 0.53l145-63.99c0.54-0.14 0.85-0.69 0.7-1.23-0.14-0.54-0.69-0.85-1.23-0.7zm0.09 10.91c-0.13 0.01-0.25 0.04-0.37 0.1l-144.97 64.12c-0.51 0.21-0.75 0.8-0.53 1.31 0.21 0.51 0.8 0.75 1.31 0.53l145-64.12c0.48-0.17 0.75-0.67 0.64-1.16s-0.57-0.83-1.08-0.78zm-0.09 54c-0.1 0-0.19 0.02-0.28 0.06l-144.97 66.75c-0.38 0.1-0.68 0.41-0.74 0.8-0.07 0.39 0.1 0.79 0.43 1.01s0.76 0.22 1.09 0l145-66.72c0.45-0.2 0.69-0.7 0.56-1.18s-0.6-0.79-1.09-0.72zm0 10.92c-0.1 0.02-0.19 0.05-0.28 0.09l-144.97 67.11c-0.51 0.21-0.75 0.8-0.53 1.31 0.21 0.51 0.8 0.75 1.31 0.53l145-67.13c0.45-0.2 0.69-0.71 0.56-1.19-0.13-0.47-0.6-0.78-1.09-0.72zm0.09-53.92c-0.13 0.01-0.25 0.04-0.37 0.1l-144.97 64.58c-0.51 0.21-0.75 0.8-0.53 1.31 0.21 0.51 0.8 0.75 1.31 0.53l145-64.58c0.48-0.17 0.75-0.67 0.64-1.16-0.11-0.5-0.57-0.83-1.08-0.78zm0 11c-0.13 0.01-0.25 0.04-0.37 0.1l-144.97 64.94c-0.51 0.22-0.75 0.81-0.53 1.32 0.21 0.51 0.8 0.74 1.31 0.53l145-64.95c0.48-0.17 0.75-0.67 0.64-1.16-0.11-0.5-0.57-0.83-1.08-0.78zm0 11c-0.13 0.01-0.25 0.04-0.37 0.09l-144.97 64.95c-0.51 0.22-0.75 0.81-0.53 1.32 0.21 0.51 0.8 0.74 1.31 0.53l145-64.95c0.48-0.17 0.75-0.67 0.64-1.16-0.11-0.5-0.57-0.83-1.08-0.78zm0 11c-0.13 0.01-0.25 0.04-0.37 0.09l-144.97 65.32c-0.51 0.22-0.75 0.8-0.53 1.31 0.21 0.51 0.8 0.75 1.31 0.53l145-65.31c0.48-0.17 0.75-0.67 0.64-1.17-0.11-0.49-0.57-0.82-1.08-0.77z" fill-rule="evenodd" fill="#2ad4ff"/>
 <g id="g5263" fill-rule="evenodd" transform="translate(-640.96 -115)">
  <path id="path4078" d="m1513.5 520.84c0 0.01-0.1 0.04-0.2 0.07l-155 66.31c-0.3 0.12-0.5 0.42-0.5 0.75v170.75c0 0.27 0.2 0.52 0.4 0.67 0.2 0.16 0.5 0.18 0.8 0.08l154.9-75.35c0.3-0.12 0.5-0.42 0.5-0.75v-161.71c0-0.24-0.1-0.46-0.2-0.61-0.2-0.16-0.4-0.23-0.7-0.21z" fill-opacity=".27326" fill="#2ad4ff"/>
  <path id="path3905" d="m1356.7 760.22v-172.88-0.65l0.5-0.28 157-67.16 1.4-0.59v1.5 130.87c-1-0.37-1-0.38-2-0.75v-128.62l-154.9 66.31v170.75l154.9-75.87v-18.23c0.7 0.27 1.3 0.46 2 0.72v18.17 0.68l-0.6 0.25-157 76.68-1.3 0.63v-1.53z" stroke="#fff" stroke-width=".05"/>
 </g>
 <g id="g3700">
  <path id="path3898" d="m801.92 523.86c108.95 39.7 229.78 83.67 229.78 83.39l11.2-7.38s-117.09-43.82-223.91-83.81" fill="#f00"/>
  <path id="path4091" d="m819.97 515.69l-0.88 0.4 223.81 83.79-11.2 7.34c0.3 0.12 2.3 0.04 2.3 0.03l11.2-7.37s-214.73-80.19-225.23-84.19z" fill="#f5efc8"/>
  <path id="path4081" d="m801.92 523.86c108.95 39.7 229.78 83.67 229.78 83.39l11.2-7.38s-117.09-43.82-223.91-83.81" fill="url(#linearGradient3858)"/>
 </g>
 <g id="g5123" transform="translate(-640.96 -115)">
  <path id="path4433" stroke-linejoin="round" d="m1294.8 584.75a10.75 13 0 1 1 -21.6 0 10.75 13 0 1 1 21.6 0z" transform="matrix(6.0156 -1.2424 1.2424 6.0156 -7406.3 -1247.8)" stroke="#0e310c" stroke-linecap="round" stroke-width="1.9536" fill="none"/>
  <path id="path4453" d="m989.17 633.5l15.23-16.79-33.65-1.83-11.48 16.7 29.9 1.92z" fill-rule="evenodd" fill="url(#linearGradient6324)"/>
  <path id="path4449" d="m983.76 651.52l7.02-22.95-37.8-1.25-4.93 29.05 35.71-4.85z" fill-rule="evenodd" fill="url(#linearGradient6326)"/>
  <path id="path4445" d="m982.23 663.68l3.61-21.61-42.24 4.66 1.06 23.73 37.57-6.78z" fill-rule="evenodd" fill="url(#linearGradient6328)"/>
  <path id="path4435" d="m983.23 657.59l-2.04 20.7-37.05 7.57-2.8-21.44 41.89-6.83z" fill-rule="evenodd" fill="url(#linearGradient6330)"/>
  <path id="path4385" d="m981.76 674.9l-41.28 8.87 3.66 23.75 41.23-10.44-3.61-22.18z" fill-rule="evenodd" fill="url(#linearGradient6332)"/>
  <path id="path4317" d="m986.67 605.22l32.63-13.04 12.8 2.35-27.4 13.56-18.03-2.87z" fill-rule="evenodd" fill="url(#linearGradient6334)"/>
  <path id="path4307" d="m999.98 604.96l34.42-14.35 13.9 10.18-25.4 12-22.92-7.83z" fill-rule="evenodd" fill="url(#linearGradient6336)"/>
  <path id="path4297" d="m1016.2 609.43l37.1-16.97 12 16.79-27.5 12.91-21.6-12.73z" fill-rule="evenodd" fill="url(#linearGradient6338)"/>
  <path id="path4287" d="m1033.4 615.66l37.3-14.09 12 21.4-31.6 11.74-17.7-19.05z" fill-rule="evenodd" fill="url(#linearGradient6340)"/>
  <path id="path4277" d="m1048 630.28l40.2-15.14 6.8 24.53-33.7 14.87-13.3-24.26z" fill-rule="evenodd" fill="url(#linearGradient6342)"/>
  <g id="g4273" fill-rule="evenodd" stroke-width=".05">
   <path id="path4201" d="m1101.8 634l-1.8 23.4-33.3 8.68-6.1-17.14-0.7-1.88 41.2-14.94 0.7 1.88z" fill="url(#linearGradient6344)"/>
   <path id="path4195" d="m1101.1 632.12l-41.2 14.94 0.7 1.88 41.2-14.94-0.7-1.88z" fill-opacity=".58824" fill="#fff"/>
  </g>
  <g id="g4269" fill-rule="evenodd" stroke-width=".05">
   <path id="path4182" d="m1111.8 652.34l-7.7 26.83-31 7.7-2.6-19.53-0.7-1.87 41.3-15 0.7 1.87z" fill="url(#linearGradient6346)"/>
   <path id="path4190" d="m1111.1 650.47l-41.3 15 0.7 1.87 41.3-15-0.7-1.87z" fill-opacity=".58824" fill="#fff"/>
  </g>
  <g id="g4264" stroke-width=".05">
   <g id="g4179" stroke-width=".05">
    <path id="path4174" d="m1114.5 673.22l-8.5 25.56-38.8 15.5 8.6-25.53-0.8-1.87 38.8-15.5 0.7 1.84z" fill-rule="evenodd" fill="url(#linearGradient6348)"/>
   </g>
   <path id="path4168" d="m1113.8 671.38l-38.8 15.5 0.8 1.87 38.7-15.53-0.7-1.84z" fill-opacity=".58824" fill-rule="evenodd" fill="#fff"/>
  </g>
  <g id="g4164" fill-rule="evenodd" stroke-width=".05">
   <path id="path4159" d="m1115.1 693.56l-0.8-1.84-39.1 16.06 0.8 1.84-7.4 22.15 39.1-16.06 7.4-22.15z" fill="url(#linearGradient6350)"/>
   <path id="path4153" d="m1114.3 691.72l-39.1 16.06 0.8 1.84 39.1-16.06-0.8-1.84z" fill-opacity=".58824" fill="#fff"/>
  </g>
  <g id="g4145" fill-rule="evenodd" stroke-width=".05">
   <path id="path4140" d="m1109.3 715.19l-0.7-1.88-39.3 14.94 0.7 1.87-11 16.77 39.3-14.94 11-16.76z" fill="url(#linearGradient6352)"/>
   <path id="path4134" d="m1108.6 713.31l-39.3 14.94 0.7 1.87 39.3-14.93-0.7-1.88z" fill-opacity=".58824" fill="#fff"/>
  </g>
  <g id="g4149" fill-rule="evenodd" stroke-width=".05">
   <path id="path4129" d="m1101.8 729.31l-0.7-1.84-36.1 14.22 0.7 1.87-18.6 15.48 36.1-14.22 18.6-15.51z" fill="url(#linearGradient6354)"/>
   <path id="path4123" d="m1101.1 727.47l-36.1 14.22 0.7 1.87 36.1-14.25-0.7-1.84z" fill-opacity=".58824" fill="#fff"/>
  </g>
  <path id="path4375" d="m985.11 691.6l-42.54 11.74 10.96 22.97 37.64-15.46-6.06-19.25z" fill-rule="evenodd" fill="url(#linearGradient6356)"/>
  <path id="path4365" d="m994.24 709.35l-42.8 16.17 14.88 15.4 36.78-16.7-8.86-14.87z" fill-rule="evenodd" fill="url(#linearGradient6358)"/>
  <path id="path4355" d="m1016.4 738.83l-9.6-17.48-45.18 19.57 21.4 14.61 33.38-16.7z" fill-rule="evenodd" fill="url(#linearGradient6360)"/>
  <path id="path4345" d="m1032.6 746.92l-11-13.04-43.02 19.57 24.52 11.74 29.5-18.27z" fill-rule="evenodd" fill="url(#linearGradient6362)"/>
  <path id="path4327" d="m1046.4 750.32l-8.6-8.09-44.34 20.61 21.44 5.74 31.5-18.26z" fill-rule="evenodd" fill="url(#linearGradient6364)"/>
  <path id="path4469" d="m1083.4 746.75l-21 12.94-32.2 11.5 21-12.94-0.7-1.88 32.2-11.5 0.7 1.88z" fill-rule="evenodd" fill="url(#linearGradient6366)"/>
  <path id="path4457" d="m1082.7 744.87l-32.2 11.5 0.7 1.88 32.2-11.5-0.7-1.88z" fill-opacity=".58824" fill-rule="evenodd" fill="#fff"/>
  <g id="g3701" fill-rule="evenodd" stroke-width=".05">
   <path id="path3696" d="m974.09 628s-19.25 22.25-26.5 26c1.8-0.34 2.92 0 2.92 0 8.47-4.81 22.41-19.54 26.48-25.99l-2.9-0.01zm-11.34 21.88s-0.96 0.72-3.31 1.65c-10.28 40.91 7.66 85.97 45.16 104.47 38 18.75 495.4 241.38 495.4 241.38l3-0.01c-3.7-1.77-456.2-223.4-494.1-242.08-37.99-18.75-54.16-63.72-46.15-105.41zm14.25 0.37c-0.03 0.13-0.04 0.25-0.06 0.37 4.15 0.38 9.65 0.38 9.65 0.38l-0.21-0.03c-2.9-0.07-7.03-0.25-9.38-0.72z" fill="#f5efc8"/>
   <path id="path3692" d="m1513.6 988.26s-449.6-218.26-487.1-236.76-60.5-47-49.5-101.25c3.75 0.75 12.5 0.75 12.5 0.75-11.25-1.75-12.5-23-12.5-23s-19.25 22.25-26.5 26c9.25-1.75 12.25-4.12 12.25-4.12-11.19 41.34 6.75 87.37 44.75 106.12s495.5 241.37 495.5 241.37l10.6-9.11z" fill="#d60405"/>
  </g>
  <path id="path4521" stroke-linejoin="round" d="m1294.8 584.75a10.75 13 0 1 1 -21.6 0 10.75 13 0 1 1 21.6 0z" transform="matrix(6.0156 -1.2424 1.2424 6.0156 -7444.3 -1233.7)" stroke="#0e310c" stroke-linecap="round" stroke-width="1.9536" fill="none"/>
 </g>
 <g id="g5090" fill-rule="evenodd" transform="translate(-640.96 -115)">
  <path id="path4724" d="m1008.6 576.28c-1.9 0.04-3.7 0.29-5.2 0.84-4.98 1.87-88.09 30.68-159.59 55.44l13.41 5.94c62.12-22.31 135.16-48.47 154.08-54.88 2.2-0.73 0.5 16.87 1.1 16.72l14.2 3.91c1.4-1.77 1.2-18.46 1.2-17.84 0-6-10.9-10.31-19.2-10.13zm-151.48 62.25z" fill="url(#linearGradient6368)"/>
  <path id="path4750" d="m1018.1 581.92c-0.9-0.05-1.5 0.05-2.6 0.34-1.4 0.37-6.1 1.98-13.6 4.59-7.46 2.61-17.62 6.21-29.54 10.44-23.83 8.46-54.68 19.51-85.25 30.47-10.95 3.93-19.37 6.97-29.9 10.75l0.12 2.06c10.69-3.84 19.2-6.9 30.44-10.94 30.56-10.96 61.42-22 85.25-30.46 11.91-4.24 22.09-7.83 29.58-10.44 7.5-2.61 12.4-4.26 13.4-4.53 2.3-0.62 4.3-0.13 6.6 0.78 1.1 0.45 2.1 0.99 2.7 1.5 0.7 0.5 0.8 0.98 0.8 0.87v16.72h2v-16.72c0-1.09-0.7-1.76-1.6-2.43-0.8-0.68-1.9-1.3-3.2-1.82-1.3-0.51-2.7-0.91-4.2-1.09-0.4-0.05-0.7-0.08-1-0.09zm-160.89 56.59z" fill="#f5efc8"/>
 </g>
 <g id="g5102" transform="translate(-640.96 -115)">
  <path id="path3598" d="m1145.9 760.34c0.1 0.37 0.2 0.7 0.3 1.07 0.4 6.42-1 10.48-4.8 14.34-3.8 3.79-8.2 5.32-12.9 4.56-1.8-0.29-53.4-24.34-127.9-59.59-68.62-32.5-126.85-60.03-129.38-61.19-12.1-5.55-21.57-0.46-22.47 12.13-0.28 3.85-0.03 5.43 1.25 8.4 3.42 7.95-3.79 4.07 144.12 77.82 149.88 74.7 140.58 69.68 144.78 78.84 1.6 3.48 2.1 5.66 2.3 10.4 0.2 5.5 0.1 6.34-1.8 9.85-3.3 6.39-9.4 8.56-16.8 6.03-1.8-0.6-60.9-30.82-131.29-67.16-70.42-36.33-129.25-66.4-130.75-66.81-5.3-1.43-9.76 2.08-11.34 8.94-1.01 4.37 0.13 9.05 2.78 11.44 2.17 1.94 310.8 161.06 319.4 164.62 8.1 3.42 10.3 3.56 17 1.35 3.3-1.12 36.9-17.93 83-41.69l53.7-27.6c4.2-2.97 8.2 2.94 3.1 5.64-43.1 22.17-131.5 67.25-135.1 68.71-6.9 2.8-12.5 3.45-17.5 2.03-2-0.56-6.3-2.28-9.6-3.81-15.9-7.51-315.29-162.23-317.59-164.16-11.69-9.77-5.06-31.85 9.62-32.06 2.02-0.03 4.77 0.38 6.13 0.94 1.35 0.55 59.9 30.64 130.12 66.87s128.92 66.27 130.32 66.75c3.9 1.29 7.3 0.42 9-2.31 1.2-1.88 1.4-3.15 1.2-7.57-0.3-6.02-2-9.84-5.8-13.68-1.8-1.79-38.1-20.25-138.53-70.32-150.31-74.95-140.99-69.87-145.59-79.24-2.11-4.3-2.29-5.23-2.26-11.41 0.03-5.86 0.28-7.19 1.91-10.35 5.36-10.33 16.03-13.9 27.41-9.18 2.14 0.88 60.52 28.44 129.76 61.25 135.9 64.41 129.6 61.68 134.1 58.34 3.1-2.24 4.3-5.55 4-10.56-0.1-1.85-0.6-3.47-1.3-5-1.2-2.79-3.2-5.17-6.4-7.28-3.2-2.12-41-19.55-147.76-68.81-106.79-49.27-145.29-67.37-147.28-69.16-3.47-3.13-4.98-6.08-4.84-9.53 0.13-3.43 2.72-7.01 6.44-8.91 1.66-0.85 104.1-36.71 178.34-62.69 21.3-7.43 37.1-13.11 51.1-17.97v0.04c0.7 1.06 1.4 2.41 2.1 4.09 0.3 0.58 0.4 1 0.6 1.53-12 4.26-34.8 12.19-53.8 18.88-16.9 5.94-27.21 9.59-47.84 16.81-69.62 24.35-127.38 44.85-128.35 45.56-2.38 1.75-2.59 4.43-0.56 6.75 1.14 1.31 44.21 21.52 144.09 67.63 99.86 46.1 138.06 63.59 146.86 67.87s13.8 10.77 14.7 18.56m-51.2-256.87c-0.2 0-4.3 1.38-11.2 3.78 0.6 1.05 1.2 2.19 1.7 3.47 0.4 0.74 0.6 1.45 0.9 2.16 6.5-2.33 10.2-3.68 10.2-3.76 0.7-0.64-0.7-5.65-1.6-5.65z" fill="#36217b"/>
  <path id="path3657" d="m1095.8 505.09c-1.3 0.49-3.1 1.12-3.6 1.29-1.8 0.61-4.5 1.53-7.7 2.65 0.3 0.54 0.5 1.1 0.7 1.69 0.1 0.08 0.1 0.16 0.1 0.25 0.1-0.01 0.1-0.02 0.1-0.03 3.3-1.16 5.8-2.06 7.5-2.69 0.5-0.16 2.1-0.77 3.4-1.25-0.1-0.63-0.3-1.32-0.5-1.91zm-26.8 9.32c-4.2 1.47-8.1 2.82-13.8 4.81-10.4 3.64-25.4 8.9-38.2 13.37-16.4 5.76-31.26 10.92-49.12 17.19-31.76 11.14-63.57 22.33-87.6 30.81-12.01 4.24-22.1 7.8-29.25 10.35-3.57 1.27-6.42 2.28-8.41 3-0.99 0.36-1.76 0.64-2.31 0.84-0.27 0.1-0.48 0.19-0.62 0.25-0.05 0.02-0.09 0.02-0.13 0.03-3.14 1.6-5.24 4.75-5.34 7.22-0.11 2.82 0.97 5.04 4.19 7.94 0.08 0.05 0.26 0.16 0.47 0.28 0.37 0.22 0.94 0.53 1.65 0.91 1.42 0.74 3.48 1.77 6.25 3.12 5.54 2.71 13.86 6.68 25.47 12.13 23.21 10.9 59.54 27.74 112.94 52.37 53.41 24.63 89.71 41.51 103.01 47.75 13.4 6.24 24.4 11.36 32.1 15 3.9 1.82 7 3.28 9.1 4.31 1.1 0.52 1.9 0.92 2.5 1.22 0.7 0.31 0.9 0.38 1.3 0.69 4.1 2.71 6.7 6.09 7.9 10.12 0.3 1.19 0.6 2.42 0.7 3.72 0.3 5.4-1.2 9.67-4.8 12.32-0.4 0.31-0.9 0.79-1.8 1.25-0.8 0.45-2.1 0.64-3.4 0.47-2.7-0.35-6.6-1.76-14.6-5.26-16-6.98-48.4-22.41-116.4-54.62-34.6-16.4-66.5-31.49-90.02-42.59-11.76-5.55-21.39-10.1-28.25-13.32-3.43-1.61-6.16-2.88-8.09-3.78-1.94-0.9-3.22-1.47-3.28-1.5-10.64-4.41-19.9-1.29-24.85 8.25-1.56 3.03-1.66 3.6-1.69 9.41-0.03 6.15-0.01 6.3 2.07 10.53 1.24 2.52 1.28 3.47 3.12 5.22 1.84 1.74 5.72 4.29 14.19 8.9 16.94 9.23 52.22 26.71 127.38 64.19 50.22 25.03 84.42 42.18 106.22 53.28 11 5.55 18.8 9.6 24.1 12.38 2.6 1.39 4.6 2.46 6 3.25 0.7 0.39 1.2 0.69 1.6 0.97 0.4 0.27 0.7 0.4 1.1 0.81 4.1 4.11 6 8.69 6.4 15.03 0.1 2.25 0.1 3.76-0.1 5.13s-0.7 2.52-1.4 3.59c-2.2 3.57-6.8 4.64-11.3 3.16-0.3-0.11-0.4-0.14-0.5-0.22-0.2-0.08-0.4-0.18-0.7-0.31-0.5-0.27-1.3-0.63-2.2-1.1-1.9-0.94-4.6-2.3-8-4.03-6.8-3.45-16.5-8.39-28.3-14.44-23.6-12.1-55.8-28.66-90.96-46.78-35.11-18.11-67.29-34.69-90.87-46.81-11.79-6.06-21.41-11.01-28.19-14.47-3.39-1.73-6.07-3.09-7.94-4.03-0.93-0.47-1.67-0.84-2.18-1.1-0.52-0.25-0.97-0.46-0.75-0.37-0.79-0.32-3.63-0.84-5.35-0.81-12.6 0.18-18.55 19.72-8.53 28.37 0.04 0.03 0.14 0.11 0.22 0.16 0.16 0.09 0.38 0.2 0.69 0.37 0.62 0.35 1.53 0.85 2.68 1.47 2.32 1.24 5.66 3.01 9.88 5.22 8.43 4.43 20.37 10.65 34.69 18.09 28.63 14.9 66.75 34.64 105.31 54.57 38.6 19.93 77.6 40.03 107.9 55.62s52.2 26.76 55.9 28.53c3.2 1.49 7.6 3.22 9.3 3.69 4.5 1.27 9.6 0.73 16.2-1.97 0.1-0.02 1.1-0.48 2.5-1.15 1.3-0.68 3.2-1.6 5.5-2.75 4.6-2.32 11-5.53 18.5-9.32 14.9-7.58 34.4-17.52 53.9-27.43 19.4-9.92 38.7-19.81 53.2-27.29 7.2-3.73-1.1 0.62 3.2-1.61 0.3-0.13 0.4-0.18 0.6-0.31-0.1-0.2-0.2-0.38-0.3-0.56-0.1-0.16-0.2-0.32-0.3-0.47-0.1-0.08-0.1-0.17-0.2-0.25s-0.1-0.15-0.2-0.22c-0.1-0.13-0.2-0.25-0.4-0.37v-0.04l-56 28.68c-23.1 11.88-43 22.03-57.5 29.34-7.3 3.66-13.3 6.61-17.6 8.72-4.4 2.11-6.9 3.31-8.2 3.75-3.4 1.14-5.9 1.75-8.7 1.53-2.8-0.21-5.6-1.21-9.7-2.93-0.8-0.32-2.4-1.11-5.1-2.47-2.7-1.37-6.5-3.25-11.1-5.6-9.3-4.7-22.1-11.21-37.2-18.93-30.1-15.45-69.6-35.74-108.8-55.97-39.28-20.24-78.33-40.41-107.71-55.66-14.69-7.62-26.96-14.02-35.63-18.56-4.33-2.28-7.76-4.1-10.15-5.38-1.2-0.64-2.15-1.13-2.82-1.5-0.33-0.18-0.57-0.35-0.78-0.47-0.2-0.12-0.15 0.02-0.65-0.43-3.42-3.08-4.56-8.38-3.41-13.38 0.86-3.76 2.56-6.8 5-8.72s5.66-2.57 8.84-1.72c0.41 0.11 0.41 0.14 0.6 0.22 0.18 0.08 0.41 0.19 0.69 0.31 0.54 0.26 1.29 0.63 2.24 1.1 1.91 0.94 4.59 2.28 8 4 6.84 3.45 16.53 8.38 28.38 14.44 23.7 12.11 56.04 28.73 91.25 46.9 35.25 18.17 67.55 34.8 91.35 46.97 11.9 6.09 21.7 11.05 28.6 14.53 3.4 1.74 6.1 3.11 8 4.06 1 0.48 1.7 0.84 2.3 1.1 0.3 0.17 0.6 0.32 0.7 0.37 0.1 0.01 0.1 0 0.1 0v0.03c3.4 1.14 6.2 1.16 8.6 0.32 2.3-0.85 4.3-2.57 5.8-5.41 1.8-3.43 1.7-3.36 1.5-8.81-0.2-4.65-0.6-6.34-2.1-9.66-1.1-2.48-1.1-3.36-2.9-5.06s-5.6-4.26-14-8.84c-16.9-9.18-52.1-26.62-126.98-63.97-73.96-36.87-109.12-54.34-126.31-63.63-8.6-4.64-12.7-7.21-15.1-9.37-2.39-2.16-2.88-4.04-3.65-5.85-1.35-3.12-1.69-5.36-1.41-9.34 0.48-6.78 3.41-11.94 8.09-14.47 4.69-2.52 10.78-2.3 17.22 0.66 1.42 0.65 16.48 7.78 39.94 18.87s55.18 26.09 89.5 42.35c37.2 17.62 68.7 32.45 91.2 42.9 11.2 5.23 20.1 9.35 26.4 12.19 3.1 1.42 5.5 2.53 7.2 3.28 0.9 0.37 1.6 0.66 2 0.84 0.3 0.1 0.5 0.15 0.6 0.19 4.1 0.64 7.6-0.58 11-4 3.6-3.53 4.7-6.68 4.3-12.78-0.1-0.77-0.4-1.47-0.5-2.22-1.2-6.48-5.6-11.9-13.4-15.72-0.4-0.21-5.1-2.4-12.9-6-7.7-3.59-18.7-8.63-32-14.78s-52-24.01-101.9-47.06c-49.94-23.05-85.69-39.64-109.09-50.63-11.71-5.49-20.32-9.59-26.1-12.4-2.89-1.4-5.05-2.47-6.56-3.25-0.76-0.39-1.33-0.71-1.78-0.97-0.22-0.13-0.42-0.26-0.59-0.38-0.18-0.11-0.29-0.14-0.63-0.53-1.29-1.47-2.02-3.25-1.87-5.06 0.14-1.81 1.18-3.48 2.74-4.62 0.53-0.39 0.49-0.27 0.66-0.35 0.17-0.07 0.37-0.15 0.63-0.25 0.51-0.2 1.21-0.5 2.12-0.84 1.82-0.68 4.46-1.61 7.78-2.81 6.65-2.41 16.12-5.81 27.75-9.94 23.27-8.26 55.13-19.48 89.94-31.66 18.85-6.59 32.4-11.36 48.5-17.03 13.7-4.8 30.5-10.68 41.1-14.41 5-1.78 8.3-2.94 12-4.24-0.4-0.78-0.7-1.34-1.1-1.97z" filter="url(#filter4968)" fill="#04c0f7"/>
 </g>
 <g id="g5364" transform="translate(-640.96 -115)">
  <path id="path2393" d="m981.1 530.26l-180.61-74.56v335.62l188.03 102.49v-66.81l-53.02-49.75 8.75-7.75-29.25-57.25 23.5-0.75 1.5-16.25 12-13.25-0.25-11-15.5-12-9.5-83.25 59.5-19.13-5.15-26.36z" fill-rule="evenodd" fill-opacity=".87791" stroke="#000" stroke-width=".05" fill="#95320c"/>
  <path id="path2429" d="m1016.1 517.39l-35 12.87-180.61-74.56 32.93-11.19 182.68 72.88z" fill-rule="evenodd" stroke="#000" stroke-width=".05" fill="url(#linearGradient6370)"/>
  <path id="path3203" d="m981.1 530.26l35-12.87v5.95l-29.65 10.62 4.36 22.67h-4.56l-5.15-26.37zm-49.82 44.04l-4.53 1.45 9.5 83.25 15.5 12 0.25 11-12 13.25-1.5 16.25h3.87l0.75-16.12 13.13-13.63-1.5-13.5-13.97-10.7-9.5-83.25zm-11.06 137.79l-5.22 0.16 29.25 57.25-8.75 7.75 53.03 49.75v66.81l38.17-19.65-4.9-2.38-27.8 14.22v-60.5l-54.25-49.75 9.5-8.5-29.03-55.16z" fill-rule="evenodd" fill-opacity=".84314" stroke="#000" stroke-width=".05" fill="#f5da81"/>
  <g id="g5173">
   <path id="path3232" d="m814.23 473.31l6.55-2.83 80.25 34.47-6.54 2.83-80.26-34.47z" fill-rule="evenodd" stroke="#000" stroke-width=".05" fill="url(#linearGradient6372)"/>
   <path id="path3237" d="m814.23 473.31l-16.7 59.67 80.25 34.47 16.71-59.67-80.26-34.47z" fill-rule="evenodd" stroke="#000" stroke-width=".05" fill="#e78514"/>
   <path id="path3239" d="m901.03 504.97l-6.53 2.81-16.72 59.69 23.31-9-0.06-53.5z" fill-rule="evenodd" stroke="#000" stroke-width=".05" fill="url(#linearGradient6374)"/>
   <path id="path3272" d="m826.55 489.82l4.1-1.78 50.37 21.64-4.11 1.77-50.36-21.63z" fill-rule="evenodd" stroke="#000" stroke-width=".05" fill="url(#linearGradient6376)"/>
   <path id="path3274" d="m826.55 489.82l-1.92 6.84 50.37 21.63 1.91-6.84-50.36-21.63z" fill-rule="evenodd" stroke="#000" stroke-width=".05" fill="url(#linearGradient6378)"/>
   <path id="path3276" d="m881.02 509.69l-4.1 1.76-1.92 6.84 6.02-2.86v-5.74z" fill-rule="evenodd" stroke="#000" stroke-width=".05" fill="url(#linearGradient6380)"/>
   <path id="path3280" d="m861.83 539.5a5.5792 6.2202 0 1 1 -11.16 0 5.5792 6.2202 0 1 1 11.16 0z" transform="matrix(.95175 .30689 -.30689 .95175 223.22 -245.02)" fill="#b8d30b"/>
   <path id="path3287" d="m873.8 525.12c0.23 0.04 0.47 0.12 0.69 0.19 2.93 0.95 4.46 4.36 3.41 7.62-0.83 2.58-3.02 4.29-5.35 4.44 2.74 0.48 5.56-1.36 6.54-4.37 1.05-3.27-0.48-6.68-3.41-7.63-0.62-0.2-1.25-0.29-1.88-0.25z" fill="#efd44c"/>
   <path id="path3292" d="m861.83 539.5a5.5792 6.2202 0 1 1 -11.16 0 5.5792 6.2202 0 1 1 11.16 0z" transform="matrix(.95175 .30689 -.30689 .95175 216.06 -225.58)" fill="#fe0746"/>
   <path id="path3294" d="m866.65 544.57c0.22 0.04 0.46 0.11 0.68 0.19 2.93 0.94 4.46 4.35 3.41 7.62-0.83 2.58-3.02 4.29-5.34 4.44 2.73 0.47 5.55-1.36 6.53-4.38 1.05-3.26-0.48-6.68-3.41-7.62-0.62-0.2-1.25-0.29-1.87-0.25z" fill="#f99352"/>
   <path id="path3296" d="m861.83 539.5a5.5792 6.2202 0 1 1 -11.16 0 5.5792 6.2202 0 1 1 11.16 0z" transform="matrix(1.9291 .62202 -.62202 1.9291 -484.24 -1049)" fill="#f8f7ba"/>
   <path id="path3298" d="m834.41 512.02c0.46 0.09 0.93 0.24 1.39 0.38 5.94 1.92 9.04 8.84 6.9 15.46-1.68 5.22-6.12 8.69-10.83 8.99 5.54 0.97 11.27-2.75 13.24-8.86 2.14-6.63-0.96-13.54-6.9-15.46-1.26-0.4-2.54-0.59-3.8-0.51z" fill="#ffef82"/>
  </g>
  <path id="path5344" d="m994.04 858.02l27.86 13.75-27.89 14.24 0.03-27.99z" fill="#1f160c"/>
 </g>
 <g id="g5086" fill-rule="evenodd" transform="translate(-640.96 -115)">
  <path id="path4808" d="m843.8 632.58c-48.45 16.78-89.12 30.85-89.12 30.85l-12.37-7.1-12.42 23.54 45.93-2.61-9.65-6s38.96-14.04 86.11-30.98c1.63-0.59 3.28-1.18 4.94-1.77" fill="url(#linearGradient6382)"/>
  <path id="path4835" d="m857.2 638.51c-49.37 17.72-91.15 32.77-91.15 32.77l-1.94 0.71 1.75 1.1 6.97 4.34-42.78 2.41 0.12 2 45.91-2.63 3.16-0.15-2.69-1.69-7.88-4.91c1.58-0.57 41.01-14.77 88.68-31.89" fill="#f5efc8"/>
 </g>
 <g id="g5094" fill-rule="evenodd" transform="translate(-640.96 -115)">
  <path id="path4844" d="m923.65 819.93c-61.34 24.6-142.35 56.76-142.35 56.43l-13.83-10.18-7.57 25.31 44.36 1.83-13.57-9.4s134.19-53.67 145.94-58.37" fill="url(#linearGradient6304)"/>
  <path id="path4853" d="m936.44 825.53c-11.75 4.7-146.16 58.45-146.16 58.45l-1.72 0.69 1.53 1.06 10.69 7.4-40.88-1.65-0.06 2 44.35 1.81 3.43 0.16-2.81-1.97-12.06-8.35c3.19-1.27 132.12-52.83 143.77-57.49" fill="#f5efc8"/>
 </g>
 <path id="path5488" d="m1006.6 727.6l-111.02 74.24" stroke="#000" stroke-width=".05" fill="none"/>
 <g id="g4259" fill-rule="evenodd" transform="translate(-2032.5 -9.8995)">
  <path id="path4141" d="m2896.8 693.63c-0.3 6.5-9.3 23-0.6 23 8.8 0 7.3-7.5 0.6-23z" fill="#128ddb"/>
  <path id="path4145" d="m2920.2 702.91c-0.5 1.85-1.1 3.75-1.5 5.43-0.6 2.31-0.7 4.31-0.5 5.1 0 0.39 0.1 0.43 0.1 0.44 0 0 0.2 0.12 0.8 0.12 1.8 0 2.6-0.39 2.8-0.66 0.3-0.26 0.6-0.73 0.5-2.18 0-1.74-0.9-4.72-2.2-8.25z" transform="translate(-21.5 .25)" filter="url(#filter4251)" fill="#fff"/>
 </g>
 <g id="g4263" fill-rule="evenodd" transform="translate(-2032.5 -9.8995)">
  <path id="path4255" d="m2905.5 712.63c-0.1 4.73-6.7 16.75-0.3 16.75s5.3-5.47 0.3-16.75z" fill="#128ddb"/>
  <path id="path4257" d="m2920.2 702.91c-0.5 1.85-1.1 3.75-1.5 5.43-0.6 2.31-0.7 4.31-0.5 5.1 0 0.39 0.1 0.43 0.1 0.44 0 0 0.2 0.12 0.8 0.12 1.8 0 2.6-0.39 2.8-0.66 0.3-0.26 0.6-0.73 0.5-2.18 0-1.74-0.9-4.72-2.2-8.25z" transform="matrix(.72826 0 0 .72826 780.3 207.67)" filter="url(#filter4251)" fill="#fff"/>
 </g>
 <g id="g2893">
  <text id="text5824" font-size="50.501px" y="184.50696" x="27.660515" font-family="Arial" xml:space="preserve" fill="#000000"><tspan id="tspan5826" y="184.50696" x="27.660515">INDOORS</tspan></text>
  <text id="text5828" xml:space="preserve" font-size="50.501px" y="96.506958" x="823.66052" font-family="Arial" fill="#000000"><tspan id="tspan5830" x="823.66052" y="96.506958">OUTDOORS</tspan></text>
  <text id="text5836" xml:space="preserve" font-size="35.505px" y="285.2276" x="102.25281" font-family="Arial" fill="#000000"><tspan id="tspan5838" x="102.25281" y="285.2276">Blower</tspan></text>
  <path id="path5840" d="m206 294l189 182" stroke="#000" stroke-linecap="round" stroke-width="3" fill="none"/>
  <text id="text5842" style="text-anchor:middle;text-align:center" font-size="35.505px" y="661.40839" x="96.696457" font-family="Arial" xml:space="preserve" fill="#000000"><tspan id="tspan5844" y="661.40839" x="101.62">Cooled </tspan><tspan id="tspan5846" y="696.91339" x="96.696457">air</tspan></text>
  <path id="path6260" d="m107 623l9-48" stroke="#000" stroke-linecap="round" stroke-width="3" fill="none"/>
  <path id="path6262" d="m127 707l28 30" stroke="#000" stroke-linecap="round" stroke-width="3" fill="none"/>
  <text id="text6264" style="text-anchor:middle;text-align:center" xml:space="preserve" font-size="35.505px" y="876.97693" x="240.66699" font-family="Arial" fill="#000000"><tspan id="tspan6272" x="240.66699" y="876.97693">Cooling coils</tspan></text>
  <text id="text6386" style="text-anchor:middle;text-align:center" font-size="35.505px" y="927.88861" x="899.18079" font-family="Arial" xml:space="preserve" fill="#000000"><tspan id="tspan6388" y="927.88861" x="899.18079">Indoor air</tspan></text>
  <text id="text6390" style="text-anchor:middle;text-align:center" xml:space="preserve" font-size="35.505px" y="553.88861" x="1039.1808" font-family="Arial" fill="#000000"><tspan id="tspan6392" x="1039.1808" y="553.88861">Outdoor air</tspan></text>
  <text id="text2722" style="text-anchor:middle;text-align:center" font-size="35.505px" y="314.88651" x="995.34015" font-family="Arial" xml:space="preserve" fill="#000000"><tspan id="tspan2724" y="314.88651" x="995.34015">Hot air</tspan></text>
  <text id="text2726" style="text-anchor:middle;text-align:center" xml:space="preserve" font-size="35.505px" y="186.61948" x="871.77667" font-family="Arial" fill="#000000"><tspan id="tspan2728" x="871.77667" y="186.61948">Condenser coils</tspan></text>
  <path id="path2732" d="m819.88 214.55l-111.92 160.41" stroke="#000" stroke-linecap="round" stroke-width="3" fill="none"/>
  <text id="text2727" style="text-anchor:middle;text-align:center" font-size="35.505px" y="247.64891" x="669.10046" font-family="Arial" xml:space="preserve" fill="#000000"><tspan id="tspan2729" y="247.64891" x="669.10046">Fan</tspan></text>
  <path id="path2731" d="m665.88 254.55l-17.92 148.41" stroke="#000" stroke-linecap="round" stroke-width="3" fill="none"/>
  <text id="text2733" style="text-anchor:middle;text-align:center" xml:space="preserve" font-size="35.505px" y="126.64891" x="600.10046" font-family="Arial" fill="#000000"><tspan id="tspan2735" x="600.10046" y="126.64891">Fan axle</tspan></text>
  <path id="path2737" d="m590.88 145.55l-11.92 345.41" stroke="#000" stroke-linecap="round" stroke-width="3" fill="none"/>
  <text id="text2739" style="text-anchor:middle;text-align:center" font-size="35.505px" y="204.9088" x="462.30145" font-family="Arial" xml:space="preserve" fill="#000000"><tspan id="tspan2741" y="204.9088" x="462.30145">Compressor</tspan></text>
  <path id="path2743" d="m464.88 216.55l27.08 118.41" stroke="#000" stroke-linecap="round" stroke-width="3" fill="none"/>
  <path id="path4966" d="m372.55 723.78l-114.39 116.12" stroke="#000" stroke-linecap="round" stroke-width="3" fill="none"/>
  <text id="text4025" style="text-anchor:middle;text-align:center" font-size="35.505px" y="808.97693" x="953.66699" font-family="Arial" xml:space="preserve" fill="#000000"><tspan id="tspan4027" y="808.97693" x="953.66699">Expansion valve</tspan></text>
  <path id="path4029" d="m700.55 741.78l109.61 51.12" stroke="#000" stroke-linecap="round" stroke-width="3" fill="none"/>
  <text id="text4031" style="text-anchor:middle;text-align:center" font-size="35.505px" y="879.97693" x="474.66699" font-family="Arial" xml:space="preserve" fill="#000000"><tspan id="tspan4033" y="879.97693" x="479.59055">Temperature </tspan><tspan id="tspan4037" y="915.48193" x="474.66699">sensing bulb</tspan></text>
  <path id="path4035" d="m421.96 754.54l50.2 91.36" stroke="#000" stroke-linecap="round" stroke-width="3" fill="none"/>
 </g>
</svg>