<?xml version="1.0" encoding="utf-8"?>
<!-- Generator: Adobe Illustrator 13.0.2, SVG Export Plug-In . SVG Version: 6.00 Build 14948)  -->
<!DOCTYPE svg PUBLIC "-//W3C//DTD SVG 1.1//EN" "http://www.w3.org/Graphics/SVG/1.1/DTD/svg11.dtd">
<svg version="1.1" xmlns="http://www.w3.org/2000/svg" xmlns:xlink="http://www.w3.org/1999/xlink" x="0px" y="0px" width="720px"
	 height="720px" viewBox="0 0 720 720" enable-background="new 0 0 720 720" xml:space="preserve">
<g id="background">
	<rect fill="#FFFFFF" width="720" height="720"/>
</g>
<g id="diagram">
	<linearGradient id="SVGID_1_" gradientUnits="userSpaceOnUse" x1="512.5" y1="402.3457" x2="512.5" y2="652.3185">
		<stop  offset="0" style="stop-color:#D6EEF9"/>
		<stop  offset="0.0056" style="stop-color:#D6EEF9"/>
		<stop  offset="0.6057" style="stop-color:#EBF7FD"/>
		<stop  offset="1" style="stop-color:#F3FAFE"/>
	</linearGradient>
	<rect x="328.667" y="402" fill="url(#SVGID_1_)" width="367.667" height="291"/>
	<radialGradient id="SVGID_2_" cx="500.6182" cy="460.2119" r="79.9559" gradientUnits="userSpaceOnUse">
		<stop  offset="0" style="stop-color:#FFFFFF"/>
		<stop  offset="0.8022" style="stop-color:#C6D1D7"/>
		<stop  offset="1" style="stop-color:#DBE2E6"/>
	</radialGradient>
	
		<circle fill="url(#SVGID_2_)" stroke="#000000" stroke-width="0.574" stroke-linecap="round" stroke-linejoin="round" cx="522.867" cy="493.901" r="40.863"/>
	<radialGradient id="SVGID_3_" cx="501.7666" cy="472.0752" r="59.7967" gradientUnits="userSpaceOnUse">
		<stop  offset="0" style="stop-color:#FFFFFF"/>
		<stop  offset="0.8022" style="stop-color:#C6D1D7"/>
		<stop  offset="1" style="stop-color:#DBE2E6"/>
	</radialGradient>
	
		<circle fill="url(#SVGID_3_)" stroke="#000000" stroke-width="0.287" stroke-linecap="round" stroke-linejoin="round" cx="522.867" cy="493.901" r="30.332"/>
	<circle fill="#8EA3AF" stroke="#000000" stroke-width="0.574" cx="522.868" cy="493.901" r="4.736"/>
	<radialGradient id="SVGID_4_" cx="505.7832" cy="477.0488" r="83.3453" gradientUnits="userSpaceOnUse">
		<stop  offset="0" style="stop-color:#FFFFFF"/>
		<stop  offset="0.8022" style="stop-color:#C6D1D7"/>
		<stop  offset="1" style="stop-color:#DBE2E6"/>
	</radialGradient>
	<path fill="url(#SVGID_4_)" stroke="#000000" stroke-width="0.287" stroke-linecap="round" stroke-linejoin="round" d="
		M498.848,460.842l1.481,18.654c0,0-0.232-1.305,2.849-6.272c3.082-4.968,4.504-5.583,4.504-5.583l-8.832-6.799H498.848z"/>
	<radialGradient id="SVGID_5_" cx="505.7842" cy="477.0488" r="83.34" gradientUnits="userSpaceOnUse">
		<stop  offset="0" style="stop-color:#FFFFFF"/>
		<stop  offset="0.8022" style="stop-color:#C6D1D7"/>
		<stop  offset="1" style="stop-color:#DBE2E6"/>
	</radialGradient>
	<path fill="url(#SVGID_5_)" stroke="#000000" stroke-width="0.287" stroke-linecap="round" stroke-linejoin="round" d="
		M484.004,481.274l12.162,14.221c0,0-0.955-0.919-1.382-6.749s0.362-7.163,0.362-7.163L484.004,481.274L484.004,481.274z"/>
	<radialGradient id="SVGID_6_" cx="505.7852" cy="477.0488" r="83.3381" gradientUnits="userSpaceOnUse">
		<stop  offset="0" style="stop-color:#FFFFFF"/>
		<stop  offset="0.8022" style="stop-color:#C6D1D7"/>
		<stop  offset="1" style="stop-color:#DBE2E6"/>
	</radialGradient>
	<path fill="url(#SVGID_6_)" stroke="#000000" stroke-width="0.287" stroke-linecap="round" stroke-linejoin="round" d="
		M484.004,506.528l18.198,4.356c0,0-1.312-0.182-5.085-4.646c-3.772-4.467-3.918-6.009-3.918-6.009L484.004,506.528L484.004,506.528
		z"/>
	<radialGradient id="SVGID_7_" cx="505.7842" cy="477.0479" r="83.3398" gradientUnits="userSpaceOnUse">
		<stop  offset="0" style="stop-color:#FFFFFF"/>
		<stop  offset="0.8022" style="stop-color:#C6D1D7"/>
		<stop  offset="1" style="stop-color:#DBE2E6"/>
	</radialGradient>
	<path fill="url(#SVGID_7_)" stroke="#000000" stroke-width="0.287" stroke-linecap="round" stroke-linejoin="round" d="
		M498.848,526.96l17.284-7.173c0,0-1.17,0.625-6.846-0.77c-5.677-1.396-6.701-2.559-6.701-2.559L498.848,526.96L498.848,526.96z"/>
	<radialGradient id="SVGID_8_" cx="505.7842" cy="477.0479" r="83.339" gradientUnits="userSpaceOnUse">
		<stop  offset="0" style="stop-color:#FFFFFF"/>
		<stop  offset="0.8022" style="stop-color:#C6D1D7"/>
		<stop  offset="1" style="stop-color:#DBE2E6"/>
	</radialGradient>
	<path fill="url(#SVGID_8_)" stroke="#000000" stroke-width="0.287" stroke-linecap="round" stroke-linejoin="round" d="
		M522.867,534.765l9.767-15.962c0,0-0.579,1.192-5.991,3.4c-5.414,2.209-6.926,1.869-6.926,1.869L522.867,534.765L522.867,534.765z"
		/>
	<radialGradient id="SVGID_9_" cx="505.7822" cy="477.0479" r="83.3406" gradientUnits="userSpaceOnUse">
		<stop  offset="0" style="stop-color:#FFFFFF"/>
		<stop  offset="0.8022" style="stop-color:#C6D1D7"/>
		<stop  offset="1" style="stop-color:#DBE2E6"/>
	</radialGradient>
	<path fill="url(#SVGID_9_)" stroke="#000000" stroke-width="0.287" stroke-linecap="round" stroke-linejoin="round" d="
		M546.886,526.96l-1.481-18.653c0,0,0.233,1.305-2.847,6.272c-3.082,4.969-4.505,5.583-4.505,5.583L546.886,526.96L546.886,526.96z"
		/>
	<radialGradient id="SVGID_10_" cx="505.7842" cy="477.0488" r="83.3374" gradientUnits="userSpaceOnUse">
		<stop  offset="0" style="stop-color:#FFFFFF"/>
		<stop  offset="0.8022" style="stop-color:#C6D1D7"/>
		<stop  offset="1" style="stop-color:#DBE2E6"/>
	</radialGradient>
	<path fill="url(#SVGID_10_)" stroke="#000000" stroke-width="0.287" stroke-linecap="round" stroke-linejoin="round" d="
		M561.729,506.529l-12.161-14.222c0,0,0.954,0.92,1.382,6.749c0.428,5.831-0.362,7.165-0.362,7.165L561.729,506.529L561.729,506.529
		z"/>
	<radialGradient id="SVGID_11_" cx="505.7842" cy="477.0488" r="83.3372" gradientUnits="userSpaceOnUse">
		<stop  offset="0" style="stop-color:#FFFFFF"/>
		<stop  offset="0.8022" style="stop-color:#C6D1D7"/>
		<stop  offset="1" style="stop-color:#DBE2E6"/>
	</radialGradient>
	<path fill="url(#SVGID_11_)" stroke="#000000" stroke-width="0.287" stroke-linecap="round" stroke-linejoin="round" d="
		M561.73,481.274l-18.198-4.356c0,0,1.312,0.183,5.086,4.646c3.771,4.467,3.917,6.009,3.917,6.009L561.73,481.274L561.73,481.274z"
		/>
	<radialGradient id="SVGID_12_" cx="505.7842" cy="477.0488" r="83.3374" gradientUnits="userSpaceOnUse">
		<stop  offset="0" style="stop-color:#FFFFFF"/>
		<stop  offset="0.8022" style="stop-color:#C6D1D7"/>
		<stop  offset="1" style="stop-color:#DBE2E6"/>
	</radialGradient>
	<path fill="url(#SVGID_12_)" stroke="#000000" stroke-width="0.287" stroke-linecap="round" stroke-linejoin="round" d="
		M546.887,460.843l-17.283,7.172c0,0,1.168-0.624,6.845,0.771c5.678,1.396,6.701,2.558,6.701,2.558L546.887,460.843L546.887,460.843
		z"/>
	<radialGradient id="SVGID_13_" cx="505.7842" cy="477.0498" r="83.3367" gradientUnits="userSpaceOnUse">
		<stop  offset="0" style="stop-color:#FFFFFF"/>
		<stop  offset="0.8022" style="stop-color:#C6D1D7"/>
		<stop  offset="1" style="stop-color:#DBE2E6"/>
	</radialGradient>
	<path fill="url(#SVGID_13_)" stroke="#000000" stroke-width="0.287" stroke-linecap="round" stroke-linejoin="round" d="
		M522.868,453.038L513.102,469c0,0,0.578-1.192,5.989-3.4c5.415-2.208,6.926-1.869,6.926-1.869L522.868,453.038L522.868,453.038z"/>
	
		<line fill="none" stroke="#000000" stroke-width="0.574" stroke-linecap="round" stroke-linejoin="round" x1="498.822" y1="460.863" x2="500.329" y2="479.496"/>
	
		<line fill="none" stroke="#000000" stroke-width="0.574" stroke-linecap="round" stroke-linejoin="round" x1="522.868" y1="453.038" x2="513.102" y2="469"/>
	
		<line fill="none" stroke="#000000" stroke-width="0.574" stroke-linecap="round" stroke-linejoin="round" x1="546.887" y1="460.843" x2="529.604" y2="468.016"/>
	
		<line fill="none" stroke="#000000" stroke-width="0.574" stroke-linecap="round" stroke-linejoin="round" x1="561.729" y1="481.275" x2="543.532" y2="476.919"/>
	
		<line fill="none" stroke="#000000" stroke-width="0.574" stroke-linecap="round" stroke-linejoin="round" x1="561.729" y1="506.531" x2="549.567" y2="492.309"/>
	
		<line fill="none" stroke="#000000" stroke-width="0.574" stroke-linecap="round" stroke-linejoin="round" x1="546.883" y1="526.961" x2="545.403" y2="508.308"/>
	
		<line fill="none" stroke="#000000" stroke-width="0.574" stroke-linecap="round" stroke-linejoin="round" x1="522.863" y1="534.764" x2="532.631" y2="518.805"/>
	
		<line fill="none" stroke="#000000" stroke-width="0.574" stroke-linecap="round" stroke-linejoin="round" x1="498.845" y1="526.959" x2="516.129" y2="519.788"/>
	
		<line fill="none" stroke="#000000" stroke-width="0.574" stroke-linecap="round" stroke-linejoin="round" x1="484.002" y1="506.526" x2="502.2" y2="510.885"/>
	
		<line fill="none" stroke="#000000" stroke-width="0.574" stroke-linecap="round" stroke-linejoin="round" x1="484.004" y1="481.271" x2="496.164" y2="495.494"/>
	<g>
		<g>
			<line fill="none" stroke="#29ABE2" stroke-width="1.5" x1="447" y1="458.852" x2="511.416" y2="458.852"/>
			<polygon fill="#29ABE2" points="510.321,462.603 516.799,458.863 510.321,455.124 			"/>
		</g>
	</g>
	<g>
		<path fill="none" stroke="#00B42E" stroke-width="1.5" d="M570.007,480.347c3.306,11.488,2.446,24.207-3.382,35.714
			c-6.119,12.084-16.557,20.543-28.484,24.451"/>
		<polygon fill="#00B42E" points="538.013,536.606 533.021,542.177 540.342,543.713 		"/>
	</g>
</g>
<g id="body">
	<linearGradient id="SVGID_14_" gradientUnits="userSpaceOnUse" x1="248.2358" y1="199.8857" x2="358.3362" y2="390.5852">
		<stop  offset="0" style="stop-color:#FFFFFF"/>
		<stop  offset="0.6374" style="stop-color:#E0E6E9"/>
		<stop  offset="0.9231" style="stop-color:#B7C4CC"/>
		<stop  offset="1" style="stop-color:#CAD4D9"/>
	</linearGradient>
	<path fill="url(#SVGID_14_)" stroke="#2A2A2A" stroke-width="0.5747" d="M482.096,193.729
		c-30.635-53.061-98.484-71.242-151.545-40.606c-0.978,0.563-1.938,1.144-2.89,1.732l-160.949,93.086
		c-0.011,0.006-0.022,0.012-0.034,0.019c-53.061,30.635-71.242,98.484-40.606,151.546c29.377,50.882,92.972,69.683,144.935,44.129
		l0,0l0.003-0.003c2.225-1.096,4.43-2.262,6.609-3.52c2.205-1.271,4.343-2.615,6.427-4.014l152.706-88.242
		c1.59-0.819,3.17-1.678,4.738-2.582C494.551,314.64,512.732,246.79,482.096,193.729z"/>
</g>
<g id="left_sails">
	<path fill="#FFFFFF" stroke="#2A2A2A" stroke-width="0.5747" d="M307.184,400.667c-5.451,16.452-10.537,29.418-18.737,32.889
		l74.468,22.841L307.184,400.667z"/>
	<linearGradient id="SVGID_15_" gradientUnits="userSpaceOnUse" x1="154.666" y1="223.645" x2="332.239" y2="467.3048">
		<stop  offset="0" style="stop-color:#FFFFFF"/>
		<stop  offset="0.6593" style="stop-color:#E8EDEF"/>
		<stop  offset="0.9231" style="stop-color:#C6D1D7"/>
		<stop  offset="1" style="stop-color:#DAE1E5"/>
	</linearGradient>
	<path fill="url(#SVGID_15_)" stroke="#2A2A2A" stroke-width="0.5747" d="M236.804,207.47
		c-23.026,13.275-50.637,41.784-77.676,82.388c-8.129,12.207-15.775,24.809-22.766,37.552l41.652-132.923L236.804,207.47z"/>
	<linearGradient id="SVGID_16_" gradientUnits="userSpaceOnUse" x1="132.3384" y1="239.917" x2="309.9119" y2="483.5776">
		<stop  offset="0" style="stop-color:#FFFFFF"/>
		<stop  offset="0.6593" style="stop-color:#E8EDEF"/>
		<stop  offset="0.9231" style="stop-color:#C6D1D7"/>
		<stop  offset="1" style="stop-color:#DAE1E5"/>
	</linearGradient>
	<path fill="url(#SVGID_16_)" stroke="#2A2A2A" stroke-width="0.5747" d="M214.852,244.567c-4.162,6.324-8.133,12.926-12.128,20.103
		c-22.225,39.933-36.874,84.597-41.876,122.936l17.167-107.33L214.852,244.567z"/>
	<linearGradient id="SVGID_17_" gradientUnits="userSpaceOnUse" x1="203.1865" y1="352.9551" x2="307.3921" y2="457.1607">
		<stop  offset="0" style="stop-color:#FFFFFF"/>
		<stop  offset="1" style="stop-color:#C6D1D7"/>
	</linearGradient>
	<path fill="url(#SVGID_17_)" stroke="#2A2A2A" stroke-width="0.5747" d="M292.345,442.195l-35.633,7.273
		c-0.092-4.522,0.546-15.159,0.425-34.804c-0.091-14.896-0.125-32.289-0.202-50.949L292.345,442.195z"/>
	<linearGradient id="SVGID_18_" gradientUnits="userSpaceOnUse" x1="189.2769" y1="327.541" x2="237.4587" y2="410.9941">
		<stop  offset="0" style="stop-color:#FFFFFF"/>
		<stop  offset="1" style="stop-color:#C6D1D7"/>
	</linearGradient>
	<path fill="url(#SVGID_18_)" stroke="#2A2A2A" stroke-width="0.5747" d="M222.498,304.045
		c-19.722,51.482-27.358,100.983-18.43,130.152l17.616-59.306L222.498,304.045z"/>
</g>
<g id="rudder">
	<g>
		<linearGradient id="SVGID_19_" gradientUnits="userSpaceOnUse" x1="204.6367" y1="161.3975" x2="410.6525" y2="518.2274">
			<stop  offset="0" style="stop-color:#FFFFFF"/>
			<stop  offset="0.6593" style="stop-color:#E8EDEF"/>
			<stop  offset="0.9231" style="stop-color:#C6D1D7"/>
			<stop  offset="1" style="stop-color:#DAE1E5"/>
		</linearGradient>
		<path fill="url(#SVGID_19_)" d="M345.594,458.793c-20.538-0.002-40.418-8.987-53.478-16.525
			c-66.308-38.286-120.252-131.72-120.252-208.283c0-28.222,7.293-51.198,21.094-66.446c13.834-16.855,33.027-26.527,52.645-26.527
			c1.459,0,2.943,0.052,4.409,0.154c23.234,1.628,34.37,5.007,54.163,16.434c2.962,1.711,5.261,3.24,8.171,5.174l0.387,0.258
			l0.392,0.26l-0.408,0.229l-11.669,6.548l-56.509,33.156c-12.013,9.549-18.646,26.615-18.646,48.033
			c0,49.84,35.117,110.663,78.281,135.583c12.264,7.083,24,10.674,34.877,10.674c6.279,0,12.113-1.229,17.341-3.649l5.8-3.354
			l61.678-35.238l0.4-0.229l0.029,0.462c0.168,2.756,0.152,5.301,0.137,7.993c-0.006,0.787-0.01,1.58-0.01,2.384
			c0,31.028-8.676,55.389-25.09,70.453c-9.689,11.603-22.973,18.272-43.045,21.598C352.849,458.504,349.25,458.793,345.594,458.793
			L345.594,458.793z"/>
		<path fill="#2A2A2A" d="M245.606,141.297c1.446,0,2.91,0.051,4.385,0.154c23.659,1.657,34.606,5.177,54.041,16.397
			c3.087,1.783,5.514,3.41,8.543,5.423l-11.669,6.548l-56.512,33.158c-11.659,9.263-18.788,25.751-18.788,48.28
			c0,50.013,35.111,110.826,78.425,135.834c12.586,7.268,24.479,10.71,35.021,10.71c6.361,0,12.23-1.254,17.462-3.677l5.824-3.363
			c0,0,0-0.002,0.002-0.002l61.672-35.237c0.219,3.566,0.127,6.856,0.127,10.359c0,31.884-9.326,55.861-24.994,70.241
			c0,0.003,0,0.003,0,0.003c-8.936,10.694-21.213,17.932-42.9,21.524c-3.519,0.583-7.077,0.855-10.651,0.855
			c-18.459,0-37.346-7.26-53.333-16.489c-66.336-38.3-120.11-131.437-120.11-208.032c0-29.093,7.764-51.606,21.021-66.252l-0.001,0
			C205.497,152.717,223.861,141.297,245.606,141.297 M245.606,140.723c-19.705,0-38.979,9.711-52.88,26.644
			c-13.83,15.28-21.15,38.323-21.15,66.618c0,37.144,12.521,79.287,35.256,118.664c22.735,39.378,52.972,71.293,85.142,89.866
			c13.09,7.557,33.019,16.565,53.62,16.565c3.674,0,7.289-0.29,10.745-0.862c20.134-3.336,33.47-10.031,43.234-21.707
			c16.447-15.122,25.143-39.544,25.143-70.629c0-0.804,0.004-1.596,0.008-2.382c0.018-2.698,0.033-5.246-0.137-8.012l-0.057-0.922
			l-0.803,0.458l-61.672,35.237l-5.806,3.354c-5.185,2.396-10.97,3.611-17.196,3.611c-10.829,0-22.515-3.577-34.733-10.633
			c-43.085-24.875-78.138-85.587-78.138-135.336c0-21.311,6.583-38.286,18.539-47.805l56.477-33.138l11.659-6.542l0.819-0.459
			l-0.783-0.52l-0.434-0.289c-2.783-1.85-5.186-3.447-8.14-5.153c-19.841-11.455-31.002-14.842-54.288-16.473
			C248.561,140.775,247.072,140.723,245.606,140.723L245.606,140.723z"/>
	</g>
	<path opacity="0.1" fill="#001321" d="M423.668,355.352L362.34,390.76c-0.002,0-0.002,0.002-0.002,0.002l-5.824,3.363
		c-13.9,6.438-32.302,4.62-52.482-7.033c-43.314-25.008-78.425-85.821-78.425-135.834c0-22.529,7.128-39.017,18.788-48.28
		l56.917-32.86l11.628-6.749c-2.941-1.946-6.003-3.642-8.908-5.52c-13.051-8.433-23.918-11.907-35.403-14.205
		c-5.147-0.958-10.818-1.614-17.507-2.109c-39.876-0.463-67.335,31.002-67.335,85.734c0,76.595,53.774,169.734,120.11,208.032
		c39.21,22.64,74.032,21.041,95.952,0.132c0.309-0.292,0.611-0.596,0.912-0.896c0.926-0.919,1.834-1.866,2.709-2.857
		c0.01-0.011,0.021-0.023,0.031-0.034c12.943-14.658,20.502-36.972,20.502-65.687C424.004,362.455,423.889,358.917,423.668,355.352z
		"/>
</g>
<g id="far_sails">
	<linearGradient id="SVGID_20_" gradientUnits="userSpaceOnUse" x1="262.5693" y1="135.0322" x2="426.1573" y2="418.3749">
		<stop  offset="0" style="stop-color:#FFFFFF"/>
		<stop  offset="0.6593" style="stop-color:#E8EDEF"/>
		<stop  offset="0.9231" style="stop-color:#C6D1D7"/>
		<stop  offset="1" style="stop-color:#DAE1E5"/>
	</linearGradient>
	<path fill="url(#SVGID_20_)" stroke="#2A2A2A" stroke-width="0.5747" d="M436.752,347.857l-74.826,43.238
		c-0.766,0.47-1.529,0.925-2.286,1.362l58.827,13.024l18.473-57.725C436.877,347.789,436.814,347.824,436.752,347.857z"/>
	<linearGradient id="SVGID_21_" gradientUnits="userSpaceOnUse" x1="335.2812" y1="187.6685" x2="318.0414" y2="154.7213">
		<stop  offset="0" style="stop-color:#DAE1E5"/>
		<stop  offset="1" style="stop-color:#C6D1D7"/>
	</linearGradient>
	<path fill="url(#SVGID_21_)" stroke="#2A2A2A" stroke-width="0.5747" d="M327.661,154.854c0.952-0.588,1.912-1.169,2.89-1.732
		c0.721-0.416,1.445-0.819,2.171-1.217l-28.548,6.029l3.755,8.333L327.661,154.854z"/>
</g>
<g id="right_sails">
	<linearGradient id="SVGID_22_" gradientUnits="userSpaceOnUse" x1="220.6689" y1="159.2153" x2="384.2586" y2="442.561">
		<stop  offset="0" style="stop-color:#FFFFFF"/>
		<stop  offset="0.6593" style="stop-color:#E8EDEF"/>
		<stop  offset="0.9231" style="stop-color:#C6D1D7"/>
		<stop  offset="1" style="stop-color:#DAE1E5"/>
	</linearGradient>
	<path fill="url(#SVGID_22_)" stroke="#2A2A2A" stroke-width="0.5747" d="M307.96,228.492l-118.153-40.814l58.7,12.901
		c-5.309,3.105,5.031,9.672,32.141,19.151C288.846,222.596,297.89,225.5,307.96,228.492z"/>
	<linearGradient id="SVGID_23_" gradientUnits="userSpaceOnUse" x1="232.7607" y1="231.9653" x2="327.9318" y2="396.8071">
		<stop  offset="0" style="stop-color:#FFFFFF"/>
		<stop  offset="1" style="stop-color:#C6D1D7"/>
	</linearGradient>
	<path fill="url(#SVGID_23_)" stroke="#2A2A2A" stroke-width="0.5747" d="M189.809,272.977l142.331,15.71
		c-37.987-13.517-72.956-29.77-95.468-43.849c-3.911-2.447-7.292-4.756-10.151-6.922L189.809,272.977"/>
	<linearGradient id="SVGID_24_" gradientUnits="userSpaceOnUse" x1="260.4023" y1="136.2754" x2="423.9935" y2="419.6235">
		<stop  offset="0" style="stop-color:#FFFFFF"/>
		<stop  offset="0.6593" style="stop-color:#E8EDEF"/>
		<stop  offset="0.9231" style="stop-color:#C6D1D7"/>
		<stop  offset="1" style="stop-color:#DAE1E5"/>
	</linearGradient>
	<path fill="url(#SVGID_24_)" stroke="#2A2A2A" stroke-width="0.5747" d="M308.214,166.903L308.214,166.903l-74.735-23.417
		l78.347,29.433C310.89,169.308,309.669,167.322,308.214,166.903z"/>
	<path fill="none" stroke="#2A2A2A" stroke-width="0.5747" d="M411.312,362.558c3.668-1.988,7.205-4.031,10.598-6.125
		L411.312,362.558z"/>
	<linearGradient id="SVGID_25_" gradientUnits="userSpaceOnUse" x1="251.8818" y1="141.1924" x2="415.4744" y2="424.5431">
		<stop  offset="0" style="stop-color:#FFFFFF"/>
		<stop  offset="0.6593" style="stop-color:#E8EDEF"/>
		<stop  offset="0.9231" style="stop-color:#C6D1D7"/>
		<stop  offset="1" style="stop-color:#DAE1E5"/>
	</linearGradient>
	<path fill="url(#SVGID_25_)" stroke="#2A2A2A" stroke-width="0.5747" d="M441.49,345.275c-1.568,0.904-3.148,1.763-4.738,2.582
		l-14.842,8.576c-3.393,2.093-6.93,4.136-10.598,6.125c-25.256,13.689-56.869,24.792-92,31.637l13.642,13.643l41.84,41.839
		l71.76-107.508C444.902,343.241,443.215,344.279,441.49,345.275z"/>
	<linearGradient id="SVGID_26_" gradientUnits="userSpaceOnUse" x1="264.7886" y1="291.3501" x2="368.9964" y2="395.5579">
		<stop  offset="0" style="stop-color:#FFFFFF"/>
		<stop  offset="1" style="stop-color:#C6D1D7"/>
	</linearGradient>
	<path fill="url(#SVGID_26_)" stroke="#2A2A2A" stroke-width="0.5747" d="M428.674,350.547l-124.536,84.841l-35.359-78.295
		c21.175,6.174,45.105,9.656,70.438,9.662C372.479,366.764,403.307,360.754,428.674,350.547z"/>
	<linearGradient id="SVGID_27_" gradientUnits="userSpaceOnUse" x1="265.1377" y1="283.7427" x2="313.3194" y2="367.1954">
		<stop  offset="0" style="stop-color:#FFFFFF"/>
		<stop  offset="1" style="stop-color:#C6D1D7"/>
	</linearGradient>
	<path fill="url(#SVGID_27_)" stroke="#2A2A2A" stroke-width="0.5747" d="M375.285,335.347l-141.808,32.735l0.813-70.352
		C277.79,312.59,330.654,326.897,375.285,335.347z"/>
	<linearGradient id="SVGID_28_" gradientUnits="userSpaceOnUse" x1="276.5752" y1="190.9385" x2="270.0617" y2="163.3535">
		<stop  offset="0" style="stop-color:#DAE1E5"/>
		<stop  offset="1" style="stop-color:#C6D1D7"/>
	</linearGradient>
	<path fill="url(#SVGID_28_)" stroke="#2A2A2A" stroke-width="0.5747" d="M298.157,171.917c3.495-2.018,5.313-2.137,5.313-2.137
		l-69.992-26.295l42.468,41.277C275.947,184.763,294.661,173.936,298.157,171.917z"/>
</g>
<g id="cast_shadows">
	<path opacity="0.2" fill="#001321" d="M189.809,272.977l43.142,17.642c0,0,25.873-6.972,99.188-1.932L189.809,272.977z"/>
	<path opacity="0.2" fill="#001321" d="M233.478,368.082l47.085,15.133c0,0,37.638-24.901,94.723-47.868L233.478,368.082z"/>
	<path opacity="0.2" fill="#001321" d="M431.52,364.691l-56.725,84.984c0,0,17.014-4.699,28.676-17.997s14.996-26.197,14.996-26.197
		L431.52,364.691z"/>
	<path opacity="0.2" fill="#001321" d="M310.009,449.032c-3.559,2.055-3.873,0.189-3.873,0.189
		c32.277,13.889,48.537,8.688,50.109,8.429c21.687-3.593,33.964-10.83,42.9-21.524c0,0,0,0,0-0.003
		c8.297-7.614,14.791-17.946,19.09-30.693l0.232,0.052l13.053-40.79l15.035-22.524c-1.652,1.073-3.34,2.112-5.064,3.107
		c-1.506,0.868-3.023,1.692-4.551,2.482c-0.062,0.032-0.125,0.067-0.188,0.1l-7.201,4.16l-0.211,0.124l-0.002-0.001l-5.533,3.198
		c0-0.021-0.002-0.042-0.002-0.062l-13.562,7.83l-106.116,72.421C304.124,435.525,317.231,444.861,310.009,449.032z"/>
	<path opacity="0.2" fill="#001321" d="M189.808,187.678l46.421,24.028c0,0,25.806,4.28,71.732,16.786L189.808,187.678z"/>
	<path opacity="0.2" fill="#001321" d="M233.479,143.485l40.037,42.685c0,0,24.248-11.524,38.31-13.251L233.479,143.485z"/>
	<path opacity="0.2" fill="#001321" d="M175.604,202.177L136.362,327.41c25.221-39.094,39.653-53.36,39.653-53.36
		s0.762,4.791-1.194-6.425C172.124,252.148,169.294,219.542,175.604,202.177z"/>
	<path opacity="0.2" fill="#001321" d="M178.015,280.277l-17.167,107.33c0,0,15.107-40.924,31.506-64.814
		C192.353,322.792,181.782,301.261,178.015,280.277z"/>
	<path opacity="0.2" fill="#001321" d="M221.684,374.892l-17.616,59.306c7.497-11.37,24.716-22.69,40.324-31.277
		C237.174,395.202,225.98,381.235,221.684,374.892z"/>
</g>
<g id="tether">
	<path fill="#CFCFCF" stroke="#001321" stroke-width="0.574" stroke-linecap="round" stroke-linejoin="round" d="M531.796,620.279
		c-5.35,0-9.687,0.353-9.687,0.783v1.783c0,0.082,0.157,0.16,0.445,0.234v29.556c0,0.412,4.138,0.746,9.241,0.746
		c5.103,0,9.24-0.334,9.24-0.746V623.08c0.288-0.074,0.445-0.152,0.445-0.234v-1.783
		C541.481,620.632,537.144,620.279,531.796,620.279z"/>
	
		<line fill="none" stroke="#001321" stroke-width="1.1493" stroke-linecap="round" stroke-linejoin="round" x1="447.525" y1="215.315" x2="413.299" y2="333.712"/>
	
		<line fill="none" stroke="#001321" stroke-width="1.1493" stroke-linecap="round" stroke-linejoin="round" x1="413.299" y1="333.712" x2="223.917" y2="566.289"/>
	
		<line fill="none" stroke="#001321" stroke-width="1.1493" stroke-linecap="round" stroke-linejoin="round" x1="131.941" y1="496.154" x2="223.917" y2="566.289"/>
	
		<line fill="none" stroke="#001321" stroke-width="1.1493" stroke-linecap="round" stroke-linejoin="round" x1="150.359" y1="428.652" x2="131.941" y2="496.154"/>
	
		<line fill="none" stroke="#001321" stroke-width="1.1493" stroke-linecap="round" stroke-linejoin="round" x1="223.917" y1="566.289" x2="187.384" y2="701"/>
	
		<line fill="none" stroke="#001321" stroke-width="1.1493" stroke-linecap="round" stroke-linejoin="round" x1="131.941" y1="496.154" x2="413.299" y2="333.712"/>
	<path fill="none" stroke="#F7931E" stroke-width="1.5" stroke-linecap="round" stroke-linejoin="round" d="M522.867,493.901
		c0,0-2.894,23.25-36.667,74.367c-36.35,55.017-50.401,62.069-50.401,62.069"/>
	<g>
		<g>
			
				<line fill="none" stroke="#F7931E" stroke-width="1.438" stroke-linecap="round" stroke-linejoin="round" x1="440.983" y1="650.387" x2="515.95" y2="650.387"/>
			<polygon fill="#F7931E" points="514.901,653.982 521.11,650.397 514.901,646.813 			"/>
		</g>
	</g>
	<g>
		<g>
			
				<line fill="none" stroke="#FF0000" stroke-width="1.5" stroke-linecap="round" stroke-linejoin="round" x1="541.036" y1="650.387" x2="601.705" y2="650.387"/>
			<polygon fill="#FF0000" points="600.61,654.138 607.088,650.398 600.61,646.659 			"/>
		</g>
	</g>
	<linearGradient id="SVGID_29_" gradientUnits="userSpaceOnUse" x1="522.4287" y1="638.0938" x2="541.0828" y2="638.0938">
		<stop  offset="0" style="stop-color:#8E8E8E"/>
		<stop  offset="0.0381" style="stop-color:#999999"/>
		<stop  offset="0.1368" style="stop-color:#B1B1B1"/>
		<stop  offset="0.2419" style="stop-color:#C2C2C2"/>
		<stop  offset="0.3569" style="stop-color:#CCCCCC"/>
		<stop  offset="0.5" style="stop-color:#CFCFCF"/>
		<stop  offset="0.6431" style="stop-color:#CCCCCC"/>
		<stop  offset="0.7581" style="stop-color:#C2C2C2"/>
		<stop  offset="0.8632" style="stop-color:#B1B1B1"/>
		<stop  offset="0.9619" style="stop-color:#999999"/>
		<stop  offset="1" style="stop-color:#8E8E8E"/>
	</linearGradient>
	<path fill="url(#SVGID_29_)" stroke="#001321" stroke-width="0.287" stroke-linecap="round" stroke-linejoin="round" d="
		M541.036,622.805v29.831c0,0.412-4.138,0.746-9.24,0.746c-5.104,0-9.241-0.334-9.241-0.746v-29.831H541.036z"/>
	<linearGradient id="SVGID_30_" gradientUnits="userSpaceOnUse" x1="522.4287" y1="622.3457" x2="541.0833" y2="622.3457">
		<stop  offset="0" style="stop-color:#8E8E8E"/>
		<stop  offset="0.0381" style="stop-color:#999999"/>
		<stop  offset="0.1368" style="stop-color:#B1B1B1"/>
		<stop  offset="0.2419" style="stop-color:#C2C2C2"/>
		<stop  offset="0.3569" style="stop-color:#CCCCCC"/>
		<stop  offset="0.5" style="stop-color:#CFCFCF"/>
		<stop  offset="0.6431" style="stop-color:#CCCCCC"/>
		<stop  offset="0.7581" style="stop-color:#C2C2C2"/>
		<stop  offset="0.8632" style="stop-color:#B1B1B1"/>
		<stop  offset="0.9619" style="stop-color:#999999"/>
		<stop  offset="1" style="stop-color:#8E8E8E"/>
	</linearGradient>
	<path fill="url(#SVGID_30_)" stroke="#001321" stroke-width="0.287" stroke-linecap="round" stroke-linejoin="round" d="
		M541.481,621.062v1.783c0,0.432-4.338,0.782-9.686,0.782c-5.35,0-9.687-0.351-9.687-0.782v-1.783H541.481z"/>
	
		<ellipse fill="#CFCFCF" stroke="#001321" stroke-width="0.287" stroke-linecap="round" stroke-linejoin="round" cx="531.795" cy="621.062" rx="9.686" ry="0.783"/>
	<g>
		
			<ellipse fill="#CFCFCF" stroke="#001321" stroke-width="0.287" stroke-linecap="round" stroke-linejoin="round" cx="527.041" cy="620.708" rx="2.422" ry="0.332"/>
		
			<ellipse fill="#CFCFCF" stroke="#001321" stroke-width="0.287" stroke-linecap="round" stroke-linejoin="round" cx="527.041" cy="620.101" rx="2.249" ry="0.309"/>
		
			<ellipse fill="#CFCFCF" stroke="#001321" stroke-width="0.287" stroke-linecap="round" stroke-linejoin="round" cx="527.041" cy="619.494" rx="2.076" ry="0.285"/>
		
			<ellipse fill="#CFCFCF" stroke="#001321" stroke-width="0.287" stroke-linecap="round" stroke-linejoin="round" cx="527.042" cy="618.888" rx="1.903" ry="0.261"/>
		
			<ellipse fill="#CFCFCF" stroke="#001321" stroke-width="0.287" stroke-linecap="round" stroke-linejoin="round" cx="527.041" cy="618.281" rx="1.73" ry="0.237"/>
		
			<ellipse fill="#CFCFCF" stroke="#001321" stroke-width="0.287" stroke-linecap="round" stroke-linejoin="round" cx="527.041" cy="617.674" rx="1.557" ry="0.214"/>
		
			<ellipse fill="#CFCFCF" stroke="#001321" stroke-width="0.287" stroke-linecap="round" stroke-linejoin="round" cx="527.041" cy="617.067" rx="1.384" ry="0.189"/>
		
			<ellipse fill="#CFCFCF" stroke="#001321" stroke-width="0.287" stroke-linecap="round" stroke-linejoin="round" cx="527.041" cy="616.461" rx="1.211" ry="0.166"/>
	</g>
	<g>
		
			<ellipse fill="#CFCFCF" stroke="#001321" stroke-width="0.287" stroke-linecap="round" stroke-linejoin="round" cx="536.214" cy="620.708" rx="2.421" ry="0.332"/>
		
			<ellipse fill="#CFCFCF" stroke="#001321" stroke-width="0.287" stroke-linecap="round" stroke-linejoin="round" cx="536.214" cy="620.101" rx="2.249" ry="0.309"/>
		
			<ellipse fill="#CFCFCF" stroke="#001321" stroke-width="0.287" stroke-linecap="round" stroke-linejoin="round" cx="536.214" cy="619.494" rx="2.076" ry="0.285"/>
		
			<ellipse fill="#CFCFCF" stroke="#001321" stroke-width="0.287" stroke-linecap="round" stroke-linejoin="round" cx="536.215" cy="618.888" rx="1.902" ry="0.261"/>
		
			<ellipse fill="#CFCFCF" stroke="#001321" stroke-width="0.287" stroke-linecap="round" stroke-linejoin="round" cx="536.214" cy="618.281" rx="1.73" ry="0.237"/>
		
			<ellipse fill="#CFCFCF" stroke="#001321" stroke-width="0.287" stroke-linecap="round" stroke-linejoin="round" cx="536.215" cy="617.674" rx="1.557" ry="0.214"/>
		
			<ellipse fill="#CFCFCF" stroke="#001321" stroke-width="0.287" stroke-linecap="round" stroke-linejoin="round" cx="536.215" cy="617.067" rx="1.384" ry="0.189"/>
		
			<ellipse fill="#CFCFCF" stroke="#001321" stroke-width="0.287" stroke-linecap="round" stroke-linejoin="round" cx="536.215" cy="616.461" rx="1.211" ry="0.166"/>
	</g>
	
		<circle fill="#CFCFCF" stroke="#001321" stroke-width="0.5" stroke-linecap="round" stroke-linejoin="round" cx="440.984" cy="639.691" r="10.697"/>
	<radialGradient id="SVGID_31_" cx="441.2002" cy="640.0684" r="9.667" gradientUnits="userSpaceOnUse">
		<stop  offset="0" style="stop-color:#CFCFCF"/>
		<stop  offset="0.4904" style="stop-color:#CDCDCD"/>
		<stop  offset="0.667" style="stop-color:#C6C6C6"/>
		<stop  offset="0.793" style="stop-color:#BBBBBB"/>
		<stop  offset="0.8947" style="stop-color:#AAAAAA"/>
		<stop  offset="0.9809" style="stop-color:#949494"/>
		<stop  offset="1" style="stop-color:#8E8E8E"/>
	</radialGradient>
	
		<circle fill="url(#SVGID_31_)" stroke="#001321" stroke-width="0.287" stroke-linecap="round" stroke-linejoin="round" cx="440.984" cy="639.691" r="8.975"/>
	<path fill="#8E8E8E" stroke="#001321" stroke-width="0.5" stroke-linecap="round" stroke-linejoin="round" d="M441.885,637.513
		h-1.851l-9.747,9.745v5.622h21.343v-5.622L441.885,637.513z M448.187,649.436h-14.455v-0.75l4.965-4.963
		c0.678,0.386,1.451,0.623,2.286,0.623c0.824,0,1.585-0.232,2.257-0.606l4.947,4.946V649.436z"/>
	
		<circle fill="#CFCFCF" stroke="#001321" stroke-width="0.5" stroke-linecap="round" stroke-linejoin="round" cx="440.984" cy="639.691" r="1.247"/>
</g>
<g id="generator">
	<linearGradient id="SVGID_32_" gradientUnits="userSpaceOnUse" x1="434.2168" y1="198.8594" x2="452.2481" y2="233.9741">
		<stop  offset="0" style="stop-color:#DAE1E5"/>
		<stop  offset="0.3462" style="stop-color:#DAE1E5"/>
		<stop  offset="0.4231" style="stop-color:#8EA3AF"/>
		<stop  offset="1" style="stop-color:#C6D1D7"/>
	</linearGradient>
	<path fill="url(#SVGID_32_)" stroke="#000000" stroke-width="0.5747" stroke-linecap="round" stroke-linejoin="round" d="
		M457.193,224.342c0,8.967-6.293,12.6-14.061,8.117c-7.766-4.483-14.059-15.385-14.061-24.354c0-8.965,6.295-12.6,14.061-8.115
		C450.896,204.473,457.193,215.375,457.193,224.342z"/>
	<path fill="#AABAC3" stroke="#000000" stroke-width="0.5747" stroke-linecap="round" stroke-linejoin="round" d="M458.77,223.433
		c0,8.968-6.293,12.6-14.061,8.117c-7.766-4.482-14.059-15.385-14.062-24.354c0-8.966,6.297-12.601,14.062-8.115
		C452.475,203.563,458.77,214.465,458.77,223.433z"/>
	<path fill="#8EA3AF" stroke="#000000" stroke-width="0.5747" stroke-linecap="round" stroke-linejoin="round" d="M456.115,221.899
		c0,7.275-5.105,10.223-11.406,6.584c-6.299-3.636-11.406-12.479-11.406-19.755c0-7.273,5.107-10.221,11.406-6.584
		C451.01,205.781,456.115,214.626,456.115,221.899z"/>
	<linearGradient id="SVGID_33_" gradientUnits="userSpaceOnUse" x1="440.6094" y1="209.6196" x2="446.797" y2="221.6706">
		<stop  offset="0" style="stop-color:#DAE1E5"/>
		<stop  offset="0.3462" style="stop-color:#DAE1E5"/>
		<stop  offset="0.4231" style="stop-color:#8EA3AF"/>
		<stop  offset="1" style="stop-color:#C6D1D7"/>
	</linearGradient>
	<path fill="url(#SVGID_33_)" stroke="#000000" stroke-width="0.5747" stroke-linecap="round" stroke-linejoin="round" d="
		M448.977,218.826c0.004,3.302-2.314,4.638-5.172,2.988c-2.859-1.65-5.178-5.664-5.18-8.966c0.002-3.3,2.32-4.638,5.18-2.986
		C446.662,211.512,448.977,215.525,448.977,218.826z"/>
	<path fill="#8EA3AF" stroke="#000000" stroke-width="0.5747" stroke-linecap="round" stroke-linejoin="round" d="M449.885,218.303
		c0,3.302-2.316,4.638-5.176,2.988c-2.857-1.65-5.174-5.664-5.176-8.966c0-3.3,2.318-4.638,5.176-2.986
		C447.568,210.989,449.885,215.001,449.885,218.303z"/>
	<linearGradient id="SVGID_34_" gradientUnits="userSpaceOnUse" x1="440.8574" y1="204.6338" x2="454.25" y2="230.7152">
		<stop  offset="0" style="stop-color:#C6D1D7"/>
		<stop  offset="0.478" style="stop-color:#C6D1D7"/>
		<stop  offset="0.7198" style="stop-color:#8EA3AF"/>
		<stop  offset="1" style="stop-color:#C6D1D7"/>
	</linearGradient>
	<path fill="url(#SVGID_34_)" stroke="#000000" stroke-width="0.5747" stroke-linecap="round" stroke-linejoin="round" d="
		M456.795,229.611l-3.645-1.405v-17.644l-5.623-9.539l-5.451,3.146v18.517c0,3.533,2.48,7.825,5.537,9.59
		c1.248,0.72,2.396,0.907,3.322,0.638C451.414,232.775,456.795,229.611,456.795,229.611z"/>
	<path fill="#8EA3AF" stroke="#000000" stroke-width="0.5747" stroke-linecap="round" stroke-linejoin="round" d="M447.527,201.023
		l-0.002,18.517c0.002,3.533,2.48,7.825,5.537,9.59c3.059,1.765,5.539,0.336,5.537-3.197l0.002-18.516L447.527,201.023z"/>
	<path fill="#8EA3AF" stroke="#000000" stroke-width="0.5747" stroke-linecap="round" stroke-linejoin="round" d="M449.85,208.725
		c0-1.96,1.379-2.755,3.074-1.775c1.697,0.98,3.074,3.364,3.074,5.323c0,1.96-1.377,2.754-3.074,1.774
		C451.229,213.066,449.85,210.683,449.85,208.725z"/>
	<linearGradient id="SVGID_35_" gradientUnits="userSpaceOnUse" x1="454.4365" y1="214.9824" x2="459.9773" y2="225.7733">
		<stop  offset="0" style="stop-color:#C6D1D7"/>
		<stop  offset="0.1648" style="stop-color:#C6D1D7"/>
		<stop  offset="0.7363" style="stop-color:#8EA3AF"/>
		<stop  offset="1" style="stop-color:#C6D1D7"/>
	</linearGradient>
	<path fill="url(#SVGID_35_)" stroke="#000000" stroke-width="0.5747" stroke-linecap="round" stroke-linejoin="round" d="
		M456.172,228.227c0.031-0.017,0.062-0.034,0.092-0.052l11.115-6.415l-6.043-11.072l-11.262,6.5l0.006,0.013
		c-0.904,0.422-1.482,1.439-1.48,2.958c0,2.849,1.998,6.313,4.463,7.737c1.182,0.683,2.252,0.758,3.049,0.354l0.006,0.01
		L456.172,228.227z"/>
	<path fill="#8EA3AF" stroke="#000000" stroke-width="0.5747" stroke-linecap="round" stroke-linejoin="round" d="M459.836,213.67
		c0-2.848,2-4.004,4.465-2.58c2.467,1.425,4.467,4.89,4.467,7.738c0,2.848-2,4.003-4.467,2.579
		C461.836,219.983,459.836,216.519,459.836,213.67z"/>
	<path fill="#8EA3AF" stroke="#000000" stroke-width="0.5747" stroke-linecap="round" stroke-linejoin="round" d="M451.432,208.691
		c0-1.475,1.035-2.073,2.312-1.335s2.312,2.53,2.312,4.004c0,1.476-1.035,2.072-2.312,1.335
		C452.467,211.957,451.432,210.165,451.432,208.691z"/>
	<defs>
		<filter id="Adobe_OpacityMaskFilter" filterUnits="userSpaceOnUse" x="141.362" y="220.303" width="292.871" height="208.493">
			<feColorMatrix  type="matrix" values="1 0 0 0 0  0 1 0 0 0  0 0 1 0 0  0 0 0 1 0"/>
		</filter>
	</defs>
	<mask maskUnits="userSpaceOnUse" x="141.362" y="220.303" width="292.871" height="208.493" id="SVGID_36_">
		<g filter="url(#Adobe_OpacityMaskFilter)">
			<linearGradient id="SVGID_37_" gradientUnits="userSpaceOnUse" x1="330.6689" y1="313.9375" x2="482.6693" y2="313.9375">
				<stop  offset="0" style="stop-color:#FFFFFF"/>
				<stop  offset="1" style="stop-color:#000000"/>
			</linearGradient>
			<polygon fill="url(#SVGID_37_)" points="440.654,265.375 138,440.111 138.001,362.5 440.654,187.763 			"/>
		</g>
	</mask>
	<g mask="url(#SVGID_36_)">
		
			<line fill="none" stroke="#767676" stroke-width="0.2873" stroke-linecap="round" stroke-linejoin="round" x1="164.161" y1="378.022" x2="150.359" y2="428.652"/>
		<path fill="none" stroke="#767676" stroke-width="0.2873" stroke-linecap="round" stroke-linejoin="round" d="M150.156,389.785
			l-7.346,4.239l0.008,0.014c-0.801,0.372-1.313,1.272-1.312,2.614c0,2.52,1.768,5.583,3.949,6.843
			c1.045,0.603,1.989,0.671,2.695,0.314l0.005,0.007l0.05-0.028c0.026-0.016,0.053-0.03,0.079-0.046l7.513-4.335"/>
		<path fill="none" stroke="#767676" stroke-width="0.2873" stroke-linecap="round" stroke-linejoin="round" d="M150.756,373.844
			l-0.599,0.345l-0.001,16.377c0.001,3.122,2.193,6.918,4.896,8.48c1.103,0.635,2.12,0.802,2.937,0.563
			c0.423-0.124,5.183-2.923,5.183-2.923"/>
		<path fill="none" stroke="#767676" stroke-width="0.2873" stroke-linecap="round" stroke-linejoin="round" d="M154.975,384.434
			v3.349c0.001,3.123,2.193,6.919,4.896,8.479c2.704,1.562,4.897,0.299,4.897-2.827"/>
		<path fill="none" stroke="#767676" stroke-width="0.2873" stroke-linecap="round" stroke-linejoin="round" d="M172.409,392.782
			c-2.281,1.772-5.676,1.771-9.469-0.417c-6.867-3.964-12.434-13.605-12.435-21.537c0-4.377,1.696-7.317,4.369-8.406"/>
		<path fill="none" stroke="#767676" stroke-width="0.2873" stroke-linecap="round" stroke-linejoin="round" d="M173.933,373.619
			c1.772,3.504,2.836,7.297,2.836,10.764c0,7.93-5.566,11.144-12.435,7.177c-6.867-3.965-12.434-13.605-12.435-21.536
			c0-7.93,5.567-11.144,12.435-7.176c2.986,1.724,5.726,4.521,7.87,7.783"/>
		<path fill="none" stroke="#767676" stroke-width="0.2873" stroke-linecap="round" stroke-linejoin="round" d="M172.262,374.576
			c1.353,2.763,2.16,5.73,2.16,8.45c-0.002,6.434-4.516,9.04-10.088,5.823c-5.571-3.216-10.087-11.037-10.086-17.471
			c0-6.434,4.515-9.039,10.086-5.822c2.339,1.351,4.493,3.513,6.204,6.043"/>
		<path fill="none" stroke="#767676" stroke-width="0.2873" stroke-linecap="round" stroke-linejoin="round" d="M167.146,382.999
			c-0.837,0.758-2.144,0.8-3.613-0.049c-2.527-1.459-4.577-5.009-4.578-7.928c0.001-1.695,0.692-2.806,1.767-3.151"/>
		<path fill="none" stroke="#767676" stroke-width="0.2873" stroke-linecap="round" stroke-linejoin="round" d="M168.264,376.764
			c0.411,1.029,0.646,2.092,0.646,3.083c0.002,2.919-2.048,4.1-4.577,2.642c-2.528-1.459-4.576-5.008-4.579-7.929
			c0.001-2.917,2.051-4.103,4.579-2.642c0.813,0.47,1.577,1.155,2.238,1.967"/>
		<path fill="none" stroke="#767676" stroke-width="0.2873" stroke-linecap="round" stroke-linejoin="round" d="M205.948,351.152
			l-42.187,24.354c0,0.001-0.888,0.455-0.051,1.904c0.837,1.45,1.774,1.081,1.774,1.081l41.064-23.705 M316.487,287.341
			l-40.348,23.292 M280.723,311.969l41.577-24.001 M325.772,285.964l108.318-62.529 M432.367,220.446l-110.753,63.935"/>
	</g>
	
		<line opacity="0.1" fill="none" stroke="#000000" stroke-width="0.2873" stroke-linecap="round" stroke-linejoin="round" x1="276.139" y1="310.632" x2="206.302" y2="350.948"/>
	
		<line opacity="0.1" fill="none" stroke="#000000" stroke-width="0.2873" stroke-linecap="round" stroke-linejoin="round" x1="280.723" y1="311.969" x2="206.548" y2="354.786"/>
	
		<line opacity="0.1" fill="none" stroke="#000000" stroke-width="0.2873" stroke-linecap="round" stroke-linejoin="round" x1="317.042" y1="287.02" x2="321.107" y2="284.674"/>
	
		<line opacity="0.1" fill="none" stroke="#000000" stroke-width="0.2873" stroke-linecap="round" stroke-linejoin="round" x1="325.772" y1="285.964" x2="322.3" y2="287.967"/>
	
		<line fill="none" stroke="#001321" stroke-width="1.1493" stroke-linecap="round" stroke-linejoin="round" x1="442.521" y1="232.628" x2="443.693" y2="228.574"/>
</g>
<g id="arrow">
	<defs>
		<filter id="Adobe_OpacityMaskFilter_1_" filterUnits="userSpaceOnUse" x="406.398" y="102.741" width="136" height="213.49">
			<feColorMatrix  type="matrix" values="1 0 0 0 0  0 1 0 0 0  0 0 1 0 0  0 0 0 1 0"/>
		</filter>
	</defs>
	<mask maskUnits="userSpaceOnUse" x="406.398" y="102.741" width="136" height="213.49" id="SVGID_38_">
		<g filter="url(#Adobe_OpacityMaskFilter_1_)">
			<linearGradient id="SVGID_39_" gradientUnits="userSpaceOnUse" x1="471.4561" y1="222.6636" x2="413.9883" y2="108.3028">
				<stop  offset="0" style="stop-color:#FFFFFF"/>
				<stop  offset="1" style="stop-color:#000000"/>
			</linearGradient>
			<polygon fill="url(#SVGID_39_)" points="490.314,321.677 265.276,191.751 437.002,92.607 662.037,222.533 			"/>
		</g>
	</mask>
	<path opacity="0.25" mask="url(#SVGID_38_)" fill="#00D12E" d="M463.432,113.326c-10.902-6.297-21.266-9.744-30.713-10.585
		l-26.32,15.195c9.447,0.841,19.812,4.288,30.715,10.584c43.611,25.177,78.969,86.405,78.969,136.766
		c0,12.66-2.25,23.405-6.287,32.031c-1.508,3.221-3.262,6.149-5.25,8.76c-3.203,4.208-6.994,7.617-11.295,10.153l25.48-14.711
		l0.146-0.086c0.027-0.014,0.051-0.031,0.076-0.045c14.477-8.17,23.445-25.929,23.445-51.296
		C542.398,199.732,507.041,138.503,463.432,113.326z"/>
	<path opacity="0.75" fill="#00D12E" d="M504.545,306.078c-3.064,0.393-6.262,0.475-9.58,0.23
		c-6.502-0.479-13.457-2.194-20.732-5.241l9.582-5.531l-49.275-4.395l3.797,30.652l9.59-5.538c17.33,7.26,32.863,7.003,44.711,0.314
		c0.102-0.059,0.207-0.107,0.311-0.167l0.303-0.174l25.48-14.711C514.451,303.896,509.686,305.419,504.545,306.078z"/>
	<defs>
		<filter id="Adobe_OpacityMaskFilter_2_" filterUnits="userSpaceOnUse" x="20.293" y="60.54" width="253.706" height="139.993">
			<feColorMatrix  type="matrix" values="1 0 0 0 0  0 1 0 0 0  0 0 1 0 0  0 0 0 1 0"/>
		</filter>
	</defs>
	<mask maskUnits="userSpaceOnUse" x="20.293" y="60.54" width="253.706" height="139.993" id="SVGID_40_">
		<g filter="url(#Adobe_OpacityMaskFilter_2_)">
			<linearGradient id="SVGID_41_" gradientUnits="userSpaceOnUse" x1="140.4639" y1="127.0801" x2="91.2769" y2="41.8855">
				<stop  offset="0" style="stop-color:#FFFFFF"/>
				<stop  offset="1" style="stop-color:#000000"/>
			</linearGradient>
			<polygon fill="url(#SVGID_41_)" points="199.635,222.48 -13.828,99.237 86.766,41.159 300.228,164.401 			"/>
		</g>
	</mask>
	<path opacity="0.75" mask="url(#SVGID_40_)" fill="#29ABE2" d="M135.498,127.336c22.013,12.727,48.535,8.567,95.263,35.065
		l-9.246,5.338L274,176.144L261.6,144.598l-10.41,6.009c-55.401-31.504-86.984-26.639-113.039-41.703L54.389,60.54L20.293,80.225
		l82.281,47.477c26.863,15.532,23.896,36.876,73.703,66.157l-9.286,5.36l8.212,1.314c3.049-9.216,6.996-17.448,11.725-24.661
		C156.212,154.979,155.54,138.923,135.498,127.336z"/>
	<path opacity="0.2" fill="#29ABE2" d="M207.076,176.077l-10.369,5.987c-3.575-2.11-6.81-4.173-9.779-6.192
		c-4.729,7.213-8.676,15.445-11.725,24.661l44.271,7.092L207.076,176.077z"/>
</g>
<g id="scale">
</g>
<g id="labels">
	<path fill="none" stroke="#000000" stroke-width="0.2873" d="M455.268,206.566"/>
	<path fill="none" stroke="#000000" stroke-width="0.2873" d="M306.003,305.318"/>
	<polyline fill="none" stroke="#000000" stroke-width="0.2873" points="216.215,564.486 172.342,635.178 157.573,635.178 	"/>
	<polyline fill="none" stroke="#000000" stroke-width="0.2873" points="177.5,234.131 113.667,199 98.896,199 	"/>
	<polyline fill="none" stroke="#000000" stroke-width="0.2873" points="277.556,158.871 257.01,53.102 242.241,53.102 	"/>
	<polyline fill="none" stroke="#000000" stroke-width="0.2873" points="346.122,271.739 363.027,40.628 363.027,40.628 
		377.797,40.628 	"/>
	<polyline fill="none" stroke="#000000" stroke-width="0.2873" points="497.184,53.102 482.414,53.103 424.725,154.167 	"/>
	<text transform="matrix(1 0 0 1 31.4814 202.4976)" font-family="'Helvetica'" font-size="18">Rudder</text>
	<text transform="matrix(1 0 0 1 206.9443 57.9707)" font-family="'Helvetica'" font-size="18">Sail</text>
	<text transform="matrix(1 0 0 1 384.3613 44.3521)" font-family="'Helvetica'" font-size="18">Axle</text>
	<text transform="matrix(1 0 0 1 500.916 56.4204)"><tspan x="0" y="0" font-family="'Helvetica'" font-size="18">Helium or hydrogen</tspan><tspan x="0" y="19.6" font-family="'Helvetica'" font-size="18">inflated bladder</tspan></text>
	<text transform="matrix(1 0 0 1 103.7646 638.6006)" font-family="'Helvetica'" font-size="18">Tether</text>
	<text transform="matrix(1 0 0 1 638.5693 641.2725)"><tspan x="0" y="0" font-family="'Helvetica'" font-size="14">To</tspan><tspan x="-23.394" y="12.8" font-family="'Helvetica'" font-size="14">power grid</tspan><tspan x="-25.448" y="25.6" font-family="'Helvetica'" font-size="14">or batteries</tspan></text>
	<text transform="matrix(1 0 0 1 493.8262 670.7207)" font-family="'Helvetica'" font-size="14">Transformer</text>
	<text transform="matrix(1 0 0 1 417.4121 670.7207)" font-family="'Helvetica'" font-size="14">Winch</text>
	<text transform="matrix(1 0 0 1 344.6299 516.7705)"><tspan x="0" y="0" fill="#231F20" font-family="'Helvetica'" font-size="12">Generators convert</tspan><tspan x="0" y="16.8" fill="#231F20" font-family="'Helvetica'" font-size="12">rotational energy</tspan><tspan x="0" y="35.6" fill="#231F20" font-family="'Helvetica'" font-size="12">into electricity which</tspan><tspan x="0" y="52.4" fill="#231F20" font-family="'Helvetica'" font-size="12">is transmitted</tspan><tspan x="0" y="69.2" fill="#231F20" font-family="'Helvetica'" font-size="12">down the tether</tspan></text>
	<text transform="matrix(1 0 0 1 554.3975 443.8301)"><tspan x="0" y="0" font-family="'Helvetica'" font-size="14">Airborne wind</tspan><tspan x="25.669" y="14.8" font-family="'Helvetica'" font-size="14">generator</tspan></text>
	<text transform="matrix(1 0 0 1 578.2891 521.8311)"><tspan x="0" y="0" fill="#00B42E" font-family="'Helvetica'" font-size="14">Rotational</tspan><tspan x="20.234" y="14.8" fill="#00B42E" font-family="'Helvetica'" font-size="14">energy</tspan></text>
	<text transform="matrix(1 0 0 1 554.373 256.729)"><tspan x="0" y="0" fill="#00B42E" font-family="'Helvetica'" font-size="18">Rotational</tspan><tspan x="0" y="21.6" fill="#00B42E" font-family="'Helvetica'" font-size="18">energy</tspan></text>
	<text transform="matrix(1 0 0 1 151.3379 106.1768)" fill="#238FBD" font-family="'Helvetica'" font-size="18">Wind</text>
	<text transform="matrix(1 0 0 1 458.749 452.2363)" fill="#238FBD" font-family="'Helvetica'" font-size="14">Wind</text>
	<polyline fill="none" stroke="#000000" stroke-width="0.2873" points="565.607,130.422 550.84,130.422 464.004,216.442 	"/>
	<text transform="matrix(1 0 0 1 570.3906 135.6968)" font-family="'Helvetica'" font-size="18">Generator</text>
</g>
</svg>
