<?xml version="1.0" encoding="UTF-8" standalone="no"?>
<!-- Created with Inkscape (http://www.inkscape.org/) -->
<svg
   xmlns:dc="http://purl.org/dc/elements/1.1/"
   xmlns:cc="http://creativecommons.org/ns#"
   xmlns:rdf="http://www.w3.org/1999/02/22-rdf-syntax-ns#"
   xmlns:svg="http://www.w3.org/2000/svg"
   xmlns="http://www.w3.org/2000/svg"
   xmlns:xlink="http://www.w3.org/1999/xlink"
   xmlns:sodipodi="http://sodipodi.sourceforge.net/DTD/sodipodi-0.dtd"
   xmlns:inkscape="http://www.inkscape.org/namespaces/inkscape"
   width="965.85712"
   height="648.71429"
   id="svg2"
   sodipodi:version="0.32"
   inkscape:version="0.46"
   sodipodi:docname="moulin_tapetum-tag.svg"
   inkscape:output_extension="org.inkscape.output.svg.inkscape"
   version="1.0">
  <sodipodi:namedview
     id="base"
     pagecolor="#ffffff"
     bordercolor="#666666"
     borderopacity="1.0"
     gridtolerance="10000"
     guidetolerance="10"
     objecttolerance="10"
     inkscape:pageopacity="0.0"
     inkscape:pageshadow="2"
     inkscape:zoom="0.7"
     inkscape:cx="454.692"
     inkscape:cy="110.56041"
     inkscape:document-units="px"
     inkscape:current-layer="layer3"
     showgrid="false"
     inkscape:window-width="1400"
     inkscape:window-height="1025"
     inkscape:window-x="0"
     inkscape:window-y="0"
     showguides="true"
     inkscape:guide-bbox="true" />
  <defs
     id="defs4">
    <linearGradient
       id="linearGradient3366">
      <stop
         id="stop3368"
         offset="0"
         style="stop-color:#7b3f3f;stop-opacity:1;" />
      <stop
         id="stop3370"
         offset="1"
         style="stop-color:#f27b6d;stop-opacity:1;" />
    </linearGradient>
    <linearGradient
       id="linearGradient3319">
      <stop
         style="stop-color:#d38d5f;stop-opacity:1;"
         offset="0"
         id="stop3321" />
      <stop
         style="stop-color:#ffab73;stop-opacity:1;"
         offset="1"
         id="stop3324" />
    </linearGradient>
    <linearGradient
       id="linearGradient3410">
      <stop
         style="stop-color:#97a69d;stop-opacity:1;"
         offset="0"
         id="stop3412" />
      <stop
         style="stop-color:#bccec3;stop-opacity:1;"
         offset="1"
         id="stop3414" />
    </linearGradient>
    <linearGradient
       id="linearGradient3402">
      <stop
         style="stop-color:#a0afa6;stop-opacity:1;"
         offset="0"
         id="stop3404" />
      <stop
         style="stop-color:#eafff3;stop-opacity:1;"
         offset="1"
         id="stop3406" />
    </linearGradient>
    <linearGradient
       id="linearGradient3321">
      <stop
         id="stop3323"
         offset="0"
         style="stop-color:#aca793;stop-opacity:1;" />
      <stop
         id="stop3325"
         offset="1"
         style="stop-color:#fff8da;stop-opacity:1;" />
    </linearGradient>
    <linearGradient
       id="linearGradient3485">
      <stop
         id="stop3487"
         offset="0"
         style="stop-color:#aca793;stop-opacity:1;" />
      <stop
         style="stop-color:#aca793;stop-opacity:0.63921569;"
         offset="0.64724338"
         id="stop3489" />
      <stop
         id="stop3491"
         offset="1"
         style="stop-color:#aca793;stop-opacity:0.1491228;" />
    </linearGradient>
    <linearGradient
       id="linearGradient3477">
      <stop
         style="stop-color:#aca793;stop-opacity:1;"
         offset="0"
         id="stop3479" />
      <stop
         id="stop3481"
         offset="0.64724338"
         style="stop-color:#aca793;stop-opacity:0.63921569;" />
      <stop
         style="stop-color:#aca793;stop-opacity:0.28125;"
         offset="1"
         id="stop3483" />
    </linearGradient>
    <linearGradient
       id="linearGradient3467">
      <stop
         style="stop-color:#aca793;stop-opacity:0.28;"
         offset="0"
         id="stop3469" />
      <stop
         id="stop3471"
         offset="0.54627115"
         style="stop-color:#aca793;stop-opacity:0.63921569;" />
      <stop
         style="stop-color:#aca793;stop-opacity:0.96491224;"
         offset="1"
         id="stop3473" />
    </linearGradient>
    <linearGradient
       id="linearGradient3381">
      <stop
         id="stop3383"
         offset="0"
         style="stop-color:#aca793;stop-opacity:1;" />
      <stop
         style="stop-color:#aca793;stop-opacity:0.63921569;"
         offset="0.31026214"
         id="stop3385" />
      <stop
         id="stop3387"
         offset="1"
         style="stop-color:#aca793;stop-opacity:0.28125;" />
    </linearGradient>
    <linearGradient
       id="linearGradient3359">
      <stop
         id="stop3361"
         offset="0"
         style="stop-color:#aca793;stop-opacity:1;" />
      <stop
         style="stop-color:#aca793;stop-opacity:0.63921569;"
         offset="0.77681303"
         id="stop3363" />
      <stop
         id="stop3365"
         offset="1"
         style="stop-color:#aca793;stop-opacity:0.28125;" />
    </linearGradient>
    <linearGradient
       id="linearGradient3330">
      <stop
         style="stop-color:#b95f5f;stop-opacity:1;"
         offset="0"
         id="stop3332" />
      <stop
         style="stop-color:#fd8172;stop-opacity:1;"
         offset="1"
         id="stop3334" />
    </linearGradient>
    <linearGradient
       id="linearGradient3295">
      <stop
         style="stop-color:#2b253d;stop-opacity:1;"
         offset="0"
         id="stop3297" />
      <stop
         style="stop-color:#2b1100;stop-opacity:0;"
         offset="1"
         id="stop3299" />
    </linearGradient>
    <inkscape:perspective
       sodipodi:type="inkscape:persp3d"
       inkscape:vp_x="0 : 410.82669 : 1"
       inkscape:vp_y="0 : 1000 : 0"
       inkscape:vp_z="639.43005 : 410.82669 : 1"
       inkscape:persp3d-origin="319.71503 : 273.88446 : 1"
       id="perspective64" />
    <linearGradient
       id="linearGradient2962">
      <stop
         style="stop-color:#aca793;stop-opacity:1;"
         offset="0"
         id="stop2964" />
      <stop
         id="stop2966"
         offset="0.69112456"
         style="stop-color:#aca793;stop-opacity:0.63921569;" />
      <stop
         style="stop-color:#aca793;stop-opacity:0.28125;"
         offset="1"
         id="stop2968" />
    </linearGradient>
    <linearGradient
       id="linearGradient2954">
      <stop
         style="stop-color:#aca793;stop-opacity:1;"
         offset="0"
         id="stop2956" />
      <stop
         id="stop2958"
         offset="0.62873346"
         style="stop-color:#aca793;stop-opacity:0.63921569;" />
      <stop
         style="stop-color:#aca793;stop-opacity:0.28125;"
         offset="1"
         id="stop2960" />
    </linearGradient>
    <linearGradient
       id="linearGradient3098">
      <stop
         style="stop-color:#aca793;stop-opacity:1;"
         offset="0"
         id="stop3100" />
      <stop
         style="stop-color:#ac0093;stop-opacity:0"
         offset="1"
         id="stop3102" />
    </linearGradient>
    <linearGradient
       id="linearGradient3080">
      <stop
         style="stop-color:#aca793;stop-opacity:1;"
         offset="0"
         id="stop3082" />
      <stop
         style="stop-color:#aca793;stop-opacity:0"
         offset="1"
         id="stop3084" />
    </linearGradient>
    <linearGradient
       id="linearGradient3051">
      <stop
         id="stop3053"
         offset="0"
         style="stop-color:#b7c8be;stop-opacity:1;" />
      <stop
         id="stop3055"
         offset="1"
         style="stop-color:#b7c8be;stop-opacity:0.18103448;" />
    </linearGradient>
    <linearGradient
       id="linearGradient2951">
      <stop
         id="stop2953"
         offset="0"
         style="stop-color:#aca793;stop-opacity:1;" />
      <stop
         style="stop-color:#aca793;stop-opacity:0.63921569;"
         offset="0.58333331"
         id="stop3210" />
      <stop
         id="stop2955"
         offset="1"
         style="stop-color:#aca793;stop-opacity:0.28125;" />
    </linearGradient>
    <linearGradient
       id="linearGradient3056">
      <stop
         id="stop3058"
         offset="0"
         style="stop-color:#d38d5f;stop-opacity:1;" />
      <stop
         id="stop3060"
         offset="1"
         style="stop-color:#d38d5f;stop-opacity:0;" />
    </linearGradient>
    <inkscape:perspective
       id="perspective2655"
       inkscape:persp3d-origin="372.04724 : 350.78739 : 1"
       inkscape:vp_z="744.09448 : 526.18109 : 1"
       inkscape:vp_y="0 : 1000 : 0"
       inkscape:vp_x="0 : 526.18109 : 1"
       sodipodi:type="inkscape:persp3d" />
    <linearGradient
       inkscape:collect="always"
       xlink:href="#linearGradient2954"
       id="linearGradient3291"
       x1="-581.65552"
       y1="542.02191"
       x2="-443.17776"
       y2="542.02191"
       gradientUnits="userSpaceOnUse"
       spreadMethod="reflect" />
    <linearGradient
       inkscape:collect="always"
       xlink:href="#linearGradient3295"
       id="linearGradient3301"
       x1="-428.57138"
       y1="671.65338"
       x2="-428.57138"
       y2="740.22485"
       gradientUnits="userSpaceOnUse" />
    <linearGradient
       inkscape:collect="always"
       xlink:href="#linearGradient3330"
       id="linearGradient3336"
       x1="-503.21429"
       y1="576.28503"
       x2="-197.85715"
       y2="576.28503"
       gradientUnits="userSpaceOnUse"
       spreadMethod="reflect" />
    <radialGradient
       inkscape:collect="always"
       xlink:href="#linearGradient3467"
       id="radialGradient3465"
       gradientUnits="userSpaceOnUse"
       cx="-530"
       cy="303.08197"
       fx="-530"
       fy="303.08197"
       r="154.35715" />
    <radialGradient
       inkscape:collect="always"
       xlink:href="#linearGradient3485"
       id="radialGradient3475"
       gradientUnits="userSpaceOnUse"
       gradientTransform="translate(285.49928,-441.08629)"
       cx="-530"
       cy="303.08197"
       fx="-530"
       fy="303.08197"
       r="154.35715" />
    <radialGradient
       inkscape:collect="always"
       xlink:href="#linearGradient3467"
       id="radialGradient3566"
       gradientUnits="userSpaceOnUse"
       cx="-530"
       cy="303.08197"
       fx="-530"
       fy="303.08197"
       r="154.35715" />
    <radialGradient
       inkscape:collect="always"
       xlink:href="#linearGradient3485"
       id="radialGradient3568"
       gradientUnits="userSpaceOnUse"
       gradientTransform="translate(285.49928,-441.08629)"
       cx="-530"
       cy="303.08197"
       fx="-530"
       fy="303.08197"
       r="154.35715" />
    <radialGradient
       inkscape:collect="always"
       xlink:href="#linearGradient3467"
       id="radialGradient3580"
       gradientUnits="userSpaceOnUse"
       cx="-530"
       cy="303.08197"
       fx="-530"
       fy="303.08197"
       r="154.35715" />
    <radialGradient
       inkscape:collect="always"
       xlink:href="#linearGradient3485"
       id="radialGradient3582"
       gradientUnits="userSpaceOnUse"
       gradientTransform="translate(285.49928,-441.08629)"
       cx="-530"
       cy="303.08197"
       fx="-530"
       fy="303.08197"
       r="154.35715" />
    <radialGradient
       inkscape:collect="always"
       xlink:href="#linearGradient3467"
       id="radialGradient3597"
       gradientUnits="userSpaceOnUse"
       cx="-530"
       cy="303.08197"
       fx="-530"
       fy="303.08197"
       r="154.35715" />
    <radialGradient
       inkscape:collect="always"
       xlink:href="#linearGradient3467"
       id="radialGradient3606"
       gradientUnits="userSpaceOnUse"
       cx="-530"
       cy="303.08197"
       fx="-530"
       fy="303.08197"
       r="154.35715" />
    <radialGradient
       inkscape:collect="always"
       xlink:href="#linearGradient3485"
       id="radialGradient3610"
       gradientUnits="userSpaceOnUse"
       gradientTransform="translate(285.49928,-441.08629)"
       cx="-530"
       cy="303.08197"
       fx="-530"
       fy="303.08197"
       r="154.35715" />
    <inkscape:perspective
       id="perspective2530"
       inkscape:persp3d-origin="372.04724 : 350.78739 : 1"
       inkscape:vp_z="744.09448 : 526.18109 : 1"
       inkscape:vp_y="0 : 1000 : 0"
       inkscape:vp_x="0 : 526.18109 : 1"
       sodipodi:type="inkscape:persp3d" />
    <linearGradient
       inkscape:collect="always"
       xlink:href="#linearGradient3321"
       id="linearGradient3333"
       x1="-1758.0229"
       y1="120.93361"
       x2="-1574.0767"
       y2="120.93361"
       gradientUnits="userSpaceOnUse"
       gradientTransform="translate(877.07281,396.70926)" />
    <linearGradient
       inkscape:collect="always"
       xlink:href="#linearGradient3321"
       id="linearGradient3343"
       x1="-1100.0714"
       y1="517.28571"
       x2="-962.78571"
       y2="517.28571"
       gradientUnits="userSpaceOnUse"
       gradientTransform="translate(-7.14286,-1.42857)" />
    <radialGradient
       inkscape:collect="always"
       xlink:href="#linearGradient3321"
       id="radialGradient3349"
       cx="-2026.0624"
       cy="98.69236"
       fx="-2026.0624"
       fy="98.69236"
       r="68.510551"
       gradientTransform="matrix(2.3854566,7.6484933,-2.3443509,0.7311696,3924.2772,15924.307)"
       gradientUnits="userSpaceOnUse" />
    <linearGradient
       inkscape:collect="always"
       xlink:href="#linearGradient3410"
       id="linearGradient3433"
       gradientUnits="userSpaceOnUse"
       x1="-739.69849"
       y1="1036.6875"
       x2="-1123.6141"
       y2="1036.6875"
       gradientTransform="translate(-858.21198,-166.19522)" />
    <linearGradient
       inkscape:collect="always"
       xlink:href="#linearGradient3402"
       id="linearGradient3435"
       gradientUnits="userSpaceOnUse"
       x1="-1223.1562"
       y1="1172.8616"
       x2="-676.05359"
       y2="1172.8616"
       gradientTransform="translate(-860.46651,-167.62379)" />
    <linearGradient
       inkscape:collect="always"
       xlink:href="#linearGradient3410"
       id="linearGradient3454"
       gradientUnits="userSpaceOnUse"
       gradientTransform="translate(-858.21198,-166.19522)"
       x1="-739.69849"
       y1="1036.6875"
       x2="-1123.6141"
       y2="1036.6875" />
    <linearGradient
       inkscape:collect="always"
       xlink:href="#linearGradient3402"
       id="linearGradient3456"
       gradientUnits="userSpaceOnUse"
       gradientTransform="translate(-860.46651,-167.62379)"
       x1="-1223.1562"
       y1="1172.8616"
       x2="-676.05359"
       y2="1172.8616" />
    <linearGradient
       inkscape:collect="always"
       xlink:href="#linearGradient3410"
       id="linearGradient3463"
       gradientUnits="userSpaceOnUse"
       gradientTransform="translate(-858.21198,-166.19522)"
       x1="-739.69849"
       y1="1036.6875"
       x2="-1123.6141"
       y2="1036.6875" />
    <linearGradient
       inkscape:collect="always"
       xlink:href="#linearGradient3402"
       id="linearGradient3465"
       gradientUnits="userSpaceOnUse"
       gradientTransform="translate(-860.46651,-167.62379)"
       x1="-1223.1562"
       y1="1172.8616"
       x2="-676.05359"
       y2="1172.8616" />
    <linearGradient
       inkscape:collect="always"
       xlink:href="#linearGradient3402"
       id="linearGradient3484"
       gradientUnits="userSpaceOnUse"
       gradientTransform="translate(75.31915,375.07999)"
       x1="-1223.1562"
       y1="1172.8616"
       x2="-676.05359"
       y2="1172.8616" />
    <linearGradient
       inkscape:collect="always"
       xlink:href="#linearGradient3410"
       id="linearGradient3487"
       gradientUnits="userSpaceOnUse"
       gradientTransform="translate(-858.21198,-166.19522)"
       x1="-739.69849"
       y1="1036.6875"
       x2="-1123.6141"
       y2="1036.6875" />
    <linearGradient
       inkscape:collect="always"
       xlink:href="#linearGradient3402"
       id="linearGradient3491"
       gradientUnits="userSpaceOnUse"
       gradientTransform="translate(-751.37004,-599.96908)"
       x1="-1223.1562"
       y1="1172.8616"
       x2="-676.05359"
       y2="1172.8616" />
    <linearGradient
       inkscape:collect="always"
       xlink:href="#linearGradient3402"
       id="linearGradient3495"
       gradientUnits="userSpaceOnUse"
       gradientTransform="translate(-850.24099,-825.96324)"
       x1="-1223.1562"
       y1="1172.8616"
       x2="-676.05359"
       y2="1172.8616" />
    <linearGradient
       inkscape:collect="always"
       xlink:href="#linearGradient3402"
       id="linearGradient3500"
       gradientUnits="userSpaceOnUse"
       gradientTransform="translate(-850.23117,-825.66671)"
       x1="-1223.1562"
       y1="1172.8616"
       x2="-676.05359"
       y2="1172.8616" />
    <linearGradient
       inkscape:collect="always"
       xlink:href="#linearGradient3402"
       id="linearGradient3505"
       gradientUnits="userSpaceOnUse"
       gradientTransform="translate(-849.72615,-825.16165)"
       x1="-1223.1562"
       y1="1172.8616"
       x2="-676.05359"
       y2="1172.8616" />
    <linearGradient
       inkscape:collect="always"
       xlink:href="#linearGradient3319"
       id="linearGradient3326"
       x1="-2181.6924"
       y1="96.892342"
       x2="-2181.6924"
       y2="61.028713"
       gradientUnits="userSpaceOnUse" />
    <linearGradient
       inkscape:collect="always"
       xlink:href="#linearGradient3402"
       id="linearGradient3356"
       gradientUnits="userSpaceOnUse"
       x1="-1928.9536"
       y1="97.714745"
       x2="-1734.6028"
       y2="98.724899" />
    <linearGradient
       inkscape:collect="always"
       xlink:href="#linearGradient3410"
       id="linearGradient3364"
       x1="-1024.3571"
       y1="594.78571"
       x2="-858.1947"
       y2="594.78571"
       gradientUnits="userSpaceOnUse" />
    <linearGradient
       inkscape:collect="always"
       xlink:href="#linearGradient3319"
       id="linearGradient3938"
       gradientUnits="userSpaceOnUse"
       x1="-2181.6924"
       y1="96.892342"
       x2="-2181.6924"
       y2="61.028713" />
  </defs>
  <metadata
     id="metadata7">
    <rdf:RDF>
      <cc:Work
         rdf:about="">
        <dc:format>image/svg+xml</dc:format>
        <dc:type
           rdf:resource="http://purl.org/dc/dcmitype/StillImage" />
      </cc:Work>
    </rdf:RDF>
  </metadata>
  <g
     style="display:inline"
     inkscape:label="meule2"
     id="layer3"
     inkscape:groupmode="layer"
     transform="translate(2295.7158,135.20924)">
    <g
       id="g3444"
       transform="translate(10.141396,-657.57697)">
      <path
         id="path3446"
         d="M -1810.087,810.49228 C -1817.9108,810.49228 -1825.6227,810.59982 -1833.2432,810.80478 C -1840.8637,811.00974 -1848.3641,811.31119 -1855.7432,811.71103 C -1863.1224,812.11087 -1870.3936,812.62638 -1877.4932,813.21103 C -1884.5929,813.79568 -1891.5236,814.45166 -1898.3058,815.21103 C -1905.0877,815.9704 -1911.7231,816.81826 -1918.1495,817.74228 C -1924.5759,818.6663 -1930.8044,819.66369 -1936.837,820.74228 C -1942.8696,821.82087 -1948.7049,822.98794 -1954.3058,824.21103 C -1959.9064,825.43412 -1965.2687,826.72853 -1970.3995,828.08603 C -1975.5303,829.44353 -1980.4328,830.85419 -1985.0558,832.33603 C -1989.6786,833.81788 -1994.0103,835.36508 -1998.087,836.96098 C -2002.1637,838.55708 -2005.9695,840.19818 -2009.462,841.89858 C -2012.9545,843.59868 -2016.1543,845.35408 -2019.0245,847.14858 C -2021.8947,848.94278 -2024.4397,850.80138 -2026.6495,852.67978 C -2028.8593,854.55818 -2030.732,856.44618 -2032.2432,858.39858 C -2032.9989,859.37458 -2033.6694,860.37448 -2034.2432,861.36728 C -2034.8171,862.36008 -2035.2933,863.35918 -2035.6808,864.36728 C -2036.068,865.37538 -2036.3596,866.40758 -2036.5558,867.42978 C -2036.7518,868.45198 -2036.837,869.45728 -2036.837,870.49228 C -2036.837,871.52728 -2036.7517,872.56388 -2036.5558,873.58598 C -2036.3597,874.60828 -2036.068,875.60918 -2035.6808,876.61728 C -2035.2934,877.62538 -2034.8171,878.65578 -2034.2432,879.64858 C -2033.6694,880.64128 -2032.9989,881.60988 -2032.2432,882.58598 C -2030.7321,884.53848 -2028.8593,886.45768 -2026.6495,888.33598 C -2024.4397,890.21438 -2021.8947,892.04168 -2019.0245,893.83598 C -2016.1543,895.63048 -2012.9545,897.38578 -2009.462,899.08598 C -2005.9695,900.78628 -2002.1637,902.45868 -1998.087,904.05478 C -1994.0103,905.65088 -1989.6785,907.16668 -1985.0558,908.64858 C -1980.4328,910.13038 -1975.5303,911.57228 -1970.3995,912.92978 C -1965.2687,914.28728 -1959.9064,915.58168 -1954.3058,916.80478 C -1948.705,918.02788 -1942.8696,919.16368 -1936.837,920.24228 C -1930.8044,921.32088 -1924.5759,922.31828 -1918.1495,923.24228 C -1911.7231,924.16628 -1905.0877,925.01418 -1898.3058,925.77358 C -1891.5237,926.53288 -1884.5929,927.22018 -1877.4932,927.80478 C -1870.3936,928.38938 -1863.1224,928.87368 -1855.7432,929.27358 C -1848.3641,929.67328 -1840.8637,929.97478 -1833.2432,930.17978 C -1825.6227,930.38478 -1817.9108,930.49228 -1810.087,930.49228 C -1802.2631,930.49228 -1794.52,930.38478 -1786.8995,930.17978 C -1779.2789,929.97478 -1771.7786,929.67338 -1764.3995,929.27358 C -1757.0203,928.87358 -1749.7491,928.38938 -1742.6495,927.80478 C -1735.5498,927.22018 -1728.619,926.53288 -1721.837,925.77358 C -1715.0549,925.01408 -1708.4196,924.16628 -1701.9932,923.24228 C -1695.5668,922.31828 -1689.3383,921.32088 -1683.3057,920.24228 C -1677.2731,919.16368 -1671.4377,918.02788 -1665.837,916.80478 C -1660.2362,915.58168 -1654.874,914.28728 -1649.7432,912.92978 C -1644.6124,911.57228 -1639.7098,910.13038 -1635.087,908.64858 C -1630.4642,907.16658 -1626.1324,905.65088 -1622.0557,904.05478 C -1617.979,902.45868 -1614.1732,900.78628 -1610.6807,899.08598 C -1607.1883,897.38588 -1603.9884,895.63038 -1601.1182,893.83598 C -1598.2481,892.04168 -1595.703,890.21438 -1593.4932,888.33598 C -1591.2835,886.45768 -1589.4107,884.53838 -1587.8995,882.58598 C -1587.1438,881.60998 -1586.4733,880.64128 -1585.8995,879.64858 C -1585.3256,878.65578 -1584.8493,877.62538 -1584.462,876.61728 C -1584.0746,875.60918 -1583.783,874.60818 -1583.587,873.58598 C -1583.3909,872.56398 -1583.3057,871.52728 -1583.3057,870.49228 C -1583.3057,869.45728 -1583.3909,868.45198 -1583.587,867.42978 C -1583.783,866.40758 -1584.0746,865.37538 -1584.462,864.36728 C -1584.8493,863.35918 -1585.3256,862.36008 -1585.8995,861.36728 C -1586.4733,860.37448 -1587.1438,859.37468 -1587.8995,858.39858 C -1589.4107,856.44608 -1591.2835,854.55818 -1593.4932,852.67978 C -1595.703,850.80138 -1598.2481,848.94278 -1601.1182,847.14858 C -1603.9884,845.35408 -1607.1883,843.59868 -1610.6807,841.89858 C -1614.1732,840.19818 -1617.979,838.55718 -1622.0557,836.96098 C -1626.1324,835.36508 -1630.4642,833.81788 -1635.087,832.33603 C -1639.7098,830.85419 -1644.6124,829.44353 -1649.7432,828.08603 C -1654.874,826.72853 -1660.2362,825.43412 -1665.837,824.21103 C -1671.4377,822.98794 -1677.2731,821.82087 -1683.3057,820.74228 C -1689.3383,819.66369 -1695.5668,818.6663 -1701.9932,817.74228 C -1708.4196,816.81826 -1715.0549,815.97041 -1721.837,815.21103 C -1728.619,814.45165 -1735.5498,813.79568 -1742.6495,813.21103 C -1749.7491,812.62638 -1757.0203,812.11087 -1764.3995,811.71103 C -1771.7786,811.31119 -1779.2789,811.00974 -1786.8995,810.80478 C -1794.52,810.59982 -1802.2631,810.49228 -1810.087,810.49228 z"
         style="opacity:1;fill:#aca793;fill-opacity:1;fill-rule:evenodd;stroke:#000000;stroke-width:3;stroke-linecap:round;stroke-linejoin:round;marker:none;marker-start:none;marker-mid:none;marker-end:none;stroke-miterlimit:4;stroke-dasharray:none;stroke-dashoffset:0;stroke-opacity:1;visibility:visible;display:inline;overflow:visible" />
      <path
         id="path3448"
         d="M -1810.087,810.49228 C -1802.2631,810.49228 -1794.52,810.59982 -1786.8995,810.80478 C -1779.2789,811.00974 -1771.7786,811.31119 -1764.3995,811.71103 C -1757.0203,812.11087 -1749.7491,812.62638 -1742.6495,813.21103 C -1735.5498,813.79568 -1728.619,814.45165 -1721.837,815.21103 C -1715.0549,815.97041 -1708.4196,816.81826 -1701.9932,817.74228 C -1695.5668,818.6663 -1689.3383,819.66369 -1683.3057,820.74228 C -1677.2731,821.82087 -1671.4377,822.98794 -1665.837,824.21103 C -1660.2362,825.43412 -1654.874,826.72853 -1649.7432,828.08603 C -1644.6124,829.44353 -1639.7098,830.85419 -1635.087,832.33603 C -1630.4642,833.81788 -1626.1324,835.36508 -1622.0557,836.96098 C -1617.979,838.55718 -1614.1732,840.19818 -1610.6807,841.89858 C -1607.1883,843.59868 -1603.9884,845.35408 -1601.1182,847.14858 C -1598.2481,848.94278 -1595.703,850.80138 -1593.4932,852.67978 C -1591.2835,854.55818 -1589.4107,856.44608 -1587.8995,858.39858 C -1587.1438,859.37468 -1586.4733,860.37448 -1585.8995,861.36728 C -1585.3256,862.36008 -1584.8493,863.35918 -1584.462,864.36728 C -1584.0746,865.37538 -1583.783,866.40758 -1583.587,867.42978 C -1583.3909,868.45198 -1583.3057,869.45728 -1583.3057,870.49228 C -1583.3057,871.52728 -1583.3909,872.56398 -1583.587,873.58598 C -1583.783,874.60818 -1584.0746,875.60918 -1584.462,876.61728 C -1584.8493,877.62538 -1585.3256,878.65578 -1585.8995,879.64858 C -1586.4733,880.64128 -1587.1438,881.60998 -1587.8995,882.58598 C -1589.4107,884.53838 -1591.2835,886.45768 -1593.4932,888.33598 C -1595.703,890.21438 -1598.2481,892.04168 -1601.1182,893.83598 C -1603.9884,895.63038 -1607.1883,897.38588 -1610.6807,899.08598 C -1614.1732,900.78628 -1617.979,902.45868 -1622.0557,904.05478 C -1626.1324,905.65088 -1630.4642,907.16658 -1635.087,908.64858 C -1639.7098,910.13038 -1644.6124,911.57228 -1649.7432,912.92978 C -1654.874,914.28728 -1660.2362,915.58168 -1665.837,916.80478 C -1671.4377,918.02788 -1677.2731,919.16368 -1683.3057,920.24228 C -1689.3383,921.32088 -1695.5668,922.31828 -1701.9932,923.24228 C -1708.4196,924.16628 -1715.0549,925.01408 -1721.837,925.77358 C -1728.619,926.53288 -1735.5498,927.22018 -1742.6495,927.80478 C -1749.7491,928.38938 -1757.0203,928.87358 -1764.3995,929.27358 C -1771.7786,929.67338 -1779.2789,929.97478 -1786.8995,930.17978 C -1794.52,930.38478 -1802.2631,930.49228 -1810.087,930.49228 C -1817.9108,930.49228 -1825.6227,930.38478 -1833.2432,930.17978 C -1840.8637,929.97478 -1848.3641,929.67328 -1855.7432,929.27358 C -1863.1224,928.87368 -1870.3936,928.38938 -1877.4932,927.80478 C -1884.5929,927.22018 -1891.5237,926.53288 -1898.3058,925.77358 C -1905.0877,925.01418 -1911.7231,924.16628 -1918.1495,923.24228 C -1924.5759,922.31828 -1930.8044,921.32088 -1936.837,920.24228 C -1942.8696,919.16368 -1948.705,918.02788 -1954.3058,916.80478 C -1959.9064,915.58168 -1965.2687,914.28728 -1970.3995,912.92978 C -1975.5303,911.57228 -1980.4328,910.13038 -1985.0558,908.64858 C -1989.6785,907.16668 -1994.0103,905.65088 -1998.087,904.05478 C -2002.1637,902.45868 -2005.9695,900.78628 -2009.462,899.08598 C -2012.9545,897.38578 -2016.1543,895.63048 -2019.0245,893.83598 C -2021.8947,892.04168 -2024.4397,890.21438 -2026.6495,888.33598 C -2028.8593,886.45768 -2030.7321,884.53848 -2032.2432,882.58598 C -2032.9989,881.60988 -2033.6694,880.64128 -2034.2432,879.64858 C -2034.8171,878.65578 -2035.2934,877.62538 -2035.6808,876.61728 C -2036.068,875.60918 -2036.3597,874.60828 -2036.5558,873.58598 C -2036.7517,872.56388 -2036.837,871.52728 -2036.837,870.49228 C -2036.837,869.45728 -2036.7518,868.45198 -2036.5558,867.42978 C -2036.3596,866.40758 -2036.068,865.37538 -2035.6808,864.36728 C -2035.2933,863.35918 -2034.8171,862.36008 -2034.2432,861.36728 C -2033.6694,860.37448 -2032.9989,859.37458 -2032.2432,858.39858 C -2030.732,856.44618 -2028.8593,854.55818 -2026.6495,852.67978 C -2024.4397,850.80138 -2021.8947,848.94278 -2019.0245,847.14858 C -2016.1543,845.35408 -2012.9545,843.59868 -2009.462,841.89858 C -2005.9695,840.19818 -2002.1637,838.55708 -1998.087,836.96098 C -1994.0103,835.36508 -1989.6786,833.81788 -1985.0558,832.33603 C -1980.4328,830.85419 -1975.5303,829.44353 -1970.3995,828.08603 C -1965.2687,826.72853 -1959.9064,825.43412 -1954.3058,824.21103 C -1948.7049,822.98794 -1942.8696,821.82087 -1936.837,820.74228 C -1930.8044,819.66369 -1924.5759,818.6663 -1918.1495,817.74228 C -1911.7231,816.81826 -1905.0877,815.9704 -1898.3058,815.21103 C -1891.5236,814.45166 -1884.5929,813.79568 -1877.4932,813.21103 C -1870.3936,812.62638 -1863.1224,812.11087 -1855.7432,811.71103 C -1848.3641,811.31119 -1840.8637,811.00974 -1833.2432,810.80478 C -1825.6227,810.59982 -1817.9108,810.49228 -1810.087,810.49228 z"
         style="opacity:1;fill:url(#linearGradient3463);fill-opacity:1;fill-rule:evenodd;stroke:#000000;stroke-width:3;stroke-linecap:round;stroke-linejoin:round;marker:none;marker-start:none;marker-mid:none;marker-end:none;stroke-miterlimit:4;stroke-dasharray:none;stroke-dashoffset:0;stroke-opacity:1;visibility:visible;display:inline;overflow:visible" />
      <path
         sodipodi:nodetypes="cccccs"
         id="path3450"
         d="M -1812.3415,959.06371 C -1854.9947,958.49051 -1996.81,958.55948 -2083.1941,886.21098 C -2065.164,955.31338 -2022.3623,1031.3457 -1991.3727,1094.8763 C -1887.7054,1138.3299 -1730.7363,1140.4627 -1628.9977,1084.8763 C -1593.4937,1025.2162 -1550.8306,949.21981 -1536.2037,881.17211 C -1557.0124,944.67911 -1720.9806,960.27221 -1812.3415,959.06371 z"
         style="opacity:1;fill:url(#linearGradient3465);fill-opacity:1;fill-rule:evenodd;stroke:#000000;stroke-width:3;stroke-linecap:round;stroke-linejoin:round;marker:none;marker-start:none;marker-mid:none;marker-end:none;stroke-miterlimit:4;stroke-dasharray:none;stroke-dashoffset:0;stroke-opacity:1;visibility:visible;display:inline;overflow:visible" />
      <path
         id="path3452"
         d="M -1810.087,797.23414 C -1819.5499,797.23414 -1828.9013,797.36216 -1838.1183,797.64039 C -1847.3352,797.91862 -1856.4121,798.34762 -1865.337,798.89039 C -1874.2619,799.43316 -1883.0314,800.09677 -1891.6182,800.89039 C -1900.2051,801.68401 -1908.6029,802.6096 -1916.8058,803.64039 C -1925.0085,804.67118 -1933.0331,805.82362 -1940.8058,807.07789 C -1948.5783,808.33216 -1956.1032,809.67632 -1963.3995,811.14039 C -1970.6958,812.60446 -1977.7505,814.16772 -1984.5245,815.82789 C -1991.2985,817.48806 -1997.7878,819.26654 -2003.9932,821.10914 C -2010.1988,822.95174 -2016.1209,824.87905 -2021.712,826.89039 C -2027.3031,828.90173 -2032.5628,830.974 -2037.4932,833.14039 C -2042.4238,835.30679 -2047.0194,837.55139 -2051.2432,839.85919 C -2055.4672,842.16679 -2059.3343,844.54869 -2062.8058,846.98419 C -2066.2771,849.41949 -2069.3519,851.90349 -2072.0245,854.45289 C -2073.3608,855.72759 -2074.6154,857.02729 -2075.7432,858.32789 C -2076.8712,859.62849 -2077.8918,860.94049 -2078.8058,862.26539 C -2079.7196,863.59029 -2080.5179,864.91799 -2081.212,866.26539 C -2081.9061,867.61279 -2082.4935,868.99089 -2082.962,870.35919 C -2083.4305,871.72729 -2083.7874,873.09689 -2084.0245,874.48419 C -2084.2616,875.87139 -2084.3682,877.26709 -2084.3682,878.67159 C -2084.3682,880.07629 -2084.2616,881.47189 -2084.0245,882.85919 C -2083.7874,884.24639 -2083.4305,885.61609 -2082.962,886.98419 C -2082.4935,888.35219 -2081.9061,889.73069 -2081.212,891.07789 C -2080.8263,891.82649 -2080.3223,892.55489 -2079.8682,893.29659 C -2079.5053,893.88979 -2079.2117,894.48929 -2078.8058,895.07789 C -2077.8919,896.40259 -2076.8713,897.71499 -2075.7432,899.01539 C -2074.6153,900.31579 -2073.3608,901.61599 -2072.0245,902.89039 C -2069.3519,905.43919 -2066.277,907.92429 -2062.8058,910.35919 C -2059.3344,912.79389 -2055.4673,915.17709 -2051.2432,917.48419 C -2047.0193,919.79109 -2042.4239,922.00629 -2037.4932,924.17159 C -2032.5627,926.33709 -2027.3031,928.44249 -2021.712,930.45289 C -2016.1209,932.46329 -2010.1989,934.39239 -2003.9932,936.23419 C -1997.7877,938.07579 -1991.2985,939.82489 -1984.5245,941.48419 C -1977.7505,943.14339 -1970.6958,944.70859 -1963.3995,946.17159 C -1956.1032,947.63479 -1948.5782,949.01199 -1940.8058,950.26539 C -1933.0332,951.51879 -1925.0085,952.64159 -1916.8058,953.67159 C -1908.603,954.70169 -1900.2052,955.62859 -1891.6182,956.42159 C -1883.0314,957.21469 -1874.2619,957.87939 -1865.337,958.42159 C -1856.4121,958.96399 -1847.3352,959.39369 -1838.1183,959.67159 C -1828.9013,959.94959 -1819.5499,960.07789 -1810.087,960.07789 C -1800.6241,960.07789 -1791.2729,959.94959 -1782.0558,959.67159 C -1772.8386,959.39369 -1763.7624,958.96399 -1754.837,958.42159 C -1745.9116,957.87929 -1737.1432,957.21469 -1728.5558,956.42159 C -1719.9683,955.62859 -1711.5405,954.70169 -1703.337,953.67159 C -1695.1335,952.64159 -1687.1417,951.51879 -1679.3683,950.26539 C -1671.5949,949.01199 -1664.0405,947.63479 -1656.7433,946.17159 C -1649.446,944.70849 -1642.4244,943.14329 -1635.6495,941.48419 C -1628.8746,939.82489 -1622.3561,938.07569 -1616.1495,936.23419 C -1609.943,934.39249 -1604.0228,932.46329 -1598.4308,930.45289 C -1592.8387,928.44249 -1587.581,926.33719 -1582.6495,924.17159 C -1577.718,922.00619 -1573.1243,919.79109 -1568.8995,917.48419 C -1564.6747,915.17719 -1560.8091,912.79389 -1557.337,910.35919 C -1553.8649,907.92439 -1550.7914,905.43919 -1548.1183,902.89039 C -1546.7817,901.61599 -1545.559,900.31579 -1544.4308,899.01539 C -1543.3025,897.71499 -1542.2511,896.40259 -1541.337,895.07789 C -1540.4229,893.75319 -1539.625,892.42509 -1538.9308,891.07789 C -1538.3108,889.87469 -1537.8085,888.64159 -1537.3683,887.42159 C -1536.9054,885.19099 -1536.2996,882.85779 -1535.9308,880.70289 C -1535.8746,880.02579 -1535.7745,879.35279 -1535.7745,878.67159 C -1535.7745,877.26699 -1535.8811,875.87129 -1536.1183,874.48419 C -1536.3554,873.09689 -1536.7122,871.72729 -1537.1808,870.35919 C -1537.6493,868.99099 -1538.2365,867.61279 -1538.9308,866.26539 C -1539.625,864.91799 -1540.4229,863.59029 -1541.337,862.26539 C -1542.2511,860.94049 -1543.3025,859.62849 -1544.4308,858.32789 C -1545.559,857.02729 -1546.7817,855.72759 -1548.1183,854.45289 C -1550.7914,851.90349 -1553.865,849.41949 -1557.337,846.98419 C -1560.8091,844.54859 -1564.6747,842.16689 -1568.8995,839.85919 C -1573.1243,837.55129 -1577.718,835.30679 -1582.6495,833.14039 C -1587.581,830.974 -1592.8387,828.90173 -1598.4308,826.89039 C -1604.0228,824.87905 -1609.943,822.95174 -1616.1495,821.10914 C -1622.3561,819.26654 -1628.8746,817.48807 -1635.6495,815.82789 C -1642.4244,814.16771 -1649.446,812.60446 -1656.7433,811.14039 C -1664.0405,809.67632 -1671.5949,808.33216 -1679.3683,807.07789 C -1687.1417,805.82362 -1695.1335,804.67118 -1703.337,803.64039 C -1711.5405,802.6096 -1719.9683,801.68401 -1728.5558,800.89039 C -1737.1432,800.09677 -1745.9116,799.43316 -1754.837,798.89039 C -1763.7624,798.34762 -1772.8386,797.91862 -1782.0558,797.64039 C -1791.2729,797.36216 -1800.6241,797.23414 -1810.087,797.23414 z M -1810.087,810.07789 C -1802.2632,810.07789 -1794.52,810.18543 -1786.8995,810.39039 C -1779.279,810.59535 -1771.7786,810.8968 -1764.3995,811.29664 C -1757.0204,811.69648 -1749.7491,812.21199 -1742.6495,812.79664 C -1735.5499,813.38129 -1728.6191,814.03726 -1721.837,814.79664 C -1715.0549,815.55602 -1708.4196,816.40387 -1701.9933,817.32789 C -1695.5669,818.25191 -1689.3384,819.2493 -1683.3058,820.32789 C -1677.2731,821.40648 -1671.4378,822.57355 -1665.837,823.79664 C -1660.2362,825.01973 -1654.8741,826.31414 -1649.7433,827.67164 C -1644.6124,829.02914 -1639.7098,830.4398 -1635.087,831.92164 C -1630.4642,833.40349 -1626.1324,834.95069 -1622.0558,836.54659 C -1617.9791,838.14279 -1614.1732,839.78379 -1610.6808,841.48419 C -1607.1883,843.18429 -1603.9884,844.93969 -1601.1183,846.73419 C -1598.2481,848.52849 -1595.703,850.38699 -1593.4933,852.26539 C -1591.2835,854.14379 -1589.4108,856.03179 -1587.8995,857.98419 C -1587.1439,858.96019 -1586.4734,859.96009 -1585.8995,860.95289 C -1585.3256,861.94569 -1584.8493,862.94479 -1584.462,863.95289 C -1584.0747,864.96099 -1583.7831,865.99319 -1583.587,867.01539 C -1583.391,868.03759 -1583.3058,869.04289 -1583.3058,870.07789 C -1583.3058,871.11289 -1583.391,872.14949 -1583.587,873.17159 C -1583.7831,874.19379 -1584.0747,875.19479 -1584.462,876.20289 C -1584.8493,877.21099 -1585.3256,878.24139 -1585.8995,879.23419 C -1586.4734,880.22689 -1587.1439,881.19549 -1587.8995,882.17159 C -1589.4108,884.12409 -1591.2835,886.04329 -1593.4933,887.92159 C -1595.703,889.79999 -1598.2481,891.62729 -1601.1183,893.42159 C -1603.9884,895.21609 -1607.1883,896.97139 -1610.6808,898.67159 C -1614.1732,900.37189 -1617.9791,902.04429 -1622.0558,903.64039 C -1626.1324,905.23649 -1630.4642,906.75229 -1635.087,908.23419 C -1639.7098,909.71599 -1644.6124,911.15789 -1649.7433,912.51539 C -1654.8741,913.87289 -1660.2362,915.16729 -1665.837,916.39039 C -1671.4378,917.61349 -1677.2731,918.74929 -1683.3058,919.82789 C -1689.3384,920.90649 -1695.5669,921.90389 -1701.9933,922.82789 C -1708.4196,923.75189 -1715.0549,924.59979 -1721.837,925.35919 C -1728.6191,926.11849 -1735.5499,926.80579 -1742.6495,927.39039 C -1749.7491,927.97499 -1757.0204,928.45929 -1764.3995,928.85919 C -1771.7786,929.25889 -1779.279,929.56039 -1786.8995,929.76539 C -1794.52,929.97039 -1802.2632,930.07789 -1810.087,930.07789 C -1817.9108,930.07789 -1825.6227,929.97039 -1833.2433,929.76539 C -1840.8638,929.56039 -1848.3641,929.25899 -1855.7433,928.85919 C -1863.1224,928.45929 -1870.3937,927.97499 -1877.4932,927.39039 C -1884.5929,926.80579 -1891.5237,926.11849 -1898.3058,925.35919 C -1905.0878,924.59969 -1911.7231,923.75189 -1918.1495,922.82789 C -1924.5759,921.90389 -1930.8044,920.90649 -1936.837,919.82789 C -1942.8696,918.74929 -1948.705,917.61349 -1954.3058,916.39039 C -1959.9064,915.16729 -1965.2687,913.87289 -1970.3995,912.51539 C -1975.5303,911.15789 -1980.4329,909.71599 -1985.0558,908.23419 C -1989.6785,906.75229 -1994.0103,905.23649 -1998.087,903.64039 C -2002.1637,902.04429 -2005.9695,900.37189 -2009.462,898.67159 C -2012.9545,896.97149 -2016.1543,895.21599 -2019.0245,893.42159 C -2021.8947,891.62729 -2024.4397,889.79999 -2026.6495,887.92159 C -2028.8593,886.04339 -2030.732,884.12399 -2032.2432,882.17159 C -2032.999,881.19559 -2033.6694,880.22689 -2034.2432,879.23419 C -2034.8171,878.24129 -2035.2934,877.21099 -2035.6808,876.20289 C -2036.0681,875.19479 -2036.3597,874.19379 -2036.5558,873.17159 C -2036.7517,872.14959 -2036.837,871.11289 -2036.837,870.07789 C -2036.837,869.04289 -2036.7518,868.03759 -2036.5558,867.01539 C -2036.3596,865.99319 -2036.0681,864.96099 -2035.6808,863.95289 C -2035.2934,862.94479 -2034.8171,861.94569 -2034.2432,860.95289 C -2033.6695,859.96009 -2032.9989,858.96029 -2032.2432,857.98419 C -2030.7321,856.03169 -2028.8593,854.14379 -2026.6495,852.26539 C -2024.4397,850.38699 -2021.8947,848.52839 -2019.0245,846.73419 C -2016.1543,844.93979 -2012.9545,843.18429 -2009.462,841.48419 C -2005.9695,839.78389 -2002.1637,838.14279 -1998.087,836.54659 C -1994.0103,834.95059 -1989.6786,833.40349 -1985.0558,831.92164 C -1980.4328,830.4398 -1975.5303,829.02914 -1970.3995,827.67164 C -1965.2687,826.31414 -1959.9065,825.01973 -1954.3058,823.79664 C -1948.7049,822.57355 -1942.8696,821.40648 -1936.837,820.32789 C -1930.8044,819.2493 -1924.5759,818.25191 -1918.1495,817.32789 C -1911.7231,816.40387 -1905.0878,815.55601 -1898.3058,814.79664 C -1891.5237,814.03727 -1884.593,813.38129 -1877.4932,812.79664 C -1870.3936,812.21199 -1863.1224,811.69648 -1855.7433,811.29664 C -1848.3641,810.8968 -1840.8638,810.59535 -1833.2433,810.39039 C -1825.6227,810.18543 -1817.9108,810.07789 -1810.087,810.07789 z"
         style="opacity:1;fill:#a1b0a7;fill-opacity:1;fill-rule:evenodd;stroke:#000000;stroke-width:3;stroke-linecap:round;stroke-linejoin:round;marker:none;marker-start:none;marker-mid:none;marker-end:none;stroke-miterlimit:4;stroke-dasharray:none;stroke-dashoffset:0;stroke-opacity:1;visibility:visible;display:inline;overflow:visible" />
    </g>
  </g>
  <g
     inkscape:groupmode="layer"
     id="layer2"
     inkscape:label="meule1"
     style="display:inline"
     transform="translate(2295.7158,135.20924)">
    <rect
       y="368.94012"
       x="-1447.5427"
       height="942.85712"
       width="1028.5714"
       id="rect2989"
       style="opacity:0.75;fill:none;fill-opacity:1;fill-rule:nonzero;stroke:none;stroke-width:3;stroke-linecap:round;stroke-linejoin:round;marker:none;marker-start:none;marker-mid:none;marker-end:none;stroke-miterlimit:4;stroke-dasharray:none;stroke-dashoffset:0;stroke-opacity:1;visibility:visible;display:inline;overflow:visible" />
    <path
       style="fill:url(#linearGradient3333);fill-opacity:1;fill-rule:evenodd;stroke:#000000;stroke-width:3;stroke-linecap:round;stroke-linejoin:round;stroke-miterlimit:4;stroke-dasharray:none;stroke-opacity:1;display:inline"
       d="M -809.83952,311.23925 C -911.7143,425.93844 -881.95935,575.63978 -840,665.15625 C -838.00614,664.94876 -835.99957,664.75162 -834.03125,664.53125 C -827.24913,663.77183 -820.6138,662.9241 -814.1875,662 C -807.76109,661.07609 -801.5326,660.0787 -795.5,659 C -789.46729,657.92149 -783.63205,656.7856 -778.03125,655.5625 C -772.43043,654.33933 -767.0683,653.045 -761.9375,651.6875 C -756.80659,650.33003 -751.90405,648.88805 -747.28125,647.40625 C -742.65843,645.92433 -738.3266,644.4086 -734.25,642.8125 C -730.17329,641.21643 -726.3674,639.54405 -722.875,637.84375 C -722.78982,637.80228 -722.70983,637.76028 -722.625,637.71875 C -682.58114,541.13961 -679.16359,393.81583 -797.16871,310.03073 C -803.12705,305.92036 -805.02298,305.88495 -809.83952,311.23925 z"
       transform="translate(-877.07281,-396.70926)"
       id="path2536"
       sodipodi:nodetypes="ccssssssssccc" />
    <path
       style="opacity:1;fill:url(#linearGradient3343);fill-opacity:1;fill-rule:evenodd;stroke:#000000;stroke-width:3;stroke-linecap:round;stroke-linejoin:round;marker:none;marker-start:none;marker-mid:none;marker-end:none;stroke-miterlimit:4;stroke-dasharray:none;stroke-dashoffset:0;stroke-opacity:1;visibility:visible;display:inline;overflow:visible"
       d="M -1038.5625,307.28125 C -1075.6254,307.28125 -1105.7187,400.71234 -1105.7188,515.84375 C -1105.7188,566.55777 -1099.855,613.05449 -1090.1562,649.21875 C -1087.8573,649.88746 -1085.4982,650.55131 -1083.0938,651.1875 C -1077.9629,652.54492 -1072.6006,653.8394 -1067,655.0625 C -1061.3993,656.28562 -1055.5639,657.4215 -1049.5312,658.5 C -1043.4986,659.57869 -1037.2701,660.5761 -1030.8438,661.5 C -1024.4173,662.42409 -1017.782,663.27175 -1011,664.03125 C -1004.7812,664.72745 -998.42191,665.35474 -991.9375,665.90625 C -979.28599,627.96773 -971.4375,574.7406 -971.4375,515.84375 C -971.4375,400.71232 -1001.4997,307.28125 -1038.5625,307.28125 z"
       transform="translate(-877.07281,-396.70926)"
       id="path3335" />
    <path
       style="fill:url(#radialGradient3349);fill-opacity:1;fill-rule:evenodd;stroke:#000000;stroke-width:3;stroke-linecap:round;stroke-linejoin:round;stroke-miterlimit:4;stroke-dasharray:none;stroke-opacity:1;display:inline"
       d="M -1052.2857,311.56696 C -1187.3932,360.33906 -1193.4133,476.92609 -1159.8438,578.5625 C -1157.0611,583.94517 -1150.1449,604.73506 -1149.6875,605.53125 C -1149.6837,605.54012 -1149.6913,605.55363 -1149.6875,605.5625 C -1146.8483,612.25677 -1143.8014,618.81569 -1140.625,625.1875 C -1140.2192,625.55751 -1139.8067,625.91432 -1139.375,626.28125 C -1137.1652,628.15966 -1134.6201,629.98695 -1131.75,631.78125 C -1128.8798,633.57566 -1125.6799,635.33115 -1122.1875,637.03125 C -1118.695,638.73156 -1114.8891,640.4039 -1110.8125,642 C -1106.7358,643.596 -1102.4039,645.11185 -1097.7812,646.59375 C -1093.5206,647.95951 -1089.0082,649.29938 -1084.3125,650.5625 C -1111.1356,568.98824 -1121.3013,402.51022 -1052.2857,311.56696 z"
       transform="translate(-877.07281,-396.70926)"
       id="path3345"
       sodipodi:nodetypes="ccsscssssscc" />
  </g>
  <g
     inkscape:groupmode="layer"
     id="layer4"
     inkscape:label="support"
     transform="translate(2354.4287,281.20376)">
    <path
       transform="translate(-929.35709,-542.70378)"
       style="opacity:1;fill:url(#linearGradient3364);fill-opacity:1;fill-rule:evenodd;stroke:#000000;stroke-width:3;stroke-linecap:round;stroke-linejoin:round;marker:none;marker-start:none;marker-mid:none;marker-end:none;stroke-miterlimit:4;stroke-dashoffset:0;stroke-opacity:1;visibility:visible;display:inline;overflow:visible"
       d="M -867.77591,610.18747 C -883.89639,615.40042 -908.03592,618.71428 -935,618.71428 C -983.49714,618.71428 -1022.8571,607.99428 -1022.8571,594.78571 C -1022.8571,581.57713 -983.49714,570.85713 -935,570.85713 C -912.30774,570.85713 -891.61596,573.20416 -876.02079,577.05495 C -874.1916,589.30826 -871.20049,599.25073 -867.77591,610.18747 z"
       id="path3328"
       sodipodi:nodetypes="cssscc" />
    <path
       transform="translate(-58.71285,-145.99452)"
       style="fill:#928da1;fill-opacity:1;fill-rule:evenodd;stroke:#000000;stroke-width:3;stroke-linecap:round;stroke-linejoin:round;stroke-miterlimit:4;stroke-dasharray:none;stroke-opacity:1;display:inline"
       d="M -1814.8853,50.38449 L -1814.8853,197.88449 C -1811.4267,200.55634 -1806.984,201.51372 -1802.2709,201.53449 C -1797.33,201.55625 -1793.2309,200.1196 -1789.8853,197.88449 L -1789.8853,50.38449 C -1795.8789,49.669344 -1805.8561,46.969524 -1814.8853,50.38449 z"
       id="path3511"
       sodipodi:nodetypes="cczccc" />
    <path
       sodipodi:type="arc"
       style="opacity:1;fill:#767676;fill-opacity:1;fill-rule:evenodd;stroke:#000000;stroke-width:0.88000405;stroke-linecap:round;stroke-linejoin:round;marker:none;marker-start:none;marker-mid:none;marker-end:none;stroke-miterlimit:4;stroke-dasharray:none;stroke-dashoffset:0;stroke-opacity:1;visibility:visible;display:inline;overflow:visible"
       id="path3523"
       sodipodi:cx="-932.74963"
       sodipodi:cy="447.61362"
       sodipodi:rx="4.9244938"
       sodipodi:ry="1.0101526"
       d="M -927.82514,447.61362 A 4.9244938,1.0101526 0 1 1 -937.67413,447.61362 A 4.9244938,1.0101526 0 1 1 -927.82514,447.61362 z"
       transform="matrix(2.5128205,0,0,4.625,482.68384,-2167.4069)" />
    <g
       id="g3934"
       transform="matrix(0.9993941,3.4805372e-2,-3.4805372e-2,0.9993941,-3.1645039,65.098229)">
      <path
         sodipodi:nodetypes="cccccccccczccccccc"
         id="path3509"
         d="M -2251.875,62.78125 C -2264.2906,72.662768 -2265.9342,103.57067 -2251.875,112.78125 L -2052.6036,112.73203 C -2054.4039,95.612512 -2054.6032,78.891471 -2052.9606,62.744467 L -2251.875,62.78125 z M -1910.4062,62.78125 C -1924.1915,73.638839 -1923.4054,101.70198 -1910.4062,112.78125 L -1754.6705,112.20235 C -1755.5027,90.253046 -1755.9284,81.356805 -1754.3421,62.806111 L -1790.1244,63.286326 C -1790.1244,63.286326 -1795.7069,66.455266 -1802.2463,66.443053 C -1808.5331,66.431311 -1815.9159,63.009435 -1815.9159,63.009435 L -1910.4062,62.78125 z M -1596.1875,62.78125 C -1610.0192,72.650998 -1609.2314,103.72814 -1596.1875,112.78125 L -1377.375,112.78125 C -1389.9189,101.79876 -1390.682,73.388419 -1377.375,62.78125 L -1596.1875,62.78125 z"
         style="fill:url(#linearGradient3938);fill-opacity:1;fill-rule:evenodd;stroke:#000000;stroke-width:3;stroke-linecap:round;stroke-linejoin:round;stroke-miterlimit:3.79999995;stroke-dasharray:none;stroke-opacity:1;display:inline"
         transform="translate(-58.71285,-145.99452)" />
      <path
         transform="matrix(0.875,0,0,0.9082569,-974.07692,-495.52642)"
         d="M -512.14735,481.2012 A 14.142136,27.526657 0 1 1 -540.43163,481.2012 A 14.142136,27.526657 0 1 1 -512.14735,481.2012 z"
         sodipodi:ry="27.526657"
         sodipodi:rx="14.142136"
         sodipodi:cy="481.2012"
         sodipodi:cx="-526.28949"
         id="path3533"
         style="opacity:1;fill:#885b3d;fill-opacity:1;fill-rule:evenodd;stroke:#000000;stroke-width:3.3652153;stroke-linecap:round;stroke-linejoin:round;marker:none;marker-start:none;marker-mid:none;marker-end:none;stroke-miterlimit:3.79999995;stroke-dasharray:none;stroke-dashoffset:0;stroke-opacity:1;visibility:visible;display:inline;overflow:visible"
         sodipodi:type="arc" />
    </g>
    <path
       style="opacity:1;fill:url(#linearGradient3356);fill-opacity:1;fill-rule:evenodd;stroke:#000000;stroke-width:3.00000024;stroke-linecap:round;stroke-linejoin:round;marker:none;marker-start:none;marker-mid:none;marker-end:none;stroke-miterlimit:4;stroke-dasharray:none;stroke-dashoffset:0;stroke-opacity:1;visibility:visible;display:inline;overflow:visible"
       d="M -1951.3349,55.037291 L -1954.7277,119.54622 C -1885.8061,130.6835 -1816.877,125.31538 -1776.5089,122.04622 C -1785.9818,96.32677 -1791.6305,85.791442 -1797.3718,68.033181 C -1813.489,73.140902 -1837.3634,76.381048 -1863.9911,76.381041 C -1909.2593,76.381028 -1946.5676,67.023041 -1951.3349,55.037291 z"
       id="rect3335"
       sodipodi:nodetypes="ccccsc" />
  </g>
  <g
     inkscape:label="legends"
     inkscape:groupmode="layer"
     id="layer1"
     style="display:inline"
     transform="translate(2295.7158,135.20924)">
    <g
       transform="translate(-2328.2714,62.821753)"
       id="g3024"
       style="opacity:0.75;display:inline">
      <path
         sodipodi:type="arc"
         style="opacity:1;fill:#ffffff;fill-opacity:1;fill-rule:nonzero;stroke:#000000;stroke-width:1.79310346;stroke-linecap:round;stroke-linejoin:round;marker:none;marker-start:none;marker-mid:none;marker-end:none;stroke-miterlimit:4;stroke-dasharray:none;stroke-dashoffset:0;stroke-opacity:1;visibility:visible;display:inline;overflow:visible"
         id="path3026"
         sodipodi:cx="624.27429"
         sodipodi:cy="110.49142"
         sodipodi:rx="26.263966"
         sodipodi:ry="26.263966"
         d="M 650.53826,110.49142 A 26.263966,26.263966 0 1 1 598.01033,110.49142 A 26.263966,26.263966 0 1 1 650.53826,110.49142 z"
         transform="matrix(1.1153846,0,0,1.1153846,-170.55448,170.80896)" />
      <text
         xml:space="preserve"
         style="font-size:48px;font-style:normal;font-weight:bold;fill:#000000;fill-opacity:1;stroke:none;stroke-width:1px;stroke-linecap:butt;stroke-linejoin:miter;stroke-opacity:1;font-family:Arial"
         x="510.12201"
         y="310.58511"
         id="text3028"><tspan
           sodipodi:role="line"
           id="tspan3030"
           x="510.12201"
           y="310.58511">4</tspan></text>
    </g>
    <g
       transform="translate(-2440.4221,-311.23567)"
       id="g3032"
       style="opacity:0.75;display:inline">
      <path
         sodipodi:type="arc"
         style="opacity:1;fill:#ffffff;fill-opacity:1;fill-rule:nonzero;stroke:#000000;stroke-width:1.79310346;stroke-linecap:round;stroke-linejoin:round;marker:none;marker-start:none;marker-mid:none;marker-end:none;stroke-miterlimit:4;stroke-dasharray:none;stroke-dashoffset:0;stroke-opacity:1;visibility:visible;display:inline;overflow:visible"
         id="path3034"
         sodipodi:cx="624.27429"
         sodipodi:cy="110.49142"
         sodipodi:rx="26.263966"
         sodipodi:ry="26.263966"
         d="M 650.53826,110.49142 A 26.263966,26.263966 0 1 1 598.01033,110.49142 A 26.263966,26.263966 0 1 1 650.53826,110.49142 z"
         transform="matrix(1.1153846,0,0,1.1153846,-170.55448,170.80896)" />
      <text
         xml:space="preserve"
         style="font-size:48px;font-style:normal;font-weight:bold;fill:#000000;fill-opacity:1;stroke:none;stroke-width:1px;stroke-linecap:butt;stroke-linejoin:miter;stroke-opacity:1;font-family:Arial"
         x="512.26483"
         y="310.58511"
         id="text3036"><tspan
           sodipodi:role="line"
           id="tspan3038"
           x="512.26483"
           y="310.58511">3</tspan></text>
    </g>
    <g
       transform="translate(-2718.4671,-218.49357)"
       id="g3514"
       style="opacity:0.75;display:inline">
      <path
         sodipodi:type="arc"
         style="opacity:1;fill:#ffffff;fill-opacity:1;fill-rule:nonzero;stroke:#000000;stroke-width:1.79310346;stroke-linecap:round;stroke-linejoin:round;marker:none;marker-start:none;marker-mid:none;marker-end:none;stroke-miterlimit:4;stroke-dasharray:none;stroke-dashoffset:0;stroke-opacity:1;visibility:visible;display:inline;overflow:visible"
         id="path3516"
         sodipodi:cx="624.27429"
         sodipodi:cy="110.49142"
         sodipodi:rx="26.263966"
         sodipodi:ry="26.263966"
         d="M 650.53826,110.49142 A 26.263966,26.263966 0 1 1 598.01033,110.49142 A 26.263966,26.263966 0 1 1 650.53826,110.49142 z"
         transform="matrix(1.1153846,0,0,1.1153846,-170.55448,170.80896)" />
      <text
         xml:space="preserve"
         style="font-size:48px;font-style:normal;font-weight:bold;fill:#000000;fill-opacity:1;stroke:none;stroke-width:1px;stroke-linecap:butt;stroke-linejoin:miter;stroke-opacity:1;font-family:Arial"
         x="511.55057"
         y="310.58511"
         id="text3518"><tspan
           sodipodi:role="line"
           id="tspan3520"
           x="511.55057"
           y="310.58511">2</tspan></text>
    </g>
    <g
       style="opacity:0.75;display:inline"
       transform="translate(-2326.8653,-144.97291)"
       id="g3522">
      <path
         sodipodi:type="arc"
         style="opacity:1;fill:#ffffff;fill-opacity:1;fill-rule:nonzero;stroke:#000000;stroke-width:1.79310346;stroke-linecap:round;stroke-linejoin:round;marker:none;marker-start:none;marker-mid:none;marker-end:none;stroke-miterlimit:4;stroke-dasharray:none;stroke-dashoffset:0;stroke-opacity:1;visibility:visible;display:inline;overflow:visible"
         id="path3524"
         sodipodi:cx="624.27429"
         sodipodi:cy="110.49142"
         sodipodi:rx="26.263966"
         sodipodi:ry="26.263966"
         d="M 650.53826,110.49142 A 26.263966,26.263966 0 1 1 598.01033,110.49142 A 26.263966,26.263966 0 1 1 650.53826,110.49142 z"
         transform="matrix(1.1153846,0,0,1.1153846,-170.55448,170.80896)" />
      <text
         xml:space="preserve"
         style="font-size:48px;font-style:normal;font-weight:bold;fill:#000000;fill-opacity:1;stroke:none;stroke-width:1px;stroke-linecap:butt;stroke-linejoin:miter;stroke-opacity:1;font-family:Arial"
         x="511.55057"
         y="312.01367"
         id="text3526"><tspan
           sodipodi:role="line"
           id="tspan3528"
           x="511.55057"
           y="312.01367">1</tspan></text>
    </g>
    <g
       transform="translate(-2199.5789,-311.30867)"
       id="g3530"
       style="opacity:0.75;display:inline">
      <path
         sodipodi:type="arc"
         style="opacity:1;fill:#ffffff;fill-opacity:1;fill-rule:nonzero;stroke:#000000;stroke-width:1.79310346;stroke-linecap:round;stroke-linejoin:round;marker:none;marker-start:none;marker-mid:none;marker-end:none;stroke-miterlimit:4;stroke-dasharray:none;stroke-dashoffset:0;stroke-opacity:1;visibility:visible;display:inline;overflow:visible"
         id="path3532"
         sodipodi:cx="624.27429"
         sodipodi:cy="110.49142"
         sodipodi:rx="26.263966"
         sodipodi:ry="26.263966"
         d="M 650.53826,110.49142 A 26.263966,26.263966 0 1 1 598.01033,110.49142 A 26.263966,26.263966 0 1 1 650.53826,110.49142 z"
         transform="matrix(1.1153846,0,0,1.1153846,-170.55448,170.80896)" />
      <text
         xml:space="preserve"
         style="font-size:48px;font-style:normal;font-weight:bold;fill:#000000;fill-opacity:1;stroke:none;stroke-width:1px;stroke-linecap:butt;stroke-linejoin:miter;stroke-opacity:1;font-family:Arial"
         x="512.26483"
         y="310.58511"
         id="text3534"><tspan
           sodipodi:role="line"
           id="tspan3536"
           x="512.26483"
           y="310.58511">3</tspan></text>
    </g>
  </g>
</svg>
