<?xml version="1.0" encoding="UTF-8"?>
<!-- Created with Inkscape (http://www.inkscape.org/) -->
<svg width="1923.5" height="1456.9" version="1.0" xmlns="http://www.w3.org/2000/svg" xmlns:cc="http://creativecommons.org/ns#" xmlns:dc="http://purl.org/dc/elements/1.1/" xmlns:rdf="http://www.w3.org/1999/02/22-rdf-syntax-ns#" xmlns:xlink="http://www.w3.org/1999/xlink">
 <defs>
  <linearGradient id="linearGradient5409">
   <stop stop-color="#fff" offset="0"/>
   <stop stop-color="#f00" offset="1"/>
  </linearGradient>
  <linearGradient id="linearGradient4825">
   <stop stop-color="#919090" offset="0"/>
   <stop stop-color="#dadbdd" offset="1"/>
  </linearGradient>
  <linearGradient id="linearGradient3192">
   <stop offset="0"/>
   <stop stop-color="#fff" offset="1"/>
  </linearGradient>
  <linearGradient id="linearGradient2878" x1="254.64" x2="254.64" y1="-228.6" y2="-232.94" gradientTransform="matrix(.95775 .28765 -.28758 .95775 -537.34 5.1292)" gradientUnits="userSpaceOnUse">
   <stop stop-color="#636363" offset="0"/>
   <stop stop-color="#919191" offset="1"/>
  </linearGradient>
  <radialGradient id="radialGradient2880" cx="306.95" cy="36.115" r="237.14" gradientTransform="matrix(.59652 1.2351 -.71438 .34504 -137.12 -506.26)" gradientUnits="userSpaceOnUse">
   <stop stop-color="#c5c5c5" offset="0"/>
   <stop stop-color="#aaa" offset=".56623"/>
   <stop stop-color="#909090" offset="1"/>
  </radialGradient>
  <linearGradient id="linearGradient2884" x1="577.14" x2="606.06" y1="91.656" y2="-125.61" gradientUnits="userSpaceOnUse">
   <stop stop-color="#9ba3a6" offset="0"/>
   <stop stop-color="#5b767d" offset="1"/>
  </linearGradient>
  <linearGradient id="linearGradient2886" x1="782.36" x2="782.36" y1="-20.632" y2="-155" gradientUnits="userSpaceOnUse">
   <stop stop-color="#6795a4" offset="0"/>
   <stop stop-color="#5a7a84" offset="1"/>
  </linearGradient>
  <radialGradient id="radialGradient2888" cx="1390.8" cy="262.54" r="13.214" gradientTransform="matrix(.6416 -.31613 .32335 .65625 -1001.2 322.67)" gradientUnits="userSpaceOnUse" xlink:href="#linearGradient5409"/>
  <linearGradient id="linearGradient2890" x1=".18854" x2="-3.2467" y1="3.7307" y2="-2.7794" gradientUnits="userSpaceOnUse" xlink:href="#linearGradient4825"/>
  <linearGradient id="linearGradient2892" x1="228.34" x2="256.41" y1="231.11" y2="229.93" gradientUnits="userSpaceOnUse" xlink:href="#linearGradient3192"/>
  <radialGradient id="radialGradient2924" cx="287.39" cy="164.27" r="61.619" gradientTransform="matrix(-1.2235 0 0 -1.2235 639 365.25)" gradientUnits="userSpaceOnUse">
   <stop stop-color="#fcfcfa" offset="0"/>
   <stop stop-color="#87a85c" offset="1"/>
  </radialGradient>
  <linearGradient id="linearGradient2962" x1="-104.27" x2="-40.958" y1="-91.556" y2="-19.556" gradientUnits="userSpaceOnUse">
   <stop stop-color="#c7a088" offset="0"/>
   <stop stop-color="#c7a088" stop-opacity="0" offset="1"/>
  </linearGradient>
  <linearGradient id="linearGradient2964" x1="241.68" x2="240.43" y1="38.422" y2="72.572" gradientUnits="userSpaceOnUse">
   <stop stop-color="#888e8d" offset="0"/>
   <stop stop-color="#888e8d" stop-opacity="0" offset="1"/>
  </linearGradient>
  <radialGradient id="radialGradient2966" cx="326.85" cy="79.227" r="32.188" gradientTransform="matrix(1.0342 .1305 -.082997 .65759 -534.12 -560.62)" gradientUnits="userSpaceOnUse">
   <stop stop-color="#525a52" offset="0"/>
   <stop stop-color="#525a52" stop-opacity=".9823" offset=".81051"/>
   <stop stop-color="#525a52" stop-opacity="0" offset="1"/>
  </radialGradient>
  <filter id="filter1924" x="-.023335" y="-.078746" width="1.0467" height="1.1575" color-interpolation-filters="sRGB">
   <feGaussianBlur stdDeviation="1.7282639"/>
  </filter>
  <filter id="filter1936" x="-.0052934" y="-.0069244" width="1.0106" height="1.0138" color-interpolation-filters="sRGB">
   <feGaussianBlur stdDeviation="1.8448506"/>
  </filter>
  <linearGradient id="linearGradient2182" x1="-232.66" x2="-100.5" y1="-89.769" y2="40.484" gradientTransform="translate(0,30)" gradientUnits="userSpaceOnUse">
   <stop stop-color="#636363" offset="0"/>
   <stop stop-color="#636363" stop-opacity="0" offset="1"/>
  </linearGradient>
 </defs>
 <metadata>
  <rdf:RDF>
   <cc:Work rdf:about="">
    <dc:format>image/svg+xml</dc:format>
    <dc:type rdf:resource="http://purl.org/dc/dcmitype/StillImage"/>
    <dc:title/>
   </cc:Work>
  </rdf:RDF>
 </metadata>
 <g transform="translate(-1242.2 145.1)">
  <g transform="matrix(2 0 0 2 487.2 514.33)">
   <g transform="translate(-955.59 -681.41)">
    <path transform="matrix(.99996 0 0 .99983 -.023465 .043555)" d="m1478.3 562.1c-56.872-17.496-116.49-27.02-174.18-42.188l-3.5782 16.154s102.48 21.96 154.81 36.519" fill-opacity=".18033" fill-rule="evenodd" filter="url(#filter1924)"/>
    <path transform="matrix(.99996 0 0 .99983 -.023465 .043555)" d="m1559.6 422.56c-82.672 38.471-131.66 58.203-122.78 109.59 9.4545 54.746-79.117 44.905-34.546 74.103 108.16 77.33 165.12 139.15 195.89 196.04 49.502 91.533 46.913 165.8 198.64 237.61 148.89 0 363.35-37.888 398.67-106.37 0.013-0.0226 0.027-0.0451 0.04-0.0678v-2e-3c24.52-47.577 30.579-94.96 30.579-118.93 0-58.239-20.093-278.12-365.97-374.65l0.048-0.0194c-0.1035-0.0188-0.2072-0.035-0.3106-0.0537-1.4415-0.40187-2.8735-0.80774-4.3263-1.2053-57.479-15.728-114.69-22.292-169.04-22.304v3.8e-4c-100.7-0.0228-39.54-32.557-103.96-4.2226" fill-opacity=".18033" fill-rule="evenodd" filter="url(#filter1936)"/>
    <g transform="matrix(1.91 0 0 1.9098 1865.3 669.57)">
     <path d="m-283.33-160.96-1.873 9.3892s67.765 16.118 89.876 24.138l4.9677-8.3945c-30.309-10.565-62.169-16.141-92.97-25.133z" fill="url(#linearGradient2878)" fill-rule="evenodd" stroke="#000"/>
     <g fill-rule="evenodd">
      <path d="m73.357 214.51c132.13 0 151-115 151-149s-10.605-162.79-194-218.5c-87.541-26.594-173.91-8.1072-225.53 18.056-51.619 26.163-57.276 31.82-52.326 63.64 4.9498 31.82 0.70711 23.335 24.042 40.305 23.335 16.971 65.761 60.811 86.267 91.217s23.597 81.653 80.61 122.33c41.776 29.805 100.39 31.953 129.93 31.953z" fill="url(#radialGradient2880)"/>
      <path d="m-246.43-91.617c-0.78172 5.2719-0.28555 11.628 1.0137 19.98 2.4845 15.972 2.8289 21.701 4.8438 24.934 2.0148 3.2328 6.6215 5.4481 18.375 13.996 23.749 17.272 66.025 61.002 86.76 91.746 21.066 31.235 23.74 81.596 80.1 121.81 41.055 29.291 99.238 31.545 128.68 31.545 65.453 0 102.36-28.271 123.28-60.783 14.116-21.938 20.751-45.773 23.635-64.15-2.775 7.8306-6.1552 15.699-9.7383 22.162-8.0986 15.576-26.893 31.634-51.283 44.008-24.402 12.379-54.442 20.982-85.076 20.982-29.909 0-85.867-7.608-127.25-40.393-55.343-43.846-62.863-86.62-76.732-120.19-14.003-33.897-33.707-81.324-79.375-93.484-13.9-3.7011-23.183-5.7127-29.412-7.8555-3.1147-1.0714-5.5053-2.1713-7.3281-3.709-0.20213-0.17051-0.30497-0.40866-0.49024-0.5918z" fill="url(#linearGradient2182)"/>
     </g>
     <g fill="none" stroke="#000" stroke-width="1px">
      <path d="m-247.49-71.3c1.2076 7.6369 10.66 8.3811 38.542 15.805 46.835 12.471 66.765 60.821 80.767 94.717 14.006 33.906 21.215 75.838 76.11 119.33 40.776 32.305 96.387 39.953 125.93 39.953 60.477 0 119.01-34.052 134.49-63.871"/>
      <path d="m-197.04-51.331s-0.95585-15.373 0.81191-23.504c1.7678-8.1317 1.4155-9.4119 10.046-16.289 30.912-24.63 96.639-43.845 107.88-48.222 13.547-5.2771 63.335-22.57 111.09-12.917"/>
      <path d="m73.357 214.51c132.13 0 151-115 151-149s-10.605-162.79-194-218.5c-87.541-26.594-173.91-8.1072-225.53 18.056-51.619 26.163-57.276 31.82-52.326 63.64 4.9498 31.82 0.70711 23.335 24.042 40.305 23.335 16.971 65.761 60.811 86.267 91.217s23.597 81.653 80.61 122.33c41.776 29.805 100.39 31.953 129.93 31.953z"/>
     </g>
    </g>
    <g transform="matrix(1.91 0 0 1.9098 1865.3 669.57)">
     <g transform="translate(-608.11 38.512)">
      <path d="m562.86-152.97c89.356 29.05 175.48 51.366 225.97 146.2-0.16095 18.79-1.1442 34.283-7.4698 40.775-19 19.5-39.5 4.5-77 4.5-61.5 0-30 71.5-111.5 71.5-35.5 0-73-61.5-81-80.5s2.5-92-11-110-28.335-48.627-10.835-68.627c13.041-14.904 47.622-0.61338 72.839-3.8449z" fill="url(#linearGradient2884)" fill-rule="evenodd"/>
      <path d="m593.84-154.94c-12.403 0-22.522 0.52096-31.031 1.5625-0.18677 0.0362-0.32916 0.18531-0.34375 0.375-0.0146 0.18969 0.10221 0.37317 0.28125 0.4375 89.365 29.05 175.25 51.232 225.69 145.97 0.0787 0.19129 0.29846 0.29651 0.5 0.25 0.20157-0.04651 0.3256-0.23107 0.3125-0.4375 0.0139-2.0089 0-4.0841 0-6.1562 0-18.517 5.1929-38.381 2.8438-56.531s-12.364-34.563-42.594-45.938c-32.858-12.363-44.498-14.502-57.938-21.969-13.624-7.5688-47.662-17.562-97.719-17.562z" fill="url(#linearGradient2886)" fill-rule="evenodd"/>
      <path d="m788.83-6.7696c-0.16095 18.79-1.1442 34.283-7.4698 40.775-19 19.5-39.5 4.5-77 4.5-61.5 0-30 71.5-111.5 71.5-35.5 0-73-61.5-81-80.5s2.5-92-11-110-29.042-47.92-11.542-67.92c13.041-14.904 48.329-1.3205 73.546-4.5509 8.4849-1.0374 18.604-1.5288 30.996-1.5288 50 0 84 10 97.5 17.5s25.157 9.6427 58 22c60.267 22.676 39.458 64.856 39.458 102.05 0 2.074 0.026 4.1733 0.0122 6.1782z" fill="none" stroke="#8c9293" stroke-width="2"/>
     </g>
     <g transform="translate(-4,39)">
      <g transform="matrix(-1 0 0 1 83.294 -83.311)">
       <path d="m-3.7286 41.529-7.4335 3.6656m2.7044 5.5377 14.168-6.8834" fill="none" stroke="#000" stroke-dashoffset=".7" stroke-linecap="round" stroke-width=".5"/>
       <g transform="matrix(-.35678 -.72411 .72411 -.35678 340.79 919.36)" stroke-width=".61939">
        <path d="m1172.7 81.824 4e-4 2.8711c8e-4 2.152-5.6999 3.899-12.724 3.899s-12.724-1.7464-12.724-3.899l3e-4 -2.8711c-9e-4 -2.1554 5.6999-3.9024 12.724-3.9024s12.724 1.7479 12.724 3.9024z" fill="#f00"/>
        <g fill="none" stroke="#000">
         <path transform="matrix(.58051 0 0 -.58051 287.73 232.1)" d="m1480.7 253.92a21.92 6.7175 0 0 1 21.92-6.7175 21.92 6.7175 0 0 1 21.92 6.7175" stroke-dashoffset=".7" stroke-linecap="round" stroke-width="1.067"/>
         <ellipse transform="matrix(.58051 0 0 -.58051 287.73 229.22)" cx="1502.6" cy="253.92" rx="21.92" ry="6.7175" stroke-dashoffset=".7" stroke-linecap="round" stroke-width="1.067"/>
         <path d="m1147.3 81.825v2.8708" stroke-width=".61939"/>
         <path d="m1172.7 81.825v2.8708" stroke-width=".61939"/>
        </g>
       </g>
       <path d="m-35.849 61.037c1.5667 3.2118 5.4975 5.1567 8.6406 3.6297l17.055-8.2857c-0.50498-4.0846-1.9565-8.2607-6.2641-12.713l-16.961 8.3637c-3.1296 1.5432-4.0369 5.794-2.4701 9.0057z" fill="url(#radialGradient2888)" stroke="#000" stroke-dashoffset=".7" stroke-linecap="round" stroke-width=".5"/>
      </g>
      <g>
       <g stroke-dashoffset=".7" stroke-linecap="round">
        <ellipse transform="matrix(-.23442 -.1514 -.1514 .23442 141.5 -99.903)" cx="239.41" cy="230.94" rx="38.008" ry="58.282" fill="#9b9c9c" stroke="#82868b" stroke-width="3.5835"/>
        <path d="m41.19-68.535c-0.3293-0.17979-0.54444-0.46163-0.89845-0.58621-6.4064-2.2544-5.2787-13.064-0.15701-20.429 5.1217-7.3649 12.87-10.572 18.727-6.2517-4.9252-2.7765-12.603 0.77492-17.354 8.1323-4.7359 7.3325-4.8362 15.754-0.31748 19.135z" fill="#c2c7c9" stroke="#82868b"/>
        <ellipse transform="matrix(-.16797 -.10848 -.10848 .16797 115.68 -94.832)" cx="239.41" cy="230.94" rx="38.008" ry="58.282" fill="#9b9c9c" stroke="#3a4e52" stroke-width="5.0011"/>
       </g>
       <g transform="matrix(-1 0 0 1 70.355 -71)">
        <path d="m-40.65 26.712 61.904-31.712c1.5748-1.0107 1.5865-3.6682 0.09838-5.9722-1.4881-2.304-3.9152-3.3863-5.3314-2.4691l-61.746 31.619" fill="url(#linearGradient2890)" fill-rule="evenodd"/>
        <ellipse transform="matrix(.071616 -.046255 .046255 .071616 -71.015 16.979)" cx="239.41" cy="230.94" rx="38.008" ry="58.282"/>
       </g>
      </g>
      <g stroke-dashoffset=".7" stroke-linecap="round">
       <path d="m80.506-0.60792c-1.18-0.64427-2.152-1.2828-3.2196-2.1007-16.686-12.782-15.333-44.576 3.0208-70.968 18.353-26.392 46.791-37.438 63.526-24.643-17.649-9.9496-45.161 2.7769-62.189 29.142-16.971 26.276-17.33 56.453-1.1377 68.569z" fill="#676969" fill-opacity=".65116" stroke="#fff"/>
       <ellipse transform="matrix(-.84002 -.54255 -.54255 .84002 439.95 -113.01)" cx="239.41" cy="230.94" rx="38.008" ry="58.282" fill="#676969" fill-opacity=".78431" stroke="#fff"/>
       <g fill="#fff" stroke="url(#linearGradient2892)" stroke-width="12.305">
        <ellipse transform="matrix(-.062393 -.040298 -.040298 .062393 156.34 -96.631)" cx="239.41" cy="230.94" rx="38.008" ry="58.282"/>
        <ellipse transform="matrix(-.062393 -.040298 -.040298 .062393 141.76 -95.605)" cx="239.41" cy="230.94" rx="38.008" ry="58.282"/>
        <ellipse transform="matrix(-.062393 -.040298 -.040298 .062393 128.05 -87.667)" cx="239.41" cy="230.94" rx="38.008" ry="58.282"/>
        <ellipse transform="matrix(-.062393 -.040298 -.040298 .062393 116.24 -76.256)" cx="239.41" cy="230.94" rx="38.008" ry="58.282"/>
        <ellipse transform="matrix(-.062393 -.040298 -.040298 .062393 107.26 -61.31)" cx="239.41" cy="230.94" rx="38.008" ry="58.282"/>
        <ellipse transform="matrix(-.062393 -.040298 -.040298 .062393 101.98 -45.828)" cx="239.41" cy="230.94" rx="38.008" ry="58.282"/>
        <ellipse transform="matrix(-.062393 -.040298 -.040298 .062393 102.39 -29.078)" cx="239.41" cy="230.94" rx="38.008" ry="58.282"/>
        <ellipse transform="matrix(-.062393 -.040298 -.040298 .062393 108.23 -16.971)" cx="239.41" cy="230.94" rx="38.008" ry="58.282"/>
        <ellipse transform="matrix(-.062393 -.040298 -.040298 .062393 120.07 -10.578)" cx="239.41" cy="230.94" rx="38.008" ry="58.282"/>
        <ellipse transform="matrix(-.062393 -.040298 -.040298 .062393 134.28 -12.131)" cx="239.41" cy="230.94" rx="38.008" ry="58.282"/>
        <ellipse transform="matrix(-.062393 -.040298 -.040298 .062393 148.76 -20.239)" cx="239.41" cy="230.94" rx="38.008" ry="58.282"/>
        <ellipse transform="matrix(-.062393 -.040298 -.040298 .062393 159.85 -31.667)" cx="239.41" cy="230.94" rx="38.008" ry="58.282"/>
        <ellipse transform="matrix(-.062393 -.040298 -.040298 .062393 168.98 -46.328)" cx="239.41" cy="230.94" rx="38.008" ry="58.282"/>
        <ellipse transform="matrix(-.062393 -.040298 -.040298 .062393 173.74 -62.149)" cx="239.41" cy="230.94" rx="38.008" ry="58.282"/>
        <ellipse transform="matrix(-.062393 -.040298 -.040298 .062393 173.24 -78.364)" cx="239.41" cy="230.94" rx="38.008" ry="58.282"/>
        <ellipse transform="matrix(-.062393 -.040298 -.040298 .062393 167.24 -89.774)" cx="239.41" cy="230.94" rx="38.008" ry="58.282"/>
       </g>
      </g>
      <path d="m72.123-78.678c11.83-19.657 38.031-33.895 68.936-37.46-33.624 4.9034-62.025 24.661-69.16 48.113l-6.6344-16.792z" fill="#b28f59" fill-opacity=".68605"/>
      <path d="m130.36 10.051-8.9689-22.875c-0.42769-1.1015-0.18177-2.7348 0.75658-4.1876 0.81184-1.257 1.9736-2.1029 3.0284-2.3474l27.184-6.4062" fill="#f00" fill-opacity=".45349" fill-rule="evenodd"/>
      <rect transform="matrix(-.91756 .39761 0 1 0 0)" x="-166.05" y="40.259" width="23.977" height="26.283" fill="#424241"/>
     </g>
     <circle transform="translate(-284.13 -190.62)" cx="276.78" cy="179.42" r="61.619" fill="url(#radialGradient2924)"/>
     <g transform="translate(10,22)">
      <g transform="translate(1.5607 -1.3107)">
       <path d="m-3.7286 41.529-7.4335 3.6656m2.7044 5.5377 14.168-6.8834" fill="none" stroke="#000" stroke-dashoffset=".7" stroke-linecap="round" stroke-width=".5"/>
       <g transform="matrix(-.35678 -.72411 .72411 -.35678 340.79 919.36)" stroke-width=".61939">
        <path d="m1172.7 81.824 4e-4 2.8711c8e-4 2.152-5.6999 3.899-12.724 3.899s-12.724-1.7464-12.724-3.899l3e-4 -2.8711c-9e-4 -2.1554 5.6999-3.9024 12.724-3.9024s12.724 1.7479 12.724 3.9024z" fill="#f00"/>
        <g fill="none" stroke="#000">
         <path transform="matrix(.58051 0 0 -.58051 287.73 232.1)" d="m1480.7 253.92a21.92 6.7175 0 0 1 21.92-6.7175 21.92 6.7175 0 0 1 21.92 6.7175" stroke-dashoffset=".7" stroke-linecap="round" stroke-width="1.067"/>
         <ellipse transform="matrix(.58051 0 0 -.58051 287.73 229.22)" cx="1502.6" cy="253.92" rx="21.92" ry="6.7175" stroke-dashoffset=".7" stroke-linecap="round" stroke-width="1.067"/>
         <path d="m1147.3 81.825v2.8708" stroke-width=".61939"/>
         <path d="m1172.7 81.825v2.8708" stroke-width=".61939"/>
        </g>
       </g>
       <path d="m-35.849 61.037c1.5667 3.2118 5.4975 5.1567 8.6406 3.6297l17.055-8.2857c-0.55953-5.3297-3.1328-9.2208-6.2641-12.713l-16.961 8.3637c-3.1296 1.5432-4.0369 5.794-2.4701 9.0057z" fill="url(#radialGradient2888)" stroke="#000" stroke-dashoffset=".7" stroke-linecap="round" stroke-width=".5"/>
      </g>
      <g>
       <g stroke-dashoffset=".7" stroke-linecap="round">
        <ellipse transform="matrix(.23442 -.1514 .1514 .23442 -71.141 -28.903)" cx="239.41" cy="230.94" rx="38.008" ry="58.282" fill="#9b9c9c" stroke="#82868b" stroke-width="3.5835"/>
        <path d="m29.164 2.4646c0.3293-0.17979 0.54444-0.46163 0.89845-0.58621 6.4064-2.2544 5.2787-13.064 0.15701-20.429-5.1217-7.3649-12.87-10.572-18.727-6.2517 4.9252-2.7765 12.603 0.77492 17.354 8.1323 4.7359 7.3325 4.8362 15.754 0.31748 19.135z" fill="#c2c7c9" stroke="#82868b"/>
        <ellipse transform="matrix(.16797 -.10848 .10848 .16797 -45.321 -23.832)" cx="239.41" cy="230.94" rx="38.008" ry="58.282" fill="#9b9c9c" stroke="#3a4e52" stroke-width="5.0011"/>
       </g>
       <path d="m-40.65 26.712 61.904-31.712c1.5748-1.0107 1.5865-3.6682 0.09838-5.9722-1.4881-2.304-3.9152-3.3863-5.3314-2.4691l-61.746 31.619" fill="url(#linearGradient2890)" fill-rule="evenodd"/>
       <ellipse transform="matrix(.071616 -.046255 .046255 .071616 -71.015 16.979)" cx="239.41" cy="230.94" rx="38.008" ry="58.282"/>
      </g>
      <g stroke-dashoffset=".7" stroke-linecap="round">
       <path d="m-10.151 70.392c1.18-0.64427 2.152-1.2828 3.2196-2.1007 16.686-12.782 15.333-44.576-3.0208-70.968-18.353-26.392-46.791-37.438-63.526-24.643 17.649-9.9496 45.161 2.7769 62.189 29.142 16.971 26.276 17.33 56.453 1.1377 68.569z" fill="#676969" fill-opacity=".65116" stroke="#fff"/>
       <ellipse transform="rotate(-32.857 -256.04 605.72)" cx="239.41" cy="230.94" rx="38.008" ry="58.282" fill="#676969" fill-opacity=".78431" stroke="#fff"/>
       <g fill="#fff" stroke="url(#linearGradient2892)" stroke-width="12.305">
        <ellipse transform="matrix(.062393 -.040298 .040298 .062393 -85.987 -25.631)" cx="239.41" cy="230.94" rx="38.008" ry="58.282"/>
        <ellipse transform="matrix(.062393 -.040298 .040298 .062393 -71.407 -24.605)" cx="239.41" cy="230.94" rx="38.008" ry="58.282"/>
        <ellipse transform="matrix(.062393 -.040298 .040298 .062393 -57.692 -16.667)" cx="239.41" cy="230.94" rx="38.008" ry="58.282"/>
        <ellipse transform="matrix(.062393 -.040298 .040298 .062393 -45.889 -5.2564)" cx="239.41" cy="230.94" rx="38.008" ry="58.282"/>
        <ellipse transform="matrix(.062393 -.040298 .040298 .062393 -36.907 9.69)" cx="239.41" cy="230.94" rx="38.008" ry="58.282"/>
        <ellipse transform="matrix(.062393 -.040298 .040298 .062393 -31.621 25.172)" cx="239.41" cy="230.94" rx="38.008" ry="58.282"/>
        <ellipse transform="matrix(.062393 -.040298 .040298 .062393 -32.032 41.922)" cx="239.41" cy="230.94" rx="38.008" ry="58.282"/>
        <ellipse transform="matrix(.062393 -.040298 .040298 .062393 -37.871 54.029)" cx="239.41" cy="230.94" rx="38.008" ry="58.282"/>
        <ellipse transform="matrix(.062393 -.040298 .040298 .062393 -49.71 60.422)" cx="239.41" cy="230.94" rx="38.008" ry="58.282"/>
        <ellipse transform="matrix(.062393 -.040298 .040298 .062393 -63.925 58.869)" cx="239.41" cy="230.94" rx="38.008" ry="58.282"/>
        <ellipse transform="matrix(.062393 -.040298 .040298 .062393 -78.407 50.761)" cx="239.41" cy="230.94" rx="38.008" ry="58.282"/>
        <ellipse transform="matrix(.062393 -.040298 .040298 .062393 -89.496 39.333)" cx="239.41" cy="230.94" rx="38.008" ry="58.282"/>
        <ellipse transform="matrix(.062393 -.040298 .040298 .062393 -98.621 24.672)" cx="239.41" cy="230.94" rx="38.008" ry="58.282"/>
        <ellipse transform="matrix(.062393 -.040298 .040298 .062393 -103.39 8.8507)" cx="239.41" cy="230.94" rx="38.008" ry="58.282"/>
        <ellipse transform="matrix(.062393 -.040298 .040298 .062393 -102.89 -7.3635)" cx="239.41" cy="230.94" rx="38.008" ry="58.282"/>
        <ellipse transform="matrix(.062393 -.040298 .040298 .062393 -96.889 -18.774)" cx="239.41" cy="230.94" rx="38.008" ry="58.282"/>
       </g>
      </g>
      <path d="m-53.749-45.901c22.29 5.4323 43.691 26.198 56.306 54.636-14.704-30.634-42.029-51.854-66.541-51.673l14.051-11.338z" fill="#b28f59" fill-opacity=".68605"/>
      <path d="m-45.522 89.161 8.9689-22.875c0.42769-1.1015 0.18177-2.7348-0.75658-4.1876-0.81184-1.257-1.9736-2.1029-3.0284-2.3474l-27.184-6.4062" fill="#f00" fill-opacity=".45349" fill-rule="evenodd"/>
      <rect transform="matrix(.91756 .39761 0 1 0 0)" x="-73.584" y="82.604" width="23.977" height="26.283" fill="#424241"/>
     </g>
     <g transform="translate(-582.73 33.646)">
      <circle transform="translate(-253.39 -211.99)" cx="808.12" cy="84" r="10.25" fill="#eb2c2c" stroke="#fff" stroke-dashoffset=".7" stroke-linecap="round"/>
      <path d="m555.75-121.88h-1.4903v-9.4966c-0.35879 0.34223-0.82934 0.68445-1.4117 1.0267-0.58234 0.34223-1.1053 0.59889-1.569 0.76999v-1.4406c0.83347-0.39189 1.5621-0.86658 2.1858-1.4241 0.62372-0.55748 1.0653-1.0984 1.3247-1.6228h0.96043z" fill="#fff"/>
     </g>
     <g transform="translate(-447.42 180.19)">
      <circle transform="translate(-248.39 -206.49)" cx="808.12" cy="84" r="10.25" fill="#eb2c2c" stroke="#fff" stroke-dashoffset=".7" stroke-linecap="round"/>
      <path d="m555.51-119.56 1.5648-0.13247c0.11591 0.76172 0.38499 1.3344 0.80725 1.718 0.42226 0.38362 0.93145 0.57543 1.5276 0.57543 0.71756 0 1.3247-0.27046 1.8215-0.81139 0.49677-0.54093 0.74515-1.2585 0.74516-2.1527-1e-5 -0.85003-0.23873-1.5207-0.71618-2.0119-0.47746-0.49124-1.1026-0.73687-1.8753-0.73688-0.48022 1e-5 -0.91351 0.10902-1.2999 0.32704-0.38638 0.21804-0.68996 0.50092-0.91075 0.84866l-1.3992-0.18215 1.1757-6.2345h6.0358v1.4241h-4.8435l-0.65409 3.2621c0.7286-0.5078 1.4931-0.76171 2.2934-0.76172 1.0598 1e-5 1.954 0.36707 2.6826 1.1012 0.72859 0.73413 1.0929 1.678 1.0929 2.8316-1e-5 1.0984-0.32015 2.0478-0.96043 2.8482-0.77829 0.9825-1.8408 1.4738-3.1876 1.4738-1.1039 0-2.005-0.30911-2.7033-0.92731-0.69825-0.61821-1.097-1.4379-1.1964-2.459z" fill="#fff"/>
     </g>
     <g transform="translate(-521.36 186.76)">
      <circle transform="translate(-253.14 -218.49)" cx="808.12" cy="84" r="10.25" fill="#eb2c2c" stroke="#fff" stroke-dashoffset=".7" stroke-linecap="round"/>
      <path d="m555.41-128.63v-2.9061h-5.2658v-1.3661l5.539-7.8656h1.2171v7.8656h1.6394v1.3661h-1.6394v2.9061zm0-4.2722v-5.4728l-3.8003 5.4728z" fill="#fff"/>
     </g>
     <g transform="translate(-436.74 90.338)">
      <circle transform="translate(-254.14 -208.49)" cx="808.12" cy="84" r="10.25" fill="#eb2c2c" stroke="#fff" stroke-dashoffset=".7" stroke-linecap="round"/>
      <path d="m550.14-121.58 1.4903-0.19871c0.17111 0.84452 0.46227 1.4531 0.87349 1.8256 0.41122 0.37258 0.91213 0.55887 1.5027 0.55887 0.701 0 1.293-0.24286 1.776-0.7286 0.48296-0.48573 0.72445-1.0874 0.72446-1.8049-1e-5 -0.68444-0.22356-1.2488-0.67065-1.6932-0.4471-0.44433-1.0156-0.6665-1.7056-0.6665-0.28151 0-0.63201 0.0552-1.0515 0.16559l0.16559-1.3082c0.0993 0.0111 0.17939 0.0166 0.24011 0.0166 0.63476 1e-5 1.206-0.16558 1.7139-0.49677 0.5078-0.33118 0.76171-0.84175 0.76172-1.5317-1e-5 -0.54644-0.18492-0.99906-0.55473-1.3578-0.36983-0.35877-0.84728-0.53816-1.4324-0.53817-0.57957 1e-5 -1.0625 0.18216-1.4489 0.54645-0.38638 0.36431-0.63477 0.91076-0.74516 1.6394l-1.4903-0.26494c0.18215-0.99906 0.59613-1.7732 1.2419-2.3224 0.6458-0.5492 1.4489-0.8238 2.4094-0.82381 0.66235 1e-5 1.2723 0.14214 1.8298 0.42639 0.55748 0.28428 0.98388 0.67204 1.2792 1.1633 0.29529 0.49127 0.44295 1.0129 0.44295 1.5648 0 0.52438-0.14076 1.0018-0.42225 1.4324-0.28152 0.43054-0.69825 0.77276-1.2502 1.0267 0.71756 0.1656 1.275 0.5092 1.6725 1.0308 0.39741 0.52161 0.59612 1.1743 0.59613 1.9581-1e-5 1.0598-0.38639 1.9581-1.1591 2.695-0.77276 0.73688-1.7498 1.1053-2.931 1.1053-1.0653 0-1.9498-0.31739-2.6536-0.95215-0.70377-0.63477-1.1053-1.4572-1.2047-2.4673z" fill="#fff"/>
     </g>
     <g transform="translate(-503.17 43.906)">
      <circle transform="translate(-252.14 -209.99)" cx="808.12" cy="84" r="10.25" fill="#eb2c2c" stroke="#fff" stroke-dashoffset=".7" stroke-linecap="round"/>
      <path d="m559.9-121.31v1.4324h-8.0229c-0.011-0.35878 0.0469-0.70376 0.17387-1.035 0.20423-0.54644 0.53127-1.0846 0.98113-1.6145 0.44985-0.52989 1.0998-1.1426 1.9498-1.8381 1.3192-1.0818 2.2106-1.9388 2.6743-2.5708 0.46365-0.632 0.69547-1.2295 0.69548-1.7925-1e-5 -0.5906-0.21113-1.0888-0.63338-1.4945-0.42227-0.40569-0.97286-0.60854-1.6518-0.60855-0.71757 1e-5 -1.2916 0.21528-1.7222 0.64581-0.43054 0.43054-0.64857 1.0267-0.65409 1.7884l-1.5317-0.15731c0.10487-1.1426 0.49953-2.0133 1.184-2.6122 0.68444-0.59888 1.6035-0.89832 2.7571-0.89833 1.1646 1e-5 2.0864 0.32291 2.7654 0.96871 0.67892 0.64581 1.0184 1.4462 1.0184 2.4011-1e-5 0.48574-0.0994 0.96319-0.29806 1.4324-0.19872 0.46918-0.52852 0.96319-0.98941 1.482-0.4609 0.51885-1.2268 1.2309-2.2976 2.1361-0.89419 0.75068-1.4682 1.2599-1.7221 1.5276-0.25391 0.26771-0.46366 0.53679-0.62925 0.80726z" fill="#fff"/>
     </g>
     <g transform="translate(-6)" fill-rule="evenodd" stroke="#000" stroke-width=".5">
      <path d="m-90.458-105.56-20.281 21.75c-5.1074 13.319 28.083 42.571 36 52.25l20.281-21.75c-7.9175-9.6793-41.107-38.931-36-52.25z" fill="url(#linearGradient2962)"/>
      <path d="m-74.964-101.39c-7.9175-9.6793-15.494-4.1667-15.494-4.1667l-20.281 21.75s7.5764-5.5125 15.494 4.1667" fill="#c7a088" fill-opacity=".78431"/>
      <path d="m-112.21-61.306 52-56 44.5 57z" fill="#c49d86" fill-opacity=".78431"/>
     </g>
    </g>
    <g transform="translate(1836 856)">
     <ellipse transform="matrix(1.0298 .083109 -.017976 1.0286 -380.95 -541.38)" cx="209.75" cy="49.5" rx="76.25" ry="11.672" fill="url(#linearGradient2964)" fill-rule="evenodd"/>
     <path transform="matrix(1.0298 .083109 -.017976 1.0286 -380.95 -541.38)" d="m133.5 49.5a76.25 11.672 0 0 1 76.25-11.672 76.25 11.672 0 0 1 76.25 11.672" fill="none" stroke="#000" stroke-width="1.8543"/>
     <path d="m-189.97-497.51c-14.257-0.78903-29.345 3.1941-38.66 13.867-2.6436 3.122-4.5838 6.8678-5.5257 10.927 11.061 4.022 22.639 5.8578 34.088 7.7594 12.991 1.9687 26.038 3.2157 39.072 4.305 6.4464 0.46235 12.894 0.80033 19.336 0.94079-0.0367-10.911-7.3675-20.931-16.336-27.056-9.4719-6.6264-20.812-10.079-31.975-10.744z" fill="#8e9591" fill-rule="evenodd" stroke="#000" stroke-width="1.9098"/>
     <path d="m-206.44-487.71c-3.5107 0.0711-7.0264 0.60339-10.375 1.531-5.218 1.4456-10.035 3.9499-13.687 7.9362-1.2622 1.5834-3.122 3.8128-3.2811 5.6553 0.94613 0.32959 1.6581 0.67304 2.7186 0.99983 2.812 0.86655 6.0184 1.7321 9.5621 2.5621 3.5438 0.82998 7.4231 1.6371 11.593 2.4058 4.1702 0.76877 8.6205 1.5042 13.312 2.1871 4.6914 0.68292 9.6107 1.3023 14.718 1.8747 4.0199 0.45052 8.2489 0.85012 12.468 1.2185-0.20688-7.1234-4.731-13.786-10.5-18.028-4.7781-3.5825-10.315-5.9122-16.031-7.1863-2.3256-0.5184-4.657-0.90318-6.9997-1.0623-1.1641-0.0769-2.3296-0.11743-3.4999-0.0937z" fill="url(#radialGradient2966)" fill-rule="evenodd"/>
     <path transform="matrix(1.0298 .083109 -.017976 1.0286 -380.95 -541.38)" d="m286 49.5a76.25 11.672 0 0 1-38.125 10.108 76.25 11.672 0 0 1-76.25-1e-6 76.25 11.672 0 0 1-38.125-10.108" fill="none" stroke="#000" stroke-width="1.8543"/>
    </g>
   </g>
  </g>
 </g>
</svg>
