<?xml version="1.0" encoding="utf-8"?>
<!-- Generator: Adobe Illustrator 13.0.0, SVG Export Plug-In . SVG Version: 6.00 Build 14948)  -->
<!DOCTYPE svg PUBLIC "-//W3C//DTD SVG 1.1//EN" "http://www.w3.org/Graphics/SVG/1.1/DTD/svg11.dtd">
<svg version="1.1" id="Ebene_2" xmlns="http://www.w3.org/2000/svg" xmlns:xlink="http://www.w3.org/1999/xlink" x="0px" y="0px"
	 width="1024px" height="768px" viewBox="0 0 1024 768" enable-background="new 0 0 1024 768" xml:space="preserve">
<g id="XMLID_1_">
	<g>
		<path fill="#0ADAFF" d="M733.64,623.59c13.591-14.55,37.54-43.22,40.4-67.25c34.16-48.2,54.65-107.859,54.65-171.86
			c0-0.16,0-0.32,0-0.48h9.739c0,0.14,0,0.29,0,0.43c0,96.43-41.81,183.089-108.279,242.83
			C731.22,626.17,732.39,624.94,733.64,623.59z"/>
		<path fill="#0A5AE6" d="M733.12,145.54c-0.01-0.02-0.03-0.03-0.04-0.04c-4.84-5.18-8.23-8.43-8.61-8.8l0.04-0.05
			C794.15,196.43,838.3,285.06,838.43,384h-9.739c-0.101-63.56-20.61-122.76-54.601-170.69C771.46,189.45,746.65,160,733.12,145.54z
			"/>
		<path fill="#0A5AE6" d="M828.69,384c0,0.16,0,0.32,0,0.48c0,64-20.49,123.66-54.65,171.86c0.19-1.56,0.29-3.1,0.29-4.609
			c0-10.03-5.86-18.03-16.8-24.4c23.08-39.061,37.66-86.53,37.66-142.85c0-0.16,0-0.32,0-0.48H828.69z"/>
		<path fill="#0ADAFF" d="M828.69,384h-33.5c-0.091-54.94-15.011-101.9-38.33-140.9c11.229-6.58,17.47-15,17.47-25.77
			c0-1.32-0.08-2.66-0.24-4.02C808.08,261.24,828.59,320.44,828.69,384z"/>
		<path fill="#0ADAFF" d="M795.19,384c0,0.16,0,0.32,0,0.48c0,56.32-14.58,103.79-37.66,142.85
			c-11.971-6.97-30.021-11.98-53.16-15.58c14.81-34.58,24.149-76.51,24.149-127.27c0-0.16,0-0.32,0-0.48H795.19z"/>
		<path fill="#0A5AE6" d="M795.19,384H728.52c-0.06-49.89-9.149-91.22-23.579-125.4c22.029-3.46,39.859-8.42,51.92-15.5
			C780.18,282.1,795.1,329.06,795.19,384z"/>
		<path fill="#0A5AE6" d="M774.09,213.31c0.16,1.36,0.24,2.7,0.24,4.02c0,10.77-6.24,19.19-17.47,25.77
			c-26.69-44.65-64.41-78.87-103.471-102.66c1.69-2.57,2.61-5.38,2.61-8.44c0-5.67-2.74-11.92-7.91-18.22
			C698.17,133.08,742.11,168.19,774.09,213.31z"/>
		<path fill="#0ADAFF" d="M774.33,551.73c0,1.51-0.1,3.05-0.29,4.609c-31.81,44.91-75.48,79.87-125.5,99.11
			c5.03-5.94,7.79-11.96,7.79-17.72c0-3.07-0.97-5.9-2.76-8.511c39.72-23.27,77.449-57.029,103.96-101.89
			C768.47,533.7,774.33,541.7,774.33,551.73z"/>
		<path fill="#0A5AE6" d="M648.54,655.45c50.02-19.24,93.69-54.2,125.5-99.11c-2.86,24.03-26.81,52.7-40.4,67.25
			c-10.54,9.13-68.25,56.59-134.859,62.68C621.23,677.82,638.99,666.77,648.54,655.45z"/>
		<path fill="#0ADAFF" d="M774.09,213.31c-31.979-45.12-75.92-80.23-126-99.53l-0.01-0.01c-8.86-10.77-24.84-21.7-46.51-30.17
			c64.33,7.01,119.79,51.85,131.51,61.9c0.01,0.01,0.03,0.02,0.04,0.04C746.65,160,771.46,189.45,774.09,213.31z"/>
		<path fill="#0ADAFF" d="M733.64,623.59c-1.25,1.351-2.42,2.58-3.489,3.67c-57.66,51.851-133.881,83.44-217.48,83.61v-9.14
			c31.271-0.021,61.5-6.19,86.11-15.461C665.39,680.18,723.1,632.72,733.64,623.59z"/>
		<path fill="#0A5AE6" d="M728.52,384c0,0.16,0,0.32,0,0.48c0,50.76-9.34,92.69-24.149,127.27c-24.25-3.76-54.09-5.97-88.36-7.22
			c8.66-33.66,14.181-73.41,14.181-120.05c0-0.16,0-0.32,0-0.48H728.52z"/>
		<path fill="#0ADAFF" d="M728.52,384H630.19c-0.04-45.93-5.431-85.14-13.9-118.42c33.42-1.04,63.72-3.05,88.65-6.98
			C719.37,292.78,728.46,334.11,728.52,384z"/>
		<path fill="#0A5AE6" d="M724.47,136.7c0.38,0.37,3.771,3.62,8.61,8.8c-11.72-10.05-67.18-54.89-131.51-61.9
			c-23.551-9.22-53.801-15.54-88.9-15.6V58c80.9,0.16,154.9,29.76,211.84,78.65L724.47,136.7z"/>
		<path fill="#0ADAFF" d="M756.86,243.1c-12.061,7.08-29.891,12.04-51.92,15.5c-19.351-45.85-48.301-78.83-77.931-102.37
			c12.34-3.93,21.99-9.07,26.38-15.79C692.45,164.23,730.17,198.45,756.86,243.1z"/>
		<path fill="#0A5AE6" d="M704.37,511.75c23.14,3.6,41.189,8.61,53.16,15.58c-26.511,44.86-64.24,78.62-103.96,101.89
			c-4.521-6.58-14.29-11.77-27.12-15.8C655.99,590.02,684.91,557.24,704.37,511.75z"/>
		<path fill="#0ADAFF" d="M616.01,504.53c34.271,1.25,64.11,3.46,88.36,7.22c-19.46,45.49-48.38,78.27-77.92,101.67
			c-14.7-4.62-33.42-7.729-52.851-9.72C589.52,579.1,605.21,546.56,616.01,504.53z"/>
		<path fill="#0A5AE6" d="M704.94,258.6c-24.931,3.93-55.23,5.94-88.65,6.98c-10.75-42.24-26.44-74.91-42.39-99.6
			c18.63-1.88,37.92-4.9,53.109-9.75C656.64,179.77,685.59,212.75,704.94,258.6z"/>
		<path fill="#0A5AE6" d="M653.57,629.22c1.79,2.61,2.76,5.44,2.76,8.511c0,5.76-2.76,11.779-7.79,17.72
			C620.73,666.16,590.97,672,560.19,672c-30.62,0-44.631-2.62-47.521-3.25v-0.09C550.6,671.2,603.66,658.48,653.57,629.22z"/>
		<path fill="#0ADAFF" d="M656,132c0,3.06-0.92,5.87-2.61,8.44c-52.159-31.78-106.739-44.98-140.72-39.65v-0.03
			c3.13-0.63,19.021-3.51,47.521-3.51c30.529,0,60.149,5.84,87.89,16.52l0.01,0.01C653.26,120.08,656,126.33,656,132z"/>
		<path fill="#0ADAFF" d="M630.19,384c0,0.16,0,0.32,0,0.48c0,46.64-5.521,86.39-14.181,120.05c-31.09-1.12-65.819-1.46-103.34-1.46
			V384H630.19z"/>
		<path fill="#0A5AE6" d="M630.19,384H512.67V266.67c36.08,0,71.311-0.08,103.62-1.09C624.76,298.86,630.15,338.07,630.19,384z"/>
		<path fill="#0A5AE6" d="M653.39,140.44c-4.39,6.72-14.04,11.86-26.38,15.79c-52.99-42.12-108.149-54.01-114.34-55.24v-0.2
			C546.65,95.46,601.23,108.66,653.39,140.44z"/>
		<path fill="#0ADAFF" d="M626.45,613.42c12.83,4.03,22.6,9.22,27.12,15.8c-49.91,29.261-102.971,41.98-140.9,39.44v-0.15
			C518.84,667.26,573.63,655.32,626.45,613.42z"/>
		<path fill="#0ADAFF" d="M512.67,100.99c6.19,1.23,61.35,13.12,114.34,55.24c-15.189,4.85-34.479,7.87-53.109,9.75
			c-28-43.3-56.82-62.04-61.23-64.75V100.99z"/>
		<path fill="#0A5AE6" d="M626.45,613.42c-52.82,41.9-107.61,53.84-113.78,55.09v-0.24c4.39-2.72,33.021-21.47,60.93-64.569
			C593.03,605.69,611.75,608.8,626.45,613.42z"/>
		<path fill="#0A5AE6" d="M601.57,83.6c21.67,8.47,37.649,19.4,46.51,30.17c-27.74-10.68-57.36-16.52-87.89-16.52
			c-28.5,0-44.391,2.88-47.521,3.51v-0.28c3.99-2.67,28.5-17.81,72.19-17.81C590.48,82.67,596.06,82.99,601.57,83.6z"/>
		<path fill="#0ADAFF" d="M648.54,655.45c-9.55,11.319-27.31,22.37-49.76,30.819c-4.601,0.431-9.25,0.65-13.92,0.65
			c-43.69,0-68.2-15.21-72.19-17.9v-0.27c2.89,0.63,16.9,3.25,47.521,3.25C590.97,672,620.73,666.16,648.54,655.45z"/>
		<path fill="#0ADAFF" d="M601.57,83.6c-5.511-0.61-11.09-0.93-16.71-0.93c-43.69,0-68.2,15.14-72.19,17.81V68
			C547.77,68.06,578.02,74.38,601.57,83.6z"/>
		<path fill="#0A5AE6" d="M584.86,686.92c4.67,0,9.319-0.22,13.92-0.65c-24.61,9.271-54.84,15.44-86.11,15.461V669.02
			C516.66,671.71,541.17,686.92,584.86,686.92z"/>
		<path fill="#0ADAFF" d="M573.9,165.98c15.949,24.69,31.64,57.36,42.39,99.6c-32.31,1.01-67.54,1.09-103.62,1.09V169
			C523.28,168.99,547.96,168.59,573.9,165.98z"/>
		<path fill="#0A5AE6" d="M616.01,504.53c-10.8,42.029-26.49,74.569-42.41,99.17c-20.869-2.13-42.56-2.96-60.93-2.97v-97.66
			C550.19,503.07,584.92,503.41,616.01,504.53z"/>
		<path fill="#0A5AE6" d="M512.67,101.23c4.41,2.71,33.23,21.45,61.23,64.75c-25.94,2.61-50.62,3.01-61.23,3.02V101.23z"/>
		<path fill="#0ADAFF" d="M573.6,603.7c-27.909,43.1-56.54,61.85-60.93,64.569V600.73C531.04,600.74,552.73,601.57,573.6,603.7z"/>
		<path fill="#0A5AE6" d="M512.67,701.73v9.14c-0.22,0-0.45,0-0.67,0c-81.66,0-156.31-29.99-213.55-79.54
			c-0.02-0.021-0.04-0.04-0.07-0.061c-1.32-1.319-3.28-3.3-5.66-5.819c14.57,12.22,68.24,53.89,130.07,60.56
			c23.7,9.33,54.24,15.721,89.71,15.721C512.56,701.73,512.61,701.73,512.67,701.73z"/>
		<path fill="#0ADAFF" d="M512.67,669.02v32.711c-0.06,0-0.11,0-0.17,0c-35.47,0-66.01-6.391-89.71-15.721
			c5.46,0.59,10.98,0.91,16.54,0.91c47.02,0,71.82-17.62,72.73-18.29c0.02-0.01,0.03-0.01,0.03-0.01s0.01,0,0.02,0.01
			C512.16,668.67,512.35,668.81,512.67,669.02z"/>
		<path fill="#0ADAFF" d="M512.67,668.75v0.27c-0.32-0.21-0.51-0.35-0.56-0.39C512.17,668.64,512.36,668.68,512.67,668.75z"/>
		<path fill="#0ADAFF" d="M512.67,668.66v0.09c-0.31-0.07-0.5-0.11-0.56-0.12c-0.01-0.01-0.02-0.01-0.02-0.01
			C512.28,668.63,512.47,668.65,512.67,668.66z"/>
		<path fill="#0ADAFF" d="M512.67,668.51v0.15c-0.2-0.01-0.39-0.03-0.58-0.04c0,0,0.01,0,0.02-0.01
			C512.17,668.6,512.36,668.57,512.67,668.51z"/>
		<path fill="#0ADAFF" d="M512.67,668.27v0.24c-0.31,0.061-0.5,0.09-0.56,0.101C512.17,668.57,512.36,668.46,512.67,668.27z"/>
		<path fill="#0A5AE6" d="M512.67,600.73v67.539c-0.31,0.19-0.5,0.301-0.56,0.341c-0.01,0.01-0.02,0.01-0.02,0.01s-0.01,0-0.02-0.01
			c-0.93-0.551-31.6-18.771-61.45-64.851c26.41-2.66,51.53-3.029,61.88-3.029C512.56,600.73,512.61,600.73,512.67,600.73z"/>
		<path fill="#0ADAFF" d="M512.67,503.07v97.66c-0.06,0-0.11,0-0.17,0c-10.35,0-35.47,0.369-61.88,3.029
			c-15.98-24.68-31.72-57.359-42.53-99.59C440.69,503.15,476.25,503.07,512.67,503.07z"/>
		<path fill="#0A5AE6" d="M512.67,384v119.07c-36.42,0-71.98,0.08-104.58,1.1C399.48,470.58,394,430.95,394,384.48
			c0-0.16,0-0.32,0-0.48H512.67z"/>
		<path fill="#0ADAFF" d="M512.67,266.67V384H394c0.04-46.12,5.48-85.46,14.01-118.83c31.26,1.16,66.21,1.5,103.99,1.5
			C512.22,266.67,512.45,266.67,512.67,266.67z"/>
		<path fill="#0A5AE6" d="M512.67,169v97.67c-0.22,0-0.45,0-0.67,0c-37.78,0-72.73-0.34-103.99-1.5
			c10.74-42.06,26.38-74.61,42.29-99.22c21.17,2.2,43.23,3.05,61.87,3.05C512.33,169,512.5,169,512.67,169z"/>
		<path fill="#0ADAFF" d="M512.67,101.23V169c-0.17,0-0.34,0-0.5,0c-18.64,0-40.7-0.85-61.87-3.05
			c29.96-46.31,60.84-64.52,61.77-65.06c0.01-0.01,0.02-0.01,0.02-0.01s0.01,0,0.02,0.01C512.17,100.93,512.36,101.04,512.67,101.23
			z"/>
		<path fill="#0ADAFF" d="M512.67,100.99v0.24c-0.31-0.19-0.5-0.3-0.56-0.34C512.17,100.9,512.36,100.93,512.67,100.99z"/>
		<path fill="#0ADAFF" d="M512.67,100.79v0.2c-0.31-0.06-0.5-0.09-0.56-0.1c-0.01-0.01-0.02-0.01-0.02-0.01
			c0.04-0.01,0.07-0.01,0.11-0.02C512.35,100.84,512.51,100.81,512.67,100.79z"/>
		<path fill="#0ADAFF" d="M512.67,100.76v0.03c-0.16,0.02-0.32,0.05-0.47,0.07C512.29,100.84,512.45,100.8,512.67,100.76z"/>
		<path fill="#0ADAFF" d="M512.67,100.48v0.28c-0.22,0.04-0.38,0.08-0.47,0.1c-0.04,0.01-0.07,0.01-0.11,0.02
			C512.09,100.88,512.28,100.74,512.67,100.48z"/>
		<path fill="#0A5AE6" d="M512.67,68v32.48c-0.39,0.26-0.58,0.4-0.58,0.4s-24.84-18.21-72.76-18.21c-4.29,0-8.56,0.19-12.79,0.55
			C451.07,74.06,481.12,68,512.17,68C512.34,68,512.5,68,512.67,68z"/>
		<path fill="#0ADAFF" d="M300.29,136.7l-0.37-0.43C356.96,87.48,431.04,58,512,58c0.22,0,0.45,0,0.67,0v10c-0.17,0-0.33,0-0.5,0
			c-31.05,0-61.1,6.06-85.63,15.22c-62.14,5.23-116.74,46.75-132.88,60.13C297.43,139.42,299.97,137.01,300.29,136.7z"/>
		<path fill="#0ADAFF" d="M512.09,100.88c0,0-0.01,0-0.02,0.01v-0.01C512.08,100.88,512.09,100.88,512.09,100.88z"/>
		<path fill="#0ADAFF" d="M512.09,100.88c0,0-0.01,0-0.02,0c-0.03-0.01-0.06-0.01-0.09-0.02c-1.43-0.31-17.48-3.61-47.98-3.61
			c-30.29,0-59.69,5.75-87.24,16.28c9.8-11.16,27.52-22.01,49.78-30.31c4.23-0.36,8.5-0.55,12.79-0.55
			C487.25,82.67,512.09,100.88,512.09,100.88z"/>
		<path fill="#0ADAFF" d="M512.09,668.62c0,0-0.01,0-0.03,0.01C511.34,668.8,497.79,672,464,672c-30.5,0-60-5.74-87.59-16.26
			c-5.07-6.23-7.74-12.4-7.74-18.01c0-2.971,0.86-5.7,2.46-8.211C421.14,658.71,474.25,671.32,512.09,668.62z"/>
		<path fill="#0A5AE6" d="M512.07,668.61c0.01,0.01,0.02,0.01,0.02,0.01c-37.84,2.7-90.95-9.91-140.96-39.101
			c4.34-6.85,14.1-12.069,26.64-16.06C453.19,657.4,510.76,668.37,512.07,668.61z"/>
		<path fill="#0ADAFF" d="M512.07,100.88v0.01c-1.31,0.24-59.13,11.11-114.66,55.15c-12.55-4.02-22.07-9.17-26.44-15.7
			c52.35-31.85,107.11-44.99,141.01-39.48C512.01,100.87,512.04,100.87,512.07,100.88z"/>
		<path fill="#0A5AE6" d="M464,672c33.79,0,47.34-3.2,48.06-3.37c-0.91,0.67-25.71,18.29-72.73,18.29c-5.56,0-11.08-0.32-16.54-0.91
			c-21.66-8.51-37.61-19.479-46.38-30.27C404,666.26,433.5,672,464,672z"/>
		<path fill="#0A5AE6" d="M464,97.25c30.5,0,46.55,3.3,47.98,3.61c-33.9-5.51-88.66,7.63-141.01,39.48
			c-1.72-2.56-2.64-5.34-2.64-8.34c0-6,3-12.29,8.43-18.47C404.31,103,433.71,97.25,464,97.25z"/>
		<path fill="#0A5AE6" d="M512.07,100.89c-0.93,0.54-31.81,18.75-61.77,65.06c-19.51-2.03-38.26-5.2-52.89-9.91
			C452.94,112,510.76,101.13,512.07,100.89z"/>
		<path fill="#0ADAFF" d="M450.62,603.76c29.85,46.08,60.52,64.3,61.45,64.851c-1.31-0.24-58.88-11.21-114.3-55.15
			C412.9,608.65,432.08,605.64,450.62,603.76z"/>
		<path fill="#0A5AE6" d="M450.62,603.76c-18.54,1.88-37.72,4.891-52.85,9.7c-29.67-23.51-58.73-56.479-78.2-102.3
			c24.89-3.93,55.15-5.95,88.52-6.99C418.9,546.4,434.64,579.08,450.62,603.76z"/>
		<path fill="#0ADAFF" d="M397.41,156.04c14.63,4.71,33.38,7.88,52.89,9.91c-15.91,24.61-31.55,57.16-42.29,99.22
			c-34.34-1.26-64.21-3.49-88.44-7.3C338.96,212.28,367.86,179.47,397.41,156.04z"/>
		<path fill="#0A5AE6" d="M426.54,83.22c-22.26,8.3-39.98,19.15-49.78,30.31c-50.02,19.11-93.94,53.99-126.01,98.87
			c3.62-25.48,30.24-55.85,42.91-69.05C309.8,129.97,364.4,88.45,426.54,83.22z"/>
		<path fill="#0ADAFF" d="M376.41,655.74c8.77,10.79,24.72,21.76,46.38,30.27c-61.83-6.67-115.5-48.34-130.07-60.56
			c-13.11-13.851-39.02-43.96-42.09-68.431C282.56,601.82,326.33,636.66,376.41,655.74z"/>
		<path fill="#0A5AE6" d="M408.01,265.17C399.48,298.54,394.04,337.88,394,384h-98.33c0.06-50.25,9.28-91.81,23.9-126.13
			C343.8,261.68,373.67,263.91,408.01,265.17z"/>
		<path fill="#0ADAFF" d="M394,384.48c0,46.47,5.48,86.1,14.09,119.69c-33.37,1.04-63.63,3.061-88.52,6.99
			c-14.66-34.47-23.9-76.21-23.9-126.68c0-0.16,0-0.32,0-0.48H394C394,384.16,394,384.32,394,384.48z"/>
		<path fill="#0A5AE6" d="M370.97,140.34c4.37,6.53,13.89,11.68,26.44,15.7c-29.55,23.43-58.45,56.24-77.84,101.83
			c-22.5-3.55-40.14-8.45-51.98-15.21C294.31,198.16,331.97,164.06,370.97,140.34z"/>
		<path fill="#0ADAFF" d="M397.77,613.46c-12.54,3.99-22.3,9.21-26.64,16.06c-39.91-23.289-77.85-57.14-104.47-102.199
			c12.04-7.431,30.25-12.58,52.91-16.16C339.04,556.98,368.1,589.95,397.77,613.46z"/>
		<path fill="#0A5AE6" d="M371.13,629.52c-1.6,2.511-2.46,5.24-2.46,8.211c0,5.609,2.67,11.779,7.74,18.01
			c-50.08-19.08-93.85-53.92-125.78-98.721c-0.2-1.56-0.3-3.109-0.3-4.619c0-10.4,5.82-18.601,16.33-25.08
			C293.28,572.38,331.22,606.23,371.13,629.52z"/>
		<path fill="#0ADAFF" d="M368.33,132c0,3,0.92,5.78,2.64,8.34c-39,23.72-76.66,57.82-103.38,102.32
			c-11.24-6.42-17.26-14.5-17.26-24.66c0-1.83,0.14-3.7,0.42-5.6c32.07-44.88,75.99-79.76,126.01-98.87
			C371.33,119.71,368.33,126,368.33,132z"/>
		<path fill="#0ADAFF" d="M293.66,143.35c-12.67,13.2-39.29,43.57-42.91,69.05C216.37,260.48,195.6,320.04,195.5,384h-9.93
			c0.13-99.15,44.46-187.94,114.35-247.73l0.37,0.43C299.97,137.01,297.43,139.42,293.66,143.35z"/>
		<path fill="#0ADAFF" d="M319.57,257.87c-14.62,34.32-23.84,75.88-23.9,126.13H229c0.09-55.15,15.12-102.26,38.59-141.34
			C279.43,249.42,297.07,254.32,319.57,257.87z"/>
		<path fill="#0A5AE6" d="M295.67,384.48c0,50.47,9.24,92.21,23.9,126.68c-22.66,3.58-40.87,8.729-52.91,16.16
			C243.58,488.26,229,440.79,229,384.48c0-0.16,0-0.32,0-0.48h66.67C295.67,384.16,295.67,384.32,295.67,384.48z"/>
		<path fill="#0A5AE6" d="M292.72,625.45c2.38,2.52,4.34,4.5,5.66,5.819C229.28,571.41,185.57,483.03,185.57,384.43
			c0-0.14,0-0.29,0-0.43h9.93c0,0.16,0,0.32,0,0.48c0,64.3,20.68,124.22,55.13,172.54C253.7,581.49,279.61,611.6,292.72,625.45z"/>
		<path fill="#0A5AE6" d="M250.75,212.4c-0.28,1.9-0.42,3.77-0.42,5.6c0,10.16,6.02,18.24,17.26,24.66
			C244.12,281.74,229.09,328.85,229,384h-33.5C195.6,320.04,216.37,260.48,250.75,212.4z"/>
		<path fill="#0ADAFF" d="M250.33,552.4c0,1.51,0.1,3.06,0.3,4.619C216.18,508.7,195.5,448.78,195.5,384.48c0-0.16,0-0.32,0-0.48
			H229c0,0.16,0,0.32,0,0.48c0,56.31,14.58,103.78,37.66,142.84C256.15,533.8,250.33,542,250.33,552.4z"/>
	</g>
	<g>
	</g>
</g>
</svg>
