<?xml version="1.0" encoding="UTF-8" standalone="no"?>
<!-- Created with Inkscape (http://www.inkscape.org/) -->
<svg
   xmlns:dc="http://purl.org/dc/elements/1.1/"
   xmlns:cc="http://creativecommons.org/ns#"
   xmlns:rdf="http://www.w3.org/1999/02/22-rdf-syntax-ns#"
   xmlns:svg="http://www.w3.org/2000/svg"
   xmlns="http://www.w3.org/2000/svg"
   xmlns:xlink="http://www.w3.org/1999/xlink"
   xmlns:sodipodi="http://sodipodi.sourceforge.net/DTD/sodipodi-0.dtd"
   xmlns:inkscape="http://www.inkscape.org/namespaces/inkscape"
   version="1.0"
   width="900"
   height="690"
   viewBox="0 0 500 420"
   id="svg3608"
   xml:space="preserve"
   sodipodi:version="0.32"
   inkscape:version="0.46"
   sodipodi:docname="Submarine_cable_cross-section_3D_plain.svg"
   inkscape:output_extension="org.inkscape.output.svg.inkscape"><metadata
   id="metadata267"><rdf:RDF><cc:Work
       rdf:about=""><dc:format>image/svg+xml</dc:format><dc:type
         rdf:resource="http://purl.org/dc/dcmitype/StillImage" /></cc:Work></rdf:RDF></metadata><sodipodi:namedview
   inkscape:window-height="971"
   inkscape:window-width="1680"
   inkscape:pageshadow="2"
   inkscape:pageopacity="0.0"
   guidetolerance="10.0"
   gridtolerance="10.0"
   objecttolerance="10.0"
   borderopacity="1.0"
   bordercolor="#666666"
   pagecolor="#ffffff"
   id="base"
   showgrid="false"
   inkscape:zoom="1.0710145"
   inkscape:cx="450"
   inkscape:cy="345"
   inkscape:window-x="0"
   inkscape:window-y="26"
   inkscape:current-layer="svg3608" /><defs
   id="defs3770"><inkscape:perspective
   sodipodi:type="inkscape:persp3d"
   inkscape:vp_x="0 : 345 : 1"
   inkscape:vp_y="0 : 1000 : 0"
   inkscape:vp_z="900 : 345 : 1"
   inkscape:persp3d-origin="450 : 230 : 1"
   id="perspective269" /><linearGradient
   id="linearGradient3591"><stop
     style="stop-color:#c9c9c9;stop-opacity:1"
     offset="0"
     id="stop3593" /><stop
     style="stop-color:#d5d5d5;stop-opacity:1"
     offset="0.85185188"
     id="stop3599" /><stop
     style="stop-color:#c9c9c9;stop-opacity:1"
     offset="1"
     id="stop3595" /></linearGradient><linearGradient
   id="linearGradient3581"><stop
     style="stop-color:#a6a6a6;stop-opacity:1"
     offset="0"
     id="stop3583" /><stop
     style="stop-color:#c3c3c3;stop-opacity:1"
     offset="0.77777779"
     id="stop3589" /><stop
     style="stop-color:#a6a6a6;stop-opacity:1"
     offset="1"
     id="stop3585" /></linearGradient><linearGradient
   id="linearGradient3571"><stop
     style="stop-color:#e5aa5a;stop-opacity:1"
     offset="0"
     id="stop3573" /><stop
     style="stop-color:#ecc084;stop-opacity:1"
     offset="0.7037037"
     id="stop3579" /><stop
     style="stop-color:#e5aa5a;stop-opacity:1"
     offset="1"
     id="stop3575" /></linearGradient><linearGradient
   id="linearGradient3561"><stop
     style="stop-color:#a493dc;stop-opacity:1"
     offset="0"
     id="stop3563" /><stop
     style="stop-color:#c0b4e7;stop-opacity:1"
     offset="0.77777779"
     id="stop3569" /><stop
     style="stop-color:#a493dc;stop-opacity:1"
     offset="1"
     id="stop3565" /></linearGradient><linearGradient
   id="linearGradient3551"><stop
     style="stop-color:#c0d483;stop-opacity:1"
     offset="0"
     id="stop3553" /><stop
     style="stop-color:#dce7b9;stop-opacity:1"
     offset="0.77777779"
     id="stop3559" /><stop
     style="stop-color:#c0d483;stop-opacity:1"
     offset="1"
     id="stop3555" /></linearGradient>
     
     
     
     
     
     
     

     
     
     
     
     
     
     
     
     
     
     
     
     
     
     
     
     
     
     
     

     
    
    
    
    
    
    
    
    
    
    
    
    
    
    
    
    
    
    
    
    
    
    
    
    
    
    
    
    
    
    
    
    
    
    
    
    
    

    
    
    
    
    
    
    
    
    
    
    
    
    
    
    
    


 <clipPath
   id="clipPath3337"><path
     d="M 205.9825,361.48528 L 92.391877,361.96377 C 67.332407,361.96377 46.994281,302.13149 46.994281,228.40959 C 46.994281,154.68769 67.332407,94.855415 92.391877,94.855415 L 200.49747,94.763624 L 205.9825,361.48528 z "
     style="opacity:0.73500001;fill:#a493dc;stroke:#000000;stroke-width:0.57254064"
     id="path3339" /></clipPath><clipPath
   id="clipPath3341"><path
     d="M 205.9825,361.48528 L 92.391877,361.96377 C 67.332407,361.96377 46.994281,302.13149 46.994281,228.40959 C 46.994281,154.68769 67.332407,94.855415 92.391877,94.855415 L 200.49747,94.763624 L 205.9825,361.48528 z "
     style="opacity:0.73500001;fill:#a493dc;stroke:#000000;stroke-width:0.57254064"
     id="path3343" /></clipPath><clipPath
   id="clipPath3345"><path
     d="M 205.9825,361.48528 L 92.391877,361.96377 C 67.332407,361.96377 46.994281,302.13149 46.994281,228.40959 C 46.994281,154.68769 67.332407,94.855415 92.391877,94.855415 L 200.49747,94.763624 L 205.9825,361.48528 z "
     style="opacity:0.73500001;fill:#a493dc;stroke:#000000;stroke-width:0.57254064"
     id="path3347" /></clipPath><clipPath
   id="clipPath3349"><path
     d="M 205.9825,361.48528 L 92.391877,361.96377 C 67.332407,361.96377 46.994281,302.13149 46.994281,228.40959 C 46.994281,154.68769 67.332407,94.855415 92.391877,94.855415 L 200.49747,94.763624 L 205.9825,361.48528 z "
     style="opacity:0.73500001;fill:#a493dc;stroke:#000000;stroke-width:0.57254064"
     id="path3351" /></clipPath><clipPath
   id="clipPath3353"><path
     d="M 205.9825,361.48528 L 92.391877,361.96377 C 67.332407,361.96377 46.994281,302.13149 46.994281,228.40959 C 46.994281,154.68769 67.332407,94.855415 92.391877,94.855415 L 200.49747,94.763624 L 205.9825,361.48528 z "
     style="opacity:0.73500001;fill:#a493dc;stroke:#000000;stroke-width:0.57254064"
     id="path3355" /></clipPath><clipPath
   id="clipPath3357"><path
     d="M 205.9825,361.48528 L 92.391877,361.96377 C 67.332407,361.96377 46.994281,302.13149 46.994281,228.40959 C 46.994281,154.68769 67.332407,94.855415 92.391877,94.855415 L 200.49747,94.763624 L 205.9825,361.48528 z "
     style="opacity:0.73500001;fill:#a493dc;stroke:#000000;stroke-width:0.57254064"
     id="path3359" /></clipPath><clipPath
   id="clipPath3361"><path
     d="M 205.9825,361.48528 L 92.391877,361.96377 C 67.332407,361.96377 46.994281,302.13149 46.994281,228.40959 C 46.994281,154.68769 67.332407,94.855415 92.391877,94.855415 L 200.49747,94.763624 L 205.9825,361.48528 z "
     style="opacity:0.73500001;fill:#a493dc;stroke:#000000;stroke-width:0.57254064"
     id="path3363" /></clipPath><clipPath
   id="clipPath3365"><path
     d="M 205.9825,361.48528 L 92.391877,361.96377 C 67.332407,361.96377 46.994281,302.13149 46.994281,228.40959 C 46.994281,154.68769 67.332407,94.855415 92.391877,94.855415 L 200.49747,94.763624 L 205.9825,361.48528 z "
     style="opacity:0.73500001;fill:#a493dc;stroke:#000000;stroke-width:0.57254064"
     id="path3367" /></clipPath><clipPath
   id="clipPath3369"><path
     d="M 205.9825,361.48528 L 92.391877,361.96377 C 67.332407,361.96377 46.994281,302.13149 46.994281,228.40959 C 46.994281,154.68769 67.332407,94.855415 92.391877,94.855415 L 200.49747,94.763624 L 205.9825,361.48528 z "
     style="opacity:0.73500001;fill:#a493dc;stroke:#000000;stroke-width:0.57254064"
     id="path3371" /></clipPath><clipPath
   id="clipPath3373"><path
     d="M 205.9825,361.48528 L 92.391877,361.96377 C 67.332407,361.96377 46.994281,302.13149 46.994281,228.40959 C 46.994281,154.68769 67.332407,94.855415 92.391877,94.855415 L 200.49747,94.763624 L 205.9825,361.48528 z "
     style="opacity:0.73500001;fill:#a493dc;stroke:#000000;stroke-width:0.57254064"
     id="path3375" /></clipPath><clipPath
   id="clipPath3377"><path
     d="M 205.9825,361.48528 L 92.391877,361.96377 C 67.332407,361.96377 46.994281,302.13149 46.994281,228.40959 C 46.994281,154.68769 67.332407,94.855415 92.391877,94.855415 L 200.49747,94.763624 L 205.9825,361.48528 z "
     style="opacity:0.73500001;fill:#a493dc;stroke:#000000;stroke-width:0.57254064"
     id="path3379" /></clipPath><clipPath
   id="clipPath3381"><path
     d="M 205.9825,361.48528 L 92.391877,361.96377 C 67.332407,361.96377 46.994281,302.13149 46.994281,228.40959 C 46.994281,154.68769 67.332407,94.855415 92.391877,94.855415 L 200.49747,94.763624 L 205.9825,361.48528 z "
     style="opacity:0.73500001;fill:#a493dc;stroke:#000000;stroke-width:0.57254064"
     id="path3383" /></clipPath><clipPath
   id="clipPath3385"><path
     d="M 205.9825,361.48528 L 92.391877,361.96377 C 67.332407,361.96377 46.994281,302.13149 46.994281,228.40959 C 46.994281,154.68769 67.332407,94.855415 92.391877,94.855415 L 200.49747,94.763624 L 205.9825,361.48528 z "
     style="opacity:0.73500001;fill:#a493dc;stroke:#000000;stroke-width:0.57254064"
     id="path3387" /></clipPath><linearGradient
   x1="-13.853984"
   y1="370.7529"
   x2="-13.853984"
   y2="39.8503"
   id="linearGradient3557"
   xlink:href="#linearGradient3551"
   gradientUnits="userSpaceOnUse" /><linearGradient
   x1="75.708809"
   y1="341.71753"
   x2="81.952736"
   y2="68.67083"
   id="linearGradient3567"
   xlink:href="#linearGradient3561"
   gradientUnits="userSpaceOnUse" /><linearGradient
   x1="339.29858"
   y1="251.60773"
   x2="339.29858"
   y2="158.99548"
   id="linearGradient3577"
   xlink:href="#linearGradient3571"
   gradientUnits="userSpaceOnUse" /><linearGradient
   x1="282.15317"
   y1="268.62845"
   x2="282.64627"
   y2="141.97475"
   id="linearGradient3587"
   xlink:href="#linearGradient3581"
   gradientUnits="userSpaceOnUse" /><linearGradient
   x1="196.07262"
   y1="275.6778"
   x2="196.07262"
   y2="134.68987"
   id="linearGradient3597"
   xlink:href="#linearGradient3591"
   gradientUnits="userSpaceOnUse" /><clipPath
   id="clipPath3969"><path
     d="M 426.47317,223.62427 L 378.4097,227.33088 C 373.6873,227.33088 369.85463,216.56576 369.85463,203.3016 C 369.85463,190.03744 373.6873,179.27232 378.4097,179.27232 L 425.3222,182.75997 L 426.47317,223.62427 z "
     style="opacity:0.85;fill:none;stroke:#000000;stroke-width:0.98913044;stroke-miterlimit:4;stroke-dasharray:none;stroke-opacity:1"
     id="path3971" /></clipPath><clipPath
   id="clipPath3973"><path
     d="M 426.47317,223.62427 L 378.4097,227.33088 C 373.6873,227.33088 369.85463,216.56576 369.85463,203.3016 C 369.85463,190.03744 373.6873,179.27232 378.4097,179.27232 L 425.3222,182.75997 L 426.47317,223.62427 z "
     style="opacity:0.85;fill:none;stroke:#000000;stroke-width:0.98913044;stroke-miterlimit:4;stroke-dasharray:none;stroke-opacity:1"
     id="path3975" /></clipPath><clipPath
   id="clipPath3977"><path
     d="M 426.47317,223.62427 L 378.4097,227.33088 C 373.6873,227.33088 369.85463,216.56576 369.85463,203.3016 C 369.85463,190.03744 373.6873,179.27232 378.4097,179.27232 L 425.3222,182.75997 L 426.47317,223.62427 z "
     style="opacity:0.85;fill:none;stroke:#000000;stroke-width:0.98913044;stroke-miterlimit:4;stroke-dasharray:none;stroke-opacity:1"
     id="path3979" /></clipPath><clipPath
   id="clipPath3981"><path
     d="M 426.47317,223.62427 L 378.4097,227.33088 C 373.6873,227.33088 369.85463,216.56576 369.85463,203.3016 C 369.85463,190.03744 373.6873,179.27232 378.4097,179.27232 L 425.3222,182.75997 L 426.47317,223.62427 z "
     style="opacity:0.85;fill:none;stroke:#000000;stroke-width:0.98913044;stroke-miterlimit:4;stroke-dasharray:none;stroke-opacity:1"
     id="path3983" /></clipPath><clipPath
   id="clipPath3985"><path
     d="M 426.47317,223.62427 L 378.4097,227.33088 C 373.6873,227.33088 369.85463,216.56576 369.85463,203.3016 C 369.85463,190.03744 373.6873,179.27232 378.4097,179.27232 L 425.3222,182.75997 L 426.47317,223.62427 z "
     style="opacity:0.85;fill:none;stroke:#000000;stroke-width:0.98913044;stroke-miterlimit:4;stroke-dasharray:none;stroke-opacity:1"
     id="path3987" /></clipPath><clipPath
   id="clipPath3989"><path
     d="M 426.47317,223.62427 L 378.4097,227.33088 C 373.6873,227.33088 369.85463,216.56576 369.85463,203.3016 C 369.85463,190.03744 373.6873,179.27232 378.4097,179.27232 L 425.3222,182.75997 L 426.47317,223.62427 z "
     style="opacity:0.85;fill:none;stroke:#000000;stroke-width:0.98913044;stroke-miterlimit:4;stroke-dasharray:none;stroke-opacity:1"
     id="path3991" /></clipPath><clipPath
   id="clipPath3993"><path
     d="M 426.47317,223.62427 L 378.4097,227.33088 C 373.6873,227.33088 369.85463,216.56576 369.85463,203.3016 C 369.85463,190.03744 373.6873,179.27232 378.4097,179.27232 L 425.3222,182.75997 L 426.47317,223.62427 z "
     style="opacity:0.85;fill:none;stroke:#000000;stroke-width:0.98913044;stroke-miterlimit:4;stroke-dasharray:none;stroke-opacity:1"
     id="path3995" /></clipPath><clipPath
   id="clipPath3997"><path
     d="M 426.47317,223.62427 L 378.4097,227.33088 C 373.6873,227.33088 369.85463,216.56576 369.85463,203.3016 C 369.85463,190.03744 373.6873,179.27232 378.4097,179.27232 L 425.3222,182.75997 L 426.47317,223.62427 z "
     style="opacity:0.85;fill:none;stroke:#000000;stroke-width:0.98913044;stroke-miterlimit:4;stroke-dasharray:none;stroke-opacity:1"
     id="path3999" /></clipPath><clipPath
   id="clipPath4001"><path
     d="M 426.47317,223.62427 L 378.4097,227.33088 C 373.6873,227.33088 369.85463,216.56576 369.85463,203.3016 C 369.85463,190.03744 373.6873,179.27232 378.4097,179.27232 L 425.3222,182.75997 L 426.47317,223.62427 z "
     style="opacity:0.85;fill:none;stroke:#000000;stroke-width:0.98913044;stroke-miterlimit:4;stroke-dasharray:none;stroke-opacity:1"
     id="path4003" /></clipPath><clipPath
   id="clipPath4005"><path
     d="M 426.47317,223.62427 L 378.4097,227.33088 C 373.6873,227.33088 369.85463,216.56576 369.85463,203.3016 C 369.85463,190.03744 373.6873,179.27232 378.4097,179.27232 L 425.3222,182.75997 L 426.47317,223.62427 z "
     style="opacity:0.85;fill:none;stroke:#000000;stroke-width:0.98913044;stroke-miterlimit:4;stroke-dasharray:none;stroke-opacity:1"
     id="path4007" /></clipPath><clipPath
   id="clipPath4009"><path
     d="M 426.47317,223.62427 L 378.4097,227.33088 C 373.6873,227.33088 369.85463,216.56576 369.85463,203.3016 C 369.85463,190.03744 373.6873,179.27232 378.4097,179.27232 L 425.3222,182.75997 L 426.47317,223.62427 z "
     style="opacity:0.85;fill:none;stroke:#000000;stroke-width:0.98913044;stroke-miterlimit:4;stroke-dasharray:none;stroke-opacity:1"
     id="path4011" /></clipPath><clipPath
   id="clipPath4013"><path
     d="M 426.47317,223.62427 L 378.4097,227.33088 C 373.6873,227.33088 369.85463,216.56576 369.85463,203.3016 C 369.85463,190.03744 373.6873,179.27232 378.4097,179.27232 L 425.3222,182.75997 L 426.47317,223.62427 z "
     style="opacity:0.85;fill:none;stroke:#000000;stroke-width:0.98913044;stroke-miterlimit:4;stroke-dasharray:none;stroke-opacity:1"
     id="path4015" /></clipPath><linearGradient
   inkscape:collect="always"
   xlink:href="#linearGradient3571"
   id="linearGradient2904"
   gradientUnits="userSpaceOnUse"
   x1="339.29858"
   y1="251.60773"
   x2="339.29858"
   y2="158.99548"
   gradientTransform="translate(0,-2.0614126)" /><linearGradient
   inkscape:collect="always"
   xlink:href="#linearGradient3571"
   id="linearGradient2998"
   gradientUnits="userSpaceOnUse"
   x1="339.29858"
   y1="251.60773"
   x2="339.29858"
   y2="158.99548" /></defs>
 <path
   d="M 239.10582,235.53845 C 239.10582,243.82855 236.71041,250.55675 233.75891,250.55675 C 230.80741,250.55675 228.41199,243.82855 228.41199,235.53845 C 228.41199,227.24835 230.80741,220.52015 233.75891,220.52015 C 236.71041,220.52015 239.10582,227.24835 239.10582,235.53845 z "
   style="fill:#89b0e1;stroke:#000000;stroke-width:0.98913044;stroke-miterlimit:4;stroke-dasharray:none"
   id="circle3697" /><path
   d="M 238.53548,169.55805 C 238.53548,177.84815 236.14006,184.57635 233.18857,184.57635 C 230.23707,184.57635 227.84165,177.84815 227.84165,169.55805 C 227.84165,161.26795 230.23707,154.53975 233.18857,154.53975 C 236.14006,154.53975 238.53548,161.26795 238.53548,169.55805 z "
   style="fill:#89b0e1;stroke:#000000;stroke-width:0.98913044;stroke-miterlimit:4;stroke-dasharray:none"
   id="circle3737" /><path
   d="M 225.34642,162.24914 C 225.34642,170.53924 222.95101,177.26744 219.99951,177.26744 C 217.04801,177.26744 214.65259,170.53924 214.65259,162.24914 C 214.65259,153.95904 217.04801,147.23084 219.99951,147.23084 C 222.95101,147.23084 225.34642,153.95904 225.34642,162.24914 z "
   style="fill:#89b0e1;stroke:#000000;stroke-width:0.98913044;stroke-miterlimit:4;stroke-dasharray:none"
   id="circle3693" /><path
   d="M 228.41199,227.52868 C 228.41199,235.81878 226.01657,242.54698 223.06508,242.54698 C 220.11358,242.54698 217.71816,235.81878 217.71816,227.52868 C 217.71816,219.23858 220.11358,212.51038 223.06508,212.51038 C 226.01657,212.51038 228.41199,219.23858 228.41199,227.52868 z "
   style="fill:#89b0e1;stroke:#000000;stroke-width:0.98913044;stroke-miterlimit:4;stroke-dasharray:none"
   id="circle3665" /><path
   d="M 223.13637,257.66539 C 223.13637,265.9555 220.74095,272.68369 217.78946,272.68369 C 214.83796,272.68369 212.44254,265.9555 212.44254,257.66539 C 212.44254,249.37529 214.83796,242.6471 217.78946,242.6471 C 220.74095,242.6471 223.13637,249.37529 223.13637,257.66539 z "
   style="fill:#89b0e1;stroke:#000000;stroke-width:0.98913044;stroke-miterlimit:4;stroke-dasharray:none"
   id="circle3667" /><path
   d="M 229.19621,193.98781 C 229.19621,202.27792 226.80079,209.00611 223.84929,209.00611 C 220.8978,209.00611 218.50238,202.27792 218.50238,193.98781 C 218.50238,185.69771 220.8978,178.96951 223.84929,178.96951 C 226.80079,178.96951 229.19621,185.69771 229.19621,193.98781 z "
   style="fill:#89b0e1;stroke:#000000;stroke-width:0.98913044;stroke-miterlimit:4;stroke-dasharray:none"
   id="circle3695" /><path
   d="M 65.609055,370.40988 L -34.500957,370.50289 C -66.967422,370.50289 -93.317022,296.49271 -93.317022,205.30159 C -93.317022,114.11048 -66.967422,40.100298 -34.500957,40.100298 L 65.376785,40.478345 L 65.609055,370.40988 z "
   style="fill:url(#linearGradient3557);fill-opacity:1;stroke:#000000;stroke-width:0.98913044;stroke-miterlimit:4;stroke-dasharray:none"
   id="path5027" /><path
   d="M 126.22144,205.30159 C 126.22144,296.49271 99.871838,370.50289 67.405365,370.50289 C 34.938896,370.50289 8.5892958,296.49271 8.5892958,205.30159 C 8.5892958,114.11048 34.938896,40.100298 67.405365,40.100298 C 99.871838,40.100298 126.22144,114.11048 126.22144,205.30159 z "
   style="fill:#c0d483;stroke:#000000;stroke-width:0.98913044;stroke-miterlimit:4;stroke-dasharray:none"
   id="circle3611" /><path
   d="M 127.45223,341.23412 L 71.486199,341.46752 C 44.725962,341.46752 23.007505,280.46519 23.007505,205.3016 C 23.007505,130.13801 44.725962,69.135677 71.486199,69.135677 L 128.41012,68.920828 L 127.45223,341.23412 z "
   style="fill:url(#linearGradient3567);fill-opacity:1;stroke:#000000;stroke-width:0.98913044;stroke-miterlimit:4;stroke-dasharray:none"
   id="path5023" /><path
   d="M 177.57477,205.3016 C 177.57477,280.46519 155.85631,341.46752 129.09607,341.46752 C 102.33583,341.46752 80.617375,280.46519 80.617375,205.3016 C 80.617375,130.13801 102.33583,69.135677 129.09607,69.135677 C 155.85631,69.135677 177.57477,130.13801 177.57477,205.3016 z "
   style="fill:#a493dc;stroke:#000000;stroke-width:0.98913044;stroke-miterlimit:4;stroke-dasharray:none"
   id="circle3613" /><path
   d="M 174.49368,205.3016 C 174.49368,279.0235 154.15553,338.85578 129.09607,338.85578 C 104.0366,338.85578 83.698473,279.0235 83.698473,205.3016 C 83.698473,131.5797 104.0366,71.747413 129.09607,71.747413 C 154.15553,71.747413 174.49368,131.5797 174.49368,205.3016 z "
   style="fill:#a493dc;stroke:#000000;stroke-width:0.98913044;stroke-miterlimit:4;stroke-dasharray:none"
   id="path2305" /><path
   d="M 227.68454,154.57147 L 201.9059,154.58732 C 198.9544,154.58732 196.55898,147.85912 196.55898,139.56902 C 196.55898,131.27892 198.9544,124.55072 201.9059,124.55072 L 227.82828,124.56543 L 227.68454,154.57147 z "
   style="fill:#89b0e1;stroke:#000000;stroke-width:0.98913044;stroke-miterlimit:4;stroke-dasharray:none"
   id="path5193" /><path
   d="M 233.33115,139.62156 C 233.33115,147.91166 230.93573,154.63986 227.98424,154.63986 C 225.03274,154.63986 222.63732,147.91166 222.63732,139.62156 C 222.63732,131.33146 225.03274,124.60326 227.98424,124.60326 C 230.93573,124.60326 233.33115,131.33146 233.33115,139.62156 z "
   style="fill:#89b0e1;stroke:#000000;stroke-width:0.98913044;stroke-miterlimit:4;stroke-dasharray:none"
   id="circle3735" /><path
   d="M 219.57894,129.97516 L 193.8003,129.99101 C 190.8488,129.99101 188.45338,123.26281 188.45338,114.9727 C 188.45338,106.6826 190.8488,99.954398 193.8003,99.954398 L 219.72268,99.969108 L 219.57894,129.97516 z "
   style="fill:#89b0e1;stroke:#000000;stroke-width:0.98913044;stroke-miterlimit:4;stroke-dasharray:none"
   id="path5191" /><path
   d="M 211.92324,152.06101 L 186.1446,152.07686 C 183.1931,152.07686 180.79768,145.34866 180.79768,137.05855 C 180.79768,128.76845 183.1931,122.04025 186.1446,122.04025 L 212.06698,122.05496 L 211.92324,152.06101 z "
   style="fill:#89b0e1;stroke:#000000;stroke-width:0.98913044;stroke-miterlimit:4;stroke-dasharray:none"
   id="path5195" /><path
   d="M 210.07582,112.64594 L 184.29718,112.66179 C 181.34568,112.66179 178.95026,105.93359 178.95026,97.643478 C 178.95026,89.353378 181.34568,82.625178 184.29718,82.625178 L 210.21956,82.639888 L 210.07582,112.64594 z "
   style="fill:#89b0e1;stroke:#000000;stroke-width:0.98913044;stroke-miterlimit:4;stroke-dasharray:none"
   id="path5189" /><path
   d="M 201.299,137.15687 L 175.52036,137.17272 C 172.56886,137.17272 170.17344,130.44452 170.17344,122.15441 C 170.17344,113.8643 172.56886,107.1361 175.52036,107.1361 L 201.44274,107.15081 L 201.299,137.15687 z "
   style="fill:#89b0e1;stroke:#000000;stroke-width:0.98913044;stroke-miterlimit:4;stroke-dasharray:none"
   id="path5197" /><path
   d="M 189.46632,134.94138 L 163.68768,134.95723 C 160.73618,134.95723 158.34076,128.22903 158.34076,119.93892 C 158.34076,111.64881 160.73618,104.92061 163.68768,104.92061 L 189.61006,104.93532 L 189.46632,134.94138 z "
   style="fill:#89b0e1;stroke:#000000;stroke-width:0.98913044;stroke-miterlimit:4;stroke-dasharray:none"
   id="path5199" /><path
   d="M 228.88476,281.1933 L 203.10613,281.20915 C 200.15462,281.20915 197.7592,274.48095 197.7592,266.19085 C 197.7592,257.90075 200.15462,251.17255 203.10613,251.17255 L 229.0285,251.18726 L 228.88476,281.1933 z "
   style="fill:#89b0e1;stroke:#000000;stroke-width:0.98913044;stroke-miterlimit:4;stroke-dasharray:none"
   id="path5187" /><path
   d="M 234.43618,266.17576 C 234.43618,274.46587 232.04076,281.19406 229.08926,281.19406 C 226.13777,281.19406 223.74235,274.46587 223.74235,266.17576 C 223.74235,257.88566 226.13777,251.15746 229.08926,251.15746 C 232.04076,251.15746 234.43618,257.88566 234.43618,266.17576 z "
   style="fill:#89b0e1;stroke:#000000;stroke-width:0.98913044;stroke-miterlimit:4;stroke-dasharray:none"
   id="circle3699" /><path
   d="M 221.61767,306.90763 L 195.83904,306.92348 C 192.88753,306.92348 190.49211,300.19528 190.49211,291.90518 C 190.49211,283.61508 192.88753,276.88688 195.83904,276.88688 L 221.76141,276.90159 L 221.61767,306.90763 z "
   style="fill:#89b0e1;stroke:#000000;stroke-width:0.98913044;stroke-miterlimit:4;stroke-dasharray:none"
   id="path5185" /><path
   d="M 211.55554,325.63437 L 185.77691,325.65022 C 182.8254,325.65022 180.42998,318.92202 180.42998,310.63192 C 180.42998,302.34182 182.8254,295.61362 185.77691,295.61362 L 211.69928,295.62833 L 211.55554,325.63437 z "
   style="fill:#89b0e1;stroke:#000000;stroke-width:0.98913044;stroke-miterlimit:4;stroke-dasharray:none"
   id="path5183" /><path
   d="M 199.81639,335.6965 L 130.03776,335.71235 C 127.08625,335.71235 124.69083,328.98415 124.69083,320.69405 C 124.69083,312.40395 127.08625,305.67575 130.03776,305.67575 L 199.96013,305.69046 L 199.81639,335.6965 z "
   style="fill:#89b0e1;stroke:#000000;stroke-width:0.98913044;stroke-miterlimit:4;stroke-dasharray:none"
   id="path5181" /><path
   d="M 206.73916,122.10021 C 206.73916,130.39031 204.34375,137.11851 201.39225,137.11851 C 198.44075,137.11851 196.04533,130.39031 196.04533,122.10021 C 196.04533,113.81011 198.44075,107.08191 201.39225,107.08191 C 204.34375,107.08191 206.73916,113.81011 206.73916,122.10021 z "
   style="fill:#89b0e1;stroke:#000000;stroke-width:0.98913044;stroke-miterlimit:4;stroke-dasharray:none"
   id="circle3689" /><path
   d="M 217.46863,136.91828 C 217.46863,145.20838 215.07322,151.93658 212.12172,151.93658 C 209.17022,151.93658 206.7748,145.20838 206.7748,136.91828 C 206.7748,128.62817 209.17022,121.89998 212.12172,121.89998 C 215.07322,121.89998 217.46863,128.62817 217.46863,136.91828 z "
   style="fill:#89b0e1;stroke:#000000;stroke-width:0.98913044;stroke-miterlimit:4;stroke-dasharray:none"
   id="circle3691" /><path
   d="M 208.7277,294.62999 L 182.94907,294.64584 C 179.99756,294.64584 177.60214,287.91764 177.60214,279.62754 C 177.60214,271.33744 179.99756,264.60924 182.94907,264.60924 L 208.87144,264.62395 L 208.7277,294.62999 z "
   style="fill:#89b0e1;stroke:#000000;stroke-width:0.98913044;stroke-miterlimit:4;stroke-dasharray:none"
   id="path5217" /><path
   d="M 197.24748,305.7074 L 171.46885,305.72325 C 168.51734,305.72325 166.12192,298.99505 166.12192,290.70495 C 166.12192,282.41485 168.51734,275.68665 171.46885,275.68665 L 197.39122,275.70136 L 197.24748,305.7074 z "
   style="fill:#89b0e1;stroke:#000000;stroke-width:0.98913044;stroke-miterlimit:4;stroke-dasharray:none"
   id="path5215" /><path
   d="M 202.81809,290.60555 C 202.81809,298.89565 200.42267,305.62385 197.47117,305.62385 C 194.51968,305.62385 192.12426,298.89565 192.12426,290.60555 C 192.12426,282.31545 194.51968,275.58725 197.47117,275.58725 C 200.42267,275.58725 202.81809,282.31545 202.81809,290.60555 z "
   style="fill:#89b0e1;stroke:#000000;stroke-width:0.98913044;stroke-miterlimit:4;stroke-dasharray:none"
   id="circle3671" /><path
   d="M 214.1179,279.79236 C 214.1179,288.08246 211.72248,294.81066 208.77099,294.81066 C 205.81949,294.81066 203.42407,288.08246 203.42407,279.79236 C 203.42407,271.50225 205.81949,264.77406 208.77099,264.77406 C 211.72248,264.77406 214.1179,271.50225 214.1179,279.79236 z "
   style="fill:#89b0e1;stroke:#000000;stroke-width:0.98913044;stroke-miterlimit:4;stroke-dasharray:none"
   id="circle3669" /><path
   d="M 252.02488,275.42779 L 165.07261,275.387 C 151.29896,275.387 140.12034,243.98874 140.12034,205.3016 C 140.12034,166.61446 151.29896,135.2162 165.07261,135.2162 L 251.83363,134.93987 L 252.02488,275.42779 z "
   style="fill:url(#linearGradient3597);fill-opacity:1;stroke:#000000;stroke-width:0.98913044;stroke-miterlimit:4;stroke-dasharray:none"
   id="path5029" /><path
   d="M 185.76726,303.49192 L 159.98863,303.50777 C 157.03712,303.50777 154.6417,296.77957 154.6417,288.48947 C 154.6417,280.19937 157.03712,273.47117 159.98863,273.47117 L 185.911,273.48588 L 185.76726,303.49192 z "
   style="fill:#89b0e1;stroke:#000000;stroke-width:0.98913044;stroke-miterlimit:4;stroke-dasharray:none"
   id="path5213" /><path
   d="M 174.64055,288.56317 L 148.86191,288.57902 C 145.91041,288.57902 143.51499,281.85082 143.51499,273.56072 C 143.51499,265.27062 145.91041,258.54242 148.86191,258.54242 L 174.78429,258.55713 L 174.64055,288.56317 z "
   style="fill:#89b0e1;stroke:#000000;stroke-width:0.98913044;stroke-miterlimit:4;stroke-dasharray:none"
   id="path5211" /><path
   d="M 166.67469,263.25598 L 140.89605,263.27183 C 137.94455,263.27183 135.54913,256.54363 135.54913,248.25353 C 135.54913,239.96343 137.94455,233.23523 140.89605,233.23523 L 166.81843,233.24994 L 166.67469,263.25598 z "
   style="fill:#89b0e1;stroke:#000000;stroke-width:0.98913044;stroke-miterlimit:4;stroke-dasharray:none"
   id="path5209" /><path
   d="M 177.78469,145.71668 L 152.00605,145.73253 C 149.05455,145.73253 146.65913,139.00433 146.65913,130.71422 C 146.65913,122.42412 149.05455,115.69591 152.00605,115.69591 L 177.92843,115.71062 L 177.78469,145.71668 z "
   style="fill:#89b0e1;stroke:#000000;stroke-width:0.98913044;stroke-miterlimit:4;stroke-dasharray:none"
   id="path5201" /><path
   d="M 180.14717,273.58481 C 180.14717,281.87491 177.75175,288.60311 174.80025,288.60311 C 171.84876,288.60311 169.45334,281.87491 169.45334,273.58481 C 169.45334,265.29471 171.84876,258.56651 174.80025,258.56651 C 177.75175,258.56651 180.14717,265.29471 180.14717,273.58481 z "
   style="fill:#89b0e1;stroke:#000000;stroke-width:0.98913044;stroke-miterlimit:4;stroke-dasharray:none"
   id="circle3675" /><path
   d="M 190.87664,288.40286 C 190.87664,296.69296 188.48123,303.42116 185.52973,303.42116 C 182.57823,303.42116 180.18281,296.69296 180.18281,288.40286 C 180.18281,280.11276 182.57823,273.38456 185.52973,273.38456 C 188.48123,273.38456 190.87664,280.11276 190.87664,288.40286 z "
   style="fill:#89b0e1;stroke:#000000;stroke-width:0.98913044;stroke-miterlimit:4;stroke-dasharray:none"
   id="circle3673" /><path
   d="M 172.26938,248.25393 C 172.26938,256.54403 169.87396,263.27223 166.92246,263.27223 C 163.97096,263.27223 161.57555,256.54403 161.57555,248.25393 C 161.57555,239.96383 163.97096,233.23563 166.92246,233.23563 C 169.87396,233.23563 172.26938,239.96383 172.26938,248.25393 z "
   style="fill:#89b0e1;stroke:#000000;stroke-width:0.98913044;stroke-miterlimit:4;stroke-dasharray:none"
   id="circle3677" /><path
   d="M 125.76729,254.74301 L 39.988648,254.75886 C 37.037148,254.75886 34.641723,248.03066 34.641723,239.74056 C 34.641723,231.45046 37.037148,224.72226 39.988648,224.72226 L 125.91103,224.73697 L 125.76729,254.74301 z "
   transform="translate(37.080659,-23.108002)"
   style="fill:#89b0e1;stroke:#000000;stroke-width:0.98913044;stroke-miterlimit:4;stroke-dasharray:none"
   clip-path="url(#clipPath3385)"
   id="path5207" /><path
   d="M 168.4196,216.51526 C 168.4196,224.80537 166.02418,231.53356 163.07268,231.53356 C 160.12119,231.53356 157.72577,224.80537 157.72577,216.51526 C 157.72577,208.22516 160.12119,201.49696 163.07268,201.49696 C 166.02418,201.49696 168.4196,208.22516 168.4196,216.51526 z "
   style="fill:#89b0e1;stroke:#000000;stroke-width:0.98913044;stroke-miterlimit:4;stroke-dasharray:none"
   id="circle3679" /><path
   d="M 126.57292,221.10797 L 40.79428,221.12382 C 37.842778,221.12382 35.447353,214.39562 35.447353,206.10552 C 35.447353,197.81542 37.842778,191.08722 40.79428,191.08722 L 126.71666,191.10193 L 126.57292,221.10797 z "
   transform="translate(37.080659,-23.108002)"
   style="fill:#89b0e1;stroke:#000000;stroke-width:0.98913044;stroke-miterlimit:4;stroke-dasharray:none"
   clip-path="url(#clipPath3381)"
   id="path5205" /><path
   d="M 169.20381,182.97439 C 169.20381,191.2645 166.80839,197.99269 163.85689,197.99269 C 160.9054,197.99269 158.50998,191.2645 158.50998,182.97439 C 158.50998,174.68429 160.9054,167.95609 163.85689,167.95609 C 166.80839,167.95609 169.20381,174.68429 169.20381,182.97439 z "
   style="fill:#89b0e1;stroke:#000000;stroke-width:0.98913044;stroke-miterlimit:4;stroke-dasharray:none"
   id="circle3681" /><path
   d="M 168.89017,167.78887 L 143.11153,167.80472 C 140.16003,167.80472 137.76461,161.07652 137.76461,152.78642 C 137.76461,144.49632 140.16003,137.76812 143.11153,137.76812 L 169.03391,137.78283 L 168.89017,167.78887 z "
   style="fill:#89b0e1;stroke:#000000;stroke-width:0.98913044;stroke-miterlimit:4;stroke-dasharray:none"
   id="path5203" /><path
   d="M 174.47944,152.83768 C 174.47944,161.12778 172.08402,167.85598 169.13252,167.85598 C 166.18102,167.85598 163.78561,161.12778 163.78561,152.83768 C 163.78561,144.54758 166.18102,137.81938 169.13252,137.81938 C 172.08402,137.81938 174.47944,144.54758 174.47944,152.83768 z "
   style="fill:#89b0e1;stroke:#000000;stroke-width:0.98913044;stroke-miterlimit:4;stroke-dasharray:none"
   id="circle3683" /><path
   d="M 183.4979,130.71071 C 183.4979,139.00081 181.10248,145.72901 178.15099,145.72901 C 175.19949,145.72901 172.80407,139.00081 172.80407,130.71071 C 172.80407,122.42061 175.19949,115.69241 178.15099,115.69241 C 181.10248,115.69241 183.4979,122.42061 183.4979,130.71071 z "
   style="fill:#89b0e1;stroke:#000000;stroke-width:0.98913044;stroke-miterlimit:4;stroke-dasharray:none"
   id="circle3685" /><path
   d="M 194.79772,119.89754 C 194.79772,128.18764 192.4023,134.91584 189.4508,134.91584 C 186.4993,134.91584 184.10388,128.18764 184.10388,119.89754 C 184.10388,111.60743 186.4993,104.87924 189.4508,104.87924 C 192.4023,104.87924 194.79772,111.60743 194.79772,119.89754 z "
   style="fill:#89b0e1;stroke:#000000;stroke-width:0.98913044;stroke-miterlimit:4;stroke-dasharray:none"
   id="circle3687" /><path
   d="M 226.87921,291.90713 C 226.87921,300.19723 224.48379,306.92543 221.5323,306.92543 C 218.5808,306.92543 216.18538,300.19723 216.18538,291.90713 C 216.18538,283.61703 218.5808,276.88883 221.5323,276.88883 C 224.48379,276.88883 226.87921,283.61703 226.87921,291.90713 z "
   style="fill:#89b0e1;stroke:#000000;stroke-width:0.98913044;stroke-miterlimit:4;stroke-dasharray:none"
   id="circle3701" /><path
   d="M 217.04089,310.62995 C 217.04089,318.92005 214.64547,325.64825 211.69397,325.64825 C 208.74248,325.64825 206.34706,318.92005 206.34706,310.62995 C 206.34706,302.33985 208.74248,295.61165 211.69397,295.61165 C 214.64547,295.61165 217.04089,302.33985 217.04089,310.62995 z "
   style="fill:#89b0e1;stroke:#000000;stroke-width:0.98913044;stroke-miterlimit:4;stroke-dasharray:none"
   id="circle3703" /><path
   d="M 205.74107,320.74225 C 205.74107,329.03235 203.34565,335.76055 200.39415,335.76055 C 197.44265,335.76055 195.04724,329.03235 195.04724,320.74225 C 195.04724,312.45215 197.44265,305.72395 200.39415,305.72395 C 203.34565,305.72395 205.74107,312.45215 205.74107,320.74225 z "
   style="fill:#89b0e1;stroke:#000000;stroke-width:0.98913044;stroke-miterlimit:4;stroke-dasharray:none"
   id="circle3705" /><path
   d="M 151.27608,359.643 L 65.49745,359.65885 C 62.54594,359.65885 60.15052,352.93065 60.15052,344.64055 C 60.15052,336.35045 62.54594,329.62225 65.49745,329.62225 L 151.41982,329.63696 L 151.27608,359.643 z "
   transform="translate(37.080659,-23.108002)"
   style="fill:#89b0e1;stroke:#000000;stroke-width:0.98913044;stroke-miterlimit:4;stroke-dasharray:none"
   clip-path="url(#clipPath3377)"
   id="path5179" /><path
   d="M 193.87092,321.54325 C 193.87092,329.83335 191.4755,336.56155 188.52401,336.56155 C 185.57251,336.56155 183.17709,329.83335 183.17709,321.54325 C 183.17709,313.25315 185.57251,306.52495 188.52401,306.52495 C 191.4755,306.52495 193.87092,313.25315 193.87092,321.54325 z "
   style="fill:#89b0e1;stroke:#000000;stroke-width:0.98913044;stroke-miterlimit:4;stroke-dasharray:none"
   id="circle3707" /><path
   d="M 139.81643,350.97839 L 66.0378,350.99424 C 63.08629,350.99424 60.69087,344.26604 60.69087,335.97594 C 60.69087,327.68584 63.08629,320.95764 66.0378,320.95764 L 139.96017,320.97235 L 139.81643,350.97839 z "
   transform="translate(37.080659,-23.108002)"
   style="fill:#89b0e1;stroke:#000000;stroke-width:0.98913044;stroke-miterlimit:4;stroke-dasharray:none"
   clip-path="url(#clipPath3373)"
   id="path5177" /><path
   d="M 127.7543,333.64917 L 59.97567,333.66502 C 57.02417,333.66502 54.628748,326.93682 54.628748,318.64672 C 54.628748,310.35662 57.02417,303.62842 59.97567,303.62842 L 127.89804,303.64313 L 127.7543,333.64917 z "
   transform="translate(37.080659,-23.108002)"
   style="fill:#89b0e1;stroke:#000000;stroke-width:0.98913044;stroke-miterlimit:4;stroke-dasharray:none"
   clip-path="url(#clipPath3369)"
   id="path5175" /><path
   d="M 121.6487,309.05286 L 51.870065,309.06871 C 48.918565,309.06871 46.523145,302.34051 46.523145,294.05041 C 46.523145,285.76031 48.918565,279.03211 51.870065,279.03211 L 121.79244,279.04682 L 121.6487,309.05286 z "
   transform="translate(37.080659,-23.108002)"
   style="fill:#89b0e1;stroke:#000000;stroke-width:0.98913044;stroke-miterlimit:4;stroke-dasharray:none"
   clip-path="url(#clipPath3365)"
   id="path5173" /><path
   d="M 164.28465,270.88151 C 164.28465,279.17161 161.88924,285.89981 158.93774,285.89981 C 155.98624,285.89981 153.59082,279.17161 153.59082,270.88151 C 153.59082,262.59141 155.98624,255.86321 158.93774,255.86321 C 161.88924,255.86321 164.28465,262.59141 164.28465,270.88151 z "
   style="fill:#89b0e1;stroke:#000000;stroke-width:0.98913044;stroke-miterlimit:4;stroke-dasharray:none"
   id="circle3713" /><path
   d="M 116.61764,279.14598 L 46.839001,279.16183 C 43.887501,279.16183 41.492081,272.43363 41.492081,264.14353 C 41.492081,255.85343 43.887501,249.12523 46.839001,249.12523 L 116.76138,249.13994 L 116.61764,279.14598 z "
   transform="translate(37.080659,-23.108002)"
   style="fill:#89b0e1;stroke:#000000;stroke-width:0.98913044;stroke-miterlimit:4;stroke-dasharray:none"
   clip-path="url(#clipPath3361)"
   id="path5171" /><path
   d="M 159.08032,240.94504 C 159.08032,249.23514 156.6849,255.96334 153.7334,255.96334 C 150.78191,255.96334 148.38649,249.23514 148.38649,240.94504 C 148.38649,232.65494 150.78191,225.92674 153.7334,225.92674 C 156.6849,225.92674 159.08032,232.65494 159.08032,240.94504 z "
   style="fill:#89b0e1;stroke:#000000;stroke-width:0.98913044;stroke-miterlimit:4;stroke-dasharray:none"
   id="circle3715" /><path
   d="M 114.38161,246.16456 L 44.602973,246.18041 C 41.651473,246.18041 39.256053,239.45221 39.256053,231.16211 C 39.256053,222.87201 41.651473,216.14381 44.602973,216.14381 L 114.52535,216.15852 L 114.38161,246.16456 z "
   transform="translate(37.080659,-23.108002)"
   style="fill:#89b0e1;stroke:#000000;stroke-width:0.98913044;stroke-miterlimit:4;stroke-dasharray:none"
   clip-path="url(#clipPath3357)"
   id="path5169" /><path
   d="M 157.11978,208.00489 C 157.11978,216.295 154.72437,223.02319 151.77287,223.02319 C 148.82137,223.02319 146.42595,216.295 146.42595,208.00489 C 146.42595,199.71479 148.82137,192.98659 151.77287,192.98659 C 154.72437,192.98659 157.11978,199.71479 157.11978,208.00489 z "
   style="fill:#89b0e1;stroke:#000000;stroke-width:0.98913044;stroke-miterlimit:4;stroke-dasharray:none"
   id="circle3717" /><path
   d="M 115.77913,213.18314 L 46.000491,213.19899 C 43.048991,213.19899 40.653571,206.47079 40.653571,198.18069 C 40.653571,189.89059 43.048991,183.16239 46.000491,183.16239 L 115.92287,183.1771 L 115.77913,213.18314 z "
   transform="translate(37.080659,-23.108002)"
   style="fill:#89b0e1;stroke:#000000;stroke-width:0.98913044;stroke-miterlimit:4;stroke-dasharray:none"
   clip-path="url(#clipPath3353)"
   id="path5167" /><path
   d="M 158.50998,174.96463 C 158.50998,183.25474 156.11456,189.98293 153.16307,189.98293 C 150.21157,189.98293 147.81615,183.25474 147.81615,174.96463 C 147.81615,166.67453 150.21157,159.94634 153.16307,159.94634 C 156.11456,159.94634 158.50998,166.67453 158.50998,174.96463 z "
   style="fill:#89b0e1;stroke:#000000;stroke-width:0.98913044;stroke-miterlimit:4;stroke-dasharray:none"
   id="circle3719" /><path
   d="M 198.08354,104.04112 L 122.3049,104.05697 C 119.3534,104.05697 116.95798,97.328768 116.95798,89.038668 C 116.95798,80.748568 119.3534,74.020369 122.3049,74.020369 L 198.22728,74.035079 L 198.08354,104.04112 z "
   style="fill:#89b0e1;stroke:#000000;stroke-width:0.98913044;stroke-miterlimit:4;stroke-dasharray:none"
   id="path5165" /><path
   d="M 149.51686,127.92784 L 73.73822,127.94369 C 70.78672,127.94369 68.3913,121.21549 68.3913,112.92538 C 68.3913,104.63528 70.78672,97.907084 73.73822,97.907084 L 149.6606,97.921794 L 149.51686,127.92784 z "
   transform="translate(37.080659,-23.108002)"
   style="fill:#89b0e1;stroke:#000000;stroke-width:0.98913044;stroke-miterlimit:4;stroke-dasharray:none"
   clip-path="url(#clipPath3349)"
   id="path5163" /><path
   d="M 137.83616,137.85643 L 68.05752,137.87228 C 65.10602,137.87228 62.7106,131.14408 62.7106,122.85398 C 62.7106,114.56388 65.10602,107.83568 68.05752,107.83568 L 137.9799,107.85039 L 137.83616,137.85643 z "
   transform="translate(37.080659,-23.108002)"
   style="fill:#89b0e1;stroke:#000000;stroke-width:0.98913044;stroke-miterlimit:4;stroke-dasharray:none"
   clip-path="url(#clipPath3345)"
   id="path5161" /><path
   d="M 128.01536,156.74022 L 58.23672,156.75607 C 55.285221,156.75607 52.889801,150.02787 52.889801,141.73777 C 52.889801,133.44767 55.285221,126.71947 58.23672,126.71947 L 128.1591,126.73418 L 128.01536,156.74022 z "
   transform="translate(37.080659,-23.108002)"
   style="fill:#89b0e1;stroke:#000000;stroke-width:0.98913044;stroke-miterlimit:4;stroke-dasharray:none"
   clip-path="url(#clipPath3341)"
   id="path5159" /><path
   d="M 120.53069,182.43775 L 50.752051,182.4536 C 47.800551,182.4536 45.405131,175.7254 45.405131,167.4353 C 45.405131,159.1452 47.800551,152.417 50.752051,152.417 L 120.67443,152.43171 L 120.53069,182.43775 z "
   transform="translate(37.080659,-23.108002)"
   style="fill:#89b0e1;stroke:#000000;stroke-width:0.98913044;stroke-miterlimit:4;stroke-dasharray:none"
   clip-path="url(#clipPath3337)"
   id="path5157" /><path
   d="M 163.17962,144.32731 C 163.17962,152.61741 160.7842,159.34561 157.83271,159.34561 C 154.88121,159.34561 152.48579,152.61741 152.48579,144.32731 C 152.48579,136.03721 154.88121,129.30901 157.83271,129.30901 C 160.7842,129.30901 163.17962,136.03721 163.17962,144.32731 z "
   style="fill:#89b0e1;stroke:#000000;stroke-width:0.98913044;stroke-miterlimit:4;stroke-dasharray:none"
   id="circle3721" /><path
   d="M 170.7366,118.59594 C 170.7366,126.88604 168.34118,133.61424 165.38968,133.61424 C 162.43818,133.61424 160.04276,126.88604 160.04276,118.59594 C 160.04276,110.30584 162.43818,103.57764 165.38968,103.57764 C 168.34118,103.57764 170.7366,110.30584 170.7366,118.59594 z "
   style="fill:#89b0e1;stroke:#000000;stroke-width:0.98913044;stroke-miterlimit:4;stroke-dasharray:none"
   id="circle3723" /><path
   d="M 180.57492,99.873138 C 180.57492,108.16324 178.1795,114.89144 175.228,114.89144 C 172.27651,114.89144 169.88109,108.16324 169.88109,99.873138 C 169.88109,91.583038 172.27651,84.854838 175.228,84.854838 C 178.1795,84.854838 180.57492,91.583038 180.57492,99.873138 z "
   style="fill:#89b0e1;stroke:#000000;stroke-width:0.98913044;stroke-miterlimit:4;stroke-dasharray:none"
   id="circle3725" /><path
   d="M 191.87474,89.760808 C 191.87474,98.050918 189.47932,104.77911 186.52782,104.77911 C 183.57632,104.77911 181.1809,98.050918 181.1809,89.760808 C 181.1809,81.470708 183.57632,74.742507 186.52782,74.742507 C 189.47932,74.742507 191.87474,81.470708 191.87474,89.760808 z "
   style="fill:#89b0e1;stroke:#000000;stroke-width:0.98913044;stroke-miterlimit:4;stroke-dasharray:none"
   id="circle3727" /><path
   d="M 203.74489,88.959838 C 203.74489,97.249938 201.34947,103.97814 198.39797,103.97814 C 195.44647,103.97814 193.05106,97.249938 193.05106,88.959838 C 193.05106,80.669738 195.44647,73.941536 198.39797,73.941536 C 201.34947,73.941536 203.74489,80.669738 203.74489,88.959838 z "
   style="fill:#89b0e1;stroke:#000000;stroke-width:0.98913044;stroke-miterlimit:4;stroke-dasharray:none"
   id="circle3729" /><path
   d="M 215.22293,97.570328 C 215.22293,105.86043 212.82752,112.58863 209.87602,112.58863 C 206.92452,112.58863 204.5291,105.86043 204.5291,97.570328 C 204.5291,89.280228 206.92452,82.552028 209.87602,82.552028 C 212.82752,82.552028 215.22293,89.280228 215.22293,97.570328 z "
   style="fill:#89b0e1;stroke:#000000;stroke-width:0.98913044;stroke-miterlimit:4;stroke-dasharray:none"
   id="circle3731" /><path
   d="M 225.34642,114.89144 C 225.34642,123.18154 222.95101,129.90974 219.99951,129.90974 C 217.04801,129.90974 214.65259,123.18154 214.65259,114.89144 C 214.65259,106.60133 217.04801,99.873138 219.99951,99.873138 C 222.95101,99.873138 225.34642,106.60133 225.34642,114.89144 z "
   style="fill:#89b0e1;stroke:#000000;stroke-width:0.98913044;stroke-miterlimit:4;stroke-dasharray:none"
   id="circle3733" /><path
   d="M 240.49602,202.49818 C 240.49602,210.78829 238.1006,217.51648 235.1491,217.51648 C 232.1976,217.51648 229.80219,210.78829 229.80219,202.49818 C 229.80219,194.20808 232.1976,187.47988 235.1491,187.47988 C 238.1006,187.47988 240.49602,194.20808 240.49602,202.49818 z "
   style="fill:#89b0e1;stroke:#000000;stroke-width:0.98913044;stroke-miterlimit:4;stroke-dasharray:none"
   id="circle3739" />
<path
   d="M 278.02488,205.3016 C 278.02488,243.98874 266.84626,275.387 253.07261,275.387 C 239.29896,275.387 228.12034,243.98874 228.12034,205.3016 C 228.12034,166.61446 239.29896,135.2162 253.07261,135.2162 C 266.84626,135.2162 278.02488,166.61446 278.02488,205.3016 z "
   style="fill:#c9c9c9;stroke:#000000;stroke-width:0.98913044;stroke-miterlimit:4;stroke-dasharray:none"
   id="circle3617" /><path
   d="M 317.45157,268.12286 L 256.14146,268.37846 C 243.74517,268.37846 233.68441,240.12003 233.68441,205.3016 C 233.68441,170.48317 243.74517,142.22474 256.14146,142.22474 L 317.55849,142.23198 L 317.45157,268.12286 z "
   style="fill:url(#linearGradient3587);fill-opacity:1;stroke:#000000;stroke-width:0.98913044;stroke-miterlimit:4;stroke-dasharray:none"
   id="path5031" /><path
   d="M 340.20826,205.3016 C 340.20826,240.12003 330.1475,268.37846 317.75122,268.37846 C 305.35493,268.37846 295.29417,240.12003 295.29417,205.3016 C 295.29417,170.48317 305.35493,142.22474 317.75122,142.22474 C 330.1475,142.22474 340.20826,170.48317 340.20826,205.3016 z "
   style="fill:#a6a6a6;stroke:#000000;stroke-width:0.98913044;stroke-miterlimit:4;stroke-dasharray:none"
   id="circle3619" />







<path
   d="M 182.39287,312.93275 C 182.39287,321.22285 179.99745,327.95105 177.04595,327.95105 C 174.09445,327.95105 171.69904,321.22285 171.69904,312.93275 C 171.69904,304.64265 174.09445,297.91445 177.04595,297.91445 C 179.99745,297.91445 182.39287,304.64265 182.39287,312.93275 z "
   style="fill:#89b0e1;stroke:#000000;stroke-width:0.98913044;stroke-miterlimit:4;stroke-dasharray:none"
   id="circle3709" /><path
   d="M 171.27479,295.61165 C 171.27479,303.90175 168.87937,310.62995 165.92787,310.62995 C 162.97637,310.62995 160.58096,303.90175 160.58096,295.61165 C 160.58096,287.32155 162.97637,280.59335 165.92787,280.59335 C 168.87937,280.59335 171.27479,287.32155 171.27479,295.61165 z"
   style="fill:#89b0e1;stroke:#000000;stroke-width:0.98913044;stroke-miterlimit:4;stroke-dasharray:none"
   id="circle3711" /><path
   d="M 193.29073 52.047806 A 19.017754 19.017754 0 1 1  155.25523,52.047806 A 19.017754 19.017754 0 1 1  193.29073 52.047806 z"
   transform="matrix(0.7406366,0,0,0.7406366,-102.31831,-1.0843555)"
   style="opacity:0.73500001;fill:#29d2d4;fill-opacity:1;stroke:#000000;stroke-width:1.33551383;stroke-linecap:round;stroke-miterlimit:4;stroke-dasharray:none;stroke-opacity:1"
   id="path3473" /><text
   x="20.943823"
   y="43.943279"
   style="font-size:74.06365967px;font-style:normal;font-weight:normal;fill:#000000;fill-opacity:1;stroke:none;stroke-width:0.60869563;stroke-linecap:butt;stroke-linejoin:miter;stroke-miterlimit:4;stroke-dasharray:none;stroke-opacity:1;font-family:Sans"
   id="text3475"
   xml:space="preserve"><tspan
     x="20.943823"
     y="43.943279"
     style="font-size:17.77527809px;stroke-width:0.60869563;stroke-miterlimit:4;stroke-dasharray:none"
     id="tspan3477">1</tspan></text>


<path
   d="M 193.29073 52.047806 A 19.017754 19.017754 0 1 1  155.25523,52.047806 A 19.017754 19.017754 0 1 1  193.29073 52.047806 z"
   transform="matrix(0.7406366,0,0,0.7406366,-25.821133,26.818129)"
   style="opacity:0.73500001;fill:#29d2d4;fill-opacity:1;stroke:#000000;stroke-width:1.33551383;stroke-linecap:round;stroke-miterlimit:4;stroke-dasharray:none;stroke-opacity:1"
   id="path3509" /><text
   x="97.835907"
   y="71.962936"
   style="font-size:74.06365967px;font-style:normal;font-weight:normal;fill:#000000;fill-opacity:1;stroke:none;stroke-width:0.60869563;stroke-linecap:butt;stroke-linejoin:miter;stroke-miterlimit:4;stroke-dasharray:none;stroke-opacity:1;font-family:Sans"
   id="text3511"
   xml:space="preserve"><tspan
     x="97.835907"
     y="71.962936"
     style="font-size:17.77527809px;stroke-width:0.60869563;stroke-miterlimit:4;stroke-dasharray:none"
     id="tspan3513">2</tspan></text>


<path
   d="M 193.29073 52.047806 A 19.017754 19.017754 0 1 1  155.25523,52.047806 A 19.017754 19.017754 0 1 1  193.29073 52.047806 z"
   transform="matrix(0.7406366,0,0,0.7406366,45.928115,38.776337)"
   style="opacity:0.73500001;fill:#29d2d4;fill-opacity:1;stroke:#000000;stroke-width:1.33551383;stroke-linecap:round;stroke-miterlimit:4;stroke-dasharray:none;stroke-opacity:1"
   id="path3515" /><text
   x="169.3812"
   y="83.795288"
   style="font-size:74.06365967px;font-style:normal;font-weight:normal;fill:#000000;fill-opacity:1;stroke:none;stroke-width:0.60869563;stroke-linecap:butt;stroke-linejoin:miter;stroke-miterlimit:4;stroke-dasharray:none;stroke-opacity:1;font-family:Sans"
   id="text3517"
   xml:space="preserve"><tspan
     x="169.3812"
     y="83.795288"
     style="font-size:17.77527809px;stroke-width:0.60869563;stroke-miterlimit:4;stroke-dasharray:none"
     id="tspan3519">3</tspan></text>


<path
   d="M 193.29073 52.047806 A 19.017754 19.017754 0 1 1  155.25523,52.047806 A 19.017754 19.017754 0 1 1  193.29073 52.047806 z"
   transform="matrix(0.7406366,0,0,0.7406366,91.103567,95.909997)"
   style="opacity:0.73500001;fill:#29d2d4;fill-opacity:1;stroke:#000000;stroke-width:1.33551383;stroke-linecap:round;stroke-miterlimit:4;stroke-dasharray:none;stroke-opacity:1"
   id="path3521" /><text
   x="214.58702"
   y="140.93764"
   style="font-size:74.06365967px;font-style:normal;font-weight:normal;fill:#000000;fill-opacity:1;stroke:none;stroke-width:0.60869563;stroke-linecap:butt;stroke-linejoin:miter;stroke-miterlimit:4;stroke-dasharray:none;stroke-opacity:1;font-family:Sans"
   id="text3523"
   xml:space="preserve"><tspan
     x="214.58702"
     y="140.93764"
     style="font-size:17.77527809px;stroke-width:0.60869563;stroke-miterlimit:4;stroke-dasharray:none"
     id="tspan3525">4</tspan></text>


<path
   d="M 193.29073 52.047806 A 19.017754 19.017754 0 1 1  155.25523,52.047806 A 19.017754 19.017754 0 1 1  193.29073 52.047806 z"
   transform="matrix(0.7406366,0,0,0.7406366,157.53806,106.53951)"
   style="opacity:0.73500001;fill:#29d2d4;fill-opacity:1;stroke:#000000;stroke-width:1.33551383;stroke-linecap:round;stroke-miterlimit:4;stroke-dasharray:none;stroke-opacity:1"
   id="path3527" /><text
   x="281.04755"
   y="151.4413"
   style="font-size:74.06365967px;font-style:normal;font-weight:normal;fill:#000000;fill-opacity:1;stroke:none;stroke-width:0.60869563;stroke-linecap:butt;stroke-linejoin:miter;stroke-miterlimit:4;stroke-dasharray:none;stroke-opacity:1;font-family:Sans"
   id="text3529"
   xml:space="preserve"><tspan
     x="281.04755"
     y="151.4413"
     style="font-size:17.77527809px;stroke-width:0.60869563;stroke-miterlimit:4;stroke-dasharray:none"
     id="tspan3531">5</tspan></text>







<path
   d="M 375.81105,253.37293 L 319.18335,253.41913 C 310.13209,253.41913 302.78614,232.78599 302.78614,207.36301 C 302.78614,181.94003 310.13209,161.30689 319.18335,161.30689 L 375.7661,161.32999 L 375.81105,253.37293 z"
   style="fill:url(#linearGradient2998);fill-opacity:1;stroke:#000000;stroke-width:0.98913044;stroke-miterlimit:4;stroke-dasharray:none"
   id="path5033" /><path
   d="M 391.99334,207.36301 C 391.99334,232.78599 384.64739,253.41913 375.59613,253.41913 C 366.54487,253.41913 359.19892,232.78599 359.19892,207.36301 C 359.19892,181.94003 366.54487,161.30689 375.59613,161.30689 C 384.64739,161.30689 391.99334,181.94003 391.99334,207.36301 z"
   style="fill:#e5aa5a;stroke:#000000;stroke-width:0.98913044;stroke-miterlimit:4;stroke-dasharray:none"
   id="circle3621" /><path
   d="M 193.29073 52.047806 A 19.017754 19.017754 0 1 1  155.25523,52.047806 A 19.017754 19.017754 0 1 1  193.29073 52.047806 z"
   transform="matrix(0.7406366,0,0,0.7406366,223.97255,123.14814)"
   style="opacity:0.73500001;fill:#29d2d4;fill-opacity:1;stroke:#000000;stroke-width:1.33551383;stroke-linecap:round;stroke-miterlimit:4;stroke-dasharray:none;stroke-opacity:1"
   id="path3533" /><text
   x="347.33017"
   y="168.1671"
   style="font-size:74.06365967px;font-style:normal;font-weight:normal;fill:#000000;fill-opacity:1;stroke:none;stroke-width:0.60869563;stroke-linecap:butt;stroke-linejoin:miter;stroke-miterlimit:4;stroke-dasharray:none;stroke-opacity:1;font-family:Sans"
   id="text3535"
   xml:space="preserve"><tspan
     x="347.33017"
     y="168.1671"
     style="font-size:17.77527809px;stroke-width:0.60869563;stroke-miterlimit:4;stroke-dasharray:none"
     id="tspan3537">6</tspan></text>
<path
   d="M 386.53842,207.36301 C 386.53842,220.62717 382.70575,231.39229 377.98335,231.39229 C 373.26095,231.39229 369.42828,220.62717 369.42828,207.36301 C 369.42828,194.09885 373.26095,183.33373 377.98335,183.33373 C 382.70575,183.33373 386.53842,194.09885 386.53842,207.36301 z"
   style="opacity:0.85;fill:none;stroke:#000000;stroke-width:0.98913044;stroke-miterlimit:4;stroke-dasharray:none;stroke-opacity:1"
   id="path3718" /><path
   d="M 399.15987,211.71113 L 377.95286,211.72004 C 377.65771,211.72004 377.41817,211.04722 377.41817,210.21821 C 377.41817,209.3892 377.53087,208.71638 377.82602,208.71638 L 399.1433,208.72492 L 399.15987,211.71113 z"
   style="fill:#eeeeff;stroke:#000000;stroke-width:0.98913044;stroke-miterlimit:4;stroke-dasharray:none"
   id="path5241" /><path
   d="M 419.02668,211.70008 L 384.17655,211.70855 C 383.69152,211.70855 383.29788,211.06914 383.29788,210.2813 C 383.29788,209.49346 383.48309,208.85405 383.96812,208.85405 L 418.99946,208.86217 L 419.02668,211.70008 z"
   style="fill:#eeeeff;stroke:#000000;stroke-width:0.98913044;stroke-miterlimit:4;stroke-dasharray:none"
   id="path5253" /><path
   d="M 423.63947,205.60914 L 382.90721,205.6174 C 382.3403,205.6174 381.88022,204.99306 381.88022,204.22378 C 381.88022,203.4545 382.09668,202.83016 382.66358,202.83016 L 423.60766,202.83808 L 423.63947,205.60914 z"
   style="fill:#eeeeff;stroke:#000000;stroke-width:0.98913044;stroke-miterlimit:4;stroke-dasharray:none"
   id="path5255" /><path
   d="M 422.56408,214.63103 L 381.77413,214.63929 C 381.20644,214.63929 380.7457,214.01552 380.7457,213.24696 C 380.7457,212.4784 380.96247,211.85463 381.53017,211.85463 L 422.53221,211.86255 L 422.56408,214.63103 z"
   style="fill:#eeeeff;stroke:#000000;stroke-width:0.98913044;stroke-miterlimit:4;stroke-dasharray:none"
   id="path5251" /><path
   d="M 420.70954,215.64105 L 379.94328,215.64931 C 379.37591,215.64931 378.91543,215.02535 378.91543,214.25655 C 378.91543,213.48775 379.13207,212.86379 379.69945,212.86379 L 420.67769,212.87171 L 420.70954,215.64105 z"
   style="fill:#eeeeff;stroke:#000000;stroke-width:0.98913044;stroke-miterlimit:4;stroke-dasharray:none"
   id="path5249" /><path
   d="M 420.71254,219.5941 L 369.31474,219.60236 C 368.5994,219.60236 368.01886,218.97802 368.01886,218.20874 C 368.01886,217.43946 368.29198,216.81512 369.00733,216.81512 L 420.6724,216.82304 L 420.71254,219.5941 z"
   style="fill:#eeeeff;stroke:#000000;stroke-width:0.98913038;stroke-miterlimit:4;stroke-dasharray:none"
   clip-path="url(#clipPath4013)"
   id="path5245"
   transform="translate(0,4.0614126)" /><path
   d="M 423.6247,220.62632 L 382.8457,220.63458 C 382.27815,220.63458 381.81754,220.01043 381.81754,219.24139 C 381.81754,218.47235 382.03425,217.8482 382.6018,217.8482 L 423.59284,217.85612 L 423.6247,220.62632 z"
   style="fill:#eeeeff;stroke:#000000;stroke-width:0.98913044;stroke-miterlimit:4;stroke-dasharray:none"
   id="path5247" /><path
   d="M 419.03172,214.54488 L 367.25919,214.55314 C 366.53864,214.55314 365.95385,213.92937 365.95385,213.16081 C 365.95385,212.39225 366.22898,211.76848 366.94954,211.76848 L 418.99127,211.7764 L 419.03172,214.54488 z"
   style="fill:#eeeeff;stroke:#000000;stroke-width:0.9891305;stroke-miterlimit:4;stroke-dasharray:none"
   clip-path="url(#clipPath4009)"
   id="path5243"
   transform="translate(0,4.0614126)" /><path
   d="M 424.8902,207.51153 L 365.64821,207.51962 C 364.8237,207.51962 364.15454,206.90907 364.15454,206.1568 C 364.15454,205.40453 364.46938,204.79398 365.29388,204.79398 L 424.8439,204.80173 L 424.8902,207.51153 z"
   style="fill:#eeeeff;stroke:#000000;stroke-width:0.98913044;stroke-miterlimit:4;stroke-dasharray:none"
   clip-path="url(#clipPath4005)"
   id="path5239"
   transform="translate(0,4.0614126)" /><path
   d="M 417.79692,201.54645 L 365.15402,201.55471 C 364.42136,201.55471 363.82674,200.93094 363.82674,200.16238 C 363.82674,199.39382 364.10649,198.77005 364.83917,198.77005 L 417.75579,198.77797 L 417.79692,201.54645 z"
   style="fill:#eeeeff;stroke:#000000;stroke-width:0.9891305;stroke-miterlimit:4;stroke-dasharray:none"
   clip-path="url(#clipPath4001)"
   id="path5237"
   transform="translate(0,4.0614126)" /><path
   d="M 422.19095,200.62389 L 381.51794,200.63215 C 380.95187,200.63215 380.49246,200.008 380.49246,199.23896 C 380.49246,198.46992 380.70861,197.84577 381.27468,197.84577 L 422.15918,197.85369 L 422.19095,200.62389 z"
   style="fill:#eeeeff;stroke:#000000;stroke-width:0.98913044;stroke-miterlimit:4;stroke-dasharray:none"
   id="path5233" /><path
   d="M 419.16842,202.57996 L 378.61243,202.58822 C 378.04798,202.58822 377.5899,201.96407 377.5899,201.19503 C 377.5899,200.42599 377.80542,199.80184 378.36987,199.80184 L 419.13674,199.80976 L 419.16842,202.57996 z"
   style="fill:#eeeeff;stroke:#000000;stroke-width:0.98913044;stroke-miterlimit:4;stroke-dasharray:none"
   id="path5235" /><path
   d="M 420.67388,191.51411 L 369.33006,191.52237 C 368.61547,191.52237 368.03553,190.89841 368.03553,190.12961 C 368.03553,189.36081 368.30838,188.73685 369.02297,188.73685 L 420.63376,188.74477 L 420.67388,191.51411 z"
   style="fill:#eeeeff;stroke:#000000;stroke-width:0.98913044;stroke-miterlimit:4;stroke-dasharray:none"
   clip-path="url(#clipPath3997)"
   id="path5231"
   transform="translate(0,4.0614126)" /><path
   d="M 419.31878,188.5548 L 366.75999,188.56306 C 366.02848,188.56306 365.43481,187.9391 365.43481,187.1703 C 365.43481,186.4015 365.71412,185.77754 366.44562,185.77754 L 419.27771,185.78546 L 419.31878,188.5548 z"
   style="fill:#eeeeff;stroke:#000000;stroke-width:0.98913044;stroke-miterlimit:4;stroke-dasharray:none"
   clip-path="url(#clipPath3993)"
   id="path5065"
   transform="translate(0,4.0614126)" /><path
   d="M 415.64819,216.56534 L 369.2282,216.5736 C 368.58214,216.5736 368.05782,215.94926 368.05782,215.17998 C 368.05782,214.4107 368.3045,213.78636 368.95056,213.78636 L 415.61193,213.79428 L 415.64819,216.56534 z"
   style="fill:#eeeeff;stroke:#000000;stroke-width:0.98913044;stroke-miterlimit:4;stroke-dasharray:none"
   clip-path="url(#clipPath3989)"
   id="path5221"
   transform="translate(0,4.0614126)" /><path
   d="M 417.41227,221.61284 L 371.24253,221.6211 C 370.59996,221.6211 370.07845,220.99695 370.07845,220.22791 C 370.07845,219.45887 370.32382,218.83472 370.9664,218.83472 L 417.37622,218.84264 L 417.41227,221.61284 z"
   style="fill:#eeeeff;stroke:#000000;stroke-width:0.98913044;stroke-miterlimit:4;stroke-dasharray:none"
   clip-path="url(#clipPath3985)"
   id="path5219"
   transform="translate(0,4.0614126)" /><path
   d="M 414.37804,210.56963 L 366.44331,210.57789 C 365.77618,210.57789 365.23473,209.95412 365.23473,209.18556 C 365.23473,208.417 365.48946,207.79323 366.15661,207.79323 L 414.3406,207.80115 L 414.37804,210.56963 z"
   style="fill:#eeeeff;stroke:#000000;stroke-width:0.98913038;stroke-miterlimit:4;stroke-dasharray:none"
   clip-path="url(#clipPath3981)"
   id="path5223"
   transform="translate(0,4.0614126)" /><path
   d="M 418.30074,195.55289 L 366.59368,195.56115 C 365.87405,195.56115 365.29001,194.937 365.29001,194.16796 C 365.29001,193.39892 365.56479,192.77477 366.28444,192.77477 L 418.26035,192.78269 L 418.30074,195.55289 z"
   style="fill:#eeeeff;stroke:#000000;stroke-width:0.98913044;stroke-miterlimit:4;stroke-dasharray:none"
   clip-path="url(#clipPath3977)"
   id="path5229"
   transform="translate(0,4.0614126)" /><path
   d="M 416.46817,197.57163 L 366.84348,197.57989 C 366.15283,197.57989 365.5923,196.95593 365.5923,196.18713 C 365.5923,195.41833 365.85602,194.79437 366.54668,194.79437 L 416.42938,194.80229 L 416.46817,197.57163 z"
   style="fill:#eeeeff;stroke:#000000;stroke-width:0.98913044;stroke-miterlimit:4;stroke-dasharray:none"
   clip-path="url(#clipPath3973)"
   id="path5227"
   transform="translate(0,4.0614126)" /><path
   d="M 414.31763,203.56691 L 366.76095,203.57517 C 366.09907,203.57517 365.56192,202.95083 365.56192,202.18155 C 365.56192,201.41227 365.81463,200.78793 366.47651,200.78793 L 414.28049,200.79585 L 414.31763,203.56691 z"
   style="fill:#eeeeff;stroke:#000000;stroke-width:0.98913044;stroke-miterlimit:4;stroke-dasharray:none"
   clip-path="url(#clipPath3969)"
   id="path5225"
   transform="translate(0,4.0614126)" /><path
   d="M 428.55723,207.36301 C 428.55723,220.62717 424.72456,231.39229 420.00216,231.39229 C 415.27976,231.39229 411.44709,220.62717 411.44709,207.36301 C 411.44709,194.09885 415.27976,183.33373 420.00216,183.33373 C 424.72456,183.33373 428.55723,194.09885 428.55723,207.36301 z"
   style="opacity:0.85;fill:#e5d56d;stroke:#000000;stroke-width:0.8369565;stroke-miterlimit:4;stroke-dasharray:none"
   id="circle3623" /><path
   d="M 459.95943,211.70008 L 425.1093,211.70855 C 424.62427,211.70855 424.23063,211.06914 424.23063,210.2813 C 424.23063,209.49346 424.41584,208.85405 424.90087,208.85405 L 459.93221,208.86217 L 459.95943,211.70008 z"
   style="fill:#eeeeff;stroke:#000000;stroke-width:0.60869563;stroke-miterlimit:4;stroke-dasharray:none"
   id="path3640" /><path
   d="M 464.57222,205.60914 L 423.83996,205.6174 C 423.27305,205.6174 422.81297,204.99306 422.81297,204.22378 C 422.81297,203.4545 423.02943,202.83016 423.59633,202.83016 L 464.54041,202.83808 L 464.57222,205.60914 z"
   style="fill:#eeeeff;stroke:#000000;stroke-width:0.60869563;stroke-miterlimit:4;stroke-dasharray:none"
   id="path3642" /><path
   d="M 463.49683,214.63103 L 422.70688,214.63929 C 422.13919,214.63929 421.67845,214.01552 421.67845,213.24696 C 421.67845,212.4784 421.89522,211.85463 422.46292,211.85463 L 463.46496,211.86255 L 463.49683,214.63103 z"
   style="fill:#eeeeff;stroke:#000000;stroke-width:0.60869563;stroke-miterlimit:4;stroke-dasharray:none"
   id="path3644" /><path
   d="M 461.64229,215.64105 L 420.87603,215.64931 C 420.30866,215.64931 419.84818,215.02535 419.84818,214.25655 C 419.84818,213.48775 420.06482,212.86379 420.6322,212.86379 L 461.61044,212.87171 L 461.64229,215.64105 z"
   style="fill:#eeeeff;stroke:#000000;stroke-width:0.60869563;stroke-miterlimit:4;stroke-dasharray:none"
   id="path3646" /><path
   d="M 461.64531,223.65551 L 420.99832,223.66377 C 420.43261,223.66377 419.9735,223.03943 419.9735,222.27015 C 419.9735,221.50087 420.18949,220.87653 420.75521,220.87653 L 461.61356,220.88445 L 461.64531,223.65551 z"
   style="fill:#eeeeff;stroke:#000000;stroke-width:0.60869563;stroke-miterlimit:4;stroke-dasharray:none"
   id="path3648" /><path
   d="M 464.55745,220.62632 L 423.77845,220.63458 C 423.2109,220.63458 422.75029,220.01043 422.75029,219.24139 C 422.75029,218.47235 422.967,217.8482 423.53455,217.8482 L 464.52559,217.85612 L 464.55745,220.62632 z"
   style="fill:#eeeeff;stroke:#000000;stroke-width:0.60869563;stroke-miterlimit:4;stroke-dasharray:none"
   id="path3650" /><path
   d="M 459.96447,218.60629 L 419.48112,218.61455 C 418.91769,218.61455 418.46041,217.99078 418.46041,217.22222 C 418.46041,216.45366 418.67555,215.82989 419.23899,215.82989 L 459.93284,215.83781 L 459.96447,218.60629 z"
   style="fill:#eeeeff;stroke:#000000;stroke-width:0.60869563;stroke-miterlimit:4;stroke-dasharray:none"
   id="path3652" /><path
   d="M 465.82296,211.57294 L 417.62294,211.58103 C 416.95211,211.58103 416.40767,210.97048 416.40767,210.21821 C 416.40767,209.46594 416.66383,208.85539 417.33465,208.85539 L 465.78529,208.86314 L 465.82296,211.57294 z"
   style="fill:#eeeeff;stroke:#000000;stroke-width:0.60869563;stroke-miterlimit:4;stroke-dasharray:none"
   id="path3654" /><path
   d="M 458.72967,205.60786 L 418.03517,205.61612 C 417.4688,205.61612 417.00914,204.99235 417.00914,204.22379 C 417.00914,203.45523 417.2254,202.83146 417.79178,202.83146 L 458.69787,202.83938 L 458.72967,205.60786 z"
   style="fill:#eeeeff;stroke:#000000;stroke-width:0.60869563;stroke-miterlimit:4;stroke-dasharray:none"
   id="path3656" /><path
   d="M 463.1237,200.62389 L 422.45069,200.63215 C 421.88462,200.63215 421.42521,200.008 421.42521,199.23896 C 421.42521,198.46992 421.64136,197.84577 422.20743,197.84577 L 463.09193,197.85369 L 463.1237,200.62389 z"
   style="fill:#eeeeff;stroke:#000000;stroke-width:0.60869563;stroke-miterlimit:4;stroke-dasharray:none"
   id="path3658" /><path
   d="M 419.954,231.39229 C 415.2316,231.39229 411.45323,220.62717 411.45323,207.36301 C 411.45323,194.09885 415.2859,183.33373 419.954,183.33373 C 415.17729,183.33373 382.72456,183.33373 378.00216,183.33373 C 373.27976,183.33373 369.44709,194.09885 369.44709,207.36301 C 369.44709,220.62717 373.27976,231.39229 378.00216,231.39229 C 382.72456,231.39229 415.2316,231.39229 419.954,231.39229 z"
   style="opacity:0.76999996;fill:#e5d56d;stroke:#000000;stroke-width:0.8369565;stroke-miterlimit:4;stroke-dasharray:none"
   id="path5035" /><path
   d="M 460.10117,202.57996 L 419.54518,202.58822 C 418.98073,202.58822 418.52265,201.96407 418.52265,201.19503 C 418.52265,200.42599 418.73817,199.80184 419.30262,199.80184 L 460.06949,199.80976 L 460.10117,202.57996 z"
   style="fill:#eeeeff;stroke:#000000;stroke-width:0.60869563;stroke-miterlimit:4;stroke-dasharray:none"
   id="path3660" /><path
   d="M 461.60664,195.57552 L 420.93667,195.58378 C 420.37064,195.58378 419.91126,194.95982 419.91126,194.19102 C 419.91126,193.42222 420.12739,192.79826 420.69342,192.79826 L 461.57486,192.80618 L 461.60664,195.57552 z"
   style="fill:#eeeeff;stroke:#000000;stroke-width:0.60869563;stroke-miterlimit:4;stroke-dasharray:none"
   id="path3662" /><path
   d="M 460.25153,192.61621 L 419.47556,192.62447 C 418.90805,192.62447 418.44747,192.00051 418.44747,191.23171 C 418.44747,190.46291 418.66416,189.83895 419.23167,189.83895 L 460.21967,189.84687 L 460.25153,192.61621 z"
   style="fill:#eeeeff;stroke:#000000;stroke-width:0.60869563;stroke-miterlimit:4;stroke-dasharray:none"
   id="path3664" /><path
   d="M 456.58094,220.62675 L 416.01155,220.63501 C 415.44692,220.63501 414.98868,220.01067 414.98868,219.24139 C 414.98868,218.47211 415.20427,217.84777 415.7689,217.84777 L 456.54925,217.85569 L 456.58094,220.62675 z"
   style="fill:#eeeeff;stroke:#000000;stroke-width:0.60869563;stroke-miterlimit:4;stroke-dasharray:none"
   id="path3666" /><path
   d="M 457.31019,219.26587 C 457.31019,220.04514 457.07065,220.67759 456.7755,220.67759 C 456.48035,220.67759 456.24081,220.04514 456.24081,219.26587 C 456.24081,218.4866 456.48035,217.85415 456.7755,217.85415 C 457.07065,217.85415 457.31019,218.4866 457.31019,219.26587 z"
   style="fill:#eeeeff;stroke:#000000;stroke-width:0.59015232;stroke-miterlimit:4;stroke-dasharray:none"
   id="path3668" /><path
   d="M 458.34501,225.67425 L 417.77866,225.68251 C 417.21407,225.68251 416.75586,225.05836 416.75586,224.28932 C 416.75586,223.52028 416.97145,222.89613 417.53604,222.89613 L 458.31333,222.90405 L 458.34501,225.67425 z"
   style="fill:#eeeeff;stroke:#000000;stroke-width:0.60869563;stroke-miterlimit:4;stroke-dasharray:none"
   id="path3670" /><path
   d="M 459.0925,224.27197 C 459.0925,225.05124 458.85295,225.68369 458.5578,225.68369 C 458.26266,225.68369 458.02311,225.05124 458.02311,224.27197 C 458.02311,223.4927 458.26266,222.86025 458.5578,222.86025 C 458.85295,222.86025 459.0925,223.4927 459.0925,224.27197 z"
   style="fill:#eeeeff;stroke:#000000;stroke-width:0.59015232;stroke-miterlimit:4;stroke-dasharray:none"
   id="path3672" /><path
   d="M 455.3108,214.63104 L 414.62751,214.6393 C 414.0613,214.6393 413.60176,214.01553 413.60176,213.24697 C 413.60176,212.47841 413.81796,211.85464 414.38418,211.85464 L 455.27902,211.86256 L 455.3108,214.63104 z"
   style="fill:#eeeeff;stroke:#000000;stroke-width:0.60869563;stroke-miterlimit:4;stroke-dasharray:none"
   id="path3674" /><path
   d="M 455.88435,213.25855 C 455.88435,214.03782 455.64481,214.67027 455.34966,214.67027 C 455.05451,214.67027 454.81496,214.03782 454.81496,213.25855 C 454.81496,212.47928 455.05451,211.84683 455.34966,211.84683 C 455.64481,211.84683 455.88435,212.47928 455.88435,213.25855 z"
   style="fill:#eeeeff;stroke:#000000;stroke-width:0.59015232;stroke-miterlimit:4;stroke-dasharray:none"
   id="path3676" /><path
   d="M 458.73604,210.25489 C 458.73604,211.03416 458.49649,211.66661 458.20134,211.66661 C 457.90619,211.66661 457.66665,211.03416 457.66665,210.25489 C 457.66665,209.47562 457.90619,208.84317 458.20134,208.84317 C 458.49649,208.84317 458.73604,209.47562 458.73604,210.25489 z"
   style="fill:#eeeeff;stroke:#000000;stroke-width:0.59015232;stroke-miterlimit:4;stroke-dasharray:none"
   id="path3678" /><path
   d="M 460.8748,217.26343 C 460.8748,218.0427 460.63526,218.67515 460.34011,218.67515 C 460.04496,218.67515 459.80542,218.0427 459.80542,217.26343 C 459.80542,216.48416 460.04496,215.85171 460.34011,215.85171 C 460.63526,215.85171 460.8748,216.48416 460.8748,217.26343 z"
   style="fill:#eeeeff;stroke:#000000;stroke-width:0.59015232;stroke-miterlimit:4;stroke-dasharray:none"
   id="path3680" /><path
   d="M 462.30065,222.26953 C 462.30065,223.0488 462.0611,223.68125 461.76595,223.68125 C 461.4708,223.68125 461.23126,223.0488 461.23126,222.26953 C 461.23126,221.49026 461.4708,220.85781 461.76595,220.85781 C 462.0611,220.85781 462.30065,221.49026 462.30065,222.26953 z"
   style="fill:#eeeeff;stroke:#000000;stroke-width:0.59015232;stroke-miterlimit:4;stroke-dasharray:none"
   id="path3682" /><path
   d="M 462.30065,214.25977 C 462.30065,215.03904 462.0611,215.67149 461.76595,215.67149 C 461.4708,215.67149 461.23126,215.03904 461.23126,214.25977 C 461.23126,213.4805 461.4708,212.84805 461.76595,212.84805 C 462.0611,212.84805 462.30065,213.4805 462.30065,214.25977 z"
   style="fill:#eeeeff;stroke:#000000;stroke-width:0.59015232;stroke-miterlimit:4;stroke-dasharray:none"
   id="path3684" /><path
   d="M 465.15232,219.26587 C 465.15232,220.04514 464.91279,220.67759 464.61764,220.67759 C 464.32249,220.67759 464.08295,220.04514 464.08295,219.26587 C 464.08295,218.4866 464.32249,217.85415 464.61764,217.85415 C 464.91279,217.85415 465.15232,218.4866 465.15232,219.26587 z"
   style="fill:#eeeeff;stroke:#000000;stroke-width:0.59015232;stroke-miterlimit:4;stroke-dasharray:none"
   id="path3686" /><path
   d="M 464.08295,213.25855 C 464.08295,214.03782 463.84341,214.67027 463.54826,214.67027 C 463.25311,214.67027 463.01357,214.03782 463.01357,213.25855 C 463.01357,212.47928 463.25311,211.84683 463.54826,211.84683 C 463.84341,211.84683 464.08295,212.47928 464.08295,213.25855 z"
   style="fill:#eeeeff;stroke:#000000;stroke-width:0.59015232;stroke-miterlimit:4;stroke-dasharray:none"
   id="path3688" /><path
   d="M 466.57817,210.25489 C 466.57817,211.03416 466.33863,211.66661 466.04348,211.66661 C 465.74833,211.66661 465.50879,211.03416 465.50879,210.25489 C 465.50879,209.47562 465.74833,208.84317 466.04348,208.84317 C 466.33863,208.84317 466.57817,209.47562 466.57817,210.25489 z"
   style="fill:#eeeeff;stroke:#000000;stroke-width:0.59015232;stroke-miterlimit:4;stroke-dasharray:none"
   id="path3690" /><path
   d="M 460.8748,210.25489 C 460.8748,211.03416 460.63526,211.66661 460.34011,211.66661 C 460.04496,211.66661 459.80542,211.03416 459.80542,210.25489 C 459.80542,209.47562 460.04496,208.84317 460.34011,208.84317 C 460.63526,208.84317 460.8748,209.47562 460.8748,210.25489 z"
   style="fill:#eeeeff;stroke:#000000;stroke-width:0.59015232;stroke-miterlimit:4;stroke-dasharray:none"
   id="path3692" /><path
   d="M 465.15232,204.24757 C 465.15232,205.02684 464.91279,205.65929 464.61764,205.65929 C 464.32249,205.65929 464.08295,205.02684 464.08295,204.24757 C 464.08295,203.4683 464.32249,202.83585 464.61764,202.83585 C 464.91279,202.83585 465.15232,203.4683 465.15232,204.24757 z"
   style="fill:#eeeeff;stroke:#000000;stroke-width:0.59015232;stroke-miterlimit:4;stroke-dasharray:none"
   id="path3694" /><path
   d="M 460.8748,201.24391 C 460.8748,202.02318 460.63526,202.65563 460.34011,202.65563 C 460.04496,202.65563 459.80542,202.02318 459.80542,201.24391 C 459.80542,200.46464 460.04496,199.83219 460.34011,199.83219 C 460.63526,199.83219 460.8748,200.46464 460.8748,201.24391 z"
   style="fill:#eeeeff;stroke:#000000;stroke-width:0.59015232;stroke-miterlimit:4;stroke-dasharray:none"
   id="path3696" /><path
   d="M 462.30065,194.23537 C 462.30065,195.01464 462.0611,195.64709 461.76595,195.64709 C 461.4708,195.64709 461.23126,195.01464 461.23126,194.23537 C 461.23126,193.4561 461.4708,192.82365 461.76595,192.82365 C 462.0611,192.82365 462.30065,193.4561 462.30065,194.23537 z"
   style="fill:#eeeeff;stroke:#000000;stroke-width:0.59015232;stroke-miterlimit:4;stroke-dasharray:none"
   id="path3698" /><path
   d="M 460.8748,191.23171 C 460.8748,192.01098 460.63526,192.64343 460.34011,192.64343 C 460.04496,192.64343 459.80542,192.01098 459.80542,191.23171 C 459.80542,190.45244 460.04496,189.81999 460.34011,189.81999 C 460.63526,189.81999 460.8748,190.45244 460.8748,191.23171 z"
   style="fill:#eeeeff;stroke:#000000;stroke-width:0.59015232;stroke-miterlimit:4;stroke-dasharray:none"
   id="path3700" /><path
   d="M 459.23351,199.6143 L 418.47755,199.62256 C 417.91033,199.62256 417.44998,198.99841 417.44998,198.22937 C 417.44998,197.46033 417.66657,196.83618 418.2338,196.83618 L 459.20167,196.8441 L 459.23351,199.6143 z"
   style="fill:#eeeeff;stroke:#000000;stroke-width:0.60869563;stroke-miterlimit:4;stroke-dasharray:none"
   id="path3702" /><path
   d="M 459.80542,198.24025 C 459.80542,199.01952 459.56588,199.65197 459.27073,199.65197 C 458.97558,199.65197 458.73604,199.01952 458.73604,198.24025 C 458.73604,197.46098 458.97558,196.82853 459.27073,196.82853 C 459.56588,196.82853 459.80542,197.46098 459.80542,198.24025 z"
   style="fill:#eeeeff;stroke:#000000;stroke-width:0.59015232;stroke-miterlimit:4;stroke-dasharray:none"
   id="path3704" /><path
   d="M 459.44896,204.24757 C 459.44896,205.02684 459.20942,205.65929 458.91427,205.65929 C 458.61912,205.65929 458.37957,205.02684 458.37957,204.24757 C 458.37957,203.4683 458.61912,202.83585 458.91427,202.83585 C 459.20942,202.83585 459.44896,203.4683 459.44896,204.24757 z"
   style="fill:#eeeeff;stroke:#000000;stroke-width:0.59015232;stroke-miterlimit:4;stroke-dasharray:none"
   id="path3706" /><path
   d="M 457.40093,201.63304 L 416.64802,201.6413 C 416.08084,201.6413 415.62052,201.01734 415.62052,200.24854 C 415.62052,199.47974 415.83709,198.85578 416.40428,198.85578 L 457.36908,198.8637 L 457.40093,201.63304 z"
   style="fill:#eeeeff;stroke:#000000;stroke-width:0.60869563;stroke-miterlimit:4;stroke-dasharray:none"
   id="path3708" /><path
   d="M 458.02311,200.24269 C 458.02311,201.02196 457.78357,201.65441 457.48842,201.65441 C 457.19327,201.65441 456.95373,201.02196 456.95373,200.24269 C 456.95373,199.46342 457.19327,198.83097 457.48842,198.83097 C 457.78357,198.83097 458.02311,199.46342 458.02311,200.24269 z"
   style="fill:#eeeeff;stroke:#000000;stroke-width:0.59015232;stroke-miterlimit:4;stroke-dasharray:none"
   id="path3710" /><path
   d="M 455.2504,207.62832 L 414.62479,207.63658 C 414.05938,207.63658 413.60051,207.01224 413.60051,206.24296 C 413.60051,205.47368 413.81639,204.84934 414.38181,204.84934 L 455.21867,204.85726 L 455.2504,207.62832 z"
   style="fill:#eeeeff;stroke:#000000;stroke-width:0.60869563;stroke-miterlimit:4;stroke-dasharray:none"
   id="path3712" /><path
   d="M 455.88435,206.25001 C 455.88435,207.02928 455.64481,207.66173 455.34966,207.66173 C 455.05451,207.66173 454.81496,207.02928 454.81496,206.25001 C 454.81496,205.47074 455.05451,204.83829 455.34966,204.83829 C 455.64481,204.83829 455.88435,205.47074 455.88435,206.25001 z"
   style="fill:#eeeeff;stroke:#000000;stroke-width:0.59015232;stroke-miterlimit:4;stroke-dasharray:none"
   id="path3714" /><path
   d="M 463.72649,199.24147 C 463.72649,200.02074 463.48695,200.65319 463.1918,200.65319 C 462.89665,200.65319 462.65711,200.02074 462.65711,199.24147 C 462.65711,198.4622 462.89665,197.82975 463.1918,197.82975 C 463.48695,197.82975 463.72649,198.4622 463.72649,199.24147 z"
   style="fill:#eeeeff;stroke:#000000;stroke-width:0.59015232;stroke-miterlimit:4;stroke-dasharray:none"
   id="path3716" /><path
   d="M 462.13206,179.00316 C 462.13711,186.78579 455.82945,193.09754 448.04682,193.09754 C 440.26419,193.09754 433.95652,186.78579 433.96158,179.00316 C 433.95652,171.22053 440.26419,164.90878 448.04682,164.90878 C 455.82945,164.90878 462.13711,171.22053 462.13206,179.00316 L 462.13206,179.00316 z"
   style="opacity:0.73500001;fill:#29d2d4;fill-opacity:1;stroke:#000000;stroke-width:0.60869563;stroke-linecap:round;stroke-miterlimit:4;stroke-dasharray:none;stroke-opacity:1"
   id="path3545" /><text
   x="442.39658"
   y="185.4736"
   style="font-size:74.06365967px;font-style:normal;font-weight:normal;fill:#000000;fill-opacity:1;stroke:none;stroke-width:0.60869563;stroke-linecap:butt;stroke-linejoin:miter;stroke-miterlimit:4;stroke-dasharray:none;stroke-opacity:1;font-family:Sans"
   id="text3547"
   xml:space="preserve"><tspan
     x="442.39658"
     y="185.4736"
     style="font-size:17.77527809px;stroke-width:0.60869563;stroke-miterlimit:4;stroke-dasharray:none"
     id="tspan3549">8</tspan></text>
<path
   d="M 412.4022,174.07767 C 412.40725,181.8603 406.0996,188.17205 398.31696,188.17205 C 390.53433,188.17205 384.22667,181.8603 384.23172,174.07767 C 384.22667,166.29504 390.53433,159.98329 398.31696,159.98329 C 406.0996,159.98329 412.40725,166.29504 412.4022,174.07767 L 412.4022,174.07767 z"
   style="opacity:0.73500001;fill:#29d2d4;fill-opacity:1;stroke:#000000;stroke-width:0.98913044;stroke-linecap:round;stroke-miterlimit:4;stroke-dasharray:none;stroke-opacity:1"
   id="path3539" /><text
   x="392.69275"
   y="180.55679"
   style="font-size:74.06365967px;font-style:normal;font-weight:normal;fill:#000000;fill-opacity:1;stroke:none;stroke-width:0.60869563;stroke-linecap:butt;stroke-linejoin:miter;stroke-miterlimit:4;stroke-dasharray:none;stroke-opacity:1;font-family:Sans"
   id="text3541"
   xml:space="preserve"><tspan
     x="392.69275"
     y="180.55679"
     style="font-size:17.77527809px;stroke-width:0.60869563;stroke-miterlimit:4;stroke-dasharray:none"
     id="tspan3543">7</tspan></text>

</svg>