<?xml version="1.0" encoding="UTF-8" standalone="no"?>
<svg
   xmlns:dc="http://purl.org/dc/elements/1.1/"
   xmlns:cc="http://creativecommons.org/ns#"
   xmlns:rdf="http://www.w3.org/1999/02/22-rdf-syntax-ns#"
   xmlns:svg="http://www.w3.org/2000/svg"
   xmlns="http://www.w3.org/2000/svg"
   xmlns:xlink="http://www.w3.org/1999/xlink"
   xmlns:sodipodi="http://sodipodi.sourceforge.net/DTD/sodipodi-0.dtd"
   xmlns:inkscape="http://www.inkscape.org/namespaces/inkscape"
   sodipodi:docname="logo.svg"
   id="svg91"
   viewBox="0 0 512 512"
   version="1.1"
   inkscape:version="1.0.1 (3bc2e813f5, 2020-09-07)">
  <metadata
     id="metadata97">
    <rdf:RDF>
      <cc:Work
         rdf:about="">
        <dc:format>image/svg+xml</dc:format>
        <dc:type
           rdf:resource="http://purl.org/dc/dcmitype/StillImage" />
      </cc:Work>
    </rdf:RDF>
  </metadata>
  <defs
     id="defs95">
    <linearGradient
       inkscape:collect="always"
       id="linearGradient7838">
      <stop
         style="stop-color:#00ccae;stop-opacity:1"
         offset="0"
         id="stop7834" />
      <stop
         style="stop-color:#00a5a5;stop-opacity:1"
         offset="1"
         id="stop7836" />
    </linearGradient>
    <linearGradient
       inkscape:collect="always"
       id="linearGradient6984">
      <stop
         style="stop-color:#bf0000;stop-opacity:1"
         offset="0"
         id="stop6980" />
      <stop
         style="stop-color:#b7002c;stop-opacity:1"
         offset="1"
         id="stop6982" />
    </linearGradient>
    <linearGradient
       inkscape:collect="always"
       id="linearGradient6318">
      <stop
         style="stop-color:#bd00ff;stop-opacity:1"
         offset="0"
         id="stop6314" />
      <stop
         style="stop-color:#d22ea5;stop-opacity:1"
         offset="1"
         id="stop6316" />
    </linearGradient>
    <linearGradient
       inkscape:collect="always"
       id="linearGradient5976">
      <stop
         style="stop-color:#ff0ab0;stop-opacity:1"
         offset="0"
         id="stop5972" />
      <stop
         style="stop-color:#4400b3;stop-opacity:1"
         offset="1"
         id="stop5974" />
    </linearGradient>
    <radialGradient
       inkscape:collect="always"
       xlink:href="#linearGradient5976"
       id="radialGradient5978"
       cx="256.96915"
       cy="257.75026"
       fx="256.96915"
       fy="257.75026"
       r="167.49338"
       gradientTransform="matrix(1.4341885,0,0,1.4341885,-3426.6567,-144.44342)"
       gradientUnits="userSpaceOnUse" />
    <radialGradient
       inkscape:collect="always"
       xlink:href="#linearGradient6318"
       id="radialGradient6320"
       cx="46.165111"
       cy="741.29667"
       fx="46.165111"
       fy="741.29667"
       r="60.285217"
       gradientTransform="matrix(4.1101049,0,0,3.9757782,-1254.6275,-2689.6148)"
       gradientUnits="userSpaceOnUse" />
    <radialGradient
       inkscape:collect="always"
       xlink:href="#linearGradient6984"
       id="radialGradient6986"
       cx="-757.82061"
       cy="1153.6232"
       fx="-757.82061"
       fy="1153.6232"
       r="242.0036"
       gradientTransform="matrix(1,0,0,0.97804759,-972.9765,-843.9274)"
       gradientUnits="userSpaceOnUse" />
    <radialGradient
       inkscape:collect="always"
       xlink:href="#linearGradient7838"
       id="radialGradient7840"
       cx="256"
       cy="256"
       fx="256"
       fy="256"
       r="254.52616"
       gradientTransform="matrix(1,0,0,0.97905251,0,5.3625574)"
       gradientUnits="userSpaceOnUse" />
  </defs>
  <sodipodi:namedview
     pagecolor="#ffffff"
     bordercolor="#666666"
     borderopacity="1"
     objecttolerance="10"
     gridtolerance="10"
     guidetolerance="10"
     inkscape:pageopacity="0"
     inkscape:pageshadow="2"
     inkscape:window-width="1920"
     inkscape:window-height="1017"
     id="namedview93"
     showgrid="false"
     inkscape:zoom="0.62286164"
     inkscape:cx="-243.07136"
     inkscape:cy="175.78743"
     inkscape:window-x="-8"
     inkscape:window-y="-8"
     inkscape:window-maximized="1"
     inkscape:current-layer="svg91"
     inkscape:document-rotation="0"
     inkscape:snap-object-midpoints="true"
     inkscape:snap-bbox="true"
     inkscape:snap-bbox-midpoints="true"
     showguides="true"
     inkscape:guide-bbox="true" />
  <path
     style="fill:none;stroke:#000000;stroke-width:0.999999"
     d="m -2244.0917,145.38725 c 14.2043,2.21696 26.9652,4.02908 37.8036,5.74481 10.8384,1.71574 19.7515,3.34334 26.4777,5.28766 6.7233,1.94431 11.257,4.20809 13.568,7.20993 2.3109,3.00185 2.4045,6.74727 0.4765,11.58603 -1.9281,4.836 -5.8724,10.77084 -11.4334,18.01107 -5.5611,7.24023 -12.7389,15.79136 -20.9992,25.67266 -8.2604,9.87856 -17.6004,21.08729 -27.439,33.43616 -9.8413,12.34888 -20.1729,25.8324 -30.4494,40.06225 -10.2793,14.22985 -20.4979,29.19776 -30.2181,44.35571 -9.7228,15.15794 -18.9444,30.49764 -27.3948,45.37743 -8.4504,14.87979 -16.1295,29.2914 -22.9603,42.5849 -6.8308,13.29349 -12.8161,25.46336 -18.0769,35.93401 -5.258,10.47066 -9.7917,19.23935 -13.8792,25.88748 -4.0875,6.64812 -7.7315,11.17292 -11.3094,13.36785 -3.5779,2.19768 -7.098,2.06549 -10.9541,-0.36077 -3.8561,-2.42351 -8.0537,-7.14109 -12.9427,-13.88285 -4.8862,-6.739 -10.461,-15.49944 -16.9448,-25.81312 -6.4838,-10.31368 -13.8737,-22.17785 -22.2111,-34.9949 -8.3375,-12.81981 -17.6197,-26.58699 -27.6813,-40.65986 -10.0645,-14.07287 -20.9084,-28.44868 -32.1765,-42.51605 -11.2653,-14.07011 -22.9548,-27.82903 -34.5561,-40.79205 -11.6014,-12.96301 -23.1146,-25.12737 -33.9447,-36.17912 -10.8329,-11.04899 -20.9772,-20.98538 -29.8435,-29.70174 -8.8663,-8.71913 -16.449,-16.21549 -22.2387,-22.59097 -5.7924,-6.37548 -9.7835,-11.63284 -11.6289,-16.03646 -1.8454,-4.40363 -1.5424,-7.96178 1.0494,-11.04899 2.5919,-3.08722 7.4726,-5.70902 14.5348,-8.27849 7.0649,-2.56947 16.314,-5.09212 27.4113,-7.93148 11.1001,-2.84211 24.0456,-6.00369 38.3131,-9.74085 14.2704,-3.73716 29.8573,-8.04715 46.1135,-13.01259 16.259,-4.96819 33.1818,-10.58908 50.0825,-16.75525 16.898,-6.16342 33.7712,-12.86938 49.9723,-19.82044 16.2039,-6.95107 31.733,-14.141722 46.0777,-21.131342 14.3419,-6.98962 27.4967,-13.769935 39.1367,-19.823198 11.6371,-6.053263 21.7594,-11.371211 30.2566,-15.427833 8.4944,-4.056622 15.3665,-6.849165 20.7183,-7.936989 5.3517,-1.085071 9.1885,-0.46267 11.7941,2.159125 2.6084,2.619041 3.9911,7.237477 4.5585,13.92691 0.5674,6.692188 0.3222,15.460881 -0.2782,26.143595 -0.6032,10.68547 -1.5562,23.284962 -2.4486,37.418422 -0.8924,14.13621 -1.7187,29.80364 -2.1705,46.44047 -0.4544,16.63684 -0.5316,34.24032 -0.091,52.13023 0.438,17.88989 1.3965,36.06345 2.8233,53.81565 1.4295,17.74944 3.3272,35.07202 5.4646,51.32054 2.1374,16.24852 4.5116,31.42023 6.7482,45.00289 2.2365,13.58266 4.3326,25.57352 5.8255,35.66688 1.4956,10.09336 2.3825,18.28647 2.2062,24.49396 -0.179,6.21024 -1.4295,10.43486 -4.1371,12.82256 -2.7047,2.39046 -6.8721,2.94126 -12.7361,1.99113 -5.864,-0.94737 -13.4247,-3.39566 -22.718,-6.87945 -9.2959,-3.48104 -20.3244,-7.99483 -32.8953,-13.02361 -12.5708,-5.03153 -26.6869,-10.57255 -41.9406,-16.14662 -15.2564,-5.57407 -31.6475,-11.17292 -48.6061,-16.43028 -16.9558,-5.25461 -34.4736,-10.16221 -51.8756,-14.51076 -17.402,-4.34854 -34.6829,-8.13803 -51.1484,-11.34642 -16.4683,-3.21115 -32.1158,-5.84396 -46.3201,-8.06092 -14.2069,-2.21972 -26.9651,-4.03184 -37.8035,-5.74757 -10.8384,-1.71574 -19.7543,-3.34334 -26.4777,-5.28766 -6.7234,-1.94156 -11.257,-4.20809 -13.5679,-7.20993 -2.3137,-3.00185 -2.4046,-6.74727 -0.4766,-11.58327 1.9281,-4.83876 5.8696,-10.7736 11.4334,-18.01383 5.561,-7.24023 12.7361,-15.79136 20.9965,-25.66991 8.263,-9.8813 17.6031,-21.09003 27.4416,-33.4389 9.8386,-12.34888 20.1702,-25.8324 30.4495,-40.06226 10.2765,-14.22985 20.4951,-29.19776 30.218,-44.35571 9.7229,-15.15794 18.9445,-30.49764 27.3949,-45.37743 8.4503,-14.87979 16.1267,-29.291402 22.9603,-42.584899 6.8308,-13.293494 12.816,-25.46336 18.0741,-35.934017 5.2581,-10.470657 9.7945,-19.239351 13.8792,-25.887474 4.0875,-6.648124 7.7342,-11.17017 11.3122,-13.3678514 3.5779,-2.197683 7.0952,-2.065493 10.9513,0.360772 3.8561,2.4262624 8.0565,7.1438414 12.9427,13.8828464 4.8862,6.739005 10.4638,15.499437 16.9476,25.813117 6.481,10.313679 13.8737,22.177854 22.2111,34.994907 8.3347,12.819807 17.6169,26.586989 27.6813,40.659859 10.0644,14.07287 20.9084,28.44868 32.1737,42.51605 11.2681,14.07011 22.9548,27.82903 34.5589,40.7948 11.6014,12.96302 23.1146,25.12463 33.9447,36.17638 10.8302,11.04899 20.9772,20.98538 29.8435,29.7045 8.8663,8.71637 16.449,16.21272 22.2387,22.5882 5.7897,6.37548 9.7835,11.63284 11.6289,16.03646 1.8454,4.40363 1.5397,7.96178 -1.0522,11.04899 -2.5918,3.08722 -7.4698,5.70902 -14.5347,8.27849 -7.065,2.56947 -16.3113,5.09212 -27.4114,7.93148 -11.0973,2.84211 -24.0428,6.00369 -38.3131,9.74085 -14.2676,3.73716 -29.8545,8.04715 -46.1135,13.01259 -16.2562,4.96819 -33.179,10.58908 -50.0797,16.75525 -16.9008,6.16342 -33.7712,12.86938 -49.9751,19.82044 -16.2011,6.95107 -31.7302,14.14172 -46.0749,21.13134 -14.3447,6.98962 -27.4968,13.76994 -39.1367,19.8232 -11.6399,6.05326 -21.7594,11.37121 -30.2566,15.42783 -8.4972,4.05662 -15.3666,6.84917 -20.7183,7.93699 -5.3517,1.08507 -9.1885,0.46267 -11.7969,-2.15637 -2.6056,-2.6218 -3.9911,-7.23748 -4.5557,-13.92967 -0.5674,-6.69218 -0.325,-15.45812 0.2782,-26.14359 0.6004,-10.68547 1.5562,-23.28496 2.4486,-37.41842 0.8924,-14.13621 1.716,-29.80364 2.1704,-46.44047 0.4518,-16.63684 0.5316,-34.24032 0.091,-52.13021 -0.4407,-17.8899 -1.3964,-36.06346 -2.8259,-53.8129 -1.4268,-17.75221 -3.3246,-35.07479 -5.4619,-51.32331 -2.1402,-16.24852 -4.5144,-31.42023 -6.751,-45.00289 -2.2365,-13.58266 -4.3298,-25.57352 -5.8227,-35.666882 -1.4956,-10.09336 -2.3853,-18.28372 -2.2062,-24.49396 0.179,-6.207486 1.4267,-10.434855 4.1343,-12.822562 2.7075,-2.39046 6.8748,-2.941257 12.7389,-1.991132 5.8613,0.950125 13.4247,3.395665 22.7179,6.879458 9.296,3.48104 20.3217,7.994824 32.8953,13.023603 12.5709,5.031534 26.6842,10.572553 41.9406,16.146623 15.2564,5.574072 31.6476,11.172922 48.6034,16.430282 16.9586,5.25461 34.4763,10.16222 51.8756,14.51076 17.4021,4.34854 34.6829,8.13803 51.1512,11.34642 16.4656,3.21115 32.1131,5.84396 46.32,8.06368 z"
     id="path4386" />
  <path
     style="fill:none;stroke:url(#radialGradient5978);stroke-width:0.999999"
     d="m -2910.6575,221.82826 c 14.3491,-7.74318 26.7505,-17.81837 36.4241,-29.33347 9.6736,-11.5151 16.6165,-24.46009 20.4501,-37.71629 3.835,-13.25621 4.5607,-26.81072 2.2588,-39.49038 -2.3004,-12.67966 -7.6227,-24.472992 -15.4404,-34.33017 -7.8178,-9.855743 -18.1224,-17.765293 -30.0233,-22.961357 -11.8995,-5.196065 -25.3852,-7.672909 -39.3341,-7.066247 -13.9503,0.605227 -28.3525,4.296829 -42.0332,10.978713 -13.6793,6.683318 -26.6243,16.352617 -37.7808,28.472944 -11.1566,12.120327 -20.5161,26.681647 -27.3084,42.783277 -6.7909,16.10163 -11.0103,33.73354 -12.2867,51.76416 -1.2764,18.03063 0.3901,36.44992 4.9121,54.07036 4.522,17.62044 11.8952,34.432 21.586,49.3705 9.6922,14.93851 21.6935,27.99536 35.1118,38.3918 13.4168,10.39643 28.2377,18.1267 43.3412,22.81363 15.1034,4.68693 30.4765,6.32764 44.9403,5.00532 14.4638,-1.32232 28.0068,-5.60481 39.575,-12.32398 11.5681,-6.71774 21.1514,-15.86356 27.9795,-26.54827 6.8282,-10.68613 10.8941,-22.89825 11.8321,-35.52341 0.938,-12.62373 -1.2564,-25.64759 -6.4897,-37.89843 -5.2348,-12.25084 -13.5058,-23.71718 -24.2808,-33.34775 -10.7736,-9.63203 -24.0428,-17.41824 -38.9081,-22.59422 -14.8639,-5.17599 -31.3141,-7.73745 -48.2232,-7.3158 -16.9091,0.42022 -34.2642,3.82355 -50.8836,10.11533 -16.6193,6.29322 -32.4901,15.4706 -46.5509,26.99862 -14.0622,11.52657 -26.3058,25.39517 -35.955,40.70513 -9.6493,15.30997 -16.6969,32.04981 -20.7685,49.09228 -4.0717,17.04246 -5.166,34.37606 -3.3646,50.8176 1.8013,16.44153 6.4954,31.9781 13.5545,45.55126 7.0591,13.57459 16.4774,25.17574 27.3629,34.02755 10.8869,8.85325 23.2309,14.95142 35.9149,17.92162 12.6854,2.97164 25.6992,2.81388 37.8697,-0.38723 12.1706,-3.20111 23.4863,-9.44269 32.896,-18.19411 9.4098,-8.75142 16.9048,-20.00693 21.7208,-32.86873 4.816,-12.86324 6.9472,-27.32273 6.0279,-42.2598 -0.9193,-14.93564 -4.8891,-30.33596 -11.8148,-45.02205 -6.9257,-14.68465 -16.8059,-28.64504 -29.0983,-40.8213 -12.2939,-12.1777 -26.9928,-22.56266 -43.1977,-30.38472 -16.2035,-7.82063 -33.9014,-13.07263 -51.9635,-15.38454 -18.0622,-2.31048 -36.4758,-1.67944 -54.056,1.80851 -17.5789,3.48795 -34.313,9.82849 -49.1396,18.49099 -14.8267,8.6625 -27.7358,19.63978 -37.9487,32.03834 -10.2128,12.39856 -17.7237,26.20836 -22.1567,40.30787 -4.4346,14.10094 -5.787,28.47868 -4.142,41.95861 1.6436,13.48138 6.2832,26.05204 13.3925,36.66073 7.1078,10.61013 16.6767,19.24825 27.8161,25.14563 11.1407,5.89882 23.8405,9.0526 36.9834,9.09419 13.1429,0.0416 26.716,-3.02901 39.5463,-9.12144 12.8302,-6.09243 24.9047,-15.20097 35.1735,-26.79064 10.2673,-11.58968 18.719,-25.6519 24.5877,-41.28599 5.8687,-15.63409 9.1472,-32.83001 9.4713,-50.45905 0.3227,-17.62905 -2.3119,-35.67831 -7.812,-52.96315 -5.5015,-17.28484 -13.8643,-33.79522 -24.5561,-48.46697 -10.6905,-14.67176 -23.7029,-27.49627 -38.1365,-37.69622 -14.4323,-10.19995 -30.2772,-17.76816 -46.4075,-22.32745 -16.1303,-4.56072 -32.5346,-6.11251 -48.0324,-4.73569 -15.4979,1.37826 -30.0764,5.67939 -42.6786,12.38135 -12.6022,6.70053 -23.2195,15.79472 -31.0789,26.3905 -7.8593,10.59722 -12.9535,22.68457 -14.9141,35.15055 -1.9591,12.46453 -0.7831,25.29334 3.4421,37.31328 4.2251,12.02137 11.4964,23.22094 21.279,32.55321 9.7841,9.33083 22.0722,16.78431 35.9695,21.59314 13.8987,4.80884 29.3937,6.96872 45.3634,6.11395 15.9682,-0.85478 32.3997,-4.72279 48.1112,-11.51367 15.7116,-6.78945 30.6917,-16.49747 43.8819,-28.58338 13.1917,-12.0859 24.5834,-26.54396 33.4023,-42.47205 8.8188,-15.9281 15.0589,-33.31478 18.3461,-51.03131 3.2857,-17.71654 3.6184,-35.75146 1.0799,-52.92012 -2.5385,-17.16724 -7.9425,-33.456751 -15.6871,-47.807242 -7.7432,-14.35049 -17.8184,-26.750483 -29.3349,-36.424085 -11.5151,-9.675035 -24.4587,-16.616508 -37.7149,-20.451528 -13.2562,-3.833586 -26.8107,-4.559285 -39.4903,-2.258847 -12.6811,2.300439 -24.4745,7.624146 -34.3302,15.441908 -9.8558,7.817761 -17.7653,18.122406 -22.9614,30.023302 -5.196,11.899462 -7.6729,25.383702 -7.0677,39.334052 0.6067,13.95035 4.2983,28.35247 10.9802,42.03176 6.6819,13.68072 16.3526,26.62571 28.4729,37.78226 12.1204,11.15655 26.6817,20.51607 42.7833,27.3084 16.1017,6.79088 33.7336,11.01027 51.7642,12.28669 18.0306,1.27643 36.4499,-0.39153 54.0703,-4.91209 17.6204,-4.522 34.432,-11.89517 49.3705,-21.58599 14.9385,-9.69224 27.9954,-21.69497 38.3918,-35.1118 10.3964,-13.41684 18.1267,-28.23917 22.8136,-43.34261 4.687,-15.102 6.3277,-30.47507 5.0054,-44.938861 -1.3224,-14.465225 -5.6048,-28.008267 -12.324,-39.576431 -6.7178,-11.568165 -15.865,-21.149978 -26.5497,-27.9781524 -10.6847,-6.82817 -22.8968,-10.89553 -35.522,-11.83205 -12.6252,-0.93796 -25.649,1.25491 -37.8999,6.48970004 -12.2508,5.23478996 -23.7157,13.50575336 -33.3477,24.27937736 -9.6306,10.775059 -17.4168,24.044171 -22.5928,38.9081 -5.1774,14.865364 -7.7374,31.315506 -7.3172,48.224587 0.4216,16.90908 3.8235,34.26419 10.1168,50.88357 6.2917,16.61794 15.4706,32.48867 26.9986,46.55091 11.5265,14.06222 25.3951,26.30588 40.7051,35.9551 15.3085,9.64779 32.0484,16.69683 49.0908,20.76849 17.0439,4.07166 34.3775,5.16594 50.8176,3.3646 16.4416,-1.80134 31.9796,-6.49544 45.5527,-13.55451 13.5746,-7.05908 25.1743,-16.47739 34.0276,-27.36288 8.8518,-10.88693 14.95,-23.231 17.9216,-35.9164 2.9716,-12.68397 2.8139,-25.69923 -0.3872,-37.86975 -3.2026,-12.16909 -9.4442,-23.48483 -18.1956,-32.89454 -8.7514,-9.40972 -20.0055,-16.90622 -32.8673,-21.722223 -12.8632,-4.816005 -27.3241,-6.945775 -42.2598,-6.02646 -14.9371,0.919315 -30.3359,4.887714 -45.022,11.814843 -14.6861,6.9257 -28.6451,16.80439 -40.8213,29.09825 -12.1777,12.29243 -22.5627,26.99286 -30.3848,43.19776 -7.822,16.20346 -13.074,33.90136 -15.3845,51.96353 -2.3105,18.06073 -1.6794,36.47572 1.8085,54.05456 3.4865,17.58029 9.8271,34.3144 18.4896,49.14104 8.6625,14.82664 19.6412,27.73434 32.0397,37.94863 12.3986,10.21285 26.2084,17.7237 40.3079,22.15677 14.0995,4.43308 28.4787,5.78695 41.9586,4.14194 13.48,-1.64501 26.0521,-6.28461 36.6608,-13.39245 10.6101,-7.10784 19.2468,-16.67675 25.1456,-27.81752 5.8988,-11.13934 9.0512,-23.83908 9.0942,-36.98199 0.042,-13.1429 -3.0305,-26.71749 -9.1215,-39.54631 -6.0924,-12.83025 -15.2009,-24.90468 -26.7906,-35.17347 -11.5897,-10.26736 -25.6519,-18.72047 -41.2874,-24.58916 -15.6341,-5.86727 -32.83,-9.14726 -50.4576,-9.46995 -17.6291,-0.32269 -35.6784,2.31191 -52.9632,7.81202 -17.2863,5.50012 -33.7952,13.8643 -48.4669,24.55618 -14.6718,10.69044 -27.4963,23.70283 -37.6962,38.13507 -10.2,14.43367 -17.7682,30.27859 -22.3289,46.40891 -4.5607,16.13031 -6.1111,32.53456 -4.7343,48.0324 1.3768,15.49641 5.6794,30.07494 12.3814,42.67859 6.7005,12.60221 15.7947,23.21951 26.3905,31.07886 10.5958,7.85935 22.6845,12.95359 35.1491,14.91413 12.4645,1.9591 25.2933,0.78306 37.3146,-3.44206 12.02,-4.22512 23.221,-11.49645 32.5518,-21.27905 9.3323,-9.78403 16.7843,-22.0736 21.5946,-35.97088 4.8088,-13.89729 6.9673,-29.39226 6.1139,-45.36195 -0.8547,-15.96826 -4.7242,-32.39975 -11.5136,-48.11129 -6.7895,-15.71153 -16.4975,-30.69163 -28.5834,-43.8833 -12.0873,-13.19023 -26.5454,-24.58342 -42.4721,-33.40225 -15.928,-8.81882 -33.3147,-15.05754 -51.0312,-18.3447 -17.7166,-3.28573 -35.7515,-3.61846 -52.9201,-1.07995 -17.1687,2.53708 -33.4582,7.94254 -47.8073,15.68716 -14.3505,7.74318 -26.7505,17.81835 -36.4255,29.33345 -9.6736,11.5151 -16.6151,24.46009 -20.4501,37.71629 -3.8336,13.25621 -4.5593,26.81072 -2.2588,39.49038 2.3004,12.67966 7.6241,24.473 15.4419,34.33017 7.8177,9.85575 18.1224,17.7653 30.0218,22.96136 11.9009,5.19607 25.3852,7.67291 39.3355,7.06625 13.9489,-0.60523 28.3525,-4.29683 42.0318,-10.97871 13.6793,-6.68332 26.6243,-16.35262 37.7822,-28.47295 11.1566,-12.12033 20.5161,-26.68164 27.307,-42.78328 6.7923,-16.10163 11.0103,-33.73354 12.2867,-51.76416 1.2764,-18.03062 -0.3901,-36.4499 -4.9121,-54.07034 -4.5206,-17.62046 -11.8937,-34.43202 -21.586,-49.37052 -9.6908,-14.93851 -21.6935,-27.99536 -35.1103,-38.39179 -13.4169,-10.39643 -28.2392,-18.12671 -43.3427,-22.81364 -15.1034,-4.686925 -30.4765,-6.327637 -44.9403,-5.005315 -14.4637,1.322322 -28.0068,5.604805 -39.575,12.323985 -11.5681,6.71773 -21.1514,15.86356 -27.9795,26.54969 -6.8268,10.6847 -10.8941,22.89682 -11.8321,35.52198 -0.9365,12.62373 1.2564,25.64759 6.4911,37.89845 5.2334,12.25084 13.5058,23.71717 24.2794,33.34775 10.7736,9.63201 24.0428,17.41822 38.9081,22.5942 14.8654,5.17742 31.3155,7.73745 48.2246,7.3158 16.9091,-0.42022 34.2642,-3.82355 50.8821,-10.11533 16.6194,-6.29322 32.4902,-15.47059 46.5524,-26.9986 14.0622,-11.52657 26.3058,-25.39518 35.9536,-40.70515 9.6492,-15.30997 16.6968,-32.04981 20.7685,-49.09228 4.0731,-17.04245 5.166,-34.37606 3.3646,-50.817593 -1.8013,-16.441537 -6.494,-31.978101 -13.5545,-45.551261 -7.0591,-13.574594 -16.476,-25.175745 -27.3629,-34.027557 -10.8855,-8.8518134 -23.2295,-14.95141336 -35.9149,-17.9216234 -12.6854,-2.97164 -25.6992,-2.81387 -37.8698,0.38723 -12.1705,3.20111004 -23.4848,9.4427 -32.8945,18.1941204 -9.4112,8.752852 -16.9062,20.00693 -21.7222,32.868732 -4.816,12.863237 -6.9458,27.322725 -6.0265,42.259798 0.9179,14.935634 4.8877,30.335954 11.8134,45.022044 6.9272,14.68465 16.8058,28.64504 29.0997,40.82131 12.2924,12.17769 26.9929,22.56265 43.1963,30.38472 16.2049,7.82207 33.9028,13.07264 51.9635,15.38455 18.0622,2.31048 36.4757,1.67943 54.056,-1.80851 17.5803,-3.48795 34.3144,-9.8285 49.1411,-18.49101 14.8252,-8.6625 27.7343,-19.63978 37.9472,-32.03834 10.2128,-12.39856 17.7251,-26.20836 22.1582,-40.30786 4.4331,-14.10094 5.7869,-28.47868 4.1419,-41.958621 -1.645,-13.481372 -6.2846,-26.052034 -13.3924,-36.660726 -7.1079,-10.610127 -16.6768,-19.248244 -27.8176,-25.145627 -11.1393,-5.898817 -23.8405,-9.052598 -36.9834,-9.094189 -13.1429,-0.04159 -26.7161,3.029006 -39.5463,9.121438 -12.8288,6.092433 -24.9047,15.200964 -35.172,26.790642 -10.2688,11.589677 -18.7205,25.651895 -24.5892,41.285984 -5.8687,15.634089 -9.1472,32.830009 -9.4699,50.459049 -0.3227,17.62905 2.3105,35.67831 7.812,52.96315 5.5001,17.28485 13.8643,33.79523 24.5547,48.46698 10.6919,14.67175 23.7028,27.49626 38.1365,37.69621 14.4337,10.19995 30.2772,17.76816 46.4075,22.32745 16.1303,4.56072 32.536,6.11251 48.0324,4.73569 15.4979,-1.37682 30.0764,-5.67939 42.6786,-12.38135 12.6036,-6.70053 23.2209,-15.79472 31.0803,-26.3905 7.8579,-10.59722 12.9536,-22.68456 14.9127,-35.15053 1.9605,-12.46453 0.7845,-25.29335 -3.4406,-37.3133 -4.2266,-12.02137 -11.4965,-23.22094 -21.2805,-32.55321 -9.7826,-9.33083 -22.0722,-16.78431 -35.9695,-21.59314 -13.8973,-4.80884 -29.3922,-6.96872 -45.3619,-6.11395 -15.9697,0.85478 -32.3998,4.72279 -48.1113,11.51367 -15.7116,6.78945 -30.6917,16.49747 -43.8833,28.58338 -13.1917,12.0859 -24.5834,26.54396 -33.4023,42.47207 -8.8188,15.9281 -15.0575,33.31476 -18.3446,51.03129 -3.2872,17.71654 -3.6185,35.75146 -1.0814,52.92013 2.5385,17.16723 7.9439,33.45675 15.6871,47.80724 7.7446,14.35049 17.8198,26.75048 29.3349,36.42408 11.5151,9.67504 24.4601,16.61651 37.7163,20.45153 13.2548,3.83358 26.8107,4.55928 39.4904,2.25885 12.6796,-2.30044 24.473,-7.62415 34.3287,-15.44191 9.8558,-7.81776 17.7653,-18.12241 22.9614,-30.0233 5.196,-11.89947 7.6743,-25.38371 7.0677,-39.33406 -0.6067,-13.95035 -4.2969,-28.35247 -10.9802,-42.03176 -6.6819,-13.68072 -16.3526,-26.62571 -28.4715,-37.78226 -12.1203,-11.15655 -26.6831,-20.51607 -42.7847,-27.30839 -16.1017,-6.79088 -33.7321,-11.01026 -51.7628,-12.28669 -18.032,-1.27643 -36.4499,0.39154 -54.0717,4.9121 -17.6205,4.52199 -34.4306,11.89516 -49.3705,21.58597 -14.9385,9.69224 -27.9954,21.69497 -38.3918,35.1118 -10.3964,13.41684 -18.1267,28.23917 -22.8122,43.34261 -4.6869,15.10201 -6.3291,30.47507 -5.0068,44.93886 1.3224,14.46523 5.6063,28.00827 12.324,39.57644 6.7192,11.56816 15.865,21.14997 26.5497,27.97815 10.6847,6.82817 22.8983,10.89553 35.522,11.83205 12.6252,0.93796 25.649,-1.25491 37.8999,-6.4897 12.2508,-5.23336 23.7171,-13.50576 33.3477,-24.27938 9.6306,-10.77506 17.4182,-24.04417 22.5942,-38.9081 5.176,-14.86536 7.736,-31.3155 7.3158,-48.22459 -0.4202,-16.90908 -3.8236,-34.26419 -10.1153,-50.88357 -6.2933,-16.61794 -15.4721,-32.48867 -26.9986,-46.55089 -11.528,-14.06222 -25.3966,-26.30589 -40.7052,-35.95512 -15.3099,-9.64779 -32.0498,-16.69683 -49.0922,-20.76849 -17.0425,-4.07166 -34.3761,-5.16594 -50.8176,-3.3646 -16.4416,1.80134 -31.9781,6.49544 -45.5527,13.55451 -13.5732,7.05908 -25.1743,16.47741 -34.0261,27.3629 -8.8533,10.88693 -14.9515,23.23099 -17.9231,35.91638 -2.9702,12.68397 -2.8124,25.69923 0.3887,37.86975 3.2011,12.16909 9.4427,23.48484 18.1941,32.89455 8.7514,9.40971 20.0055,16.90621 32.8687,21.72222 12.8618,4.816 27.3227,6.94577 42.2598,6.02646 14.9357,-0.91932 30.336,-4.88772 45.0221,-11.81485 14.6846,-6.92569 28.6436,-16.80438 40.8213,-29.09825 12.1777,-12.29243 22.5626,-26.99286 30.3847,-43.19776 7.8206,-16.20346 13.0726,-33.90134 15.3831,-51.96351 2.3119,-18.06075 1.6794,-36.47574 -1.8071,-54.05458 -3.4879,-17.58029 -9.8285,-34.31439 -18.491,-49.14103 -8.6625,-14.82665 -19.6398,-27.734342 -32.0383,-37.948632 -12.3986,-10.212856 -26.2084,-17.723702 -40.3093,-22.156778 -14.0995,-4.433077 -28.4773,-5.786951 -41.9586,-4.141937 -13.48,1.645015 -26.0506,6.284614 -36.6608,13.392453 -10.6087,7.107838 -19.2468,16.676743 -25.1456,27.81752 -5.8988,11.139344 -9.0512,23.839084 -9.0927,36.981984 -0.042,13.1429 3.029,26.71749 9.1214,39.54631 6.091,12.83025 15.201,24.90468 26.7906,35.17348 11.5897,10.26736 25.6519,18.72047 41.286,24.58917 15.6341,5.86727 32.83,9.14725 50.4591,9.46995 17.6276,0.32269 35.6768,-2.31191 52.9631,-7.81203 17.2849,-5.50011 33.7952,-13.8643 48.467,-24.55617 14.6717,-10.69046 27.4962,-23.70285 37.6962,-38.13509 10.1985,-14.43367 17.7667,-30.27859 22.3274,-46.4089 4.5607,-16.13032 6.1125,-32.534569 4.7343,-48.03241 -1.3768,-15.496406 -5.678,-30.074932 -12.3799,-42.678581 -6.702,-12.602214 -15.7948,-23.2195124 -26.392,-31.0788634 -10.5958,-7.85936 -22.6845,-12.9535896 -35.1491,-14.9141296 -12.4645,-1.9591 -25.2933,-0.78307 -37.3132,3.4420496 -12.0214,4.22512 -23.2224,11.49646 -32.5532,21.2790594 -9.3309,9.784034 -16.7843,22.073595 -21.5932,35.970882 -4.8088,13.897286 -6.9687,29.392259 -6.1139,45.361948 0.8533,15.968255 4.7228,32.399755 11.5122,48.111285 6.7909,15.71153 16.4975,30.69163 28.5848,43.8833 12.0859,13.19023 26.544,24.58344 42.4721,33.40226 15.9266,8.81883 33.3133,15.05755 51.0298,18.34471 17.718,3.28572 35.7529,3.61846 52.9201,1.07994 17.1687,-2.53708 33.4582,-7.94253 47.8087,-15.68715 z"
     id="path5436" />
  <path
     style="fill:none;stroke:url(#radialGradient6320);stroke-width:5;stroke-miterlimit:4;stroke-dasharray:none"
     d="m -1064.8835,357.41748 c 43.041,0 86.01218,-7.64143 122.79348,-21.47171 36.78131,-13.8344 67.25774,-33.78771 87.22052,-56.02891 19.96274,-22.24121 29.35433,-46.6551 27.17597,-68.40251 -2.18246,-21.7433 -15.91021,-40.70079 -38.73769,-52.78223 -22.82753,-12.07732 -54.65618,-17.20041 -90.4346,-13.55047 -35.7785,3.64583 -75.37528,16.08116 -112.80598,36.06326 -37.4348,19.98623 -72.5762,47.46986 -100.451,78.46352 -27.8747,30.99367 -48.4047,65.39038 -59.1649,97.70905 -10.7603,32.31867 -11.7426,62.43174 -3.7525,85.1832 7.9941,22.74734 24.899,38.0302 47.1141,42.78294 22.2151,4.74863 49.6295,-1.07399 77.1713,-17.33209 27.5418,-16.25809 55.0919,-42.91873 77.9194,-76.54184 22.8275,-33.62722 40.83798,-74.12226 51.25298,-115.7736 10.415,-41.64722 13.2058,-84.32318 8.4627,-121.79786 -4.7472,-37.47468 -16.9829,-69.632874 -33.88368,-91.709474 -16.9007,-22.076612 -38.3596,-34.005799 -59.8801,-34.005799 -21.5205,0 -42.9835,11.929187 -59.8801,34.005799 -16.9008,22.0766 -29.1407,54.234794 -33.8837,91.709474 -4.7472,37.47468 -1.9523,80.15064 8.4627,121.79786 10.415,41.65134 28.4255,82.14638 51.253,115.7736 22.8234,33.62311 50.3775,60.28375 77.9193,76.54184 27.54188,16.2581 54.95208,22.08072 77.16728,17.33209 22.21509,-4.75274 39.12406,-20.0356 47.1141,-42.78294 7.99416,-22.75146 7.01184,-52.86453 -3.74841,-85.1832 -10.76026,-32.31867 -31.29019,-66.71538 -59.16499,-97.70905 -27.8747,-30.99366 -63.02018,-58.47729 -100.45088,-78.46352 -37.4308,-19.9821 -77.0275,-32.41743 -112.806,-36.06326 -35.7784,-3.64994 -67.6112,1.47315 -90.4346,13.55047 -22.8275,12.08144 -36.5594,31.03893 -38.7378,52.78223 -2.1824,21.74741 7.2133,46.1613 27.1761,68.40251 19.9586,22.2412 50.4351,42.19451 87.2164,56.02891 36.7813,13.83028 79.7566,21.47171 122.7976,21.47171 z"
     id="path6308" />
  <path
     style="fill:none;fill-opacity:1;stroke:url(#radialGradient6986);stroke-width:10;stroke-miterlimit:4;stroke-dasharray:none;stroke-opacity:1"
     d="m -1730.7977,518.56199 c 68.6098,0 128.0922,-60.9996 128.5033,-115.257 0.412,-54.2575 -52.6121,-84.405 -80.3652,-64.2357 -27.7532,20.1694 -15.4753,79.932 36.236,96.3084 51.712,16.3681 128.0898,-21.3655 149.2912,-86.6415 21.2014,-65.2678 -18.4145,-140.7104 -69.8719,-157.865 -51.4573,-17.1628 -96.5054,23.9706 -85.9047,56.6086 10.6007,32.6298 71.2133,39.4212 102.7607,-4.7188 31.5483,-44.1317 19.2703,-128.46295 -36.236,-168.801678 -55.5063,-40.33873 -139.4726,-25.9613 -171.6867,17.68711 -32.2141,43.656568 -7.0316,99.224768 27.2733,99.224768 34.3049,0 59.4881,-55.5682 27.274,-99.224768 -32.214,-43.64841 -116.1803,-58.02584 -171.6858,-17.68711 -55.5096,40.338728 -67.786,124.669978 -36.2393,168.801678 31.5466,44.14 92.1625,37.3486 102.7632,4.7188 10.6007,-32.638 -34.445,-73.7714 -85.9089,-56.6086 -51.4557,17.1546 -91.0692,92.5972 -69.8661,157.865 21.2031,65.276 97.58,103.0096 149.2888,86.6415 51.712,-16.3764 63.99,-76.139 36.2368,-96.3084 -27.7532,-20.1693 -80.7797,9.9782 -80.362,64.2357 0.4095,54.2574 59.8895,115.257 128.4993,115.257 z"
     id="path6974" />
  <path
     style="fill:#b7002c;fill-opacity:1;stroke:#ffffff;stroke-width:10;stroke-miterlimit:4;stroke-dasharray:none;stroke-opacity:1"
     d="m -399.04039,284.42295 c 47.81574,0 95.29022,14.42633 129.71313,37.68438 34.42531,23.26045 55.36647,54.82871 58.94478,82.0424 3.57591,27.21129 -10.08367,49.40232 -33.56258,56.19613 -23.47649,6.79381 -56.18114,-2.13403 -85.05034,-27.0719 -28.8716,-24.93547 -53.27572,-65.62864 -64.16445,-111.71937 -10.88633,-46.09313 -8.04579,-96.93255 6.94274,-138.64805 14.99093,-41.71524 41.76937,-73.72834 69.32644,-88.323857 27.55948,-14.59575 55.22709,-11.68597 70.7323,5.036359 15.50281,16.722098 18.34815,46.795108 4.16949,78.069938 -14.17866,31.27461 -45.33807,63.07527 -86.42495,83.78593 -41.08688,20.70827 -91.5485,29.92689 -137.63876,25.05323 -46.09267,-4.87366 -87.15551,-23.67139 -112.33826,-48.15507 -25.18034,-24.48367 -34.18739,-54.04048 -26.58138,-75.74005 7.6036,-21.69934 31.5343,-34.93153 61.7733,-31.7264 30.2366,3.20537 66.12303,23.01244 94.62695,56.30475 28.50391,33.2916 49.07499,79.66831 55.17422,126.79722 6.10163,47.1313 -2.31185,94.33471 -20.59992,128.63299 -18.28566,34.29829 -45.95568,55.22284 -70.72989,58.20279 -24.77421,2.97996 -45.98452,-11.90058 -52.89602,-37.75887 -6.9115,-25.8607 0.8363,-62.1272 24.30559,-95.63484 23.47169,-33.50764 62.451,-63.61236 107.17626,-80.47072 44.72527,-16.85836 94.56207,-20.22042 135.6153,-10.64372 41.05323,9.57911 72.72692,31.77014 86.72535,56.19854 13.99842,24.42839 10.19181,50.43088 -8.37983,65.61181 -18.56924,15.17853 -51.46855,19.01883 -86.70132,6.43574 -35.23277,-12.58309 -72.11892,-41.58475 -98.4648,-80.69903 -26.34587,-39.11427 -41.71891,-87.81486 -42.51435,-132.60451 -0.79305,-44.78844 12.86653,-84.99425 33.56257,-109.363767 20.69364,-24.36952 47.83256,-32.574 68.62232,-23.49235 20.79217,9.08164 34.60795,35.20092 32.91372,68.709037 -1.69663,33.50812 -19.10995,73.76079 -49.95695,107.39629 -30.8446,33.63741 -74.75279,60.08448 -119.889,71.89615 -45.1338,11.81166 -90.81553,8.9014 -123.89507,-5.03708 -33.07953,-13.93849 -53.05943,-38.44619 -54.73444,-61.64176 -1.6774,-23.19556 14.90923,-44.40778 43.41314,-52.53392 28.50152,-8.12614 68.3748,-2.77135 106.39043,17.95782 38.01324,20.72894 73.51036,56.66139 95.90543,98.71957 22.39748,42.06059 31.40454,89.62927 26.58379,128.90697 -4.82074,39.27528 -23.18572,69.63955 -45.34288,82.28993 -22.15956,12.65038 -47.45766,7.41624 -63.37862,-13.29203 -15.92095,-20.71066 -21.91925,-56.49652 -12.16481,-95.54832 9.75684,-39.05179 35.30247,-80.68941 71.16487,-112.20481 35.8624,-31.51299 81.54653,-52.43754 123.89507,-58.20279 42.35094,-5.76284 80.69581,3.54951 103.46097,21.33069 22.76757,17.78118 29.59255,43.45924 18.70622,64.38619 -10.88873,20.92455 -39.2797,36.45395 -75.92553,37.45848 -36.64583,1.00213 -80.9169,-12.76813 -119.18727,-39.92174 -38.27037,-27.15362 -69.94406,-67.35894 -86.72535,-109.36425 -16.78129,-42.00484 -18.5404,-85.14012 -8.0506,-116.175597 10.49221,-31.03548 32.80318,-49.44774 55.45299,-49.44774 22.64981,-2.4e-4 44.96078,18.41226 55.45299,49.44774 10.4898,31.035477 8.73069,74.170757 -8.0506,116.175597 -16.78129,42.00531 -48.45497,82.21063 -86.72535,109.36425 -38.27037,27.15361 -82.54143,40.92387 -119.18727,39.92174 -36.64583,-1.00453 -65.0368,-16.53393 -75.92553,-37.45848 -10.88633,-20.92695 -4.06134,-46.60501 18.70622,-64.38619 22.76516,-17.78118 61.11003,-27.09353 103.45857,-21.33069 42.35094,5.76525 88.03507,26.6898 123.89747,58.20279 35.86241,31.5154 61.40803,73.15302 71.16247,112.20481 9.75684,39.0518 3.75854,74.83766 -12.16241,95.54832 -15.92096,20.70827 -41.21905,25.94241 -63.37862,13.29203 -22.15716,-12.65038 -40.52213,-43.01465 -45.34288,-82.28993 -4.82074,-39.2777 4.18631,-86.84638 26.58139,-128.90697 22.39748,-42.05818 57.8946,-77.99063 95.90783,-98.71957 38.01323,-20.72917 77.88651,-26.08396 106.39043,-17.95782 28.50391,8.12614 45.09055,29.33836 43.41314,52.53392 -1.67501,23.19557 -21.6549,47.70327 -54.73444,61.64176 -33.07954,13.93848 -78.76127,16.84874 -123.89507,5.03708 -45.13621,-11.81167 -89.0444,-38.25874 -119.8914,-71.89615 -30.8446,-33.6355 -48.25792,-73.88817 -49.95455,-107.39629 -1.69423,-33.508117 12.12156,-59.627397 32.91372,-68.709037 20.78976,-9.08165 47.92868,-0.87717 68.62232,23.49235 20.69604,24.369517 34.35562,64.575327 33.56017,109.363767 -0.79304,44.78965 -16.16608,93.49024 -42.51195,132.60451 -26.34588,39.11428 -63.23203,68.11594 -98.4648,80.69903 -35.23277,12.58309 -68.13207,8.74279 -86.70372,-6.43574 -18.56924,-15.18093 -22.37585,-41.18342 -8.37742,-65.61181 13.99842,-24.4284 45.67211,-46.61943 86.72534,-56.19854 41.05324,-9.5767 90.89003,-6.21464 135.6153,10.64372 44.72526,16.85836 83.70457,46.96308 107.17626,80.47072 23.46929,33.50764 31.21709,69.77414 24.30559,95.63484 -6.9115,25.85829 -28.12181,40.73883 -52.89602,37.75887 -24.77421,-2.97995 -52.44423,-23.9045 -70.7323,-58.20279 -18.28566,-34.29828 -26.69914,-81.50169 -20.59991,-128.63299 6.10163,-47.12891 26.67271,-93.50562 55.17662,-126.79722 28.50152,-33.29231 64.39035,-53.09938 94.62695,-56.30475 30.2366,-3.20513 54.1697,10.02706 61.7733,31.7264 7.60602,21.69957 -1.40104,51.25638 -26.58138,75.74005 -25.18275,24.48368 -66.24559,43.28141 -112.33826,48.15507 -46.09267,4.87366 -96.55428,-4.34496 -137.63876,-25.05323 -41.08687,-20.71066 -72.24629,-52.51132 -86.42495,-83.78593 -14.18106,-31.27483 -11.33331,-61.34784 4.16949,-78.069938 15.50521,-16.722329 43.17282,-19.632109 70.7323,-5.036359 27.55707,14.595517 54.33551,46.608617 69.32644,88.323857 14.98853,41.7155 17.82907,92.55492 6.94274,138.64805 -10.88873,46.09073 -35.29285,86.7839 -64.16445,111.71937 -28.8692,24.93787 -61.57384,33.86571 -85.05275,27.0719 -23.4765,-6.79381 -37.13848,-28.98484 -33.56017,-56.19613 3.57831,-27.21369 24.51947,-58.78195 58.94238,-82.0424 34.42531,-23.25805 81.8998,-37.68438 129.71553,-37.68438 z"
     id="path7628" />
  <path
     style="mix-blend-mode:normal;fill:url(#radialGradient7840);fill-opacity:1;stroke:#ffffff;stroke-width:30;stroke-miterlimit:4;stroke-dasharray:none;stroke-opacity:1"
     d="m 255.99928,490.19447 c 68.60981,0 128.09223,-60.9996 128.50335,-115.257 0.41194,-54.25755 -52.6121,-84.40505 -80.36527,-64.23575 -27.75316,20.1694 -15.47521,79.93205 36.23603,96.30845 51.71206,16.3681 128.08978,-21.3655 149.2912,-86.64155 21.20143,-65.2678 -18.41448,-140.7104 -69.87184,-157.865 -51.45735,-17.1628 -96.50547,23.9706 -85.90476,56.6086 10.60071,32.6298 71.21331,39.4212 102.76075,-4.7188 31.54826,-44.1317 19.2703,-128.462936 -36.23603,-168.801666 -55.50633,-40.3387303 -139.4726,-25.9613 -171.68669,17.68711 -32.21407,43.656556 -7.03165,99.224756 27.27326,99.224756 34.3049,0 59.48815,-55.5682 27.27407,-99.224756 C 251.05927,19.630454 167.093,5.2530237 111.58749,45.591754 56.077876,85.930484 43.801556,170.26172 75.348176,214.39342 c 31.546634,44.14 92.162504,37.3486 102.763214,4.7188 10.60072,-32.638 -34.44495,-73.7714 -85.908864,-56.6086 -51.45572,17.1546 -91.06921,92.5972 -69.8661,157.865 21.20306,65.27605 97.579964,103.00965 149.288744,86.64155 51.71205,-16.3764 63.99001,-76.13905 36.23684,-96.30845 -27.75316,-20.1693 -80.77966,9.9782 -80.36198,64.23575 0.40948,54.2574 59.88944,115.257 128.49925,115.257 z"
     id="path6974-6" />
</svg>
