<svg version="1.1" viewBox="0 0 512 512" xmlns="http://www.w3.org/2000/svg">
  <defs>
    <radialGradient id="gradient" cx="256" cy="256" r="256" gradientUnits="userSpaceOnUse">
      <stop stop-color="#00ccae" offset="0"/>
      <stop stop-color="#00a5a5" offset="1"/>
    </radialGradient>
  </defs>
  <path fill="url(#gradient)" stroke="#fff" stroke-width="30" d="m256 490.19c68.61 0 128.09-61 128.5-115.26 0.41194-54.258-52.612-84.405-80.365-64.236-27.753 20.169-15.475 79.932 36.236 96.308 51.712 16.368 128.09-21.366 149.29-86.642 21.201-65.268-18.414-140.71-69.872-157.86-51.457-17.163-96.505 23.971-85.905 56.609 10.601 32.63 71.213 39.421 102.76-4.7188 31.548-44.132 19.27-128.46-36.236-168.8-55.506-40.339-139.47-25.961-171.69 17.687-32.214 43.657-7.0316 99.225 27.273 99.225 34.305 0 59.488-55.568 27.274-99.225-32.214-43.648-116.18-58.026-171.69-17.687-55.51 40.339-67.786 124.67-36.239 168.8 31.547 44.14 92.163 37.349 102.76 4.7188 10.601-32.638-34.445-73.771-85.909-56.609-51.456 17.155-91.069 92.597-69.866 157.86 21.203 65.276 97.58 103.01 149.29 86.642 51.712-16.376 63.99-76.139 36.237-96.308-27.753-20.169-80.78 9.9782-80.362 64.236 0.40948 54.257 59.889 115.26 128.5 115.26z"/>
</svg>
