<?xml version="1.0" encoding="UTF-8" standalone="no"?>
<svg
   xmlns:dc="http://purl.org/dc/elements/1.1/"
   xmlns:cc="http://creativecommons.org/ns#"
   xmlns:rdf="http://www.w3.org/1999/02/22-rdf-syntax-ns#"
   xmlns:svg="http://www.w3.org/2000/svg"
   xmlns="http://www.w3.org/2000/svg"
   xmlns:sodipodi="http://sodipodi.sourceforge.net/DTD/sodipodi-0.dtd"
   xmlns:inkscape="http://www.inkscape.org/namespaces/inkscape"
   version="1.0"
   width="2.2in"
   height="0.69999999in"
   viewBox="1632 2146 2641 832"
   id="svg3001"
   sodipodi:version="0.32"
   inkscape:version="1.0.1 (3bc2e813f5, 2020-09-07)"
   sodipodi:docname="SelfE.svg"
   inkscape:output_extension="org.inkscape.output.svg.inkscape">
  <metadata
     id="metadata21">
    <rdf:RDF>
      <cc:Work
         rdf:about="">
        <dc:format>image/svg+xml</dc:format>
        <dc:type
           rdf:resource="http://purl.org/dc/dcmitype/StillImage" />
      </cc:Work>
    </rdf:RDF>
  </metadata>
  <sodipodi:namedview
     inkscape:window-height="1017"
     inkscape:window-width="1920"
     inkscape:pageshadow="2"
     inkscape:pageopacity="0.0"
     guidetolerance="10.0"
     gridtolerance="10.0"
     objecttolerance="10.0"
     borderopacity="1.0"
     bordercolor="#666666"
     pagecolor="#ffffff"
     id="base"
     inkscape:zoom="1.6565657"
     inkscape:cx="221.79232"
     inkscape:cy="-56.526632"
     inkscape:window-x="-8"
     inkscape:window-y="-8"
     inkscape:current-layer="svg3001"
     inkscape:document-rotation="0"
     showgrid="false"
     showguides="true"
     inkscape:guide-bbox="true"
     inkscape:snap-to-guides="true"
     inkscape:window-maximized="1">
    <sodipodi:guide
       position="1479.1987,1151.7318"
       orientation="-1,0"
       id="guide934"
       inkscape:label=""
       inkscape:locked="true"
       inkscape:color="rgb(0,0,255)" />
    <sodipodi:guide
       position="1479.1987,1151.7318"
       orientation="0,1"
       id="guide936"
       inkscape:label=""
       inkscape:locked="true"
       inkscape:color="rgb(0,0,255)" />
    <sodipodi:guide
       position="1729.2934,1151.7318"
       orientation="-1,0"
       id="guide938"
       inkscape:label=""
       inkscape:locked="true"
       inkscape:color="rgb(0,0,255)" />
    <sodipodi:guide
       position="1604.246,1151.7318"
       orientation="-1,0"
       id="guide940"
       inkscape:label=""
       inkscape:locked="false"
       inkscape:color="rgb(0,0,255)" />
    <sodipodi:guide
       position="1479.1987,1337.446"
       orientation="0,1"
       id="guide944"
       inkscape:label=""
       inkscape:locked="true"
       inkscape:color="rgb(0,0,255)" />
    <sodipodi:guide
       position="1854.3407,1151.7318"
       orientation="-1,0"
       id="guide970"
       inkscape:label=""
       inkscape:locked="true"
       inkscape:color="rgb(0,0,255)" />
    <sodipodi:guide
       position="1979.388,1151.7318"
       orientation="-1,0"
       id="guide1076"
       inkscape:label=""
       inkscape:locked="true"
       inkscape:color="rgb(0,0,255)" />
    <sodipodi:guide
       position="1479.1987,1244.5888"
       orientation="0,1"
       id="guide1214"
       inkscape:label=""
       inkscape:locked="true"
       inkscape:color="rgb(0,0,255)" />
    <sodipodi:guide
       position="4292.3388,1337.446"
       orientation="-1,0"
       id="guide1216"
       inkscape:label=""
       inkscape:locked="false"
       inkscape:color="rgb(0,0,255)" />
    <sodipodi:guide
       position="1416.675,1151.7318"
       orientation="-1,0"
       id="guide1218"
       inkscape:label=""
       inkscape:locked="false"
       inkscape:color="rgb(0,0,255)" />
  </sodipodi:namedview>
  <defs
     id="defs3016">
    <inkscape:path-effect
       effect="skeletal"
       id="path-effect1206"
       is_visible="true"
       lpeversion="1"
       pattern="#path948"
       copytype="single_stretched"
       prop_scale="1"
       scale_y_rel="false"
       spacing="0"
       normal_offset="0"
       tang_offset="0"
       prop_units="false"
       vertical_pattern="false"
       hide_knot="false"
       fuse_tolerance="0" />
    <inkscape:path-effect
       effect="skeletal"
       id="path-effect1130"
       is_visible="true"
       lpeversion="1"
       pattern="#path948"
       copytype="single"
       prop_scale="1"
       scale_y_rel="false"
       spacing="0"
       normal_offset="0"
       tang_offset="0"
       prop_units="false"
       vertical_pattern="false"
       hide_knot="false"
       fuse_tolerance="0" />
    <inkscape:path-effect
       effect="skeletal"
       id="path-effect1110"
       is_visible="true"
       lpeversion="1"
       pattern="#path948"
       copytype="single"
       prop_scale="1"
       scale_y_rel="false"
       spacing="0"
       normal_offset="0"
       tang_offset="0"
       prop_units="false"
       vertical_pattern="false"
       hide_knot="false"
       fuse_tolerance="0" />
    <inkscape:path-effect
       effect="interpolate_points"
       id="path-effect1106"
       is_visible="true"
       lpeversion="1"
       interpolator_type="CentripetalCatmullRom" />
    <inkscape:path-effect
       effect="interpolate_points"
       id="path-effect1102"
       is_visible="true"
       lpeversion="1"
       interpolator_type="CentripetalCatmullRom" />
    <inkscape:path-effect
       effect="interpolate_points"
       id="path-effect1098"
       is_visible="true"
       lpeversion="1"
       interpolator_type="CentripetalCatmullRom" />
    <inkscape:path-effect
       effect="skeletal"
       id="path-effect1088"
       is_visible="true"
       lpeversion="1"
       pattern="#path948"
       copytype="repeated"
       prop_scale="1"
       scale_y_rel="false"
       spacing="0"
       normal_offset="0"
       tang_offset="0"
       prop_units="false"
       vertical_pattern="false"
       hide_knot="false"
       fuse_tolerance="0" />
    <inkscape:path-effect
       effect="skeletal"
       id="path-effect1050"
       is_visible="true"
       lpeversion="1"
       pattern="#path948"
       copytype="repeated"
       prop_scale="1"
       scale_y_rel="false"
       spacing="0"
       normal_offset="0"
       tang_offset="0"
       prop_units="false"
       vertical_pattern="false"
       hide_knot="false"
       fuse_tolerance="0" />
    <inkscape:path-effect
       effect="skeletal"
       id="path-effect984"
       is_visible="true"
       lpeversion="1"
       pattern="M 0,0 H 1"
       copytype="repeated"
       prop_scale="1"
       scale_y_rel="false"
       spacing="0"
       normal_offset="0"
       tang_offset="0"
       prop_units="false"
       vertical_pattern="false"
       hide_knot="false"
       fuse_tolerance="0" />
    <inkscape:path-effect
       effect="skeletal"
       id="path-effect952"
       is_visible="true"
       lpeversion="1"
       pattern="#path948"
       copytype="repeated"
       prop_scale="1"
       scale_y_rel="false"
       spacing="0"
       normal_offset="0"
       tang_offset="0"
       prop_units="false"
       vertical_pattern="false"
       hide_knot="false"
       fuse_tolerance="0" />
    <inkscape:path-effect
       effect="interpolate_points"
       id="path-effect950"
       is_visible="true"
       lpeversion="1"
       interpolator_type="CentripetalCatmullRom" />
    <inkscape:path-effect
       effect="skeletal"
       id="path-effect916"
       is_visible="true"
       lpeversion="1"
       pattern="m 3400.0995,1710.825 c 24.0195,-22.2402 105.3242,-139.0319 144.1167,-133.4414 35.1842,5.0705 68.9448,115.6493 82.7338,138.7791"
       copytype="repeated"
       prop_scale="1"
       scale_y_rel="false"
       spacing="0"
       normal_offset="0"
       tang_offset="0"
       prop_units="false"
       vertical_pattern="false"
       hide_knot="false"
       fuse_tolerance="0" />
    <inkscape:path-effect
       effect="interpolate_points"
       id="path-effect910"
       is_visible="true"
       lpeversion="1"
       interpolator_type="CentripetalCatmullRom" />
    <inkscape:path-effect
       effect="skeletal"
       id="path-effect888"
       is_visible="true"
       lpeversion="1"
       pattern="M 0,0 H 1"
       copytype="single_stretched"
       prop_scale="1"
       scale_y_rel="false"
       spacing="0"
       normal_offset="0"
       tang_offset="0"
       prop_units="false"
       vertical_pattern="false"
       hide_knot="false"
       fuse_tolerance="0" />
    <inkscape:path-effect
       effect="interpolate_points"
       id="path-effect25"
       is_visible="true"
       lpeversion="1"
       interpolator_type="CentripetalCatmullRom" />
    <marker
       refX="0"
       refY="0"
       orient="auto"
       style="overflow:visible"
       id="Arrow2Lend">
      <path
         d="M 8.7185878,4.0337352 L -2.2072895,0.016013256 L 8.7185884,-4.0017078 C 6.97309,-1.6296469 6.9831476,1.6157441 8.7185878,4.0337352 z "
         transform="matrix(-1.1,0,0,-1.1,-1.1,0)"
         style="font-size:12px;fill-rule:evenodd;stroke-width:0.625;stroke-linejoin:round"
         id="path3159" />
    </marker>
    <marker
       refX="0"
       refY="0"
       orient="auto"
       style="overflow:visible"
       id="TriangleOutL">
      <path
         d="M 5.77,0 L -2.88,5 L -2.88,-5 L 5.77,0 z "
         transform="scale(0.8,0.8)"
         style="fill-rule:evenodd;stroke:#000000;stroke-width:1pt;marker-start:none"
         id="path3236" />
    </marker>
    <marker
       refX="0"
       refY="0"
       orient="auto"
       style="overflow:visible"
       id="Arrow2Lstart">
      <path
         d="M 8.7185878,4.0337352 L -2.2072895,0.016013256 L 8.7185884,-4.0017078 C 6.97309,-1.6296469 6.9831476,1.6157441 8.7185878,4.0337352 z "
         transform="matrix(1.1,0,0,1.1,1.1,0)"
         style="font-size:12px;fill-rule:evenodd;stroke-width:0.625;stroke-linejoin:round"
         id="path3156" />
    </marker>
    <marker
       refX="0"
       refY="0"
       orient="auto"
       style="overflow:visible"
       id="Arrow1Lstart">
      <path
         d="M 0,0 L 5,-5 L -12.5,0 L 5,5 L 0,0 z "
         transform="matrix(0.8,0,0,0.8,10,0)"
         style="fill-rule:evenodd;stroke:#000000;stroke-width:1pt;marker-start:none"
         id="path3138" />
    </marker>
    <marker
       refX="0"
       refY="0"
       orient="auto"
       style="overflow:visible"
       id="SquareL">
      <path
         d="M -5,-5 L -5,5 L 5,5 L 5,-5 L -5,-5 z "
         transform="scale(0.8,0.8)"
         style="fill-rule:evenodd;stroke:#000000;stroke-width:1pt;marker-start:none"
         id="path3209" />
    </marker>
    <marker
       refX="0"
       refY="0"
       orient="auto"
       style="overflow:visible"
       id="Arrow1Lend">
      <path
         d="M 0,0 L 5,-5 L -12.5,0 L 5,5 L 0,0 z "
         transform="matrix(-0.8,0,0,-0.8,-10,0)"
         style="fill-rule:evenodd;stroke:#000000;stroke-width:1pt;marker-start:none"
         id="path3141" />
    </marker>
  </defs>
  <path
     style="fill:none;stroke:#000000;stroke-width:12.5047px;stroke-linecap:butt;stroke-linejoin:miter;stroke-opacity:1"
     d="M 3163.9081,1834.9256"
     id="path23"
     inkscape:path-effect="#path-effect25"
     inkscape:original-d="m 3163.9081,1834.9256 144.1167,-133.4414"
     sodipodi:nodetypes="cc" />
  <path
     style="fill:none;stroke:#000000;stroke-width:12.5047px;stroke-linecap:butt;stroke-linejoin:miter;stroke-opacity:1"
     d="m 5924.3388,1725.1272 c -10.3498,15.6309 -37.7798,93.7472 -62.0989,93.7854 -34.4284,0.054 -83.3649,-187.5709 -125.0474,-187.5709 -41.6824,0 -83.3649,187.5709 -125.0473,187.5709 -41.6824,0 -83.3649,-187.5709 -125.0473,-187.5709 -41.6824,0 -83.3649,187.5709 -125.0473,187.5709 -41.6825,0 -83.3649,-187.5709 -125.0474,-187.5709 -41.6824,0 -83.3649,187.5709 -125.0473,187.5709 -41.6824,0 -83.3649,-187.5709 -125.0473,-187.5709 -41.6824,0 -83.3649,187.5709 -125.0473,187.5709 -41.6825,0 -83.3649,-187.5709 -125.0474,-187.5709 -41.6824,0 -83.3649,187.5709 -125.0473,187.5709 -41.6824,0 -83.3649,-187.5709 -125.0473,-187.5709 -41.6824,0 -83.3649,187.5709 -125.0473,187.5709 -41.6825,0 -83.3649,-187.5709 -125.0474,-187.5709 -41.6824,0 -83.3649,187.5709 -125.0473,187.5709 -41.6824,0 -83.3649,-187.5709 -125.0473,-187.5709 -41.6824,0 -83.3649,187.5709 -125.0473,187.5709 -41.6825,0 -83.3649,-187.5709 -125.0474,-187.5709 -41.6824,0 -83.3649,187.5709 -125.0473,187.5709 -41.6824,0 -83.3649,-187.5709 -125.0473,-187.5709 -41.6824,0 -83.3649,187.5709 -125.0473,187.5709 -41.6825,0 -83.3649,-187.5709 -125.0474,-187.5709 -41.6824,0 -90.5164,187.5709 -125.0473,187.5709 -24.417,0 -52.1031,-78.1545 -62.5237,-93.7854"
     id="path948"
     inkscape:path-effect="#path-effect950"
     inkscape:original-d="m 5924.3388,1725.1272 -62.0989,93.7854 -125.0474,-187.5709 -125.0473,187.5709 -125.0473,-187.5709 -125.0473,187.5709 -125.0474,-187.5709 -125.0473,187.5709 -125.0473,-187.5709 -125.0473,187.5709 -125.0474,-187.5709 -125.0473,187.5709 -125.0473,-187.5709 -125.0473,187.5709 -125.0474,-187.5709 -125.0473,187.5709 -125.0473,-187.5709 -125.0473,187.5709 -125.0474,-187.5709 -125.0473,187.5709 -125.0473,-187.5709 -125.0473,187.5709 -125.0474,-187.5709 -125.0473,187.5709 -62.5237,-93.7854"
     sodipodi:nodetypes="cccccccccccccccccccccccc" />
  <path
     style="opacity:0.380645;fill:#ff0a0a;fill-rule:evenodd;stroke:#000000;stroke-width:50.0189;stroke-linecap:square;stroke-linejoin:round;stroke-miterlimit:4;stroke-dasharray:none;stroke-opacity:1;stop-color:#000000"
     id="path1128"
     sodipodi:type="arc"
     sodipodi:cx="6651.812"
     sodipodi:cy="-152.93015"
     sodipodi:rx="792.60193"
     sodipodi:ry="792.60193"
     inkscape:path-effect="#path-effect1206"
     d="m 7444.4139,-152.92813 c -8.2596,-4.73566 -30.8357,-12.20934 -52.9184,-20.60282 -21.6404,-8.22537 -41.4477,-16.6624 -42.0789,-25.70468 -0.8935,-12.80108 43.9305,-32.83919 87.0426,-58.23063 43.1121,-25.39144 84.3556,-56.21499 79.7968,-75.771 -9.1177,-39.112 -196.8462,-18.50929 -208.254,-47.81478 -11.4078,-29.30548 141.8413,-140.35662 122.759,-175.32678 -19.0823,-34.97016 -195.7311,34.87691 -214.6579,9.05776 -18.9268,-25.81916 102.0024,-172.93964 74.7457,-201.97775 -27.2568,-29.03811 -181.7321,82.53994 -206.3876,61.99735 -24.6555,-20.54259 56.4404,-192.63842 22.7995,-213.95424 -33.6409,-21.31582 -154.8489,124.47975 -183.4429,111.00395 -28.5939,-13.4758 5.1551,-199.45319 -33.0798,-211.25645 -38.2349,-11.8034 -115.0816,160.69634 -145.8238,156.07756 -30.7422,-4.61879 -51.8533,-193.38376 -92.8919,-193.88436 -0.07,-8e-4 -0.1402,-0 -0.2103,-9e-4 0,0 0,0 0,0 -40.9701,1.1278 -62.0954,189.24374 -92.7872,193.83801 -30.7443,4.60214 -107.5058,-167.93671 -145.747,-156.15121 -38.2413,11.78557 -4.5794,197.77713 -33.1786,211.23933 -28.5991,13.4622 -149.7408,-132.38538 -183.3911,-111.08428 -33.6503,21.3011 47.3711,193.43008 22.7074,213.96214 -24.6637,20.53206 -179.0918,-91.11079 -206.3609,-62.08433 -27.2692,29.02646 93.5984,176.19898 74.6603,202.01064 -18.938,25.81167 -195.5585,-44.11308 -214.6563,-9.15152 -19.0978,34.96156 134.1026,146.08374 122.6804,175.38481 -11.4222,29.30107 -199.1413,8.60793 -208.2775,47.71439 -4.5681,19.55323 36.6514,50.37048 79.7434,75.77412 43.0919,25.40363 87.9006,45.46978 87.0241,58.3105 -0.6198,9.07976 -20.4334,17.57255 -42.082,25.85974 -22.0937,8.45756 -44.6746,15.99387 -52.9369,20.76341"
     sodipodi:start="3.1415927"
     sodipodi:end="0"
     sodipodi:arc-type="arc"
     sodipodi:open="true" />
</svg>
