<?xml version="1.0" encoding="UTF-8" standalone="no"?>
<svg
   xmlns:dc="http://purl.org/dc/elements/1.1/"
   xmlns:cc="http://creativecommons.org/ns#"
   xmlns:rdf="http://www.w3.org/1999/02/22-rdf-syntax-ns#"
   xmlns:svg="http://www.w3.org/2000/svg"
   xmlns="http://www.w3.org/2000/svg"
   xmlns:sodipodi="http://sodipodi.sourceforge.net/DTD/sodipodi-0.dtd"
   xmlns:inkscape="http://www.inkscape.org/namespaces/inkscape"
   width="512"
   height="512"
   viewBox="0 0 511.99998 512"
   version="1.1"
   id="svg8"
   inkscape:version="1.0.1 (3bc2e813f5, 2020-09-07)"
   sodipodi:docname="drawing.svg">
  <defs
     id="defs2">
    <inkscape:path-effect
       effect="interpolate_points"
       id="path-effect908"
       is_visible="true"
       lpeversion="1"
       interpolator_type="CentripetalCatmullRom" />
    <inkscape:path-effect
       effect="interpolate_points"
       id="path-effect904"
       is_visible="true"
       lpeversion="1"
       interpolator_type="CentripetalCatmullRom" />
    <inkscape:path-effect
       effect="interpolate_points"
       id="path-effect900"
       is_visible="true"
       lpeversion="1"
       interpolator_type="CentripetalCatmullRom" />
    <inkscape:path-effect
       effect="interpolate_points"
       id="path-effect896"
       is_visible="true"
       lpeversion="1"
       interpolator_type="CentripetalCatmullRom" />
    <inkscape:path-effect
       effect="interpolate_points"
       id="path-effect892"
       is_visible="true"
       lpeversion="1"
       interpolator_type="CentripetalCatmullRom" />
    <inkscape:path-effect
       effect="interpolate_points"
       id="path-effect888"
       is_visible="true"
       lpeversion="1"
       interpolator_type="CentripetalCatmullRom" />
    <inkscape:path-effect
       effect="interpolate_points"
       id="path-effect882"
       is_visible="true"
       lpeversion="1"
       interpolator_type="CentripetalCatmullRom" />
    <inkscape:path-effect
       effect="interpolate_points"
       id="path-effect25"
       is_visible="true"
       lpeversion="1"
       interpolator_type="CentripetalCatmullRom" />
    <inkscape:path-effect
       effect="interpolate_points"
       id="path-effect950"
       is_visible="true"
       lpeversion="1"
       interpolator_type="CentripetalCatmullRom" />
    <inkscape:path-effect
       effect="skeletal"
       id="path-effect1206"
       is_visible="true"
       lpeversion="1"
       pattern="#path948"
       copytype="single_stretched"
       prop_scale="1"
       scale_y_rel="false"
       spacing="0"
       normal_offset="0"
       tang_offset="0"
       prop_units="false"
       vertical_pattern="false"
       hide_knot="false"
       fuse_tolerance="0" />
  </defs>
  <sodipodi:namedview
     id="base"
     pagecolor="#ffffff"
     bordercolor="#666666"
     borderopacity="1.0"
     inkscape:pageopacity="0.0"
     inkscape:pageshadow="2"
     inkscape:zoom="0.98994949"
     inkscape:cx="-184.07724"
     inkscape:cy="111.61792"
     inkscape:document-units="px"
     inkscape:current-layer="layer1"
     inkscape:document-rotation="0"
     showgrid="true"
     inkscape:snap-page="false"
     inkscape:object-paths="false"
     units="px"
     inkscape:showpageshadow="false"
     objecttolerance="20"
     width="24mm"
     inkscape:window-width="1920"
     inkscape:window-height="1017"
     inkscape:window-x="-8"
     inkscape:window-y="-8"
     inkscape:window-maximized="1"
     showguides="true"
     inkscape:guide-bbox="true">
    <inkscape:grid
       type="xygrid"
       id="grid10"
       empspacing="4"
       originx="0"
       originy="0"
       dotted="false" />
    <sodipodi:guide
       position="-463.99999,274.99999"
       orientation="1,0"
       id="guide864" />
    <sodipodi:guide
       position="-453.99999,275.99999"
       orientation="1,0"
       id="guide866" />
    <sodipodi:guide
       position="-238.99999,271"
       orientation="1,0"
       id="guide870" />
    <sodipodi:guide
       position="-463.99998,264"
       orientation="0,-1"
       id="guide872" />
    <sodipodi:guide
       position="-453.99998,278"
       orientation="0,-1"
       id="guide874" />
    <sodipodi:guide
       position="-468.99998,271"
       orientation="0,-1"
       id="guide876" />
    <sodipodi:guide
       position="-468.99998,271.00001"
       orientation="1,0"
       id="guide878" />
    <sodipodi:guide
       position="-443.99998,264"
       orientation="1,0"
       id="guide884" />
  </sodipodi:namedview>
  <metadata
     id="metadata5">
    <rdf:RDF>
      <cc:Work
         rdf:about="">
        <dc:format>image/svg+xml</dc:format>
        <dc:type
           rdf:resource="http://purl.org/dc/dcmitype/StillImage" />
        <dc:title></dc:title>
      </cc:Work>
    </rdf:RDF>
  </metadata>
  <g
     inkscape:groupmode="layer"
     id="layer2"
     inkscape:label="bg"
     style="opacity:0.574324"
     sodipodi:insensitive="true">
    <g
       id="g941"
       transform="matrix(0.07996971,0,0,0.07996971,40.378959,63.508005)">
      <polyline
         id="polyline3005"
         style="fill:#000000;stroke:#000000;stroke-width:17.5256;stroke-linecap:butt;stroke-linejoin:miter;stroke-miterlimit:4;stroke-dasharray:none"
         points="3684,2948 3667,2942 3653,2937 3641,2932 3639,2936 3641,2932 3632,2927 3630,2931 3632,2927 3625,2922 3622,2926 3625,2922 3620,2917 3616,2921 3620,2918 3618,2915 3615,2918 3619,2916 3617,2914 3613,2916 3618,2914 3617,2912 3612,2913 3617,2913 3617,2910 3612,2911 3617,2911 3617,2908 3612,2908 3617,2909 3617,2907 3613,2906 3617,2907 3618,2905 3614,2903 3618,2905 3619,2903 3615,2900 3619,2903 3624,2898 3620,2894 3623,2898 3630,2892 3627,2889 3630,2893 3639,2886 3636,2882 3638,2886 3650,2880 3663,2873 3679,2865 3695,2857 3710,2849 3723,2841 3723,2841 3723,2841 3733,2833 3733,2833 3733,2833 3741,2825 3741,2825 3741,2824 3746,2817 3747,2817 3747,2816 3748,2813 3749,2813 3749,2812 3750,2809 3750,2808 3750,2808 3750,2805 3750,2804 3750,2804 3750,2801 3750,2800 3750,2800 3749,2797 3749,2796 3749,2796 3747,2793 3747,2792 3746,2792 3744,2789 3744,2789 3744,2789 3741,2786 3741,2786 3740,2786 3733,2781 3733,2780 3732,2780 3722,2776 3722,2776 3722,2776 3710,2772 3710,2772 3709,2772 3695,2769 3679,2767 3660,2766 3642,2765 3627,2763 3614,2761 3614,2766 3615,2761 3604,2758 3603,2763 3605,2759 3596,2756 3594,2760 3597,2756 3590,2752 3588,2757 3591,2753 3588,2751 3585,2755 3589,2751 3587,2749 3583,2753 3587,2750 3586,2748 3582,2750 3586,2749 3585,2746 3581,2748 3585,2747 3585,2744 3580,2746 3585,2745 3585,2743 3580,2743 3585,2744 3585,2741 3580,2740 3585,2741 3586,2738 3581,2737 3586,2739 3589,2732 3585,2730 3589,2733 3594,2726 3590,2723 3593,2726 3601,2718 3597,2714 3600,2718 3610,2709 3621,2698 3634,2687 3648,2675 3661,2664 3671,2653 3671,2653 3671,2653 3679,2643 3679,2642 3679,2642 3684,2633 3685,2633 3685,2632 3688,2624 3688,2624 3688,2623 3689,2619 3689,2619 3689,2619 3689,2615 3689,2615 3689,2614 3688,2611 3688,2610 3688,2610 3687,2607 3687,2607 3687,2606 3685,2603 3685,2603 3685,2603 3682,2600 3682,2600 3682,2600 3679,2597 3679,2597 3678,2597 3675,2595 3675,2595 3674,2595 3666,2592 3665,2592 3665,2592 3654,2590 3654,2590 3654,2590 3641,2590 3641,2590 3641,2590 3626,2590 3610,2592 3591,2596 3574,2599 3559,2601 3546,2602 3546,2607 3546,2602 3535,2603 3535,2607 3536,2603 3527,2602 3526,2607 3528,2602 3520,2600 3519,2605 3521,2600 3518,2599 3516,2604 3519,2599 3516,2598 3514,2602 3517,2598 3515,2597 3512,2600 3516,2597 3514,2595 3510,2598 3515,2596 3513,2594 3509,2596 3514,2594 3513,2592 3508,2593 3513,2593 3513,2590 3508,2590 3513,2591 3513,2587 3508,2587 3513,2588 3514,2581 3510,2580 3514,2582 3517,2573 3513,2571 3517,2574 3522,2564 3518,2562 3522,2564 3528,2553 3537,2540 3547,2526 3558,2511 3567,2497 3574,2484 3574,2483 3574,2483 3579,2472 3579,2471 3579,2471 3582,2461 3582,2460 3582,2460 3583,2451 3583,2451 3583,2450 3583,2447 3583,2446 3583,2446 3582,2442 3582,2442 3582,2442 3580,2439 3580,2438 3580,2438 3578,2435 3578,2435 3578,2434 3575,2432 3575,2432 3575,2431 3572,2430 3571,2429 3571,2429 3568,2428 3568,2428 3567,2428 3563,2427 3563,2427 3563,2427 3554,2426 3553,2426 3553,2426 3542,2427 3542,2427 3542,2427 3529,2430 3529,2430 3529,2430 3515,2434 3499,2440 3483,2448 3466,2455 3452,2461 3440,2466 3442,2470 3441,2466 3430,2469 3431,2473 3431,2468 3422,2470 3422,2475 3422,2470 3415,2470 3415,2475 3416,2470 3413,2469 3412,2474 3413,2470 3411,2469 3409,2473 3411,2469 3409,2468 3407,2472 3410,2468 3408,2467 3405,2471 3408,2467 3407,2465 3403,2469 3407,2466 3406,2464 3402,2466 3406,2465 3405,2462 3401,2464 3405,2462 3405,2459 3400,2460 3405,2460 3404,2453 3399,2453 3404,2454 3405,2445 3400,2444 3405,2445 3407,2434 3403,2433 3407,2435 3411,2422 3416,2408 3422,2391 3429,2374 3434,2358 3438,2344 3438,2344 3438,2343 3440,2331 3440,2331 3440,2330 3440,2320 3440,2319 3440,2319 3439,2310 3439,2310 3438,2309 3437,2306 3437,2305 3437,2305 3435,2302 3435,2301 3435,2301 3433,2298 3433,2298 3432,2298 3430,2296 3430,2295 3429,2295 3426,2293 3426,2293 3426,2293 3422,2292 3422,2292 3422,2292 3418,2291 3418,2291 3417,2291 3413,2291 3413,2291 3413,2291 3404,2293 3404,2293 3403,2293 3393,2297 3393,2297 3393,2297 3381,2303 3381,2303 3381,2303 3369,2310 3355,2320 3341,2332 3327,2343 3315,2352 3304,2360 3307,2364 3304,2359 3295,2365 3297,2369 3295,2365 3287,2368 3289,2373 3288,2368 3280,2370 3282,2375 3281,2370 3278,2370 3279,2375 3279,2370 3276,2370 3276,2375 3277,2370 3274,2369 3273,2374 3275,2370 3273,2369 3271,2373 3273,2369 3271,2368 3269,2372 3272,2368 3270,2366 3267,2370 3271,2367 3269,2365 3265,2367 3269,2365 3268,2362 3263,2365 3268,2363 3266,2356 3261,2358 3266,2357 3265,2348 3260,2349 3265,2348 3264,2337 3259,2338 3264,2338 3265,2325 3266,2310 3268,2292 3270,2274 3271,2257 3271,2242 3271,2242 3271,2242 3270,2229 3270,2229 3270,2229 3267,2218 3267,2218 3267,2218 3264,2209 3264,2209 3263,2209 3261,2205 3261,2205 3261,2205 3258,2202 3258,2202 3258,2202 3255,2199 3255,2199 3254,2199 3252,2197 3251,2197 3251,2197 3248,2196 3247,2196 3247,2196 3243,2196 3243,2196 3243,2196 3239,2196 3239,2196 3238,2196 3235,2197 3234,2197 3234,2197 3226,2201 3225,2201 3225,2202 3216,2208 3216,2208 3216,2208 3206,2216 3206,2216 3206,2217 3196,2227 3185,2240 3174,2255 3163,2269 3154,2281 3146,2291 3149,2294 3146,2290 3138,2298 3141,2302 3138,2298 3131,2303 3134,2307 3132,2303 3125,2307 3128,2311 3126,2306 3123,2307 3125,2312 3124,2307 3121,2308 3122,2313 3122,2308 3119,2308 3119,2313 3120,2308 3117,2307 3117,2312 3118,2308 3116,2307 3114,2311 3117,2307 3114,2306 3112,2310 3115,2306 3113,2304 3110,2308 3113,2305 3111,2302 3107,2306 3112,2303 3108,2297 3104,2299 3108,2297 3105,2289 3100,2291 3105,2290 3102,2279 3097,2280 3102,2279 3099,2267 3096,2252 3094,2234 3091,2216 3088,2200 3084,2185 3084,2185 3084,2185 3080,2173 3080,2173 3080,2173 3075,2163 3075,2163 3074,2162 3069,2155 3069,2155 3069,2155 3066,2152 3066,2152 3065,2152 3062,2150 3062,2149 3062,2149 3059,2148 3058,2148 3058,2147 3055,2147 3054,2147 3054,2147 3050,2147 3050,2147 3049,2147 3046,2147 3046,2147 3045,2147 3042,2149 3042,2149 3041,2149 3038,2151 3038,2151 3037,2151 3030,2157 3030,2157 3030,2157 3023,2165 3022,2166 3022,2166 3015,2176 3015,2176 3015,2177 3008,2189 3001,2204 2994,2222 2987,2238 2981,2252 2975,2263 2979,2266 2975,2263 2969,2273 2974,2275 2970,2272 2964,2279 2968,2282 2965,2279 2959,2284 2963,2287 2960,2283 2957,2285 2960,2289 2958,2285 2955,2286 2957,2290 2956,2286 2954,2286 2955,2291 2954,2286 2952,2287 2952,2291 2953,2287 2950,2286 2950,2291 2951,2286 2948,2286 2947,2290 2949,2286 2947,2285 2944,2289 2947,2285 2945,2283 2942,2287 2945,2284 2940,2279 2936,2282 2940,2279 2935,2272 2931,2275 2935,2273 2929,2263 2925,2266 2930,2263 2924,2252 2918,2238 2911,2222 2904,2205 2897,2190 2890,2177 2889,2176 2889,2176 2882,2166 2882,2166 2882,2165 2875,2157 2875,2157 2874,2157 2867,2151 2867,2151 2867,2151 2863,2149 2863,2149 2863,2149 2859,2147 2859,2147 2858,2147 2855,2147 2855,2147 2854,2147 2851,2147 2850,2147 2850,2147 2847,2147 2846,2148 2846,2148 2843,2149 2843,2149 2842,2150 2839,2152 2839,2152 2839,2152 2836,2155 2836,2155 2835,2155 2830,2162 2830,2163 2830,2163 2825,2173 2825,2173 2825,2173 2820,2185 2820,2185 2820,2185 2816,2199 2813,2216 2811,2234 2808,2252 2806,2267 2803,2279 2808,2280 2803,2279 2800,2290 2804,2291 2800,2289 2796,2297 2801,2299 2797,2297 2793,2303 2797,2306 2793,2302 2791,2305 2795,2308 2792,2304 2790,2306 2793,2310 2790,2306 2788,2307 2790,2311 2789,2307 2786,2308 2788,2312 2787,2307 2785,2308 2785,2313 2785,2308 2783,2308 2783,2313 2784,2308 2781,2307 2780,2312 2781,2307 2778,2306 2777,2311 2779,2307 2773,2303 2770,2307 2773,2303 2766,2298 2763,2302 2767,2298 2759,2290 2755,2294 2759,2291 2750,2281 2741,2269 2730,2255 2720,2240 2709,2227 2699,2217 2698,2216 2698,2216 2689,2208 2689,2208 2688,2208 2680,2202 2679,2201 2679,2201 2671,2197 2670,2197 2670,2197 2666,2196 2666,2196 2665,2196 2662,2196 2662,2196 2661,2196 2658,2196 2657,2196 2657,2196 2654,2197 2653,2197 2653,2197 2650,2199 2650,2199 2649,2199 2647,2202 2646,2202 2646,2202 2644,2205 2644,2205 2643,2205 2641,2209 2641,2209 2641,2209 2637,2218 2637,2218 2637,2218 2635,2229 2635,2229 2635,2229 2634,2242 2634,2242 2634,2242 2633,2257 2634,2274 2636,2292 2639,2310 2640,2325 2640,2338 2645,2338 2640,2337 2640,2348 2645,2349 2640,2348 2638,2357 2643,2358 2639,2356 2636,2363 2641,2365 2637,2362 2635,2365 2640,2367 2636,2365 2634,2367 2638,2370 2635,2366 2633,2368 2636,2372 2633,2368 2631,2369 2634,2373 2632,2369 2630,2370 2632,2374 2630,2369 2628,2370 2629,2375 2629,2370 2626,2370 2626,2375 2626,2370 2623,2370 2623,2375 2624,2370 2617,2368 2616,2373 2618,2368 2609,2365 2607,2369 2610,2365 2600,2359 2598,2364 2601,2360 2590,2352 2578,2343 2564,2332 2550,2320 2536,2311 2524,2303 2523,2303 2523,2303 2512,2297 2512,2297 2511,2297 2501,2293 2501,2293 2501,2293 2492,2291 2491,2291 2491,2291 2487,2291 2487,2291 2486,2291 2483,2292 2483,2292 2482,2292 2479,2293 2479,2293 2478,2293 2475,2295 2475,2295 2475,2296 2472,2298 2472,2298 2472,2298 2470,2301 2469,2301 2469,2302 2468,2305 2467,2305 2467,2306 2466,2309 2466,2310 2466,2310 2465,2319 2465,2319 2465,2320 2465,2330 2465,2331 2465,2331 2467,2343 2467,2344 2467,2344 2470,2358 2476,2374 2482,2391 2489,2408 2494,2422 2497,2435 2502,2433 2497,2434 2499,2445 2504,2444 2499,2445 2500,2454 2505,2453 2500,2453 2500,2460 2505,2460 2500,2459 2499,2462 2504,2464 2499,2462 2498,2465 2503,2466 2499,2464 2497,2466 2502,2469 2498,2465 2496,2467 2500,2471 2497,2467 2495,2468 2498,2472 2496,2468 2493,2469 2495,2473 2494,2469 2491,2470 2493,2474 2492,2469 2489,2470 2489,2475 2490,2470 2482,2470 2482,2475 2483,2470 2474,2468 2473,2473 2474,2468 2464,2466 2463,2470 2464,2466 2452,2461 2438,2455 2422,2448 2405,2440 2390,2434 2376,2430 2375,2430 2375,2430 2363,2427 2363,2427 2362,2427 2352,2426 2351,2426 2351,2426 2342,2427 2342,2427 2341,2427 2337,2428 2337,2428 2337,2428 2333,2429 2333,2429 2333,2430 2330,2431 2330,2432 2329,2432 2327,2434 2327,2435 2326,2435 2325,2438 2324,2438 2324,2439 2323,2442 2323,2442 2323,2442 2322,2446 2322,2446 2322,2447 2321,2450 2321,2451 2321,2451 2322,2460 2322,2460 2323,2461 2326,2471 2326,2471 2326,2472 2331,2483 2331,2483 2331,2484 2338,2496 2347,2511 2357,2526 2368,2540 2376,2553 2383,2564 2387,2562 2383,2564 2388,2574 2392,2571 2387,2573 2390,2582 2395,2580 2390,2581 2392,2588 2397,2587 2392,2587 2392,2591 2397,2590 2392,2590 2391,2593 2396,2593 2392,2592 2391,2594 2395,2596 2391,2594 2390,2596 2394,2598 2390,2595 2389,2597 2393,2600 2389,2597 2387,2598 2391,2602 2388,2598 2386,2599 2388,2604 2386,2599 2383,2600 2385,2605 2384,2600 2377,2602 2378,2607 2378,2602 2369,2603 2369,2607 2369,2603 2358,2602 2358,2607 2359,2602 2345,2601 2331,2599 2313,2596 2295,2592 2279,2590 2264,2590 2263,2590 2263,2590 2251,2590 2250,2590 2250,2590 2240,2592 2239,2592 2239,2592 2230,2595 2230,2595 2230,2595 2226,2597 2226,2597 2226,2597 2223,2600 2222,2600 2222,2600 2220,2603 2220,2603 2219,2603 2218,2606 2218,2607 2217,2607 2216,2610 2216,2610 2216,2611 2216,2614 2216,2615 2216,2615 2216,2619 2216,2619 2216,2619 2216,2623 2216,2624 2217,2624 2220,2632 2220,2633 2220,2633 2226,2642 2226,2642 2226,2643 2234,2653 2234,2653 2234,2653 2244,2664 2256,2675 2270,2687 2284,2699 2295,2709 2304,2718 2308,2714 2304,2718 2311,2726 2315,2723 2311,2726 2316,2733 2320,2730 2316,2732 2319,2739 2323,2737 2318,2738 2319,2741 2324,2740 2319,2741 2320,2744 2324,2743 2320,2743 2319,2745 2324,2746 2320,2744 2319,2747 2324,2748 2319,2746 2318,2749 2323,2750 2319,2748 2317,2750 2321,2753 2318,2749 2316,2751 2319,2755 2316,2751 2314,2753 2317,2757 2314,2752 2308,2756 2310,2760 2309,2756 2300,2759 2302,2763 2300,2758 2290,2761 2291,2766 2290,2761 2277,2763 2262,2765 2245,2766 2226,2767 2210,2769 2195,2772 2195,2772 2195,2772 2183,2776 2182,2776 2182,2776 2172,2780 2172,2780 2172,2781 2164,2786 2164,2786 2163,2786 2161,2789 2160,2789 2160,2789 2158,2792 2158,2792 2158,2793 2156,2796 2156,2796 2156,2797 2155,2800 2155,2800 2155,2801 2154,2804 2154,2804 2154,2805 2155,2808 2155,2808 2155,2809 2156,2812 2156,2813 2156,2813 2158,2816 2158,2817 2158,2817 2163,2824 2163,2825 2164,2825 2171,2833 2172,2833 2172,2833 2182,2841 2182,2841 2182,2841 2194,2849 2209,2857 2226,2865 2242,2873 2255,2880 2266,2886 2269,2882 2266,2886 2275,2893 2278,2889 2275,2892 2281,2898 2285,2894 2281,2898 2286,2903 2289,2900 2285,2903 2287,2905 2291,2903 2286,2905 2288,2907 2292,2906 2287,2907 2288,2909 2293,2908 2288,2908 2288,2911 2293,2911 2288,2910 2288,2913 2292,2913 2288,2912 2287,2914 2291,2916 2287,2914 2286,2916 2290,2918 2286,2915 2284,2918 2288,2921 2285,2917 2279,2922 2283,2926 2280,2922 2272,2927 2275,2931 2273,2927 2263,2932 2265,2936 2263,2932 2251,2937 2237,2942 2220,2948 2216,2949 2219,2958 2223,2957 2240,2951 2255,2946 2267,2941 2267,2941 2268,2940 2277,2935 2277,2935 2278,2935 2285,2930 2286,2930 2286,2930 2291,2925 2292,2924 2292,2924 2294,2921 2294,2921 2294,2921 2296,2918 2296,2918 2296,2918 2297,2915 2297,2915 2297,2914 2298,2912 2298,2911 2298,2911 2298,2908 2297,2908 2297,2907 2297,2904 2297,2904 2297,2904 2295,2901 2295,2901 2295,2900 2294,2898 2293,2897 2293,2897 2288,2891 2288,2891 2288,2891 2281,2885 2281,2885 2280,2885 2272,2878 2271,2878 2271,2878 2260,2871 2246,2864 2230,2856 2213,2848 2199,2841 2187,2833 2185,2837 2188,2833 2178,2825 2175,2829 2178,2826 2171,2818 2167,2822 2171,2819 2166,2812 2162,2814 2166,2812 2165,2809 2160,2811 2165,2810 2164,2806 2160,2808 2164,2807 2164,2804 2159,2804 2164,2805 2164,2801 2159,2801 2164,2802 2165,2799 2160,2798 2165,2800 2166,2797 2162,2795 2166,2798 2168,2795 2164,2792 2167,2796 2170,2793 2167,2790 2169,2794 2177,2789 2174,2785 2176,2789 2186,2785 2184,2781 2185,2785 2197,2782 2196,2777 2197,2782 2211,2779 2227,2777 2245,2775 2263,2774 2278,2773 2292,2771 2292,2771 2292,2770 2303,2768 2303,2768 2303,2768 2312,2765 2312,2765 2313,2765 2319,2761 2319,2761 2320,2761 2322,2759 2322,2758 2323,2758 2325,2756 2325,2756 2325,2755 2327,2753 2327,2753 2327,2752 2328,2750 2328,2750 2329,2749 2329,2747 2329,2746 2329,2746 2329,2743 2329,2743 2329,2742 2329,2739 2329,2739 2329,2739 2328,2735 2328,2735 2328,2735 2324,2728 2324,2728 2324,2727 2319,2720 2319,2720 2318,2720 2311,2711 2311,2711 2311,2711 2302,2702 2290,2691 2276,2680 2262,2668 2251,2657 2241,2646 2238,2650 2241,2647 2234,2637 2230,2640 2234,2637 2229,2628 2224,2630 2229,2629 2226,2620 2221,2622 2226,2621 2225,2618 2221,2618 2225,2618 2225,2615 2220,2615 2225,2616 2226,2612 2221,2612 2225,2613 2227,2610 2222,2609 2226,2611 2228,2608 2224,2606 2227,2609 2229,2607 2226,2603 2229,2607 2232,2605 2229,2601 2231,2605 2234,2604 2232,2599 2234,2604 2242,2601 2240,2597 2241,2601 2252,2600 2251,2595 2251,2600 2264,2599 2263,2594 2263,2599 2278,2600 2294,2602 2311,2605 2329,2608 2344,2611 2358,2612 2358,2612 2358,2612 2369,2612 2369,2612 2369,2612 2379,2611 2379,2611 2379,2611 2386,2610 2387,2609 2387,2609 2390,2608 2390,2608 2391,2608 2393,2606 2394,2606 2394,2606 2396,2604 2396,2604 2397,2603 2398,2601 2398,2601 2399,2600 2400,2598 2400,2598 2400,2597 2401,2595 2401,2594 2401,2594 2401,2591 2401,2591 2401,2590 2401,2587 2401,2587 2401,2586 2400,2579 2400,2579 2400,2578 2396,2570 2396,2569 2396,2569 2391,2559 2391,2559 2391,2559 2385,2548 2376,2535 2365,2520 2355,2505 2346,2492 2339,2479 2335,2481 2340,2479 2335,2468 2330,2470 2335,2468 2332,2458 2327,2460 2332,2459 2331,2450 2326,2451 2331,2451 2331,2447 2327,2447 2331,2448 2332,2445 2327,2443 2332,2445 2333,2442 2329,2440 2333,2443 2334,2441 2330,2438 2334,2441 2336,2439 2333,2436 2335,2440 2338,2438 2335,2434 2337,2438 2341,2437 2339,2432 2340,2437 2344,2436 2342,2431 2343,2436 2352,2435 2351,2431 2351,2435 2361,2437 2362,2432 2361,2436 2373,2439 2374,2434 2373,2439 2386,2443 2401,2449 2418,2457 2434,2464 2448,2470 2461,2475 2461,2475 2461,2475 2472,2478 2472,2478 2472,2478 2481,2479 2482,2480 2482,2480 2489,2480 2490,2480 2490,2480 2493,2479 2494,2479 2494,2479 2497,2478 2497,2478 2498,2478 2500,2477 2500,2476 2501,2476 2503,2474 2503,2474 2504,2474 2505,2472 2506,2471 2506,2471 2507,2469 2507,2468 2508,2468 2509,2465 2509,2465 2509,2465 2509,2461 2510,2461 2510,2461 2510,2453 2510,2453 2510,2453 2509,2444 2509,2443 2509,2443 2507,2432 2507,2432 2507,2432 2503,2419 2498,2405 2491,2388 2485,2371 2480,2355 2476,2342 2472,2343 2477,2342 2475,2330 2470,2330 2475,2330 2474,2319 2469,2320 2474,2320 2475,2311 2471,2311 2475,2312 2477,2309 2472,2307 2476,2309 2478,2306 2473,2304 2477,2307 2479,2304 2475,2301 2479,2305 2481,2303 2478,2299 2480,2303 2483,2302 2481,2298 2482,2302 2485,2301 2484,2297 2484,2301 2488,2301 2487,2296 2487,2301 2491,2301 2491,2296 2490,2301 2499,2302 2500,2298 2498,2302 2508,2306 2510,2301 2508,2306 2519,2311 2521,2307 2518,2311 2531,2319 2544,2328 2558,2339 2572,2351 2584,2360 2595,2368 2595,2368 2595,2368 2605,2373 2605,2373 2605,2374 2614,2377 2614,2377 2614,2377 2622,2379 2622,2379 2622,2380 2626,2380 2626,2380 2626,2380 2629,2380 2630,2380 2630,2380 2633,2379 2633,2379 2633,2379 2636,2378 2636,2377 2637,2377 2639,2376 2639,2375 2640,2375 2641,2373 2642,2373 2642,2373 2644,2370 2644,2370 2644,2370 2645,2367 2646,2366 2646,2366 2648,2359 2648,2359 2648,2358 2649,2349 2649,2349 2650,2349 2650,2338 2650,2338 2650,2337 2650,2324 2648,2309 2646,2291 2644,2273 2643,2257 2643,2242 2638,2242 2643,2243 2644,2230 2640,2230 2644,2231 2647,2220 2642,2219 2646,2221 2650,2213 2645,2211 2649,2214 2652,2211 2647,2208 2651,2211 2653,2209 2650,2205 2653,2209 2655,2207 2652,2203 2655,2208 2657,2206 2655,2202 2656,2206 2660,2206 2658,2201 2659,2206 2662,2206 2661,2201 2661,2205 2665,2206 2665,2201 2664,2206 2668,2207 2669,2202 2667,2206 2675,2210 2677,2206 2674,2210 2683,2216 2686,2212 2682,2215 2692,2224 2695,2220 2692,2223 2702,2234 2712,2246 2723,2261 2733,2275 2743,2287 2752,2297 2752,2297 2752,2297 2760,2305 2760,2305 2760,2305 2767,2311 2768,2311 2768,2311 2774,2315 2775,2315 2775,2315 2778,2317 2778,2317 2779,2317 2782,2317 2782,2317 2782,2317 2785,2317 2786,2317 2786,2317 2789,2317 2789,2317 2790,2317 2792,2316 2792,2316 2793,2316 2795,2314 2796,2314 2796,2314 2798,2312 2798,2312 2799,2311 2801,2309 2801,2309 2801,2308 2805,2302 2805,2302 2805,2301 2809,2293 2809,2293 2809,2292 2812,2282 2812,2282 2812,2282 2815,2269 2818,2253 2820,2235 2823,2217 2826,2202 2830,2188 2825,2187 2829,2188 2834,2176 2829,2175 2833,2177 2838,2167 2834,2165 2838,2168 2843,2161 2839,2158 2843,2162 2845,2159 2842,2156 2845,2160 2848,2158 2845,2154 2847,2158 2850,2157 2848,2152 2849,2157 2852,2156 2851,2152 2851,2156 2854,2156 2854,2151 2853,2156 2857,2157 2858,2152 2856,2157 2859,2158 2861,2153 2859,2157 2862,2159 2864,2155 2861,2159 2868,2164 2871,2161 2867,2164 2875,2172 2878,2169 2874,2171 2881,2182 2885,2179 2881,2181 2888,2194 2895,2209 2902,2225 2909,2242 2915,2256 2921,2268 2921,2268 2921,2268 2927,2278 2927,2278 2927,2278 2933,2285 2933,2285 2933,2286 2938,2291 2939,2291 2939,2291 2942,2293 2942,2293 2942,2294 2945,2295 2945,2295 2946,2295 2948,2296 2949,2296 2949,2296 2952,2296 2952,2296 2953,2296 2955,2296 2956,2296 2956,2296 2959,2295 2959,2295 2960,2295 2962,2294 2963,2293 2963,2293 2965,2291 2966,2291 2966,2291 2971,2286 2972,2285 2972,2285 2977,2278 2978,2278 2978,2278 2983,2268 2983,2268 2984,2268 2990,2256 2996,2242 3003,2225 3010,2208 3017,2194 3024,2181 3019,2179 3023,2182 3030,2171 3026,2169 3030,2172 3037,2164 3033,2161 3036,2164 3043,2159 3040,2155 3043,2159 3046,2157 3044,2153 3045,2158 3049,2157 3047,2152 3048,2157 3051,2156 3050,2151 3050,2156 3053,2156 3053,2152 3052,2156 3055,2157 3057,2152 3055,2157 3058,2158 3060,2154 3057,2158 3060,2160 3062,2156 3059,2159 3062,2162 3065,2158 3061,2161 3067,2168 3071,2165 3066,2167 3071,2177 3075,2175 3071,2176 3075,2188 3080,2187 3075,2188 3079,2202 3082,2218 3084,2236 3087,2253 3089,2269 3092,2282 3092,2282 3092,2282 3095,2292 3095,2293 3096,2293 3099,2301 3099,2302 3099,2302 3103,2308 3104,2309 3104,2309 3106,2311 3106,2312 3106,2312 3109,2314 3109,2314 3109,2314 3112,2316 3112,2316 3113,2316 3115,2317 3115,2317 3116,2317 3118,2317 3119,2317 3119,2317 3122,2317 3122,2317 3123,2317 3126,2317 3126,2317 3126,2317 3129,2315 3130,2315 3130,2315 3137,2311 3137,2311 3137,2311 3144,2305 3145,2305 3145,2305 3153,2297 3153,2297 3153,2297 3161,2287 3171,2275 3182,2261 3193,2246 3203,2234 3213,2223 3209,2220 3213,2224 3222,2215 3219,2212 3222,2216 3230,2210 3228,2206 3230,2210 3238,2206 3236,2202 3237,2207 3241,2206 3240,2201 3240,2206 3244,2205 3243,2201 3243,2206 3246,2206 3246,2201 3245,2206 3248,2206 3249,2202 3247,2206 3250,2208 3252,2203 3249,2207 3252,2209 3255,2205 3251,2209 3253,2211 3257,2208 3253,2211 3255,2214 3259,2211 3255,2213 3258,2221 3263,2219 3258,2220 3260,2231 3265,2230 3260,2230 3261,2243 3266,2242 3261,2242 3261,2257 3260,2273 3258,2291 3256,2309 3255,2324 3255,2337 3255,2338 3255,2338 3255,2349 3255,2349 3255,2349 3256,2358 3256,2359 3257,2359 3259,2366 3259,2366 3259,2367 3261,2370 3261,2370 3261,2370 3263,2373 3263,2373 3263,2373 3265,2375 3265,2375 3266,2376 3268,2377 3268,2377 3269,2378 3271,2379 3271,2379 3272,2379 3275,2380 3275,2380 3275,2380 3278,2380 3279,2380 3279,2380 3282,2380 3283,2379 3283,2379 3290,2377 3291,2377 3291,2377 3299,2374 3299,2373 3300,2373 3309,2368 3309,2368 3309,2368 3320,2360 3333,2351 3347,2339 3361,2328 3374,2319 3386,2311 3384,2307 3386,2311 3397,2306 3395,2301 3396,2306 3406,2302 3405,2298 3406,2302 3414,2301 3413,2296 3413,2301 3417,2301 3417,2296 3417,2301 3420,2301 3421,2297 3419,2301 3422,2302 3424,2298 3421,2302 3424,2303 3427,2299 3423,2303 3426,2305 3429,2301 3425,2304 3427,2307 3431,2304 3427,2306 3428,2309 3433,2307 3428,2309 3429,2312 3434,2311 3429,2311 3430,2320 3435,2320 3430,2319 3430,2330 3435,2330 3430,2330 3428,2342 3433,2343 3428,2342 3425,2356 3420,2371 3413,2388 3407,2404 3402,2419 3398,2432 3398,2432 3398,2432 3396,2443 3396,2443 3396,2444 3395,2453 3395,2453 3395,2453 3395,2461 3395,2461 3395,2461 3396,2465 3396,2465 3396,2465 3397,2468 3397,2468 3397,2469 3399,2471 3399,2471 3399,2472 3401,2474 3401,2474 3402,2474 3404,2476 3404,2476 3405,2477 3407,2478 3407,2478 3408,2478 3410,2479 3411,2479 3411,2479 3414,2480 3415,2480 3415,2480 3422,2480 3423,2480 3423,2479 3432,2478 3432,2478 3433,2478 3443,2475 3443,2475 3444,2475 3456,2470 3470,2464 3487,2457 3503,2449 3518,2443 3532,2439 3530,2434 3532,2439 3544,2436 3543,2432 3543,2437 3554,2435 3553,2431 3553,2435 3562,2436 3562,2431 3561,2436 3565,2437 3566,2432 3564,2437 3567,2438 3569,2434 3566,2438 3569,2440 3572,2436 3569,2439 3571,2441 3574,2438 3570,2441 3572,2443 3576,2440 3571,2442 3573,2445 3577,2443 3572,2445 3573,2448 3578,2447 3573,2447 3573,2451 3578,2451 3573,2450 3572,2459 3577,2460 3573,2458 3570,2468 3574,2470 3570,2468 3565,2479 3569,2481 3565,2479 3558,2492 3550,2505 3539,2520 3529,2535 3520,2548 3513,2559 3513,2559 3513,2559 3508,2569 3508,2569 3508,2570 3505,2578 3505,2579 3505,2579 3503,2586 3503,2587 3503,2587 3503,2590 3503,2591 3503,2591 3503,2594 3504,2594 3504,2595 3504,2597 3505,2598 3505,2598 3506,2600 3506,2601 3506,2601 3508,2603 3508,2604 3509,2604 3511,2606 3511,2606 3511,2606 3514,2608 3514,2608 3514,2608 3517,2609 3518,2609 3518,2610 3525,2611 3526,2611 3526,2611 3535,2612 3535,2612 3536,2612 3547,2612 3547,2612 3547,2612 3560,2611 3575,2608 3593,2605 3611,2602 3627,2600 3641,2599 3641,2594 3641,2599 3654,2600 3654,2595 3653,2600 3663,2601 3664,2597 3663,2601 3671,2604 3673,2599 3670,2604 3674,2605 3676,2601 3673,2605 3676,2607 3679,2603 3675,2607 3677,2609 3681,2606 3677,2608 3678,2611 3683,2609 3678,2610 3679,2613 3684,2612 3679,2612 3679,2616 3684,2615 3679,2615 3679,2618 3684,2618 3679,2618 3679,2621 3683,2622 3679,2620 3676,2629 3680,2630 3676,2628 3671,2637 3675,2640 3671,2637 3663,2647 3667,2650 3663,2646 3654,2657 3642,2668 3628,2680 3615,2691 3603,2702 3594,2711 3593,2711 3593,2711 3586,2720 3586,2720 3586,2720 3581,2727 3580,2728 3580,2728 3577,2735 3577,2735 3577,2735 3576,2739 3576,2739 3576,2739 3575,2742 3575,2743 3575,2743 3575,2746 3575,2746 3575,2747 3576,2749 3576,2750 3576,2750 3577,2752 3578,2753 3578,2753 3579,2755 3580,2756 3580,2756 3582,2758 3582,2758 3582,2759 3585,2761 3585,2761 3586,2761 3592,2765 3592,2765 3593,2765 3601,2768 3602,2768 3602,2768 3613,2770 3613,2771 3613,2771 3626,2773 3641,2774 3659,2775 3677,2777 3694,2779 3707,2782 3708,2777 3707,2782 3719,2785 3721,2781 3719,2785 3728,2789 3730,2785 3728,2789 3735,2794 3738,2790 3734,2793 3737,2796 3741,2792 3737,2795 3739,2798 3743,2795 3738,2797 3740,2800 3744,2798 3740,2799 3740,2802 3745,2801 3740,2801 3741,2805 3745,2804 3741,2804 3740,2807 3745,2808 3740,2806 3739,2810 3744,2811 3740,2809 3738,2812 3742,2814 3738,2812 3733,2819 3737,2822 3734,2818 3726,2826 3730,2829 3727,2825 3717,2833 3720,2837 3717,2833 3705,2841 3691,2848 3675,2856 3659,2864 3645,2871 3633,2878 3633,2878 3633,2878 3624,2885 3624,2885 3624,2885 3617,2891 3616,2891 3616,2891 3611,2897 3611,2897 3611,2898 3609,2900 3609,2901 3609,2901 3608,2904 3608,2904 3608,2904 3607,2907 3607,2908 3607,2908 3607,2911 3607,2911 3607,2912 3607,2914 3607,2915 3608,2915 3609,2918 3609,2918 3609,2918 3610,2921 3610,2921 3611,2921 3613,2924 3613,2924 3613,2925 3619,2930 3619,2930 3619,2930 3627,2935 3627,2935 3627,2935 3637,2940 3637,2941 3637,2941 3649,2946 3664,2951 3681,2957 3686,2958 3689,2949 3684,2948 "
         transform="matrix(0.9619767,0,0,0.8670772,114.27683,349.26803)" />
      <polyline
         id="polyline3013"
         style="fill:#000000;stroke:#000000;stroke-width:18.9861;stroke-linecap:butt;stroke-linejoin:miter;stroke-miterlimit:4;stroke-dasharray:none"
         points="1638,2957 4267,2957 4272,2957 4272,2947 4267,2947 1638,2947 1633,2947 1633,2957 1638,2957 "
         transform="matrix(0.9619767,0,0,0.8670772,114.27683,349.26803)" />
      <path
         d="m 2838.2472,2829.134 232.5316,77.8271 -232.5316,77.8277 c 37.149,-45.9494 36.9348,-108.8157 0,-155.6548 z"
         style="font-size:12px;fill-rule:evenodd;stroke-width:0.625;stroke-linejoin:round"
         id="path2218" />
    </g>
  </g>
  <g
     inkscape:label="vector"
     inkscape:groupmode="layer"
     id="layer1"
     style="display:inline">
    <path
       style="fill:none;stroke:#000000;stroke-width:0.999997px;stroke-linecap:butt;stroke-linejoin:miter;stroke-opacity:1"
       d="M -460.75084,248.78054"
       id="path23"
       inkscape:path-effect="#path-effect25"
       inkscape:original-d="m -460.75084,248.78054 11.52497,-10.67127"
       sodipodi:nodetypes="cc" />
    <path
       style="fill:none;stroke:#000000;stroke-width:0.999997px;stroke-linecap:butt;stroke-linejoin:miter;stroke-opacity:1"
       d="m -469,241 c 0.83333,1.16667 3.04738,7 5,7 2.76142,0 6.66667,-14 10,-14 3.33333,0 6.66667,14 10,14 3.33334,0 6.66668,-14 10.00001,-14 3.33333,0 6.66666,14 9.99999,14 3.33333,0 6.66667,-14 10,-14 3.33333,0 6.66667,14 10,14 3.33334,0 6.66668,-14 10.00001,-14 3.33333,0 6.66666,14 9.99999,14 3.33333,0 6.66667,-14 10,-14 3.33333,0 6.66667,14 10,14 3.33334,0 6.66668,-14 10.00001,-14 3.33333,0 6.66666,14 9.99999,14 3.33333,0 6.66667,-14 10,-14 3.33333,0 6.66667,14 10,14 3.33334,0 6.66668,-14 10.00001,-14 3.33333,0 6.66666,14 9.99999,14 3.33333,0 6.66667,-14 10,-14 3.33333,0 6.66667,14 10,14 3.33334,0 6.66668,-14 10.00001,-14 3.33333,0 6.66666,14 9.99999,14 3.33333,0 6.66667,-14 10,-14 3.33333,0 7.23857,14 10,14 1.95262,0 4.16668,-5.83333 5.00001,-7"
       id="path948"
       inkscape:path-effect="#path-effect950"
       inkscape:original-d="m -469,241 5,7 10,-14 10,14 10.00001,-14 9.99999,14 10,-14 10,14 10.00001,-14 9.99999,14 10,-14 10,14 10.00001,-14 9.99999,14 10,-14 10,14 10.00001,-14 9.99999,14 10,-14 10,14 10.00001,-14 9.99999,14 10,-14 10,14 5.00001,-7"
       sodipodi:nodetypes="ccccccccccccccccccccccccc" />
    <path
       style="opacity:0.380645;fill:#ff0a0a;fill-rule:evenodd;stroke:#000000;stroke-width:4;stroke-linecap:square;stroke-linejoin:round;stroke-miterlimit:4;stroke-dasharray:none;stroke-opacity:1;stop-color:#000000"
       id="path1128"
       sodipodi:type="arc"
       sodipodi:cx="-181.82417"
       sodipodi:cy="89.812294"
       sodipodi:rx="63.384148"
       sodipodi:ry="63.384148"
       inkscape:path-effect="#path-effect1206"
       sodipodi:start="3.1415927"
       sodipodi:end="0"
       sodipodi:arc-type="arc"
       sodipodi:open="true"
       d="m -245.20832,89.812294 c 1.16667,-0.721473 7.00206,-2.299832 7.10329,-3.766673 0.0716,-1.037212 -3.26268,-2.629609 -6.46413,-4.623615 -3.20146,-1.994005 -6.25844,-4.395267 -5.89609,-5.947078 0.7247,-3.103622 14.79212,-1.741218 15.71306,-4.105313 0.92096,-2.364102 -10.43342,-10.829956 -8.91644,-13.606369 1.51699,-2.776414 14.80281,2.280447 16.32879,0.199411 1.52598,-2.081037 -7.37393,-13.212418 -5.20776,-15.518522 2.16617,-2.306105 13.8331,5.894093 15.82101,4.239215 1.98792,-1.654883 -3.90642,-14.614486 -1.23416,-16.307181 2.67225,-1.692694 11.88296,9.099749 14.18971,8.01413 2.30675,-1.085619 -0.0309,-15.036138 3.00432,-15.972322 3.03523,-0.936185 8.95244,11.89739 11.43492,11.52413 2.48246,-0.373257 4.25254,-14.477098 7.50763,-14.513961 0,10e-7 0,0 0,0 0,0 5e-5,6.2e-5 5e-5,6.2e-5 3.25516,0.03652 5.02523,14.140653 7.50771,14.51392 2.48248,0.373266 8.39972,-12.460293 11.43495,-11.5241 3.03524,0.936192 0.69754,14.886705 3.00428,15.97233 2.30675,1.085628 11.5175,-9.706788 14.18975,-8.014086 2.67225,1.692701 -3.22213,14.652285 -1.23422,16.307168 1.98791,1.654883 13.65486,-6.545289 15.82102,-4.23918 2.16617,2.30611 -6.73377,13.43747 -5.20779,15.51851 1.52598,2.081046 14.81181,-2.975774 16.32879,-0.199356 1.51698,2.776417 -9.83742,11.242233 -8.91648,13.60633 0.92094,2.364097 14.98836,1.001729 15.71306,4.105353 0.36234,1.551812 -2.69465,3.953064 -5.89611,5.94706 -3.20146,1.993996 -6.53573,3.586385 -6.46415,4.623601 0.10123,1.466841 5.93662,3.045225 7.10328,3.766702" />
  </g>
</svg>
