<svg version="1.1" viewBox="0 0 512 512" xmlns="http://www.w3.org/2000/svg">
  <path fill="none" stroke="#000" stroke-width="5" d="m112 329.69c1.4793-0.86595 5.5259-2.2363 9.4836-3.7761 3.8788-1.5091 7.4295-3.0587 7.5426-4.7116 0.15991-2.3376-7.862-5.9769-15.574-10.574s-15.087-10.165-14.258-13.711c1.6567-7.0928 35.31-3.4734 37.388-8.8062 2.0783-5.3329-25.328-25.319-21.864-31.66s35.152 6.105 38.598 1.4078c3.4455-4.6972-18.15-31.128-13.204-36.394 4.9463-5.2661 32.678 14.667 37.165 10.931s-9.9568-34.622-3.8534-38.487c6.1035-3.8651 27.887 22.214 33.092 19.763 5.2044-2.4506-0.74757-35.799 6.188-37.938 6.9355-2.139 20.78 28.745 26.377 27.905 5.5962-0.83961 9.4776-34.66 16.92-34.748l2e-5 2e-5c7.4425 0.0878 11.324 33.908 16.92 34.748 5.5962 0.83961 19.441-30.044 26.377-27.905 6.9355 2.139 0.98353 35.488 6.188 37.938 5.2044 2.4506 26.988-23.629 33.092-19.763 6.1035 3.8651-8.3408 34.751-3.8534 38.487 4.4875 3.7364 32.219-16.197 37.165-10.931 4.9463 5.2661-16.649 31.697-13.204 36.394s35.133-7.7498 38.598-1.4078-23.942 26.328-21.864 31.66c2.0783 5.3328 35.732 1.7135 37.388 8.8062 0.82833 3.5464-6.5463 9.1144-14.258 13.711-7.7122 4.5969-15.734 8.2362-15.574 10.574 0.11308 1.6529 3.6639 3.2026 7.5426 4.7117 3.9577 1.5398 8.0043 2.9102 9.4836 3.7761"/>
  <path fill="none" stroke="#000" stroke-width="5" d="m16 330.57h480"/>
  <path d="m233.69 315.64 44.629 14.937-44.629 14.937c7.1299-8.819 7.0888-20.885 0-29.874z"/>
</svg>
