<?xml version="1.0" encoding="UTF-8" standalone="no"?>
<svg
   xmlns:dc="http://purl.org/dc/elements/1.1/"
   xmlns:cc="http://creativecommons.org/ns#"
   xmlns:rdf="http://www.w3.org/1999/02/22-rdf-syntax-ns#"
   xmlns:svg="http://www.w3.org/2000/svg"
   xmlns="http://www.w3.org/2000/svg"
   xmlns:xlink="http://www.w3.org/1999/xlink"
   xmlns:sodipodi="http://sodipodi.sourceforge.net/DTD/sodipodi-0.dtd"
   xmlns:inkscape="http://www.inkscape.org/namespaces/inkscape"
   width="512"
   height="512"
   viewBox="0 0 511.99998 512"
   version="1.1"
   id="svg8"
   inkscape:version="1.0.1 (3bc2e813f5, 2020-09-07)"
   sodipodi:docname="2-vectorized.svg">
  <defs
     id="defs2" />
  <sodipodi:namedview
     id="base"
     pagecolor="#ffffff"
     bordercolor="#666666"
     borderopacity="1.0"
     inkscape:pageopacity="0.0"
     inkscape:pageshadow="2"
     inkscape:zoom="0.70710678"
     inkscape:cx="-226.49588"
     inkscape:cy="213.83951"
     inkscape:document-units="px"
     inkscape:current-layer="layer2"
     inkscape:document-rotation="0"
     showgrid="false"
     inkscape:snap-page="false"
     inkscape:object-paths="false"
     units="px"
     inkscape:showpageshadow="false"
     objecttolerance="20"
     width="24mm"
     inkscape:window-width="1920"
     inkscape:window-height="1017"
     inkscape:window-x="-8"
     inkscape:window-y="-8"
     inkscape:window-maximized="1"
     showguides="true"
     inkscape:guide-bbox="true"
     inkscape:lockguides="true">
    <inkscape:grid
       type="xygrid"
       id="grid10"
       empspacing="4"
       originx="0"
       originy="0"
       dotted="false" />
    <sodipodi:guide
       position="13.716518,220.08035"
       orientation="0,-1"
       id="guide908"
       inkscape:locked="true" />
    <sodipodi:guide
       position="15.821514,220.08035"
       orientation="0.51204286,-0.8589599"
       id="guide910"
       inkscape:label=""
       inkscape:locked="true"
       inkscape:color="rgb(0,0,255)" />
    <sodipodi:guide
       position="264.53867,368.70305"
       orientation="-0.8589599,-0.51204286"
       id="guide914"
       inkscape:label=""
       inkscape:locked="true"
       inkscape:color="rgb(0,0,255)" />
    <sodipodi:guide
       position="278.53376,345.22606"
       orientation="0.51204286,-0.8589599"
       id="guide918"
       inkscape:locked="true" />
    <sodipodi:guide
       position="85.999998,220.08035"
       orientation="0.51204286,-0.8589599"
       id="guide920"
       inkscape:locked="true" />
    <sodipodi:guide
       position="342.77,341.23371"
       orientation="0.51204286,-0.8589599"
       id="guide922"
       inkscape:locked="true" />
    <sodipodi:guide
       position="348.60153,344.71"
       orientation="-0.8589599,-0.51204286"
       id="guide924"
       inkscape:locked="true" />
    <sodipodi:guide
       position="386.34427,399.12147"
       orientation="-0.8589599,-0.51204286"
       id="guide928"
       inkscape:locked="true" />
    <sodipodi:guide
       position="404.6335,367.7392"
       orientation="0.51204286,-0.8589599"
       id="guide947"
       inkscape:locked="true" />
    <sodipodi:guide
       position="316.16578,399.12147"
       orientation="0,-1"
       id="guide952"
       inkscape:locked="true" />
  </sodipodi:namedview>
  <metadata
     id="metadata5">
    <rdf:RDF>
      <cc:Work
         rdf:about="">
        <dc:format>image/svg+xml</dc:format>
        <dc:type
           rdf:resource="http://purl.org/dc/dcmitype/StillImage" />
        <dc:title />
      </cc:Work>
    </rdf:RDF>
  </metadata>
  <g
     inkscape:label="bg"
     inkscape:groupmode="layer"
     id="layer1"
     style="display:none;opacity:1"
     sodipodi:insensitive="true">
    <image
       width="480"
       height="227.51859"
       preserveAspectRatio="none"
       xlink:href="1-original.png"
       id="image18"
       x="16"
       y="142.24071"
       style="display:inline" />
  </g>
  <g
     inkscape:groupmode="layer"
     id="layer2"
     inkscape:label="vector"
     style="display:inline">
    <path
       style="display:inline;opacity:1;fill:#191919;fill-opacity:1;stroke:none;stroke-width:0.713224"
       d="m 441.64707,365.0039 c 11.83063,7.10594 30.41925,7.55716 43.04283,0.19237 7.30507,-4.26189 13.94568,-13.58671 9.19771,-21.86818 -6.38127,-11.13032 -26.74299,-9.19267 -36.53785,-17.55002 -10.79699,-9.21241 2.92362,-18.53728 13.47638,-18.12802 7.73015,0.29979 11.40604,2.80444 15.304,8.59945 l 1.99335,-0.0428 c 0.60766,-3.43206 1.98361,-5.5954 3.29793,-7.61413 -10.59851,-6.02461 -26.7018,-5.92991 -37.71267,-1.06881 -7.39317,3.26395 -12.72668,11.26677 -9.27548,19.34478 6.04584,14.15113 28.79694,10.26401 38.45374,20.54689 6.76365,7.20216 -3.07362,17.10323 -10.76069,18.11244 -8.96635,1.17716 -24.3246,-1.66049 -26.43928,-9.29762 l -1.67932,-0.009 c -0.0311,4.25017 -0.9872,6.88159 -2.36065,8.78265 z M 52.87665,363.1303 c -24.213813,-5.99356 -30.930004,-36.14965 -9.27192,-48.92363 17.21277,-10.15212 40.063906,-6.48931 52.06538,1.96351 l 3.278063,-7.51065 c -11.50188,-2.23025 -23.619789,-4.17821 -35.373163,-3.89024 -7.954016,0.19489 -16.660448,2.1251 -24.249624,4.59173 -18.954423,6.16055 -30.8540721,31.03378 -12.827555,47.24898 11.637642,10.46828 27.721865,12.21763 44.171939,11.8781 11.058333,-0.22825 25.368748,-4.69934 25.408204,-4.62042 0,0 0.77209,-3.73696 1.078548,-5.94825 -11.534565,6.06462 -26.95075,9.50029 -44.279872,5.21087 z m 172.6003,-57.65849 c 1.91734,21.30759 1.8263,42.16941 0,62.76375 h 13.55127 l -1.02466,-29.95542 5.17585,0.0437 c 12.19176,9.23488 23.38077,19.55666 34.15382,29.85558 0,0 11.678,0.0561 15.81181,0.0561 l -35.75908,-30.07193 -0.0692,-1.164 c 8.18842,-0.77949 16.59431,-2.40107 22.94434,-8.32306 7.8473,-7.31834 4.18795,-17.89665 -5.5717,-20.73344 -15.79612,-4.59139 -32.24406,-0.64247 -49.21249,-2.47132 m 116.25558,0 c 2.12883,21.77278 2.54255,36.75004 0,62.76375 h 48.76711 l 0.0882,-4.90328 -36.0173,1.33716 -0.53466,-27.10253 32.62975,0.71323 v -5.7058 l -32.54046,0.84715 0.44537,-23.67033 35.30407,1.15965 0.13393,-5.48364 -48.27604,0.0446 m -191.85736,0.71323 c 2.12489,22.78053 1.67327,43.30661 0,62.76375 5.83859,0.14632 10.24959,0.0887 14.44306,0 -1.95467,-21.31218 -1.60974,-42.16445 0,-62.76375 -4.94536,0.65503 -9.73526,0.53279 -14.44306,0 m 87.7266,28.52897 0.71322,-25.67608 c 8.74556,0 20.75269,-2.03696 28.52612,2.84934 7.00743,4.40416 6.91186,13.81016 -0.008,18.21361 -8.68707,5.52749 -19.40327,4.61313 -29.2315,4.61313 z"
       id="path24"
       sodipodi:nodetypes="csssscccsssscccssccssssccscccccccccssccccccccccccccccccccccccc" />
    <path
       style="display:inline;opacity:1;fill:#242657;fill-opacity:1;stroke:none;stroke-width:0.713224"
       d="M 156.93347,291.91965 H 493.07421 L 404.94218,144.07679 Z"
       id="path24-8"
       sodipodi:nodetypes="cccc" />
    <path
       style="display:inline;opacity:1;fill:#1b7751;fill-opacity:1;stroke:none;stroke-width:0.713224"
       d="m 86,291.91965 53.53335,0 209.06819,-124.62966 -14.0358,-23.54526 z"
       id="path24-82"
       sodipodi:nodetypes="ccccc" />
    <path
       style="display:inline;opacity:1;fill:#40a2bb;fill-opacity:1;stroke:none;stroke-width:0.713224"
       d="M 15.821514,291.91965 68.743196,291.73697 278.53377,166.77393 264.69592,143.56073 Z"
       id="path24-3"
       sodipodi:nodetypes="ccccc" />
  </g>
</svg>
