<?xml version="1.0" encoding="UTF-8"?>
<svg width="512" height="512" version="1.1" viewBox="0 0 512 512" xmlns="http://www.w3.org/2000/svg">
  <path fill="#191919" d="m441.11 339.96c11.831 7.1059 30.419 7.5572 43.043 0.19237 7.3051-4.2619 13.946-13.587 9.1977-21.868-6.3813-11.13-26.743-9.1927-36.538-17.55-10.797-9.2124 2.9236-18.537 13.476-18.128 7.7302 0.29979 11.406 2.8044 15.304 8.5994l1.9934-0.0428c0.60766-3.4321 1.9836-5.5954 3.2979-7.6141-10.599-6.0246-26.702-5.9299-37.713-1.0688-7.3932 3.264-12.727 11.267-9.2755 19.345 6.0458 14.151 28.797 10.264 38.454 20.547 6.7636 7.2022-3.0736 17.103-10.761 18.112-8.9664 1.1772-24.325-1.6605-26.439-9.2976l-1.6793-9e-3c-0.0311 4.2502-0.9872 6.8816-2.3606 8.7826zm-388.77-1.8736c-24.214-5.9936-30.93-36.15-9.2719-48.924 17.213-10.152 40.064-6.4893 52.065 1.9635l3.2781-7.5106c-11.502-2.2302-23.62-4.1782-35.373-3.8902-7.954 0.19489-16.66 2.1251-24.25 4.5917-18.954 6.1606-30.854 31.034-12.828 47.249 11.638 10.468 27.722 12.218 44.172 11.878 11.058-0.22825 25.369-4.6993 25.408-4.6204 0 0 0.77209-3.737 1.0785-5.9482-11.535 6.0646-26.951 9.5003-44.28 5.2109zm172.6-57.658c1.9173 21.308 1.8263 42.169 0 62.764h13.551l-1.0247-29.955 5.1758 0.0437c12.192 9.2349 23.381 19.557 34.154 29.856 0 0 11.678 0.0561 15.812 0.0561l-35.759-30.072-0.0692-1.164c8.1884-0.77949 16.594-2.4011 22.944-8.3231 7.8473-7.3183 4.188-17.897-5.5717-20.733-15.796-4.5914-32.244-0.64247-49.212-2.4713m116.26 0c2.1288 21.773 2.5426 36.75 0 62.764h48.767l0.0882-4.9033-36.017 1.3372-0.53466-27.103 32.63 0.71323v-5.7058l-32.54 0.84715 0.44537-23.67 35.304 1.1596 0.13393-5.4836-48.276 0.0446m-191.86 0.71323c2.1249 22.781 1.6733 43.307 0 62.764 5.8386 0.14632 10.25 0.0887 14.443 0-1.9547-21.312-1.6097-42.164 0-62.764-4.9454 0.65503-9.7353 0.53279-14.443 0m87.727 28.529 0.71322-25.676c8.7456 0 20.753-2.037 28.526 2.8493 7.0074 4.4042 6.9119 13.81-8e-3 18.214-8.6871 5.5275-19.403 4.6131-29.232 4.6131z"/>
  <path fill="#242657" d="m158.48 266.88h336.14l-88.132-147.84z"/>
  <path fill="#1b7751" d="m87.554 266.88h53.533l209.07-124.63-14.036-23.545z"/>
  <path fill="#40a2bb" d="m17.376 266.88 52.922-0.18268 209.79-124.96-13.838-23.213z"/>
</svg>
