<?xml version="1.0" encoding="UTF-8" standalone="no"?>
<svg
   xmlns:dc="http://purl.org/dc/elements/1.1/"
   xmlns:cc="http://creativecommons.org/ns#"
   xmlns:rdf="http://www.w3.org/1999/02/22-rdf-syntax-ns#"
   xmlns:svg="http://www.w3.org/2000/svg"
   xmlns="http://www.w3.org/2000/svg"
   xmlns:xlink="http://www.w3.org/1999/xlink"
   xmlns:sodipodi="http://sodipodi.sourceforge.net/DTD/sodipodi-0.dtd"
   xmlns:inkscape="http://www.inkscape.org/namespaces/inkscape"
   width="512"
   height="512"
   viewBox="0 0 511.99998 512"
   version="1.1"
   id="svg8"
   inkscape:version="1.0.1 (3bc2e813f5, 2020-09-07)"
   sodipodi:docname="2-vectorized - Copy.svg">
  <defs
     id="defs2" />
  <sodipodi:namedview
     id="base"
     pagecolor="#ffffff"
     bordercolor="#666666"
     borderopacity="1.0"
     inkscape:pageopacity="0.0"
     inkscape:pageshadow="2"
     inkscape:zoom="1.4"
     inkscape:cx="156.12115"
     inkscape:cy="252.09454"
     inkscape:document-units="px"
     inkscape:current-layer="layer3"
     inkscape:document-rotation="0"
     showgrid="false"
     inkscape:snap-page="false"
     inkscape:object-paths="false"
     units="px"
     inkscape:showpageshadow="false"
     objecttolerance="20"
     width="24mm"
     inkscape:window-width="1920"
     inkscape:window-height="1017"
     inkscape:window-x="-8"
     inkscape:window-y="-8"
     inkscape:window-maximized="1"
     inkscape:snap-midpoints="false"
     inkscape:object-nodes="false">
    <inkscape:grid
       type="xygrid"
       id="grid10"
       empspacing="4"
       originx="0"
       originy="0"
       dotted="false" />
  </sodipodi:namedview>
  <metadata
     id="metadata5">
    <rdf:RDF>
      <cc:Work
         rdf:about="">
        <dc:format>image/svg+xml</dc:format>
        <dc:type
           rdf:resource="http://purl.org/dc/dcmitype/StillImage" />
        <dc:title />
      </cc:Work>
    </rdf:RDF>
  </metadata>
  <g
     inkscape:label="bg"
     inkscape:groupmode="layer"
     id="layer1"
     style="display:inline;opacity:0.61217949"
     sodipodi:insensitive="true">
    <image
       width="266.66666"
       height="257.33334"
       preserveAspectRatio="none"
       xlink:href="1-original.png"
       id="image18"
       x="133.33334"
       y="110.66666" />
  </g>
  <g
     inkscape:groupmode="layer"
     id="layer3"
     inkscape:label="3"
     style="display:inline">
    <path
       id="path33"
       style="fill:#2d6573;fill-opacity:1;fill-rule:evenodd;stroke:none;stroke-width:0.99405;stroke-linejoin:round;stroke-miterlimit:4;stroke-dasharray:none;stroke-opacity:1;stop-color:#000000"
       d="M 200.84961 111.75195 A 77.493097 60.805893 14.049326 0 0 133.86914 157.01758 A 77.493097 60.805893 14.049326 0 0 197.52148 233.29883 A 77.493097 60.805893 14.049326 0 0 285.19531 190.31445 A 77.493097 60.805893 14.049326 0 0 221.54297 114.0332 A 77.493097 60.805893 14.049326 0 0 200.84961 111.75195 z M 177.46289 131.98242 A 59.813424 24.141488 38.932772 0 1 226.94336 154.62695 A 59.813424 24.141488 38.932772 0 1 259.27344 211.2832 A 59.813424 24.141488 38.932772 0 1 198.08008 193.37109 A 59.813424 24.141488 38.932772 0 1 165.74805 136.71289 A 59.813424 24.141488 38.932772 0 1 177.46289 131.98242 z " />
    <path
       style="fill:#2d6573;fill-opacity:1;stroke:none;stroke-width:1px;stroke-linecap:butt;stroke-linejoin:miter;stroke-opacity:1"
       d="m 276.80337,209.32609 c 14.33996,8.33395 46.05653,24.39795 72.83568,24.39795 24.30264,0 40.78495,-9.79431 40.78495,-26.76904 v -95.08061 h -50.00259 v 81.06474 c 0,16.51166 -13.43581,19.41994 -23.29216,16.47363 -14.53637,-4.34529 -23.34117,-12.12808 -31.77401,-19.92673"
       id="path900"
       sodipodi:nodetypes="csccccsc" />
    <path
       style="display:inline;fill:#e38e3a;fill-opacity:1;stroke:none;stroke-width:1px;stroke-linecap:butt;stroke-linejoin:miter;stroke-opacity:1"
       d="m 139.59046,249.57082 c 2.98582,-1.03171 9.89541,30.10658 34.29999,27.29764 47.0604,-5.41659 70.18296,-71.91415 107.18449,-71.17614 10.5436,0.2103 22.95104,3.55058 45.64367,32.01169 4.01153,5.03126 9.88996,11.07258 16.47437,15.85063 4.44505,3.2256 13.01205,1.57424 14.35506,0.34183 2.66017,-1.26658 4.90255,-5.44141 1.89404,-6.39377 -12.39804,-3.92467 -12.68727,-11.7753 -11.24561,-12.88711 4.84037,-3.7329 18.139,5.18643 25.2938,13.32779 10.62479,0.18589 9.53901,6.57385 26.17662,13.72911 3.76557,1.61944 -1.70486,6.47706 -1.70486,6.47706 -8.28289,1.79439 -15.78124,0.84265 -20.80902,0.20921 -16.88947,-2.12785 -18.04926,19.29929 -40.66761,28.14269 -1.93293,0.75574 -13.74253,16.84955 -20.30766,23.59064 -3.20085,3.28664 -8.69908,3.21798 -10.74326,1.09883 -3.52185,-3.65101 -1.49715,-9.65746 1.08985,-10.84117 0,0 2.61264,2.38722 3.59382,5.34587 2.8138,-2.85864 5.32083,-4.80178 8.01228,-10.01355 5.843,-12.88464 -2.49606,-11.37737 -6.71393,-19.47474 -16.04129,15.18991 -13.17505,8.57562 -13.02737,46.46569 0.0194,4.97873 4.2337,7.82948 7.34155,9.10931 4.58278,1.88722 43.19306,14.49806 65.66997,23.17223 1.57645,0.60837 1.80203,3.74348 -0.11992,3.53554 -30.64369,-3.31537 -55.3499,-9.24734 -80.86822,-17.93021 -1.83035,-0.6228 -3.59452,-1.67276 -4.16053,-3.06744 -0.76092,-1.87496 0.6967,-2.93085 1.53055,-3.8187 -1.1722,-10.46338 -9.91541,-32.71003 -15.92523,-49.21429 -13.72139,-0.33829 -26.13299,-29.31898 -31.52131,-27.86849 -21.64173,9.62202 -51.06483,23.81243 -72.14342,19.51608 -10.53147,-2.14658 -21.52853,-9.90531 -27.78137,-24.85636 -2.64669,-4.54777 -3.61533,-10.71425 -0.82074,-11.67989 z"
       id="path861-9"
       sodipodi:nodetypes="ssssscsscssssssccccsssssscccscss" />
  </g>
</svg>
