<?xml version="1.0" encoding="UTF-8"?>
<svg width="512" height="512" version="1.1" viewBox="0 0 512 512" xmlns="http://www.w3.org/2000/svg">
  <path fill="#2d6573" d="m157.36 76.446c-51.019-0.0519-91.896 27.573-99.946 67.543-9.8964 49.144 32.627 100.1 94.98 113.82 62.353 13.721 120.92-14.996 130.82-64.139 9.896-49.144-32.627-100.1-94.979-113.82-10.215-2.248-20.602-3.3932-30.878-3.404zm-34.897 30.187c19.13-0.142 47.642 12.906 73.833 33.789 38.535 30.726 60.133 68.575 48.241 84.54-11.893 15.965-52.773 3.998-91.31-26.727-18.506-14.756-33.986-31.952-43.034-47.807-9.047-15.855-10.922-29.07-5.21-36.736 3.412-4.5804 9.404-6.9997 17.48-7.0591z"/>
  <path fill="#2d6573" d="m270.69 222.04c21.397 12.436 68.724 36.406 108.68 36.406 36.264 0 60.858-14.615 60.858-39.944v-141.88h-74.612v120.96c0 24.638-20.048 28.978-34.755 24.581-21.691-6.484-34.829-18.097-47.412-29.734"/>
  <path fill="#e38e3a" d="m65.95 282.09c4.4553-1.54 14.766 44.923 51.181 40.732 70.222-8.082 104.72-107.31 159.94-106.21 15.733 0.314 34.246 5.298 68.107 47.766 5.986 7.508 14.758 16.522 24.583 23.652 6.633 4.813 19.416 2.349 21.42 0.51 3.969-1.89 7.315-8.119 2.826-9.54-18.5-5.857-18.931-17.571-16.78-19.23 7.222-5.57 27.066 7.739 37.742 19.887 15.854 0.278 14.234 9.809 39.06 20.486 5.619 2.417-2.544 9.665-2.544 9.665-12.359 2.678-23.548 1.257-31.05 0.312-25.202-3.175-26.933 28.798-60.683 41.994-2.884 1.127-20.506 25.142-30.302 35.201-4.776 4.904-12.981 4.801-16.031 1.639-5.255-5.448-2.234-14.41 1.626-16.177 0 0 3.899 3.563 5.363 7.977 4.199-4.265 7.939-7.165 11.956-14.941 8.718-19.226-3.725-16.977-10.019-29.06-23.936 22.666-19.659 12.796-19.439 69.334 0.029 7.429 6.318 11.683 10.955 13.593 6.838 2.816 64.451 21.633 97.99 34.577 2.353 0.907 2.689 5.585-0.179 5.275-45.725-4.947-82.591-13.798-120.67-26.755-2.731-0.929-5.364-2.496-6.208-4.577-1.136-2.797 1.039-4.373 2.284-5.698-1.75-15.613-14.796-48.808-23.763-73.435-20.475-0.505-38.995-43.749-47.035-41.585-32.293 14.358-76.197 35.532-107.65 29.121-15.714-3.203-32.124-14.78-41.454-37.089-3.9493-6.786-5.3947-15.988-1.2247-17.428z"/>
</svg>
