<svg xmlns:xlink="http://www.w3.org/1999/xlink" viewBox="-220 -370 440 590" xmlns="http://www.w3.org/2000/svg">
  <circle fill="#1f1a17" stroke="#28166f" stroke-width=".4" r="8"/>
  <circle fill="none" stroke="#00923f" stroke-width="8" r="75"/>
  <circle fill="none" stroke="#00923f" stroke-width="8" r="211"/>
  <g fill="none" stroke="#1f1a17">
    <circle r="71"/>
    <circle r="79"/>
    <circle r="94"/>
    <circle r="152"/>
    <circle r="164"/>
    <circle r="215"/>
    <circle r="207"/>
  </g>
  <g id="s3">
    <g id="s2">
      <g id="s1">
        <path id="s0" fill="#1f1a17" stroke="#1f1a17" d="m39.416 95.16c-5.766 8.79-8.656 15.34-10.486 22.02-13.69-3.75-15.39 9.97-5.89 13.82-9.33 14.8-15.2 42.93-23.04 81v-109a103 103 0 0 0 39.416-7.84z" stroke-miterlimit="9"/>
        <use xlink:href="#s0" fill="#007cc3" transform="scale(-1 1)"/>
        <path fill="#da251d" stroke="#1b1b1b" d="m-31.995 160.849a164 164 0 0 0 63.99 0c-13.095 9.251-23.595 14.451-31.995 45.151-8.4-30.7-18.9-35.9-31.995-45.151z" transform="matrix(.92387953 .38268343 -.38268343 .92387953 0 0)"/>
      </g>
      <use xlink:href="#s1" transform="matrix(.70710678 .70710678 -.70710678 .70710678 0 0)"/>
    </g>
    <use xlink:href="#s2" transform="rotate(90)"/>
  </g>
  <use xlink:href="#s3" transform="scale(-1)"/>
  <g id="flr" fill="#da251d" stroke="#1f1a17">
    <path fill="#28166f" stroke="#1f1a17" stroke-width=".7" d="m0-215.7v-129.6c2 6 4.6 13.3 6.6 17.6 2.1 4.6 4.6 8 7.5 12.8-2.8 3.9-5.2 7.4-8.1 12.3-2.7 5.7-4.6 12.8-5.8 22.8l-.2 14.3 4.1-.3c5.8-.5 4.4-14.1 6.2-19.9 1.5-5.3 3.6-10 8.1-12.2 4.1-2.1 9.5-1.7 13.8 0 3.9 1.4 6.8 5.1 9.1 8.6 1.7 2.8 2.6 6.2 2.7 9.5.1 3.2-.4 6.9-2.8 9.8-2.9 3.6-6.2 5-10.8 5.2-1.9-4.7.6-8.9-1.7-11.5-2.2-2.5-7.6-3.7-10.7-2.4-2.9 1.4-3.8 5.6-4.7 8.7-1.2 4.1.3 9.1-2.4 12.5-1.7 2.1-4 2.4-6.6 2.5h-4.3v4.2c0 3.3 5.9 1.5 8.5 3.7 2.2 1.8 1.9 8 4.4 9.4 4 2.2 9.8-1.4 13.8.8 2.9 1.6 4.2 4.9 6 7.7 1.9 2.8 3 5.6 4.2 8.8 1.5 4.3 6.3 17.3.4 9.8-2.2-2.8-6.1-3.8-9-5.9-3.4-2.3-6.4-5-9.9-7.1-2.8-1.7-6.2-2.5-9-4.3l-9.4-5.8v5.1c0 8.2 16 8.2 20.8 14.9 1.9 2.6-6.6-1-9.8-1.2z"/>
    <circle cx="37.2" cy="-248.2" r="8"/>
    <circle cx="27.9" cy="-312.7" r="8"/>
  </g>
  <circle fill="#da251d" stroke="#1f1a17" cy="-360" r="8"/>
  <use xlink:href="#flr" transform="scale(-1 1)"/>
</svg>
