<?xml version="1.0" encoding="UTF-8" standalone="no"?>
<svg
   xmlns:dc="http://purl.org/dc/elements/1.1/"
   xmlns:cc="http://creativecommons.org/ns#"
   xmlns:rdf="http://www.w3.org/1999/02/22-rdf-syntax-ns#"
   xmlns:svg="http://www.w3.org/2000/svg"
   xmlns="http://www.w3.org/2000/svg"
   xmlns:xlink="http://www.w3.org/1999/xlink"
   xmlns:sodipodi="http://sodipodi.sourceforge.net/DTD/sodipodi-0.dtd"
   xmlns:inkscape="http://www.inkscape.org/namespaces/inkscape"
   width="512"
   height="512"
   viewBox="0 0 511.99998 512"
   version="1.1"
   id="svg8"
   inkscape:version="1.0.1 (3bc2e813f5, 2020-09-07)"
   sodipodi:docname="2-vectorized.svg">
  <defs
     id="defs2">
    <inkscape:path-effect
       effect="fillet_chamfer"
       id="path-effect5522"
       is_visible="true"
       lpeversion="1"
       satellites_param="F,0,0,1,0,0.5,0,1 @ F,0,0,1,0,0.5,0,1 @ F,0,0,1,0,0.5,0,1 @ F,0,0,1,0,0.5,0,1 @ F,0,0,1,0,0.5,0,1 @ F,0,0,1,0,0.5,0,1 @ F,0,0,1,0,0.5,0,1 @ F,0,0,1,0,0.5,0,1 @ F,0,0,1,0,0.5,0,1"
       unit="px"
       method="auto"
       mode="F"
       radius="0.5"
       chamfer_steps="1"
       flexible="false"
       use_knot_distance="true"
       apply_no_radius="true"
       apply_with_radius="true"
       only_selected="false"
       hide_knots="false" />
    <inkscape:path-effect
       effect="fillet_chamfer"
       id="path-effect5518"
       is_visible="true"
       lpeversion="1"
       satellites_param="F,0,0,1,0,0.5,0,1 @ F,0,0,1,0,0.5,0,1 @ F,0,0,1,0,0.5,0,1 @ F,0,0,1,0,0.5,0,1 @ F,0,0,1,0,0.5,0,1 @ F,0,0,1,0,0.5,0,1 @ F,0,0,1,0,0.5,0,1 @ F,0,0,1,0,0.5,0,1 @ F,0,0,1,0,0.5,0,1"
       unit="px"
       method="auto"
       mode="F"
       radius="0.5"
       chamfer_steps="1"
       flexible="false"
       use_knot_distance="true"
       apply_no_radius="true"
       apply_with_radius="true"
       only_selected="false"
       hide_knots="false" />
    <inkscape:path-effect
       effect="fillet_chamfer"
       id="path-effect5514"
       is_visible="true"
       lpeversion="1"
       satellites_param="F,0,0,1,0,0.5,0,1 @ F,0,0,1,0,0.5,0,1 @ F,0,0,1,0,0.5,0,1 @ F,0,0,1,0,0.5,0,1 @ F,0,0,1,0,0.5,0,1 @ F,0,0,1,0,0.5,0,1 @ F,0,0,1,0,0.5,0,1 @ F,0,0,1,0,0.5,0,1 @ F,0,0,1,0,0.5,0,1"
       unit="px"
       method="auto"
       mode="F"
       radius="0.5"
       chamfer_steps="1"
       flexible="false"
       use_knot_distance="true"
       apply_no_radius="true"
       apply_with_radius="true"
       only_selected="false"
       hide_knots="false" />
    <inkscape:path-effect
       effect="fillet_chamfer"
       id="path-effect5510"
       is_visible="true"
       lpeversion="1"
       satellites_param="F,0,0,1,0,0.5,0,1 @ F,0,0,1,0,0.5,0,1 @ F,0,0,1,0,0.5,0,1 @ F,0,0,1,0,0.5,0,1 @ F,0,0,1,0,0.5,0,1 @ F,0,0,1,0,0.5,0,1 @ F,0,0,1,0,0.5,0,1 @ F,0,0,1,0,0.5,0,1 @ F,0,0,1,0,0.5,0,1"
       unit="px"
       method="auto"
       mode="F"
       radius="0.5"
       chamfer_steps="1"
       flexible="false"
       use_knot_distance="true"
       apply_no_radius="true"
       apply_with_radius="true"
       only_selected="false"
       hide_knots="false" />
    <inkscape:path-effect
       effect="fillet_chamfer"
       id="path-effect5506"
       is_visible="true"
       lpeversion="1"
       satellites_param="F,0,0,1,0,0.5,0,1 @ F,0,0,1,0,0.5,0,1 @ F,0,0,1,0,0.5,0,1 @ F,0,0,1,0,0.5,0,1 @ F,0,0,1,0,0.5,0,1 @ F,0,0,1,0,0.5,0,1 @ F,0,0,1,0,0.5,0,1 @ F,0,0,1,0,0.5,0,1 @ F,0,0,1,0,0.5,0,1"
       unit="px"
       method="auto"
       mode="F"
       radius="0.5"
       chamfer_steps="1"
       flexible="false"
       use_knot_distance="true"
       apply_no_radius="true"
       apply_with_radius="true"
       only_selected="false"
       hide_knots="false" />
    <inkscape:path-effect
       effect="fillet_chamfer"
       id="path-effect5502"
       is_visible="true"
       lpeversion="1"
       satellites_param="F,0,0,1,0,0.5,0,1 @ F,0,0,1,0,0.5,0,1 @ F,0,0,1,0,0.5,0,1 @ F,0,0,1,0,0.5,0,1 @ F,0,0,1,0,0.5,0,1 @ F,0,0,1,0,0.5,0,1 @ F,0,0,1,0,0.5,0,1 @ F,0,0,1,0,0.5,0,1 @ F,0,0,1,0,0.5,0,1"
       unit="px"
       method="auto"
       mode="F"
       radius="0.5"
       chamfer_steps="1"
       flexible="false"
       use_knot_distance="true"
       apply_no_radius="true"
       apply_with_radius="true"
       only_selected="false"
       hide_knots="false" />
    <inkscape:path-effect
       effect="fillet_chamfer"
       id="path-effect5498"
       is_visible="true"
       lpeversion="1"
       satellites_param="F,0,0,1,0,0.5,0,1 @ F,0,0,1,0,0.5,0,1 @ F,0,0,1,0,0.5,0,1 @ F,0,0,1,0,0.5,0,1 @ F,0,0,1,0,0.5,0,1 @ F,0,0,1,0,0.5,0,1 @ F,0,0,1,0,0.5,0,1 @ F,0,0,1,0,0.5,0,1 @ F,0,0,1,0,0.5,0,1"
       unit="px"
       method="auto"
       mode="F"
       radius="0.5"
       chamfer_steps="1"
       flexible="false"
       use_knot_distance="true"
       apply_no_radius="true"
       apply_with_radius="true"
       only_selected="false"
       hide_knots="false" />
    <inkscape:path-effect
       effect="fillet_chamfer"
       id="path-effect5409"
       is_visible="true"
       lpeversion="1"
       satellites_param="F,0,0,1,0,0.5,0,1 @ F,0,0,1,0,0.5,0,1 @ F,0,0,1,0,0.5,0,1 @ F,0,0,1,0,0.5,0,1 @ F,0,0,1,0,0.5,0,1 @ F,0,0,1,0,0.5,0,1 @ F,0,0,1,0,0.5,0,1 @ F,0,0,1,0,0.5,0,1 @ F,0,0,1,0,0.5,0,1"
       unit="px"
       method="auto"
       mode="F"
       radius="0.5"
       chamfer_steps="1"
       flexible="false"
       use_knot_distance="true"
       apply_no_radius="true"
       apply_with_radius="true"
       only_selected="false"
       hide_knots="false" />
    <inkscape:path-effect
       effect="fillet_chamfer"
       id="path-effect5405"
       is_visible="true"
       lpeversion="1"
       satellites_param="F,0,0,1,0,0.5,0,1 @ F,0,0,1,0,0.5,0,1 @ F,0,0,1,0,0.5,0,1 @ F,0,0,1,0,0.5,0,1 @ F,0,0,1,0,0.5,0,1 @ F,0,0,1,0,0.5,0,1 @ F,0,0,1,0,0.5,0,1 @ F,0,0,1,0,0.5,0,1 @ F,0,0,1,0,0.5,0,1"
       unit="px"
       method="auto"
       mode="F"
       radius="0.5"
       chamfer_steps="1"
       flexible="false"
       use_knot_distance="true"
       apply_no_radius="true"
       apply_with_radius="true"
       only_selected="false"
       hide_knots="false" />
    <inkscape:path-effect
       effect="fillet_chamfer"
       id="path-effect5397"
       is_visible="true"
       lpeversion="1"
       satellites_param="F,0,0,1,0,0.5,0,1 @ F,0,0,1,0,0.5,0,1 @ F,0,0,1,0,0.5,0,1 @ F,0,0,1,0,0.5,0,1 @ F,0,0,1,0,0.5,0,1 @ F,0,0,1,0,0.5,0,1 | F,0,0,1,0,0.5,0,1 @ F,0,0,1,0,0.5,0,1 @ F,0,0,1,0,0.5,0,1 @ F,0,0,1,0,0.5,0,1 @ F,0,0,1,0,0.5,0,1 @ F,0,0,1,0,0.5,0,1"
       unit="px"
       method="auto"
       mode="F"
       radius="0.5"
       chamfer_steps="1"
       flexible="false"
       use_knot_distance="true"
       apply_no_radius="true"
       apply_with_radius="true"
       only_selected="false"
       hide_knots="false" />
    <inkscape:path-effect
       effect="fillet_chamfer"
       id="path-effect5394"
       is_visible="true"
       lpeversion="1"
       satellites_param="F,0,0,1,0,0,0,1 @ F,0,0,1,0,0,0,1 @ F,0,0,1,0,0,0,1 @ F,0,0,1,0,0,0,1 @ F,0,0,1,0,0,0,1 @ F,0,0,1,0,0,0,1"
       unit="px"
       method="auto"
       mode="F"
       radius="0"
       chamfer_steps="1"
       flexible="false"
       use_knot_distance="true"
       apply_no_radius="true"
       apply_with_radius="true"
       only_selected="false"
       hide_knots="false" />
    <inkscape:path-effect
       effect="fillet_chamfer"
       id="path-effect5390"
       is_visible="true"
       lpeversion="1"
       satellites_param="F,0,0,1,0,0,0,1 @ F,0,0,1,0,0,0,1 @ F,0,0,1,0,0,0,1 @ F,0,0,1,0,0,0,1 @ F,0,0,1,0,0,0,1 @ F,0,0,1,0,0,0,1"
       unit="px"
       method="auto"
       mode="F"
       radius="0"
       chamfer_steps="1"
       flexible="false"
       use_knot_distance="true"
       apply_no_radius="true"
       apply_with_radius="true"
       only_selected="false"
       hide_knots="false" />
    <symbol
       id="RightArrow">
      <title
         id="title2273">Right Arrow</title>
      <path
         d="M 63,36 41,58 26,58 42,42 10,42 10,30 42,30 26,14 41,14 z"
         style="stroke:none"
         id="path2275" />
    </symbol>
  </defs>
  <sodipodi:namedview
     id="base"
     pagecolor="#ffffff"
     bordercolor="#666666"
     borderopacity="1.0"
     inkscape:pageopacity="0.0"
     inkscape:pageshadow="2"
     inkscape:zoom="2"
     inkscape:cx="245.05682"
     inkscape:cy="259.50705"
     inkscape:document-units="px"
     inkscape:current-layer="layer2"
     inkscape:document-rotation="0"
     showgrid="true"
     inkscape:snap-page="false"
     inkscape:object-paths="false"
     units="px"
     inkscape:showpageshadow="false"
     objecttolerance="20"
     width="24mm"
     inkscape:window-width="1920"
     inkscape:window-height="1017"
     inkscape:window-x="-8"
     inkscape:window-y="-8"
     inkscape:window-maximized="1"
     showguides="true"
     inkscape:guide-bbox="true"
     inkscape:snap-grids="true"
     inkscape:snap-smooth-nodes="true"
     inkscape:snap-midpoints="false">
    <inkscape:grid
       type="xygrid"
       id="grid10"
       empspacing="4"
       originx="0"
       originy="0"
       dotted="false" />
    <sodipodi:guide
       position="315.99999,72"
       orientation="-1,0"
       id="guide875"
       inkscape:label=""
       inkscape:locked="true"
       inkscape:color="rgb(0,0,255)" />
    <sodipodi:guide
       position="347.99999,124"
       orientation="1,0"
       id="guide885" />
    <sodipodi:guide
       position="354.99999,129"
       orientation="-0.93974906,-0.34186503"
       id="guide897" />
    <sodipodi:guide
       position="338.90617,121.82858"
       orientation="-0.95217873,-0.30554158"
       id="guide899" />
    <sodipodi:guide
       position="194,329.99999"
       orientation="1,0"
       id="guide910" />
    <sodipodi:guide
       position="363.99999,136"
       orientation="-0.93974906,-0.34186503"
       id="guide5524" />
  </sodipodi:namedview>
  <metadata
     id="metadata5">
    <rdf:RDF>
      <cc:Work
         rdf:about="">
        <dc:format>image/svg+xml</dc:format>
        <dc:type
           rdf:resource="http://purl.org/dc/dcmitype/StillImage" />
        <dc:title />
      </cc:Work>
    </rdf:RDF>
  </metadata>
  <g
     inkscape:label="bg"
     inkscape:groupmode="layer"
     id="layer1"
     style="display:inline"
     sodipodi:insensitive="true">
    <image
       width="629.76001"
       height="402.56"
       preserveAspectRatio="none"
       xlink:href="1-original.png"
       id="image841"
       x="122.23999"
       y="45.440002"
       style="display:inline" />
  </g>
  <g
     inkscape:groupmode="layer"
     id="layer2"
     inkscape:label="vector"
     style="display:inline">
    <path
       style="fill:none;stroke:#000000;stroke-width:1;stroke-linecap:butt;stroke-linejoin:miter;stroke-opacity:1;stroke-miterlimit:4;stroke-dasharray:none;opacity:0.4"
       d="m 164,213 v 45"
       id="path5540" />
    <path
       style="opacity:0.4;fill:none;stroke:#000000;stroke-width:1;stroke-linecap:butt;stroke-linejoin:miter;stroke-miterlimit:4;stroke-dasharray:none;stroke-opacity:1"
       d="m 224,213 v 45"
       id="path5542" />
    <path
       style="fill:#ee5c48;fill-opacity:1;stroke:none;stroke-width:1px;stroke-linecap:butt;stroke-linejoin:miter;stroke-opacity:1"
       d="m 161,221 h 66 v 2 h -66 z"
       id="path5538" />
    <path
       style="fill:#ee5c48;fill-opacity:1;stroke:none;stroke-width:1px;stroke-linecap:butt;stroke-linejoin:miter;stroke-opacity:1"
       d="m 161,214 h 66 v 2 h -66 z"
       id="path5534" />
    <path
       style="fill:#25a1ea;fill-opacity:1;stroke:none;stroke-width:1px;stroke-linecap:butt;stroke-linejoin:miter;stroke-opacity:1"
       d="m 161,239 h 66 v 2 h -66 z"
       id="path5532" />
    <path
       style="fill:#25a1ea;stroke:none;stroke-width:1px;stroke-linecap:butt;stroke-linejoin:miter;stroke-opacity:1;fill-opacity:1"
       d="m 161,255 h 66 v 2 h -66 z"
       id="path5530" />
    <path
       style="fill:#ee5c48;fill-opacity:1;stroke:none;stroke-width:1px;stroke-linecap:butt;stroke-linejoin:miter;stroke-opacity:1"
       d="m 161,228 h 66 v 2 h -66 z"
       id="path5536" />
    <path
       style="fill:#25a1ea;fill-opacity:1;stroke:none;stroke-width:1px;stroke-linecap:butt;stroke-linejoin:miter;stroke-opacity:1"
       d="m 161,247 h 66 v 2 h -66 z"
       id="path5528" />
    <path
       style="fill:none;stroke:#000000;stroke-width:1px;stroke-linecap:butt;stroke-linejoin:miter;stroke-opacity:1"
       d="m 227,260 v 8 h 15 v 5 h 41 v -65 h 25 c 0,-9 -3,-13 -7,-13 h -52 c -5.5,0 -17.5,-11 -17.5,-23"
       id="path5455"
       sodipodi:nodetypes="cccccccssc" />
    <path
       style="fill:none;stroke:#000000;stroke-width:1px;stroke-linecap:butt;stroke-linejoin:miter;stroke-opacity:1"
       d="M 248.21037,169.67063 C 249.25435,173.21351 250.42548,178 253.99999,178 H 301 c 15,0 24,12 24,30 h 24 v 126 l 15,42.00001 V 404 l -14,36 h -34"
       id="path851"
       sodipodi:nodetypes="cssccccccc" />
    <path
       style="fill:none;stroke:#000000;stroke-width:1px;stroke-linecap:butt;stroke-linejoin:miter;stroke-opacity:1"
       d="m 234,325 h -2 v -7 h -6 l -4,-10 h -34 c 0,0 -27,-15.04099 -27,-32 v -65 l 18,-16 v -26 h -3 c 0,0 8.66025,-56 10,-61 1.0718,-4 2,-8 8,-8"
       id="path905"
       sodipodi:nodetypes="ccccccsccccsc" />
    <g
       id="g873"
       transform="matrix(-1,0,0,1,632,0)" />
    <path
       style="fill:none;stroke:#000000;stroke-width:1px;stroke-linecap:butt;stroke-linejoin:miter;stroke-opacity:1"
       d="m 316,315 h -29 v -48 h 29"
       id="path877" />
    <path
       style="fill:none;stroke:#000000;stroke-width:1px;stroke-linecap:butt;stroke-linejoin:miter;stroke-opacity:1"
       d="m 316,315 h 29 v -48 h -29"
       id="path879" />
    <circle
       style="fill:#5ac265;fill-rule:evenodd;stroke:#00e500;stroke-width:1;stroke-miterlimit:4;stroke-dasharray:none;stop-color:#000000"
       id="path881"
       cx="316"
       cy="388"
       r="13.999996" />
    <circle
       style="fill:#5ac265;fill-rule:evenodd;stroke:#00e500;stroke-width:1;stroke-miterlimit:4;stroke-dasharray:none;stop-color:#000000"
       id="circle883"
       cx="347.60715"
       cy="388"
       r="9" />
    <circle
       style="fill:#5ac265;fill-rule:evenodd;stroke:#00e500;stroke-width:1;stroke-miterlimit:4;stroke-dasharray:none;stop-color:#000000"
       id="path887"
       cx="316"
       cy="296"
       r="6.9999962" />
    <path
       style="fill:none;stroke:#00e500;stroke-width:1px;stroke-linecap:butt;stroke-linejoin:miter;stroke-opacity:1"
       d="m 316,374 32,5"
       id="path889" />
    <path
       style="fill:none;stroke:#00e500;stroke-width:1px;stroke-linecap:butt;stroke-linejoin:miter;stroke-opacity:1"
       d="m 316,402 32,-5"
       id="path891" />
    <path
       style="fill:none;stroke:#000000;stroke-width:1px;stroke-linecap:butt;stroke-linejoin:miter;stroke-opacity:1"
       d="M 355,383 330.26273,315"
       id="path893"
       sodipodi:nodetypes="cc" />
    <path
       style="fill:none;stroke:#000000;stroke-width:1px;stroke-linecap:butt;stroke-linejoin:miter;stroke-opacity:1"
       d="M 334.67964,377 314.78466,315"
       id="path895"
       sodipodi:nodetypes="cc" />
    <path
       style="fill:none;stroke:#000000;stroke-width:1px;stroke-linecap:butt;stroke-linejoin:miter;stroke-opacity:1"
       d="m 316,220 h -11 v -2 h 2 l 8,-5 v -36 c 0,0 -10e-6,-2 1,-2"
       id="path901" />
    <path
       style="fill:none;stroke:#000000;stroke-width:1px;stroke-linecap:butt;stroke-linejoin:miter;stroke-opacity:1"
       d="m 316,220 h 11 v -2 h -2 l -8,-5 v -36 c 0,0 10e-6,-2 -1,-2"
       id="path903" />
    <path
       style="fill:none;stroke:#000000;stroke-width:1px;stroke-linecap:butt;stroke-linejoin:miter;stroke-opacity:1"
       d="m 161,260 h -4 l -6,-9 v -17 h 10"
       id="path916" />
    <path
       style="fill:none;stroke:#000000;stroke-width:1px;stroke-linecap:butt;stroke-linejoin:miter;stroke-opacity:1"
       d="m 161,211 h -4 l -6,9 v 14"
       id="path918"
       sodipodi:nodetypes="cccc" />
    <path
       style="fill:none;stroke:#000000;stroke-width:1px;stroke-linecap:butt;stroke-linejoin:miter;stroke-opacity:1"
       d="m 151,251 h -4 v -8 h 4"
       id="path920" />
    <path
       style="fill:none;stroke:#000000;stroke-width:1px;stroke-linecap:butt;stroke-linejoin:miter;stroke-opacity:1"
       d="m 147,243 v -3"
       id="path922" />
    <path
       style="fill:none;stroke:#000000;stroke-width:1px;stroke-linecap:butt;stroke-linejoin:miter;stroke-opacity:1"
       d="m 147,251 v 3"
       id="path924"
       sodipodi:nodetypes="cc" />
    <path
       style="fill:none;stroke:#000000;stroke-width:1px;stroke-linecap:butt;stroke-linejoin:miter;stroke-opacity:1"
       d="m 151,228 h -4 v -8 h 4"
       id="path932" />
    <path
       style="fill:none;stroke:#000000;stroke-width:1px;stroke-linecap:butt;stroke-linejoin:miter;stroke-opacity:1"
       d="m 147,220 v -3"
       id="path934" />
    <path
       style="fill:none;stroke:#000000;stroke-width:1px;stroke-linecap:butt;stroke-linejoin:miter;stroke-opacity:1"
       d="m 147,228 v 3"
       id="path936"
       sodipodi:nodetypes="cc" />
    <path
       style="fill:#25a1ea;fill-opacity:1;stroke:none;stroke-width:0.109365;stroke-linecap:butt;stroke-linejoin:miter;stroke-miterlimit:4;stroke-dasharray:none;stroke-opacity:1"
       d="m 135.79925,242.27857 -1.0536,1.05361 a 0.50000142,0.50000142 89.999919 0 0 0,0.7071 l 1.34705,1.34705 a 0.20710678,0.20710678 112.5 0 1 -0.14645,0.35355 h -7.79203 a 0.5,0.5 135 0 0 -0.5,0.5 v 1.52024 a 0.5,0.5 45 0 0 0.5,0.5 h 7.79203 a 0.20710678,0.20710678 67.5 0 1 0.14645,0.35355 l -1.34705,1.34705 a 0.50000142,0.50000142 90.000081 0 0 0,0.7071 l 1.0536,1.05361 a 0.49999809,0.49999809 5.3128802e-5 0 0 0.7071,0 l 4.36787,-4.36788 a 0.50000099,0.50000099 90 0 0 0,-0.7071 l -4.36787,-4.36788 a 0.49999809,0.49999809 179.99995 0 0 -0.7071,0 z"
       id="path5401"
       sodipodi:nodetypes="cccccccccc"
       inkscape:path-effect="#path-effect5405"
       inkscape:original-d="m 136.1528,241.92502 -1.7607,1.76071 2.05415,2.05415 h -8.79203 v 2.52024 h 8.79203 l -2.05415,2.05415 1.7607,1.76071 L 141.22777,247 Z" />
    <path
       style="fill:#ee5c48;fill-opacity:1;stroke:none;stroke-width:0.109365;stroke-linecap:butt;stroke-linejoin:miter;stroke-miterlimit:4;stroke-dasharray:none;stroke-opacity:1"
       d="m 132.87563,219.27857 1.0536,1.05361 a 0.50000142,0.50000142 90.000081 0 1 0,0.7071 l -1.34705,1.34705 a 0.20710678,0.20710678 67.5 0 0 0.14645,0.35355 h 7.79203 a 0.5,0.5 45 0 1 0.5,0.5 v 1.52024 a 0.5,0.5 135 0 1 -0.5,0.5 l -7.79203,0 a 0.20710678,0.20710678 112.5 0 0 -0.14645,0.35355 l 1.34705,1.34705 a 0.50000142,0.50000142 89.999919 0 1 0,0.7071 l -1.0536,1.05361 a 0.49999809,0.49999809 179.99995 0 1 -0.7071,0 l -4.36787,-4.36788 a 0.50000099,0.50000099 90 0 1 0,-0.7071 l 4.36787,-4.36788 a 0.49999809,0.49999809 5.3128799e-5 0 1 0.7071,0 z"
       id="path5407"
       sodipodi:nodetypes="cccccccccc"
       inkscape:path-effect="#path-effect5409"
       inkscape:original-d="m 132.52208,218.92502 1.7607,1.76071 -2.05415,2.05415 h 8.79203 v 2.52024 h -8.79203 l 2.05415,2.05415 -1.7607,1.76071 L 127.44711,224 Z" />
    <path
       style="fill:none;stroke:#000000;stroke-width:1px;stroke-linecap:butt;stroke-linejoin:miter;stroke-opacity:1"
       d="m 227,260 h 4 l 6,-9 v -17"
       id="path5415"
       sodipodi:nodetypes="cccc" />
    <path
       style="fill:none;stroke:#000000;stroke-width:1px;stroke-linecap:butt;stroke-linejoin:miter;stroke-opacity:1"
       d="m 227,211 h 4 l 6,9 v 14"
       id="path5417"
       sodipodi:nodetypes="cccc" />
    <path
       style="fill:none;stroke:#000000;stroke-width:0.5;stroke-linecap:round;stroke-linejoin:round;stroke-miterlimit:4;stroke-dasharray:none;stroke-opacity:1"
       d="m 228,273 h 5 l 4,4 h 4 v 2 h -3"
       id="path5419"
       sodipodi:nodetypes="cccccc" />
    <path
       style="fill:none;stroke:#000000;stroke-width:0.5;stroke-linecap:round;stroke-linejoin:round;stroke-miterlimit:4;stroke-dasharray:none;stroke-opacity:1"
       d="m 228,278.66666 h 5 l 4,4 h 4 v 2 h -3"
       id="path5421"
       sodipodi:nodetypes="cccccc" />
    <path
       style="fill:none;stroke:#000000;stroke-width:0.5;stroke-linecap:round;stroke-linejoin:round;stroke-miterlimit:4;stroke-dasharray:none;stroke-opacity:1"
       d="m 228,284.33331 h 5 l 4,4 h 4 v 2 h -3"
       id="path5423"
       sodipodi:nodetypes="cccccc" />
    <path
       style="fill:none;stroke:#000000;stroke-width:0.5;stroke-linecap:round;stroke-linejoin:round;stroke-miterlimit:4;stroke-dasharray:none;stroke-opacity:1"
       d="m 228,289.99997 h 5 l 4,4 h 4 v 2 h -3"
       id="path5425"
       sodipodi:nodetypes="cccccc" />
    <path
       style="fill:none;stroke:#000000;stroke-width:0.5;stroke-linecap:round;stroke-linejoin:round;stroke-miterlimit:4;stroke-dasharray:none;stroke-opacity:1"
       d="m 228,295.66663 h 5 l 4,4 h 4 v 2 h -3"
       id="path5427"
       sodipodi:nodetypes="cccccc" />
    <path
       style="fill:none;stroke:#000000;stroke-width:0.5;stroke-linecap:round;stroke-linejoin:round;stroke-miterlimit:4;stroke-dasharray:none;stroke-opacity:1"
       d="m 228,301.33328 h 5 l 4,4 h 4 v 2 h -3"
       id="path5429"
       sodipodi:nodetypes="cccccc" />
    <path
       style="fill:none;stroke:#000000;stroke-width:0.5;stroke-linecap:round;stroke-linejoin:round;stroke-miterlimit:4;stroke-dasharray:none;stroke-opacity:1"
       d="m 228,306.99994 h 5 l 4,4 h 4 v 2 h -3"
       id="path5431"
       sodipodi:nodetypes="cccccc" />
    <path
       style="fill:none;stroke:#000000;stroke-width:1px;stroke-linecap:butt;stroke-linejoin:miter;stroke-opacity:1"
       d="m 179,169 h 15"
       id="path5433"
       sodipodi:nodetypes="cc" />
    <path
       style="fill:none;stroke:#000000;stroke-width:1px;stroke-linecap:butt;stroke-linejoin:miter;stroke-opacity:1"
       d="m 179,152 h -5 v -32 h 10"
       id="path5435" />
    <path
       style="fill:none;stroke:#000000;stroke-width:1px;stroke-linecap:butt;stroke-linejoin:miter;stroke-opacity:1"
       d="m 174,120 v -3"
       id="path5437"
       sodipodi:nodetypes="cc" />
    <path
       style="fill:none;stroke:#000000;stroke-width:1px;stroke-linecap:butt;stroke-linejoin:miter;stroke-opacity:1"
       d="m 174,152 v 3"
       id="path5439"
       sodipodi:nodetypes="cc" />
    <path
       style="fill:none;fill-opacity:1;fill-rule:evenodd;stroke:#000000;stroke-width:1;stroke-linecap:round;stroke-linejoin:round;stroke-miterlimit:4;stroke-dasharray:none;stroke-opacity:1;stop-color:#000000"
       id="path5459"
       sodipodi:type="arc"
       sodipodi:cx="240"
       sodipodi:cy="172"
       sodipodi:rx="8.5"
       sodipodi:ry="9"
       sodipodi:start="3.1415927"
       sodipodi:end="6.0213859"
       sodipodi:arc-type="arc"
       d="m 231.5,172 a 8.5,9 0 0 1 7.39053,-8.923 8.5,9 0 0 1 9.31984,6.59363"
       sodipodi:open="true" />
    <path
       style="fill:none;stroke:#000000;stroke-width:1px;stroke-linecap:butt;stroke-linejoin:miter;stroke-opacity:1"
       d="m 232,169 h -9 v -66 h 8 v -9 h 9"
       id="path5461" />
    <path
       style="fill:none;stroke:#000000;stroke-width:1px;stroke-linecap:butt;stroke-linejoin:miter;stroke-opacity:1"
       d="m 231,94 h -3"
       id="path5463" />
    <path
       style="fill:none;stroke:#000000;stroke-width:1px;stroke-linecap:butt;stroke-linejoin:miter;stroke-opacity:1"
       d="m 231,103 h 9"
       id="path5465" />
    <path
       style="fill:none;stroke:#000000;stroke-width:1px;stroke-linecap:butt;stroke-linejoin:miter;stroke-opacity:1"
       d="m 248,169 h 9 v -66 h -8 v -9 h -9"
       id="path5467" />
    <path
       style="fill:none;stroke:#000000;stroke-width:1px;stroke-linecap:butt;stroke-linejoin:miter;stroke-opacity:1"
       d="m 249,94 h 3"
       id="path5469" />
    <path
       style="fill:none;stroke:#000000;stroke-width:1px;stroke-linecap:butt;stroke-linejoin:miter;stroke-opacity:1"
       d="m 249,103 h -9"
       id="path5471" />
    <path
       style="fill:none;stroke:#000000;stroke-width:1px;stroke-linecap:butt;stroke-linejoin:miter;stroke-opacity:1"
       d="m 227,260 v -49 l -18,-16 v -26 h 3 c 0,0 -8.66025,-56 -10,-61 -1.0718,-4 -2,-8 -8,-8"
       id="path5479"
       sodipodi:nodetypes="cccccsc" />
    <path
       style="fill:none;stroke:#000000;stroke-width:1px;stroke-linecap:butt;stroke-linejoin:miter;stroke-opacity:1"
       d="m 194,169 h 15"
       id="path5481"
       sodipodi:nodetypes="cc" />
    <path
       style="fill:none;stroke:#000000;stroke-width:1px;stroke-linecap:butt;stroke-linejoin:miter;stroke-opacity:1"
       d="m 211,161 h 12"
       id="path5483" />
    <path
       style="fill:none;stroke:#000000;stroke-width:1px;stroke-linecap:butt;stroke-linejoin:miter;stroke-opacity:1"
       d="M 223,110 H 202.4"
       id="path5485"
       sodipodi:nodetypes="cc" />
    <circle
       style="fill:#ee5c48;fill-opacity:1;fill-rule:evenodd;stroke:none;stroke-width:1;stroke-linecap:round;stroke-linejoin:round;stroke-miterlimit:4;stroke-dasharray:none;stroke-opacity:1;stop-color:#000000"
       id="path5487"
       cx="316"
       cy="296"
       r="2" />
    <path
       style="fill:none;stroke:#000000;stroke-width:1px;stroke-linecap:butt;stroke-linejoin:miter;stroke-opacity:1"
       d="m 316,374 v 28"
       id="path5492" />
    <path
       style="fill:none;stroke:#000000;stroke-width:1px;stroke-linecap:butt;stroke-linejoin:miter;stroke-opacity:1"
       d="m 302,388 h 28"
       id="path5494" />
    <path
       style="fill:none;fill-opacity:1;stroke:#000000;stroke-width:1;stroke-linecap:butt;stroke-linejoin:miter;stroke-miterlimit:4;stroke-dasharray:none;stroke-opacity:1"
       d="m 197.37717,194.40455 -1.53564,-1.53563 a 0.50000111,0.50000111 179.99994 0 0 -0.7071,0 l -1.90942,1.90942 a 0.20710678,0.20710678 22.5 0 1 -0.35355,-0.14645 l 0,-10.19906 a 0.5,0.5 45 0 0 -0.5,-0.5 h -2.21022 a 0.5,0.5 135 0 0 -0.5,0.5 v 10.19906 a 0.20710678,0.20710678 157.5 0 1 -0.35355,0.14645 l -1.90942,-1.90942 a 0.50000223,0.50000223 1.2773612e-4 0 0 -0.7071,0 l -1.53565,1.53563 a 0.499997,0.499997 90.000083 0 0 0,0.7071 l 5.75728,5.75726 a 0.50000116,0.50000116 179.99998 0 0 0.7071,0 l 5.75727,-5.75726 a 0.4999985,0.4999985 89.999958 0 0 0,-0.7071 z"
       id="path5496"
       sodipodi:nodetypes="cccccccccc"
       inkscape:path-effect="#path-effect5498"
       inkscape:original-d="m 197.73072,194.7581 -2.24274,-2.24273 -2.61652,2.61652 v -11.19906 h -3.21022 v 11.19906 l -2.61652,-2.61652 -2.24275,2.24273 6.46438,6.46436 z"
       inkscape:transform-center-x="92.321154"
       inkscape:transform-center-y="-12.58137" />
    <path
       style="fill:#25a1ea;fill-opacity:1;stroke:none;stroke-width:0.21115;stroke-linecap:butt;stroke-linejoin:miter;stroke-miterlimit:4;stroke-dasharray:none;stroke-opacity:1"
       d="m 147.0859,126.55531 -2.69228,2.69229 a 0.50000074,0.50000074 89.999958 0 0 0,0.7071 l 3.25884,3.25884 a 0.20710678,0.20710678 112.5 0 1 -0.14645,0.35355 h -15.97473 a 0.5,0.5 135 0 0 -0.5,0.5 v 3.86582 a 0.5,0.5 45 0 0 0.5,0.5 h 15.97473 a 0.20710641,0.20710641 67.500036 0 1 0.14645,0.35355 l -3.25884,3.25883 a 0.50000084,0.50000084 90.00012 0 0 0,0.7071 l 2.69228,2.6923 a 0.49999802,0.49999802 5.5035797e-5 0 0 0.7071,0 l 9.09112,-9.09114 a 0.50000102,0.50000102 90 0 0 0,-0.7071 l -9.09112,-9.09114 a 0.49999875,0.49999875 179.99999 0 0 -0.7071,0 z"
       id="path5500"
       sodipodi:nodetypes="cccccccccc"
       inkscape:path-effect="#path-effect5502"
       inkscape:original-d="m 147.43945,126.20176 -3.39938,3.39939 3.96594,3.96594 h -16.97473 v 4.86582 h 16.97473 l -3.96594,3.96593 3.39938,3.3994 L 157.23767,136 Z" />
    <path
       style="fill:#ee5c48;fill-opacity:1;stroke:none;stroke-width:0.211143;stroke-linecap:butt;stroke-linejoin:miter;stroke-miterlimit:4;stroke-dasharray:none;stroke-opacity:1"
       d="m 242.87721,65.445903 -2.69218,2.692164 a 0.50000074,0.50000074 4.2138235e-5 0 1 -0.7071,0 l -3.25872,-3.258714 A 0.20710678,0.20710678 157.5 0 0 235.86566,65.0258 V 81 a 0.5,0.5 135 0 1 -0.5,0.5 H 231.5 A 0.5,0.5 45 0 1 231,81 l 0,-15.9742 a 0.20710641,0.20710641 22.499964 0 0 -0.35355,-0.146446 l -3.25871,3.258712 a 0.50000084,0.50000084 179.99988 0 1 -0.7071,2e-6 l -2.69219,-2.692166 a 0.49999802,0.49999802 89.999945 0 1 0,-0.707105 l 9.09083,-9.090804 a 0.50000102,0.50000102 0 0 1 0.7071,0 l 9.09083,9.090804 a 0.49999875,0.49999875 90.000013 0 1 0,0.707106 z"
       id="path5504"
       sodipodi:nodetypes="cccccccccc"
       inkscape:path-effect="#path-effect5506"
       inkscape:original-d="m 243.23076,65.09235 -3.39928,3.39927 -3.96582,-3.96582 V 81.5 H 231 V 64.5258 l -3.96581,3.96582 -3.39929,-3.39927 9.79793,-9.79791 z" />
    <path
       style="fill:none;fill-opacity:1;stroke:#000000;stroke-width:1;stroke-linecap:butt;stroke-linejoin:miter;stroke-miterlimit:4;stroke-dasharray:none;stroke-opacity:1"
       d="m 277.22734,192.71593 1.53563,-1.53564 a 0.50000111,0.50000111 89.999936 0 0 0,-0.7071 l -1.90942,-1.90942 A 0.20710678,0.20710678 112.5 0 1 277,188.21022 l 10.19906,0 a 0.5,0.5 135 0 0 0.5,-0.5 V 185.5 a 0.5,0.5 45 0 0 -0.5,-0.5 H 277 a 0.20710678,0.20710678 67.5 0 1 -0.14645,-0.35355 l 1.90942,-1.90942 a 0.50000223,0.50000223 90.000128 0 0 0,-0.7071 l -1.53563,-1.53565 a 0.499997,0.499997 8.3419517e-5 0 0 -0.7071,0 l -5.75726,5.75728 a 0.50000116,0.50000116 89.999978 0 0 0,0.7071 l 5.75726,5.75727 a 0.4999985,0.4999985 179.99996 0 0 0.7071,0 z"
       id="path5516"
       sodipodi:nodetypes="cccccccccc"
       inkscape:path-effect="#path-effect5518"
       inkscape:original-d="m 276.87379,193.06948 2.24273,-2.24274 -2.61652,-2.61652 h 11.19906 V 185 H 276.5 l 2.61652,-2.61652 -2.24273,-2.24275 -6.46436,6.46438 z"
       inkscape:transform-center-x="-12.581369"
       inkscape:transform-center-y="-92.321157" />
    <path
       style="fill:#25a1ea;fill-opacity:1;stroke:none;stroke-width:0.109365;stroke-linecap:butt;stroke-linejoin:miter;stroke-miterlimit:4;stroke-dasharray:none;stroke-opacity:1"
       d="M 235.76071,339.0536 234.7071,338 A 0.50000142,0.50000142 179.99992 0 0 234,338 l -1.34705,1.34705 a 0.20710678,0.20710678 22.5 0 1 -0.35355,-0.14645 l 0,-7.79203 a 0.5,0.5 45 0 0 -0.5,-0.5 l -1.52024,0 a 0.5,0.5 135 0 0 -0.5,0.5 l 0,7.79203 a 0.20710678,0.20710678 157.5 0 1 -0.35355,0.14645 L 228.07856,338 a 0.50000142,0.50000142 8.1353463e-5 0 0 -0.7071,0 l -1.05361,1.0536 a 0.49999809,0.49999809 90.000053 0 0 0,0.7071 l 4.36788,4.36787 a 0.50000099,0.50000099 0 0 0 0.7071,0 l 4.36788,-4.36787 a 0.49999809,0.49999809 89.999947 0 0 0,-0.7071 z"
       id="path5520"
       sodipodi:nodetypes="cccccccccc"
       inkscape:path-effect="#path-effect5522"
       inkscape:original-d="m 236.11426,339.40715 -1.76071,-1.7607 -2.05415,2.05415 v -8.79203 h -2.52024 v 8.79203 l -2.05415,-2.05415 -1.76071,1.7607 5.07498,5.07497 z" />
    <path
       style="fill:none;stroke:#000000;stroke-width:1px;stroke-linecap:butt;stroke-linejoin:miter;stroke-opacity:1"
       d="M 316,440 H 282 L 268,404 V 376.00001 L 283,334 v -43 h -19 l -19,20 -3,7 h -6 v 7 h -2"
       id="path5526"
       sodipodi:nodetypes="cccccccccccc" />
    <g
       id="g5679">
      <path
         style="fill:none;stroke:#000000;stroke-width:1px;stroke-linecap:butt;stroke-linejoin:miter;stroke-opacity:1;stroke-miterlimit:4;stroke-dasharray:none;opacity:0.4"
         d="M 164 213 L 164 258"
         id="path5637" />
      <path
         style="fill:none;stroke:#000000;stroke-width:1px;stroke-linecap:butt;stroke-linejoin:miter;stroke-opacity:1;stroke-miterlimit:4;stroke-dasharray:none;opacity:0.4"
         d="M 167 213 L 167 258"
         id="path5639" />
      <path
         style="fill:none;stroke:#000000;stroke-width:1px;stroke-linecap:butt;stroke-linejoin:miter;stroke-opacity:1;stroke-miterlimit:4;stroke-dasharray:none;opacity:0.4"
         d="M 170 213 L 170 258"
         id="path5641" />
      <path
         style="fill:none;stroke:#000000;stroke-width:1px;stroke-linecap:butt;stroke-linejoin:miter;stroke-opacity:1;stroke-miterlimit:4;stroke-dasharray:none;opacity:0.4"
         d="M 173 213 L 173 258"
         id="path5643" />
      <path
         style="fill:none;stroke:#000000;stroke-width:1px;stroke-linecap:butt;stroke-linejoin:miter;stroke-opacity:1;stroke-miterlimit:4;stroke-dasharray:none;opacity:0.4"
         d="M 176 213 L 176 258"
         id="path5645" />
      <path
         style="fill:none;stroke:#000000;stroke-width:1px;stroke-linecap:butt;stroke-linejoin:miter;stroke-opacity:1;stroke-miterlimit:4;stroke-dasharray:none;opacity:0.4"
         d="M 179 213 L 179 258"
         id="path5647" />
      <path
         style="fill:none;stroke:#000000;stroke-width:1px;stroke-linecap:butt;stroke-linejoin:miter;stroke-opacity:1;stroke-miterlimit:4;stroke-dasharray:none;opacity:0.4"
         d="M 182 213 L 182 258"
         id="path5649" />
      <path
         style="fill:none;stroke:#000000;stroke-width:1px;stroke-linecap:butt;stroke-linejoin:miter;stroke-opacity:1;stroke-miterlimit:4;stroke-dasharray:none;opacity:0.4"
         d="M 185 213 L 185 258"
         id="path5651" />
      <path
         style="fill:none;stroke:#000000;stroke-width:1px;stroke-linecap:butt;stroke-linejoin:miter;stroke-opacity:1;stroke-miterlimit:4;stroke-dasharray:none;opacity:0.4"
         d="M 188 213 L 188 258"
         id="path5653" />
      <path
         style="fill:none;stroke:#000000;stroke-width:1px;stroke-linecap:butt;stroke-linejoin:miter;stroke-opacity:1;stroke-miterlimit:4;stroke-dasharray:none;opacity:0.4"
         d="M 191 213 L 191 258"
         id="path5655" />
      <path
         style="fill:none;stroke:#000000;stroke-width:1px;stroke-linecap:butt;stroke-linejoin:miter;stroke-opacity:1;stroke-miterlimit:4;stroke-dasharray:none;opacity:0.4"
         d="M 194 213 L 194 258"
         id="path5657" />
      <path
         style="fill:none;stroke:#000000;stroke-width:1px;stroke-linecap:butt;stroke-linejoin:miter;stroke-opacity:1;stroke-miterlimit:4;stroke-dasharray:none;opacity:0.4"
         d="M 197 213 L 197 258"
         id="path5659" />
      <path
         style="fill:none;stroke:#000000;stroke-width:1px;stroke-linecap:butt;stroke-linejoin:miter;stroke-opacity:1;stroke-miterlimit:4;stroke-dasharray:none;opacity:0.4"
         d="M 200 213 L 200 258"
         id="path5661" />
      <path
         style="fill:none;stroke:#000000;stroke-width:1px;stroke-linecap:butt;stroke-linejoin:miter;stroke-opacity:1;stroke-miterlimit:4;stroke-dasharray:none;opacity:0.4"
         d="M 203 213 L 203 258"
         id="path5663" />
      <path
         style="fill:none;stroke:#000000;stroke-width:1px;stroke-linecap:butt;stroke-linejoin:miter;stroke-opacity:1;stroke-miterlimit:4;stroke-dasharray:none;opacity:0.4"
         d="M 206 213 L 206 258"
         id="path5665" />
      <path
         style="fill:none;stroke:#000000;stroke-width:1px;stroke-linecap:butt;stroke-linejoin:miter;stroke-opacity:1;stroke-miterlimit:4;stroke-dasharray:none;opacity:0.4"
         d="M 209 213 L 209 258"
         id="path5667" />
      <path
         style="fill:none;stroke:#000000;stroke-width:1px;stroke-linecap:butt;stroke-linejoin:miter;stroke-opacity:1;stroke-miterlimit:4;stroke-dasharray:none;opacity:0.4"
         d="M 212 213 L 212 258"
         id="path5669" />
      <path
         style="fill:none;stroke:#000000;stroke-width:1px;stroke-linecap:butt;stroke-linejoin:miter;stroke-opacity:1;stroke-miterlimit:4;stroke-dasharray:none;opacity:0.4"
         d="M 215 213 L 215 258"
         id="path5671" />
      <path
         style="fill:none;stroke:#000000;stroke-width:1px;stroke-linecap:butt;stroke-linejoin:miter;stroke-opacity:1;stroke-miterlimit:4;stroke-dasharray:none;opacity:0.4"
         d="M 218 213 L 218 258"
         id="path5673" />
      <path
         style="fill:none;stroke:#000000;stroke-width:1px;stroke-linecap:butt;stroke-linejoin:miter;stroke-opacity:1;stroke-miterlimit:4;stroke-dasharray:none;opacity:0.4"
         d="M 221 213 L 221 258"
         id="path5675" />
      <path
         style="fill:none;stroke:#000000;stroke-width:1px;stroke-linecap:butt;stroke-linejoin:miter;stroke-opacity:1;stroke-miterlimit:4;stroke-dasharray:none;opacity:0.4"
         d="M 224 213 L 224 258"
         id="path5677" />
    </g>
  </g>
</svg>
