<svg viewBox="0 0 512 512" xmlns="http://www.w3.org/2000/svg">
  <linearGradient id="a" x1="200" x2="200" y1="335" y2="110" gradientTransform="matrix(1.2359 0 0 1.2357 -59.262 -60.559)" gradientUnits="userSpaceOnUse">
    <stop stop-color="#25a1ea" offset=".0267"/>
    <stop stop-color="#fcd65c" offset=".0622"/>
    <stop stop-color="#fcd65c" offset=".253"/>
    <stop stop-color="#e96f5b" offset=".502"/>
    <stop stop-color="#e96f5b" offset=".911"/>
    <stop stop-color="#aedbf8" offset="1"/>
  </linearGradient>
  <path fill="#aedbf8" stroke="#000" d="m173.08 139.62h-5.8086v-39.542h12.235zm-5.8086 0v3.7071m0-43.249 7e-3 -3.7071"/>
  <path fill="#e5eae9" d="m383.18 281.73v82.791h-81.568v-82.791"/>
  <g stroke="#000">
    <path fill="#e5eae9" d="m383.18 281.73v82.791l18.538 51.899v34.599l-17.302 44.485h-84.04l-17.302-44.485v-34.599l18.538-51.899-7e-3 -53.135"/>
    <path fill="#ca8289" d="m259.6 67.952h3.7076m-25.954 0h-3.7076m24.718 92.676h11.123v-81.555h-9.887v-11.121h-22.246v11.121h-9.887v81.555h11.123m-1.2359-81.555h22.246"/>
    <path fill="#ca8289" d="m301.62 281.73v-72.906h30.897c0-11.121-3.7076-16.064-8.6512-16.064h-64.266c-8.3298 0-21.628-10.862-21.628-28.421 0-6.1414 4.7087-11.121 10.505-11.121 5.7963 0 10.505 4.9798 10.505 11.121 0 4.4732 3.584 7.4141 6.7974 7.4141h58.086c18.538 0 29.661 14.828 29.661 37.071h29.661v72.906"/>
    <path fill="#e1e3e0" d="m227.46 150.74h-15.201l-10.381-63.02h25.583z"/>
    <path fill="url(#a)" d="m238.59 344.75h4.9435m-70.445-184.12h37.076m91.448 121.1 7e-3 7.4141h-50.671v-6.1784h-18.538v-70.434l-22.246-19.771v-32.128h3.7076s-10.703-69.198-12.359-75.377c-1.3224-4.9428-2.4718-9.8855-9.887-9.8855s-8.5647 4.9427-9.8871 9.8855c-1.6561 6.1784-12.359 75.377-12.359 75.377h3.7076v32.128l-22.246 19.771v80.32c0 21.007 14.831 39.542 33.369 39.542h42.02l4.9435 12.357h7.4153v8.6498h4.9435v-8.6498h7.4153l3.7076-8.6498 23.482-24.714h23.482v7.6173"/>
  </g>
  <g fill="#c2c8c8" stroke="#000">
    <path d="m334.19 319.62 15.475-5.6818 42.702 113.43-20.963 7.0559z"/>
    <path d="m345 448.36 38.276-6.069 0.0469-22.086-37.563-5.9294z"/>
    <path d="m306.56 281.73v59.313h71.681v-59.313z"/>
    <circle r="11.123" cx="381.95" cy="431.24"/>
    <circle r="8.6512" cx="342.4" cy="317.56"/>
  </g>
  <g>
    <path fill="#25a1ea" d="m119.94 250.83-1.2977 1.2975a0.61794 0.61784 0 0 0 0 0.87363l1.6684 1.6682a0.25583 0.25579 0 0 1-0.18043 0.43744h-9.6275a0.61794 0.61784 0 0 0-0.61794 0.61784v1.8782a0.61794 0.61784 0 0 0 0.61794 0.61785h9.6275a0.25583 0.25579 0 0 1 0.18043 0.43743l-1.6684 1.6682a0.61794 0.61784 0 0 0 0 0.87363l1.2977 1.2975a0.61794 0.61784 0 0 0 0.87377 0l5.4008-5.4a0.61794 0.61784 0 0 0 0-0.87363l-5.4008-5.4a0.61794 0.61784 0 0 0-0.87377 0z"/>
    <path fill="#25a1ea" d="m247.24 370.7-1.2977-1.2975a0.61794 0.61784 0 0 0-0.87377 0l-1.6684 1.6682a0.25583 0.25579 0 0 1-0.4375-0.18041v-9.626a0.61794 0.61784 0 0 0-0.61794-0.61784h-1.8785a0.61794 0.61784 0 0 0-0.61794 0.61784v9.626a0.25583 0.25579 0 0 1-0.43751 0.18041l-1.6684-1.6682a0.61794 0.61784 0 0 0-0.87376 0l-1.2977 1.2975a0.61794 0.61784 0 0 0 0 0.87363l5.4008 5.4a0.61794 0.61784 0 0 0 0.87377 0l5.4008-5.4a0.61794 0.61784 0 0 0 0-0.87363z"/>
    <path fill="#ee5c48" d="m116.23 222.41 1.2977 1.2975a0.61794 0.61784 0 0 1 0 0.87363l-1.6684 1.6682a0.25583 0.25579 0 0 0 0.18044 0.43743h9.6275a0.61794 0.61784 0 0 1 0.61794 0.61785v1.8782a0.61794 0.61784 0 0 1-0.61794 0.61784h-9.6275a0.25583 0.25579 0 0 0-0.18044 0.43744l1.6684 1.6682a0.61794 0.61784 0 0 1 0 0.87363l-1.2977 1.2975a0.61794 0.61784 0 0 1-0.87377 0l-5.4008-5.4a0.61794 0.61784 0 0 1 0-0.87363l5.4008-5.4a0.61794 0.61784 0 0 1 0.87377 0z"/>
    <path fill="#aedbf8" d="m132.3 108.73-3.3245 3.324a0.61794 0.61784 0 0 0 0 0.87363l4.029 4.0283a0.25583 0.25579 0 0 1-0.18044 0.43743h-19.774a0.61794 0.61784 0 0 0-0.61794 0.61785v4.7821a0.61794 0.61784 0 0 0 0.61794 0.61785h19.774a0.25583 0.25579 0 0 1 0.18044 0.43743l-4.029 4.0283a0.61794 0.61784 0 0 0 0 0.87363l3.3245 3.324a0.61794 0.61784 0 0 0 0.87377 0l11.234-11.232a0.61794 0.61784 0 0 0 0-0.87364l-11.234-11.232a0.61794 0.61784 0 0 0-0.87377 0z"/>
    <path fill="#ca8289" d="m259.6 28.287-3.3245 3.324a0.61794 0.61784 0 0 1-0.87377 0l-4.029-4.0283a0.25583 0.25579 0 0 0-0.43751 0.18041v19.771a0.61794 0.61784 0 0 1-0.61794 0.61784h-4.7829a0.61794 0.61784 0 0 1-0.61794-0.61784v-19.771a0.25583 0.25579 0 0 0-0.4375-0.18041l-4.029 4.0283a0.61794 0.61784 0 0 1-0.87377 3e-6l-3.3245-3.324a0.61794 0.61784 0 0 1 0-0.87363l11.234-11.232a0.61794 0.61784 0 0 1 0.87377 0l11.234 11.232a0.61794 0.61784 0 0 1 0 0.87363z"/>
  </g>
  <g fill="none" stroke="#000">
    <path d="m296.1 188.38c0.24123-0.24126 0.24123-0.63236 0-0.87363l-2.3605-2.3602c-0.16234-0.16092-0.0482-0.43772 0.18044-0.43743h12.606c0.34128 0 0.61795-0.27662 0.61795-0.61784v-2.7309c0-0.34122-0.27667-0.61785-0.61795-0.61785h-12.606c-0.2286 2.9e-4 -0.34278-0.27651-0.18044-0.43743l2.3605-2.3602c0.24123-0.24127 0.24123-0.63236 0-0.87363l-1.9033-1.903c-0.2413-0.24119-0.63246-0.24119-0.87377 0l-7.1187 7.1176c-0.24124 0.24126-0.24124 0.63236 0 0.87363l7.1187 7.1176c0.24131 0.2412 0.63247 0.2412 0.75312 0.12369z"/>
    <path d="m197.13 189.62c-0.24131-0.24119-0.63246-0.24119-0.87377 0l-2.3605 2.3602c-0.16095 0.16232-0.43779 0.0482-0.43751-0.18041v-12.604c0-0.34122-0.27666-0.61785-0.61794-0.61785h-2.7313c-0.34128 0-0.61795 0.27663-0.61795 0.61785v12.604c2.9e-4 0.22857-0.27655 0.34273-0.4375 0.18041l-2.3605-2.3602c-0.24131-0.24119-0.63246-0.24119-0.87377 0l-1.9033 1.903c-0.24123 0.24127-0.24123 0.63236 0 0.87363l7.1187 7.1176c0.24131 0.2412 0.63246 0.2412 0.87377 0l7.1187-7.1176c0.24123-0.24127 0.24123-0.63236 0.12371-0.753z"/>
    <path d="m233.64 289.14h6.1794l4.9435 4.9428h4.9435v2.4714h-3.7076"/>
    <path d="m233.64 296.55h6.1794l4.9435 4.9427h4.9435v2.4714h-3.7076"/>
    <path d="m233.64 302.73h6.1794l4.9435 4.9428h4.9435v2.4714h-3.7076"/>
    <path d="m233.64 310.15h6.1794l4.9435 4.9428h4.9435v2.4714h-3.7076"/>
    <path d="m233.64 317.56h6.1794l4.9435 4.9428h4.9435v2.4714h-3.7076"/>
    <path d="m233.64 323.74h6.1794l4.9435 4.9428h4.9435v2.4714h-3.7076"/>
    <path d="m233.64 331.15h6.1794l4.9435 4.9428h4.9435v2.4714h-3.7076"/>
  </g>
  <path fill="#c2c8c8" stroke="#000" d="m325.1 431.24h34.605m-17.302-17.3v34.599m17.302-17.3a17.302 17.3 0 0 1-17.302 17.3 17.302 17.3 0 0 1-17.302-17.3 17.302 17.3 0 0 1 17.302-17.3 17.302 17.3 0 0 1 17.302 17.3z"/>
  <g fill="none" stroke="#000" stroke-width="0.5" stroke-dasharray="1.5, 0.5" opacity="0.5">
    <path d="m154.55 216.23v53.135"/>
    <path d="m158.25 216.23v53.135"/>
    <path d="m161.96 216.23v53.135"/>
    <path d="m165.67 216.23v53.135"/>
    <path d="m169.38 216.23v53.135"/>
    <path d="m173.08 216.23v53.135"/>
    <path d="m176.79 216.23v53.135"/>
    <path d="m180.5 216.23v53.135"/>
    <path d="m184.21 216.23v53.135"/>
    <path d="m187.91 216.23v53.135"/>
    <path d="m191.62 216.23v53.135"/>
    <path d="m195.33 216.23v53.135"/>
    <path d="m199.04 216.23v53.135"/>
    <path d="m202.75 216.23v53.135"/>
    <path d="m206.45 216.23v53.135"/>
    <path d="m210.16 216.23v53.135"/>
    <path d="m213.87 216.23v53.135"/>
    <path d="m217.58 216.23v53.135"/>
    <path d="m221.28 216.23v53.135"/>
    <path d="m224.99 216.23v53.135"/>
    <path d="m228.7 216.23v53.135"/>
  </g>
  <path fill="#585755" d="m343.64 166.81v48.315s7.4524 6.1784 9.6028 6.1784h2.756v2.4714h-27.189v-2.4714h2.756c2.1381 0 9.6028-6.1784 9.6028-6.1784v-48.315s-1e-5 -1.1603 1.2359-1.1603 1.2359 1.1603 1.2359 1.1603z"/>
  <g fill="#25a1ea" stroke="#000" stroke-width=".2">
    <path d="m150.84 257.01h81.568v2.4714h-81.568z"/>
    <path d="m150.84 266.9h81.568v2.4714h-81.568z"/>
    <path d="m150.84 247.13h81.568v2.4714h-81.568z"/>
  </g>
  <g fill="#ee5c48" stroke="#000" stroke-width=".2">
    <path d="m150.84 233.53h81.568v2.4714h-81.568z"/>
    <path d="m150.84 224.88h81.568v2.4714h-81.568z"/>
    <path d="m150.84 216.23h81.568v2.4714h-81.568z"/>
  </g>
  <g stroke="#000">
    <path fill="#8d95ba" d="m232.41 273.08h4.9435l7.4153-11.121v-38.306l-7.4153-11.121h-4.9435z"/>
    <path fill="#ee5c48" d="m150.84 212.53h-4.9435l-7.4153 11.121v17.3h12.359zm-17.302 21.007v3.7071m0-13.593v-3.7071m4.9435 13.593h-4.9435v-9.8855h4.9435"/>
    <path fill="#25a1ea" d="m150.84 240.95h-12.359v21.007l7.4153 11.121h4.9435zm-17.302 21.007v3.7071m0-13.593v-3.7071m4.9435 13.593h-4.9435v-9.8855h4.9435"/>
  </g>
</svg>
