<svg viewBox="0 0 512 512" xmlns="http://www.w3.org/2000/svg">
  <defs>
    <linearGradient id="gradient" x1="200" x2="200" y1="335" y2="110" gradientUnits="userSpaceOnUse">
      <stop stop-color="#25a1ea" offset="0"/>
      <stop stop-color="#25a1ea" offset=".0267"/>
      <stop stop-color="#fcd65c" offset=".0622"/>
      <stop stop-color="#fcd65c" offset=".253"/>
      <stop stop-color="#e96f5b" offset=".502"/>
      <stop stop-color="#e96f5b" offset=".911"/>
      <stop stop-color="#aedbf8" offset="1"/>
    </linearGradient>
  </defs>

  <path fill="#e5eae9" d="m358 277v67h-66v-67"/>
  <path fill="none" stroke="#000" d="m240 113h18"/>

  <g stroke="#000">
    <path fill="#e5eae9" d="m358 277v67l15 42v28l-14 36h-68l-14-36v-28l15-42-0.0061-43"/>
    <path fill="#ca8289" d="m258 104h3m-21 0h-3m20 75h9v-66h-8v-9h-18v9h-8v66h9"/>
    <path fill="#ca8289" d="m292 277v-59h25c0-9-3-13-7-13h-52c-6.74 0-17.5-8.79-17.5-23 0-4.97 3.81-9 8.5-9s8.5 4.03 8.5 9c0 3.62 2.9 6 5.5 6h47c15 0 24 12 24 30h24v59"/>
    <path fill="#c2c8c8" d="m296 277v48h58v-48z"/>
    <path fill="#e1e3e0" d="m232 171h-12.3l-8.4-51h20.7z"/>
    <path fill="#aedbf8" d="m188 162h-4.7v-32h9.9z"/>
    <path fill="url(#gradient)" d="m241 328h4m47-27h-19l-19 20-3 7h-6v7h-4v-7h-6l-4-10h-34c-15 0-27-15-27-32v-65l18-16v-26h-3s8.66-56 10-61c1.07-4 2-8 8-8s6.93 4 8 8c1.34 5 10 61 10 61h-3v26l18 16v57h15v5h41l-0.0061-6"/>
  </g>

  <g fill="#c2c8c8" stroke="#000">
    <path stroke-width="1px" d="m318 308 13-4.74 33.3 91.5-16.6 6.02z"/>
    <path stroke-width="1px" d="m325 412 32-5v-18l-32-5z"/>
    <circle r="14" cx="325" cy="398"/>
    <circle r="9" cx="357" cy="398"/>
    <circle r="7" cx="325" cy="306"/>
  </g>

  <path fill="#25a1ea" d="m145 252-1.05 1.05a0.5 0.5 90 0 0 0 0.707l1.35 1.35a0.207 0.207 112 0 1-0.146 0.354h-7.79a0.5 0.5 135 0 0-0.5 0.5v1.52a0.5 0.5 45 0 0 0.5 0.5h7.79a0.207 0.207 67.5 0 1 0.146 0.354l-1.35 1.35a0.5 0.5 90 0 0 0 0.707l1.05 1.05a0.5 0.5 5.31e-5 0 0 0.707 0l4.37-4.37a0.5 0.5 90 0 0 0-0.707l-4.37-4.37a0.5 0.5 180 0 0-0.707 0z"/>
  <path fill="#25a1ea" d="m248 349-1.05-1.05a0.5 0.5 180 0 0-0.707 0l-1.35 1.35a0.207 0.207 22.5 0 1-0.354-0.146v-7.79a0.5 0.5 45 0 0-0.5-0.5h-1.52a0.5 0.5 135 0 0-0.5 0.5v7.79a0.207 0.207 158 0 1-0.354 0.146l-1.35-1.35a0.5 0.5 8.14e-5 0 0-0.707 0l-1.05 1.05a0.5 0.5 90 0 0 0 0.707l4.37 4.37a0.5 0.5 0 0 0 0.707 0l4.37-4.37a0.5 0.5 90 0 0 0-0.707z"/>
  <path fill="#ee5c48" d="m142 229 1.05 1.05a0.5 0.5 90 0 1 0 0.707l-1.35 1.35a0.207 0.207 67.5 0 0 0.146 0.354h7.79a0.5 0.5 45 0 1 0.5 0.5v1.52a0.5 0.5 135 0 1-0.5 0.5h-7.79a0.207 0.207 112 0 0-0.146 0.354l1.35 1.35a0.5 0.5 90 0 1 0 0.707l-1.05 1.05a0.5 0.5 180 0 1-0.707 0l-4.37-4.37a0.5 0.5 90 0 1 0-0.707l4.37-4.37a0.5 0.5 5.31e-5 0 1 0.707 0z"/>
  <path fill="#aedbf8" d="m155 137-2.69 2.69a0.5 0.5 90 0 0 0 0.707l3.26 3.26a0.207 0.207 112 0 1-0.146 0.354h-16a0.5 0.5 135 0 0-0.5 0.5v3.87a0.5 0.5 45 0 0 0.5 0.5h16a0.207 0.207 67.5 0 1 0.146 0.354l-3.26 3.26a0.5 0.5 90 0 0 0 0.707l2.69 2.69a0.5 0.5 5.5e-5 0 0 0.707 0l9.09-9.09a0.5 0.5 90 0 0 0-0.707l-9.09-9.09a0.5 0.5 180 0 0-0.707 0z"/>
  <path fill="#ca8289" d="m258 71.9-2.69 2.69a0.5 0.5 4.21e-5 0 1-0.707 0l-3.26-3.26a0.207 0.207 158 0 0-0.354 0.146v16a0.5 0.5 135 0 1-0.5 0.5h-3.87a0.5 0.5 45 0 1-0.5-0.5v-16a0.207 0.207 22.5 0 0-0.354-0.146l-3.26 3.26a0.5 0.5 180 0 1-0.707 2e-6l-2.69-2.69a0.5 0.5 90 0 1 0-0.707l9.09-9.09a0.5 0.5 0 0 1 0.707 0l9.09 9.09a0.5 0.5 90 0 1 0 0.707z"/>
  <path fill="none" stroke="#000" d="m286 203 1.54-1.54a0.5 0.5 90 0 0 0-0.707l-1.91-1.91a0.207 0.207 112 0 1 0.146-0.354h10.2a0.5 0.5 135 0 0 0.5-0.5v-2.21a0.5 0.5 45 0 0-0.5-0.5h-10.2a0.207 0.207 67.5 0 1-0.146-0.354l1.91-1.91a0.5 0.5 90 0 0 0-0.707l-1.54-1.54a0.5 0.5 8.34e-5 0 0-0.707 0l-5.76 5.76a0.5 0.5 90 0 0 0 0.707l5.76 5.76a0.5 0.5 180 0 0 0.707 0z"/>
  <path fill="none" stroke="#000" d="m209 204-1.54-1.54a0.5 0.5 180 0 0-0.707 0l-1.91 1.91a0.207 0.207 22.5 0 1-0.354-0.146v-10.2a0.5 0.5 45 0 0-0.5-0.5h-2.21a0.5 0.5 135 0 0-0.5 0.5v10.2a0.207 0.207 158 0 1-0.354 0.146l-1.91-1.91a0.5 0.5 1.28e-4 0 0-0.707 0l-1.54 1.54a0.5 0.5 90 0 0 0 0.707l5.76 5.76a0.5 0.5 180 0 0 0.707 0l5.76-5.76a0.5 0.5 90 0 0 0-0.707z"/>

  <g fill="none" stroke="#000">
    <path d="m237 283h5l4 4h4v2h-3"/>
    <path d="m237 289h5l4 4h4v2h-3"/>
    <path d="m237 294h5l4 4h4v2h-3"/>
    <path d="m237 300h5l4 4h4v2h-3"/>
    <path d="m237 306h5l4 4h4v2h-3"/>
    <path d="m237 311h5l4 4h4v2h-3"/>
    <path d="m237 317h5l4 4h4v2h-3"/>
    <path d="m188 179h15"/>
    <path d="m183 130 6e-3 -3"/>
    <path d="m183 162v3"/>
    <path d="m203 179h15"/>
  </g>

  <g fill="none" stroke="#000">
    <path d="m325 384v28"/>
    <path d="m311 398h28"/>
  </g>

  <g fill="none" stroke="#000" stroke-width="0.5" stroke-dasharray="1.5, 0.5" opacity="0.3">
    <path d="m173 224v43"/>
    <path d="m176 224v43"/>
    <path d="m179 224v43"/>
    <path d="m182 224v43"/>
    <path d="m185 224v43"/>
    <path d="m188 224v43"/>
    <path d="m191 224v43"/>
    <path d="m194 224v43"/>
    <path d="m197 224v43"/>
    <path d="m200 224v43"/>
    <path d="m203 224v43"/>
    <path d="m206 224v43"/>
    <path d="m209 224v43"/>
    <path d="m212 224v43"/>
    <path d="m215 224v43"/>
    <path d="m218 224v43"/>
    <path d="m221 224v43"/>
    <path d="m224 224v43"/>
    <path d="m227 224v43"/>
    <path d="m230 224v43"/>
    <path d="m233 224v43"/>
  </g>

  <circle fill="#585755" r="2" cx="325" cy="306"/>
  <circle fill="#585755" r="2" cx="357" cy="398"/>

  <path fill="#585755" d="m326 184v39.1s6.03 5 7.77 5h2.23v2h-22v-2h2.23c1.73 0 7.77-5 7.77-5v-39.1s-1e-5 -0.939 1-0.939 1 0.939 1 0.939z"/>

  <g fill="#25a1ea" stroke="#000" stroke-width=".2">
    <path d="m170 257h66v2h-66z"/>
    <path d="m170 265h66v2h-66z"/>
    <path d="m170 249h66v2h-66z"/>
  </g>

  <g fill="#ee5c48" stroke="#000" stroke-width=".2">
    <path d="m170 238h66v2h-66z"/>
    <path d="m170 231h66v2h-66z"/>
    <path d="m170 224h66v2h-66z"/>
  </g>

  <g stroke="#000">
    <path fill="#8d95ba" d="m236 270h4l6-9v-31l-6-9h-4z"/>
    <path fill="#ee5c48" d="m170 221h-4l-6 9v14h10zm-14 17v3m0-11v-3m4 11h-4v-8h4"/>
    <path fill="#25a1ea" d="m170 244h-10v17l6 9h4zm-14 17v3m0-11v-3m4 11h-4v-8h4"/>
  </g>
</svg>
