<svg viewBox="0 0 512 512" xmlns="http://www.w3.org/2000/svg" xmlns:xlink="http://www.w3.org/1999/xlink">
  <defs>
    <linearGradient id="gradient1" x1="200" x2="200" y1="335" y2="110" gradientTransform="matrix(1.2359 0 0 1.2357 -59.262 -60.559)" gradientUnits="userSpaceOnUse">
      <stop stop-color="#e96f5b" offset=".911"/>
      <stop stop-color="#aedbf8" offset="1"/>
    </linearGradient>
    <linearGradient id="gradient2" x1="115.39" x2="221.66" y1="251.96" y2="251.96" gradientTransform="translate(-6e-6,-5.5e-4)" gradientUnits="userSpaceOnUse">
      <stop stop-color="#e96f5b" offset="0"/>
      <stop stop-color="#fcd65c" offset="1"/>
    </linearGradient>
  </defs>
  <path fill="#e5eae9" stroke="#000" d="m301.61 281.73 2e-3 82.791-18.538 51.899v34.599l17.302 44.485h84.04l17.302-44.485v-34.599l-18.538-51.899-3e-3 -82.791"/>
  <rect fill="#ca8289" width="81.567" height="32.133" x="301.61" y="249.6"/>
  <path fill="#aedbf8" stroke="#000" d="m173.08 139.62h-5.8086v-39.542h12.235zm-5.8086 0v3.7071m0-43.249 7e-3 -3.7071"/>
  <path fill="#e1e3e0" stroke="#000" d="m227.46 150.74h-15.201l-10.381-63.02h25.583z"/>
  <path fill="url(#gradient2)" d="m313.27 249.6c0-11.121-3.7076-14.064-8.6512-14.064l-58.085 3e-3 -28.923 60.565h-104.23l0.125-81.569 191.11-6e-3c18.538 0 29.661 12.828 29.661 35.071"/>
  <g stroke="#000">
    <path fill="url(#gradient1)" d="m115.5 214.53c-7.735 0-8.638-5.0706-8.638-10.144v-0.77317c0-11.121 3.7076-16.064 8.6512-16.064h49.713c29.137 0 44.933-0.30147 44.933-26.912h3.7076s-10.703-69.198-12.359-75.377c-1.3224-4.9428-2.4718-9.8855-9.887-9.8855s-8.5647 4.9427-9.8871 9.8855c-1.6561 6.1784-12.359 75.377-12.359 75.377h3.7076c0 5.4073-2.3146 5.9032-7.8561 5.9032l-35.627 2e-3h-14.086c-18.538 0-29.661 14.828-29.661 37.071v72.222c0 14.17 11.1 20.264 29.53 20.264"/>
    <path fill="none" d="m115.5 214.53 189.11-6e-3c18.538 0 29.661 12.828 29.661 35.071l16.228 2e-3m-235.13 46.502h102.23l28.923-60.565 58.085-3e-3c4.9436 0 8.6512 2.943 8.6512 14.064l-11.66 1e-3v32.133"/>
    <path fill="#ca8289" d="m259.6 67.952h3.7076m-25.954 0h-3.7076m24.718 92.676h11.123v-81.555h-9.887v-11.121h-22.246v11.121h-9.887v81.555h11.123m-1.2359-81.555h22.246"/>
    <path d="m173.09 160.63h37.076"/>
  </g>
  <g fill="#c2c8c8" stroke="#000">
    <path d="m334.19 319.62 15.475-5.6818 42.702 113.43-20.963 7.0559z"/>
    <path d="m345 448.36 38.276-6.069 0.0469-22.086-37.563-5.9294z"/>
    <path d="m306.56 281.73v59.313h71.681v-59.313z"/>
    <circle r="11.123" cx="381.95" cy="431.24"/>
    <circle r="8.6512" cx="342.4" cy="317.56"/>
    <path d="m325.1 431.24h34.605m-17.302-17.3v34.599m17.302-17.3a17.302 17.3 0 0 1-17.302 17.3 17.302 17.3 0 0 1-17.302-17.3 17.302 17.3 0 0 1 17.302-17.3 17.302 17.3 0 0 1 17.302 17.3z"/>
  </g>
  <g fill="none" stroke="#000" stroke-width="0.5" stroke-dasharray="1.5, 0.5" opacity="0.3">
    <path d="m162.1 255.31h50.267"/>
    <path d="m162.1 251.6h50.267"/>
    <path d="m162.1 247.89h50.267"/>
    <path d="m162.1 244.18h50.267"/>
    <path d="m162.1 240.48h50.267"/>
    <path d="m162.1 236.77h50.267"/>
    <path d="m162.1 233.06h50.267"/>
    <path d="m162.1 229.35h50.267"/>
    <path d="m162.1 259.02h50.267"/>
    <path d="m162.1 262.72h50.267"/>
    <path d="m162.1 266.43h50.267"/>
    <path d="m162.1 270.14h50.267"/>
    <path d="m162.1 273.85h50.267"/>
    <path d="m162.1 277.55h50.267"/>
    <path d="m162.1 281.26h50.267"/>
    <path d="m162.1 284.97h50.267"/>
    <path d="m162.1 288.68h50.267"/>
    <path d="m162.1 292.38h50.267"/>
    <path d="m158.04 292.38h-30.8"/>
    <path d="m158.04 288.68h-30.8"/>
    <path d="m158.04 284.97h-30.8"/>
    <path d="m158.04 281.26h-30.8"/>
    <path d="m158.04 277.55h-30.8"/>
    <path d="m158.04 273.85h-30.8"/>
    <path d="m158.04 270.14h-30.8"/>
    <path d="m158.04 266.43h-30.8"/>
    <path d="m158.04 262.72h-30.8"/>
    <path d="m158.04 259.02h-30.8"/>
    <path d="m158.04 255.31h-30.8"/>
    <path d="m158.04 251.6h-30.8"/>
    <path d="m158.04 247.89h-30.8"/>
    <path d="m158.04 244.18h-30.8"/>
    <path d="m158.04 240.48h-30.8"/>
    <path d="m158.04 236.77h-30.8"/>
    <path d="m158.04 233.06h-30.8"/>
    <path d="m158.04 229.35h-30.8"/>
    <path d="m162.1 225.65h50.267"/>
    <path d="m158.04 225.65h-30.8"/>
    <path d="m162.1 221.94h50.267"/>
    <path d="m158.04 221.94h-30.8"/>
    <path d="m162.1 218.23h50.267"/>
    <path d="m158.04 218.23h-30.8"/>
  </g>
  <path fill="#aedbf8" d="m132.3 108.73-3.3245 3.324a0.61794 0.61784 0 0 0 0 0.87363l4.029 4.0283a0.25583 0.25579 0 0 1-0.18044 0.43743h-19.774a0.61794 0.61784 0 0 0-0.61794 0.61785v4.7821a0.61794 0.61784 0 0 0 0.61794 0.61785h19.774a0.25583 0.25579 0 0 1 0.18044 0.43743l-4.029 4.0283a0.61794 0.61784 0 0 0 0 0.87363l3.3245 3.324a0.61794 0.61784 0 0 0 0.87377 0l11.234-11.232a0.61794 0.61784 0 0 0 0-0.87364l-11.234-11.232a0.61794 0.61784 0 0 0-0.87377 0z"/>
  <path fill="#ca8289" d="m259.6 28.287-3.3245 3.324a0.61794 0.61784 0 0 1-0.87377 0l-4.029-4.0283a0.25583 0.25579 0 0 0-0.43751 0.18041v19.771a0.61794 0.61784 0 0 1-0.61794 0.61784h-4.7829a0.61794 0.61784 0 0 1-0.61794-0.61784v-19.771a0.25583 0.25579 0 0 0-0.4375-0.18041l-4.029 4.0283a0.61794 0.61784 0 0 1-0.87377 3e-6l-3.3245-3.324a0.61794 0.61784 0 0 1 0-0.87363l11.234-11.232a0.61794 0.61784 0 0 1 0.87377 0l11.234 11.232a0.61794 0.61784 0 0 1 0 0.87363z"/>
  <path fill="#ca8289" stroke="#000" d="m334.28 249.6h16.228v-40.773c0-11.121-3.7076-16.064-8.6512-16.064h-82.266c-8.3298 0-21.628-10.862-21.628-28.421 0-6.1414 4.7087-11.121 10.505-11.121s10.505 4.9798 10.505 11.121c0 4.4732 3.584 7.4141 6.7974 7.4141h76.086c18.538 0 29.661 14.828 29.661 37.071v40.773h11.661v32.133"/>
  <path fill="#585755" d="m362.25 240.01v16.315s7.8624 7.4414 9.6028 6.1784h2.756v2.4714h-27.189v-2.4714h2.756c2.1381 0 9.6028-6.1784 9.6028-6.1784v-16.315s-1e-5 -1.1603 1.2359-1.1603 1.2359 1.1603 1.2359 1.1603z"/>
  <path fill="#585755" d="m325.01 240.01v16.315s7.8624 7.4414 9.6028 6.1784h2.756v2.4714h-27.189v-2.4714h2.756c2.1381 0 9.6028-6.1784 9.6028-6.1784v-16.315s-1e-5 -1.1603 1.2359-1.1603 1.2359 1.1603 1.2359 1.1603z"/>
  <path fill="none" stroke="#000" d="m366.66 213.78c-0.24131 0.24119-0.63246 0.24119-0.87377 0l-2.3605-2.3602c-0.16095-0.16232-0.43779-0.0482-0.43751 0.18041v12.604c0 0.34122-0.27666 0.61785-0.61794 0.61785h-2.7313c-0.34128 0-0.61795-0.27663-0.61795-0.61785v-12.604c2.9e-4 -0.22857-0.27655-0.34273-0.4375-0.18041l-2.3605 2.3602c-0.24131 0.24119-0.63246 0.24119-0.87377 0l-1.9033-1.903c-0.24123-0.24127-0.24123-0.63236 0-0.87363l7.1187-7.1176c0.24131-0.2412 0.63246-0.2412 0.87377 0l7.1187 7.1176c0.24123 0.24127 0.24123 0.63236 0.12371 0.753z"/>
  <g fill="#25a1ea" stroke="#000" stroke-width="0.2">
    <path d="m202.64 296.09v-81.568h2.4714v81.568z"/>
    <path d="m212.37 296.09v-81.568h2.4714v81.568z"/>
    <path d="m192.9 296.09v-81.568h2.4714v81.568z"/>
  </g>
  <g fill="#ee5c48" stroke="#000" stroke-width="0.2">
    <path d="m183.17 296.09v-81.568h2.4714v81.568z"/>
    <path d="m173.44 296.09v-81.568h2.4714v81.568z"/>
    <path d="m163.7 296.09v-81.568h2.4714v81.568z"/>
  </g>
  <g stroke="#000" stroke-width="0.2">
    <path fill="#25a1ea" d="m153.97 296.09v-81.568h2.4714v81.568z"/>
    <path fill="#25a1ea" d="m144.24 296.09v-81.568h2.4714v81.568z"/>
    <path fill="#ee5c48" d="m134.5 296.09v-81.568h2.4714v81.568z"/>
    <path fill="#ee5c48" d="m124.77 296.09v-81.568h2.4714v81.568z"/>
  </g>
  <path fill="#25a1ea" stroke="#000" d="m217.61 296.1v4.9435l-11.121 7.4153h-17.3v-12.359zm-21.007 17.302h-3.7071m13.593 0h3.7071m-13.593-4.9435v4.9435h9.8855v-4.9435"/>
  <path fill="#ee5c48" stroke="#000" d="m119.93 296.1v4.9435l7.121 7.4153h13.3v-12.359zm13.007 17.302h1.7071m-7.593 0h-1.7071m7.593-4.9435v4.9435h-5.8855v-4.9435"/>
  <path fill="#25a1ea" stroke="#000" d="m160.77 296.1v4.9435l-7.121 7.4153h-13.3v-12.359zm-13.007 17.302h-1.7071m7.593 0h1.7071m-7.593-4.9435v4.9435h5.8855v-4.9435"/>
  <path fill="#8d95ba" stroke="#000" d="m171.89 202.17-11.121 7.4153v4.9435h56.842v-4.9435l-11.121-7.4153z"/>
  <path fill="#8d95ba" stroke="#000" d="m153.65 202.17 7.121 7.4153v4.9435h-40.842v-4.9435l7.121-7.4153z"/>
  <path fill="#ee5c48" stroke="#000" d="m160.77 296.1v4.9435l11.121 7.4153h17.3v-12.359zm21.007 17.302h3.7071m-13.593 0h-3.7071m13.593-4.9435v4.9435h-9.8855v-4.9435"/>
  <path fill="#25a1ea" d="m207.38 332.14-1.2977 1.2975a0.61794 0.61784 0 0 1-0.87377 0l-1.6684-1.6682a0.25583 0.25579 0 0 0-0.4375 0.18041v9.626a0.61794 0.61784 0 0 1-0.61794 0.61784h-1.8785a0.61794 0.61784 0 0 1-0.61794-0.61784v-9.626a0.25583 0.25579 0 0 0-0.43751-0.18041l-1.6684 1.6682a0.61794 0.61784 0 0 1-0.87376 0l-1.2977-1.2975a0.61794 0.61784 0 0 1 0-0.87363l5.4008-5.4a0.61794 0.61784 0 0 1 0.87377 0l5.4008 5.4a0.61794 0.61784 0 0 1 0 0.87363z"/>
  <path fill="#ee5c48" d="m182.67 335.74-1.2977-1.2975a0.61794 0.61784 0 0 0-0.87377 0l-1.6684 1.6682a0.25583 0.25579 0 0 1-0.4375-0.18041v-9.626a0.61794 0.61784 0 0 0-0.61794-0.61784h-1.8785a0.61794 0.61784 0 0 0-0.61794 0.61784v9.626a0.25583 0.25579 0 0 1-0.43751 0.18041l-1.6684-1.6682a0.61794 0.61784 0 0 0-0.87376 0l-1.2977 1.2975a0.61794 0.61784 0 0 0 0 0.87363l5.4008 5.4a0.61794 0.61784 0 0 0 0.87377 0l5.4008-5.4a0.61794 0.61784 0 0 0 0-0.87363z"/>
  <path fill="#25a1ea" d="m150.68 322.48a0.61794 0.61784 0 0 0-0.41602 0.17968l-5.4004 5.4004a0.61794 0.61784 0 0 0 0 0.875l1.2988 1.2969a0.61794 0.61784 0 0 0 0.87304 0l1.668-1.668a0.25583 0.25579 0 0 1 0.4375 0.17969v7.1894a0.25583 0.25579 0 0 1-0.4375 0.18164l-1.668-1.668a0.61794 0.61784 0 0 0-0.87304 0l-1.2988 1.2969a0.61794 0.61784 0 0 0 0 0.87304l5.4004 5.4004a0.61794 0.61784 0 0 0 0.875 0l5.4004-5.4004a0.61794 0.61784 0 0 0 0-0.87304h-6e-3l-1.2988-1.2969a0.61794 0.61784 0 0 0-0.87304 0l-1.668 1.668a0.25583 0.25579 0 0 1-0.4375-0.17187 0.25583 0.25579 0 0 1 0-0.01v-7.1973a0.25583 0.25579 0 0 1 0.4375-0.17188l1.668 1.668a0.61794 0.61784 0 0 0 0.87304 0l1.2988-1.2969h6e-3a0.61794 0.61784 0 0 0 0-0.875l-5.4004-5.4004a0.61794 0.61784 0 0 0-0.45898-0.17968z"/>
  <path fill="#ee5c48" d="m129.97 322.48a0.61794 0.61784 0 0 0-0.41602 0.17968l-5.4004 5.4004a0.61794 0.61784 0 0 0 0 0.875l1.2988 1.2969a0.61794 0.61784 0 0 0 0.87304 0l1.668-1.668a0.25583 0.25579 0 0 1 0.4375 0.17969v7.1894a0.25583 0.25579 0 0 1-0.4375 0.18164l-1.668-1.668a0.61794 0.61784 0 0 0-0.87304 0l-1.2988 1.2969a0.61794 0.61784 0 0 0 0 0.87304l5.4004 5.4004a0.61794 0.61784 0 0 0 0.875 0l5.4004-5.4004a0.61794 0.61784 0 0 0 0-0.87304h-6e-3l-1.2988-1.2969a0.61794 0.61784 0 0 0-0.87304 0l-1.668 1.668a0.25583 0.25579 0 0 1-0.4375-0.17187 0.25583 0.25579 0 0 1 0-0.01v-7.1973a0.25583 0.25579 0 0 1 0.4375-0.17188l1.668 1.668a0.61794 0.61784 0 0 0 0.87304 0l1.2988-1.2969h6e-3a0.61794 0.61784 0 0 0 0-0.875l-5.4004-5.4004a0.61794 0.61784 0 0 0-0.45898-0.17968z"/>
  <path fill="none" stroke="#000" d="m98.346 239.79c0-0.34122-0.27666-0.61785-0.61795-0.61785h-2.7313c-0.34128 0-0.61795 0.27663-0.61795 0.61785v6.4557c0 4.2736 7.8481 7.8481 7.8481 7.8481 0.16185 0.16146 0.0468 0.43791-0.18179 0.43694l-3.338 2.1e-4c-0.34118 9e-5 -0.61777 0.27667-0.61785 0.61785l2e-3 2.8599c2e-3 0.16841 0.27875 0.44495 0.61993 0.44498l10.067-7.8e-4c0.34119-8e-5 0.61777-0.27666 0.61785-0.61785l7.8e-4 -10.067c-3e-5 -0.34118-0.27657-0.61773-0.61775-0.61775l-2.6915 2.1e-4c-0.34118 8e-5 -0.61776 0.27667-0.61785 0.61785l-2.1e-4 3.338c9.7e-4 0.22859-0.27551 0.34361-0.43693 0.18179 0 0-6.6862-2.829-6.6862-6.6862z"/>
</svg>
