<?xml version="1.0" encoding="UTF-8" standalone="no"?>
<svg
   xmlns:dc="http://purl.org/dc/elements/1.1/"
   xmlns:cc="http://creativecommons.org/ns#"
   xmlns:rdf="http://www.w3.org/1999/02/22-rdf-syntax-ns#"
   xmlns:svg="http://www.w3.org/2000/svg"
   xmlns="http://www.w3.org/2000/svg"
   xmlns:xlink="http://www.w3.org/1999/xlink"
   xmlns:sodipodi="http://sodipodi.sourceforge.net/DTD/sodipodi-0.dtd"
   xmlns:inkscape="http://www.inkscape.org/namespaces/inkscape"
   version="1.1"
   viewBox="0 0 512 512"
   id="svg183"
   sodipodi:docname="4-two-stage.svg"
   inkscape:version="1.0.1 (3bc2e813f5, 2020-09-07)">
  <metadata
     id="metadata187">
    <rdf:RDF>
      <cc:Work
         rdf:about="">
        <dc:format>image/svg+xml</dc:format>
        <dc:type
           rdf:resource="http://purl.org/dc/dcmitype/StillImage" />
        <dc:title></dc:title>
      </cc:Work>
    </rdf:RDF>
  </metadata>
  <sodipodi:namedview
     pagecolor="#ffffff"
     bordercolor="#666666"
     borderopacity="1"
     objecttolerance="10"
     gridtolerance="10"
     guidetolerance="10"
     inkscape:pageopacity="0"
     inkscape:pageshadow="2"
     inkscape:window-width="1920"
     inkscape:window-height="1017"
     id="namedview185"
     showgrid="false"
     inkscape:zoom="2.4914465"
     inkscape:cx="181.94435"
     inkscape:cy="285.80699"
     inkscape:window-x="-8"
     inkscape:window-y="-8"
     inkscape:window-maximized="1"
     inkscape:current-layer="svg183"
     inkscape:snap-smooth-nodes="true"
     showguides="false"
     inkscape:guide-bbox="true">
    <sodipodi:guide
       position="306.56,230.27"
       orientation="0,-1"
       id="guide1123" />
    <sodipodi:guide
       position="95.540439,271.33029"
       orientation="-0.70710678,-0.70710678"
       id="guide1167" />
    <sodipodi:guide
       position="96.604673,270.26606"
       orientation="1,0"
       id="guide1169" />
    <sodipodi:guide
       position="98.3457,274.13552"
       orientation="-0.70710678,-0.70710678"
       id="guide1171" />
    <sodipodi:guide
       position="97.827051,265.33038"
       orientation="-0.38269085,0.92387646"
       id="guide1173" />
    <sodipodi:guide
       position="58.212658,263.48833"
       orientation="0,-1"
       id="guide1179" />
  </sodipodi:namedview>
  <defs
     id="defs7">
    <linearGradient
       inkscape:collect="always"
       id="linearGradient1016">
      <stop
         style="stop-color:#e96f5b;stop-opacity:1"
         offset="0"
         id="stop1012" />
      <stop
         style="stop-color:#fcd65c;stop-opacity:1"
         offset="1"
         id="stop1014" />
    </linearGradient>
    <linearGradient
       id="a-9"
       x1="200"
       x2="200"
       y1="335"
       y2="110"
       gradientTransform="matrix(1.2359 0 0 1.2357 -59.262 -60.559)"
       gradientUnits="userSpaceOnUse">
      <stop
         stop-color="#e96f5b"
         offset=".911"
         id="stop2" />
      <stop
         stop-color="#aedbf8"
         offset="1"
         id="stop4" />
    </linearGradient>
    <linearGradient
       inkscape:collect="always"
       xlink:href="#a-9"
       id="linearGradient1036"
       gradientUnits="userSpaceOnUse"
       gradientTransform="matrix(1.2359,0,0,1.2357,-59.262,-60.559)"
       x1="200"
       y1="335"
       x2="200"
       y2="110" />
    <linearGradient
       inkscape:collect="always"
       xlink:href="#a-9"
       id="linearGradient1038"
       gradientUnits="userSpaceOnUse"
       gradientTransform="matrix(1.2359,0,0,1.2357,-59.262,-60.559)"
       x1="200"
       y1="335"
       x2="200"
       y2="110" />
    <linearGradient
       inkscape:collect="always"
       xlink:href="#linearGradient1016"
       id="linearGradient1047"
       gradientUnits="userSpaceOnUse"
       gradientTransform="translate(-6e-6,-5.5e-4)"
       x1="115.39481"
       y1="251.96205"
       x2="221.65837"
       y2="251.96205" />
  </defs>
  <path
     d="m 301.61,281.73 0.002,82.791 -18.538,51.899 v 34.599 l 17.302,44.485 h 84.04 l 17.302,-44.485 V 416.42 L 383.18,364.521 383.177,281.73"
     fill="#e5eae9"
     id="path15"
     style="stroke:#000000"
     sodipodi:nodetypes="cccccccccc" />
  <rect
     style="fill:#ca8289;fill-opacity:1;fill-rule:evenodd;stroke:none;stroke-opacity:1;stop-color:#000000"
     id="rect1121"
     width="81.567017"
     height="32.133106"
     x="301.60999"
     y="249.59689" />
  <path
     d="m 173.08,139.62 h -5.8086 v -39.542 h 12.235 z m -5.8086,0 v 3.7071 m 0,-43.249 0.007,-3.7071"
     fill="#aedbf8"
     id="path9"
     style="stroke:#000000" />
  <path
     d="M 227.46,150.74 H 212.259 L 201.878,87.72 h 25.583 z"
     fill="#e1e3e0"
     id="path11"
     style="stroke:#000000" />
  <path
     d="m 313.27,249.5959 c 0,-11.121 -3.7076,-14.064 -8.6512,-14.064 l -58.0854,0.003 -28.9234,60.56455 H 113.38 l 0.125,-81.56945 191.1128,-0.006 c 18.538,0 29.661,12.828 29.661,35.071"
     fill="#25ea4d"
     id="path1045"
     style="fill:url(#linearGradient1047);fill-opacity:1;stroke:none"
     sodipodi:nodetypes="sccccccc" />
  <path
     d="m 115.505,214.53 c -7.73505,0 -8.638,-5.0706 -8.638,-10.144 v -0.77317 c 0,-11.121 3.7076,-16.064 8.6512,-16.064 h 49.713 c 29.137,0 44.933,-0.30147 44.933,-26.912 h 3.7076 c 0,0 -10.703,-69.198 -12.359,-75.377 -1.3224,-4.9428 -2.4718,-9.8855 -9.887,-9.8855 -7.4152,0 -8.5647,4.9427 -9.8871,9.8855 -1.6561,6.1784 -12.359,75.377 -12.359,75.377 h 3.7076 c 0,5.4073 -2.3146,5.9032 -7.8561,5.9032 l -35.627,0.002 h -14.086 c -18.538,0 -29.661,14.828 -29.661,37.071 v 72.222 c 0,14.17 11.099999,20.264 29.53,20.264"
     fill="url(#a-9)"
     id="path33"
     sodipodi:nodetypes="csssscccscccccsssc"
     style="fill:url(#linearGradient1036);stroke:#000000" />
  <path
     d="m 115.505,214.53 189.1128,-0.006 c 18.538,0 29.661,12.828 29.661,35.071 l 16.228,0.002 M 115.38,296.09945 h 102.23 l 28.9234,-60.56455 58.0854,-0.003 c 4.9436,0 8.6512,2.943 8.6512,14.064 l -11.66,0.001 V 281.73"
     fill="#25ea4d"
     id="path35"
     style="fill:none;fill-opacity:1;stroke:#000000"
     sodipodi:nodetypes="sccccccccc" />
  <path
     d="m 173.09,160.63 h 37.076"
     fill="url(#a-9)"
     id="path37"
     style="fill:url(#linearGradient1038);stroke:#000000" />
  <path
     d="m 259.6,67.952 h 3.7076 m -25.954,0 h -3.7076 m 24.718,92.676 h 11.123 V 79.073 H 259.6 V 67.952 h -22.246 v 11.121 h -9.887 v 81.555 h 11.123 m -1.2359,-81.555 h 22.246"
     fill="#ca8289"
     id="path13"
     style="stroke:#000000" />
  <path
     d="m 334.19,319.62 15.475,-5.6818 42.702,113.43 -20.963,7.0559 z"
     id="path19"
     style="fill:#c2c8c8;stroke:#000000" />
  <path
     d="m 345,448.36 38.276,-6.069 0.0469,-22.086 -37.563,-5.9294 z"
     id="path21"
     style="fill:#c2c8c8;stroke:#000000" />
  <path
     d="m 306.56,281.73 v 59.313 h 71.681 V 281.73 Z"
     id="path23"
     style="fill:#c2c8c8;stroke:#000000" />
  <circle
     cx="381.95001"
     cy="431.23999"
     r="11.123"
     id="circle25"
     style="fill:#c2c8c8;stroke:#000000" />
  <circle
     cx="342.39999"
     cy="317.56"
     r="8.6512003"
     id="circle27"
     style="fill:#c2c8c8;stroke:#000000" />
  <path
     d="m 325.1,431.24 h 34.605 m -17.302,-17.3 v 34.599 m 17.302,-17.3 a 17.302,17.3 0 0 1 -17.302,17.3 17.302,17.3 0 0 1 -17.302,-17.3 17.302,17.3 0 0 1 17.302,-17.3 17.302,17.3 0 0 1 17.302,17.3 z"
     id="path29"
     style="fill:#c2c8c8;stroke:#000000" />
  <path
     d="m 162.1,255.31 h 50.267"
     opacity="0.3"
     id="path41"
     style="fill:none;stroke:#000000;stroke-width:0.5;stroke-dasharray:1.5, 0.5" />
  <path
     d="m 162.1,251.6 h 50.267"
     opacity="0.3"
     id="path43"
     style="fill:none;stroke:#000000;stroke-width:0.5;stroke-dasharray:1.5, 0.5" />
  <path
     d="m 162.1,247.89 h 50.267"
     opacity="0.3"
     id="path45"
     style="fill:none;stroke:#000000;stroke-width:0.5;stroke-dasharray:1.5, 0.5" />
  <path
     d="m 162.1,244.18 h 50.267"
     opacity="0.3"
     id="path47"
     style="fill:none;stroke:#000000;stroke-width:0.5;stroke-dasharray:1.5, 0.5" />
  <path
     d="m 162.1,240.48 h 50.267"
     opacity="0.3"
     id="path49"
     style="fill:none;stroke:#000000;stroke-width:0.5;stroke-dasharray:1.5, 0.5" />
  <path
     d="m 162.1,236.77 h 50.267"
     opacity="0.3"
     id="path51"
     style="fill:none;stroke:#000000;stroke-width:0.5;stroke-dasharray:1.5, 0.5" />
  <path
     d="m 162.1,233.06 h 50.267"
     opacity="0.3"
     id="path53"
     style="fill:none;stroke:#000000;stroke-width:0.5;stroke-dasharray:1.5, 0.5" />
  <path
     d="m 162.1,229.35 h 50.267"
     opacity="0.3"
     id="path55"
     style="fill:none;stroke:#000000;stroke-width:0.5;stroke-dasharray:1.5, 0.5" />
  <path
     d="m 162.1,259.02 h 50.267"
     opacity="0.3"
     id="path57"
     style="fill:none;stroke:#000000;stroke-width:0.5;stroke-dasharray:1.5, 0.5" />
  <path
     d="m 162.1,262.72 h 50.267"
     opacity="0.3"
     id="path59"
     style="fill:none;stroke:#000000;stroke-width:0.5;stroke-dasharray:1.5, 0.5" />
  <path
     d="m 162.1,266.43 h 50.267"
     opacity="0.3"
     id="path61"
     style="fill:none;stroke:#000000;stroke-width:0.5;stroke-dasharray:1.5, 0.5" />
  <path
     d="m 162.1,270.14 h 50.267"
     opacity="0.3"
     id="path63"
     style="fill:none;stroke:#000000;stroke-width:0.5;stroke-dasharray:1.5, 0.5" />
  <path
     d="m 162.1,273.85 h 50.267"
     opacity="0.3"
     id="path65"
     style="fill:none;stroke:#000000;stroke-width:0.5;stroke-dasharray:1.5, 0.5" />
  <path
     d="m 162.1,277.55 h 50.267"
     opacity="0.3"
     id="path67"
     style="fill:none;stroke:#000000;stroke-width:0.5;stroke-dasharray:1.5, 0.5" />
  <path
     d="m 162.1,281.26 h 50.267"
     opacity="0.3"
     id="path69"
     style="fill:none;stroke:#000000;stroke-width:0.5;stroke-dasharray:1.5, 0.5" />
  <path
     d="m 162.1,284.97 h 50.267"
     opacity="0.3"
     id="path71"
     style="fill:none;stroke:#000000;stroke-width:0.5;stroke-dasharray:1.5, 0.5" />
  <path
     d="m 162.1,288.68 h 50.267"
     opacity="0.3"
     id="path73"
     style="fill:none;stroke:#000000;stroke-width:0.5;stroke-dasharray:1.5, 0.5" />
  <path
     d="m 162.1,292.38 h 50.267"
     opacity="0.3"
     id="path75"
     style="fill:none;stroke:#000000;stroke-width:0.5;stroke-dasharray:1.5, 0.5" />
  <path
     d="m 158.04,292.38 h -30.8"
     opacity="0.3"
     id="path77"
     style="fill:none;stroke:#000000;stroke-width:0.5;stroke-dasharray:1.5, 0.5" />
  <path
     d="m 158.04,288.68 h -30.8"
     opacity="0.3"
     id="path79"
     style="fill:none;stroke:#000000;stroke-width:0.5;stroke-dasharray:1.5, 0.5" />
  <path
     d="m 158.04,284.97 h -30.8"
     opacity="0.3"
     id="path81"
     style="fill:none;stroke:#000000;stroke-width:0.5;stroke-dasharray:1.5, 0.5" />
  <path
     d="m 158.04,281.26 h -30.8"
     opacity="0.3"
     id="path83"
     style="fill:none;stroke:#000000;stroke-width:0.5;stroke-dasharray:1.5, 0.5" />
  <path
     d="m 158.04,277.55 h -30.8"
     opacity="0.3"
     id="path85"
     style="fill:none;stroke:#000000;stroke-width:0.5;stroke-dasharray:1.5, 0.5" />
  <path
     d="m 158.04,273.85 h -30.8"
     opacity="0.3"
     id="path87"
     style="fill:none;stroke:#000000;stroke-width:0.5;stroke-dasharray:1.5, 0.5" />
  <path
     d="m 158.04,270.14 h -30.8"
     opacity="0.3"
     id="path89"
     style="fill:none;stroke:#000000;stroke-width:0.5;stroke-dasharray:1.5, 0.5" />
  <path
     d="m 158.04,266.43 h -30.8"
     opacity="0.3"
     id="path91"
     style="fill:none;stroke:#000000;stroke-width:0.5;stroke-dasharray:1.5, 0.5" />
  <path
     d="m 158.04,262.72 h -30.8"
     opacity="0.3"
     id="path93"
     style="fill:none;stroke:#000000;stroke-width:0.5;stroke-dasharray:1.5, 0.5" />
  <path
     d="m 158.04,259.02 h -30.8"
     opacity="0.3"
     id="path95"
     style="fill:none;stroke:#000000;stroke-width:0.5;stroke-dasharray:1.5, 0.5" />
  <path
     d="m 158.04,255.31 h -30.8"
     opacity="0.3"
     id="path97"
     style="fill:none;stroke:#000000;stroke-width:0.5;stroke-dasharray:1.5, 0.5" />
  <path
     d="m 158.04,251.6 h -30.8"
     opacity="0.3"
     id="path99"
     style="fill:none;stroke:#000000;stroke-width:0.5;stroke-dasharray:1.5, 0.5" />
  <path
     d="m 158.04,247.89 h -30.8"
     opacity="0.3"
     id="path101"
     style="fill:none;stroke:#000000;stroke-width:0.5;stroke-dasharray:1.5, 0.5" />
  <path
     d="m 158.04,244.18 h -30.8"
     opacity="0.3"
     id="path103"
     style="fill:none;stroke:#000000;stroke-width:0.5;stroke-dasharray:1.5, 0.5" />
  <path
     d="m 158.04,240.48 h -30.8"
     opacity="0.3"
     id="path105"
     style="fill:none;stroke:#000000;stroke-width:0.5;stroke-dasharray:1.5, 0.5" />
  <path
     d="m 158.04,236.77 h -30.8"
     opacity="0.3"
     id="path107"
     style="fill:none;stroke:#000000;stroke-width:0.5;stroke-dasharray:1.5, 0.5" />
  <path
     d="m 158.04,233.06 h -30.8"
     opacity="0.3"
     id="path109"
     style="fill:none;stroke:#000000;stroke-width:0.5;stroke-dasharray:1.5, 0.5" />
  <path
     d="m 158.04,229.35 h -30.8"
     opacity="0.3"
     id="path111"
     style="fill:none;stroke:#000000;stroke-width:0.5;stroke-dasharray:1.5, 0.5" />
  <path
     d="m 162.1,225.65 h 50.267"
     opacity="0.3"
     id="path113"
     style="fill:none;stroke:#000000;stroke-width:0.5;stroke-dasharray:1.5, 0.5" />
  <path
     d="m 158.04,225.65 h -30.8"
     opacity="0.3"
     id="path115"
     style="fill:none;stroke:#000000;stroke-width:0.5;stroke-dasharray:1.5, 0.5" />
  <path
     d="m 162.1,221.94 h 50.267"
     opacity="0.3"
     id="path117"
     style="fill:none;stroke:#000000;stroke-width:0.5;stroke-dasharray:1.5, 0.5" />
  <path
     d="m 158.04,221.94 h -30.8"
     opacity="0.3"
     id="path119"
     style="fill:none;stroke:#000000;stroke-width:0.5;stroke-dasharray:1.5, 0.5" />
  <path
     d="m 162.1,218.23 h 50.267"
     opacity="0.3"
     id="path121"
     style="fill:none;stroke:#000000;stroke-width:0.5;stroke-dasharray:1.5, 0.5" />
  <path
     d="m 158.04,218.23 h -30.8"
     opacity="0.3"
     id="path123"
     style="fill:none;stroke:#000000;stroke-width:0.5;stroke-dasharray:1.5, 0.5" />
  <path
     d="m132.3 108.73-3.3245 3.324a0.61794 0.61784 0 0 0 0 0.87363l4.029 4.0283a0.25583 0.25579 0 0 1-0.18044 0.43743h-19.774a0.61794 0.61784 0 0 0-0.61794 0.61785v4.7821a0.61794 0.61784 0 0 0 0.61794 0.61785h19.774a0.25583 0.25579 0 0 1 0.18044 0.43743l-4.029 4.0283a0.61794 0.61784 0 0 0 0 0.87363l3.3245 3.324a0.61794 0.61784 0 0 0 0.87377 0l11.234-11.232a0.61794 0.61784 0 0 0 0-0.87364l-11.234-11.232a0.61794 0.61784 0 0 0-0.87377 0z"
     fill="#aedbf8"
     id="path127" />
  <path
     d="m259.6 28.287-3.3245 3.324a0.61794 0.61784 0 0 1-0.87377 0l-4.029-4.0283a0.25583 0.25579 0 0 0-0.43751 0.18041v19.771a0.61794 0.61784 0 0 1-0.61794 0.61784h-4.7829a0.61794 0.61784 0 0 1-0.61794-0.61784v-19.771a0.25583 0.25579 0 0 0-0.4375-0.18041l-4.029 4.0283a0.61794 0.61784 0 0 1-0.87377 3e-6l-3.3245-3.324a0.61794 0.61784 0 0 1 0-0.87363l11.234-11.232a0.61794 0.61784 0 0 1 0.87377 0l11.234 11.232a0.61794 0.61784 0 0 1 0 0.87363z"
     fill="#ca8289"
     id="path129" />
  <path
     d="m 334.2788,249.5969 h 16.228 v -40.773 c 0,-11.121 -3.7076,-16.064 -8.6512,-16.064 h -82.266 c -8.3298,0 -21.628,-10.862 -21.628,-28.421 0,-6.1414 4.7087,-11.121 10.505,-11.121 5.7963,0 10.505,4.9798 10.505,11.121 0,4.4732 3.584,7.4141 6.7974,7.4141 h 76.086 c 18.538,0 29.661,14.828 29.661,37.071 v 40.773 h 11.661 l 0,32.13301"
     fill="#ca8289"
     stroke="#000000"
     id="path131"
     sodipodi:nodetypes="ccssssssssscc" />
  <path
     d="m362.25 240.01v16.315s7.8624 7.4414 9.6028 6.1784h2.756v2.4714h-27.189v-2.4714h2.756c2.1381 0 9.6028-6.1784 9.6028-6.1784v-16.315s-1e-5 -1.1603 1.2359-1.1603 1.2359 1.1603 1.2359 1.1603z"
     fill="#585755"
     id="path133" />
  <path
     d="m325.01 240.01v16.315s7.8624 7.4414 9.6028 6.1784h2.756v2.4714h-27.189v-2.4714h2.756c2.1381 0 9.6028-6.1784 9.6028-6.1784v-16.315s-1e-5 -1.1603 1.2359-1.1603 1.2359 1.1603 1.2359 1.1603z"
     fill="#585755"
     id="path135" />
  <path
     d="m366.66 213.78c-0.24131 0.24119-0.63246 0.24119-0.87377 0l-2.3605-2.3602c-0.16095-0.16232-0.43779-0.0482-0.43751 0.18041v12.604c0 0.34122-0.27666 0.61785-0.61794 0.61785h-2.7313c-0.34128 0-0.61795-0.27663-0.61795-0.61785v-12.604c2.9e-4 -0.22857-0.27655-0.34273-0.4375-0.18041l-2.3605 2.3602c-0.24131 0.24119-0.63246 0.24119-0.87377 0l-1.9033-1.903c-0.24123-0.24127-0.24123-0.63236 0-0.87363l7.1187-7.1176c0.24131-0.2412 0.63246-0.2412 0.87377 0l7.1187 7.1176c0.24123 0.24127 0.24123 0.63236 0.12371 0.753z"
     fill="none"
     stroke="#000"
     id="path137" />
  <path
     d="m 202.64,296.09 v -81.568 h 2.4714 v 81.568 z"
     id="path139"
     style="fill:#25a1ea;stroke:#000000;stroke-width:0.2" />
  <path
     d="m 212.37,296.09 v -81.568 h 2.4714 v 81.568 z"
     id="path141"
     style="fill:#25a1ea;stroke:#000000;stroke-width:0.2" />
  <path
     d="m 192.9,296.09 v -81.568 h 2.4714 v 81.568 z"
     id="path143"
     style="fill:#25a1ea;stroke:#000000;stroke-width:0.2" />
  <path
     d="m 183.17,296.09 v -81.568 h 2.4714 v 81.568 z"
     id="path147"
     style="fill:#ee5c48;stroke:#000000;stroke-width:0.2" />
  <path
     d="m 173.44,296.09 v -81.568 h 2.4714 v 81.568 z"
     id="path149"
     style="fill:#ee5c48;stroke:#000000;stroke-width:0.2" />
  <path
     d="m 163.7,296.09 v -81.568 h 2.4714 v 81.568 z"
     id="path151"
     style="fill:#ee5c48;stroke:#000000;stroke-width:0.2" />
  <path
     d="m 160.77,296.1 v 4.9435 l 11.121,7.4153 h 17.3 v -12.359 z m 21.007,17.302 h 3.7071 m -13.593,0 h -3.7071 m 13.593,-4.9435 v 4.9435 h -9.8855 v -4.9435"
     id="path155"
     style="fill:#ee5c48;stroke:#000000" />
  <path
     d="m 153.97,296.09 v -81.568 h 2.4714 v 81.568 z"
     fill="#25a1ea"
     id="path159"
     style="stroke:#000000;stroke-width:0.2" />
  <path
     d="m 144.24,296.09 v -81.568 h 2.4714 v 81.568 z"
     fill="#25a1ea"
     id="path161"
     style="stroke:#000000;stroke-width:0.2" />
  <path
     d="m 134.5,296.09 v -81.568 h 2.4714 v 81.568 z"
     fill="#ee5c48"
     id="path163"
     style="stroke:#000000;stroke-width:0.2" />
  <path
     d="m 124.77,296.09 v -81.568 h 2.4714 v 81.568 z"
     fill="#ee5c48"
     stroke-width="0.2"
     id="path167"
     style="stroke:#000000" />
  <path
     d="m 217.61,296.1 v 4.9435 l -11.121,7.4153 h -17.3 v -12.359 z m -21.007,17.302 h -3.7071 m 13.593,0 h 3.7071 m -13.593,-4.9435 v 4.9435 h 9.8855 v -4.9435"
     fill="#25a1ea"
     id="path169"
     style="stroke:#000000" />
  <path
     d="m 119.93,296.1 v 4.9435 l 7.121,7.4153 h 13.3 v -12.359 z m 13.007,17.302 h 1.7071 m -7.593,0 h -1.7071 m 7.593,-4.9435 v 4.9435 h -5.8855 v -4.9435"
     fill="#ee5c48"
     id="path171"
     style="stroke:#000000" />
  <path
     d="m 160.77,296.1 v 4.9435 l -7.121,7.4153 h -13.3 v -12.359 z m -13.007,17.302 h -1.7071 m 7.593,0 h 1.7071 m -7.593,-4.9435 v 4.9435 h 5.8855 v -4.9435"
     fill="#25a1ea"
     id="path175"
     style="stroke:#000000" />
  <path
     d="m 171.89,202.17 -11.121,7.4153 v 4.9435 h 56.842 v -4.9435 L 206.49,202.17 Z"
     fill="#8d95ba"
     id="path177"
     style="stroke:#000000" />
  <path
     d="m 153.65,202.17 7.121,7.4153 v 4.9435 h -40.842 v -4.9435 l 7.121,-7.4153 z"
     fill="#8d95ba"
     id="path179"
     style="stroke:#000000" />
  <path
     fill="#25a1ea"
     d="m 207.37739,332.14304 -1.2977,1.2975 a 0.61794,0.61784 0 0 1 -0.87377,0 l -1.6684,-1.6682 a 0.25583,0.25579 0 0 0 -0.4375,0.18041 v 9.626 a 0.61794,0.61784 0 0 1 -0.61794,0.61784 h -1.8785 a 0.61794,0.61784 0 0 1 -0.61794,-0.61784 v -9.626 a 0.25583,0.25579 0 0 0 -0.43751,-0.18041 l -1.6684,1.6682 a 0.61794,0.61784 0 0 1 -0.87376,0 l -1.2977,-1.2975 a 0.61794,0.61784 0 0 1 0,-0.87363 l 5.4008,-5.4 a 0.61794,0.61784 0 0 1 0.87377,0 l 5.4008,5.4 a 0.61794,0.61784 0 0 1 0,0.87363 z"
     id="path47-5" />
  <path
     fill="#25a1ea"
     d="m 182.66549,335.74206 -1.2977,-1.2975 a 0.61794,0.61784 0 0 0 -0.87377,0 l -1.6684,1.6682 a 0.25583,0.25579 0 0 1 -0.4375,-0.18041 v -9.626 a 0.61794,0.61784 0 0 0 -0.61794,-0.61784 h -1.8785 a 0.61794,0.61784 0 0 0 -0.61794,0.61784 v 9.626 a 0.25583,0.25579 0 0 1 -0.43751,0.18041 l -1.6684,-1.6682 a 0.61794,0.61784 0 0 0 -0.87376,0 l -1.2977,1.2975 a 0.61794,0.61784 0 0 0 0,0.87363 l 5.4008,5.4 a 0.61794,0.61784 0 0 0 0.87377,0 l 5.4008,-5.4 a 0.61794,0.61784 0 0 0 0,-0.87363 z"
     id="path1151"
     style="fill:#ee5c48;fill-opacity:1" />
  <path
     id="path1153"
     style="fill:#25a1ea;fill-opacity:1"
     d="m 150.68447,322.47797 a 0.61794,0.61784 0 0 0 -0.41602,0.17968 l -5.40039,5.40039 a 0.61794,0.61784 0 0 0 0,0.875 l 1.29883,1.29688 a 0.61794,0.61784 0 0 0 0.87304,0 l 1.66797,-1.66797 a 0.25583,0.25579 0 0 1 0.4375,0.17969 v 7.18945 a 0.25583,0.25579 0 0 1 -0.4375,0.18164 l -1.66797,-1.66797 a 0.61794,0.61784 0 0 0 -0.87304,0 l -1.29883,1.29688 a 0.61794,0.61784 0 0 0 0,0.87304 l 5.40039,5.40039 a 0.61794,0.61784 0 0 0 0.875,0 l 5.40039,-5.40039 a 0.61794,0.61784 0 0 0 0,-0.87304 h -0.006 l -1.29883,-1.29688 a 0.61794,0.61784 0 0 0 -0.87304,0 l -1.66797,1.66797 a 0.25583,0.25579 0 0 1 -0.4375,-0.17187 0.25583,0.25579 0 0 1 0,-0.01 v -7.19726 a 0.25583,0.25579 0 0 1 0.4375,-0.17188 l 1.66797,1.66797 a 0.61794,0.61784 0 0 0 0.87304,0 l 1.29883,-1.29688 h 0.006 a 0.61794,0.61784 0 0 0 0,-0.875 l -5.40039,-5.40039 a 0.61794,0.61784 0 0 0 -0.45898,-0.17968 z" />
  <path
     id="path1159"
     style="fill:#ee5c48;fill-opacity:1"
     d="m 129.97258,322.47797 a 0.61794,0.61784 0 0 0 -0.41602,0.17968 l -5.40039,5.40039 a 0.61794,0.61784 0 0 0 0,0.875 l 1.29883,1.29688 a 0.61794,0.61784 0 0 0 0.87304,0 l 1.66797,-1.66797 a 0.25583,0.25579 0 0 1 0.4375,0.17969 v 7.18945 a 0.25583,0.25579 0 0 1 -0.4375,0.18164 l -1.66797,-1.66797 a 0.61794,0.61784 0 0 0 -0.87304,0 l -1.29883,1.29688 a 0.61794,0.61784 0 0 0 0,0.87304 l 5.40039,5.40039 a 0.61794,0.61784 0 0 0 0.875,0 l 5.40039,-5.40039 a 0.61794,0.61784 0 0 0 0,-0.87304 h -0.006 l -1.29883,-1.29688 a 0.61794,0.61784 0 0 0 -0.87304,0 l -1.66797,1.66797 a 0.25583,0.25579 0 0 1 -0.4375,-0.17187 0.25583,0.25579 0 0 1 0,-0.01 v -7.19726 a 0.25583,0.25579 0 0 1 0.4375,-0.17188 l 1.66797,1.66797 a 0.61794,0.61784 0 0 0 0.87304,0 l 1.29883,-1.29688 h 0.006 a 0.61794,0.61784 0 0 0 0,-0.875 l -5.40039,-5.40039 a 0.61794,0.61784 0 0 0 -0.45898,-0.17968 z" />
  <path
     d="m 98.345691,239.79353 c 0,-0.34122 -0.27666,-0.61785 -0.617949,-0.61785 h -2.731296 c -0.341279,0 -0.61795,0.27663 -0.617952,0.61785 v 6.45571 c 0,4.27356 7.848136,7.84814 7.848136,7.84814 0.16185,0.16146 0.0468,0.43791 -0.18179,0.43694 l -3.338039,2.1e-4 c -0.34118,9e-5 -0.61777,0.27667 -0.61785,0.61785 l 0.002,2.85987 c 0.002,0.16841 0.27875,0.44495 0.61993,0.44498 l 10.066579,-7.8e-4 c 0.34119,-8e-5 0.61777,-0.27666 0.61785,-0.61785 l 7.8e-4,-10.06658 c -3e-5,-0.34118 -0.27657,-0.61773 -0.61775,-0.61775 l -2.69146,2.1e-4 c -0.34118,8e-5 -0.61776,0.27667 -0.61785,0.61785 l -2.1e-4,3.33804 c 9.7e-4,0.22859 -0.27551,0.34361 -0.43693,0.18179 0,0 -6.686219,-2.829 -6.686209,-6.68622 z"
     fill="none"
     stroke="#000000"
     id="path1163"
     sodipodi:nodetypes="ssscsccccccccccccccss" />
</svg>
