<?xml version="1.0" encoding="UTF-8" standalone="no"?>
<svg
   xmlns:dc="http://purl.org/dc/elements/1.1/"
   xmlns:cc="http://creativecommons.org/ns#"
   xmlns:rdf="http://www.w3.org/1999/02/22-rdf-syntax-ns#"
   xmlns:svg="http://www.w3.org/2000/svg"
   xmlns="http://www.w3.org/2000/svg"
   xmlns:xlink="http://www.w3.org/1999/xlink"
   xmlns:sodipodi="http://sodipodi.sourceforge.net/DTD/sodipodi-0.dtd"
   xmlns:inkscape="http://www.inkscape.org/namespaces/inkscape"
   viewBox="0 0 512 512"
   version="1.1"
   id="svg149"
   sodipodi:docname="4-two-stage.svg"
   inkscape:version="1.0.1 (3bc2e813f5, 2020-09-07)">
  <metadata
     id="metadata155">
    <rdf:RDF>
      <cc:Work
         rdf:about="">
        <dc:format>image/svg+xml</dc:format>
        <dc:type
           rdf:resource="http://purl.org/dc/dcmitype/StillImage" />
      </cc:Work>
    </rdf:RDF>
  </metadata>
  <defs
     id="defs153">
    <linearGradient
       id="linearGradient1138"
       x1="200"
       x2="200"
       y1="335"
       y2="110"
       gradientTransform="matrix(1.2359,0,0,1.2357,-489.36885,-69.258175)"
       gradientUnits="userSpaceOnUse">
      <stop
         stop-color="#e96f5b"
         offset="0"
         id="stop1134" />
      <stop
         stop-color="#aedbf8"
         offset="1"
         id="stop1136" />
    </linearGradient>
    <linearGradient
       id="a-2"
       x1="200"
       x2="200"
       y1="335"
       y2="110"
       gradientTransform="matrix(1.2359,0,0,1.2357,-489.36885,-69.258175)"
       gradientUnits="userSpaceOnUse">
      <stop
         stop-color="#25a1ea"
         offset="0"
         id="stop2-7" />
      <stop
         stop-color="#25a1ea"
         offset=".0267"
         id="stop4-9" />
      <stop
         stop-color="#fcd65c"
         offset=".0622"
         id="stop6-8" />
      <stop
         stop-color="#fcd65c"
         offset=".253"
         id="stop8-6" />
      <stop
         stop-color="#e96f5b"
         offset=".502"
         id="stop10-3" />
      <stop
         stop-color="#e96f5b"
         offset=".911"
         id="stop12-2" />
      <stop
         stop-color="#aedbf8"
         offset="1"
         id="stop14-8" />
    </linearGradient>
    <linearGradient
       id="a-9"
       x1="200"
       x2="200"
       y1="335"
       y2="110"
       gradientTransform="matrix(1.2359,0,0,1.2357,-59.262,-60.558996)"
       gradientUnits="userSpaceOnUse">
      <stop
         stop-color="#25a1ea"
         offset="0"
         id="stop2-1" />
      <stop
         stop-color="#25a1ea"
         offset=".0267"
         id="stop4-8" />
      <stop
         stop-color="#fcd65c"
         offset=".0622"
         id="stop6-89" />
      <stop
         stop-color="#fcd65c"
         offset=".253"
         id="stop8-2" />
      <stop
         stop-color="#e96f5b"
         offset=".502"
         id="stop10-5" />
      <stop
         stop-color="#e96f5b"
         offset=".911"
         id="stop12-0" />
      <stop
         stop-color="#aedbf8"
         offset="1"
         id="stop14-3" />
    </linearGradient>
    <linearGradient
       inkscape:collect="always"
       xlink:href="#a-9"
       id="linearGradient1220"
       gradientUnits="userSpaceOnUse"
       gradientTransform="matrix(0,1.2359,1.2357,0,-125.91567,4.4225726)"
       x1="200"
       y1="335"
       x2="200"
       y2="110" />
  </defs>
  <sodipodi:namedview
     pagecolor="#ffffff"
     bordercolor="#666666"
     borderopacity="1"
     objecttolerance="10"
     gridtolerance="10"
     guidetolerance="10"
     inkscape:pageopacity="0"
     inkscape:pageshadow="2"
     inkscape:window-width="1920"
     inkscape:window-height="1017"
     id="namedview151"
     showgrid="false"
     inkscape:zoom="4.9828931"
     inkscape:cx="157.02218"
     inkscape:cy="152.41969"
     inkscape:window-x="-8"
     inkscape:window-y="-8"
     inkscape:window-maximized="1"
     inkscape:current-layer="svg149"
     showguides="true"
     inkscape:guide-bbox="true"
     inkscape:object-paths="true"
     inkscape:snap-smooth-nodes="true" />
  <linearGradient
     id="a"
     x1="200"
     x2="200"
     y1="335"
     y2="110"
     gradientTransform="matrix(1.2359,0,0,1.2357,-173.84377,-62.96724)"
     gradientUnits="userSpaceOnUse">
    <stop
       stop-color="#25a1ea"
       offset="0"
       id="stop2" />
    <stop
       stop-color="#25a1ea"
       offset=".0267"
       id="stop4" />
    <stop
       stop-color="#fcd65c"
       offset=".0622"
       id="stop6" />
    <stop
       stop-color="#fcd65c"
       offset=".253"
       id="stop8" />
    <stop
       stop-color="#e96f5b"
       offset=".502"
       id="stop10" />
    <stop
       stop-color="#e96f5b"
       offset=".911"
       id="stop12" />
    <stop
       stop-color="#aedbf8"
       offset="1"
       id="stop14" />
  </linearGradient>
  <path
     fill="#aedbf8"
     stroke="#000000"
     d="m 173.08,139.62 h -5.8086 v -39.542 h 12.235 z m -5.8086,0 v 3.7071 m 0,-43.249 0.007,-3.707096"
     id="path17-1" />
  <path
     fill="#e1e3e0"
     d="M 227.46,150.74 H 212.259 L 201.878,87.720004 h 25.583 z"
     id="path27-9"
     style="stroke:#000000" />
  <path
     fill="#ca8289"
     d="m 259.6,67.952004 h 3.7076 m -25.954,0 H 233.646 M 258.364,160.628 h 11.123 V 79.073004 H 259.6 v -11.121 h -22.246 v 11.121 h -9.887 V 160.628 h 11.123 m -1.2359,-81.554996 h 22.246"
     id="path23-6"
     style="stroke:#000000" />
  <path
     fill="#e5eae9"
     d="m 383.18,281.73 v 82.791 l 18.538,51.899 v 34.599 l -17.302,44.485 h -84.04 L 283.074,451.019 V 416.42 l 18.538,-51.899 -0.007,-83.53902"
     id="path21"
     style="stroke:#000000"
     sodipodi:nodetypes="cccccccccc" />
  <path
     d="m 334.19,319.62 15.475,-5.6818 42.702,113.43 -20.963,7.0559 z"
     id="path33"
     style="fill:#c2c8c8;stroke:#000000" />
  <path
     d="m 345,448.36 38.276,-6.069 0.0469,-22.086 -37.563,-5.9294 z"
     id="path35"
     style="fill:#c2c8c8;stroke:#000000" />
  <path
     d="m 306.56,281.73 v 59.313 h 71.681 V 281.73 Z"
     id="path37"
     style="fill:#c2c8c8;stroke:#000000" />
  <circle
     cx="381.95001"
     cy="431.23999"
     r="11.123"
     id="circle39"
     style="fill:#c2c8c8;stroke:#000000" />
  <circle
     cx="342.39999"
     cy="317.56"
     r="8.6512003"
     id="circle41"
     style="fill:#c2c8c8;stroke:#000000" />
  <path
     fill="#c2c8c8"
     stroke="#000"
     d="m325.1 431.24h34.605m-17.302-17.3v34.599m17.302-17.3a17.302 17.3 0 0 1-17.302 17.3 17.302 17.3 0 0 1-17.302-17.3 17.302 17.3 0 0 1 17.302-17.3 17.302 17.3 0 0 1 17.302 17.3z"
     id="path77" />
  <path
     style="fill:url(#a-2);stroke:#000000"
     d="m -191.51685,336.05082 h 4.9435"
     id="path29-9" />
  <path
     fill="url(#a)"
     d="m 173.0885,160.63 h 37.076 m 0,22.1307 v -22.128 h 3.7076 c 0,0 -10.703,-69.197996 -12.359,-75.376996 -1.3224,-4.9428 -2.4718,-9.8855 -9.887,-9.8855 -7.4152,0 -8.5647,4.9427 -9.8871,9.8855 -1.6561,6.1784 -12.359,75.376996 -12.359,75.376996 h 3.7076 v 4.128 l -7.85611,1.77516 -35.6267,0.002 h -14.086 c -18.538,0 -29.661,14.828 -29.661,37.071 v 40.77307 l 21.0092,2.9e-4 v -40.77317 c 0,-11.121 3.7076,-16.064 8.6512,-16.064 h 13.44265 36.27055 z"
     id="path29-4"
     style="fill:url(#a-9);stroke:#000000"
     sodipodi:nodetypes="ccccccccsccccsccccsccc" />
  <path
     fill="#aedbf8"
     d="m 132.3,108.73 -3.3245,3.324 a 0.61794,0.61784 0 0 0 0,0.87363 l 4.029,4.0283 a 0.25583,0.25579 0 0 1 -0.18044,0.43743 h -19.774 a 0.61794,0.61784 0 0 0 -0.61794,0.61785 v 4.7821 a 0.61794,0.61784 0 0 0 0.61794,0.61785 h 19.774 a 0.25583,0.25579 0 0 1 0.18044,0.43743 l -4.029,4.0283 a 0.61794,0.61784 0 0 0 0,0.87363 l 3.3245,3.324 a 0.61794,0.61784 0 0 0 0.87377,0 l 11.234,-11.232 a 0.61794,0.61784 0 0 0 0,-0.87364 l -11.234,-11.232 a 0.61794,0.61784 0 0 0 -0.87377,0 z"
     id="path51-0" />
  <path
     fill="#ca8289"
     d="m 259.6,28.287004 -3.3245,3.324 a 0.61794,0.61784 0 0 1 -0.87377,0 l -4.029,-4.0283 a 0.25583,0.25579 0 0 0 -0.43751,0.18041 v 19.771 a 0.61794,0.61784 0 0 1 -0.61794,0.61784 h -4.7829 a 0.61794,0.61784 0 0 1 -0.61794,-0.61784 v -19.771 a 0.25583,0.25579 0 0 0 -0.4375,-0.18041 l -4.029,4.0283 a 0.61794,0.61784 0 0 1 -0.87377,3e-6 l -3.3245,-3.324 a 0.61794,0.61784 0 0 1 0,-0.87363 l 11.234,-11.232 a 0.61794,0.61784 0 0 1 0.87377,0 l 11.234,11.232 a 0.61794,0.61784 0 0 1 0,0.87363 z"
     id="path53-3" />
  <path
     fill="#ca8289"
     d="m 301.612,281.73 v -32.13283 l 11.66,-1e-4 c 0,-11.121 -3.7076,-14.064 -8.6512,-14.064 h -58.0866 v -21.0069 h 58.086 c 18.538,0 29.661,12.828 29.661,35.071 H 350.509 V 208.824 c 0,-11.121 -3.7076,-16.064 -8.6512,-16.064 h -82.266 c -8.3298,0 -21.628,-10.862 -21.628,-28.421 0,-6.1414 4.7087,-11.121 10.505,-11.121 5.7963,0 10.505,4.9798 10.505,11.121 0,4.4732 3.584,7.4141 6.7974,7.4141 h 76.086 c 18.538,0 29.661,14.828 29.661,37.071 v 40.77307 h 11.661 v 32.13293"
     id="path25-6"
     style="stroke:#000000;stroke-opacity:1"
     sodipodi:nodetypes="ccccccscccssssssscccc" />
  <path
     fill="#585755"
     d="m 362.2493,240.00725 v 16.315 c 0,0 7.86238,7.4414 9.6028,6.1784 h 2.756 v 2.4714 h -27.189 v -2.4714 h 2.756 c 2.1381,0 9.6028,-6.1784 9.6028,-6.1784 v -16.315 c 0,0 -10e-6,-1.1603 1.2359,-1.1603 1.23591,0 1.2359,1.1603 1.2359,1.1603 z"
     id="path123"
     sodipodi:nodetypes="ccsccccsccscc" />
  <path
     fill="url(#a)"
     d="m 246.5342,214.52617 h -19.03917 -80.32 v 81.5689 h 70.434 l 28.92517,-60.562"
     id="path1218"
     style="fill:url(#linearGradient1220);stroke:#000000"
     sodipodi:nodetypes="cccc" />
  <path
     fill="#585755"
     d="m 325.0123,240.00725 v 16.315 c 0,0 7.86238,7.4414 9.6028,6.1784 h 2.756 v 2.4714 h -27.189 v -2.4714 h 2.756 c 2.1381,0 9.6028,-6.1784 9.6028,-6.1784 v -16.315 c 0,0 -1e-5,-1.1603 1.2359,-1.1603 1.23591,0 1.2359,1.1603 1.2359,1.1603 z"
     id="path1224"
     sodipodi:nodetypes="ccsccccsccscc" />
  <path
     d="m 366.65779,215.91551 c -0.24131,0.24119 -0.63246,0.24119 -0.87377,0 l -2.3605,-2.3602 c -0.16095,-0.16232 -0.43779,-0.0482 -0.43751,0.18041 v 12.604 c 0,0.34122 -0.27666,0.61785 -0.61794,0.61785 h -2.7313 c -0.34128,0 -0.61795,-0.27663 -0.61795,-0.61785 v -12.604 c 2.9e-4,-0.22857 -0.27655,-0.34273 -0.4375,-0.18041 l -2.3605,2.3602 c -0.24131,0.24119 -0.63246,0.24119 -0.87377,0 l -1.9033,-1.903 c -0.24123,-0.24127 -0.24123,-0.63236 0,-0.87363 l 7.1187,-7.1176 c 0.24131,-0.2412 0.63246,-0.2412 0.87377,0 l 7.1187,7.1176 c 0.24123,0.24127 0.24123,0.63236 0.12371,0.753 z"
     id="path59"
     style="fill:none;stroke:#000000" />
</svg>
