<svg viewBox="9.5 143.75 501 227" xmlns="http://www.w3.org/2000/svg" xmlns:xlink="http://www.w3.org/1999/xlink">
  <marker id="arrow-up" overflow="visible" orient="auto">
    <path d="m5.2312 2.4202-6.5556-2.4106 6.5556-2.4106c-1.0473 1.4233-1.0412 3.3705 0 4.8212z"/>
  </marker>
  <marker id="arrow-down" overflow="visible" orient="auto">
    <path d="m-5.2312-2.4202 6.5556 2.4106-6.5556 2.4106c1.0473-1.4233 1.0412-3.3705 0-4.8212z"/>
  </marker>
  <pattern id="stripe" width="4" height="1" patternTransform="rotate(45)" patternUnits="userSpaceOnUse">
    <rect width=".5" height="1"/>
  </pattern>

  <path fill="#72c7f6" d="m26 343c74-15 150-39 213-132 133 117 149 109 255 132v11h-468z"/>
  <path fill="url(#stripe)" d="m239 211c-63 93-139 117-213 132v11h468v-11c-106-23-122-15-255-132zm-17 99.375h56v12h-56z"/>
  <path fill="none" stroke="#000" d="m26 160v194h468v-193"/>
  <path id="path1" fill="#dcd4bf" stroke="#000" d="m170 172c34-2 38 12 69 39-31-5-59-18.105-96-22-38-4-78-3-117-3v-26h30s42 10 63 13c14 2 34 0 51-1z"/>
  <path id="path2" fill="#72c7f6" stroke="#000" d="m239 211c133 117 149 109 255 132v-132z"/>
  <path id="path3" fill="#c2e6fb" stroke="#000" d="m26 343c74-15 150-39 213-132-31-5-59-18.105-96-22-38-4-78-3-117-3z"/>
  <path stroke="#000" d="m166 192.67v18.327" marker-start="url(#arrow-up)" marker-end="url(#arrow-down)"/>
  <path stroke="#000" d="m166 211v76.85" marker-start="url(#arrow-up)" marker-end="url(#arrow-down)"/>
  <path stroke="#000" stroke-dasharray="6,1" d="m26 211h213"/>

  <g font-family="Arial" font-size="10" text-anchor="middle">
    <text x="100" y="256">Fresh water</text>
    <text x="56" y="182">Water table</text>
    <text x="250" y="320">Saltwater</text>
    <text x="366" y="208">Sea level</text>
    <text x="173" y="206">h</text>
    <text x="173" y="249">z</text>
    <switch>
      <text dy="-4" requiredFeatures="http://www.w3.org/TR/SVG11/feature#Text">
        <textPath xlink:href="#path1" startOffset="92%">Land surface</textPath>
      </text>
      <path d="m156.72 166.4q0.1 0.91 0.47 1.37 0.41 0.47 1.13 0.42 0.57 0 0.89-0.29 0.33-0.25 0.43-0.61l0.79 0.17q-0.39 1.28-2.07 1.39-1.17 0.1-1.83-0.58-0.65-0.65-0.75-2.03-0.1-1.3 0.48-2.04 0.57-0.74 1.7-0.81 2.33-0.16 2.51 2.64v0.12zm2.81-0.86q-0.13-0.83-0.5-1.19-0.38-0.36-1.04-0.32-0.64 0.1-0.98 0.5-0.35 0.45-0.33 1.2zm-7.8 0.97q0.1 1.05 0.43 1.54 0.36 0.48 1.03 0.44 0.47 0 0.76-0.3 0.3-0.27 0.34-0.8h0.9q-0.1 0.77-0.58 1.25-0.51 0.49-1.35 0.54-1.11 0.1-1.74-0.59-0.62-0.66-0.7-2-0.1-1.33 0.45-2.07 0.54-0.74 1.63-0.8 0.81-0.1 1.37 0.33 0.56 0.39 0.75 1.11l-0.9 0.13q-0.1-0.44-0.39-0.68t-0.81-0.21q-0.69 0-0.98 0.53-0.28 0.48-0.21 1.58zm-4.67 3.03q-0.79 0-1.22-0.35-0.42-0.4-0.46-1.13 0-0.82 0.47-1.29 0.52-0.47 1.71-0.56l1.19-0.1v-0.28q0-0.65-0.32-0.91-0.29-0.26-0.87-0.23-0.59 0-0.85 0.24-0.26 0.22-0.29 0.66h-0.92q0.15-1.44 2.04-1.54 1-0.1 1.52 0.38 0.53 0.42 0.58 1.29l0.12 2.27q0 0.39 0.13 0.58 0.12 0.19 0.4 0.18 0.13 0 0.29 0v0.54q-0.33 0.1-0.68 0.12-0.48 0-0.72-0.22-0.23-0.24-0.29-0.79-0.31 0.63-0.74 0.9-0.43 0.28-1.07 0.31zm0.16-0.67q0.49 0 0.85-0.26 0.36-0.24 0.56-0.64 0.2-0.39 0.18-0.8v-0.43l-0.96 0.1q-0.62 0-0.93 0.18-0.31 0.13-0.47 0.38-0.16 0.26-0.14 0.65 0 0.43 0.27 0.65 0.25 0.22 0.67 0.2zm-3.36-3.92 0.2 4.64h-0.88l-0.2-4.64h-0.74v-0.64h0.74v-0.6q0-0.72 0.27-1.05 0.3-0.33 0.96-0.36 0.36 0 0.62 0v0.67q-0.22 0-0.39 0-0.34 0-0.48 0.19-0.15 0.18-0.13 0.63v0.47h1.03v0.64zm-4.16 4.81-0.14-4.05q0-0.56-0.1-1.23h0.83q0.1 0.9 0.1 1.08 0.18-0.69 0.45-0.94 0.26-0.26 0.76-0.28 0.18 0 0.36 0v0.8q-0.18 0-0.47 0-0.55 0-0.82 0.5-0.27 0.48-0.24 1.36l0.1 2.75zm-4.72-5.19 0.1 3.35q0 0.52 0.11 0.81 0.11 0.28 0.34 0.41 0.22 0.12 0.66 0.12 0.63 0 0.99-0.45 0.36-0.44 0.35-1.22v-3.06h0.87l0.1 4.16q0 0.92 0 1.12h-0.83t0-0.14q0-0.1 0-0.24t0-0.53q-0.29 0.55-0.69 0.79-0.39 0.23-0.98 0.24-0.87 0-1.28-0.41-0.41-0.43-0.42-1.43l-0.1-3.52zm-1.67 3.84q0 0.75-0.58 1.14-0.57 0.4-1.59 0.38-0.98 0-1.52-0.34-0.52-0.34-0.67-1.03l0.78-0.14q0.1 0.43 0.45 0.64 0.35 0.2 0.97 0.21 0.67 0 0.98-0.19 0.32-0.2 0.32-0.61 0-0.32-0.2-0.52-0.21-0.19-0.69-0.33l-0.63-0.17q-0.75-0.21-1.07-0.4-0.32-0.2-0.49-0.47-0.18-0.27-0.17-0.66 0-0.72 0.53-1.09 0.52-0.37 1.51-0.36 0.87 0 1.38 0.33 0.51 0.32 0.64 1l-0.8 0.1q-0.1-0.35-0.38-0.54-0.32-0.2-0.85-0.2-0.6 0-0.89 0.16-0.28 0.18-0.29 0.55 0 0.22 0.11 0.37 0.12 0.15 0.35 0.25 0.23 0.11 0.96 0.3 0.7 0.19 1 0.34 0.31 0.15 0.48 0.34 0.18 0.18 0.27 0.42 0.1 0.24 0.1 0.54zm-8.63 0.32q-0.29 0.48-0.71 0.67-0.42 0.18-1.01 0.13-1-0.1-1.41-0.8-0.41-0.71-0.29-2.07 0.24-2.76 2.18-2.59 0.59 0.1 0.97 0.31 0.38 0.25 0.59 0.75v-0.59l0.19-2.18 0.87 0.1-0.53 6.14q-0.1 0.82-0.1 1.09l-0.84-0.1q0-0.1 0-0.36 0-0.28 0-0.49zm-2.5-2.02q-0.1 1.1 0.15 1.6 0.25 0.51 0.91 0.56 0.75 0.1 1.13-0.42 0.38-0.48 0.47-1.57 0.1-1.04-0.2-1.56-0.29-0.52-1.03-0.58-0.66-0.1-1 0.41-0.33 0.46-0.43 1.56zm-2.84 2.3 0.49-3.31q0.1-0.52 0-0.82t-0.26-0.46q-0.2-0.16-0.63-0.22-0.63-0.1-1.06 0.28-0.42 0.38-0.54 1.14l-0.45 3.03-0.87-0.13 0.61-4.11q0.14-0.91 0.14-1.12l0.82 0.12t0 0.13q0 0.11 0 0.25t0 0.52q0.38-0.49 0.81-0.66t1.01-0.1q0.86 0.13 1.19 0.62 0.34 0.48 0.19 1.47l-0.52 3.48zm-7.39-1.09q-0.78-0.14-1.11-0.62-0.32-0.48-0.2-1.2 0.14-0.81 0.75-1.15 0.6-0.34 1.79-0.17l1.18 0.19v-0.29q0.1-0.63-0.12-0.95-0.22-0.33-0.8-0.42-0.58-0.11-0.88 0.1-0.3 0.15-0.42 0.57l-0.89-0.24q0.46-1.36 2.33-1.04 0.98 0.17 1.39 0.71 0.42 0.53 0.28 1.38l-0.39 2.24q-0.1 0.39 0 0.6t0.35 0.26q0.13 0 0.29 0l-0.1 0.54q-0.34 0-0.68 0-0.48-0.1-0.66-0.37-0.17-0.3-0.11-0.84-0.43 0.54-0.92 0.72-0.48 0.17-1.11 0.1zm0.31-0.62q0.48 0.1 0.88-0.1 0.41-0.15 0.69-0.49t0.35-0.74l0.1-0.43-0.95-0.14q-0.61-0.1-0.95 0-0.33 0.1-0.54 0.28-0.21 0.21-0.28 0.6-0.1 0.42 0.11 0.69 0.2 0.27 0.62 0.34zm-6.89-0.68 1.26-6.76 0.92 0.17-1.12 6.01 3.41 0.64-0.14 0.75z"/>
    </switch>
    <switch>
      <text dy="-4" requiredFeatures="http://www.w3.org/TR/SVG11/feature#Text">
        <textPath xlink:href="#path2" startOffset="23%">Sea floor</textPath>
      </text>
      <path d="m380.39 309.56 1.63-3.71q0.22-0.51 0.47-1.14l0.76 0.34q-0.33 0.83-0.4 1 0.46-0.54 0.81-0.66t0.81 0.1q0.16 0.1 0.31 0.19l-0.33 0.74q-0.14-0.11-0.41-0.23-0.5-0.22-0.95 0.1t-0.81 1.12l-1.11 2.52zm0.17-2.81q-0.58 1.26-1.42 1.62t-1.9-0.13q-1.05-0.49-1.29-1.38-0.23-0.89 0.33-2.1 1.15-2.48 3.29-1.48 1.1 0.51 1.34 1.36 0.24 0.84-0.35 2.11zm-0.84-0.39q0.46-0.99 0.37-1.58-0.1-0.58-0.78-0.91-0.7-0.32-1.22 0-0.52 0.31-0.98 1.28-0.44 0.95-0.35 1.57 0.1 0.62 0.75 0.92 0.72 0.34 1.24 0 0.52-0.32 0.97-1.3zm-4.06-1.89q-0.61 1.24-1.46 1.58t-1.89-0.17-1.26-1.41q-0.21-0.89 0.38-2.09 1.2-2.45 3.33-1.4 1.08 0.53 1.3 1.38t-0.4 2.11zm-0.83-0.41q0.49-0.98 0.41-1.57-0.1-0.59-0.76-0.92-0.69-0.35-1.22 0-0.53 0.3-1.01 1.26-0.46 0.94-0.39 1.56 0.1 0.62 0.73 0.94 0.71 0.35 1.23 0 0.54-0.3 1.01-1.27zm-6.26-0.18 3.31-6.45 0.78 0.41-3.31 6.44zm0.7-4.87-2.16 4.11-0.78-0.41 2.16-4.11-0.65-0.35 0.29-0.56 0.66 0.34 0.28-0.52q0.33-0.64 0.76-0.77 0.43-0.14 1.01 0.17 0.33 0.17 0.52 0.34l-0.31 0.59q-0.18-0.14-0.33-0.22-0.29-0.15-0.51-0.1-0.21 0.1-0.42 0.48l-0.22 0.41 0.91 0.48-0.3 0.57zm-9.21 0.38q-0.69-0.39-0.84-0.95-0.14-0.56 0.22-1.2 0.4-0.72 1.08-0.84 0.69-0.12 1.75 0.45l1.05 0.56 0.14-0.25q0.31-0.56 0.21-0.94t-0.61-0.66q-0.52-0.29-0.85-0.25-0.33 0-0.59 0.4l-0.76-0.52q0.89-1.13 2.54-0.21 0.87 0.49 1.08 1.14 0.22 0.64-0.2 1.39l-1.12 1.99q-0.19 0.34-0.2 0.56 0 0.22 0.25 0.36 0.11 0.1 0.27 0.12l-0.27 0.47q-0.33-0.1-0.63-0.26-0.43-0.24-0.5-0.57-0.1-0.34 0.18-0.83-0.59 0.36-1.1 0.36t-1.07-0.31zm0.5-0.48q0.42 0.24 0.85 0.23 0.44 0 0.81-0.23 0.38-0.23 0.58-0.58l0.21-0.38-0.84-0.46q-0.55-0.29-0.89-0.35-0.33-0.1-0.6 0.1-0.27 0.13-0.46 0.47-0.21 0.38-0.13 0.69 0.1 0.32 0.47 0.53zm-4.54-4.81q-0.46 0.78-0.39 1.4 0.1 0.61 0.7 0.98 0.49 0.29 0.9 0.27 0.42 0 0.7-0.27l0.56 0.58q-1.04 0.84-2.49 0-1.01-0.59-1.19-1.51-0.17-0.91 0.53-2.1 0.66-1.13 1.54-1.42t1.86 0.29q2.01 1.18 0.59 3.6l-0.1 0.1zm2.81 0.87q0.36-0.76 0.25-1.26-0.11-0.52-0.68-0.85-0.55-0.32-1.09-0.14-0.54 0.17-0.94 0.8zm-4.54-1.25q-0.5 0.81-1.41 0.86-0.9 0.1-2.06-0.65-2.14-1.31-1.56-3.01l0.86 0.32q-0.19 0.61 0.1 1.12 0.28 0.51 1.02 0.97 0.77 0.47 1.35 0.47t0.9-0.52q0.17-0.29 0.15-0.55 0-0.26-0.18-0.52-0.17-0.26-0.45-0.54t-0.62-0.62q-0.6-0.58-0.87-0.96-0.26-0.37-0.35-0.69-0.1-0.32-0.1-0.64 0.1-0.32 0.25-0.65 0.46-0.75 1.29-0.81 0.83-0.1 1.9 0.61 1 0.62 1.34 1.25t0.1 1.49l-0.87-0.34q0.16-0.55-0.1-0.98-0.23-0.43-0.87-0.82-0.7-0.44-1.21-0.43-0.52 0-0.8 0.47-0.17 0.27-0.14 0.53 0 0.27 0.23 0.56 0.2 0.28 0.9 0.96 0.23 0.23 0.46 0.46t0.42 0.47 0.33 0.49 0.19 0.52q0.1 0.28 0 0.57t-0.25 0.61z"/>
    </switch>
    <switch>
      <text dy="-4" requiredFeatures="http://www.w3.org/TR/SVG11/feature#Text">
        <textPath xlink:href="#path3" startOffset="14%">Interface</textPath>
      </text>
      <path d="m121.83 306.54q0.4 0.82 0.95 1.1t1.2 0q0.52-0.25 0.73-0.6 0.21-0.36 0.16-0.73l0.79-0.14q0.12 1.33-1.39 2.06-1.05 0.52-1.91 0.16-0.85-0.37-1.46-1.6-0.57-1.18-0.32-2.08 0.25-0.89 1.27-1.39 2.09-1.02 3.32 1.51v0.1zm2.28-1.86q-0.43-0.71-0.91-0.9-0.49-0.2-1.08 0.1-0.58 0.28-0.73 0.83-0.15 0.54 0.15 1.23zm-6.79 3.74q0.44 0.96 0.96 1.28 0.51 0.32 1.12 0 0.42-0.2 0.6-0.56t0-0.87l0.83-0.32q0.23 0.73-0.1 1.37-0.31 0.65-1.07 1-1 0.46-1.83 0.1-0.82-0.4-1.38-1.62-0.56-1.21-0.33-2.09 0.24-0.88 1.23-1.34 0.74-0.34 1.4-0.18 0.66 0.15 1.1 0.76l-0.8 0.45q-0.24-0.37-0.6-0.49t-0.83 0.1q-0.63 0.29-0.72 0.84-0.1 0.55 0.37 1.55zm-3.24 4.48q-0.73 0.32-1.26 0.1-0.54-0.22-0.84-0.89-0.33-0.75 0-1.37 0.32-0.62 1.4-1.14l1.08-0.49-0.12-0.27q-0.26-0.59-0.62-0.73t-0.9 0.1-0.7 0.53q-0.17 0.29 0 0.72l-0.87 0.29q-0.37-1.39 1.36-2.16 0.91-0.4 1.56-0.18 0.64 0.21 0.99 1l0.92 2.08q0.16 0.36 0.33 0.5t0.44 0q0.11-0.1 0.25-0.15l0.22 0.5q-0.27 0.21-0.59 0.35-0.45 0.2-0.76 0.1-0.3-0.15-0.55-0.64-0.1 0.69-0.37 1.1-0.3 0.41-0.89 0.67zm-0.1-0.68q0.44-0.2 0.69-0.55 0.26-0.35 0.3-0.79 0.1-0.44-0.12-0.81l-0.17-0.4-0.87 0.41q-0.57 0.26-0.81 0.49-0.25 0.24-0.3 0.53-0.1 0.29 0.1 0.65 0.17 0.4 0.47 0.52 0.31 0.12 0.71 0zm-4.49-2.51 1.82 4.27-0.81 0.35-1.82-4.28-0.68 0.29-0.25-0.59 0.68-0.29-0.23-0.54q-0.28-0.67-0.12-1.08 0.17-0.42 0.77-0.68 0.34-0.14 0.6-0.19l0.26 0.62q-0.22 0.1-0.38 0.12-0.31 0.13-0.38 0.35-0.1 0.21 0.1 0.63l0.19 0.43 0.95-0.4 0.25 0.59zm-2.21 5.96-1.55-3.75q-0.21-0.51-0.49-1.12l0.76-0.32q0.38 0.82 0.45 0.98-0.1-0.71 0.1-1.05 0.16-0.33 0.62-0.52 0.16-0.1 0.35-0.1l0.31 0.74q-0.19 0-0.46 0.14-0.5 0.21-0.59 0.75-0.1 0.55 0.25 1.36l1.05 2.55zm-5.4-0.48q0.33 0.84 0.87 1.16 0.53 0.32 1.2 0.1 0.53-0.21 0.76-0.55 0.24-0.34 0.22-0.72l0.8-0.1q0 1.34-1.54 1.96-1.09 0.43-1.92 0-0.82-0.42-1.33-1.7-0.48-1.22-0.17-2.09 0.31-0.88 1.37-1.3 2.17-0.86 3.2 1.75v0.11zm2.41-1.68q-0.37-0.75-0.84-0.97-0.47-0.23-1.08 0-0.6 0.23-0.79 0.77-0.19 0.53 0.1 1.24zm-2.8 4.42q-0.36 0.26-0.79 0.43-0.984 0.37-1.41-0.75l-1.257-3.29-0.57 0.22-0.228-0.6 0.602-0.23-0.179-1.2 0.547-0.2 0.421 1.1 0.913-0.35 0.228 0.6-0.913 0.35 1.186 3.11q0.14 0.36 0.31 0.46t0.46 0q0.16-0.1 0.45-0.25zm-3.9 1.52-1.154-3.14q-0.18-0.49-0.376-0.73t-0.45-0.28q-0.255 0-0.663 0.11-0.596 0.22-0.79 0.75-0.194 0.54 0.07 1.26l1.056 2.88-0.826 0.3-1.432-3.9q-0.318-0.87-0.416-1.05l0.779-0.29q0.01 0 0.05 0.12 0.04 0.1 0.1 0.23t0.198 0.49h0.01q0.1-0.61 0.39-0.96 0.296-0.35 0.851-0.56 0.816-0.3 1.342 0 0.528 0.27 0.871 1.2l1.214 3.31zm-5.488 1.98-2.292-6.49 0.88-0.31 2.291 6.49z"/>
    </switch>
  </g>
</svg>
