<?xml version="1.0" encoding="UTF-8"?>
<svg viewBox="0 0 512 512" xmlns="http://www.w3.org/2000/svg"
     xmlns:xlink="http://www.w3.org/1999/xlink">
  <pattern id="a" patternTransform="matrix(2.5321 2.5321 -4.2925 4.2925 321.93 -22.934)"
           xlink:href="#f"/>
  <marker id="b" orient="auto" overflow="visible">
    <path d="m-5.2312-2.4202 6.5556 2.4106-6.5556 2.4106c1.0473-1.4233 1.0412-3.3705 0-4.8212z"
          fill-rule="evenodd" stroke="#000" stroke-linejoin="round" stroke-width=".625"/>
  </marker>
  <marker id="c" orient="auto" overflow="visible">
    <path d="m5.2312 2.4202-6.5556-2.4106 6.5556-2.4106c-1.0473 1.4233-1.0412 3.3705 0 4.8212z"
          fill-rule="evenodd" stroke="#000" stroke-linejoin="round" stroke-width=".625"/>
  </marker>
  <marker id="d" orient="auto" overflow="visible">
    <path d="m-5.2312-2.4202 6.5556 2.4106-6.5556 2.4106c1.0473-1.4233 1.0412-3.3705 0-4.8212z"
          fill-rule="evenodd" stroke="#000" stroke-linejoin="round" stroke-width=".625"/>
  </marker>
  <marker id="e" orient="auto" overflow="visible">
    <path d="m5.2312 2.4202-6.5556-2.4106 6.5556-2.4106c-1.0473 1.4233-1.0412 3.3705 0 4.8212z"
          fill-rule="evenodd" stroke="#000" stroke-linejoin="round" stroke-width=".625"/>
  </marker>
  <pattern id="f" height="8.000001" patternTransform="translate(317.93 -22.934)"
           patternUnits="userSpaceOnUse" width="7.850015">
    <path d="m317.93-22.934h7.85v8h-7.85z" fill="none"/>
    <path d="m.92 0v8" fill="none" stroke="#666" stroke-width=".2"/>
    <path d="m1.92 0v8" fill="none" stroke="#666" stroke-width=".2"/>
    <path d="m2.92 0v8" fill="none" stroke="#666" stroke-width=".2"/>
    <path d="m3.92 0v8" fill="none" stroke="#666" stroke-width=".2"/>
    <path d="m4.92 0v8" fill="none" stroke="#666" stroke-width=".2"/>
    <path d="m5.92 0v8" fill="none" stroke="#666" stroke-width=".2"/>
    <path d="m6.92 0v8" fill="none" stroke="#666" stroke-width=".2"/>
    <path d="m.05 0v8" fill="none" stroke="#666" stroke-width=".1"/>
    <path d="m7.8 0v8" fill="none" stroke="#666" stroke-width=".1"/>
  </pattern>
  <path id="g" d="m26 343c74-15 150-39 213-132-31-5-59-18.105-96-22-38-4-78-3-117-3z" fill="#c2e6fb"
        stroke="#000"/>
  <g fill="none">
    <g stroke="#000">
      <path d="m26 160v194h468v-193"/>
      <path d="m494 211h-255"/>
      <path d="m26 211h213" stroke-dasharray="6 1"/>
    </g>
    <path d="m287-256h8v8h-8z"/>
  </g>
  <path d="m26 343c74-15 150-39 213-132 133 117 149 109 255 132v11h-468z" fill="#72c7f6"/>
  <path d="m239 211c-63 93-139 117-213 132v11h468v-11c-106-23-122-15-255-132zm-17 99.375h56v12h-56z" fill="url(#a)"/>
  <text font-family="Arial" font-size="10" letter-spacing="0" word-spacing="0" x="228.86473" y="319.9541">Saltwater</text>
  <path d="m26 343c74-15 150-39 213-132 133 117 149 109 255 132v11h-468z" fill="none"
        stroke="#000"/>
  <path id="h"
        d="m170 172c-17 1-37 3-51 1-21-3-63-13-63-13h-30v26c39 0 79-1 117 3 37 3.8947 65 17 96 22-31-27-35-41-69-39z"
        fill="#dcd4bf" stroke="#000"/>
  <path id="i" d="m239 211c133 117 149 109 255 132v-132z" fill="#72c7f6" stroke="#000"/>
  <g font-family="Arial">
    <g font-size="10">
      <text font-family="Arial" font-size="10">
        <textPath startOffset="40%" xlink:href="#h">
          <tspan dy="-4">Water table</tspan>
        </textPath>
      </text>
      <text font-family="Arial" font-size="10">
        <textPath startOffset="20%" xlink:href="#i">
          <tspan dy="-4">Sea floor</tspan>
        </textPath>
      </text>
      <text font-family="Arial" font-size="10">
        <textPath startOffset="12%" xlink:href="#g">
          <tspan dy="-4">Interface</tspan>
        </textPath>
      </text>
    </g>
    <text font-family="Arial" font-size="10">
      <textPath startOffset="40%" xlink:href="#j">
        <tspan dy="-4">Land surface</tspan>
      </textPath>
    </text>
    <text font-family="Arial" font-size="10" x="81.485878" y="255.53815">Fresh water</text>
    <text font-family="Arial" font-size="10" x="345.64542" y="207.58635">Sea level</text>
  </g>
  <text font-family="Arial" font-size="40" letter-spacing="0" word-spacing="0" x="171.34082" y="206.1582">h</text>
  <text font-family="Arial" font-size="10" letter-spacing="0" word-spacing="0" x="171.80469" y="249.18555">z</text>
  <path d="m166 192.67v18.327" fill="none" marker-end="url(#d)" marker-start="url(#e)" stroke="#000"/>
  <path d="m166 211v76.85" fill="none" marker-end="url(#b)" marker-start="url(#c)" stroke="#000"/>
  <path id="j" d="m26 160h30s42 10 63 13c14 2 34 0 51-1 34-2 38 12 69 39" fill="none" stroke="#000"/>
</svg>
