<?xml version="1.0" encoding="UTF-8"?>
<svg viewBox="0 0 512 512" xmlns="http://www.w3.org/2000/svg" xmlns:xlink="http://www.w3.org/1999/xlink">
  <marker id="arrow-up" orient="auto" overflow="visible">
    <path fill="#000" d="m5.2312 2.4202-6.5556-2.4106 6.5556-2.4106c-1.0473 1.4233-1.0412 3.3705 0 4.8212z"/>
  </marker>
  <marker id="arrow-down" orient="auto" overflow="visible">
    <path fill="#000" d="m-5.2312-2.4202 6.5556 2.4106-6.5556 2.4106c1.0473-1.4233 1.0412-3.3705 0-4.8212z"/>
  </marker>

  <pattern id="stripe" fill="none" stroke="#666" stroke-width=".2" width="7.85" height="8" patternTransform="matrix(3 3 -4 4 0 0)" patternUnits="userSpaceOnUse">
    <path d="m.92 0v8"/>
    <path d="m1.92 0v8"/>
    <path d="m2.92 0v8"/>
    <path d="m3.92 0v8"/>
    <path d="m4.92 0v8"/>
    <path d="m5.92 0v8"/>
    <path d="m6.92 0v8"/>
    <path stroke-width=".1" d="m.05 0v8"/>
    <path stroke-width=".1" d="m7.8 0v8"/>
  </pattern>

  <path fill="#72c7f6" d="m26 343c74-15 150-39 213-132 133 117 149 109 255 132v11h-468z"/>
  <path fill="url(#stripe)" d="m239 211c-63 93-139 117-213 132v11h468v-11c-106-23-122-15-255-132zm-17 99.375h56v12h-56z"/>
  <path fill="none" stroke="#000" d="m26 160v194h468v-193"/>
  <path id="path1" fill="#dcd4bf" stroke="#000" d="m170 172c34-2 38 12 69 39-31-5-59-18.105-96-22-38-4-78-3-117-3v-26h30s42 10 63 13c14 2 34 0 51-1z"/>
  <path id="path2" fill="#72c7f6" stroke="#000" d="m239 211c133 117 149 109 255 132v-132z"/>
  <path id="path3" fill="#c2e6fb" stroke="#000" d="m26 343c74-15 150-39 213-132-31-5-59-18.105-96-22-38-4-78-3-117-3z"/>
  <path stroke="#000" marker-start="url(#arrow-up)" marker-end="url(#arrow-down)" d="m166 192.67v18.327"/>
  <path stroke="#000" marker-start="url(#arrow-up)" marker-end="url(#arrow-down)" d="m166 211v76.85"/>
  <path stroke="#000" stroke-dasharray="6 1" d="m26 211h213"/>

  <g font-family="Arial" font-size="10" text-anchor="middle">
    <text x="100" y="256">Fresh water</text>
    <text x="56" y="182">Water table</text>
    <text x="250" y="320">Saltwater</text>
    <text x="366" y="208">Sea level</text>
    <text x="173" y="206">h</text>
    <text x="173" y="249">z</text>
    <text dy="-4"><textPath startOffset="92%" xlink:href="#path1">Land surface</textPath></text>
    <text dy="-4"><textPath startOffset="23%" xlink:href="#path2">Sea floor</textPath></text>
    <text dy="-4"><textPath startOffset="14%" xlink:href="#path3">Interface</textPath></text>
  </g>
</svg>
