<svg viewBox="0 0 512 512" xmlns="http://www.w3.org/2000/svg">
  <g fill="none" stroke="#888" stroke-width="2.5" stroke-dasharray="5,5">
    <path d="m413.05 172.06a55.614 55.614 0 0 1-30.133-49.355"/>
    <path d="m89.11 262.11a92.69 92.69 0 0 1 97.577 37.322 92.69 92.69 0 0 1 0.84853 104.47"/>
    <path d="m111.37 444.98a92.69 92.69 0 0 1-77.315-40.336 92.69 92.69 0 0 1-9.6108-86.673"/>
  </g>

  <g stroke="#000" stroke-width="2.5">
    <circle r="74.152" cx="110.54" cy="352.29" fill="#cbedff"/>
    <circle r="37.076" cx="438.54" cy="122.63" fill="#e5e5e5"/>
    <path fill="none" d="m24.367 318.16a92.69 92.69 0 0 1 64.742-56.046"/>
  </g>
  <g fill="none" stroke="#000">
    <path stroke-width="2.5" d="m383.05 126.34a55.614 55.614 0 0 1 37.004-56.162 55.614 55.614 0 0 1 64.04 20.55 55.614 55.614 0 0 1-2.5833 67.207 55.614 55.614 0 0 1-65.429 15.573"/>
    <path stroke-width="2.5" d="m87.297 262.56 363-85.578"/>
    <path stroke-width="2.5" d="m186.87 404.89 204.57-311.83"/>
    <path stroke-width=".67429" d="m201.09 279.84c-0.75956 2.8347 0.16855 5.9593 3.4258 7.1801m20.334 26.752c-2.9235-0.25578-5.5423-2.1966-5.5754-5.675" transform="matrix(3.7076 0 0 3.7076 -721.58 -718.39)"/>
    <path stroke-width=".67429" d="m297.96 228.13c0.36969 2.2532 3.4471 4.824 6.7595 4.4358m1.8565 7.869c-1.9909-1.118-3.3542-4.8891-1.8564-7.869" transform="matrix(3.7076 0 0 3.7076 -721.58 -718.39)"/>
  </g>
  <path fill="none" stroke="#000" stroke-width="2.5" d="m186.21 405.83a92.69 92.69 0 0 1-73.057 39.112"/>
  <path fill="#f6f3d5" stroke="#000" stroke-width="1.5" d="m258.85 295.16-7.5514-4.954m15.103 9.9083-7.5514-4.954m-9.0432 28.617s0.92583-10.005-2.5528-11.454l7.4493 4.887s9.0229-11.375 11.698-17.096c1.8878-4.0375 4.2112-10.902 3.1315-15.504 0 0 3.9805-1.1038 10.1-7.3776l-6.3074-4.1379-6.3074-4.138c-3.3179 8.1121-2.7453 12.203-2.7453 12.203-4.6514 0.84229-10.023 5.7072-12.975 9.0466-4.1832 4.7326-11.024 17.539-11.024 17.539l7.4492 4.8871c-2.7138-2.6142-11.523 2.2194-11.523 2.2194l6.8031 4.4632z"/>
  <g fill="#000" font-family="Arial" font-size="20">
    <text x="89.015602" y="418.56119">1</text>
    <text x="191.12608" y="421.92734">2</text>
    <text x="271.36038" y="316.73059">3</text>
    <text x="377.88217" y="89.515999">4</text>
    <text x="389.00497" y="184.75500">5</text>
    <text x="410.55542" y="144.43484">6</text>
    <text x="367.91800" y="149.7645300">7</text>
    <text x="448.32660" y="197.963330">8</text>
    <text x="81.037888" y="253.74957">9</text>
    <text x="40.980896" y="352.43103">10</text>
  </g>
</svg>
