<svg viewBox="0 0 512 512" xmlns="http://www.w3.org/2000/svg">
  <g fill="none" stroke="#888" stroke-width="1.5" stroke-dasharray="4.5, 4.5">
    <path d="m80.1 285c36.3-13.5 77.2-3.49 103 25.3 26 28.8 31.9 70.4 14.8 105"/>
    <path d="m108 469c-52.3-2.62-92.5-47.1-89.9-99.4"/>
    <path d="m400 153c-19.3-6.23-33.9-22.3-38.1-42.2"/>
  </g>

  <g fill="none" stroke="#000" stroke-width="1.5">
    <path d="m198 415 167-339"/>
    <path d="m435 153-354 132"/>
    <path d="m18.5 369c-0.66 13.1 9.96 29.2 22.1 26.6"/>
    <path d="m108 469c-13.1-0.659-28.1-12.8-24.3-24.6"/>
    <path d="m18.5 369c1.9-37.8 26.1-70.9 61.6-84.1"/>
    <path d="m198 416c-16.7 34-52 54.8-89.8 52.9"/>
    <path d="m362 110c-5.4-25.2 6.76-50.8 29.7-62.5s50.8-6.62 68.1 12.5c17.3 19.1 19.5 47.4 5.58 69-14 21.6-40.7 31.1-65.2 23.2"/>
    <path d="m362 110c1.82 8.46 17.7 22.4 27.5 13.5m10.6 28.6c-8.24-2.66-20.5-19.9-10.7-28.7"/>
  </g>

  <circle fill="#cbe6ff" stroke="#000" stroke-width="2.5" r="75.8" cx="113" cy="374"/>
  <circle fill="#e5e5e5" stroke="#000" stroke-width="2.5" r="37.9" cx="418" cy="98.5"/>
  <path fill="#f2eed8" stroke="#000" stroke-width="1.5" d="m262 311-18.8-9.27m3.39 38.9s0.68-8.94-5.07-11.8l10.7 5.25s18.1-35.4 10.3-39.2c0 0 7.43-4.96 9.67-9.5l-14.9-7.34c-2.24 4.54-1.64 13.5-1.64 13.5-7.77-3.83-24.8 32.1-24.8 32.1l10.7 5.26c-5.75-2.83-12.4 3.15-12.4 3.15l8.75 4.31z"/>

  <circle r="3" cx="198" cy="415"/>
  <circle r="3" cx="362" cy="110"/>
  <circle r="3" cx="435" cy="153"/>
  <circle r="3" cx="80.7" cy="285"/>
  <circle r="3" cx="40.6" cy="396"/>
  <circle r="3" cx="84.1" cy="444"/>
  <circle r="3" cx="400" cy="153"/>
  <circle r="3" cx="390" cy="124"/>
  <circle r="3" cx="365" cy="76.2"/>

  <g font-family="Arial" font-size="12px">
    <text x="341.54047" y="258.20541">1- Lift off</text>
    <text x="342.48477" y="281.03796">2- Inject to Lunar trajectory</text>
    <text x="342.34320" y="306.25528">3- Move LM around</text>
    <text x="342.69476" y="329.06439">4- Break into Lunar orbit</text>
    <text x="342.34906" y="351.86179">5- Descent two men</text>
    <text x="342.39594" y="374.70020">6- Lunar landing</text>
    <text x="342.27875" y="400.03470">7- LOR</text>
    <text x="342.36078" y="422.87311">8- Return to Earth</text>
    <text x="342.34906" y="445.71152">9- Re-enter</text>
    <text x="341.54047" y="468.66125">10- Splash down</text>
  </g>

  <g font-family="Arial" font-size="16px">
    <text x="80.510025" y="435.78592">1</text>
    <text x="204.5513" y="423.169280">2</text>
    <text x="263.50262" y="327.73489">3</text>
    <text x="349.67789" y="77.397293">4</text>
    <text x="385.53287" y="165.78304">5</text>
    <text x="392.98126" y="120.65445">6</text>
    <text x="349.23248" y="125.72559">7</text>
    <text x="434.95782" y="169.92810">8</text>
    <text x="70.235504" y="278.82693">9</text>
    <text x="46.101986" y="400.67471">10</text>
  </g>
</svg>
