<svg viewBox="0 0 512 512" xmlns="http://www.w3.org/2000/svg">
  <g fill="none" stroke="#888" stroke-width="1.5" stroke-dasharray="4.5,4.5">
    <path d="m65.171 286.01c36.341-13.497 77.238-3.489 103.24 25.263 26.001 28.752 31.861 70.446 14.792 105.25"/>
    <path d="m93.401 469.42c-52.252-2.625-92.483-47.11-89.859-99.362"/>
    <path d="m385.36 153.4c-19.326-6.233-33.858-22.303-38.124-42.156"/>
  </g>

  <g fill="none" stroke="#000" stroke-width="1.5">
    <path d="m183.48 415.97 167.01-338.97"/>
    <path d="m419.74 153.58-353.99 132.22"/>
    <path d="m3.5442 370.06c-0.65971 13.138 9.9641 29.238 22.057 26.64"/>
    <path d="m93.404 469.42c-13.138-0.65971-28.093-12.843-24.296-24.615"/>
    <path d="m3.5416 370.06c1.899-37.817 26.134-70.87 61.629-84.052"/>
    <path d="m183.2 416.52c-16.673 33.995-51.987 54.797-89.803 52.898"/>
    <path d="m347.23 111.24c-5.403-25.152 6.76-50.796 29.656-62.525s50.815-6.6173 68.07 12.462c17.255 19.08 19.543 47.371 5.58 68.976-13.964 21.605-40.698 31.138-65.182 23.242"/>
    <path d="m347.26 111.26c1.818 8.461 17.738 22.367 27.512 13.528m10.612 28.628c-8.236-2.657-20.477-19.89-10.703-28.729"/>
  </g>

  <circle r="75.784" cx="98.152" cy="374.82" fill="#cbe6ff" stroke="#000" stroke-width="2.5"/>
  <circle r="37.892" cx="402.8" cy="99.305" fill="#e5e5e5" stroke="#000" stroke-width="2.5"/>
  <path fill="#f2eed8" stroke="#000" stroke-width="1.5" d="m246.55 311.66-9.4066-4.6334-9.4052-4.6363m3.3907 38.911s0.68019-8.9407-5.0688-11.773l10.666 5.2538s18.112-35.413 10.342-39.24c0 0 7.4342-4.9612 9.6688-9.4978l-7.4472-3.6682-7.446-3.6705c-2.236 4.536-1.6408 13.454-1.6408 13.454-7.7686-3.8295-24.816 32.109-24.816 32.109l10.664 5.257c-5.7481-2.8335-12.424 3.153-12.424 3.153l8.7494 4.3131z"/>

  <circle r="3" cx="183.47" cy="415.97"/>
  <circle r="3" cx="347.23" cy="111.24"/>
  <circle r="3" cx="419.77" cy="153.62"/>
  <circle r="3" cx="65.743" cy="285.8"/>
  <circle r="3" cx="25.602" cy="396.7"/>
  <circle r="3" cx="69.107" cy="444.81"/>
  <circle r="3" cx="385.36" cy="153.4"/>
  <circle r="3" cx="374.74" cy="124.76"/>
  <circle r="3" cx="350.46" cy="76.973"/>

  <g font-family="Arial" font-size="12px">
    <text>1- Lift off</text>
    <text>2- Inject to Lunar trajectory</text>
    <text>3- Move LM around</text>
    <text>4- Break into Lunar orbit</text>
    <text>5- Descent two men</text>
    <text>6- Lunar landing</text>
    <text>7- LOR</text>
    <text>8- Return to Earth</text>
    <text>9- Re-enter</text>
    <text>10- Splash down</text>
  </g>

  <g font-family="Arial" font-size="16px">
    <text x="67.714142" y="434.98318">1</text>
    <text x="190.55130" y="430.39401">2</text>
    <text x="252.31223" y="328.53763">3</text>
    <text x="332.66757" y="77.597977">4</text>
    <text x="369.12463" y="167.18784">5</text>
    <text x="378.98126" y="118.24621">6</text>
    <text x="334.22903" y="128.33452">7</text>
    <text x="423.36606" y="170.32947">8</text>
    <text x="56.235500" y="278.82693">9</text>
    <text x="32.101986" y="400.67471">10</text>
  </g>
</svg>
