<svg viewBox="0 0 512 512" xmlns="http://www.w3.org/2000/svg">
  <g fill="none" stroke="#888" stroke-width="1.5" stroke-dasharray="4.5, 4.5">
    <path d="m80.12 285.25c36.341-13.497 77.238-3.489 103.24 25.263 26.001 28.752 31.861 70.446 14.792 105.25"/>
    <path d="m108.35 468.66c-52.252-2.625-92.483-47.11-89.859-99.362"/>
    <path d="m400.31 152.64c-19.326-6.233-33.858-22.303-38.124-42.156"/>
  </g>

  <g fill="none" stroke="#000" stroke-width="1.5">
    <path d="m198.43 415.21 167.01-338.97"/>
    <path d="m434.69 152.82-353.99 132.22"/>
    <path d="m18.494 369.3c-0.6597 13.138 9.9641 29.238 22.057 26.64"/>
    <path d="m108.35 468.66c-13.138-0.659-28.093-12.843-24.296-24.615"/>
    <path d="m18.491 369.3c1.899-37.817 26.134-70.87 61.629-84.052"/>
    <path d="m198.15 415.76c-16.673 33.995-51.987 54.797-89.803 52.898"/>
    <path d="m362.18 110.48c-5.403-25.152 6.76-50.796 29.656-62.525s50.815-6.6173 68.07 12.462c17.255 19.08 19.543 47.371 5.58 68.976-13.964 21.605-40.698 31.138-65.182 23.242"/>
    <path d="m362.21 110.5c1.818 8.461 17.738 22.367 27.512 13.528m10.612 28.628c-8.236-2.657-20.477-19.89-10.703-28.729"/>
  </g>

  <circle r="75.784" cx="113.1" cy="374.06" fill="#cbe6ff" stroke="#000" stroke-width="2.5"/>
  <circle r="37.892" cx="417.75" cy="98.546" fill="#e5e5e5" stroke="#000" stroke-width="2.5"/>
  <path fill="#f2eed8" stroke="#000" stroke-width="1.5" d="m261.5 310.9-9.4066-4.6334-9.4052-4.6363m3.3907 38.911s0.68019-8.9407-5.0688-11.773l10.666 5.2538s18.112-35.413 10.342-39.24c0 0 7.4342-4.9612 9.6688-9.4978l-7.4472-3.6682-7.446-3.6705c-2.236 4.536-1.6408 13.454-1.6408 13.454-7.7686-3.8295-24.816 32.109-24.816 32.109l10.664 5.257c-5.7481-2.8335-12.424 3.153-12.424 3.153l8.7494 4.3131z"/>

  <circle r="3" cx="198.42" cy="415.21"/>
  <circle r="3" cx="362.18" cy="110.48"/>
  <circle r="3" cx="434.72" cy="152.86"/>
  <circle r="3" cx="80.692" cy="285.04"/>
  <circle r="3" cx="40.551" cy="395.94"/>
  <circle r="3" cx="84.056" cy="444.05"/>
  <circle r="3" cx="400.31" cy="152.64"/>
  <circle r="3" cx="389.69" cy="124"/>
  <circle r="3" cx="365.41" cy="76.214"/>

  <g font-family="Arial" font-size="12px">
    <text x="341.54047" y="258.20541">1- Lift off</text>
    <text x="351.75104" y="281.03796">2- Inject to Lunar trajectory</text>
    <text x="360.10208" y="306.25528">3- Move LM around</text>
    <text x="365.25665" y="329.06439">4- Break into Lunar orbit</text>
    <text x="368.27621" y="351.86179">5- Descent two men</text>
    <text x="369.23926" y="374.70020">6- Lunar landing</text>
    <text x="368.44806" y="400.03470">7- LOR</text>
    <text x="364.54605" y="422.87311">8- Return to Earth</text>
    <text x="359.01453" y="445.71152">9- Re-enter</text>
    <text x="344.45670" y="468.66125">10- Splash down</text>
  </g>

  <g font-family="Arial" font-size="16px">
    <text x="80.510025" y="435.78592">1</text>
    <text x="204.5513" y="423.169280">2</text>
    <text x="263.50262" y="327.73489">3</text>
    <text x="349.67789" y="77.397293">4</text>
    <text x="385.53287" y="165.78304">5</text>
    <text x="392.98126" y="120.65445">6</text>
    <text x="349.23248" y="125.72559">7</text>
    <text x="434.95782" y="169.92810">8</text>
    <text x="70.235504" y="278.82693">9</text>
    <text x="46.101986" y="400.67471">10</text>
  </g>
</svg>
