<svg version="1.1" viewBox="0 0 512 512" xmlns="http://www.w3.org/2000/svg" xmlns:xlink="http://www.w3.org/1999/xlink">
  <defs>
    <pattern id="Packedcircles" width="1" height="1.73205080756" patternTransform="translate(0) scale(10)" patternUnits="userSpaceOnUse">
      <circle cy=".5" r=".5"/>
      <circle cx="1" cy=".5" r=".5"/>
      <circle cx=".5" cy="1.366" r=".5"/>
      <circle cx=".5" cy="-.36603" r=".5"/>
    </pattern>
    <pattern id="pattern4885" patternTransform="matrix(-.79064 1.1693 21.741 14.7 232.62 13.961)" xlink:href="#Strips1_1"/>
    <pattern id="Strips1_1" width="2" height="1" patternTransform="translate(0) scale(10)" patternUnits="userSpaceOnUse">
      <rect y="-.5" width="1" height="2"/>
    </pattern>
    <linearGradient id="linearGradient102224" x1="700" x2="700" y1="268" y2="427.62" gradientTransform="matrix(1 0 0 1.04 -312 -77.646)" gradientUnits="userSpaceOnUse">
      <stop stop-color="#ffaeae" stop-opacity="0" offset="0"/>
      <stop stop-color="#ffaeae" offset="1"/>
    </linearGradient>
  </defs>
  <ellipse cx="124" cy="256" rx="110.84" ry="192.1" fill="#aaffa8"/>
  <g stroke="#000" stroke-width="1px">
    <path d="m4 207.07h98v-6h-98" fill="#b2b2b2"/>
    <path d="m244 207.07h-98v-6h98" fill="#b2b2b2"/>
    <path d="m104 201.07h-2v6h2" fill="#fff"/>
    <path d="m144 201.07h2v6h-2" fill="#fff"/>
  </g>
  <g id="aaaaaaaaaaa" transform="translate(0 -4.8919e-5)" stroke="#000">
    <path d="m104 368.82-16.703 5.381c-2.7204 0.877-4.7665 3.138-5.3677 5.932-0.6011 2.795 0.3341 5.697 2.4534 7.615s5.1006 2.559 7.821 1.682l11.797-3.8z" fill="#fff" style="font-variation-settings:normal"/>
    <circle cx="89.75" cy="381.82" r="8" fill="url(#Packedcircles)" style="font-variation-settings:normal"/>
  </g>
  <ellipse cx="388" cy="256" rx="110.84" ry="192.1" fill="#aaffa8"/>
  <path d="m281.79 201.07a110.84 192.1 0 0 0-4.6289 54.926 110.84 192.1 0 0 0 110.84 192.1 110.84 192.1 0 0 0 110.84-192.1 110.84 192.1 0 0 0-4.6289-54.926h-96.213v208h-20v-208z" fill="#ffaeae"/>
  <g stroke="#000" stroke-width="1px">
    <path d="m268 207.07h98v-6h-98" fill="#b2b2b2"/>
    <path d="m508 207.07h-98v-6h98" fill="#b2b2b2"/>
    <path d="m368 201.07h-2v6h2" fill="#fff"/>
    <path d="m408 201.07h2v6h-2" fill="#fff"/>
  </g>
  <path d="m378 201.07h20v208h-20z" fill="url(#linearGradient102224)"/>
  <use transform="rotate(180 126 38.908)" x="-260" y="-600" width="100%" height="100%" xlink:href="#aaaaaaaaaaa"/>
  <use transform="rotate(180 126 25.587)" x="-260" y="-600" width="100%" height="100%" xlink:href="#aaaaaaaaaaa"/>
  <use transform="rotate(180 126 12.266)" x="-260" y="-600" width="100%" height="100%" xlink:href="#aaaaaaaaaaa"/>
  <use transform="rotate(180 -6.0001 70.784)" x="-260" y="-600" width="100%" height="100%" xlink:href="#aaaaaaaaaaa"/>
  <use transform="rotate(180 -6 46.838)" x="-260" y="-600" width="100%" height="100%" xlink:href="#aaaaaaaaaaa"/>
  <use transform="rotate(180 126 -1.055)" x="-260" y="-600" width="100%" height="100%" xlink:href="#aaaaaaaaaaa"/>
  <use transform="rotate(180 -6 22.891)" x="-260" y="-600" width="100%" height="100%" xlink:href="#aaaaaaaaaaa"/>
  <use transform="rotate(180 -6 -1.055)" x="-260" y="-600" width="100%" height="100%" xlink:href="#aaaaaaaaaaa"/>
  <use transform="translate(64 -63.75)" x="200" width="100%" height="100%" xlink:href="#aaaaaaaaaaa"/>
  <use transform="translate(64 -117.04)" x="200" width="100%" height="100%" xlink:href="#aaaaaaaaaaa"/>
  <use transform="translate(-200 -47.893)" x="200" width="100%" height="100%" xlink:href="#aaaaaaaaaaa"/>
  <use transform="translate(64 -90.393)" x="200" width="100%" height="100%" xlink:href="#aaaaaaaaaaa"/>
  <use transform="translate(-200 -95.785)" x="200" width="100%" height="100%" xlink:href="#aaaaaaaaaaa"/>
  <use transform="translate(-200 -143.68)" x="200" width="100%" height="100%" xlink:href="#aaaaaaaaaaa"/>
  <use transform="translate(64 -143.68)" x="200" width="100%" height="100%" xlink:href="#aaaaaaaaaaa"/>
  <path d="m352 85.32-22 44v4h38v60h10v-56l4-4h12l4 4v230h24l8-12v-28h-18l-4-4v-190h38v-4l-22-44zm16 116v122l-4 4h-18v28l8 12h24v-166z" fill="#fff" stroke="#000" stroke-width="1.5"/>
  <path d="m352 85.32-22 44v4h38v60h10v-56l4-4h12l4 4v230h24l8-12v-28h-18l-4-4v-190h38v-4l-22-44zm16 116v122l-4 4h-18v28l8 12h24v-166z" fill="url(#pattern4885)" opacity=".5"/>
  <path d="m88 149.07-22 44v4h38v60h10v-56l4-4h12l4 4v230h24l8-12v-28h-18l-4-4v-190h38v-4l-22-44zm16 116v122l-4 4h-18v28l8 12h24v-166z" fill="#fff" stroke="#000" stroke-width="1.5"/>
  <path d="m88 149.07-22 44v4h38v60h10v-56l4-4h12l4 4v230h24l8-12v-28h-18l-4-4v-190h38v-4l-22-44zm16 116v122l-4 4h-18v28l8 12h24v-166z" fill="url(#pattern4885)" opacity=".5"/>
</svg>
