<svg viewBox="0 0 512 512" xmlns="http://www.w3.org/2000/svg" xmlns:xlink="http://www.w3.org/1999/xlink">
  <defs>
    <pattern id="pattern1" width="2" height="1" patternTransform="rotate(-60)" patternUnits="userSpaceOnUse">
      <rect fill="#000" width="1" height="2"/>
      <rect fill="#fff" width="1" height="2" x="1"/>
    </pattern>
    <pattern id="pattern2" width="2" height="1" patternTransform="rotate(60)" patternUnits="userSpaceOnUse">
      <rect fill="#000" width="1" height="2"/>
      <rect fill="#fff" width="1" height="2" x="1"/>
    </pattern>
    <linearGradient id="gradient" x1="385" x2="385" y1="200" y2="370" gradientUnits="userSpaceOnUse">
      <stop stop-color="#ffaeae" stop-opacity="0" offset="0"/>
      <stop stop-color="#ffaeae" offset="1"/>
    </linearGradient>
  </defs>
  <ellipse fill="#aaffa8" cx="124" cy="256" rx="110.84" ry="192.1"/>
  <g stroke="#000" stroke-width="1px">
    <path fill="#b2b2b2" d="m4 207.07h98v-6h-98"/>
    <path fill="#b2b2b2" d="m244 207.07h-98v-6h98"/>
    <path fill="#fff" d="m104 201.07h-2v6h2"/>
    <path fill="#fff" d="m144 201.07h2v6h-2"/>
  </g>
  <ellipse fill="#aaffa8" cx="388" cy="256" rx="110.84" ry="192.1"/>
  <path fill="#ffaeae" d="m281.79 201.07a110.84 192.1 0 0 0-4.6289 54.926 110.84 192.1 0 0 0 110.84 192.1 110.84 192.1 0 0 0 110.84-192.1 110.84 192.1 0 0 0-4.6289-54.926h-96.213v208h-20v-208z"/>
  <g stroke="#000" stroke-width="1px">
    <path fill="#b2b2b2" d="m268 207.07h98v-6h-98"/>
    <path fill="#b2b2b2" d="m508 207.07h-98v-6h98"/>
    <path fill="#fff" d="m368 201.07h-2v6h2"/>
    <path fill="#fff" d="m408 201.07h2v6h-2"/>
  </g>
  <path fill="url(#gradient)" d="m378 201.07h20v208h-20z"/>
  <g id="bar" stroke="#000" stroke-width="1px">
    <path fill="#fff" d="m104 368.82-16.703 5.381c-2.7204 0.877-4.7665 3.138-5.3677 5.932-0.6011 2.795 0.3341 5.697 2.4534 7.615s5.1006 2.559 7.821 1.682l11.797-3.8z"/>
    <circle fill="#fff" r="8" cx="89.75" cy="381.82"/>
    <circle fill="url(#pattern1)" opacity="0.5" r="8" cx="89.75" cy="381.82"/>
  </g>
  <use xlink:href="#bar" x="-260" y="-600" transform="rotate(180 126 38.908)"/>
  <use xlink:href="#bar" x="-260" y="-600" transform="rotate(180 126 25.587)"/>
  <use xlink:href="#bar" x="-260" y="-600" transform="rotate(180 126 12.266)"/>
  <use xlink:href="#bar" x="-260" y="-600" transform="rotate(180 126 -1.055)"/>
  <use xlink:href="#bar" x="-260" y="-600" transform="rotate(180 -6 70.784)"/>
  <use xlink:href="#bar" x="-260" y="-600" transform="rotate(180 -6 46.838)"/>
  <use xlink:href="#bar" x="-260" y="-600" transform="rotate(180 -6 22.891)"/>
  <use xlink:href="#bar" x="-260" y="-600" transform="rotate(180 -6 -1.055)"/>
  <use xlink:href="#bar" x="200" transform="translate(-200 -47.893)"/>
  <use xlink:href="#bar" x="200" transform="translate(-200 -95.785)"/>
  <use xlink:href="#bar" x="200" transform="translate(-200 -143.68)"/>
  <use xlink:href="#bar" x="200" transform="translate(64 -63.75)"/>
  <use xlink:href="#bar" x="200" transform="translate(64 -117.04)"/>
  <use xlink:href="#bar" x="200" transform="translate(64 -90.393)"/>
  <use xlink:href="#bar" x="200" transform="translate(64 -143.68)"/>
  <path fill="#fff" stroke="#000" stroke-width="1.5" d="m352 85.32-22 44v4h38v60h10v-56l4-4h12l4 4v230h24l8-12v-28h-18l-4-4v-190h38v-4l-22-44zm16 116v122l-4 4h-18v28l8 12h24v-166z"/>
  <path fill="#fff" stroke="#000" stroke-width="1.5" d="m88 149.07-22 44v4h38v60h10v-56l4-4h12l4 4v230h24l8-12v-28h-18l-4-4v-190h38v-4l-22-44zm16 116v122l-4 4h-18v28l8 12h24v-166z"/>
  <path fill="url(#pattern2)" opacity="0.5" stroke="#000" stroke-width="1.5" d="m352 85.32-22 44v4h38v60h10v-56l4-4h12l4 4v230h24l8-12v-28h-18l-4-4v-190h38v-4l-22-44zm16 116v122l-4 4h-18v28l8 12h24v-166z"/>
  <path fill="url(#pattern2)" opacity="0.5" stroke="#000" stroke-width="1.5" d="m88 149.07-22 44v4h38v60h10v-56l4-4h12l4 4v230h24l8-12v-28h-18l-4-4v-190h38v-4l-22-44zm16 116v122l-4 4h-18v28l8 12h24v-166z"/>
</svg>
