<?xml version="1.0" encoding="UTF-8" standalone="no"?>
<!-- Created with Inkscape (http://www.inkscape.org/) -->

<svg
   xmlns:dc="http://purl.org/dc/elements/1.1/"
   xmlns:cc="http://creativecommons.org/ns#"
   xmlns:rdf="http://www.w3.org/1999/02/22-rdf-syntax-ns#"
   xmlns:svg="http://www.w3.org/2000/svg"
   xmlns="http://www.w3.org/2000/svg"
   xmlns:sodipodi="http://sodipodi.sourceforge.net/DTD/sodipodi-0.dtd"
   xmlns:inkscape="http://www.inkscape.org/namespaces/inkscape"
   width="549"
   height="110.5"
   viewBox="0 0 549 110.5"
   id="svg17954"
   version="1.1"
   inkscape:version="0.91 r13725"
   sodipodi:docname="aapt.svg">
  <defs
     id="defs17956">
    <clipPath
       clipPathUnits="userSpaceOnUse"
       id="clipPath26">
      <path
         d="m 1977.99,1104.36 c 0,373.66 -302.88,676.53 -676.51,676.53 -373.64,0 -676.531,-302.87 -676.531,-676.53 0,-373.641 302.891,-676.52 676.531,-676.52 373.63,0 676.51,302.879 676.51,676.52 z"
         id="path24"
         style="clip-rule:evenodd"
         inkscape:connector-curvature="0" />
    </clipPath>
    <clipPath
       clipPathUnits="userSpaceOnUse"
       id="clipPath32">
      <path
         d="m 624.949,427.84 0,1353.05 1353.041,0 0,-1353.05 z"
         id="path30"
         inkscape:connector-curvature="0" />
    </clipPath>
    <clipPath
       clipPathUnits="userSpaceOnUse"
       id="clipPath38">
      <path
         d="m 624.949,1777.42 0,-1349.549 1349.541,0 0,1349.549 z"
         id="path36"
         inkscape:connector-curvature="0" />
    </clipPath>
  </defs>
  <sodipodi:namedview
     id="base"
     pagecolor="#ffffff"
     bordercolor="#666666"
     borderopacity="1.0"
     inkscape:pageopacity="0.0"
     inkscape:pageshadow="2"
     inkscape:zoom="0.51598204"
     inkscape:cx="317.37409"
     inkscape:cy="113.40383"
     inkscape:document-units="px"
     inkscape:current-layer="layer1"
     showgrid="false"
     fit-margin-top="0"
     fit-margin-left="0"
     fit-margin-right="0"
     fit-margin-bottom="0"
     units="px"
     inkscape:window-width="1280"
     inkscape:window-height="744"
     inkscape:window-x="-4"
     inkscape:window-y="-4"
     inkscape:window-maximized="1" />
  <metadata
     id="metadata17959">
    <rdf:RDF>
      <cc:Work
         rdf:about="">
        <dc:format>image/svg+xml</dc:format>
        <dc:type
           rdf:resource="http://purl.org/dc/dcmitype/StillImage" />
        <dc:title></dc:title>
      </cc:Work>
    </rdf:RDF>
  </metadata>
  <g
     inkscape:label="Layer 1"
     inkscape:groupmode="layer"
     id="layer1"
     transform="translate(-54.673153,-529.08494)">
    <g
       id="#002245ff"
       transform="matrix(1.25,0,0,1.25,50.504403,519.84387)">
      <path
         style="opacity:1;fill:#002245"
         inkscape:connector-curvature="0"
         d="M 43.71,26.62 C 50.4,16.9 61.2,10.13 72.86,8.33 c 13.31,-2.24 27.58,2.11 37.3,11.5 8.53,7.95 13.66,19.47 13.66,31.14 0.27,10.38 -3.45,20.76 -10.14,28.68 C 105.3,89.81 92.15,95.77 78.99,95.42 64.56,95.25 50.5,87.42 42.8,75.22 40.59,72 39.38,68.26 37.49,64.87 47.6,55.36 58.53,46.69 69.96,38.84 c 6.45,-4.1 13.18,-8.52 20.91,-9.54 3.87,-0.64 8.34,1.34 9.39,5.36 1.59,6.52 0.1,13.33 -1.58,19.69 -3.61,12.84 -9.01,25.13 -15.48,36.78 3.22,-3.59 5.64,-7.78 8.09,-11.9 5.9,-10.3 11.07,-21.15 13.98,-32.7 1.17,-5.28 2.16,-10.99 0.26,-16.22 -1.89,-4.92 -7.55,-7.2 -12.52,-7.03 -8.14,0.28 -15.57,4.25 -22.39,8.39 -12.38,7.9 -23.56,17.6 -33.91,27.98 0.69,2.05 0.55,4.2 0.34,6.31 L 36.53,65.33 C 32.13,69.69 27.29,73.57 22.8,77.83 16.29,83.43 10.39,89.72 3.66,95.07 14.05,82.68 24.99,70.75 36.54,59.44 34.49,48.12 37.06,36.02 43.71,26.62 Z"
         id="path18128" />
      <path
         style="opacity:1;fill:#002245"
         inkscape:connector-curvature="0"
         d="m 153.13,11.13 c 10.64,0.02 21.27,-0.01 31.91,0.01 7.14,22.93 14.32,45.85 21.52,68.76 1.88,0.19 3.75,0.37 5.63,0.52 0.01,3.9 0.01,7.8 0,11.7 -8.78,0 -17.56,0.01 -26.34,0 -0.02,-3.85 -0.01,-7.69 -0.02,-11.53 1.35,-0.13 2.71,-0.25 4.07,-0.36 -1.09,-3.66 -2.22,-7.32 -3.4,-10.95 -8.58,0.04 -17.17,0.08 -25.76,-0.02 -1.29,3.61 -2.35,7.3 -3.54,10.95 1.32,0.13 2.64,0.26 3.97,0.4 -0.04,3.84 -0.02,7.67 -0.03,11.51 -8.66,0.01 -17.32,0 -25.97,0.01 -0.05,-3.91 -0.04,-7.81 -0.04,-11.71 1.82,-0.17 3.63,-0.35 5.45,-0.55 6.05,-18.85 12.09,-37.71 18.21,-56.53 -1.89,-0.21 -3.79,-0.43 -5.68,-0.65 0.03,-3.85 0.02,-7.71 0.02,-11.56 m 18.03,20.35 c -2.48,8.45 -5.05,16.88 -7.68,25.29 6.74,0.01 13.48,0.03 20.22,-0.01 -3.4,-11.75 -7.76,-23.27 -9.88,-35.35 -1.57,3.14 -1.6,6.76 -2.66,10.07 z"
         id="path18130" />
      <path
         style="opacity:1;fill:#002245"
         inkscape:connector-curvature="0"
         d="m 238.58,11.08 c 10.57,0.05 21.13,0.17 31.69,-0.06 7.43,22.88 14.42,45.9 21.64,68.85 1.91,0.2 3.82,0.39 5.73,0.55 0.01,3.87 -0.01,7.73 0.04,11.6 -8.79,0.23 -17.59,0.04 -26.39,0.11 -0.04,-3.87 -0.02,-7.73 -0.03,-11.59 1.37,-0.1 2.74,-0.21 4.11,-0.31 -1.18,-3.61 -2.3,-7.25 -3.37,-10.9 -8.66,-0.03 -17.31,-0.05 -25.96,0.01 -1.1,3.65 -2.28,7.27 -3.46,10.9 1.29,0.1 2.59,0.2 3.89,0.3 -0.02,3.86 0,7.73 -0.03,11.59 -8.62,0 -17.24,-0.02 -25.85,0.01 -0.09,-3.9 -0.06,-7.81 -0.05,-11.72 1.84,-0.17 3.67,-0.37 5.51,-0.6 5.97,-18.84 12.04,-37.64 18.15,-56.44 -1.91,-0.23 -3.81,-0.48 -5.71,-0.75 0.11,-3.85 0.06,-7.7 0.09,-11.55 m 19.63,12.88 c -2.07,11.19 -6.2,21.86 -9.24,32.81 6.7,0.02 13.4,0.03 20.1,-0.01 -3.23,-11.68 -7.75,-23.04 -9.71,-35.04 -0.73,0.55 -1.11,1.3 -1.15,2.24 z"
         id="path18132" />
      <path
         style="opacity:1;fill:#002245"
         inkscape:connector-curvature="0"
         d="m 305.85,11.22 c 8.02,-0.64 16.08,-0.55 24.12,-0.75 9.95,-0.02 20.44,-0.33 29.64,4.05 6,2.81 10.08,8.84 10.93,15.35 1.1,7.91 0.82,16.84 -4.17,23.48 -4.32,5.59 -11.47,7.89 -18.21,8.85 -7.21,1.04 -14.51,0.47 -21.76,0.8 0.1,5.62 0.03,11.24 0.04,16.87 1.89,0.22 3.77,0.42 5.67,0.61 -0.07,3.9 0.2,7.81 -0.29,11.69 -8.66,-0.24 -17.35,0.26 -26,-0.27 0.06,-3.84 0.04,-7.68 0.03,-11.52 1.88,-0.15 3.76,-0.33 5.64,-0.52 -0.03,-18.85 0.01,-37.69 -0.02,-56.54 -1.87,-0.2 -3.74,-0.41 -5.6,-0.63 -0.02,-3.82 -0.01,-7.65 -0.02,-11.47 m 20.61,12.17 c -0.02,8.82 -0.01,17.64 -0.01,26.46 8.05,-0.25 16.66,1.24 24.23,-2.19 5.43,-2.64 5.7,-9.5 5.05,-14.71 -0.27,-4 -3.36,-7.33 -7.2,-8.28 -7.19,-1.93 -14.72,-1.03 -22.07,-1.28 z"
         id="path18134" />
      <path
         style="opacity:1;fill:#002245"
         inkscape:connector-curvature="0"
         d="m 378.37,11.13 c 21.28,0 42.55,0.02 63.83,-0.01 0.01,6.38 0.01,12.77 0.01,19.16 -3.26,-0.01 -6.52,-0.01 -9.77,0 -0.4,-2.15 -0.78,-4.3 -1.15,-6.45 -4.47,0 -8.93,-0.01 -13.4,0.01 -0.01,18.76 -0.01,37.52 0.01,56.28 1.87,0.17 3.76,0.34 5.64,0.51 -0.02,3.84 0,7.67 -0.04,11.5 -8.77,-0.01 -17.53,0 -26.29,0 -0.05,-3.85 -0.04,-7.69 -0.03,-11.53 1.78,-0.14 3.56,-0.28 5.35,-0.4 0.15,-18.8 0.09,-37.6 0.03,-56.39 -4.38,0.03 -8.76,0.02 -13.14,0.01 -0.42,2.15 -0.81,4.31 -1.19,6.46 -3.28,-0.01 -6.55,-0.01 -9.83,0.02 -0.06,-6.39 0,-12.78 -0.03,-19.17 z"
         id="path18136" />
    </g>
  </g>
</svg>
