<?xml version="1.0" encoding="UTF-8"?>
<svg version="1.1" viewBox="0 0 549 110.5" xmlns="http://www.w3.org/2000/svg">
  <g fill="#002245">
    <path d="m187.24 4.6714c13.3 0.025 26.587-0.0125 39.887 0.0125 8.925 28.663 17.9 57.313 26.9 85.95 2.35 0.2375 4.688 0.4625 7.038 0.65 0.012 4.875 0.012 9.7501 0 14.625-10.975 0-21.95 0.012-32.925 0-0.025-4.813-0.013-9.6126-0.025-14.413 1.687-0.1625 3.387-0.3125 5.087-0.45-1.362-4.575-2.775-9.15-4.25-13.688-10.725 0.05-21.462 0.1-32.2-0.025-1.612 4.5125-2.937 9.125-4.425 13.688 1.65 0.1625 3.3 0.325 4.963 0.5-0.05 4.8-0.025 9.5876-0.038 14.388-10.825 0.012-21.65 0-32.462 0.012-0.063-4.887-0.05-9.7621-0.05-14.637 2.275-0.2125 4.537-0.4375 6.812-0.6875 7.563-23.562 15.113-47.138 22.763-70.662-2.363-0.2625-4.738-0.5375-7.1-0.8125 0.037-4.8125 0.025-9.6375 0.025-14.45m22.537 25.438c-3.1 10.562-6.312 21.1-9.6 31.612 8.425 0.0125 16.85 0.0375 25.275-0.0125-4.25-14.688-9.7-29.088-12.35-44.188-1.962 3.925-2 8.45-3.325 12.588z"/>
    <path d="m294.06 4.6089c13.213 0.0625 26.413 0.2125 39.613-0.075 9.287 28.6 18.025 57.375 27.05 86.063 2.387 0.25 4.775 0.4875 7.162 0.6875 0.013 4.8375-0.012 9.6621 0.05 14.5-10.987 0.287-21.987 0.05-32.987 0.137-0.05-4.837-0.025-9.6621-0.038-14.487 1.713-0.125 3.425-0.2625 5.138-0.3875-1.475-4.5125-2.875-9.0625-4.213-13.625-10.825-0.0375-21.637-0.0625-32.45 0.0125-1.375 4.5625-2.85 9.0875-4.325 13.625 1.613 0.125 3.238 0.25 4.863 0.375-0.025 4.825 0 9.6621-0.038 14.487-10.775 0-21.55-0.025-32.312 0.013-0.113-4.875-0.075-9.7626-0.063-14.65 2.3-0.2125 4.588-0.4625 6.888-0.75 7.462-23.55 15.05-47.05 22.687-70.55-2.387-0.2875-4.762-0.6-7.137-0.9375 0.137-4.8125 0.075-9.625 0.112-14.438m24.538 16.1c-2.588 13.988-7.75 27.325-11.55 41.012 8.375 0.025 16.75 0.0375 25.125-0.0125-4.038-14.6-9.688-28.8-12.138-43.8-0.912 0.6875-1.387 1.625-1.437 2.8z"/>
    <path d="m378.14 4.7839c10.025-0.8 20.1-0.6875 30.15-0.9375 12.437-0.025 25.55-0.4125 37.05 5.0625 7.5 3.5125 12.6 11.05 13.662 19.188 1.375 9.8875 1.025 21.05-5.212 29.35-5.4 6.9875-14.338 9.8625-22.763 11.062-9.012 1.3-18.137 0.5875-27.2 1 0.125 7.025 0.038 14.05 0.05 21.088 2.363 0.275 4.713 0.525 7.088 0.7625-0.088 4.875 0.25 9.7621-0.363 14.612-10.825-0.3-21.687 0.325-32.5-0.337 0.075-4.8 0.05-9.6001 0.038-14.4 2.35-0.1875 4.7-0.4125 7.05-0.65-0.038-23.562 0.012-47.112-0.025-70.675-2.338-0.25-4.675-0.5125-7-0.7875-0.025-4.775-0.013-9.5625-0.025-14.338m25.762 15.213c-0.025 11.025-0.012 22.05-0.012 33.075 10.062-0.3125 20.825 1.55 30.287-2.7375 6.788-3.3 7.125-11.875 6.313-18.388-0.338-5-4.2-9.1625-9-10.35-8.988-2.4125-18.4-1.2875-27.588-1.6z"/>
    <path d="m468.79 4.6714c26.6 0 53.187 0.025 79.787-0.0125 0.013 7.975 0.013 15.963 0.013 23.95-4.075-0.0125-8.15-0.0125-12.213 0-0.5-2.6875-0.975-5.375-1.437-8.0625-5.588 0-11.163-0.0125-16.75 0.0125-0.013 23.45-0.013 46.9 0.012 70.35 2.338 0.2125 4.7 0.425 7.05 0.6375-0.025 4.8 0 9.5876-0.05 14.375-10.962-0.012-21.912 0-32.862 0-0.063-4.812-0.05-9.6121-0.038-14.412 2.225-0.175 4.45-0.35 6.688-0.5 0.187-23.5 0.112-47 0.037-70.488-5.475 0.0375-10.95 0.025-16.425 0.0125-0.525 2.6875-1.012 5.3875-1.487 8.075-4.1-0.0125-8.188-0.0125-12.288 0.025-0.075-7.9875 0-15.975-0.037-23.963z"/>
    <path d="m95.514 0.3418a55 55 0 0 0-55 55 55 55 0 0 0 0.9082 9.9492c28.299-27.732 61.383-53.232 80.502-43.131 22.652 11.968-14.867 75.586-22.092 82.512 14.608-25.714 30.724-68.584 16.834-76.023-13.537-7.2499-44.278 16.929-73.711 42.896a55 55 0 0 0 52.559 38.797 55 55 0 0 0 55-55 55 55 0 0 0-55-55z"/>
    <path d="m41.422 65.291c-16.566 16.235-31.497 33.232-41.016 44.305 12.037-10.337 27.116-24.435 42.549-38.051a55 55 0 0 1-1.5332-6.2539z"/>
  </g>
</svg>
